<svg xmlns="http://www.w3.org/2000/svg" width="810" height="300.0" viewBox="0 0 810 300.0"><g class="legend"><text x="8.0" y="12.0" fill="white">exponent</text><g transform="translate(8.0, 15.0)"><rect x="0" y="0" width="3" height="16.0" fill="rgb(153, 153, 153)"/><rect x="2" y="0" width="3" height="16.0" fill="rgb(152, 153, 154)"/><rect x="4" y="0" width="3" height="16.0" fill="rgb(152, 153, 154)"/><rect x="6" y="0" width="3" height="16.0" fill="rgb(151, 153, 155)"/><rect x="8" y="0" width="3" height="16.0" fill="rgb(151, 153, 156)"/><rect x="10" y="0" width="3" height="16.0" fill="rgb(150, 153, 156)"/><rect x="12" y="0" width="3" height="16.0" fill="rgb(149, 153, 157)"/><rect x="14" y="0" width="3" height="16.0" fill="rgb(149, 153, 158)"/><rect x="16" y="0" width="3" height="16.0" fill="rgb(148, 153, 158)"/><rect x="18" y="0" width="3" height="16.0" fill="rgb(147, 153, 159)"/><rect x="20" y="0" width="3" height="16.0" fill="rgb(147, 153, 160)"/><rect x="22" y="0" width="3" height="16.0" fill="rgb(146, 153, 160)"/><rect x="24" y="0" width="3" height="16.0" fill="rgb(146, 153, 161)"/><rect x="26" y="0" width="3" height="16.0" fill="rgb(145, 153, 162)"/><rect x="28" y="0" width="3" height="16.0" fill="rgb(144, 153, 163)"/><rect x="30" y="0" width="3" height="16.0" fill="rgb(144, 152, 163)"/><rect x="32" y="0" width="3" height="16.0" fill="rgb(143, 152, 164)"/><rect x="34" y="0" width="3" height="16.0" fill="rgb(143, 152, 165)"/><rect x="36" y="0" width="3" height="16.0" fill="rgb(142, 152, 165)"/><rect x="38" y="0" width="3" height="16.0" fill="rgb(141, 152, 166)"/><rect x="40" y="0" width="3" height="16.0" fill="rgb(141, 152, 167)"/><rect x="42" y="0" width="3" height="16.0" fill="rgb(140, 152, 167)"/><rect x="44" y="0" width="3" height="16.0" fill="rgb(140, 152, 168)"/><rect x="46" y="0" width="3" height="16.0" fill="rgb(139, 152, 169)"/><rect x="48" y="0" width="3" height="16.0" fill="rgb(138, 152, 169)"/><rect x="50" y="0" width="3" height="16.0" fill="rgb(138, 152, 170)"/><rect x="52" y="0" width="3" height="16.0" fill="rgb(137, 152, 171)"/><rect x="54" y="0" width="3" height="16.0" fill="rgb(136, 152, 171)"/><rect x="56" y="0" width="3" height="16.0" fill="rgb(136, 152, 172)"/><rect x="58" y="0" width="3" height="16.0" fill="rgb(135, 152, 173)"/><rect x="60" y="0" width="3" height="16.0" fill="rgb(135, 152, 173)"/><rect x="62" y="0" width="3" height="16.0" fill="rgb(134, 152, 174)"/><rect x="64" y="0" width="3" height="16.0" fill="rgb(133, 152, 175)"/><rect x="66" y="0" width="3" height="16.0" fill="rgb(133, 152, 175)"/><rect x="68" y="0" width="3" height="16.0" fill="rgb(132, 152, 176)"/><rect x="70" y="0" width="3" height="16.0" fill="rgb(132, 152, 177)"/><rect x="72" y="0" width="3" height="16.0" fill="rgb(131, 152, 177)"/><rect x="74" y="0" width="3" height="16.0" fill="rgb(130, 152, 178)"/><rect x="76" y="0" width="3" height="16.0" fill="rgb(130, 152, 179)"/><rect x="78" y="0" width="3" height="16.0" fill="rgb(129, 152, 180)"/><rect x="80" y="0" width="3" height="16.0" fill="rgb(128, 152, 180)"/><rect x="82" y="0" width="3" height="16.0" fill="rgb(128, 152, 181)"/><rect x="84" y="0" width="3" height="16.0" fill="rgb(127, 152, 182)"/><rect x="86" y="0" width="3" height="16.0" fill="rgb(127, 152, 182)"/><rect x="88" y="0" width="3" height="16.0" fill="rgb(126, 152, 183)"/><rect x="90" y="0" width="3" height="16.0" fill="rgb(125, 152, 184)"/><rect x="92" y="0" width="3" height="16.0" fill="rgb(125, 151, 184)"/><rect x="94" y="0" width="3" height="16.0" fill="rgb(124, 151, 185)"/><rect x="96" y="0" width="3" height="16.0" fill="rgb(124, 151, 186)"/><rect x="98" y="0" width="3" height="16.0" fill="rgb(123, 151, 186)"/><rect x="100" y="0" width="3" height="16.0" fill="rgb(122, 151, 187)"/><rect x="102" y="0" width="3" height="16.0" fill="rgb(122, 151, 188)"/><rect x="104" y="0" width="3" height="16.0" fill="rgb(121, 151, 188)"/><rect x="106" y="0" width="3" height="16.0" fill="rgb(120, 151, 189)"/><rect x="108" y="0" width="3" height="16.0" fill="rgb(120, 151, 190)"/><rect x="110" y="0" width="3" height="16.0" fill="rgb(119, 151, 190)"/><rect x="112" y="0" width="3" height="16.0" fill="rgb(119, 151, 191)"/><rect x="114" y="0" width="3" height="16.0" fill="rgb(118, 151, 192)"/><rect x="116" y="0" width="3" height="16.0" fill="rgb(117, 151, 192)"/><rect x="118" y="0" width="3" height="16.0" fill="rgb(117, 151, 193)"/><rect x="120" y="0" width="3" height="16.0" fill="rgb(116, 151, 194)"/><rect x="122" y="0" width="3" height="16.0" fill="rgb(116, 151, 194)"/><rect x="124" y="0" width="3" height="16.0" fill="rgb(115, 151, 195)"/><rect x="126" y="0" width="3" height="16.0" fill="rgb(114, 151, 196)"/><rect x="128" y="0" width="3" height="16.0" fill="rgb(114, 151, 197)"/><rect x="130" y="0" width="3" height="16.0" fill="rgb(113, 151, 197)"/><rect x="132" y="0" width="3" height="16.0" fill="rgb(113, 151, 198)"/><rect x="134" y="0" width="3" height="16.0" fill="rgb(112, 151, 199)"/><rect x="136" y="0" width="3" height="16.0" fill="rgb(111, 151, 199)"/><rect x="138" y="0" width="3" height="16.0" fill="rgb(111, 151, 200)"/><rect x="140" y="0" width="3" height="16.0" fill="rgb(110, 151, 201)"/><rect x="142" y="0" width="3" height="16.0" fill="rgb(109, 151, 201)"/><rect x="144" y="0" width="3" height="16.0" fill="rgb(109, 151, 202)"/><rect x="146" y="0" width="3" height="16.0" fill="rgb(108, 151, 203)"/><rect x="148" y="0" width="3" height="16.0" fill="rgb(108, 151, 203)"/><rect x="150" y="0" width="3" height="16.0" fill="rgb(107, 150, 204)"/><rect x="152" y="0" width="3" height="16.0" fill="rgb(106, 150, 205)"/><rect x="154" y="0" width="3" height="16.0" fill="rgb(106, 150, 205)"/><rect x="156" y="0" width="3" height="16.0" fill="rgb(105, 150, 206)"/><rect x="158" y="0" width="3" height="16.0" fill="rgb(105, 150, 207)"/><rect x="160" y="0" width="3" height="16.0" fill="rgb(104, 150, 207)"/><rect x="162" y="0" width="3" height="16.0" fill="rgb(103, 150, 208)"/><rect x="164" y="0" width="3" height="16.0" fill="rgb(103, 150, 209)"/><rect x="166" y="0" width="3" height="16.0" fill="rgb(102, 150, 209)"/><rect x="168" y="0" width="3" height="16.0" fill="rgb(101, 150, 210)"/><rect x="170" y="0" width="3" height="16.0" fill="rgb(101, 150, 211)"/><rect x="172" y="0" width="3" height="16.0" fill="rgb(100, 150, 211)"/><rect x="174" y="0" width="3" height="16.0" fill="rgb(100, 150, 212)"/><rect x="176" y="0" width="3" height="16.0" fill="rgb(99, 150, 213)"/><rect x="178" y="0" width="3" height="16.0" fill="rgb(98, 150, 214)"/><rect x="180" y="0" width="3" height="16.0" fill="rgb(98, 150, 214)"/><rect x="182" y="0" width="3" height="16.0" fill="rgb(97, 150, 215)"/><rect x="184" y="0" width="3" height="16.0" fill="rgb(97, 150, 216)"/><rect x="186" y="0" width="3" height="16.0" fill="rgb(96, 150, 216)"/><rect x="188" y="0" width="3" height="16.0" fill="rgb(95, 150, 217)"/><rect x="190" y="0" width="3" height="16.0" fill="rgb(95, 150, 218)"/><rect x="192" y="0" width="3" height="16.0" fill="rgb(94, 150, 218)"/><rect x="194" y="0" width="3" height="16.0" fill="rgb(94, 150, 219)"/><rect x="196" y="0" width="3" height="16.0" fill="rgb(93, 150, 220)"/><rect x="198" y="0" width="3" height="16.0" fill="rgb(92, 150, 220)"/><rect x="200" y="0" width="3" height="16.0" fill="rgb(92, 150, 221)"/><rect x="202" y="0" width="3" height="16.0" fill="rgb(91, 150, 222)"/><rect x="204" y="0" width="3" height="16.0" fill="rgb(90, 150, 222)"/><rect x="206" y="0" width="3" height="16.0" fill="rgb(90, 150, 223)"/><rect x="208" y="0" width="3" height="16.0" fill="rgb(89, 150, 224)"/><rect x="210" y="0" width="3" height="16.0" fill="rgb(89, 150, 224)"/><rect x="212" y="0" width="3" height="16.0" fill="rgb(88, 149, 225)"/><rect x="214" y="0" width="3" height="16.0" fill="rgb(87, 149, 226)"/><rect x="216" y="0" width="3" height="16.0" fill="rgb(87, 149, 226)"/><rect x="218" y="0" width="3" height="16.0" fill="rgb(86, 149, 227)"/><rect x="220" y="0" width="3" height="16.0" fill="rgb(86, 149, 228)"/><rect x="222" y="0" width="3" height="16.0" fill="rgb(85, 149, 228)"/><rect x="224" y="0" width="3" height="16.0" fill="rgb(84, 149, 229)"/><rect x="226" y="0" width="3" height="16.0" fill="rgb(84, 149, 230)"/><rect x="228" y="0" width="3" height="16.0" fill="rgb(83, 149, 231)"/><rect x="230" y="0" width="3" height="16.0" fill="rgb(82, 149, 231)"/><rect x="232" y="0" width="3" height="16.0" fill="rgb(82, 149, 232)"/><rect x="234" y="0" width="3" height="16.0" fill="rgb(81, 149, 233)"/><rect x="236" y="0" width="3" height="16.0" fill="rgb(81, 149, 233)"/><rect x="238" y="0" width="3" height="16.0" fill="rgb(80, 149, 234)"/><rect x="240" y="0" width="3" height="16.0" fill="rgb(79, 149, 235)"/><rect x="242" y="0" width="3" height="16.0" fill="rgb(79, 149, 235)"/><rect x="244" y="0" width="3" height="16.0" fill="rgb(78, 149, 236)"/><rect x="246" y="0" width="3" height="16.0" fill="rgb(78, 149, 237)"/><rect x="248" y="0" width="3" height="16.0" fill="rgb(77, 149, 237)"/><rect x="250" y="0" width="3" height="16.0" fill="rgb(76, 149, 238)"/><rect x="252" y="0" width="3" height="16.0" fill="rgb(76, 149, 239)"/><rect x="254" y="0" width="3" height="16.0" fill="rgb(75, 149, 239)"/><rect x="256" y="0" width="3" height="16.0" fill="rgb(74, 149, 240)"/><rect x="258" y="0" width="3" height="16.0" fill="rgb(74, 149, 241)"/><rect x="260" y="0" width="3" height="16.0" fill="rgb(73, 149, 241)"/><rect x="262" y="0" width="3" height="16.0" fill="rgb(73, 149, 242)"/><rect x="264" y="0" width="3" height="16.0" fill="rgb(72, 149, 243)"/><rect x="266" y="0" width="3" height="16.0" fill="rgb(71, 149, 243)"/><rect x="268" y="0" width="3" height="16.0" fill="rgb(71, 149, 244)"/><rect x="270" y="0" width="3" height="16.0" fill="rgb(70, 148, 245)"/><rect x="272" y="0" width="3" height="16.0" fill="rgb(70, 148, 245)"/><rect x="274" y="0" width="3" height="16.0" fill="rgb(69, 148, 246)"/><rect x="276" y="0" width="3" height="16.0" fill="rgb(68, 148, 247)"/><rect x="278" y="0" width="3" height="16.0" fill="rgb(68, 148, 248)"/><rect x="280" y="0" width="3" height="16.0" fill="rgb(67, 148, 248)"/><rect x="282" y="0" width="3" height="16.0" fill="rgb(67, 148, 249)"/><rect x="284" y="0" width="3" height="16.0" fill="rgb(66, 148, 250)"/><rect x="286" y="0" width="3" height="16.0" fill="rgb(65, 148, 250)"/><rect x="288" y="0" width="3" height="16.0" fill="rgb(65, 148, 251)"/><rect x="290" y="0" width="3" height="16.0" fill="rgb(64, 148, 252)"/><rect x="292" y="0" width="3" height="16.0" fill="rgb(63, 148, 252)"/><rect x="294" y="0" width="3" height="16.0" fill="rgb(63, 148, 253)"/><rect x="296" y="0" width="3" height="16.0" fill="rgb(62, 148, 254)"/><rect x="298" y="0" width="3" height="16.0" fill="rgb(62, 148, 254)"/></g><g transform="translate(8.0, 15.0)" fill="none" font-size="10" font-family="sans-serif" text-anchor="middle"><g class="tick" opacity="1" transform="translate(50.5, 0)"><line stroke="white" y2="19.2"/><text fill="white" y="22.2" dy="0.71em">1</text></g><g class="tick" opacity="1" transform="translate(133.83333333333334, 0)"><line stroke="white" y2="19.2"/><text fill="white" y="22.2" dy="0.71em">2</text></g><g class="tick" opacity="1" transform="translate(217.16666666666666, 0)"><line stroke="white" y2="19.2"/><text fill="white" y="22.2" dy="0.71em">3</text></g><g class="tick" opacity="1" transform="translate(300.5, 0)"><line stroke="white" y2="19.2"/><text fill="white" y="22.2" dy="0.71em">4</text></g></g></g><g class="main" transform="translate(0, 60)"><rect x="5" y="0" width="800" height="240.0" fill="#2b2b2e"/><g class="xlines"><line x1="25.0" y1="240.0" x2="25.0" y2="0.0" stroke="#202020"/><line x1="45.0" y1="240.0" x2="45.0" y2="0.0" stroke="#202020"/><line x1="65.0" y1="240.0" x2="65.0" y2="0.0" stroke="#202020"/><line x1="85.0" y1="240.0" x2="85.0" y2="0.0" stroke="#202020"/><line x1="105.0" y1="240.0" x2="105.0" y2="0.0" stroke="#202020"/><line x1="125.0" y1="240.0" x2="125.0" y2="0.0" stroke="#202020"/><line x1="145.0" y1="240.0" x2="145.0" y2="0.0" stroke="#202020"/><line x1="165.0" y1="240.0" x2="165.0" y2="0.0" stroke="#202020"/><line x1="185.0" y1="240.0" x2="185.0" y2="0.0" stroke="#202020"/><line x1="205.0" y1="240.0" x2="205.0" y2="0.0" stroke="#202020"/><line x1="225.00000000000003" y1="240.0" x2="225.00000000000003" y2="0.0" stroke="#202020"/><line x1="245.0" y1="240.0" x2="245.0" y2="0.0" stroke="#202020"/><line x1="265.0" y1="240.0" x2="265.0" y2="0.0" stroke="#202020"/><line x1="285.0" y1="240.0" x2="285.0" y2="0.0" stroke="#202020"/><line x1="305.0" y1="240.0" x2="305.0" y2="0.0" stroke="#202020"/><line x1="325.0" y1="240.0" x2="325.0" y2="0.0" stroke="#202020"/><line x1="345.0" y1="240.0" x2="345.0" y2="0.0" stroke="#202020"/><line x1="365.0" y1="240.0" x2="365.0" y2="0.0" stroke="#202020"/><line x1="385.0" y1="240.0" x2="385.0" y2="0.0" stroke="#202020"/><line x1="405.0" y1="240.0" x2="405.0" y2="0.0" stroke="#202020"/><line x1="425.0" y1="240.0" x2="425.0" y2="0.0" stroke="#202020"/><line x1="445.00000000000006" y1="240.0" x2="445.00000000000006" y2="0.0" stroke="#202020"/><line x1="464.99999999999994" y1="240.0" x2="464.99999999999994" y2="0.0" stroke="#202020"/><line x1="485.0" y1="240.0" x2="485.0" y2="0.0" stroke="#202020"/><line x1="505.0" y1="240.0" x2="505.0" y2="0.0" stroke="#202020"/><line x1="525.0" y1="240.0" x2="525.0" y2="0.0" stroke="#202020"/><line x1="545.0" y1="240.0" x2="545.0" y2="0.0" stroke="#202020"/><line x1="565.0" y1="240.0" x2="565.0" y2="0.0" stroke="#202020"/><line x1="585.0" y1="240.0" x2="585.0" y2="0.0" stroke="#202020"/><line x1="605.0" y1="240.0" x2="605.0" y2="0.0" stroke="#202020"/><line x1="625.0" y1="240.0" x2="625.0" y2="0.0" stroke="#202020"/><line x1="645.0" y1="240.0" x2="645.0" y2="0.0" stroke="#202020"/><line x1="665.0" y1="240.0" x2="665.0" y2="0.0" stroke="#202020"/><line x1="685.0" y1="240.0" x2="685.0" y2="0.0" stroke="#202020"/><line x1="705.0" y1="240.0" x2="705.0" y2="0.0" stroke="#202020"/><line x1="725.0" y1="240.0" x2="725.0" y2="0.0" stroke="#202020"/><line x1="745.0" y1="240.0" x2="745.0" y2="0.0" stroke="#202020"/><line x1="765.0" y1="240.0" x2="765.0" y2="0.0" stroke="#202020"/><line x1="785.0" y1="240.0" x2="785.0" y2="0.0" stroke="#202020"/></g><g class="ylines"><line x1="5.0" y1="220.0" x2="805.0" y2="220.0" stroke="#202020"/><line x1="5.0" y1="200.0" x2="805.0" y2="200.0" stroke="#202020"/><line x1="5.0" y1="180.0" x2="805.0" y2="180.0" stroke="#202020"/><line x1="5.0" y1="160.00000000000003" x2="805.0" y2="160.00000000000003" stroke="#202020"/><line x1="5.0" y1="139.99999999999997" x2="805.0" y2="139.99999999999997" stroke="#202020"/><line x1="5.0" y1="120.0" x2="805.0" y2="120.0" stroke="#202020"/><line x1="5.0" y1="99.99999999999999" x2="805.0" y2="99.99999999999999" stroke="#202020"/><line x1="5.0" y1="80.00000000000001" x2="805.0" y2="80.00000000000001" stroke="#202020"/><line x1="5.0" y1="60.0" x2="805.0" y2="60.0" stroke="#202020"/><line x1="5.0" y1="39.99999999999999" x2="805.0" y2="39.99999999999999" stroke="#202020"/><line x1="5.0" y1="20.000000000000007" x2="805.0" y2="20.000000000000007" stroke="#202020"/></g><g class="ease"><path d="M5,240L8.200,222.605L11.400,217.048L14.600,213.006L17.800,209.714L21,206.886L24.200,204.381L27.400,202.116L30.600,200.037L33.800,198.110L37,196.306L40.200,194.609L43.400,193.001L46.600,191.472L49.800,190.012L53,188.613L56.200,187.269L59.400,185.975L62.600,184.725L65.800,183.517L69,182.346L72.200,181.210L75.400,180.106L78.600,179.031L81.800,177.984L85,176.963L88.200,175.967L91.400,174.993L94.600,174.040L97.800,173.108L101,172.194L104.200,171.299L107.400,170.421L110.600,169.559L113.800,168.713L117,167.882L120.200,167.065L123.400,166.261L126.600,165.470L129.800,164.692L133,163.925L136.200,163.170L139.400,162.426L142.600,161.692L145.800,160.969L149,160.255L152.200,159.551L155.400,158.856L158.600,158.170L161.800,157.492L165,156.823L168.200,156.161L171.400,155.507L174.600,154.861L177.800,154.222L181,153.590L184.200,152.965L187.400,152.347L190.600,151.735L193.800,151.129L197,150.530L200.200,149.936L203.400,149.349L206.600,148.767L209.800,148.190L213,147.619L216.200,147.053L219.400,146.492L222.600,145.937L225.800,145.386L229,144.840L232.200,144.298L235.400,143.761L238.600,143.229L241.800,142.701L245,142.177L248.200,141.657L251.400,141.142L254.600,140.630L257.800,140.122L261,139.619L264.200,139.119L267.400,138.622L270.600,138.129L273.800,137.640L277,137.155L280.200,136.672L283.400,136.193L286.600,135.718L289.800,135.245L293,134.776L296.200,134.310L299.400,133.847L302.600,133.387L305.800,132.930L309,132.476L312.200,132.024L315.400,131.576L318.600,131.130L321.800,130.687L325,130.247L328.200,129.809L331.400,129.374L334.600,128.941L337.800,128.511L341,128.084L344.200,127.659L347.400,127.236L350.600,126.816L353.800,126.398L357,125.982L360.200,125.568L363.400,125.157L366.600,124.748L369.800,124.341L373,123.936L376.200,123.534L379.400,123.133L382.600,122.735L385.800,122.338L389,121.944L392.200,121.551L395.400,121.160L398.600,120.772L401.800,120.385L405,120L408.200,119.615L411.400,119.228L414.600,118.840L417.800,118.449L421,118.056L424.200,117.662L427.400,117.265L430.600,116.867L433.800,116.466L437,116.064L440.200,115.659L443.400,115.252L446.600,114.843L449.800,114.432L453,114.018L456.200,113.602L459.400,113.184L462.600,112.764L465.800,112.341L469,111.916L472.200,111.489L475.400,111.059L478.600,110.626L481.800,110.191L485,109.753L488.200,109.313L491.400,108.870L494.600,108.424L497.800,107.976L501,107.524L504.200,107.070L507.400,106.613L510.600,106.153L513.800,105.690L517,105.224L520.200,104.755L523.400,104.282L526.600,103.807L529.800,103.328L533,102.845L536.200,102.360L539.400,101.871L542.600,101.378L545.800,100.881L549,100.381L552.200,99.878L555.400,99.370L558.600,98.858L561.800,98.343L565,97.823L568.200,97.299L571.400,96.771L574.600,96.239L577.800,95.702L581,95.160L584.200,94.614L587.400,94.063L590.600,93.508L593.800,92.947L597,92.381L600.200,91.810L603.400,91.233L606.600,90.651L609.800,90.064L613,89.470L616.200,88.871L619.400,88.265L622.600,87.653L625.800,87.035L629,86.410L632.200,85.778L635.400,85.139L638.600,84.493L641.800,83.839L645,83.177L648.200,82.508L651.400,81.830L654.600,81.144L657.800,80.449L661,79.745L664.200,79.031L667.400,78.308L670.600,77.574L673.800,76.830L677,76.075L680.200,75.308L683.400,74.530L686.600,73.739L689.800,72.935L693,72.118L696.200,71.287L699.400,70.441L702.600,69.579L705.800,68.701L709,67.806L712.200,66.892L715.400,65.960L718.600,65.007L721.800,64.033L725,63.037L728.200,62.016L731.400,60.969L734.600,59.894L737.800,58.790L741,57.654L744.200,56.483L747.400,55.275L750.600,54.025L753.800,52.731L757,51.387L760.200,49.988L763.400,48.528L766.600,46.999L769.800,45.391L773,43.694L776.200,41.890L779.400,39.963L782.600,37.884L785.800,35.619L789,33.114L792.200,30.286L795.400,26.994L798.600,22.952L801.800,17.395L805,0" stroke="rgb(153, 153, 153)" fill="none"/><path d="M5,240L8.200,239.462L11.400,238.831L14.600,238.159L17.800,237.459L21,236.738L24.200,235.999L27.400,235.245L30.600,234.478L33.800,233.699L37,232.910L40.200,232.111L43.400,231.304L46.600,230.488L49.800,229.665L53,228.835L56.200,227.998L59.400,227.155L62.600,226.305L65.800,225.451L69,224.590L72.200,223.725L75.400,222.854L78.600,221.979L81.800,221.099L85,220.215L88.200,219.327L91.400,218.434L94.600,217.537L97.800,216.637L101,215.733L104.200,214.825L107.400,213.914L110.600,212.999L113.800,212.081L117,211.160L120.200,210.235L123.400,209.308L126.600,208.377L129.800,207.444L133,206.507L136.200,205.568L139.400,204.626L142.600,203.682L145.800,202.734L149,201.784L152.200,200.832L155.400,199.877L158.600,198.920L161.800,197.960L165,196.998L168.200,196.034L171.400,195.067L174.600,194.098L177.800,193.127L181,192.154L184.200,191.178L187.400,190.201L190.600,189.221L193.800,188.240L197,187.256L200.200,186.271L203.400,185.283L206.600,184.294L209.800,183.303L213,182.309L216.200,181.314L219.400,180.318L222.600,179.319L225.800,178.319L229,177.317L232.200,176.313L235.400,175.307L238.600,174.300L241.800,173.291L245,172.281L248.200,171.269L251.400,170.255L254.600,169.240L257.800,168.223L261,167.205L264.200,166.185L267.400,165.163L270.600,164.141L273.800,163.116L277,162.090L280.200,161.063L283.400,160.034L286.600,159.004L289.800,157.973L293,156.940L296.200,155.905L299.400,154.870L302.600,153.833L305.800,152.794L309,151.755L312.200,150.713L315.400,149.671L318.600,148.628L321.800,147.583L325,146.537L328.200,145.489L331.400,144.440L334.600,143.391L337.800,142.339L341,141.287L344.200,140.234L347.400,139.179L350.600,138.123L353.800,137.066L357,136.008L360.200,134.948L363.400,133.888L366.600,132.826L369.800,131.763L373,130.699L376.200,129.634L379.400,128.568L382.600,127.501L385.800,126.432L389,125.363L392.200,124.292L395.400,123.221L398.600,122.148L401.800,121.075L405,120L408.200,118.925L411.400,117.852L414.600,116.779L417.800,115.708L421,114.637L424.200,113.568L427.400,112.499L430.600,111.432L433.800,110.366L437,109.301L440.200,108.237L443.400,107.174L446.600,106.112L449.800,105.052L453,103.992L456.200,102.934L459.400,101.877L462.600,100.821L465.800,99.766L469,98.713L472.200,97.661L475.400,96.609L478.600,95.560L481.800,94.511L485,93.463L488.200,92.417L491.400,91.372L494.600,90.329L497.800,89.287L501,88.245L504.200,87.206L507.400,86.167L510.600,85.130L513.800,84.095L517,83.060L520.200,82.027L523.400,80.996L526.600,79.966L529.800,78.937L533,77.910L536.200,76.884L539.400,75.859L542.600,74.837L545.800,73.815L549,72.795L552.200,71.777L555.400,70.760L558.600,69.745L561.800,68.731L565,67.719L568.200,66.709L571.400,65.700L574.600,64.693L577.800,63.687L581,62.683L584.200,61.681L587.400,60.681L590.600,59.682L593.800,58.686L597,57.691L600.200,56.697L603.400,55.706L606.600,54.717L609.800,53.729L613,52.744L616.200,51.760L619.400,50.779L622.600,49.799L625.800,48.822L629,47.846L632.200,46.873L635.400,45.902L638.600,44.933L641.800,43.966L645,43.002L648.200,42.040L651.400,41.080L654.600,40.123L657.800,39.168L661,38.216L664.200,37.266L667.400,36.318L670.600,35.374L673.800,34.432L677,33.493L680.200,32.556L683.400,31.623L686.600,30.692L689.800,29.765L693,28.840L696.200,27.919L699.400,27.001L702.600,26.086L705.800,25.175L709,24.267L712.200,23.363L715.400,22.463L718.600,21.566L721.800,20.673L725,19.785L728.200,18.901L731.400,18.021L734.600,17.146L737.800,16.275L741,15.410L744.200,14.549L747.400,13.695L750.600,12.845L753.800,12.002L757,11.165L760.200,10.335L763.400,9.512L766.600,8.696L769.800,7.889L773,7.090L776.200,6.301L779.400,5.522L782.600,4.755L785.800,4.001L789,3.262L792.200,2.541L795.400,1.841L798.600,1.169L801.800,0.538L805,0" stroke="rgb(135, 152, 173)" fill="none"/><path d="M5,240L8.200,239.983L11.400,239.940L14.600,239.874L17.800,239.787L21,239.679L24.200,239.551L27.400,239.403L30.600,239.237L33.800,239.052L37,238.850L40.200,238.629L43.400,238.391L46.600,238.136L49.800,237.863L53,237.574L56.200,237.268L59.400,236.946L62.600,236.607L65.800,236.252L69,235.881L72.200,235.494L75.400,235.092L78.600,234.673L81.800,234.240L85,233.790L88.200,233.326L91.400,232.846L94.600,232.350L97.800,231.840L101,231.315L104.200,230.775L107.400,230.220L110.600,229.650L113.800,229.066L117,228.467L120.200,227.853L123.400,227.225L126.600,226.583L129.800,225.926L133,225.255L136.200,224.569L139.400,223.870L142.600,223.156L145.800,222.428L149,221.686L152.200,220.930L155.400,220.161L158.600,219.377L161.800,218.580L165,217.768L168.200,216.943L171.400,216.105L174.600,215.252L177.800,214.386L181,213.507L184.200,212.614L187.400,211.707L190.600,210.787L193.800,209.854L197,208.907L200.200,207.947L203.400,206.973L206.600,205.986L209.800,204.986L213,203.973L216.200,202.947L219.400,201.907L222.600,200.854L225.800,199.789L229,198.710L232.200,197.618L235.400,196.513L238.600,195.395L241.800,194.265L245,193.121L248.200,191.964L251.400,190.795L254.600,189.613L257.800,188.418L261,187.210L264.200,185.989L267.400,184.756L270.600,183.510L273.800,182.251L277,180.980L280.200,179.696L283.400,178.400L286.600,177.091L289.800,175.769L293,174.435L296.200,173.088L299.400,171.729L302.600,170.357L305.800,168.973L309,167.577L312.200,166.168L315.400,164.746L318.600,163.313L321.800,161.867L325,160.408L328.200,158.938L331.400,157.455L334.600,155.960L337.800,154.452L341,152.933L344.200,151.401L347.400,149.857L350.600,148.301L353.800,146.732L357,145.152L360.200,143.559L363.400,141.954L366.600,140.338L369.800,138.709L373,137.068L376.200,135.415L379.400,133.750L382.600,132.073L385.800,130.384L389,128.683L392.200,126.970L395.400,125.246L398.600,123.509L401.800,121.760L405,120L408.200,118.240L411.400,116.491L414.600,114.754L417.800,113.030L421,111.317L424.200,109.616L427.400,107.927L430.600,106.250L433.800,104.585L437,102.932L440.200,101.291L443.400,99.662L446.600,98.046L449.800,96.441L453,94.848L456.200,93.268L459.400,91.699L462.600,90.143L465.800,88.599L469,87.067L472.200,85.548L475.400,84.040L478.600,82.545L481.800,81.062L485,79.592L488.200,78.133L491.400,76.687L494.600,75.254L497.800,73.832L501,72.423L504.200,71.027L507.400,69.643L510.600,68.271L513.800,66.912L517,65.565L520.200,64.231L523.400,62.909L526.600,61.600L529.800,60.304L533,59.020L536.200,57.749L539.400,56.490L542.600,55.244L545.800,54.011L549,52.790L552.200,51.582L555.400,50.387L558.600,49.205L561.800,48.036L565,46.879L568.200,45.735L571.400,44.605L574.600,43.487L577.800,42.382L581,41.290L584.200,40.211L587.400,39.146L590.600,38.093L593.800,37.053L597,36.027L600.200,35.014L603.400,34.014L606.600,33.027L609.800,32.053L613,31.093L616.200,30.146L619.400,29.213L622.600,28.293L625.800,27.386L629,26.493L632.200,25.614L635.400,24.748L638.600,23.895L641.800,23.057L645,22.232L648.200,21.420L651.400,20.623L654.600,19.839L657.800,19.070L661,18.314L664.200,17.572L667.400,16.844L670.600,16.130L673.800,15.431L677,14.745L680.200,14.074L683.400,13.417L686.600,12.775L689.800,12.147L693,11.533L696.200,10.934L699.400,10.350L702.600,9.780L705.800,9.225L709,8.685L712.200,8.160L715.400,7.650L718.600,7.154L721.800,6.674L725,6.210L728.200,5.760L731.400,5.327L734.600,4.908L737.800,4.506L741,4.119L744.200,3.748L747.400,3.393L750.600,3.054L753.800,2.732L757,2.426L760.200,2.137L763.400,1.864L766.600,1.609L769.800,1.371L773,1.150L776.200,0.948L779.400,0.763L782.600,0.597L785.800,0.449L789,0.321L792.200,0.213L795.400,0.126L798.600,0.060L801.800,0.017L805,0" stroke="rgb(116, 151, 194)" fill="none"/><path d="M5,240L8.200,239.999L11.400,239.997L14.600,239.991L17.800,239.982L21,239.968L24.200,239.950L27.400,239.925L30.600,239.895L33.800,239.857L37,239.813L40.200,239.762L43.400,239.702L46.600,239.635L49.800,239.558L53,239.473L56.200,239.378L59.400,239.274L62.600,239.159L65.800,239.035L69,238.899L72.200,238.753L75.400,238.595L78.600,238.426L81.800,238.244L85,238.051L88.200,237.845L91.400,237.627L94.600,237.395L97.800,237.150L101,236.892L104.200,236.620L107.400,236.333L110.600,236.033L113.800,235.718L117,235.388L120.200,235.043L123.400,234.683L126.600,234.307L129.800,233.916L133,233.508L136.200,233.085L139.400,232.645L142.600,232.188L145.800,231.714L149,231.224L152.200,230.716L155.400,230.190L158.600,229.647L161.800,229.086L165,228.506L168.200,227.909L171.400,227.292L174.600,226.657L177.800,226.003L181,225.330L184.200,224.638L187.400,223.926L190.600,223.194L193.800,222.442L197,221.670L200.200,220.878L203.400,220.065L206.600,219.232L209.800,218.377L213,217.502L216.200,216.605L219.400,215.687L222.600,214.747L225.800,213.785L229,212.802L232.200,211.796L235.400,210.768L238.600,209.717L241.800,208.644L245,207.547L248.200,206.428L251.400,205.286L254.600,204.120L257.800,202.930L261,201.717L264.200,200.480L267.400,199.219L270.600,197.934L273.800,196.624L277,195.290L280.200,193.931L283.400,192.547L286.600,191.138L289.800,189.704L293,188.245L296.200,186.760L299.400,185.249L302.600,183.713L305.800,182.151L309,180.562L312.200,178.947L315.400,177.306L318.600,175.638L321.800,173.943L325,172.222L328.200,170.473L331.400,168.697L334.600,166.894L337.800,165.063L341,163.204L344.200,161.318L347.400,159.404L350.600,157.462L353.800,155.491L357,153.492L360.200,151.464L363.400,149.408L366.600,147.323L369.800,145.209L373,143.066L376.200,140.893L379.400,138.691L382.600,136.460L385.800,134.198L389,131.907L392.200,129.587L395.400,127.235L398.600,124.854L401.800,122.442L405,120L408.200,117.558L411.400,115.146L414.600,112.765L417.800,110.413L421,108.093L424.200,105.802L427.400,103.540L430.600,101.309L433.800,99.107L437,96.934L440.200,94.791L443.400,92.677L446.600,90.592L449.800,88.536L453,86.508L456.200,84.509L459.400,82.538L462.600,80.596L465.800,78.682L469,76.796L472.200,74.937L475.400,73.106L478.600,71.303L481.800,69.527L485,67.778L488.200,66.057L491.400,64.362L494.600,62.694L497.800,61.053L501,59.438L504.200,57.849L507.400,56.287L510.600,54.751L513.800,53.240L517,51.755L520.200,50.296L523.400,48.862L526.600,47.453L529.800,46.069L533,44.710L536.200,43.376L539.400,42.066L542.600,40.781L545.800,39.520L549,38.283L552.200,37.070L555.400,35.880L558.600,34.714L561.800,33.572L565,32.453L568.200,31.356L571.400,30.283L574.600,29.232L577.800,28.204L581,27.198L584.200,26.215L587.400,25.253L590.600,24.313L593.800,23.395L597,22.498L600.200,21.623L603.400,20.768L606.600,19.935L609.800,19.122L613,18.330L616.200,17.558L619.400,16.806L622.600,16.074L625.800,15.362L629,14.670L632.200,13.997L635.400,13.343L638.600,12.708L641.800,12.091L645,11.494L648.200,10.914L651.400,10.353L654.600,9.810L657.800,9.284L661,8.776L664.200,8.286L667.400,7.812L670.600,7.355L673.800,6.915L677,6.492L680.200,6.084L683.400,5.693L686.600,5.317L689.800,4.957L693,4.612L696.200,4.282L699.400,3.967L702.600,3.667L705.800,3.380L709,3.108L712.200,2.850L715.400,2.605L718.600,2.373L721.800,2.155L725,1.949L728.200,1.756L731.400,1.574L734.600,1.405L737.800,1.247L741,1.101L744.200,0.965L747.400,0.841L750.600,0.726L753.800,0.622L757,0.527L760.200,0.442L763.400,0.365L766.600,0.298L769.800,0.238L773,0.187L776.200,0.143L779.400,0.105L782.600,0.075L785.800,0.050L789,0.032L792.200,0.018L795.400,0.009L798.600,0.003L801.800,0.001L805,0" stroke="rgb(98, 150, 214)" fill="none"/><path d="M5,240L8.200,240L11.400,240L14.600,239.999L17.800,239.999L21,239.997L24.200,239.994L27.400,239.991L30.600,239.985L33.800,239.979L37,239.970L40.200,239.959L43.400,239.945L46.600,239.928L49.800,239.909L53,239.885L56.200,239.858L59.400,239.827L62.600,239.792L65.800,239.751L69,239.706L72.200,239.655L75.400,239.598L78.600,239.535L81.800,239.465L85,239.388L88.200,239.304L91.400,239.213L94.600,239.113L97.800,239.005L101,238.888L104.200,238.761L107.400,238.625L110.600,238.479L113.800,238.323L117,238.156L120.200,237.977L123.400,237.787L126.600,237.585L129.800,237.370L133,237.142L136.200,236.901L139.400,236.646L142.600,236.377L145.800,236.093L149,235.794L152.200,235.480L155.400,235.149L158.600,234.803L161.800,234.439L165,234.058L168.200,233.659L171.400,233.242L174.600,232.806L177.800,232.352L181,231.877L184.200,231.383L187.400,230.868L190.600,230.331L193.800,229.774L197,229.194L200.200,228.592L203.400,227.967L206.600,227.319L209.800,226.647L213,225.950L216.200,225.229L219.400,224.482L222.600,223.709L225.800,222.910L229,222.084L232.200,221.231L235.400,220.350L238.600,219.440L241.800,218.502L245,217.534L248.200,216.537L251.400,215.509L254.600,214.450L257.800,213.360L261,212.238L264.200,211.083L267.400,209.896L270.600,208.675L273.800,207.420L277,206.130L280.200,204.806L283.400,203.446L286.600,202.049L289.800,200.616L293,199.146L296.200,197.638L299.400,196.092L302.600,194.507L305.800,192.883L309,191.219L312.200,189.515L315.400,187.769L318.600,185.982L321.800,184.153L325,182.281L328.200,180.366L331.400,178.408L334.600,176.405L337.800,174.357L341,172.264L344.200,170.125L347.400,167.940L350.600,165.707L353.800,163.427L357,161.099L360.200,158.721L363.400,156.295L366.600,153.819L369.800,151.292L373,148.714L376.200,146.084L379.400,143.402L382.600,140.668L385.800,137.880L389,135.038L392.200,132.142L395.400,129.191L398.600,126.184L401.800,123.120L405,120L408.200,116.880L411.400,113.816L414.600,110.809L417.800,107.858L421,104.962L424.200,102.120L427.400,99.332L430.600,96.598L433.800,93.916L437,91.286L440.200,88.708L443.400,86.181L446.600,83.705L449.800,81.279L453,78.901L456.200,76.573L459.400,74.293L462.600,72.060L465.800,69.875L469,67.736L472.200,65.643L475.400,63.595L478.600,61.592L481.800,59.634L485,57.719L488.200,55.847L491.400,54.018L494.600,52.231L497.800,50.485L501,48.781L504.200,47.117L507.400,45.493L510.600,43.908L513.800,42.362L517,40.854L520.200,39.384L523.400,37.951L526.600,36.554L529.800,35.194L533,33.870L536.200,32.580L539.400,31.325L542.600,30.104L545.800,28.917L549,27.762L552.200,26.640L555.400,25.550L558.600,24.491L561.800,23.463L565,22.466L568.200,21.498L571.400,20.560L574.600,19.650L577.800,18.769L581,17.916L584.200,17.090L587.400,16.291L590.600,15.518L593.800,14.771L597,14.050L600.200,13.353L603.400,12.681L606.600,12.033L609.800,11.408L613,10.806L616.200,10.226L619.400,9.669L622.600,9.132L625.800,8.617L629,8.123L632.200,7.648L635.400,7.194L638.600,6.758L641.800,6.341L645,5.942L648.200,5.561L651.400,5.197L654.600,4.851L657.800,4.520L661,4.206L664.200,3.907L667.400,3.623L670.600,3.354L673.800,3.099L677,2.858L680.200,2.630L683.400,2.415L686.600,2.213L689.800,2.023L693,1.844L696.200,1.677L699.400,1.521L702.600,1.375L705.800,1.239L709,1.112L712.200,0.995L715.400,0.887L718.600,0.787L721.800,0.696L725,0.612L728.200,0.535L731.400,0.465L734.600,0.402L737.800,0.345L741,0.294L744.200,0.249L747.400,0.208L750.600,0.173L753.800,0.142L757,0.115L760.200,0.091L763.400,0.072L766.600,0.055L769.800,0.041L773,0.030L776.200,0.021L779.400,0.015L782.600,0.009L785.800,0.006L789,0.003L792.200,0.001L795.400,0.001L798.600,0L801.800,0L805,0" stroke="rgb(79, 149, 235)" fill="none"/><path d="M5,240L8.200,240L11.400,240L14.600,240L17.800,240L21,240L24.200,239.999L27.400,239.999L30.600,239.998L33.800,239.997L37,239.995L40.200,239.993L43.400,239.990L46.600,239.986L49.800,239.981L53,239.975L56.200,239.968L59.400,239.959L62.600,239.948L65.800,239.936L69,239.921L72.200,239.904L75.400,239.885L78.600,239.862L81.800,239.837L85,239.808L88.200,239.775L91.400,239.739L94.600,239.698L97.800,239.652L101,239.602L104.200,239.546L107.400,239.485L110.600,239.417L113.800,239.343L117,239.262L120.200,239.174L123.400,239.079L126.600,238.975L129.800,238.863L133,238.742L136.200,238.611L139.400,238.471L142.600,238.320L145.800,238.158L149,237.984L152.200,237.799L155.400,237.602L158.600,237.391L161.800,237.166L165,236.928L168.200,236.675L171.400,236.406L174.600,236.122L177.800,235.821L181,235.502L184.200,235.166L187.400,234.812L190.600,234.438L193.800,234.044L197,233.630L200.200,233.194L203.400,232.737L206.600,232.257L209.800,231.754L213,231.226L216.200,230.674L219.400,230.095L222.600,229.491L225.800,228.859L229,228.199L232.200,227.510L235.400,226.791L238.600,226.042L241.800,225.261L245,224.448L248.200,223.602L251.400,222.722L254.600,221.806L257.800,220.855L261,219.867L264.200,218.842L267.400,217.777L270.600,216.673L273.800,215.529L277,214.342L280.200,213.113L283.400,211.841L286.600,210.524L289.800,209.161L293,207.751L296.200,206.294L299.400,204.788L302.600,203.232L305.800,201.625L309,199.965L312.200,198.253L315.400,196.486L318.600,194.664L321.800,192.785L325,190.848L328.200,188.852L331.400,186.796L334.600,184.679L337.800,182.499L341,180.255L344.200,177.947L347.400,175.572L350.600,173.129L353.800,170.618L357,168.037L360.200,165.384L363.400,162.658L366.600,159.859L369.800,156.984L373,154.033L376.200,151.003L379.400,147.895L382.600,144.705L385.800,141.434L389,138.078L392.200,134.638L395.400,131.112L398.600,127.498L401.800,123.794L405,120L408.200,116.206L411.400,112.502L414.600,108.888L417.800,105.362L421,101.922L424.200,98.566L427.400,95.295L430.600,92.105L433.800,88.997L437,85.967L440.200,83.016L443.400,80.141L446.600,77.342L449.800,74.616L453,71.963L456.200,69.382L459.400,66.871L462.600,64.428L465.800,62.053L469,59.745L472.200,57.501L475.400,55.321L478.600,53.204L481.800,51.148L485,49.152L488.200,47.215L491.400,45.336L494.600,43.514L497.800,41.747L501,40.035L504.200,38.375L507.400,36.768L510.600,35.212L513.800,33.706L517,32.249L520.200,30.839L523.400,29.476L526.600,28.159L529.800,26.887L533,25.658L536.200,24.471L539.400,23.327L542.600,22.223L545.800,21.158L549,20.133L552.200,19.145L555.400,18.194L558.600,17.278L561.800,16.398L565,15.552L568.200,14.739L571.400,13.958L574.600,13.209L577.800,12.490L581,11.801L584.200,11.141L587.400,10.509L590.600,9.905L593.800,9.326L597,8.774L600.200,8.246L603.400,7.743L606.600,7.263L609.800,6.806L613,6.370L616.200,5.956L619.400,5.562L622.600,5.188L625.800,4.834L629,4.498L632.200,4.179L635.400,3.878L638.600,3.594L641.800,3.325L645,3.072L648.200,2.834L651.400,2.609L654.600,2.398L657.800,2.201L661,2.016L664.200,1.842L667.400,1.680L670.600,1.529L673.800,1.389L677,1.258L680.200,1.137L683.400,1.025L686.600,0.921L689.800,0.826L693,0.738L696.200,0.657L699.400,0.583L702.600,0.515L705.800,0.454L709,0.398L712.200,0.348L715.400,0.302L718.600,0.261L721.800,0.225L725,0.192L728.200,0.163L731.400,0.138L734.600,0.115L737.800,0.096L741,0.079L744.200,0.064L747.400,0.052L750.600,0.041L753.800,0.032L757,0.025L760.200,0.019L763.400,0.014L766.600,0.010L769.800,0.007L773,0.005L776.200,0.003L779.400,0.002L782.600,0.001L785.800,0.001L789,0L792.200,0L795.400,0L798.600,0L801.800,0L805,0" stroke="rgb(61, 148, 255)" fill="none"/></g></g></svg>