<svg xmlns="http://www.w3.org/2000/svg" width="628" height="200" view_box="0 0 628 200" style="max-width:100%;height:auto;"><g transform="translate(0, 180)" fill="none" font-size="10" font-family="sans-serif" text-anchor="middle"><g class="tick" opacity="1" transform="translate(65.17948336408547, 0)"><line stroke="white" y2="6"/><text fill="white" y="9" dy="0.71em" stroke="none">1975</text></g><g class="tick" opacity="1" transform="translate(126.9119992857568, 0)"><line stroke="white" y2="6"/><text fill="white" y="9" dy="0.71em" stroke="none">1980</text></g><g class="tick" opacity="1" transform="translate(188.6783227188858, 0)"><line stroke="white" y2="6"/><text fill="white" y="9" dy="0.71em" stroke="none">1985</text></g><g class="tick" opacity="1" transform="translate(250.41083864055713, 0)"><line stroke="white" y2="6"/><text fill="white" y="9" dy="0.71em" stroke="none">1990</text></g><g class="tick" opacity="1" transform="translate(312.1433545622284, 0)"><line stroke="white" y2="6"/><text fill="white" y="9" dy="0.71em" stroke="none">1995</text></g><g class="tick" opacity="1" transform="translate(373.87587048389975, 0)"><line stroke="white" y2="6"/><text fill="white" y="9" dy="0.71em" stroke="none">2000</text></g><g class="tick" opacity="1" transform="translate(435.6421939170287, 0)"><line stroke="white" y2="6"/><text fill="white" y="9" dy="0.71em" stroke="none">2005</text></g><g class="tick" opacity="1" transform="translate(497.3747098387001, 0)"><line stroke="white" y2="6"/><text fill="white" y="9" dy="0.71em" stroke="none">2010</text></g><g class="tick" opacity="1" transform="translate(559.1072257603714, 0)"><line stroke="white" y2="6"/><text fill="white" y="9" dy="0.71em" stroke="none">2015</text></g></g><g transform="translate(40,0)" fill="none" font-size="10" font-family="sans-serif" text-anchor="end"><g class="tick" opacity="1" transform="translate(0, 171.5)"><line stroke="white" x2="568" stroke-opacity="0.2"/><line stroke="white" x2="-6"/><text fill="white" x="-9" dy="0.32em" stroke="none">-10</text></g><g class="tick" opacity="1" transform="translate(0, 136.5)"><line stroke="white" x2="568" stroke-opacity="0.2"/><line stroke="white" x2="-6"/><text fill="white" x="-9" dy="0.32em" stroke="none">-5</text></g><g class="tick" opacity="1" transform="translate(0, 100.5)"><line stroke="white" x2="568" stroke-opacity="0.2"/><line stroke="white" x2="-6"/><text fill="white" x="-9" dy="0.32em" stroke="none">0</text></g><g class="tick" opacity="1" transform="translate(0, 64.5)"><line stroke="white" x2="568" stroke-opacity="0.2"/><line stroke="white" x2="-6"/><text fill="white" x="-9" dy="0.32em" stroke="none">5</text></g><g class="tick" opacity="1" transform="translate(0, 29.5)"><line stroke="white" x2="568" stroke-opacity="0.2"/><line stroke="white" x2="-6"/><text fill="white" x="-9" dy="0.32em" stroke="none">10</text></g><text x="-40" y="10" fill="white" text-anchor="start" stroke="none">&#8593; Annual revenue (billions)</text></g><g><path fill="#59a14f" d="M40,121L52.340,120L64.679,120L77.019,122L89.393,128L101.733,131L114.072,129L126.412,129L138.786,134L151.125,134L163.465,135L175.805,138L188.178,137L200.518,139L212.858,145L225.198,148L237.571,148L249.911,153L262.251,153L274.590,159L286.964,164L299.304,174L311.643,174L323.983,173L336.357,170L348.696,177L361.036,180L373.376,176L385.749,171L398.089,164L410.429,159L422.769,160L435.142,158L447.482,153L459.822,147L472.161,137L484.535,133L496.875,129L509.214,129L521.554,128L533.928,128L546.267,126L558.607,126L570.947,129L583.321,133L595.660,136L608,140L608,140L595.660,136L583.321,133L570.947,129L558.607,126L546.267,126L533.928,128L521.554,128L509.214,129L496.875,129L484.535,133L472.161,137L459.822,147L447.482,153L435.142,158L422.769,160L410.429,159L398.089,164L385.749,171L373.376,176L361.036,180L348.696,177L336.357,170L323.983,173L311.643,174L299.304,174L286.964,164L274.590,159L262.251,153L249.911,153L237.571,148L225.198,148L212.858,145L200.518,139L188.178,137L175.805,138L163.465,135L151.125,134L138.786,140L126.412,141L114.072,146L101.733,158L89.393,153L77.019,144L64.679,140L52.340,140L40,141Z"><title>8 - Track</title></path><path fill="#4e79a7" d="M40,58L52.340,59L64.679,59L77.019,56L89.393,47L101.733,42L114.072,54L126.412,59L138.786,60L151.125,66L163.465,65L175.805,62L188.178,63L200.518,61L212.858,55L225.198,52L237.571,53L249.911,50L262.251,49L274.590,43L286.964,39L299.304,28L311.643,29L323.983,30L336.357,34L348.696,29L361.036,24L373.376,27L385.749,33L398.089,39L410.429,45L422.769,48L435.142,59L447.482,68L459.822,81L472.161,90L484.535,96L496.875,100L509.214,103L521.554,107L533.928,109L546.267,110L558.607,112L570.947,117L583.321,122L595.660,128L608,132L608,136L595.660,133L583.321,130L570.947,126L558.607,123L546.267,124L533.928,126L521.554,127L509.214,128L496.875,129L484.535,133L472.161,137L459.822,147L447.482,153L435.142,157L422.769,159L410.429,157L398.089,161L385.749,166L373.376,167L361.036,165L348.696,157L336.357,147L323.983,145L311.643,141L299.304,133L286.964,122L274.590,113L262.251,107L249.911,98L237.571,91L225.198,84L212.858,81L200.518,77L188.178,70L175.805,64L163.465,66L151.125,66L138.786,60L126.412,59L114.072,54L101.733,42L89.393,47L77.019,56L64.679,59L52.340,59L40,58Z"><title>CD</title></path><path fill="#4e79a7" d="M40,58L52.340,59L64.679,59L77.019,56L89.393,47L101.733,42L114.072,54L126.412,59L138.786,60L151.125,66L163.465,66L175.805,64L188.178,70L200.518,77L212.858,81L225.198,84L237.571,91L249.911,98L262.251,107L274.590,113L286.964,122L299.304,133L311.643,141L323.983,145L336.357,147L348.696,157L361.036,165L373.376,167L385.749,166L398.089,161L410.429,157L422.769,159L435.142,157L447.482,153L459.822,147L472.161,137L484.535,133L496.875,129L509.214,128L521.554,127L533.928,126L546.267,124L558.607,123L570.947,126L583.321,130L595.660,133L608,136L608,136L595.660,133L583.321,130L570.947,126L558.607,123L546.267,124L533.928,126L521.554,127L509.214,128L496.875,129L484.535,133L472.161,137L459.822,147L447.482,153L435.142,157L422.769,159L410.429,157L398.089,161L385.749,167L373.376,169L361.036,167L348.696,159L336.357,150L323.983,148L311.643,143L299.304,134L286.964,122L274.590,113L262.251,108L249.911,98L237.571,91L225.198,84L212.858,81L200.518,77L188.178,70L175.805,64L163.465,66L151.125,66L138.786,60L126.412,59L114.072,54L101.733,42L89.393,47L77.019,56L64.679,59L52.340,59L40,58Z"><title>CD Single</title></path><path fill="#59a14f" d="M40,58L52.340,59L64.679,59L77.019,56L89.393,47L101.733,42L114.072,54L126.412,59L138.786,60L151.125,66L163.465,66L175.805,64L188.178,70L200.518,77L212.858,81L225.198,85L237.571,94L249.911,102L262.251,111L274.590,117L286.964,126L299.304,137L311.643,145L323.983,150L336.357,152L348.696,160L361.036,168L373.376,169L385.749,167L398.089,161L410.429,157L422.769,159L435.142,157L447.482,153L459.822,147L472.161,137L484.535,133L496.875,129L509.214,128L521.554,127L533.928,126L546.267,124L558.607,123L570.947,126L583.321,130L595.660,133L608,136L608,136L595.660,133L583.321,130L570.947,126L558.607,123L546.267,124L533.928,126L521.554,127L509.214,128L496.875,129L484.535,133L472.161,137L459.822,147L447.482,153L435.142,157L422.769,159L410.429,158L398.089,164L385.749,170L373.376,175L361.036,179L348.696,176L336.357,169L323.983,172L311.643,173L299.304,174L286.964,163L274.590,158L262.251,151L249.911,150L237.571,144L225.198,137L212.858,129L200.518,118L188.178,111L175.805,106L163.465,99L151.125,92L138.786,81L126.412,75L114.072,68L101.733,55L89.393,55L77.019,61L64.679,63L52.340,62L40,62Z"><title>Cassette</title></path><path fill="#59a14f" d="M40,58L52.340,59L64.679,59L77.019,56L89.393,47L101.733,42L114.072,54L126.412,59L138.786,60L151.125,66L163.465,66L175.805,64L188.178,70L200.518,77L212.858,81L225.198,84L237.571,91L249.911,98L262.251,108L274.590,113L286.964,122L299.304,134L311.643,143L323.983,148L336.357,150L348.696,159L361.036,167L373.376,169L385.749,167L398.089,161L410.429,157L422.769,159L435.142,157L447.482,153L459.822,147L472.161,137L484.535,133L496.875,129L509.214,128L521.554,127L533.928,126L546.267,124L558.607,123L570.947,126L583.321,130L595.660,133L608,136L608,136L595.660,133L583.321,130L570.947,126L558.607,123L546.267,124L533.928,126L521.554,127L509.214,128L496.875,129L484.535,133L472.161,137L459.822,147L447.482,153L435.142,157L422.769,159L410.429,157L398.089,161L385.749,167L373.376,169L361.036,168L348.696,160L336.357,152L323.983,150L311.643,145L299.304,137L286.964,126L274.590,117L262.251,111L249.911,102L237.571,94L225.198,85L212.858,81L200.518,77L188.178,70L175.805,64L163.465,66L151.125,66L138.786,60L126.412,59L114.072,54L101.733,42L89.393,47L77.019,56L64.679,59L52.340,59L40,58Z"><title>Cassette Single</title></path><path fill="#e15759" d="M40,58L52.340,59L64.679,59L77.019,56L89.393,47L101.733,42L114.072,54L126.412,59L138.786,60L151.125,66L163.465,65L175.805,62L188.178,63L200.518,61L212.858,55L225.198,52L237.571,52L249.911,47L262.251,47L274.590,41L286.964,36L299.304,26L311.643,26L323.983,27L336.357,30L348.696,23L361.036,20L373.376,24L385.749,29L398.089,36L410.429,41L422.769,42L435.142,53L447.482,64L459.822,77L472.161,88L484.535,94L496.875,99L509.214,102L521.554,106L533.928,108L546.267,109L558.607,112L570.947,117L583.321,122L595.660,127L608,132L608,132L595.660,127L583.321,122L570.947,117L558.607,112L546.267,109L533.928,108L521.554,106L509.214,102L496.875,99L484.535,94L472.161,88L459.822,77L447.482,64L435.142,53L422.769,42L410.429,41L398.089,36L385.749,29L373.376,24L361.036,20L348.696,23L336.357,30L323.983,27L311.643,26L299.304,26L286.964,36L274.590,41L262.251,47L249.911,47L237.571,52L225.198,52L212.858,55L200.518,61L188.178,63L175.805,62L163.465,65L151.125,66L138.786,60L126.412,59L114.072,54L101.733,42L89.393,47L77.019,56L64.679,59L52.340,59L40,58Z"><title>DVD Audio</title></path><path fill="#f28e2c" d="M40,58L52.340,59L64.679,59L77.019,56L89.393,47L101.733,42L114.072,54L126.412,59L138.786,60L151.125,66L163.465,65L175.805,62L188.178,63L200.518,61L212.858,55L225.198,52L237.571,52L249.911,47L262.251,47L274.590,41L286.964,36L299.304,26L311.643,26L323.983,27L336.357,30L348.696,23L361.036,20L373.376,24L385.749,29L398.089,36L410.429,41L422.769,40L435.142,44L447.482,49L459.822,55L472.161,65L484.535,71L496.875,76L509.214,78L521.554,82L533.928,85L546.267,90L558.607,94L570.947,103L583.321,111L595.660,120L608,126L608,128L595.660,124L583.321,116L570.947,110L558.607,102L546.267,98L533.928,95L521.554,91L509.214,87L496.875,83L484.535,78L472.161,71L459.822,60L447.482,51L435.142,45L422.769,41L410.429,41L398.089,36L385.749,29L373.376,24L361.036,20L348.696,23L336.357,30L323.983,27L311.643,26L299.304,26L286.964,36L274.590,41L262.251,47L249.911,47L237.571,52L225.198,52L212.858,55L200.518,61L188.178,63L175.805,62L163.465,65L151.125,66L138.786,60L126.412,59L114.072,54L101.733,42L89.393,47L77.019,56L64.679,59L52.340,59L40,58Z"><title>Download Album</title></path><path fill="#f28e2c" d="M40,58L52.340,59L64.679,59L77.019,56L89.393,47L101.733,42L114.072,54L126.412,59L138.786,60L151.125,66L163.465,65L175.805,62L188.178,63L200.518,61L212.858,55L225.198,52L237.571,52L249.911,47L262.251,47L274.590,41L286.964,36L299.304,26L311.643,26L323.983,27L336.357,30L348.696,23L361.036,20L373.376,24L385.749,29L398.089,36L410.429,41L422.769,42L435.142,49L447.482,57L459.822,67L472.161,80L484.535,88L496.875,95L509.214,99L521.554,105L533.928,107L546.267,109L558.607,111L570.947,117L583.321,121L595.660,127L608,131L608,131L595.660,127L583.321,121L570.947,117L558.607,111L546.267,109L533.928,107L521.554,105L509.214,99L496.875,95L484.535,88L472.161,80L459.822,67L447.482,57L435.142,49L422.769,42L410.429,41L398.089,36L385.749,29L373.376,24L361.036,20L348.696,23L336.357,30L323.983,27L311.643,26L299.304,26L286.964,36L274.590,41L262.251,47L249.911,47L237.571,52L225.198,52L212.858,55L200.518,61L188.178,63L175.805,62L163.465,65L151.125,66L138.786,60L126.412,59L114.072,54L101.733,42L89.393,47L77.019,56L64.679,59L52.340,59L40,58Z"><title>Download Music Video</title></path><path fill="#f28e2c" d="M40,58L52.340,59L64.679,59L77.019,56L89.393,47L101.733,42L114.072,54L126.412,59L138.786,60L151.125,66L163.465,65L175.805,62L188.178,63L200.518,61L212.858,55L225.198,52L237.571,52L249.911,47L262.251,47L274.590,41L286.964,36L299.304,26L311.643,26L323.983,27L336.357,30L348.696,23L361.036,20L373.376,24L385.749,29L398.089,36L410.429,41L422.769,41L435.142,45L447.482,51L459.822,60L472.161,71L484.535,78L496.875,83L509.214,87L521.554,91L533.928,95L546.267,98L558.607,102L570.947,110L583.321,116L595.660,124L608,128L608,131L595.660,127L583.321,121L570.947,117L558.607,111L546.267,109L533.928,107L521.554,104L509.214,99L496.875,95L484.535,88L472.161,80L459.822,67L447.482,57L435.142,49L422.769,42L410.429,41L398.089,36L385.749,29L373.376,24L361.036,20L348.696,23L336.357,30L323.983,27L311.643,26L299.304,26L286.964,36L274.590,41L262.251,47L249.911,47L237.571,52L225.198,52L212.858,55L200.518,61L188.178,63L175.805,62L163.465,65L151.125,66L138.786,60L126.412,59L114.072,54L101.733,42L89.393,47L77.019,56L64.679,59L52.340,59L40,58Z"><title>Download Single</title></path><path fill="#e15759" d="M40,58L52.340,59L64.679,59L77.019,56L89.393,47L101.733,42L114.072,54L126.412,59L138.786,60L151.125,66L163.465,65L175.805,62L188.178,63L200.518,61L212.858,55L225.198,52L237.571,52L249.911,47L262.251,47L274.590,41L286.964,36L299.304,26L311.643,26L323.983,27L336.357,30L348.696,23L361.036,20L373.376,24L385.749,29L398.089,36L410.429,41L422.769,42L435.142,49L447.482,57L459.822,67L472.161,80L484.535,88L496.875,95L509.214,99L521.554,104L533.928,107L546.267,109L558.607,111L570.947,117L583.321,121L595.660,127L608,131L608,131L595.660,127L583.321,121L570.947,117L558.607,111L546.267,109L533.928,107L521.554,105L509.214,99L496.875,95L484.535,88L472.161,80L459.822,67L447.482,57L435.142,49L422.769,42L410.429,41L398.089,36L385.749,29L373.376,24L361.036,20L348.696,23L336.357,30L323.983,27L311.643,26L299.304,26L286.964,36L274.590,41L262.251,47L249.911,47L237.571,52L225.198,52L212.858,55L200.518,61L188.178,63L175.805,62L163.465,65L151.125,66L138.786,60L126.412,59L114.072,54L101.733,42L89.393,47L77.019,56L64.679,59L52.340,59L40,58Z"><title>Kiosk</title></path><path fill="#edc949" d="M40,69L52.340,70L64.679,70L77.019,69L89.393,62L101.733,62L114.072,77L126.412,80L138.786,87L151.125,97L163.465,104L175.805,111L188.178,115L200.518,122L212.858,132L225.198,140L237.571,145L249.911,152L262.251,152L274.590,159L286.964,163L299.304,174L311.643,174L323.983,173L336.357,169L348.696,176L361.036,180L373.376,176L385.749,171L398.089,164L410.429,159L422.769,160L435.142,157L447.482,153L459.822,147L472.161,137L484.535,133L496.875,129L509.214,128L521.554,127L533.928,126L546.267,124L558.607,123L570.947,126L583.321,130L595.660,133L608,136L608,140L595.660,136L583.321,133L570.947,129L558.607,126L546.267,126L533.928,128L521.554,128L509.214,129L496.875,129L484.535,133L472.161,137L459.822,147L447.482,153L435.142,158L422.769,160L410.429,159L398.089,164L385.749,171L373.376,176L361.036,180L348.696,177L336.357,170L323.983,173L311.643,174L299.304,174L286.964,164L274.590,159L262.251,153L249.911,153L237.571,148L225.198,148L212.858,145L200.518,139L188.178,137L175.805,138L163.465,135L151.125,134L138.786,134L126.412,129L114.072,129L101.733,131L89.393,128L77.019,122L64.679,120L52.340,120L40,121Z"><title>LP/EP</title></path><path fill="#76b7b2" d="M40,58L52.340,59L64.679,59L77.019,56L89.393,47L101.733,42L114.072,54L126.412,59L138.786,60L151.125,66L163.465,65L175.805,62L188.178,63L200.518,61L212.858,55L225.198,52L237.571,52L249.911,47L262.251,47L274.590,41L286.964,36L299.304,26L311.643,26L323.983,27L336.357,30L348.696,23L361.036,20L373.376,24L385.749,29L398.089,36L410.429,41L422.769,40L435.142,44L447.482,49L459.822,55L472.161,65L484.535,68L496.875,72L509.214,74L521.554,77L533.928,79L546.267,82L558.607,86L570.947,92L583.321,98L595.660,104L608,109L608,115L595.660,109L583.321,103L570.947,94L558.607,86L546.267,82L533.928,79L521.554,77L509.214,74L496.875,72L484.535,68L472.161,65L459.822,55L447.482,49L435.142,44L422.769,40L410.429,41L398.089,36L385.749,29L373.376,24L361.036,20L348.696,23L336.357,30L323.983,27L311.643,26L299.304,26L286.964,36L274.590,41L262.251,47L249.911,47L237.571,52L225.198,52L212.858,55L200.518,61L188.178,63L175.805,62L163.465,65L151.125,66L138.786,60L126.412,59L114.072,54L101.733,42L89.393,47L77.019,56L64.679,59L52.340,59L40,58Z"><title>Limited Tier Paid Subscription</title></path><path fill="#e15759" d="M40,58L52.340,59L64.679,59L77.019,56L89.393,47L101.733,42L114.072,54L126.412,59L138.786,60L151.125,66L163.465,65L175.805,62L188.178,63L200.518,61L212.858,55L225.198,52L237.571,52L249.911,47L262.251,47L274.590,41L286.964,36L299.304,26L311.643,26L323.983,27L336.357,30L348.696,23L361.036,20L373.376,24L385.749,29L398.089,36L410.429,41L422.769,42L435.142,53L447.482,64L459.822,77L472.161,88L484.535,94L496.875,99L509.214,102L521.554,106L533.928,108L546.267,109L558.607,112L570.947,117L583.321,122L595.660,127L608,132L608,132L595.660,128L583.321,122L570.947,117L558.607,112L546.267,110L533.928,109L521.554,107L509.214,103L496.875,100L484.535,96L472.161,90L459.822,81L447.482,68L435.142,58L422.769,48L410.429,45L398.089,39L385.749,33L373.376,27L361.036,24L348.696,29L336.357,34L323.983,30L311.643,29L299.304,28L286.964,39L274.590,43L262.251,49L249.911,50L237.571,53L225.198,52L212.858,55L200.518,61L188.178,63L175.805,62L163.465,65L151.125,66L138.786,60L126.412,59L114.072,54L101.733,42L89.393,47L77.019,56L64.679,59L52.340,59L40,58Z"><title>Music Video (Physical)</title></path><path fill="#76b7b2" d="M40,58L52.340,59L64.679,59L77.019,56L89.393,47L101.733,42L114.072,54L126.412,59L138.786,60L151.125,66L163.465,65L175.805,62L188.178,63L200.518,61L212.858,55L225.198,52L237.571,52L249.911,47L262.251,47L274.590,41L286.964,36L299.304,26L311.643,26L323.983,27L336.357,30L348.696,23L361.036,20L373.376,24L385.749,29L398.089,36L410.429,41L422.769,40L435.142,44L447.482,49L459.822,55L472.161,65L484.535,68L496.875,72L509.214,73L521.554,75L533.928,77L546.267,80L558.607,83L570.947,88L583.321,93L595.660,98L608,103L608,109L595.660,104L583.321,98L570.947,92L558.607,86L546.267,82L533.928,79L521.554,77L509.214,74L496.875,72L484.535,68L472.161,65L459.822,55L447.482,49L435.142,44L422.769,40L410.429,41L398.089,36L385.749,29L373.376,24L361.036,20L348.696,23L336.357,30L323.983,27L311.643,26L299.304,26L286.964,36L274.590,41L262.251,47L249.911,47L237.571,52L225.198,52L212.858,55L200.518,61L188.178,63L175.805,62L163.465,65L151.125,66L138.786,60L126.412,59L114.072,54L101.733,42L89.393,47L77.019,56L64.679,59L52.340,59L40,58Z"><title>On-Demand Streaming (Ad-Supported)</title></path><path fill="#76b7b2" d="M40,58L52.340,59L64.679,59L77.019,56L89.393,47L101.733,42L114.072,54L126.412,59L138.786,60L151.125,66L163.465,65L175.805,62L188.178,63L200.518,61L212.858,55L225.198,52L237.571,52L249.911,47L262.251,47L274.590,41L286.964,36L299.304,26L311.643,26L323.983,27L336.357,30L348.696,23L361.036,20L373.376,24L385.749,29L398.089,36L410.429,41L422.769,40L435.142,44L447.482,49L459.822,55L472.161,65L484.535,71L496.875,76L509.214,78L521.554,82L533.928,85L546.267,90L558.607,94L570.947,102L583.321,109L595.660,118L608,124L608,126L595.660,120L583.321,111L570.947,103L558.607,94L546.267,90L533.928,85L521.554,82L509.214,78L496.875,76L484.535,71L472.161,65L459.822,55L447.482,49L435.142,44L422.769,40L410.429,41L398.089,36L385.749,29L373.376,24L361.036,20L348.696,23L336.357,30L323.983,27L311.643,26L299.304,26L286.964,36L274.590,41L262.251,47L249.911,47L237.571,52L225.198,52L212.858,55L200.518,61L188.178,63L175.805,62L163.465,65L151.125,66L138.786,60L126.412,59L114.072,54L101.733,42L89.393,47L77.019,56L64.679,59L52.340,59L40,58Z"><title>Other Ad-Supported Streaming</title></path><path fill="#f28e2c" d="M40,58L52.340,59L64.679,59L77.019,56L89.393,47L101.733,42L114.072,54L126.412,59L138.786,60L151.125,66L163.465,65L175.805,62L188.178,63L200.518,61L212.858,55L225.198,52L237.571,52L249.911,47L262.251,47L274.590,41L286.964,36L299.304,26L311.643,26L323.983,27L336.357,30L348.696,23L361.036,20L373.376,24L385.749,29L398.089,36L410.429,41L422.769,40L435.142,44L447.482,49L459.822,55L472.161,65L484.535,68L496.875,72L509.214,73L521.554,75L533.928,77L546.267,80L558.607,83L570.947,88L583.321,93L595.660,98L608,103L608,103L595.660,98L583.321,93L570.947,88L558.607,83L546.267,80L533.928,77L521.554,75L509.214,73L496.875,72L484.535,68L472.161,65L459.822,55L447.482,49L435.142,44L422.769,40L410.429,41L398.089,36L385.749,29L373.376,24L361.036,20L348.696,23L336.357,30L323.983,27L311.643,26L299.304,26L286.964,36L274.590,41L262.251,47L249.911,47L237.571,52L225.198,52L212.858,55L200.518,61L188.178,63L175.805,62L163.465,65L151.125,66L138.786,60L126.412,59L114.072,54L101.733,42L89.393,47L77.019,56L64.679,59L52.340,59L40,58Z"><title>Other Digital</title></path><path fill="#59a14f" d="M40,141L52.340,140L64.679,140L77.019,144L89.393,153L101.733,158L114.072,146L126.412,141L138.786,140L151.125,134L163.465,135L175.805,138L188.178,137L200.518,139L212.858,145L225.198,148L237.571,148L249.911,153L262.251,153L274.590,159L286.964,164L299.304,174L311.643,174L323.983,173L336.357,170L348.696,177L361.036,180L373.376,176L385.749,171L398.089,164L410.429,159L422.769,160L435.142,158L447.482,153L459.822,147L472.161,137L484.535,133L496.875,129L509.214,129L521.554,128L533.928,128L546.267,126L558.607,126L570.947,129L583.321,133L595.660,136L608,140L608,140L595.660,136L583.321,133L570.947,129L558.607,126L546.267,126L533.928,128L521.554,128L509.214,129L496.875,129L484.535,133L472.161,137L459.822,147L447.482,153L435.142,158L422.769,160L410.429,159L398.089,164L385.749,171L373.376,176L361.036,180L348.696,177L336.357,170L323.983,173L311.643,174L299.304,174L286.964,164L274.590,159L262.251,153L249.911,153L237.571,148L225.198,148L212.858,145L200.518,139L188.178,137L175.805,138L163.465,135L151.125,134L138.786,140L126.412,141L114.072,146L101.733,158L89.393,153L77.019,144L64.679,141L52.340,141L40,142Z"><title>Other Tapes</title></path><path fill="#76b7b2" d="M40,58L52.340,59L64.679,59L77.019,56L89.393,47L101.733,42L114.072,54L126.412,59L138.786,60L151.125,66L163.465,65L175.805,62L188.178,63L200.518,61L212.858,55L225.198,52L237.571,52L249.911,47L262.251,47L274.590,41L286.964,36L299.304,26L311.643,26L323.983,27L336.357,30L348.696,23L361.036,20L373.376,24L385.749,29L398.089,36L410.429,41L422.769,40L435.142,42L447.482,47L459.822,53L472.161,63L484.535,67L496.875,71L509.214,71L521.554,72L533.928,72L546.267,74L558.607,74L570.947,71L583.321,67L595.660,64L608,60L608,103L595.660,98L583.321,93L570.947,88L558.607,83L546.267,80L533.928,77L521.554,75L509.214,73L496.875,72L484.535,68L472.161,65L459.822,55L447.482,49L435.142,44L422.769,40L410.429,41L398.089,36L385.749,29L373.376,24L361.036,20L348.696,23L336.357,30L323.983,27L311.643,26L299.304,26L286.964,36L274.590,41L262.251,47L249.911,47L237.571,52L225.198,52L212.858,55L200.518,61L188.178,63L175.805,62L163.465,65L151.125,66L138.786,60L126.412,59L114.072,54L101.733,42L89.393,47L77.019,56L64.679,59L52.340,59L40,58Z"><title>Paid Subscription</title></path><path fill="#f28e2c" d="M40,58L52.340,59L64.679,59L77.019,56L89.393,47L101.733,42L114.072,54L126.412,59L138.786,60L151.125,66L163.465,65L175.805,62L188.178,63L200.518,61L212.858,55L225.198,52L237.571,52L249.911,47L262.251,47L274.590,41L286.964,36L299.304,26L311.643,26L323.983,27L336.357,30L348.696,23L361.036,20L373.376,24L385.749,29L398.089,36L410.429,41L422.769,42L435.142,49L447.482,57L459.822,67L472.161,80L484.535,88L496.875,95L509.214,99L521.554,105L533.928,107L546.267,109L558.607,111L570.947,117L583.321,121L595.660,127L608,131L608,132L595.660,127L583.321,122L570.947,117L558.607,112L546.267,109L533.928,108L521.554,106L509.214,102L496.875,99L484.535,94L472.161,88L459.822,77L447.482,64L435.142,53L422.769,42L410.429,41L398.089,36L385.749,29L373.376,24L361.036,20L348.696,23L336.357,30L323.983,27L311.643,26L299.304,26L286.964,36L274.590,41L262.251,47L249.911,47L237.571,52L225.198,52L212.858,55L200.518,61L188.178,63L175.805,62L163.465,65L151.125,66L138.786,60L126.412,59L114.072,54L101.733,42L89.393,47L77.019,56L64.679,59L52.340,59L40,58Z"><title>Ringtones &amp; Ringbacks</title></path><path fill="#4e79a7" d="M40,58L52.340,59L64.679,59L77.019,56L89.393,47L101.733,42L114.072,54L126.412,59L138.786,60L151.125,66L163.465,65L175.805,62L188.178,63L200.518,61L212.858,55L225.198,52L237.571,53L249.911,50L262.251,49L274.590,43L286.964,39L299.304,28L311.643,29L323.983,30L336.357,34L348.696,29L361.036,24L373.376,27L385.749,33L398.089,39L410.429,45L422.769,48L435.142,58L447.482,68L459.822,81L472.161,90L484.535,96L496.875,100L509.214,103L521.554,107L533.928,109L546.267,110L558.607,112L570.947,117L583.321,122L595.660,128L608,132L608,132L595.660,128L583.321,122L570.947,117L558.607,112L546.267,110L533.928,109L521.554,107L509.214,103L496.875,100L484.535,96L472.161,90L459.822,81L447.482,68L435.142,59L422.769,48L410.429,45L398.089,39L385.749,33L373.376,27L361.036,24L348.696,29L336.357,34L323.983,30L311.643,29L299.304,28L286.964,39L274.590,43L262.251,49L249.911,50L237.571,53L225.198,52L212.858,55L200.518,61L188.178,63L175.805,62L163.465,65L151.125,66L138.786,60L126.412,59L114.072,54L101.733,42L89.393,47L77.019,56L64.679,59L52.340,59L40,58Z"><title>SACD</title></path><path fill="#76b7b2" d="M40,58L52.340,59L64.679,59L77.019,56L89.393,47L101.733,42L114.072,54L126.412,59L138.786,60L151.125,66L163.465,65L175.805,62L188.178,63L200.518,61L212.858,55L225.198,52L237.571,52L249.911,47L262.251,47L274.590,41L286.964,36L299.304,26L311.643,26L323.983,27L336.357,30L348.696,23L361.036,20L373.376,24L385.749,29L398.089,36L410.429,41L422.769,40L435.142,44L447.482,49L459.822,55L472.161,65L484.535,70L496.875,74L509.214,76L521.554,78L533.928,81L546.267,84L558.607,87L570.947,96L583.321,104L595.660,111L608,117L608,124L595.660,118L583.321,109L570.947,102L558.607,94L546.267,90L533.928,85L521.554,82L509.214,78L496.875,76L484.535,71L472.161,65L459.822,55L447.482,49L435.142,44L422.769,40L410.429,41L398.089,36L385.749,29L373.376,24L361.036,20L348.696,23L336.357,30L323.983,27L311.643,26L299.304,26L286.964,36L274.590,41L262.251,47L249.911,47L237.571,52L225.198,52L212.858,55L200.518,61L188.178,63L175.805,62L163.465,65L151.125,66L138.786,60L126.412,59L114.072,54L101.733,42L89.393,47L77.019,56L64.679,59L52.340,59L40,58Z"><title>SoundExchange Distributions</title></path><path fill="#e15759" d="M40,58L52.340,59L64.679,59L77.019,56L89.393,47L101.733,42L114.072,54L126.412,59L138.786,60L151.125,66L163.465,65L175.805,62L188.178,63L200.518,61L212.858,55L225.198,52L237.571,52L249.911,47L262.251,47L274.590,41L286.964,36L299.304,26L311.643,26L323.983,27L336.357,30L348.696,23L361.036,20L373.376,24L385.749,29L398.089,36L410.429,41L422.769,40L435.142,44L447.482,49L459.822,55L472.161,65L484.535,68L496.875,72L509.214,74L521.554,77L533.928,79L546.267,82L558.607,86L570.947,94L583.321,103L595.660,109L608,115L608,117L595.660,111L583.321,104L570.947,96L558.607,87L546.267,84L533.928,81L521.554,78L509.214,76L496.875,74L484.535,70L472.161,65L459.822,55L447.482,49L435.142,44L422.769,40L410.429,41L398.089,36L385.749,29L373.376,24L361.036,20L348.696,23L336.357,30L323.983,27L311.643,26L299.304,26L286.964,36L274.590,41L262.251,47L249.911,47L237.571,52L225.198,52L212.858,55L200.518,61L188.178,63L175.805,62L163.465,65L151.125,66L138.786,60L126.412,59L114.072,54L101.733,42L89.393,47L77.019,56L64.679,59L52.340,59L40,58Z"><title>Synchronization</title></path><path fill="#edc949" d="M40,62L52.340,62L64.679,63L77.019,61L89.393,55L101.733,55L114.072,68L126.412,75L138.786,81L151.125,92L163.465,99L175.805,106L188.178,111L200.518,118L212.858,129L225.198,137L237.571,144L249.911,150L262.251,151L274.590,158L286.964,163L299.304,174L311.643,173L323.983,172L336.357,169L348.696,176L361.036,179L373.376,175L385.749,170L398.089,164L410.429,158L422.769,159L435.142,157L447.482,153L459.822,147L472.161,137L484.535,133L496.875,129L509.214,128L521.554,127L533.928,126L546.267,124L558.607,123L570.947,126L583.321,130L595.660,133L608,136L608,136L595.660,133L583.321,130L570.947,126L558.607,123L546.267,124L533.928,126L521.554,127L509.214,128L496.875,129L484.535,133L472.161,137L459.822,147L447.482,153L435.142,157L422.769,160L410.429,159L398.089,164L385.749,171L373.376,176L361.036,180L348.696,176L336.357,169L323.983,173L311.643,174L299.304,174L286.964,163L274.590,159L262.251,152L249.911,152L237.571,145L225.198,140L212.858,132L200.518,122L188.178,115L175.805,111L163.465,104L151.125,97L138.786,87L126.412,80L114.072,77L101.733,62L89.393,62L77.019,69L64.679,70L52.340,70L40,69Z"><title>Vinyl Single</title></path></g></svg>