<svg xmlns="http://www.w3.org/2000/svg" width="810" height="405.0" viewBox="0 0 810 405.0"><g class="legend" transform="translate(0, 45)"><text x="8.0" y="12.0" fill="white">amplitude</text><g transform="translate(8.0, 15.0)"><rect x="0" y="0" width="3" height="16.0" fill="rgb(153, 153, 153)"/><rect x="2" y="0" width="3" height="16.0" fill="rgb(152, 153, 154)"/><rect x="4" y="0" width="3" height="16.0" fill="rgb(152, 153, 154)"/><rect x="6" y="0" width="3" height="16.0" fill="rgb(151, 153, 155)"/><rect x="8" y="0" width="3" height="16.0" fill="rgb(151, 153, 156)"/><rect x="10" y="0" width="3" height="16.0" fill="rgb(150, 153, 156)"/><rect x="12" y="0" width="3" height="16.0" fill="rgb(149, 153, 157)"/><rect x="14" y="0" width="3" height="16.0" fill="rgb(149, 153, 158)"/><rect x="16" y="0" width="3" height="16.0" fill="rgb(148, 153, 158)"/><rect x="18" y="0" width="3" height="16.0" fill="rgb(147, 153, 159)"/><rect x="20" y="0" width="3" height="16.0" fill="rgb(147, 153, 160)"/><rect x="22" y="0" width="3" height="16.0" fill="rgb(146, 153, 160)"/><rect x="24" y="0" width="3" height="16.0" fill="rgb(146, 153, 161)"/><rect x="26" y="0" width="3" height="16.0" fill="rgb(145, 153, 162)"/><rect x="28" y="0" width="3" height="16.0" fill="rgb(144, 153, 163)"/><rect x="30" y="0" width="3" height="16.0" fill="rgb(144, 152, 163)"/><rect x="32" y="0" width="3" height="16.0" fill="rgb(143, 152, 164)"/><rect x="34" y="0" width="3" height="16.0" fill="rgb(143, 152, 165)"/><rect x="36" y="0" width="3" height="16.0" fill="rgb(142, 152, 165)"/><rect x="38" y="0" width="3" height="16.0" fill="rgb(141, 152, 166)"/><rect x="40" y="0" width="3" height="16.0" fill="rgb(141, 152, 167)"/><rect x="42" y="0" width="3" height="16.0" fill="rgb(140, 152, 167)"/><rect x="44" y="0" width="3" height="16.0" fill="rgb(140, 152, 168)"/><rect x="46" y="0" width="3" height="16.0" fill="rgb(139, 152, 169)"/><rect x="48" y="0" width="3" height="16.0" fill="rgb(138, 152, 169)"/><rect x="50" y="0" width="3" height="16.0" fill="rgb(138, 152, 170)"/><rect x="52" y="0" width="3" height="16.0" fill="rgb(137, 152, 171)"/><rect x="54" y="0" width="3" height="16.0" fill="rgb(136, 152, 171)"/><rect x="56" y="0" width="3" height="16.0" fill="rgb(136, 152, 172)"/><rect x="58" y="0" width="3" height="16.0" fill="rgb(135, 152, 173)"/><rect x="60" y="0" width="3" height="16.0" fill="rgb(135, 152, 173)"/><rect x="62" y="0" width="3" height="16.0" fill="rgb(134, 152, 174)"/><rect x="64" y="0" width="3" height="16.0" fill="rgb(133, 152, 175)"/><rect x="66" y="0" width="3" height="16.0" fill="rgb(133, 152, 175)"/><rect x="68" y="0" width="3" height="16.0" fill="rgb(132, 152, 176)"/><rect x="70" y="0" width="3" height="16.0" fill="rgb(132, 152, 177)"/><rect x="72" y="0" width="3" height="16.0" fill="rgb(131, 152, 177)"/><rect x="74" y="0" width="3" height="16.0" fill="rgb(130, 152, 178)"/><rect x="76" y="0" width="3" height="16.0" fill="rgb(130, 152, 179)"/><rect x="78" y="0" width="3" height="16.0" fill="rgb(129, 152, 180)"/><rect x="80" y="0" width="3" height="16.0" fill="rgb(128, 152, 180)"/><rect x="82" y="0" width="3" height="16.0" fill="rgb(128, 152, 181)"/><rect x="84" y="0" width="3" height="16.0" fill="rgb(127, 152, 182)"/><rect x="86" y="0" width="3" height="16.0" fill="rgb(127, 152, 182)"/><rect x="88" y="0" width="3" height="16.0" fill="rgb(126, 152, 183)"/><rect x="90" y="0" width="3" height="16.0" fill="rgb(125, 152, 184)"/><rect x="92" y="0" width="3" height="16.0" fill="rgb(125, 151, 184)"/><rect x="94" y="0" width="3" height="16.0" fill="rgb(124, 151, 185)"/><rect x="96" y="0" width="3" height="16.0" fill="rgb(124, 151, 186)"/><rect x="98" y="0" width="3" height="16.0" fill="rgb(123, 151, 186)"/><rect x="100" y="0" width="3" height="16.0" fill="rgb(122, 151, 187)"/><rect x="102" y="0" width="3" height="16.0" fill="rgb(122, 151, 188)"/><rect x="104" y="0" width="3" height="16.0" fill="rgb(121, 151, 188)"/><rect x="106" y="0" width="3" height="16.0" fill="rgb(120, 151, 189)"/><rect x="108" y="0" width="3" height="16.0" fill="rgb(120, 151, 190)"/><rect x="110" y="0" width="3" height="16.0" fill="rgb(119, 151, 190)"/><rect x="112" y="0" width="3" height="16.0" fill="rgb(119, 151, 191)"/><rect x="114" y="0" width="3" height="16.0" fill="rgb(118, 151, 192)"/><rect x="116" y="0" width="3" height="16.0" fill="rgb(117, 151, 192)"/><rect x="118" y="0" width="3" height="16.0" fill="rgb(117, 151, 193)"/><rect x="120" y="0" width="3" height="16.0" fill="rgb(116, 151, 194)"/><rect x="122" y="0" width="3" height="16.0" fill="rgb(116, 151, 194)"/><rect x="124" y="0" width="3" height="16.0" fill="rgb(115, 151, 195)"/><rect x="126" y="0" width="3" height="16.0" fill="rgb(114, 151, 196)"/><rect x="128" y="0" width="3" height="16.0" fill="rgb(114, 151, 197)"/><rect x="130" y="0" width="3" height="16.0" fill="rgb(113, 151, 197)"/><rect x="132" y="0" width="3" height="16.0" fill="rgb(113, 151, 198)"/><rect x="134" y="0" width="3" height="16.0" fill="rgb(112, 151, 199)"/><rect x="136" y="0" width="3" height="16.0" fill="rgb(111, 151, 199)"/><rect x="138" y="0" width="3" height="16.0" fill="rgb(111, 151, 200)"/><rect x="140" y="0" width="3" height="16.0" fill="rgb(110, 151, 201)"/><rect x="142" y="0" width="3" height="16.0" fill="rgb(109, 151, 201)"/><rect x="144" y="0" width="3" height="16.0" fill="rgb(109, 151, 202)"/><rect x="146" y="0" width="3" height="16.0" fill="rgb(108, 151, 203)"/><rect x="148" y="0" width="3" height="16.0" fill="rgb(108, 151, 203)"/><rect x="150" y="0" width="3" height="16.0" fill="rgb(107, 150, 204)"/><rect x="152" y="0" width="3" height="16.0" fill="rgb(106, 150, 205)"/><rect x="154" y="0" width="3" height="16.0" fill="rgb(106, 150, 205)"/><rect x="156" y="0" width="3" height="16.0" fill="rgb(105, 150, 206)"/><rect x="158" y="0" width="3" height="16.0" fill="rgb(105, 150, 207)"/><rect x="160" y="0" width="3" height="16.0" fill="rgb(104, 150, 207)"/><rect x="162" y="0" width="3" height="16.0" fill="rgb(103, 150, 208)"/><rect x="164" y="0" width="3" height="16.0" fill="rgb(103, 150, 209)"/><rect x="166" y="0" width="3" height="16.0" fill="rgb(102, 150, 209)"/><rect x="168" y="0" width="3" height="16.0" fill="rgb(101, 150, 210)"/><rect x="170" y="0" width="3" height="16.0" fill="rgb(101, 150, 211)"/><rect x="172" y="0" width="3" height="16.0" fill="rgb(100, 150, 211)"/><rect x="174" y="0" width="3" height="16.0" fill="rgb(100, 150, 212)"/><rect x="176" y="0" width="3" height="16.0" fill="rgb(99, 150, 213)"/><rect x="178" y="0" width="3" height="16.0" fill="rgb(98, 150, 214)"/><rect x="180" y="0" width="3" height="16.0" fill="rgb(98, 150, 214)"/><rect x="182" y="0" width="3" height="16.0" fill="rgb(97, 150, 215)"/><rect x="184" y="0" width="3" height="16.0" fill="rgb(97, 150, 216)"/><rect x="186" y="0" width="3" height="16.0" fill="rgb(96, 150, 216)"/><rect x="188" y="0" width="3" height="16.0" fill="rgb(95, 150, 217)"/><rect x="190" y="0" width="3" height="16.0" fill="rgb(95, 150, 218)"/><rect x="192" y="0" width="3" height="16.0" fill="rgb(94, 150, 218)"/><rect x="194" y="0" width="3" height="16.0" fill="rgb(94, 150, 219)"/><rect x="196" y="0" width="3" height="16.0" fill="rgb(93, 150, 220)"/><rect x="198" y="0" width="3" height="16.0" fill="rgb(92, 150, 220)"/><rect x="200" y="0" width="3" height="16.0" fill="rgb(92, 150, 221)"/><rect x="202" y="0" width="3" height="16.0" fill="rgb(91, 150, 222)"/><rect x="204" y="0" width="3" height="16.0" fill="rgb(90, 150, 222)"/><rect x="206" y="0" width="3" height="16.0" fill="rgb(90, 150, 223)"/><rect x="208" y="0" width="3" height="16.0" fill="rgb(89, 150, 224)"/><rect x="210" y="0" width="3" height="16.0" fill="rgb(89, 150, 224)"/><rect x="212" y="0" width="3" height="16.0" fill="rgb(88, 149, 225)"/><rect x="214" y="0" width="3" height="16.0" fill="rgb(87, 149, 226)"/><rect x="216" y="0" width="3" height="16.0" fill="rgb(87, 149, 226)"/><rect x="218" y="0" width="3" height="16.0" fill="rgb(86, 149, 227)"/><rect x="220" y="0" width="3" height="16.0" fill="rgb(86, 149, 228)"/><rect x="222" y="0" width="3" height="16.0" fill="rgb(85, 149, 228)"/><rect x="224" y="0" width="3" height="16.0" fill="rgb(84, 149, 229)"/><rect x="226" y="0" width="3" height="16.0" fill="rgb(84, 149, 230)"/><rect x="228" y="0" width="3" height="16.0" fill="rgb(83, 149, 231)"/><rect x="230" y="0" width="3" height="16.0" fill="rgb(82, 149, 231)"/><rect x="232" y="0" width="3" height="16.0" fill="rgb(82, 149, 232)"/><rect x="234" y="0" width="3" height="16.0" fill="rgb(81, 149, 233)"/><rect x="236" y="0" width="3" height="16.0" fill="rgb(81, 149, 233)"/><rect x="238" y="0" width="3" height="16.0" fill="rgb(80, 149, 234)"/><rect x="240" y="0" width="3" height="16.0" fill="rgb(79, 149, 235)"/><rect x="242" y="0" width="3" height="16.0" fill="rgb(79, 149, 235)"/><rect x="244" y="0" width="3" height="16.0" fill="rgb(78, 149, 236)"/><rect x="246" y="0" width="3" height="16.0" fill="rgb(78, 149, 237)"/><rect x="248" y="0" width="3" height="16.0" fill="rgb(77, 149, 237)"/><rect x="250" y="0" width="3" height="16.0" fill="rgb(76, 149, 238)"/><rect x="252" y="0" width="3" height="16.0" fill="rgb(76, 149, 239)"/><rect x="254" y="0" width="3" height="16.0" fill="rgb(75, 149, 239)"/><rect x="256" y="0" width="3" height="16.0" fill="rgb(74, 149, 240)"/><rect x="258" y="0" width="3" height="16.0" fill="rgb(74, 149, 241)"/><rect x="260" y="0" width="3" height="16.0" fill="rgb(73, 149, 241)"/><rect x="262" y="0" width="3" height="16.0" fill="rgb(73, 149, 242)"/><rect x="264" y="0" width="3" height="16.0" fill="rgb(72, 149, 243)"/><rect x="266" y="0" width="3" height="16.0" fill="rgb(71, 149, 243)"/><rect x="268" y="0" width="3" height="16.0" fill="rgb(71, 149, 244)"/><rect x="270" y="0" width="3" height="16.0" fill="rgb(70, 148, 245)"/><rect x="272" y="0" width="3" height="16.0" fill="rgb(70, 148, 245)"/><rect x="274" y="0" width="3" height="16.0" fill="rgb(69, 148, 246)"/><rect x="276" y="0" width="3" height="16.0" fill="rgb(68, 148, 247)"/><rect x="278" y="0" width="3" height="16.0" fill="rgb(68, 148, 248)"/><rect x="280" y="0" width="3" height="16.0" fill="rgb(67, 148, 248)"/><rect x="282" y="0" width="3" height="16.0" fill="rgb(67, 148, 249)"/><rect x="284" y="0" width="3" height="16.0" fill="rgb(66, 148, 250)"/><rect x="286" y="0" width="3" height="16.0" fill="rgb(65, 148, 250)"/><rect x="288" y="0" width="3" height="16.0" fill="rgb(65, 148, 251)"/><rect x="290" y="0" width="3" height="16.0" fill="rgb(64, 148, 252)"/><rect x="292" y="0" width="3" height="16.0" fill="rgb(63, 148, 252)"/><rect x="294" y="0" width="3" height="16.0" fill="rgb(63, 148, 253)"/><rect x="296" y="0" width="3" height="16.0" fill="rgb(62, 148, 254)"/><rect x="298" y="0" width="3" height="16.0" fill="rgb(62, 148, 254)"/></g><g transform="translate(8.0, 15.0)" fill="none" font-size="10" font-family="sans-serif" text-anchor="middle"><g class="tick" opacity="1" transform="translate(0.5, 0)"><line stroke="white" y2="19.2"/><text fill="white" y="22.2" dy="0.71em">1.0</text></g><g class="tick" opacity="1" transform="translate(60.50000000000006, 0)"><line stroke="white" y2="19.2"/><text fill="white" y="22.2" dy="0.71em">1.1</text></g><g class="tick" opacity="1" transform="translate(120.49999999999997, 0)"><line stroke="white" y2="19.2"/><text fill="white" y="22.2" dy="0.71em">1.2</text></g><g class="tick" opacity="1" transform="translate(180.50000000000003, 0)"><line stroke="white" y2="19.2"/><text fill="white" y="22.2" dy="0.71em">1.3</text></g><g class="tick" opacity="1" transform="translate(240.49999999999994, 0)"><line stroke="white" y2="19.2"/><text fill="white" y="22.2" dy="0.71em">1.4</text></g><g class="tick" opacity="1" transform="translate(300.5, 0)"><line stroke="white" y2="19.2"/><text fill="white" y="22.2" dy="0.71em">1.5</text></g></g></g><g class="main" transform="translate(0, 105)"><rect x="5" y="0" width="800" height="240.0" fill="#2b2b2e"/><g class="xlines"><line x1="25.0" y1="240.0" x2="25.0" y2="0.0" stroke="#202020"/><line x1="45.0" y1="240.0" x2="45.0" y2="0.0" stroke="#202020"/><line x1="65.0" y1="240.0" x2="65.0" y2="0.0" stroke="#202020"/><line x1="85.0" y1="240.0" x2="85.0" y2="0.0" stroke="#202020"/><line x1="105.0" y1="240.0" x2="105.0" y2="0.0" stroke="#202020"/><line x1="125.0" y1="240.0" x2="125.0" y2="0.0" stroke="#202020"/><line x1="145.0" y1="240.0" x2="145.0" y2="0.0" stroke="#202020"/><line x1="165.0" y1="240.0" x2="165.0" y2="0.0" stroke="#202020"/><line x1="185.0" y1="240.0" x2="185.0" y2="0.0" stroke="#202020"/><line x1="205.0" y1="240.0" x2="205.0" y2="0.0" stroke="#202020"/><line x1="225.00000000000003" y1="240.0" x2="225.00000000000003" y2="0.0" stroke="#202020"/><line x1="245.0" y1="240.0" x2="245.0" y2="0.0" stroke="#202020"/><line x1="265.0" y1="240.0" x2="265.0" y2="0.0" stroke="#202020"/><line x1="285.0" y1="240.0" x2="285.0" y2="0.0" stroke="#202020"/><line x1="305.0" y1="240.0" x2="305.0" y2="0.0" stroke="#202020"/><line x1="325.0" y1="240.0" x2="325.0" y2="0.0" stroke="#202020"/><line x1="345.0" y1="240.0" x2="345.0" y2="0.0" stroke="#202020"/><line x1="365.0" y1="240.0" x2="365.0" y2="0.0" stroke="#202020"/><line x1="385.0" y1="240.0" x2="385.0" y2="0.0" stroke="#202020"/><line x1="405.0" y1="240.0" x2="405.0" y2="0.0" stroke="#202020"/><line x1="425.0" y1="240.0" x2="425.0" y2="0.0" stroke="#202020"/><line x1="445.00000000000006" y1="240.0" x2="445.00000000000006" y2="0.0" stroke="#202020"/><line x1="464.99999999999994" y1="240.0" x2="464.99999999999994" y2="0.0" stroke="#202020"/><line x1="485.0" y1="240.0" x2="485.0" y2="0.0" stroke="#202020"/><line x1="505.0" y1="240.0" x2="505.0" y2="0.0" stroke="#202020"/><line x1="525.0" y1="240.0" x2="525.0" y2="0.0" stroke="#202020"/><line x1="545.0" y1="240.0" x2="545.0" y2="0.0" stroke="#202020"/><line x1="565.0" y1="240.0" x2="565.0" y2="0.0" stroke="#202020"/><line x1="585.0" y1="240.0" x2="585.0" y2="0.0" stroke="#202020"/><line x1="605.0" y1="240.0" x2="605.0" y2="0.0" stroke="#202020"/><line x1="625.0" y1="240.0" x2="625.0" y2="0.0" stroke="#202020"/><line x1="645.0" y1="240.0" x2="645.0" y2="0.0" stroke="#202020"/><line x1="665.0" y1="240.0" x2="665.0" y2="0.0" stroke="#202020"/><line x1="685.0" y1="240.0" x2="685.0" y2="0.0" stroke="#202020"/><line x1="705.0" y1="240.0" x2="705.0" y2="0.0" stroke="#202020"/><line x1="725.0" y1="240.0" x2="725.0" y2="0.0" stroke="#202020"/><line x1="745.0" y1="240.0" x2="745.0" y2="0.0" stroke="#202020"/><line x1="765.0" y1="240.0" x2="765.0" y2="0.0" stroke="#202020"/><line x1="785.0" y1="240.0" x2="785.0" y2="0.0" stroke="#202020"/></g><g class="ylines"><line x1="5.0" y1="220.0" x2="805.0" y2="220.0" stroke="#202020"/><line x1="5.0" y1="200.0" x2="805.0" y2="200.0" stroke="#202020"/><line x1="5.0" y1="180.0" x2="805.0" y2="180.0" stroke="#202020"/><line x1="5.0" y1="160.00000000000003" x2="805.0" y2="160.00000000000003" stroke="#202020"/><line x1="5.0" y1="139.99999999999997" x2="805.0" y2="139.99999999999997" stroke="#202020"/><line x1="5.0" y1="120.0" x2="805.0" y2="120.0" stroke="#202020"/><line x1="5.0" y1="99.99999999999999" x2="805.0" y2="99.99999999999999" stroke="#202020"/><line x1="5.0" y1="80.00000000000001" x2="805.0" y2="80.00000000000001" stroke="#202020"/><line x1="5.0" y1="60.0" x2="805.0" y2="60.0" stroke="#202020"/><line x1="5.0" y1="39.99999999999999" x2="805.0" y2="39.99999999999999" stroke="#202020"/><line x1="5.0" y1="20.000000000000007" x2="805.0" y2="20.000000000000007" stroke="#202020"/></g><g class="ease"><path d="M5,240L8.200,232.612L11.400,223.862L14.600,213.889L17.800,202.834L21,190.841L24.200,178.051L27.400,164.602L30.600,150.634L33.800,136.279L37,121.667L40.200,106.924L43.400,92.167L46.600,77.509L49.800,63.055L53,48.905L56.200,35.149L59.400,21.870L62.600,9.143L65.800,-2.966L69,-14.398L72.200,-25.104L75.400,-35.041L78.600,-44.175L81.800,-52.481L85,-59.941L88.200,-66.544L91.400,-72.286L94.600,-77.170L97.800,-81.205L101,-84.408L104.200,-86.797L107.400,-88.400L110.600,-89.247L113.800,-89.372L117,-88.813L120.200,-87.612L123.400,-85.811L126.600,-83.459L129.800,-80.601L133,-77.287L136.200,-73.566L139.400,-69.490L142.600,-65.108L145.800,-60.469L149,-55.624L152.200,-50.619L155.400,-45.501L158.600,-40.316L161.800,-35.106L165,-29.912L168.200,-24.773L171.400,-19.724L174.600,-14.799L177.800,-10.029L181,-5.441L184.200,-1.060L187.400,3.091L190.600,6.994L193.800,10.632L197,13.993L200.200,17.065L203.400,19.841L206.600,22.316L209.800,24.488L213,26.357L216.200,27.924L219.400,29.194L222.600,30.174L225.800,30.872L229,31.298L232.200,31.464L235.400,31.381L238.600,31.066L241.800,30.532L245,29.795L248.200,28.872L251.400,27.780L254.600,26.537L257.800,25.160L261,23.668L264.200,22.076L267.400,20.404L270.600,18.668L273.800,16.885L277,15.071L280.200,13.241L283.400,11.411L286.600,9.593L289.800,7.802L293,6.050L296.200,4.347L299.400,2.704L302.600,1.130L305.800,-0.366L309,-1.778L312.200,-3.099L315.400,-4.325L318.600,-5.450L321.800,-6.473L325,-7.390L328.200,-8.201L331.400,-8.905L334.600,-9.503L337.800,-9.995L341,-10.385L344.200,-10.674L347.400,-10.866L350.600,-10.965L353.800,-10.975L357,-10.901L360.200,-10.748L363.400,-10.521L366.600,-10.227L369.800,-9.871L373,-9.460L376.200,-8.999L379.400,-8.495L382.600,-7.955L385.800,-7.383L389,-6.787L392.200,-6.172L395.400,-5.544L398.600,-4.909L401.800,-4.271L405,-3.636L408.200,-3.009L411.400,-2.394L414.600,-1.795L417.800,-1.215L421,-0.659L424.200,-0.128L427.400,0.374L430.600,0.844L433.800,1.282L437,1.686L440.200,2.054L443.400,2.385L446.600,2.680L449.800,2.937L453,3.157L456.200,3.341L459.400,3.488L462.600,3.601L465.800,3.679L469,3.725L472.200,3.739L475.400,3.724L478.600,3.681L481.800,3.612L485,3.519L488.200,3.404L491.400,3.270L494.600,3.118L497.800,2.951L501,2.771L504.200,2.580L507.400,2.380L510.600,2.173L513.800,1.961L517,1.747L520.200,1.531L523.400,1.316L526.600,1.104L529.800,0.896L533,0.693L536.200,0.496L539.400,0.308L542.600,0.128L545.800,-0.042L549,-0.201L552.200,-0.349L555.400,-0.485L558.600,-0.610L561.800,-0.722L565,-0.821L568.200,-0.908L571.400,-0.982L574.600,-1.044L577.800,-1.094L581,-1.132L584.200,-1.159L587.400,-1.174L590.600,-1.180L593.800,-1.175L597,-1.162L600.200,-1.140L603.400,-1.110L606.600,-1.073L609.800,-1.030L613,-0.982L616.200,-0.928L619.400,-0.871L622.600,-0.810L625.800,-0.747L629,-0.682L632.200,-0.616L635.400,-0.549L638.600,-0.483L641.800,-0.417L645,-0.352L648.200,-0.289L651.400,-0.228L654.600,-0.169L657.800,-0.113L661,-0.061L664.200,-0.012L667.400,0.034L670.600,0.076L673.800,0.113L677,0.147L680.200,0.177L683.400,0.203L686.600,0.225L689.800,0.243L693,0.257L696.200,0.268L699.400,0.275L702.600,0.279L705.800,0.280L709,0.278L712.200,0.274L715.400,0.267L718.600,0.258L721.800,0.247L725,0.235L728.200,0.221L731.400,0.206L734.600,0.191L737.800,0.175L741,0.159L744.200,0.143L747.400,0.126L750.600,0.111L753.800,0.095L757,0.081L760.200,0.067L763.400,0.055L766.600,0.043L769.800,0.032L773,0.023L776.200,0.015L779.400,0.009L782.600,0.003L785.800,-0.001L789,-0.004L792.200,-0.005L795.400,-0.005L798.600,-0.005L801.800,-0.003L805,0" stroke="rgb(153, 153, 153)" fill="none"/><path d="M5,240L8.200,241.563L11.400,241.213L14.600,239.055L17.800,235.203L21,229.778L24.200,222.907L27.400,214.718L30.600,205.346L33.800,194.924L37,183.590L40.200,171.477L43.400,158.720L46.600,145.450L49.800,131.795L53,117.880L56.200,103.824L59.400,89.741L62.600,75.739L65.800,61.920L69,48.378L72.200,35.202L75.400,22.471L78.600,10.258L81.800,-1.373L85,-12.364L88.200,-22.669L91.400,-32.244L94.600,-41.058L97.800,-49.084L101,-56.305L104.200,-62.708L107.400,-68.291L110.600,-73.054L113.800,-77.007L117,-80.162L120.200,-82.540L123.400,-84.163L126.600,-85.062L129.800,-85.267L133,-84.815L136.200,-83.745L139.400,-82.098L142.600,-79.919L145.800,-77.251L149,-74.143L152.200,-70.642L155.400,-66.794L158.600,-62.649L161.800,-58.253L165,-53.654L168.200,-48.897L171.400,-44.028L174.600,-39.088L177.800,-34.120L181,-29.162L184.200,-24.252L187.400,-19.424L190.600,-14.710L193.800,-10.141L197,-5.742L200.200,-1.538L203.400,2.449L206.600,6.202L209.800,9.704L213,12.943L216.200,15.907L219.400,18.590L222.600,20.987L225.800,23.095L229,24.912L232.200,26.443L235.400,27.689L238.600,28.658L241.800,29.357L245,29.795L248.200,29.983L251.400,29.934L254.600,29.660L257.800,29.176L261,28.497L264.200,27.638L267.400,26.617L270.600,25.449L273.800,24.151L277,22.741L280.200,21.236L283.400,19.651L286.600,18.003L289.800,16.308L293,14.582L296.200,12.840L299.400,11.095L302.600,9.361L305.800,7.650L309,5.975L312.200,4.346L315.400,2.774L318.600,1.266L321.800,-0.169L325,-1.524L328.200,-2.794L331.400,-3.972L334.600,-5.056L337.800,-6.042L341,-6.927L344.200,-7.712L347.400,-8.394L350.600,-8.976L353.800,-9.457L357,-9.839L360.200,-10.126L363.400,-10.319L366.600,-10.424L369.800,-10.443L373,-10.381L376.200,-10.244L379.400,-10.037L382.600,-9.764L385.800,-9.432L389,-9.047L392.200,-8.613L395.400,-8.138L398.600,-7.628L401.800,-7.087L405,-6.523L408.200,-5.940L411.400,-5.344L414.600,-4.740L417.800,-4.134L421,-3.530L424.200,-2.933L427.400,-2.347L430.600,-1.776L433.800,-1.223L437,-0.692L440.200,-0.185L443.400,0.294L446.600,0.745L449.800,1.164L453,1.550L456.200,1.903L459.400,2.221L462.600,2.504L465.800,2.752L469,2.965L472.200,3.142L475.400,3.286L478.600,3.396L481.800,3.473L485,3.519L488.200,3.535L491.400,3.524L494.600,3.485L497.800,3.422L501,3.336L504.200,3.230L507.400,3.104L510.600,2.962L513.800,2.805L517,2.635L520.200,2.455L523.400,2.267L526.600,2.072L529.800,1.872L533,1.670L536.200,1.466L539.400,1.264L542.600,1.063L545.800,0.867L549,0.675L552.200,0.489L555.400,0.311L558.600,0.142L561.800,-0.019L565,-0.169L568.200,-0.309L571.400,-0.438L574.600,-0.556L577.800,-0.661L581,-0.755L584.200,-0.837L587.400,-0.907L590.600,-0.966L593.800,-1.013L597,-1.049L600.200,-1.074L603.400,-1.089L606.600,-1.094L609.800,-1.090L613,-1.077L616.200,-1.057L619.400,-1.029L622.600,-0.995L625.800,-0.955L629,-0.909L632.200,-0.860L635.400,-0.806L638.600,-0.750L641.800,-0.692L645,-0.631L648.200,-0.570L651.400,-0.508L654.600,-0.447L657.800,-0.386L661,-0.326L664.200,-0.268L667.400,-0.212L670.600,-0.159L673.800,-0.108L677,-0.060L680.200,-0.016L683.400,0.025L686.600,0.063L689.800,0.096L693,0.126L696.200,0.153L699.400,0.175L702.600,0.194L705.800,0.209L709,0.221L712.200,0.230L715.400,0.235L718.600,0.238L721.800,0.237L725,0.235L728.200,0.229L731.400,0.222L734.600,0.213L737.800,0.203L741,0.191L744.200,0.178L747.400,0.165L750.600,0.151L753.800,0.137L757,0.122L760.200,0.108L763.400,0.094L766.600,0.081L769.800,0.068L773,0.056L776.200,0.045L779.400,0.035L782.600,0.026L785.800,0.019L789,0.012L792.200,0.007L795.400,0.004L798.600,0.001L801.800,0L805,0" stroke="rgb(135, 152, 173)" fill="none"/><path d="M5,240L8.200,245.569L11.400,248.977L14.600,250.317L17.800,249.688L21,247.203L24.200,242.980L27.400,237.144L30.600,229.829L33.800,221.168L37,211.300L40.200,200.364L43.400,188.502L46.600,175.853L49.800,162.556L53,148.746L56.200,134.555L59.400,120.112L62.600,105.540L65.800,90.956L69,76.470L72.200,62.189L75.400,48.207L78.600,34.617L81.800,21.498L85,8.926L88.200,-3.034L91.400,-14.325L94.600,-24.898L97.800,-34.710L101,-43.729L104.200,-51.929L107.400,-59.292L110.600,-65.808L113.800,-71.474L117,-76.291L120.200,-80.270L123.400,-83.426L126.600,-85.779L129.800,-87.355L133,-88.184L136.200,-88.300L139.400,-87.740L142.600,-86.546L145.800,-84.761L149,-82.431L152.200,-79.602L155.400,-76.322L158.600,-72.642L161.800,-68.611L165,-64.278L168.200,-59.693L171.400,-54.903L174.600,-49.957L177.800,-44.900L181,-39.777L184.200,-34.630L187.400,-29.499L190.600,-24.423L193.800,-19.437L197,-14.573L200.200,-9.863L203.400,-5.334L206.600,-1.009L209.800,3.088L213,6.940L216.200,10.530L219.400,13.845L222.600,16.876L225.800,19.614L229,22.055L232.200,24.196L235.400,26.037L238.600,27.580L241.800,28.831L245,29.795L248.200,30.480L251.400,30.897L254.600,31.057L257.800,30.972L261,30.657L264.200,30.127L267.400,29.397L270.600,28.483L273.800,27.403L277,26.174L280.200,24.813L283.400,23.338L286.600,21.766L289.800,20.114L293,18.400L296.200,16.640L299.400,14.849L302.600,13.044L305.800,11.238L309,9.445L312.200,7.678L315.400,5.950L318.600,4.271L321.800,2.651L325,1.100L328.200,-0.374L331.400,-1.765L334.600,-3.066L337.800,-4.272L341,-5.380L344.200,-6.386L347.400,-7.288L350.600,-8.085L353.800,-8.777L357,-9.364L360.200,-9.847L363.400,-10.229L366.600,-10.512L369.800,-10.699L373,-10.794L376.200,-10.802L379.400,-10.727L382.600,-10.574L385.800,-10.349L389,-10.058L392.200,-9.706L395.400,-9.299L398.600,-8.845L401.800,-8.347L405,-7.814L408.200,-7.251L411.400,-6.664L414.600,-6.058L417.800,-5.440L421,-4.815L424.200,-4.188L427.400,-3.564L430.600,-2.948L433.800,-2.344L437,-1.756L440.200,-1.187L443.400,-0.641L446.600,-0.121L449.800,0.370L453,0.831L456.200,1.260L459.400,1.654L462.600,2.014L465.800,2.337L469,2.625L472.200,2.875L475.400,3.090L478.600,3.268L481.800,3.411L485,3.519L488.200,3.594L491.400,3.637L494.600,3.649L497.800,3.633L501,3.589L504.200,3.520L507.400,3.428L510.600,3.315L513.800,3.183L517,3.033L520.200,2.869L523.400,2.692L526.600,2.505L529.800,2.309L533,2.107L536.200,1.901L539.400,1.691L542.600,1.482L545.800,1.273L549,1.067L552.200,0.864L555.400,0.668L558.600,0.478L561.800,0.296L565,0.122L568.200,-0.041L571.400,-0.195L574.600,-0.337L577.800,-0.468L581,-0.586L584.200,-0.693L587.400,-0.788L590.600,-0.870L593.800,-0.940L597,-0.998L600.200,-1.044L603.400,-1.079L606.600,-1.103L609.800,-1.117L613,-1.120L616.200,-1.114L619.400,-1.100L622.600,-1.077L625.800,-1.048L629,-1.011L632.200,-0.969L635.400,-0.922L638.600,-0.870L641.800,-0.814L645,-0.756L648.200,-0.696L651.400,-0.634L654.600,-0.571L657.800,-0.508L661,-0.445L664.200,-0.383L667.400,-0.323L670.600,-0.264L673.800,-0.207L677,-0.153L680.200,-0.102L683.400,-0.055L686.600,-0.010L689.800,0.031L693,0.068L696.200,0.101L699.400,0.131L702.600,0.156L705.800,0.178L709,0.196L712.200,0.210L715.400,0.221L718.600,0.229L721.800,0.233L725,0.235L728.200,0.233L731.400,0.230L734.600,0.223L737.800,0.215L741,0.206L744.200,0.195L747.400,0.182L750.600,0.169L753.800,0.155L757,0.141L760.200,0.126L763.400,0.112L766.600,0.097L769.800,0.084L773,0.070L776.200,0.058L779.400,0.047L782.600,0.036L785.800,0.027L789,0.019L792.200,0.013L795.400,0.008L798.600,0.004L801.800,0.001L805,0" stroke="rgb(116, 151, 194)" fill="none"/><path d="M5,240L8.200,248.837L11.400,255.313L14.600,259.506L17.800,261.508L21,261.421L24.200,259.359L27.400,255.445L30.600,249.807L33.800,242.583L37,233.911L40.200,223.937L43.400,212.805L46.600,200.663L49.800,187.657L53,173.933L56.200,159.633L59.400,144.896L62.600,129.858L65.800,114.649L69,99.394L72.200,84.210L75.400,69.209L78.600,54.494L81.800,40.161L85,26.299L88.200,12.987L91.400,0.296L94.600,-11.711L97.800,-22.980L101,-33.467L104.200,-43.132L107.400,-51.949L110.600,-59.895L113.800,-66.958L117,-73.132L120.200,-78.418L123.400,-82.824L126.600,-86.364L129.800,-89.059L133,-90.933L136.200,-92.016L139.400,-92.344L142.600,-91.955L145.800,-90.889L149,-89.193L152.200,-86.913L155.400,-84.098L158.600,-80.797L161.800,-77.064L165,-72.948L168.200,-68.502L171.400,-63.778L174.600,-58.827L177.800,-53.698L181,-48.439L184.200,-43.099L187.400,-37.721L190.600,-32.349L193.800,-27.022L197,-21.780L200.200,-16.657L203.400,-11.685L206.600,-6.894L209.800,-2.311L213,2.041L216.200,6.142L219.400,9.973L222.600,13.521L225.800,16.774L229,19.723L232.200,22.362L235.400,24.688L238.600,26.701L241.800,28.402L245,29.795L248.200,30.886L251.400,31.683L254.600,32.197L257.800,32.439L261,32.421L264.200,32.158L267.400,31.665L270.600,30.959L273.800,30.056L277,28.975L280.200,27.732L283.400,26.347L286.600,24.837L289.800,23.220L293,21.516L296.200,19.741L299.400,17.913L302.600,16.049L305.800,14.165L309,12.276L312.200,10.397L315.400,8.542L318.600,6.723L321.800,4.953L325,3.242L328.200,1.601L331.400,0.036L334.600,-1.442L337.800,-2.829L341,-4.117L344.200,-5.304L347.400,-6.386L350.600,-7.359L353.800,-8.223L357,-8.976L360.200,-9.620L363.400,-10.155L366.600,-10.583L369.800,-10.907L373,-11.130L376.200,-11.256L379.400,-11.289L382.600,-11.235L385.800,-11.097L389,-10.883L392.200,-10.597L395.400,-10.247L398.600,-9.837L401.800,-9.376L405,-8.868L408.200,-8.321L411.400,-7.741L414.600,-7.134L417.800,-6.506L421,-5.864L424.200,-5.213L427.400,-4.558L430.600,-3.905L433.800,-3.259L437,-2.624L440.200,-2.004L443.400,-1.405L446.600,-0.828L449.800,-0.277L453,0.245L456.200,0.735L459.400,1.192L462.600,1.614L465.800,1.999L469,2.347L472.200,2.657L475.400,2.930L478.600,3.164L481.800,3.360L485,3.519L488.200,3.642L491.400,3.730L494.600,3.783L497.800,3.805L501,3.796L504.200,3.758L507.400,3.693L510.600,3.603L513.800,3.491L517,3.358L520.200,3.207L523.400,3.039L526.600,2.858L529.800,2.666L533,2.464L536.200,2.255L539.400,2.040L542.600,1.823L545.800,1.604L549,1.386L552.200,1.171L555.400,0.959L558.600,0.752L561.800,0.552L565,0.360L568.200,0.177L571.400,0.004L574.600,-0.158L577.800,-0.310L581,-0.449L584.200,-0.576L587.400,-0.690L590.600,-0.792L593.800,-0.881L597,-0.957L600.200,-1.020L603.400,-1.071L606.600,-1.111L609.800,-1.138L613,-1.155L616.200,-1.161L619.400,-1.158L622.600,-1.145L625.800,-1.123L629,-1.094L632.200,-1.058L635.400,-1.015L638.600,-0.967L641.800,-0.915L645,-0.858L648.200,-0.798L651.400,-0.736L654.600,-0.672L657.800,-0.607L661,-0.542L664.200,-0.477L667.400,-0.412L670.600,-0.349L673.800,-0.288L677,-0.229L680.200,-0.173L683.400,-0.120L686.600,-0.069L689.800,-0.023L693,0.020L696.200,0.059L699.400,0.094L702.600,0.125L705.800,0.152L709,0.175L712.200,0.194L715.400,0.210L718.600,0.221L721.800,0.230L725,0.235L728.200,0.236L731.400,0.235L734.600,0.232L737.800,0.226L741,0.218L744.200,0.208L747.400,0.196L750.600,0.184L753.800,0.170L757,0.156L760.200,0.141L763.400,0.126L766.600,0.111L769.800,0.096L773,0.082L776.200,0.069L779.400,0.056L782.600,0.045L785.800,0.034L789,0.025L792.200,0.017L795.400,0.011L798.600,0.006L801.800,0.002L805,0" stroke="rgb(98, 150, 214)" fill="none"/><path d="M5,240L8.200,251.750L11.400,260.960L14.600,267.696L17.800,272.042L21,274.093L24.200,273.957L27.400,271.754L30.600,267.612L33.800,261.668L37,254.063L40.200,244.944L43.400,234.464L46.600,222.773L49.800,210.028L53,196.380L56.200,181.982L59.400,166.983L62.600,151.531L65.800,135.765L69,119.823L72.200,103.835L75.400,87.925L78.600,72.208L81.800,56.794L85,41.782L88.200,27.266L91.400,13.327L94.600,0.041L97.800,-12.527L101,-24.321L104.200,-35.293L107.400,-45.405L110.600,-54.626L113.800,-62.934L117,-70.317L120.200,-76.767L123.400,-82.288L126.600,-86.886L129.800,-90.577L133,-93.383L136.200,-95.329L139.400,-96.447L142.600,-96.775L145.800,-96.351L149,-95.220L152.200,-93.429L155.400,-91.027L158.600,-88.065L161.800,-84.596L165,-80.674L168.200,-76.353L171.400,-71.688L174.600,-66.731L177.800,-61.538L181,-56.159L184.200,-50.646L187.400,-45.048L190.600,-39.412L193.800,-33.783L197,-28.202L200.200,-22.711L203.400,-17.345L206.600,-12.138L209.800,-7.122L213,-2.324L216.200,2.231L219.400,6.523L222.600,10.532L225.800,14.243L229,17.645L232.200,20.728L235.400,23.487L238.600,25.918L241.800,28.020L245,29.795L248.200,31.247L251.400,32.384L254.600,33.213L257.800,33.745L261,33.992L264.200,33.968L267.400,33.687L270.600,33.166L273.800,32.421L277,31.471L280.200,30.334L283.400,29.028L286.600,27.573L289.800,25.988L293,24.293L296.200,22.505L299.400,20.644L302.600,18.728L305.800,16.774L309,14.799L312.200,12.820L315.400,10.852L318.600,8.909L321.800,7.005L325,5.151L328.200,3.360L331.400,1.642L334.600,0.005L337.800,-1.542L341,-2.992L344.200,-4.340L347.400,-5.581L350.600,-6.711L353.800,-7.728L357,-8.631L360.200,-9.417L363.400,-10.089L366.600,-10.647L369.800,-11.093L373,-11.430L376.200,-11.661L379.400,-11.791L382.600,-11.824L385.800,-11.764L389,-11.618L392.200,-11.392L395.400,-11.091L398.600,-10.722L401.800,-10.292L405,-9.807L408.200,-9.275L411.400,-8.701L414.600,-8.092L417.800,-7.456L421,-6.798L424.200,-6.125L427.400,-5.443L430.600,-4.758L433.800,-4.074L437,-3.397L440.200,-2.733L443.400,-2.085L446.600,-1.457L449.800,-0.854L453,-0.278L456.200,0.267L459.400,0.779L462.600,1.257L465.800,1.697L469,2.100L472.200,2.463L475.400,2.787L478.600,3.071L481.800,3.315L485,3.519L488.200,3.685L491.400,3.812L494.600,3.903L497.800,3.958L501,3.980L504.200,3.969L507.400,3.929L510.600,3.860L513.800,3.765L517,3.647L520.200,3.507L523.400,3.349L526.600,3.173L529.800,2.984L533,2.782L536.200,2.570L539.400,2.352L542.600,2.127L545.800,1.900L549,1.671L552.200,1.443L555.400,1.218L558.600,0.997L561.800,0.781L565,0.572L568.200,0.372L571.400,0.181L574.600,0.001L577.800,-0.169L581,-0.326L584.200,-0.471L587.400,-0.603L590.600,-0.722L593.800,-0.828L597,-0.920L600.200,-0.999L603.400,-1.064L606.600,-1.117L609.800,-1.158L613,-1.186L616.200,-1.203L619.400,-1.209L622.600,-1.205L625.800,-1.191L629,-1.168L632.200,-1.137L635.400,-1.099L638.600,-1.054L641.800,-1.004L645,-0.949L648.200,-0.890L651.400,-0.828L654.600,-0.763L657.800,-0.696L661,-0.628L664.200,-0.560L667.400,-0.493L670.600,-0.426L673.800,-0.360L677,-0.297L680.200,-0.236L683.400,-0.177L686.600,-0.122L689.800,-0.071L693,-0.023L696.200,0.021L699.400,0.061L702.600,0.097L705.800,0.129L709,0.157L712.200,0.180L715.400,0.200L718.600,0.215L721.800,0.227L725,0.235L728.200,0.239L731.400,0.241L734.600,0.239L737.800,0.235L741,0.228L744.200,0.219L747.400,0.209L750.600,0.197L753.800,0.183L757,0.169L760.200,0.154L763.400,0.139L766.600,0.123L769.800,0.108L773,0.093L776.200,0.079L779.400,0.065L782.600,0.052L785.800,0.041L789,0.030L792.200,0.021L795.400,0.014L798.600,0.008L801.800,0.003L805,0" stroke="rgb(79, 149, 235)" fill="none"/><path d="M5,240L8.200,254.451L11.400,266.194L14.600,275.288L17.800,281.806L21,285.838L24.200,287.488L27.400,286.872L30.600,284.117L33.800,279.359L37,272.742L40.200,264.418L43.400,254.540L46.600,243.269L49.800,230.764L53,217.187L56.200,202.698L59.400,187.457L62.600,171.620L65.800,155.339L69,138.761L72.200,122.027L75.400,105.274L78.600,88.629L81.800,72.211L85,56.135L88.200,40.501L91.400,25.406L94.600,10.935L97.800,-2.837L101,-15.843L104.200,-28.026L107.400,-39.338L110.600,-49.741L113.800,-59.204L117,-67.707L120.200,-75.237L123.400,-81.790L126.600,-87.369L129.800,-91.985L133,-95.653L136.200,-98.399L139.400,-100.251L142.600,-101.242L145.800,-101.413L149,-100.807L152.200,-99.469L155.400,-97.450L158.600,-94.802L161.800,-91.579L165,-87.836L168.200,-83.631L171.400,-79.019L174.600,-74.058L177.800,-68.805L181,-63.315L184.200,-57.642L187.400,-51.840L190.600,-45.959L193.800,-40.049L197,-34.156L200.200,-28.323L203.400,-22.591L206.600,-16.999L209.800,-11.582L213,-6.370L216.200,-1.394L219.400,3.324L222.600,7.760L225.800,11.897L229,15.719L232.200,19.214L235.400,22.373L238.600,25.191L241.800,27.665L245,29.795L248.200,31.583L251.400,33.034L254.600,34.155L257.800,34.956L261,35.449L264.200,35.646L267.400,35.561L270.600,35.211L273.800,34.613L277,33.785L280.200,32.745L283.400,31.514L286.600,30.110L289.800,28.554L293,26.867L296.200,25.067L299.400,23.175L302.600,21.211L305.800,19.192L309,17.138L312.200,15.066L315.400,12.993L318.600,10.935L321.800,8.906L325,6.921L328.200,4.991L331.400,3.130L334.600,1.347L337.800,-0.349L341,-1.949L344.200,-3.447L347.400,-4.835L350.600,-6.111L353.800,-7.270L357,-8.310L360.200,-9.230L363.400,-10.028L366.600,-10.706L369.800,-11.266L373,-11.708L376.200,-12.037L379.400,-12.256L382.600,-12.369L385.800,-12.382L389,-12.300L392.200,-12.128L395.400,-11.874L398.600,-11.543L401.800,-11.142L405,-10.678L408.200,-10.159L411.400,-9.591L414.600,-8.981L417.800,-8.337L421,-7.665L424.200,-6.972L427.400,-6.264L430.600,-5.548L433.800,-4.830L437,-4.115L440.200,-3.408L443.400,-2.716L446.600,-2.041L449.800,-1.389L453,-0.763L456.200,-0.167L459.400,0.397L462.600,0.926L465.800,1.418L469,1.871L472.200,2.283L475.400,2.655L478.600,2.985L481.800,3.273L485,3.519L488.200,3.724L491.400,3.889L494.600,4.013L497.800,4.100L501,4.150L504.200,4.165L507.400,4.147L510.600,4.098L513.800,4.020L517,3.915L520.200,3.786L523.400,3.635L526.600,3.465L529.800,3.278L533,3.077L536.200,2.863L539.400,2.640L542.600,2.409L545.800,2.174L549,1.935L552.200,1.696L555.400,1.458L558.600,1.223L561.800,0.993L565,0.769L568.200,0.553L571.400,0.345L574.600,0.148L577.800,-0.038L581,-0.212L584.200,-0.374L587.400,-0.523L590.600,-0.658L593.800,-0.779L597,-0.886L600.200,-0.979L603.400,-1.058L606.600,-1.124L609.800,-1.176L613,-1.215L616.200,-1.242L619.400,-1.257L622.600,-1.260L625.800,-1.253L629,-1.237L632.200,-1.211L635.400,-1.177L638.600,-1.135L641.800,-1.087L645,-1.033L648.200,-0.975L651.400,-0.912L654.600,-0.846L657.800,-0.778L661,-0.708L664.200,-0.638L667.400,-0.567L670.600,-0.496L673.800,-0.427L677,-0.359L680.200,-0.294L683.400,-0.231L686.600,-0.171L689.800,-0.115L693,-0.062L696.200,-0.013L699.400,0.031L702.600,0.072L705.800,0.108L709,0.140L712.200,0.167L715.400,0.190L718.600,0.209L721.800,0.224L725,0.235L728.200,0.242L731.400,0.245L734.600,0.246L737.800,0.243L741,0.238L744.200,0.230L747.400,0.220L750.600,0.209L753.800,0.196L757,0.181L760.200,0.166L763.400,0.151L766.600,0.135L769.800,0.119L773,0.103L776.200,0.088L779.400,0.073L782.600,0.059L785.800,0.047L789,0.035L792.200,0.025L795.400,0.016L798.600,0.009L801.800,0.004L805,0" stroke="rgb(61, 148, 255)" fill="none"/></g></g></svg>