<svg xmlns="http://www.w3.org/2000/svg" width="810" height="40" viewBox="0 0 810 40"><g transform="translate(0, 20)" fill="none" font-size="10" font-family="sans-serif" text-anchor="middle"><g class="tick" opacity="1" transform="translate(101.25, 0)"><line stroke="white" y2="6"/><text fill="white" y="9" dy="0.71em" stroke="none">circle</text></g><g class="tick" opacity="1" transform="translate(202.5, 0)"><line stroke="white" y2="6"/><text fill="white" y="9" dy="0.71em" stroke="none">cross</text></g><g class="tick" opacity="1" transform="translate(303.75, 0)"><line stroke="white" y2="6"/><text fill="white" y="9" dy="0.71em" stroke="none">diamond</text></g><g class="tick" opacity="1" transform="translate(405.0, 0)"><line stroke="white" y2="6"/><text fill="white" y="9" dy="0.71em" stroke="none">square</text></g><g class="tick" opacity="1" transform="translate(506.25, 0)"><line stroke="white" y2="6"/><text fill="white" y="9" dy="0.71em" stroke="none">star</text></g><g class="tick" opacity="1" transform="translate(607.5, 0)"><line stroke="white" y2="6"/><text fill="white" y="9" dy="0.71em" stroke="none">triangle</text></g><g class="tick" opacity="1" transform="translate(708.75, 0)"><line stroke="white" y2="6"/><text fill="white" y="9" dy="0.71em" stroke="none">wye</text></g><g transform="translate(101.25, -10)"><path d="M4.514,0A4.514,4.514,0,1,1,-4.514,0A4.514,4.514,0,1,1,4.514,0" fill="white"/></g><g transform="translate(202.5, -10)"><path d="M-5.367,-1.789L-1.789,-1.789L-1.789,-5.367L1.789,-5.367L1.789,-1.789L5.367,-1.789L5.367,1.789L1.789,1.789L1.789,5.367L-1.789,5.367L-1.789,1.789L-5.367,1.789Z" fill="white"/></g><g transform="translate(303.75, -10)"><path d="M0,-7.445L4.298,0L0,7.445L-4.298,0Z" fill="white"/></g><g transform="translate(405.0, -10)"><path d="M-4,-4h8v8h-8Z" fill="white"/></g><g transform="translate(506.25, -10)"><path d="M0,-7.551L1.695,-2.333L7.181,-2.333L2.743,0.891L4.438,6.109L0,2.884L-4.438,6.109L-2.743,0.891L-7.181,-2.333L-1.695,-2.333Z" fill="white"/></g><g transform="translate(607.5, -10)"><path d="M0,-7.019L6.079,3.51L-6.079,3.51Z" fill="white"/></g><g transform="translate(708.75, -10)"><path d="M2.159,1.246L2.159,5.564L-2.159,5.564L-2.159,1.246L-5.898,-0.912L-3.739,-4.652L0,-2.493L3.739,-4.652L5.898,-0.912Z" fill="white"/></g></g></svg>