<svg xmlns="http://www.w3.org/2000/svg" width="928" height="500" viewBox="0, 0, 928, 500" style="max-width: 100%; height: auto;"><g fill="steelblue"><rect x="41.0" width="16.36" y="452.41379310344826" height="17.586206896551744"/><rect x="58.36" width="16.36" y="402.7586206896552" height="67.24137931034483"/><rect x="75.72" width="16.359999999999985" y="327.2413793103449" height="142.75862068965512"/><rect x="93.07999999999998" width="16.360000000000014" y="221.7241379310345" height="248.2758620689655"/><rect x="110.44" width="16.360000000000014" y="142.0689655172414" height="327.9310344827586"/><rect x="127.80000000000001" width="16.359999999999985" y="93.44827586206895" height="376.55172413793105"/><rect x="145.16" width="16.360000000000014" y="20.0" height="450.0"/><rect x="162.52" width="16.359999999999985" y="76.89655172413791" height="393.1034482758621"/><rect x="179.88" width="16.360000000000014" y="132.75862068965515" height="337.2413793103449"/><rect x="197.24" width="16.360000000000014" y="244.48275862068968" height="225.51724137931032"/><rect x="214.60000000000002" width="16.359999999999957" y="263.1034482758621" height="206.8965517241379"/><rect x="231.95999999999998" width="16.360000000000014" y="325.17241379310343" height="144.82758620689657"/><rect x="249.32" width="16.360000000000014" y="378.9655172413793" height="91.0344827586207"/><rect x="266.68" width="16.360000000000014" y="399.65517241379314" height="70.34482758620686"/><rect x="284.04" width="16.359999999999957" y="424.48275862068965" height="45.51724137931035"/><rect x="301.4" width="16.360000000000014" y="440.0" height="30.0"/><rect x="318.76" width="16.360000000000014" y="446.2068965517241" height="23.793103448275872"/><rect x="336.12" width="16.360000000000014" y="456.55172413793105" height="13.448275862068954"/><rect x="353.48" width="16.360000000000014" y="459.6551724137931" height="10.344827586206918"/><rect x="370.84000000000003" width="16.360000000000014" y="460.6896551724138" height="9.31034482758622"/><rect x="388.20000000000005" width="16.359999999999957" y="460.6896551724138" height="9.31034482758622"/><rect x="405.56" width="16.359999999999957" y="463.7931034482759" height="6.206896551724128"/><rect x="422.91999999999996" width="16.36000000000007" y="461.7241379310345" height="8.275862068965523"/><rect x="440.28000000000003" width="16.359999999999957" y="458.62068965517244" height="11.379310344827559"/><rect x="457.64" width="16.360000000000014" y="460.6896551724138" height="9.31034482758622"/><rect x="475.0" width="16.360000000000014" y="459.6551724137931" height="10.344827586206918"/><rect x="492.36" width="16.360000000000014" y="464.82758620689657" height="5.172413793103431"/><rect x="509.72" width="16.360000000000014" y="461.7241379310345" height="8.275862068965523"/><rect x="527.08" width="16.3599999999999" y="466.8965517241379" height="3.1034482758620925"/><rect x="544.4399999999999" width="16.360000000000014" y="466.8965517241379" height="3.1034482758620925"/><rect x="561.8" width="16.360000000000127" y="464.82758620689657" height="5.172413793103431"/><rect x="579.1600000000001" width="16.3599999999999" y="467.9310344827586" height="2.068965517241395"/><rect x="596.52" width="16.360000000000014" y="466.8965517241379" height="3.1034482758620925"/><rect x="613.88" width="16.360000000000014" y="466.8965517241379" height="3.1034482758620925"/><rect x="631.24" width="16.3599999999999" y="467.9310344827586" height="2.068965517241395"/><rect x="648.5999999999999" width="16.360000000000127" y="470.0" height="0.0"/><rect x="665.96" width="16.3599999999999" y="467.9310344827586" height="2.068965517241395"/><rect x="683.3199999999999" width="16.360000000000127" y="470.0" height="0.0"/><rect x="700.6800000000001" width="16.3599999999999" y="467.9310344827586" height="2.068965517241395"/><rect x="718.04" width="16.360000000000127" y="470.0" height="0.0"/><rect x="735.4000000000001" width="16.3599999999999" y="468.9655172413793" height="1.0344827586206975"/><rect x="752.76" width="16.360000000000014" y="470.0" height="0.0"/><rect x="770.12" width="16.360000000000014" y="470.0" height="0.0"/><rect x="787.48" width="16.3599999999999" y="468.9655172413793" height="1.0344827586206975"/><rect x="804.8399999999999" width="16.360000000000127" y="470.0" height="0.0"/><rect x="822.2" width="16.360000000000014" y="468.9655172413793" height="1.0344827586206975"/><rect x="839.5600000000001" width="16.3599999999999" y="470.0" height="0.0"/><rect x="856.92" width="16.360000000000014" y="470.0" height="0.0"/><rect x="874.28" width="16.360000000000014" y="470.0" height="0.0"/><rect x="891.64" width="16.360000000000014" y="468.9655172413793" height="1.0344827586206975"/></g><g transform="translate(0, 470)" fill="none" font-size="10" font-family="sans-serif" text-anchor="middle"><path class="domain" stroke="white" d="M40.5,0.5H908.5"/><g class="tick" opacity="1" transform="translate(57.86, 0)"><line stroke="white" y2="6"/><text fill="white" y="9" dy="0.71em" stroke="none">2</text></g><g class="tick" opacity="1" transform="translate(127.30000000000001, 0)"><line stroke="white" y2="6"/><text fill="white" y="9" dy="0.71em" stroke="none">4</text></g><g class="tick" opacity="1" transform="translate(196.74, 0)"><line stroke="white" y2="6"/><text fill="white" y="9" dy="0.71em" stroke="none">6</text></g><g class="tick" opacity="1" transform="translate(266.18, 0)"><line stroke="white" y2="6"/><text fill="white" y="9" dy="0.71em" stroke="none">8</text></g><g class="tick" opacity="1" transform="translate(335.62, 0)"><line stroke="white" y2="6"/><text fill="white" y="9" dy="0.71em" stroke="none">10</text></g><g class="tick" opacity="1" transform="translate(405.06, 0)"><line stroke="white" y2="6"/><text fill="white" y="9" dy="0.71em" stroke="none">12</text></g><g class="tick" opacity="1" transform="translate(474.5, 0)"><line stroke="white" y2="6"/><text fill="white" y="9" dy="0.71em" stroke="none">14</text></g><g class="tick" opacity="1" transform="translate(543.9399999999999, 0)"><line stroke="white" y2="6"/><text fill="white" y="9" dy="0.71em" stroke="none">16</text></g><g class="tick" opacity="1" transform="translate(613.38, 0)"><line stroke="white" y2="6"/><text fill="white" y="9" dy="0.71em" stroke="none">18</text></g><g class="tick" opacity="1" transform="translate(682.8199999999999, 0)"><line stroke="white" y2="6"/><text fill="white" y="9" dy="0.71em" stroke="none">20</text></g><g class="tick" opacity="1" transform="translate(752.26, 0)"><line stroke="white" y2="6"/><text fill="white" y="9" dy="0.71em" stroke="none">22</text></g><g class="tick" opacity="1" transform="translate(821.7, 0)"><line stroke="white" y2="6"/><text fill="white" y="9" dy="0.71em" stroke="none">24</text></g><g class="tick" opacity="1" transform="translate(891.14, 0)"><line stroke="white" y2="6"/><text fill="white" y="9" dy="0.71em" stroke="none">26</text></g><text x="928" y="26" fill="white" text-anchor="end" stroke="none">Unemployment rate (%) &#8594;</text></g><g transform="translate(40, 0)" fill="none" font-size="10" font-family="sans-serif" text-anchor="end"><g class="tick" opacity="1" transform="translate(0, 470.5)"><line stroke="white" x2="-6"/><text fill="white" x="-9" dy="0.32em" stroke="none">0</text></g><g class="tick" opacity="1" transform="translate(0, 418.7758620689655)"><line stroke="white" x2="-6"/><text fill="white" x="-9" dy="0.32em" stroke="none">50</text></g><g class="tick" opacity="1" transform="translate(0, 367.05172413793105)"><line stroke="white" x2="-6"/><text fill="white" x="-9" dy="0.32em" stroke="none">100</text></g><g class="tick" opacity="1" transform="translate(0, 315.3275862068965)"><line stroke="white" x2="-6"/><text fill="white" x="-9" dy="0.32em" stroke="none">150</text></g><g class="tick" opacity="1" transform="translate(0, 263.6034482758621)"><line stroke="white" x2="-6"/><text fill="white" x="-9" dy="0.32em" stroke="none">200</text></g><g class="tick" opacity="1" transform="translate(0, 211.87931034482762)"><line stroke="white" x2="-6"/><text fill="white" x="-9" dy="0.32em" stroke="none">250</text></g><g class="tick" opacity="1" transform="translate(0, 160.15517241379308)"><line stroke="white" x2="-6"/><text fill="white" x="-9" dy="0.32em" stroke="none">300</text></g><g class="tick" opacity="1" transform="translate(0, 108.4310344827586)"><line stroke="white" x2="-6"/><text fill="white" x="-9" dy="0.32em" stroke="none">350</text></g><g class="tick" opacity="1" transform="translate(0, 56.70689655172414)"><line stroke="white" x2="-6"/><text fill="white" x="-9" dy="0.32em" stroke="none">400</text></g><text x="-40" y="10" fill="white" text-anchor="start" stroke="none">&#8593; Frequency (no. of counties)</text></g></svg>