<svg xmlns="http://www.w3.org/2000/svg" width="810" height="240.0" viewBox="0 0 810 240.0"><rect x="5" y="0" width="800" height="240.0" fill="#2b2b2e"/><g class="xlines"><line x1="25.0" y1="240.0" x2="25.0" y2="0.0" stroke="#202020"/><line x1="45.0" y1="240.0" x2="45.0" y2="0.0" stroke="#202020"/><line x1="65.0" y1="240.0" x2="65.0" y2="0.0" stroke="#202020"/><line x1="85.0" y1="240.0" x2="85.0" y2="0.0" stroke="#202020"/><line x1="105.0" y1="240.0" x2="105.0" y2="0.0" stroke="#202020"/><line x1="125.0" y1="240.0" x2="125.0" y2="0.0" stroke="#202020"/><line x1="145.0" y1="240.0" x2="145.0" y2="0.0" stroke="#202020"/><line x1="165.0" y1="240.0" x2="165.0" y2="0.0" stroke="#202020"/><line x1="185.0" y1="240.0" x2="185.0" y2="0.0" stroke="#202020"/><line x1="205.0" y1="240.0" x2="205.0" y2="0.0" stroke="#202020"/><line x1="225.00000000000003" y1="240.0" x2="225.00000000000003" y2="0.0" stroke="#202020"/><line x1="245.0" y1="240.0" x2="245.0" y2="0.0" stroke="#202020"/><line x1="265.0" y1="240.0" x2="265.0" y2="0.0" stroke="#202020"/><line x1="285.0" y1="240.0" x2="285.0" y2="0.0" stroke="#202020"/><line x1="305.0" y1="240.0" x2="305.0" y2="0.0" stroke="#202020"/><line x1="325.0" y1="240.0" x2="325.0" y2="0.0" stroke="#202020"/><line x1="345.0" y1="240.0" x2="345.0" y2="0.0" stroke="#202020"/><line x1="365.0" y1="240.0" x2="365.0" y2="0.0" stroke="#202020"/><line x1="385.0" y1="240.0" x2="385.0" y2="0.0" stroke="#202020"/><line x1="405.0" y1="240.0" x2="405.0" y2="0.0" stroke="#202020"/><line x1="425.0" y1="240.0" x2="425.0" y2="0.0" stroke="#202020"/><line x1="445.00000000000006" y1="240.0" x2="445.00000000000006" y2="0.0" stroke="#202020"/><line x1="464.99999999999994" y1="240.0" x2="464.99999999999994" y2="0.0" stroke="#202020"/><line x1="485.0" y1="240.0" x2="485.0" y2="0.0" stroke="#202020"/><line x1="505.0" y1="240.0" x2="505.0" y2="0.0" stroke="#202020"/><line x1="525.0" y1="240.0" x2="525.0" y2="0.0" stroke="#202020"/><line x1="545.0" y1="240.0" x2="545.0" y2="0.0" stroke="#202020"/><line x1="565.0" y1="240.0" x2="565.0" y2="0.0" stroke="#202020"/><line x1="585.0" y1="240.0" x2="585.0" y2="0.0" stroke="#202020"/><line x1="605.0" y1="240.0" x2="605.0" y2="0.0" stroke="#202020"/><line x1="625.0" y1="240.0" x2="625.0" y2="0.0" stroke="#202020"/><line x1="645.0" y1="240.0" x2="645.0" y2="0.0" stroke="#202020"/><line x1="665.0" y1="240.0" x2="665.0" y2="0.0" stroke="#202020"/><line x1="685.0" y1="240.0" x2="685.0" y2="0.0" stroke="#202020"/><line x1="705.0" y1="240.0" x2="705.0" y2="0.0" stroke="#202020"/><line x1="725.0" y1="240.0" x2="725.0" y2="0.0" stroke="#202020"/><line x1="745.0" y1="240.0" x2="745.0" y2="0.0" stroke="#202020"/><line x1="765.0" y1="240.0" x2="765.0" y2="0.0" stroke="#202020"/><line x1="785.0" y1="240.0" x2="785.0" y2="0.0" stroke="#202020"/></g><g class="ylines"><line x1="5.0" y1="220.0" x2="805.0" y2="220.0" stroke="#202020"/><line x1="5.0" y1="200.0" x2="805.0" y2="200.0" stroke="#202020"/><line x1="5.0" y1="180.0" x2="805.0" y2="180.0" stroke="#202020"/><line x1="5.0" y1="160.00000000000003" x2="805.0" y2="160.00000000000003" stroke="#202020"/><line x1="5.0" y1="139.99999999999997" x2="805.0" y2="139.99999999999997" stroke="#202020"/><line x1="5.0" y1="120.0" x2="805.0" y2="120.0" stroke="#202020"/><line x1="5.0" y1="99.99999999999999" x2="805.0" y2="99.99999999999999" stroke="#202020"/><line x1="5.0" y1="80.00000000000001" x2="805.0" y2="80.00000000000001" stroke="#202020"/><line x1="5.0" y1="60.0" x2="805.0" y2="60.0" stroke="#202020"/><line x1="5.0" y1="39.99999999999999" x2="805.0" y2="39.99999999999999" stroke="#202020"/><line x1="5.0" y1="20.000000000000007" x2="805.0" y2="20.000000000000007" stroke="#202020"/></g><g class="ease"><path d="M5,240L8.200,239.996L11.400,239.985L14.600,239.965L17.800,239.939L21,239.904L24.200,239.862L27.400,239.812L30.600,239.754L33.800,239.689L37,239.616L40.200,239.535L43.400,239.447L46.600,239.351L49.800,239.247L53,239.136L56.200,239.017L59.400,238.890L62.600,238.756L65.800,238.614L69,238.464L72.200,238.307L75.400,238.141L78.600,237.969L81.800,237.788L85,237.600L88.200,237.404L91.400,237.201L94.600,236.989L97.800,236.771L101,236.544L104.200,236.310L107.400,236.068L110.600,235.818L113.800,235.561L117,235.296L120.200,235.023L123.400,234.743L126.600,234.455L129.800,234.159L133,233.856L136.200,233.545L139.400,233.226L142.600,232.900L145.800,232.566L149,232.224L152.200,231.875L155.400,231.517L158.600,231.153L161.800,230.780L165,230.400L168.200,230.012L171.400,229.617L174.600,229.213L177.800,228.803L181,228.384L184.200,227.958L187.400,227.524L190.600,227.082L193.800,226.633L197,226.176L200.200,225.711L203.400,225.239L206.600,224.759L209.800,224.271L213,223.776L216.200,223.273L219.400,222.762L222.600,222.244L225.800,221.718L229,221.184L232.200,220.643L235.400,220.093L238.600,219.537L241.800,218.972L245,218.400L248.200,217.820L251.400,217.233L254.600,216.637L257.800,216.035L261,215.424L264.200,214.806L267.400,214.180L270.600,213.546L273.800,212.905L277,212.256L280.200,211.599L283.400,210.935L286.600,210.263L289.800,209.583L293,208.896L296.200,208.201L299.400,207.498L302.600,206.788L305.800,206.070L309,205.344L312.200,204.611L315.400,203.869L318.600,203.121L321.800,202.364L325,201.600L328.200,200.828L331.400,200.049L334.600,199.261L337.800,198.467L341,197.664L344.200,196.854L347.400,196.036L350.600,195.210L353.800,194.377L357,193.536L360.200,192.687L363.400,191.831L366.600,190.967L369.800,190.095L373,189.216L376.200,188.329L379.400,187.434L382.600,186.532L385.800,185.622L389,184.704L392.200,183.779L395.400,182.845L398.600,181.905L401.800,180.956L405,180L408.200,179.036L411.400,178.065L414.600,177.085L417.800,176.099L421,175.104L424.200,174.102L427.400,173.092L430.600,172.074L433.800,171.049L437,170.016L440.200,168.975L443.400,167.927L446.600,166.871L449.800,165.807L453,164.736L456.200,163.657L459.400,162.570L462.600,161.476L465.800,160.374L469,159.264L472.200,158.147L475.400,157.021L478.600,155.889L481.800,154.748L485,153.600L488.200,152.444L491.400,151.281L494.600,150.109L497.800,148.931L501,147.744L504.200,146.550L507.400,145.348L510.600,144.138L513.800,142.921L517,141.696L520.200,140.463L523.400,139.223L526.600,137.975L529.800,136.719L533,135.456L536.200,134.185L539.400,132.906L542.600,131.620L545.800,130.326L549,129.024L552.200,127.715L555.400,126.397L558.600,125.073L561.800,123.740L565,122.400L568.200,121.052L571.400,119.697L574.600,118.333L577.800,116.963L581,115.584L584.200,114.198L587.400,112.804L590.600,111.402L593.800,109.993L597,108.576L600.200,107.151L603.400,105.719L606.600,104.279L609.800,102.831L613,101.376L616.200,99.913L619.400,98.442L622.600,96.964L625.800,95.478L629,93.984L632.200,92.483L635.400,90.973L638.600,89.457L641.800,87.932L645,86.400L648.200,84.860L651.400,83.313L654.600,81.757L657.800,80.195L661,78.624L664.200,77.046L667.400,75.460L670.600,73.866L673.800,72.265L677,70.656L680.200,69.039L683.400,67.415L686.600,65.783L689.800,64.143L693,62.496L696.200,60.841L699.400,59.178L702.600,57.508L705.800,55.830L709,54.144L712.200,52.451L715.400,50.749L718.600,49.041L721.800,47.324L725,45.600L728.200,43.868L731.400,42.129L734.600,40.381L737.800,38.627L741,36.864L744.200,35.094L747.400,33.316L750.600,31.530L753.800,29.737L757,27.936L760.200,26.127L763.400,24.311L766.600,22.487L769.800,20.655L773,18.816L776.200,16.969L779.400,15.114L782.600,13.252L785.800,11.382L789,9.504L792.200,7.619L795.400,5.725L798.600,3.825L801.800,1.916L805,0" stroke="white" fill="none"/></g></svg>