<svg xmlns="http://www.w3.org/2000/svg" width="500" height="500" viewBox="-250.0 -250.0 500 500" style="max-width: 100% height: auto;"><g><path fill="#f6d746" d="M0.600,-248.999A249,249,0,0,1,95.205,-230.081L63.862,-154.848A167.500,167.500,0,0,0,0.600,-167.499Z"><title>&lt;5: 19912018</title></path><path fill="#fac026" d="M96.313,-229.619A249,249,0,0,1,178.389,-173.719L119.864,-117A167.500,167.500,0,0,0,64.970,-154.386Z"><title>5-9: 20501982</title></path><path fill="#fca80d" d="M179.225,-172.857A249,249,0,0,1,232.834,-88.257L156.556,-59.554A167.500,167.500,0,0,0,120.699,-116.138Z"><title>10-14: 20679786</title></path><path fill="#fa9207" d="M233.257,-87.134A249,249,0,0,1,248.541,15.113L167.203,9.970A167.500,167.500,0,0,0,156.978,-58.430Z"><title>15-19: 21354481</title></path><path fill="#f57d15" d="M248.465,16.311A249,249,0,0,1,217.519,121.188L146.418,81.351A167.500,167.500,0,0,0,167.127,11.168Z"><title>20-24: 22604232</title></path><path fill="#ed6925" d="M216.932,122.236A249,249,0,0,1,147.238,200.803L99.204,134.962A167.500,167.500,0,0,0,145.832,82.398Z"><title>25-29: 21698010</title></path><path fill="#e25734" d="M146.269,201.510A249,249,0,0,1,52.635,243.373L35.599,163.673A167.500,167.500,0,0,0,98.235,135.670Z"><title>30-34: 21183639</title></path><path fill="#d44842" d="M51.461,243.624A249,249,0,0,1,-44.738,244.948L-29.901,164.809A167.500,167.500,0,0,0,34.425,163.924Z"><title>35-39: 19855782</title></path><path fill="#c43c4e" d="M-45.918,244.730A249,249,0,0,1,-139.102,206.523L-93.409,139.036A167.500,167.500,0,0,0,-31.082,164.591Z"><title>40-44: 20796128</title></path><path fill="#b1325a" d="M-140.096,205.850A249,249,0,0,1,-211.667,131.142L-142.283,88.385A167.500,167.500,0,0,0,-94.403,138.363Z"><title>45-49: 21370368</title></path><path fill="#9f2a63" d="M-212.296,130.120A249,249,0,0,1,-247.532,27.001L-166.491,18.359A167.500,167.500,0,0,0,-142.912,87.363Z"><title>50-54: 22525490</title></path><path fill="#8c2369" d="M-247.659,25.807A249,249,0,0,1,-237.321,-75.363L-159.703,-50.508A167.500,167.500,0,0,0,-166.618,17.165Z"><title>55-59: 21001947</title></path><path fill="#781c6d" d="M-236.955,-76.506A249,249,0,0,1,-194.728,-155.184L-131.114,-104.237A167.500,167.500,0,0,0,-159.337,-51.652Z"><title>60-64: 18415681</title></path><path fill="#65156e" d="M-193.977,-156.121A249,249,0,0,1,-142.329,-204.312L-95.904,-137.327A167.500,167.500,0,0,0,-130.363,-105.174Z"><title>65-69: 14547446</title></path><path fill="#520e6d" d="M-141.342,-204.996A249,249,0,0,1,-96.204,-229.664L-64.897,-154.417A167.500,167.500,0,0,0,-94.918,-138.010Z"><title>70-74: 10587721</title></path><path fill="#3e0966" d="M-95.096,-230.125A249,249,0,0,1,-59.428,-241.804L-40.167,-162.613A167.500,167.500,0,0,0,-63.789,-154.878Z"><title>75-79: 7730129</title></path><path fill="#290b55" d="M-58.261,-242.088A249,249,0,0,1,-30.538,-247.120L-20.737,-166.211A167.500,167.500,0,0,0,-39.001,-162.896Z"><title>80-84: 5811429</title></path><path fill="#160b39" d="M-29.346,-247.265A249,249,0,0,1,-0.600,-248.999L-0.600,-167.499A167.500,167.500,0,0,0,-19.546,-166.356Z"><title>&#8805;85: 5938752</title></path></g><g font-family="sans-serif" font-size="12" text-anchor="middle"><g fill="white" transform="translate(40.83666061475977, -204.2068305660585)"><text><tspan y="-0.4em" font-weight="bold">&lt;5</tspan><tspan x="0" y="0.7em" fill-opacity="0.7">19912018</tspan></text></g><g fill="white" transform="translate(117.22711740614143, -172.12165884817267)"><text><tspan y="-0.4em" font-weight="bold">5-9</tspan><tspan x="0" y="0.7em" fill-opacity="0.7">20501982</tspan></text></g><g fill="white" transform="translate(175.90577232005273, -111.46847879327038)"><text><tspan y="-0.4em" font-weight="bold">10-14</tspan><tspan x="0" y="0.7em" fill-opacity="0.7">20679786</tspan></text></g><g fill="white" transform="translate(205.96154901282293, -30.788030600194915)"><text><tspan y="-0.4em" font-weight="bold">15-19</tspan><tspan x="0" y="0.7em" fill-opacity="0.7">21354481</tspan></text></g><g fill="white" transform="translate(199.73616641201087, 58.9366297563196)"><text><tspan y="-0.4em" font-weight="bold">20-24</tspan><tspan x="0" y="0.7em" fill-opacity="0.7">22604232</tspan></text></g><g fill="white" transform="translate(155.78988342337928, 138.19397498780432)"><text><tspan y="-0.4em" font-weight="bold">25-29</tspan><tspan x="0" y="0.7em" fill-opacity="0.7">21698010</tspan></text></g><g fill="white" transform="translate(84.99835849395268, 190.11402250579388)"><text><tspan y="-0.4em" font-weight="bold">30-34</tspan><tspan x="0" y="0.7em" fill-opacity="0.7">21183639</tspan></text></g><g fill="white" transform="translate(2.865554710118158, 208.23028381146514)"><text><tspan y="-0.4em" font-weight="bold">35-39</tspan><tspan x="0" y="0.7em" fill-opacity="0.7">19855782</tspan></text></g><g fill="white" transform="translate(-79.0026206979113, 192.68276628401918)"><text><tspan y="-0.4em" font-weight="bold">40-44</tspan><tspan x="0" y="0.7em" fill-opacity="0.7">20796128</tspan></text></g><g fill="white" transform="translate(-150.37828482428426, 144.06399256339677)"><text><tspan y="-0.4em" font-weight="bold">45-49</tspan><tspan x="0" y="0.7em" fill-opacity="0.7">21370368</tspan></text></g><g fill="white" transform="translate(-197.06335693697326, 67.33569523463073)"><text><tspan y="-0.4em" font-weight="bold">50-54</tspan><tspan x="0" y="0.7em" fill-opacity="0.7">22525490</tspan></text></g><g fill="white" transform="translate(-207.17130296949665, -21.168696840406497)"><text><tspan y="-0.4em" font-weight="bold">55-59</tspan><tspan x="0" y="0.7em" fill-opacity="0.7">21001947</tspan></text></g><g fill="white" transform="translate(-183.49180678265785, -98.48258396100175)"><text><tspan y="-0.4em" font-weight="bold">60-64</tspan><tspan x="0" y="0.7em" fill-opacity="0.7">18415681</tspan></text></g><g fill="white" transform="translate(-142.07040599752452, -152.26313486756584)"><text><tspan y="-0.4em" font-weight="bold">65-69</tspan><tspan x="0" y="0.7em" fill-opacity="0.7">14547446</tspan></text></g><g fill="white" transform="translate(-99.86962042580035, -182.74058502699)"><text><tspan y="-0.4em" font-weight="bold">70-74</tspan></text></g><g fill="white" transform="translate(-64.80203716669338, -197.9109862515128)"><text><tspan y="-0.4em" font-weight="bold">75-79</tspan></text></g><g fill="white" transform="translate(-37.19293240740586, -204.90180155122633)"><text><tspan y="-0.4em" font-weight="bold">80-84</tspan></text></g><g fill="white" transform="translate(-12.543639611831967, -207.87188267124654)"><text><tspan y="-0.4em" font-weight="bold">&#8805;85</tspan></text></g></g></svg>