<svg xmlns="http://www.w3.org/2000/svg" width="810" height="240.0" viewBox="0 0 810 240.0"><rect x="5" y="0" width="800" height="240.0" fill="#2b2b2e"/><g class="xlines"><line x1="25.0" y1="240.0" x2="25.0" y2="0.0" stroke="#202020"/><line x1="45.0" y1="240.0" x2="45.0" y2="0.0" stroke="#202020"/><line x1="65.0" y1="240.0" x2="65.0" y2="0.0" stroke="#202020"/><line x1="85.0" y1="240.0" x2="85.0" y2="0.0" stroke="#202020"/><line x1="105.0" y1="240.0" x2="105.0" y2="0.0" stroke="#202020"/><line x1="125.0" y1="240.0" x2="125.0" y2="0.0" stroke="#202020"/><line x1="145.0" y1="240.0" x2="145.0" y2="0.0" stroke="#202020"/><line x1="165.0" y1="240.0" x2="165.0" y2="0.0" stroke="#202020"/><line x1="185.0" y1="240.0" x2="185.0" y2="0.0" stroke="#202020"/><line x1="205.0" y1="240.0" x2="205.0" y2="0.0" stroke="#202020"/><line x1="225.00000000000003" y1="240.0" x2="225.00000000000003" y2="0.0" stroke="#202020"/><line x1="245.0" y1="240.0" x2="245.0" y2="0.0" stroke="#202020"/><line x1="265.0" y1="240.0" x2="265.0" y2="0.0" stroke="#202020"/><line x1="285.0" y1="240.0" x2="285.0" y2="0.0" stroke="#202020"/><line x1="305.0" y1="240.0" x2="305.0" y2="0.0" stroke="#202020"/><line x1="325.0" y1="240.0" x2="325.0" y2="0.0" stroke="#202020"/><line x1="345.0" y1="240.0" x2="345.0" y2="0.0" stroke="#202020"/><line x1="365.0" y1="240.0" x2="365.0" y2="0.0" stroke="#202020"/><line x1="385.0" y1="240.0" x2="385.0" y2="0.0" stroke="#202020"/><line x1="405.0" y1="240.0" x2="405.0" y2="0.0" stroke="#202020"/><line x1="425.0" y1="240.0" x2="425.0" y2="0.0" stroke="#202020"/><line x1="445.00000000000006" y1="240.0" x2="445.00000000000006" y2="0.0" stroke="#202020"/><line x1="464.99999999999994" y1="240.0" x2="464.99999999999994" y2="0.0" stroke="#202020"/><line x1="485.0" y1="240.0" x2="485.0" y2="0.0" stroke="#202020"/><line x1="505.0" y1="240.0" x2="505.0" y2="0.0" stroke="#202020"/><line x1="525.0" y1="240.0" x2="525.0" y2="0.0" stroke="#202020"/><line x1="545.0" y1="240.0" x2="545.0" y2="0.0" stroke="#202020"/><line x1="565.0" y1="240.0" x2="565.0" y2="0.0" stroke="#202020"/><line x1="585.0" y1="240.0" x2="585.0" y2="0.0" stroke="#202020"/><line x1="605.0" y1="240.0" x2="605.0" y2="0.0" stroke="#202020"/><line x1="625.0" y1="240.0" x2="625.0" y2="0.0" stroke="#202020"/><line x1="645.0" y1="240.0" x2="645.0" y2="0.0" stroke="#202020"/><line x1="665.0" y1="240.0" x2="665.0" y2="0.0" stroke="#202020"/><line x1="685.0" y1="240.0" x2="685.0" y2="0.0" stroke="#202020"/><line x1="705.0" y1="240.0" x2="705.0" y2="0.0" stroke="#202020"/><line x1="725.0" y1="240.0" x2="725.0" y2="0.0" stroke="#202020"/><line x1="745.0" y1="240.0" x2="745.0" y2="0.0" stroke="#202020"/><line x1="765.0" y1="240.0" x2="765.0" y2="0.0" stroke="#202020"/><line x1="785.0" y1="240.0" x2="785.0" y2="0.0" stroke="#202020"/></g><g class="ylines"><line x1="5.0" y1="220.0" x2="805.0" y2="220.0" stroke="#202020"/><line x1="5.0" y1="200.0" x2="805.0" y2="200.0" stroke="#202020"/><line x1="5.0" y1="180.0" x2="805.0" y2="180.0" stroke="#202020"/><line x1="5.0" y1="160.00000000000003" x2="805.0" y2="160.00000000000003" stroke="#202020"/><line x1="5.0" y1="139.99999999999997" x2="805.0" y2="139.99999999999997" stroke="#202020"/><line x1="5.0" y1="120.0" x2="805.0" y2="120.0" stroke="#202020"/><line x1="5.0" y1="99.99999999999999" x2="805.0" y2="99.99999999999999" stroke="#202020"/><line x1="5.0" y1="80.00000000000001" x2="805.0" y2="80.00000000000001" stroke="#202020"/><line x1="5.0" y1="60.0" x2="805.0" y2="60.0" stroke="#202020"/><line x1="5.0" y1="39.99999999999999" x2="805.0" y2="39.99999999999999" stroke="#202020"/><line x1="5.0" y1="20.000000000000007" x2="805.0" y2="20.000000000000007" stroke="#202020"/></g><g class="ease"><path d="M5,240L8.200,240L11.400,240L14.600,239.998L17.800,239.996L21,239.992L24.200,239.987L27.400,239.979L30.600,239.969L33.800,239.955L37,239.939L40.200,239.918L43.400,239.894L46.600,239.865L49.800,239.831L53,239.793L56.200,239.748L59.400,239.698L62.600,239.642L65.800,239.579L69,239.508L72.200,239.431L75.400,239.346L78.600,239.252L81.800,239.151L85,239.040L88.200,238.920L91.400,238.791L94.600,238.651L97.800,238.502L101,238.341L104.200,238.170L107.400,237.987L110.600,237.792L113.800,237.585L117,237.366L120.200,237.133L123.400,236.888L126.600,236.629L129.800,236.355L133,236.068L136.200,235.765L139.400,235.448L142.600,235.115L145.800,234.766L149,234.401L152.200,234.020L155.400,233.621L158.600,233.205L161.800,232.772L165,232.320L168.200,231.850L171.400,231.361L174.600,230.853L177.800,230.325L181,229.778L184.200,229.210L187.400,228.622L190.600,228.012L193.800,227.382L197,226.729L200.200,226.054L203.400,225.357L206.600,224.637L209.800,223.894L213,223.127L216.200,222.336L219.400,221.521L222.600,220.681L225.800,219.816L229,218.926L232.200,218.010L235.400,217.068L238.600,216.099L241.800,215.103L245,214.080L248.200,213.029L251.400,211.951L254.600,210.844L257.800,209.708L261,208.543L264.200,207.348L267.400,206.124L270.600,204.869L273.800,203.584L277,202.268L280.200,200.921L283.400,199.542L286.600,198.130L289.800,196.687L293,195.210L296.200,193.701L299.400,192.157L302.600,190.580L305.800,188.969L309,187.323L312.200,185.642L315.400,183.925L318.600,182.173L321.800,180.385L325,178.560L328.200,176.698L331.400,174.799L334.600,172.863L337.800,170.888L341,168.876L344.200,166.824L347.400,164.733L350.600,162.603L353.800,160.433L357,158.223L360.200,155.973L363.400,153.681L366.600,151.348L369.800,148.974L373,146.557L376.200,144.099L379.400,141.597L382.600,139.052L385.800,136.464L389,133.832L392.200,131.155L395.400,128.434L398.600,125.668L401.800,122.857L405,120L408.200,117.143L411.400,114.332L414.600,111.566L417.800,108.845L421,106.168L424.200,103.536L427.400,100.948L430.600,98.403L433.800,95.901L437,93.443L440.200,91.026L443.400,88.652L446.600,86.319L449.800,84.027L453,81.777L456.200,79.567L459.400,77.397L462.600,75.267L465.800,73.176L469,71.124L472.200,69.112L475.400,67.137L478.600,65.201L481.800,63.302L485,61.440L488.200,59.615L491.400,57.827L494.600,56.075L497.800,54.358L501,52.677L504.200,51.031L507.400,49.420L510.600,47.843L513.800,46.299L517,44.790L520.200,43.313L523.400,41.870L526.600,40.458L529.800,39.079L533,37.732L536.200,36.416L539.400,35.131L542.600,33.876L545.800,32.652L549,31.457L552.200,30.292L555.400,29.156L558.600,28.049L561.800,26.971L565,25.920L568.200,24.897L571.400,23.901L574.600,22.932L577.800,21.990L581,21.074L584.200,20.184L587.400,19.319L590.600,18.479L593.800,17.664L597,16.873L600.200,16.106L603.400,15.363L606.600,14.643L609.800,13.946L613,13.271L616.200,12.618L619.400,11.988L622.600,11.378L625.800,10.790L629,10.222L632.200,9.675L635.400,9.147L638.600,8.639L641.800,8.150L645,7.680L648.200,7.228L651.400,6.795L654.600,6.379L657.800,5.980L661,5.599L664.200,5.234L667.400,4.885L670.600,4.552L673.800,4.235L677,3.932L680.200,3.645L683.400,3.371L686.600,3.112L689.800,2.867L693,2.634L696.200,2.415L699.400,2.208L702.600,2.013L705.800,1.830L709,1.659L712.200,1.498L715.400,1.349L718.600,1.209L721.800,1.080L725,0.960L728.200,0.849L731.400,0.748L734.600,0.654L737.800,0.569L741,0.492L744.200,0.421L747.400,0.358L750.600,0.302L753.800,0.252L757,0.207L760.200,0.169L763.400,0.135L766.600,0.106L769.800,0.082L773,0.061L776.200,0.045L779.400,0.031L782.600,0.021L785.800,0.013L789,0.008L792.200,0.004L795.400,0.002L798.600,0L801.800,0L805,0" stroke="white" fill="none"/></g></svg>