<svg xmlns="http://www.w3.org/2000/svg" width="628" height="200" view_box="0 0 628 200" style="max-width:100%;height:auto;"><g transform="translate(0, 180)" fill="none" font-size="10" font-family="sans-serif" text-anchor="middle"><g class="tick" opacity="1" transform="translate(65.17948336408547, 0)"><line stroke="white" y2="6"/><text fill="white" y="9" dy="0.71em" stroke="none">1975</text></g><g class="tick" opacity="1" transform="translate(126.9119992857568, 0)"><line stroke="white" y2="6"/><text fill="white" y="9" dy="0.71em" stroke="none">1980</text></g><g class="tick" opacity="1" transform="translate(188.6783227188858, 0)"><line stroke="white" y2="6"/><text fill="white" y="9" dy="0.71em" stroke="none">1985</text></g><g class="tick" opacity="1" transform="translate(250.41083864055713, 0)"><line stroke="white" y2="6"/><text fill="white" y="9" dy="0.71em" stroke="none">1990</text></g><g class="tick" opacity="1" transform="translate(312.1433545622284, 0)"><line stroke="white" y2="6"/><text fill="white" y="9" dy="0.71em" stroke="none">1995</text></g><g class="tick" opacity="1" transform="translate(373.87587048389975, 0)"><line stroke="white" y2="6"/><text fill="white" y="9" dy="0.71em" stroke="none">2000</text></g><g class="tick" opacity="1" transform="translate(435.6421939170287, 0)"><line stroke="white" y2="6"/><text fill="white" y="9" dy="0.71em" stroke="none">2005</text></g><g class="tick" opacity="1" transform="translate(497.3747098387001, 0)"><line stroke="white" y2="6"/><text fill="white" y="9" dy="0.71em" stroke="none">2010</text></g><g class="tick" opacity="1" transform="translate(559.1072257603714, 0)"><line stroke="white" y2="6"/><text fill="white" y="9" dy="0.71em" stroke="none">2015</text></g></g><g transform="translate(40,0)" fill="none" font-size="10" font-family="sans-serif" text-anchor="end"><g class="tick" opacity="1" transform="translate(0, 180.5)"><line stroke="white" x2="568" stroke-opacity="0.2"/><line stroke="white" x2="-6"/><text fill="white" x="-9" dy="0.32em" stroke="none">0</text></g><g class="tick" opacity="1" transform="translate(0, 144.5)"><line stroke="white" x2="568" stroke-opacity="0.2"/><line stroke="white" x2="-6"/><text fill="white" x="-9" dy="0.32em" stroke="none">5</text></g><g class="tick" opacity="1" transform="translate(0, 109.5)"><line stroke="white" x2="568" stroke-opacity="0.2"/><line stroke="white" x2="-6"/><text fill="white" x="-9" dy="0.32em" stroke="none">10</text></g><g class="tick" opacity="1" transform="translate(0, 73.5)"><line stroke="white" x2="568" stroke-opacity="0.2"/><line stroke="white" x2="-6"/><text fill="white" x="-9" dy="0.32em" stroke="none">15</text></g><g class="tick" opacity="1" transform="translate(0, 37.5)"><line stroke="white" x2="568" stroke-opacity="0.2"/><line stroke="white" x2="-6"/><text fill="white" x="-9" dy="0.32em" stroke="none">20</text></g><text x="-40" y="10" fill="white" text-anchor="start" stroke="none">&#8593; Annual revenue (billions)</text></g><g><path fill="#59a14f" d="M40,105L52.340,106L64.679,106L77.019,100L89.393,82L101.733,71L114.072,96L126.412,104L138.786,105L151.125,117L163.465,115L175.805,109L188.178,111L200.518,106L212.858,94L225.198,87L237.571,89L249.911,82L262.251,81L274.590,70L286.964,61L299.304,39L311.643,40L323.983,42L336.357,49L348.696,36L361.036,27L373.376,33L385.749,43L398.089,55L410.429,67L422.769,69L435.142,81L447.482,95L459.822,114L472.161,133L484.535,143L496.875,151L509.214,154L521.554,159L533.928,162L546.267,164L558.607,166L570.947,169L583.321,169L595.660,172L608,172L608,172L595.660,172L583.321,169L570.947,169L558.607,166L546.267,164L533.928,162L521.554,159L509.214,154L496.875,151L484.535,143L472.161,133L459.822,114L447.482,95L435.142,81L422.769,69L410.429,67L398.089,55L385.749,43L373.376,33L361.036,27L348.696,36L336.357,49L323.983,42L311.643,40L299.304,39L286.964,61L274.590,70L262.251,81L249.911,82L237.571,89L225.198,87L212.858,94L200.518,106L188.178,111L175.805,109L163.465,115L151.125,117L138.786,112L126.412,116L114.072,114L101.733,98L89.393,106L77.019,122L64.679,126L52.340,126L40,126Z"><title>8 - Track</title></path><path fill="#4e79a7" d="M40,180L52.340,180L64.679,180L77.019,180L89.393,180L101.733,180L114.072,180L126.412,180L138.786,180L151.125,180L163.465,180L175.805,178L188.178,173L200.518,164L212.858,154L225.198,148L237.571,142L249.911,132L262.251,122L274.590,111L286.964,98L299.304,76L311.643,68L323.983,64L336.357,67L348.696,52L361.036,39L373.376,40L385.749,47L398.089,58L410.429,68L422.769,69L435.142,82L447.482,95L459.822,114L472.161,134L484.535,143L496.875,152L509.214,155L521.554,160L533.928,163L546.267,166L558.607,169L570.947,171L583.321,172L595.660,175L608,176L608,180L595.660,180L583.321,180L570.947,180L558.607,180L546.267,180L533.928,180L521.554,180L509.214,180L496.875,180L484.535,180L472.161,180L459.822,180L447.482,180L435.142,180L422.769,180L410.429,180L398.089,180L385.749,180L373.376,180L361.036,180L348.696,180L336.357,180L323.983,180L311.643,180L299.304,180L286.964,180L274.590,180L262.251,180L249.911,180L237.571,180L225.198,180L212.858,180L200.518,180L188.178,180L175.805,180L163.465,180L151.125,180L138.786,180L126.412,180L114.072,180L101.733,180L89.393,180L77.019,180L64.679,180L52.340,180L40,180Z"><title>CD</title></path><path fill="#4e79a7" d="M40,98L52.340,99L64.679,99L77.019,92L89.393,74L101.733,64L114.072,87L126.412,98L138.786,100L151.125,111L163.465,111L175.805,104L188.178,106L200.518,103L212.858,90L225.198,83L237.571,83L249.911,75L262.251,75L274.590,62L286.964,53L299.304,31L311.643,32L323.983,34L336.357,41L348.696,26L361.036,20L373.376,28L385.749,38L398.089,52L410.429,63L422.769,61L435.142,65L447.482,74L459.822,86L472.161,106L484.535,114L496.875,122L509.214,122L521.554,124L533.928,125L546.267,128L558.607,128L570.947,123L583.321,117L595.660,110L608,103L608,103L595.660,110L583.321,117L570.947,123L558.607,128L546.267,128L533.928,125L521.554,124L509.214,122L496.875,122L484.535,114L472.161,106L459.822,87L447.482,74L435.142,65L422.769,61L410.429,63L398.089,52L385.749,39L373.376,29L361.036,22L348.696,29L336.357,44L323.983,36L311.643,34L299.304,32L286.964,54L274.590,63L262.251,75L249.911,75L237.571,83L225.198,84L212.858,90L200.518,103L188.178,106L175.805,104L163.465,111L151.125,111L138.786,100L126.412,98L114.072,87L101.733,64L89.393,74L77.019,92L64.679,99L52.340,99L40,98Z"><title>CD Single</title></path><path fill="#59a14f" d="M40,177L52.340,177L64.679,177L77.019,175L89.393,172L101.733,167L114.072,165L126.412,164L138.786,159L151.125,154L163.465,146L175.805,136L188.178,132L200.518,123L212.858,107L225.198,95L237.571,93L249.911,83L262.251,81L274.590,70L286.964,61L299.304,39L311.643,40L323.983,42L336.357,50L348.696,36L361.036,28L373.376,33L385.749,43L398.089,56L410.429,67L422.769,69L435.142,81L447.482,95L459.822,114L472.161,134L484.535,143L496.875,152L509.214,155L521.554,160L533.928,163L546.267,166L558.607,169L570.947,171L583.321,172L595.660,175L608,176L608,176L595.660,175L583.321,172L570.947,171L558.607,169L546.267,166L533.928,163L521.554,160L509.214,155L496.875,152L484.535,143L472.161,134L459.822,114L447.482,95L435.142,82L422.769,69L410.429,68L398.089,58L385.749,47L373.376,40L361.036,39L348.696,52L336.357,67L323.983,64L311.643,68L299.304,76L286.964,98L274.590,111L262.251,122L249.911,132L237.571,142L225.198,148L212.858,154L200.518,164L188.178,173L175.805,178L163.465,180L151.125,180L138.786,180L126.412,180L114.072,180L101.733,180L89.393,180L77.019,180L64.679,180L52.340,180L40,180Z"><title>Cassette</title></path><path fill="#59a14f" d="M40,98L52.340,99L64.679,99L77.019,92L89.393,74L101.733,64L114.072,87L126.412,98L138.786,100L151.125,111L163.465,111L175.805,104L188.178,106L200.518,103L212.858,90L225.198,84L237.571,83L249.911,75L262.251,75L274.590,63L286.964,54L299.304,32L311.643,34L323.983,36L336.357,44L348.696,29L361.036,22L373.376,29L385.749,39L398.089,52L410.429,63L422.769,61L435.142,65L447.482,74L459.822,87L472.161,106L484.535,115L496.875,123L509.214,125L521.554,127L533.928,128L546.267,132L558.607,133L570.947,130L583.321,128L595.660,123L608,117L608,117L595.660,123L583.321,128L570.947,130L558.607,133L546.267,132L533.928,128L521.554,127L509.214,125L496.875,123L484.535,115L472.161,106L459.822,87L447.482,74L435.142,65L422.769,61L410.429,63L398.089,52L385.749,39L373.376,30L361.036,23L348.696,30L336.357,45L323.983,38L311.643,36L299.304,35L286.964,57L274.590,67L262.251,78L249.911,78L237.571,86L225.198,84L212.858,91L200.518,103L188.178,106L175.805,104L163.465,111L151.125,111L138.786,100L126.412,98L114.072,87L101.733,64L89.393,74L77.019,92L64.679,99L52.340,99L40,98Z"><title>Cassette Single</title></path><path fill="#e15759" d="M40,97L52.340,98L64.679,99L77.019,92L89.393,74L101.733,64L114.072,87L126.412,98L138.786,100L151.125,111L163.465,111L175.805,104L188.178,106L200.518,103L212.858,90L225.198,83L237.571,83L249.911,75L262.251,75L274.590,62L286.964,53L299.304,31L311.643,32L323.983,34L336.357,41L348.696,26L361.036,20L373.376,28L385.749,38L398.089,52L410.429,62L422.769,61L435.142,65L447.482,73L459.822,86L472.161,106L484.535,113L496.875,121L509.214,122L521.554,124L533.928,125L546.267,128L558.607,128L570.947,122L583.321,115L595.660,108L608,101L608,101L595.660,109L583.321,115L570.947,122L558.607,128L546.267,128L533.928,125L521.554,124L509.214,122L496.875,121L484.535,113L472.161,106L459.822,86L447.482,73L435.142,65L422.769,61L410.429,62L398.089,52L385.749,38L373.376,28L361.036,20L348.696,26L336.357,41L323.983,34L311.643,32L299.304,31L286.964,53L274.590,62L262.251,75L249.911,75L237.571,83L225.198,83L212.858,90L200.518,103L188.178,106L175.805,104L163.465,111L151.125,111L138.786,100L126.412,98L114.072,87L101.733,64L89.393,74L77.019,92L64.679,99L52.340,98L40,97Z"><title>DVD Audio</title></path><path fill="#f28e2c" d="M40,98L52.340,99L64.679,99L77.019,92L89.393,74L101.733,64L114.072,87L126.412,98L138.786,100L151.125,111L163.465,111L175.805,104L188.178,106L200.518,103L212.858,91L225.198,84L237.571,88L249.911,81L262.251,80L274.590,69L286.964,60L299.304,38L311.643,39L323.983,41L336.357,49L348.696,35L361.036,27L373.376,33L385.749,42L398.089,55L410.429,67L422.769,67L435.142,75L447.482,85L459.822,100L472.161,117L484.535,125L496.875,131L509.214,131L521.554,133L533.928,134L546.267,139L558.607,140L570.947,138L583.321,133L595.660,131L608,124L608,127L595.660,134L583.321,138L570.947,145L558.607,148L546.267,148L533.928,144L521.554,143L509.214,139L496.875,138L484.535,131L472.161,122L459.822,105L447.482,88L435.142,76L422.769,67L410.429,67L398.089,55L385.749,42L373.376,33L361.036,27L348.696,35L336.357,49L323.983,41L311.643,39L299.304,38L286.964,60L274.590,69L262.251,80L249.911,81L237.571,88L225.198,84L212.858,91L200.518,103L188.178,106L175.805,104L163.465,111L151.125,111L138.786,100L126.412,98L114.072,87L101.733,64L89.393,74L77.019,92L64.679,99L52.340,99L40,98Z"><title>Download Album</title></path><path fill="#f28e2c" d="M40,98L52.340,99L64.679,99L77.019,92L89.393,74L101.733,64L114.072,87L126.412,98L138.786,100L151.125,111L163.465,111L175.805,104L188.178,106L200.518,103L212.858,90L225.198,83L237.571,83L249.911,75L262.251,75L274.590,62L286.964,53L299.304,31L311.643,32L323.983,34L336.357,41L348.696,26L361.036,20L373.376,28L385.749,38L398.089,52L410.429,63L422.769,61L435.142,65L447.482,73L459.822,86L472.161,106L484.535,113L496.875,121L509.214,122L521.554,124L533.928,125L546.267,128L558.607,128L570.947,122L583.321,115L595.660,109L608,101L608,101L595.660,109L583.321,115L570.947,123L558.607,128L546.267,128L533.928,125L521.554,124L509.214,122L496.875,122L484.535,114L472.161,106L459.822,86L447.482,74L435.142,65L422.769,61L410.429,63L398.089,52L385.749,38L373.376,28L361.036,20L348.696,26L336.357,41L323.983,34L311.643,32L299.304,31L286.964,53L274.590,62L262.251,75L249.911,75L237.571,83L225.198,83L212.858,90L200.518,103L188.178,106L175.805,104L163.465,111L151.125,111L138.786,100L126.412,98L114.072,87L101.733,64L89.393,74L77.019,92L64.679,99L52.340,99L40,98Z"><title>Download Music Video</title></path><path fill="#f28e2c" d="M40,105L52.340,106L64.679,106L77.019,100L89.393,82L101.733,71L114.072,96L126.412,104L138.786,105L151.125,117L163.465,115L175.805,109L188.178,111L200.518,106L212.858,94L225.198,87L237.571,89L249.911,82L262.251,81L274.590,70L286.964,61L299.304,39L311.643,40L323.983,42L336.357,49L348.696,36L361.036,27L373.376,33L385.749,43L398.089,55L410.429,67L422.769,68L435.142,76L447.482,88L459.822,105L472.161,122L484.535,131L496.875,138L509.214,139L521.554,143L533.928,144L546.267,148L558.607,148L570.947,145L583.321,138L595.660,134L608,127L608,130L595.660,138L583.321,143L570.947,152L558.607,157L546.267,158L533.928,157L521.554,156L509.214,152L496.875,149L484.535,141L472.161,131L459.822,112L447.482,93L435.142,80L422.769,69L410.429,67L398.089,55L385.749,43L373.376,33L361.036,27L348.696,36L336.357,49L323.983,42L311.643,40L299.304,39L286.964,61L274.590,70L262.251,81L249.911,82L237.571,89L225.198,87L212.858,94L200.518,106L188.178,111L175.805,109L163.465,115L151.125,117L138.786,105L126.412,104L114.072,96L101.733,71L89.393,82L77.019,100L64.679,106L52.340,106L40,105Z"><title>Download Single</title></path><path fill="#e15759" d="M40,97L52.340,98L64.679,99L77.019,92L89.393,74L101.733,64L114.072,87L126.412,98L138.786,100L151.125,111L163.465,111L175.805,104L188.178,106L200.518,103L212.858,90L225.198,83L237.571,83L249.911,75L262.251,75L274.590,62L286.964,53L299.304,31L311.643,32L323.983,34L336.357,41L348.696,26L361.036,20L373.376,28L385.749,38L398.089,52L410.429,62L422.769,61L435.142,65L447.482,73L459.822,86L472.161,105L484.535,113L496.875,121L509.214,122L521.554,124L533.928,125L546.267,128L558.607,128L570.947,122L583.321,114L595.660,108L608,101L608,101L595.660,108L583.321,114L570.947,122L558.607,128L546.267,128L533.928,125L521.554,124L509.214,122L496.875,121L484.535,113L472.161,106L459.822,86L447.482,73L435.142,65L422.769,61L410.429,62L398.089,52L385.749,38L373.376,28L361.036,20L348.696,26L336.357,41L323.983,34L311.643,32L299.304,31L286.964,53L274.590,62L262.251,75L249.911,75L237.571,83L225.198,83L212.858,90L200.518,103L188.178,106L175.805,104L163.465,111L151.125,111L138.786,100L126.412,98L114.072,87L101.733,64L89.393,74L77.019,92L64.679,99L52.340,98L40,97Z"><title>Kiosk</title></path><path fill="#edc949" d="M40,126L52.340,126L64.679,126L77.019,122L89.393,106L101.733,98L114.072,114L126.412,116L138.786,112L151.125,117L163.465,115L175.805,109L188.178,111L200.518,106L212.858,94L225.198,87L237.571,89L249.911,82L262.251,81L274.590,70L286.964,61L299.304,39L311.643,40L323.983,42L336.357,49L348.696,36L361.036,27L373.376,33L385.749,43L398.089,55L410.429,67L422.769,69L435.142,81L447.482,95L459.822,114L472.161,133L484.535,143L496.875,151L509.214,154L521.554,159L533.928,162L546.267,164L558.607,166L570.947,169L583.321,169L595.660,172L608,172L608,176L595.660,175L583.321,172L570.947,171L558.607,169L546.267,166L533.928,163L521.554,160L509.214,155L496.875,152L484.535,143L472.161,134L459.822,114L447.482,95L435.142,81L422.769,69L410.429,67L398.089,56L385.749,43L373.376,33L361.036,28L348.696,36L336.357,50L323.983,42L311.643,40L299.304,39L286.964,61L274.590,70L262.251,81L249.911,83L237.571,93L225.198,95L212.858,107L200.518,123L188.178,132L175.805,136L163.465,146L151.125,154L138.786,159L126.412,164L114.072,165L101.733,167L89.393,172L77.019,175L64.679,177L52.340,177L40,177Z"><title>LP/EP</title></path><path fill="#76b7b2" d="M40,98L52.340,99L64.679,99L77.019,92L89.393,74L101.733,64L114.072,87L126.412,98L138.786,100L151.125,111L163.465,111L175.805,104L188.178,106L200.518,103L212.858,90L225.198,84L237.571,83L249.911,75L262.251,75L274.590,63L286.964,54L299.304,32L311.643,34L323.983,36L336.357,44L348.696,29L361.036,22L373.376,29L385.749,39L398.089,52L410.429,63L422.769,61L435.142,65L447.482,74L459.822,87L472.161,106L484.535,114L496.875,122L509.214,122L521.554,124L533.928,125L546.267,128L558.607,128L570.947,123L583.321,117L595.660,110L608,103L608,108L595.660,116L583.321,121L570.947,125L558.607,128L546.267,128L533.928,125L521.554,124L509.214,122L496.875,122L484.535,114L472.161,106L459.822,87L447.482,74L435.142,65L422.769,61L410.429,63L398.089,52L385.749,39L373.376,29L361.036,22L348.696,29L336.357,44L323.983,36L311.643,34L299.304,32L286.964,54L274.590,63L262.251,75L249.911,75L237.571,83L225.198,84L212.858,90L200.518,103L188.178,106L175.805,104L163.465,111L151.125,111L138.786,100L126.412,98L114.072,87L101.733,64L89.393,74L77.019,92L64.679,99L52.340,99L40,98Z"><title>Limited Tier Paid Subscription</title></path><path fill="#e15759" d="M40,98L52.340,99L64.679,99L77.019,92L89.393,74L101.733,64L114.072,87L126.412,98L138.786,100L151.125,111L163.465,111L175.805,104L188.178,106L200.518,103L212.858,91L225.198,84L237.571,86L249.911,78L262.251,78L274.590,67L286.964,57L299.304,35L311.643,36L323.983,38L336.357,45L348.696,30L361.036,23L373.376,30L385.749,39L398.089,52L410.429,63L422.769,61L435.142,69L447.482,81L459.822,96L472.161,115L484.535,123L496.875,129L509.214,129L521.554,132L533.928,134L546.267,139L558.607,139L570.947,138L583.321,133L595.660,131L608,124L608,124L595.660,131L583.321,133L570.947,138L558.607,140L546.267,139L533.928,134L521.554,133L509.214,131L496.875,131L484.535,125L472.161,117L459.822,100L447.482,85L435.142,75L422.769,67L410.429,67L398.089,55L385.749,42L373.376,33L361.036,27L348.696,35L336.357,49L323.983,41L311.643,39L299.304,38L286.964,60L274.590,69L262.251,80L249.911,81L237.571,88L225.198,84L212.858,91L200.518,103L188.178,106L175.805,104L163.465,111L151.125,111L138.786,100L126.412,98L114.072,87L101.733,64L89.393,74L77.019,92L64.679,99L52.340,99L40,98Z"><title>Music Video (Physical)</title></path><path fill="#76b7b2" d="M40,98L52.340,99L64.679,99L77.019,92L89.393,74L101.733,64L114.072,87L126.412,98L138.786,100L151.125,111L163.465,111L175.805,104L188.178,106L200.518,103L212.858,90L225.198,84L237.571,83L249.911,75L262.251,75L274.590,63L286.964,54L299.304,32L311.643,34L323.983,36L336.357,44L348.696,29L361.036,22L373.376,29L385.749,39L398.089,52L410.429,63L422.769,61L435.142,65L447.482,74L459.822,87L472.161,106L484.535,115L496.875,123L509.214,124L521.554,126L533.928,127L546.267,130L558.607,130L570.947,127L583.321,123L595.660,118L608,110L608,117L595.660,123L583.321,128L570.947,130L558.607,133L546.267,132L533.928,128L521.554,127L509.214,125L496.875,123L484.535,115L472.161,106L459.822,87L447.482,74L435.142,65L422.769,61L410.429,63L398.089,52L385.749,39L373.376,29L361.036,22L348.696,29L336.357,44L323.983,36L311.643,34L299.304,32L286.964,54L274.590,63L262.251,75L249.911,75L237.571,83L225.198,84L212.858,90L200.518,103L188.178,106L175.805,104L163.465,111L151.125,111L138.786,100L126.412,98L114.072,87L101.733,64L89.393,74L77.019,92L64.679,99L52.340,99L40,98Z"><title>On-Demand Streaming (Ad-Supported)</title></path><path fill="#76b7b2" d="M40,98L52.340,99L64.679,99L77.019,92L89.393,74L101.733,64L114.072,87L126.412,98L138.786,100L151.125,111L163.465,111L175.805,104L188.178,106L200.518,103L212.858,90L225.198,83L237.571,83L249.911,75L262.251,75L274.590,62L286.964,53L299.304,31L311.643,32L323.983,34L336.357,41L348.696,26L361.036,20L373.376,28L385.749,38L398.089,52L410.429,63L422.769,61L435.142,65L447.482,74L459.822,86L472.161,106L484.535,114L496.875,122L509.214,122L521.554,124L533.928,125L546.267,128L558.607,128L570.947,123L583.321,115L595.660,109L608,101L608,103L595.660,110L583.321,117L570.947,123L558.607,128L546.267,128L533.928,125L521.554,124L509.214,122L496.875,122L484.535,114L472.161,106L459.822,86L447.482,74L435.142,65L422.769,61L410.429,63L398.089,52L385.749,38L373.376,28L361.036,20L348.696,26L336.357,41L323.983,34L311.643,32L299.304,31L286.964,53L274.590,62L262.251,75L249.911,75L237.571,83L225.198,83L212.858,90L200.518,103L188.178,106L175.805,104L163.465,111L151.125,111L138.786,100L126.412,98L114.072,87L101.733,64L89.393,74L77.019,92L64.679,99L52.340,99L40,98Z"><title>Other Ad-Supported Streaming</title></path><path fill="#f28e2c" d="M40,97L52.340,98L64.679,99L77.019,92L89.393,74L101.733,64L114.072,87L126.412,98L138.786,100L151.125,111L163.465,111L175.805,104L188.178,106L200.518,103L212.858,90L225.198,83L237.571,83L249.911,75L262.251,75L274.590,62L286.964,53L299.304,31L311.643,32L323.983,34L336.357,41L348.696,26L361.036,20L373.376,28L385.749,38L398.089,52L410.429,62L422.769,61L435.142,65L447.482,73L459.822,86L472.161,106L484.535,113L496.875,121L509.214,122L521.554,124L533.928,125L546.267,128L558.607,128L570.947,122L583.321,114L595.660,108L608,101L608,101L595.660,108L583.321,115L570.947,122L558.607,128L546.267,128L533.928,125L521.554,124L509.214,122L496.875,121L484.535,113L472.161,106L459.822,86L447.482,73L435.142,65L422.769,61L410.429,62L398.089,52L385.749,38L373.376,28L361.036,20L348.696,26L336.357,41L323.983,34L311.643,32L299.304,31L286.964,53L274.590,62L262.251,75L249.911,75L237.571,83L225.198,83L212.858,90L200.518,103L188.178,106L175.805,104L163.465,111L151.125,111L138.786,100L126.412,98L114.072,87L101.733,64L89.393,74L77.019,92L64.679,99L52.340,98L40,97Z"><title>Other Digital</title></path><path fill="#59a14f" d="M40,97L52.340,98L64.679,99L77.019,92L89.393,74L101.733,64L114.072,87L126.412,98L138.786,100L151.125,111L163.465,111L175.805,104L188.178,106L200.518,103L212.858,90L225.198,83L237.571,83L249.911,75L262.251,75L274.590,62L286.964,53L299.304,31L311.643,32L323.983,34L336.357,41L348.696,26L361.036,20L373.376,28L385.749,38L398.089,52L410.429,63L422.769,61L435.142,65L447.482,73L459.822,86L472.161,106L484.535,113L496.875,121L509.214,122L521.554,124L533.928,125L546.267,128L558.607,128L570.947,122L583.321,115L595.660,109L608,101L608,101L595.660,109L583.321,115L570.947,122L558.607,128L546.267,128L533.928,125L521.554,124L509.214,122L496.875,121L484.535,113L472.161,106L459.822,86L447.482,73L435.142,65L422.769,61L410.429,63L398.089,52L385.749,38L373.376,28L361.036,20L348.696,26L336.357,41L323.983,34L311.643,32L299.304,31L286.964,53L274.590,62L262.251,75L249.911,75L237.571,83L225.198,83L212.858,90L200.518,103L188.178,106L175.805,104L163.465,111L151.125,111L138.786,100L126.412,98L114.072,87L101.733,64L89.393,74L77.019,92L64.679,99L52.340,99L40,98Z"><title>Other Tapes</title></path><path fill="#76b7b2" d="M40,105L52.340,106L64.679,106L77.019,100L89.393,82L101.733,71L114.072,96L126.412,104L138.786,105L151.125,117L163.465,115L175.805,109L188.178,111L200.518,106L212.858,94L225.198,87L237.571,89L249.911,82L262.251,81L274.590,70L286.964,61L299.304,39L311.643,40L323.983,42L336.357,49L348.696,36L361.036,27L373.376,33L385.749,43L398.089,55L410.429,67L422.769,69L435.142,80L447.482,93L459.822,112L472.161,131L484.535,141L496.875,149L509.214,152L521.554,156L533.928,157L546.267,158L558.607,157L570.947,152L583.321,143L595.660,138L608,130L608,172L595.660,172L583.321,169L570.947,169L558.607,166L546.267,164L533.928,162L521.554,159L509.214,154L496.875,151L484.535,143L472.161,133L459.822,114L447.482,95L435.142,81L422.769,69L410.429,67L398.089,55L385.749,43L373.376,33L361.036,27L348.696,36L336.357,49L323.983,42L311.643,40L299.304,39L286.964,61L274.590,70L262.251,81L249.911,82L237.571,89L225.198,87L212.858,94L200.518,106L188.178,111L175.805,109L163.465,115L151.125,117L138.786,105L126.412,104L114.072,96L101.733,71L89.393,82L77.019,100L64.679,106L52.340,106L40,105Z"><title>Paid Subscription</title></path><path fill="#f28e2c" d="M40,98L52.340,99L64.679,99L77.019,92L89.393,74L101.733,64L114.072,87L126.412,98L138.786,100L151.125,111L163.465,111L175.805,104L188.178,106L200.518,103L212.858,91L225.198,84L237.571,86L249.911,78L262.251,78L274.590,67L286.964,57L299.304,35L311.643,36L323.983,38L336.357,45L348.696,30L361.036,23L373.376,30L385.749,39L398.089,52L410.429,63L422.769,61L435.142,65L447.482,74L459.822,87L472.161,106L484.535,115L496.875,123L509.214,125L521.554,127L533.928,128L546.267,132L558.607,133L570.947,130L583.321,128L595.660,123L608,117L608,117L595.660,124L583.321,128L570.947,131L558.607,133L546.267,133L533.928,129L521.554,128L509.214,127L496.875,127L484.535,121L472.161,114L459.822,96L447.482,81L435.142,69L422.769,61L410.429,63L398.089,52L385.749,39L373.376,30L361.036,23L348.696,30L336.357,45L323.983,38L311.643,36L299.304,35L286.964,57L274.590,67L262.251,78L249.911,78L237.571,86L225.198,84L212.858,91L200.518,103L188.178,106L175.805,104L163.465,111L151.125,111L138.786,100L126.412,98L114.072,87L101.733,64L89.393,74L77.019,92L64.679,99L52.340,99L40,98Z"><title>Ringtones &amp; Ringbacks</title></path><path fill="#4e79a7" d="M40,97L52.340,98L64.679,99L77.019,92L89.393,74L101.733,64L114.072,87L126.412,98L138.786,100L151.125,111L163.465,111L175.805,104L188.178,106L200.518,103L212.858,90L225.198,83L237.571,83L249.911,75L262.251,75L274.590,62L286.964,53L299.304,31L311.643,32L323.983,34L336.357,41L348.696,26L361.036,20L373.376,28L385.749,38L398.089,52L410.429,62L422.769,61L435.142,65L447.482,73L459.822,86L472.161,106L484.535,113L496.875,121L509.214,122L521.554,124L533.928,125L546.267,128L558.607,128L570.947,122L583.321,115L595.660,109L608,101L608,101L595.660,109L583.321,115L570.947,122L558.607,128L546.267,128L533.928,125L521.554,124L509.214,122L496.875,121L484.535,113L472.161,106L459.822,86L447.482,73L435.142,65L422.769,61L410.429,63L398.089,52L385.749,38L373.376,28L361.036,20L348.696,26L336.357,41L323.983,34L311.643,32L299.304,31L286.964,53L274.590,62L262.251,75L249.911,75L237.571,83L225.198,83L212.858,90L200.518,103L188.178,106L175.805,104L163.465,111L151.125,111L138.786,100L126.412,98L114.072,87L101.733,64L89.393,74L77.019,92L64.679,99L52.340,98L40,97Z"><title>SACD</title></path><path fill="#76b7b2" d="M40,98L52.340,99L64.679,99L77.019,92L89.393,74L101.733,64L114.072,87L126.412,98L138.786,100L151.125,111L163.465,111L175.805,104L188.178,106L200.518,103L212.858,91L225.198,84L237.571,86L249.911,78L262.251,78L274.590,67L286.964,57L299.304,35L311.643,36L323.983,38L336.357,45L348.696,30L361.036,23L373.376,30L385.749,39L398.089,52L410.429,63L422.769,61L435.142,69L447.482,81L459.822,96L472.161,114L484.535,121L496.875,127L509.214,127L521.554,128L533.928,129L546.267,133L558.607,133L570.947,131L583.321,128L595.660,124L608,117L608,124L595.660,131L583.321,133L570.947,138L558.607,139L546.267,139L533.928,134L521.554,132L509.214,129L496.875,129L484.535,123L472.161,115L459.822,96L447.482,81L435.142,69L422.769,61L410.429,63L398.089,52L385.749,39L373.376,30L361.036,23L348.696,30L336.357,45L323.983,38L311.643,36L299.304,35L286.964,57L274.590,67L262.251,78L249.911,78L237.571,86L225.198,84L212.858,91L200.518,103L188.178,106L175.805,104L163.465,111L151.125,111L138.786,100L126.412,98L114.072,87L101.733,64L89.393,74L77.019,92L64.679,99L52.340,99L40,98Z"><title>SoundExchange Distributions</title></path><path fill="#e15759" d="M40,98L52.340,99L64.679,99L77.019,92L89.393,74L101.733,64L114.072,87L126.412,98L138.786,100L151.125,111L163.465,111L175.805,104L188.178,106L200.518,103L212.858,90L225.198,84L237.571,83L249.911,75L262.251,75L274.590,63L286.964,54L299.304,32L311.643,34L323.983,36L336.357,44L348.696,29L361.036,22L373.376,29L385.749,39L398.089,52L410.429,63L422.769,61L435.142,65L447.482,74L459.822,87L472.161,106L484.535,114L496.875,122L509.214,122L521.554,124L533.928,125L546.267,128L558.607,128L570.947,125L583.321,121L595.660,116L608,108L608,110L595.660,118L583.321,123L570.947,127L558.607,130L546.267,130L533.928,127L521.554,126L509.214,124L496.875,123L484.535,115L472.161,106L459.822,87L447.482,74L435.142,65L422.769,61L410.429,63L398.089,52L385.749,39L373.376,29L361.036,22L348.696,29L336.357,44L323.983,36L311.643,34L299.304,32L286.964,54L274.590,63L262.251,75L249.911,75L237.571,83L225.198,84L212.858,90L200.518,103L188.178,106L175.805,104L163.465,111L151.125,111L138.786,100L126.412,98L114.072,87L101.733,64L89.393,74L77.019,92L64.679,99L52.340,99L40,98Z"><title>Synchronization</title></path><path fill="#edc949" d="M40,98L52.340,99L64.679,99L77.019,92L89.393,74L101.733,64L114.072,87L126.412,98L138.786,100L151.125,111L163.465,111L175.805,104L188.178,106L200.518,103L212.858,91L225.198,84L237.571,88L249.911,81L262.251,80L274.590,69L286.964,60L299.304,38L311.643,39L323.983,41L336.357,49L348.696,35L361.036,27L373.376,33L385.749,42L398.089,55L410.429,67L422.769,67L435.142,76L447.482,88L459.822,105L472.161,122L484.535,131L496.875,138L509.214,139L521.554,143L533.928,144L546.267,148L558.607,148L570.947,145L583.321,138L595.660,134L608,127L608,127L595.660,134L583.321,138L570.947,145L558.607,148L546.267,148L533.928,144L521.554,143L509.214,139L496.875,138L484.535,131L472.161,122L459.822,105L447.482,88L435.142,76L422.769,68L410.429,67L398.089,55L385.749,43L373.376,33L361.036,27L348.696,36L336.357,49L323.983,42L311.643,40L299.304,39L286.964,61L274.590,70L262.251,81L249.911,82L237.571,89L225.198,87L212.858,94L200.518,106L188.178,111L175.805,109L163.465,115L151.125,117L138.786,105L126.412,104L114.072,96L101.733,71L89.393,82L77.019,100L64.679,106L52.340,106L40,105Z"><title>Vinyl Single</title></path></g></svg>