<svg xmlns="http://www.w3.org/2000/svg" width="628" height="200" view_box="0 0 628 200" style="max-width:100%;height:auto;"><g transform="translate(0, 180)" fill="none" font-size="10" font-family="sans-serif" text-anchor="middle"><g class="tick" opacity="1" transform="translate(65.17948336408547, 0)"><line stroke="white" y2="6"/><text fill="white" y="9" dy="0.71em" stroke="none">1975</text></g><g class="tick" opacity="1" transform="translate(126.9119992857568, 0)"><line stroke="white" y2="6"/><text fill="white" y="9" dy="0.71em" stroke="none">1980</text></g><g class="tick" opacity="1" transform="translate(188.6783227188858, 0)"><line stroke="white" y2="6"/><text fill="white" y="9" dy="0.71em" stroke="none">1985</text></g><g class="tick" opacity="1" transform="translate(250.41083864055713, 0)"><line stroke="white" y2="6"/><text fill="white" y="9" dy="0.71em" stroke="none">1990</text></g><g class="tick" opacity="1" transform="translate(312.1433545622284, 0)"><line stroke="white" y2="6"/><text fill="white" y="9" dy="0.71em" stroke="none">1995</text></g><g class="tick" opacity="1" transform="translate(373.87587048389975, 0)"><line stroke="white" y2="6"/><text fill="white" y="9" dy="0.71em" stroke="none">2000</text></g><g class="tick" opacity="1" transform="translate(435.6421939170287, 0)"><line stroke="white" y2="6"/><text fill="white" y="9" dy="0.71em" stroke="none">2005</text></g><g class="tick" opacity="1" transform="translate(497.3747098387001, 0)"><line stroke="white" y2="6"/><text fill="white" y="9" dy="0.71em" stroke="none">2010</text></g><g class="tick" opacity="1" transform="translate(559.1072257603714, 0)"><line stroke="white" y2="6"/><text fill="white" y="9" dy="0.71em" stroke="none">2015</text></g></g><g transform="translate(40,0)" fill="none" font-size="10" font-family="sans-serif" text-anchor="end"><g class="tick" opacity="1" transform="translate(0, 158.5)"><line stroke="white" x2="568" stroke-opacity="0.2"/><line stroke="white" x2="-6"/><text fill="white" x="-9" dy="0.32em" stroke="none">-5</text></g><g class="tick" opacity="1" transform="translate(0, 124.5)"><line stroke="white" x2="568" stroke-opacity="0.2"/><line stroke="white" x2="-6"/><text fill="white" x="-9" dy="0.32em" stroke="none">0</text></g><g class="tick" opacity="1" transform="translate(0, 89.5)"><line stroke="white" x2="568" stroke-opacity="0.2"/><line stroke="white" x2="-6"/><text fill="white" x="-9" dy="0.32em" stroke="none">5</text></g><g class="tick" opacity="1" transform="translate(0, 55.5)"><line stroke="white" x2="568" stroke-opacity="0.2"/><line stroke="white" x2="-6"/><text fill="white" x="-9" dy="0.32em" stroke="none">10</text></g><g class="tick" opacity="1" transform="translate(0, 21.5)"><line stroke="white" x2="568" stroke-opacity="0.2"/><line stroke="white" x2="-6"/><text fill="white" x="-9" dy="0.32em" stroke="none">15</text></g><text x="-40" y="10" fill="white" text-anchor="start" stroke="none">&#8593; Annual revenue (billions)</text></g><g><path fill="#59a14f" d="M40,55L52.340,55L64.679,55L77.019,53L89.393,48L101.733,46L114.072,57L126.412,60L138.786,65L151.125,71L163.465,74L175.805,77L188.178,78L200.518,78L212.858,79L225.198,81L237.571,80L249.911,78L262.251,74L274.590,70L286.964,66L299.304,58L311.643,54L323.983,52L336.357,53L348.696,48L361.036,43L373.376,44L385.749,47L398.089,53L410.429,58L422.769,58L435.142,64L447.482,69L459.822,76L472.161,81L484.535,83L496.875,85L509.214,85L521.554,86L533.928,86L546.267,85L558.607,84L570.947,85L583.321,85L595.660,87L608,88L608,88L595.660,87L583.321,85L570.947,85L558.607,84L546.267,85L533.928,86L521.554,86L509.214,85L496.875,85L484.535,83L472.161,81L459.822,76L447.482,69L435.142,64L422.769,58L410.429,58L398.089,53L385.749,47L373.376,44L361.036,43L348.696,48L336.357,53L323.983,52L311.643,54L299.304,58L286.964,66L274.590,70L262.251,74L249.911,78L237.571,80L225.198,81L212.858,79L200.518,78L188.178,78L175.805,77L163.465,74L151.125,72L138.786,71L126.412,72L114.072,73L101.733,71L89.393,71L77.019,74L64.679,74L52.340,74L40,74Z"><title>8 - Track</title></path><path fill="#4e79a7" d="M40,124L52.340,123L64.679,123L77.019,125L89.393,134L101.733,137L114.072,123L126.412,118L138.786,116L151.125,107L163.465,104L175.805,103L188.178,99L200.518,94L212.858,92L225.198,89L237.571,85L249.911,82L262.251,77L274.590,75L286.964,70L299.304,62L311.643,59L323.983,57L336.357,58L348.696,51L361.036,46L373.376,46L385.749,49L398.089,53L410.429,58L422.769,59L435.142,64L447.482,69L459.822,77L472.161,82L484.535,84L496.875,85L509.214,86L521.554,87L533.928,87L546.267,87L558.607,87L570.947,87L583.321,88L595.660,90L608,92L608,96L595.660,95L583.321,95L570.947,95L558.607,97L546.267,100L533.928,103L521.554,106L509.214,110L496.875,113L484.535,119L472.161,126L459.822,139L447.482,151L435.142,158L422.769,164L410.429,165L398.089,170L385.749,176L373.376,180L361.036,180L348.696,174L336.357,165L323.983,167L311.643,166L299.304,162L286.964,149L274.590,141L262.251,133L249.911,128L237.571,122L225.198,120L212.858,116L200.518,109L188.178,105L175.805,105L163.465,104L151.125,107L138.786,116L126.412,118L114.072,123L101.733,137L89.393,134L77.019,125L64.679,123L52.340,123L40,124Z"><title>CD</title></path><path fill="#4e79a7" d="M40,124L52.340,123L64.679,123L77.019,125L89.393,134L101.733,137L114.072,123L126.412,118L138.786,116L151.125,107L163.465,104L175.805,103L188.178,99L200.518,94L212.858,92L225.198,89L237.571,85L249.911,82L262.251,77L274.590,74L286.964,69L299.304,62L311.643,57L323.983,55L336.357,55L348.696,49L361.036,43L373.376,44L385.749,48L398.089,53L410.429,58L422.769,59L435.142,64L447.482,69L459.822,77L472.161,82L484.535,84L496.875,85L509.214,86L521.554,87L533.928,87L546.267,87L558.607,87L570.947,87L583.321,88L595.660,90L608,92L608,92L595.660,90L583.321,88L570.947,87L558.607,87L546.267,87L533.928,87L521.554,87L509.214,86L496.875,85L484.535,84L472.161,82L459.822,77L447.482,69L435.142,64L422.769,59L410.429,58L398.089,53L385.749,49L373.376,46L361.036,46L348.696,51L336.357,58L323.983,57L311.643,59L299.304,62L286.964,70L274.590,75L262.251,77L249.911,82L237.571,85L225.198,89L212.858,92L200.518,94L188.178,99L175.805,103L163.465,104L151.125,107L138.786,116L126.412,118L114.072,123L101.733,137L89.393,134L77.019,125L64.679,123L52.340,123L40,124Z"><title>CD Single</title></path><path fill="#59a14f" d="M40,44L52.340,45L64.679,45L77.019,41L89.393,34L101.733,27L114.072,34L126.412,40L138.786,39L151.125,41L163.465,38L175.805,32L188.178,34L200.518,35L212.858,31L225.198,28L237.571,31L249.911,30L262.251,34L274.590,31L286.964,30L299.304,23L311.643,27L323.983,31L336.357,36L348.696,32L361.036,31L373.376,37L385.749,44L398.089,51L410.429,57L422.769,58L435.142,64L447.482,69L459.822,76L472.161,81L484.535,83L496.875,85L509.214,85L521.554,86L533.928,86L546.267,85L558.607,84L570.947,85L583.321,85L595.660,87L608,88L608,88L595.660,87L583.321,85L570.947,85L558.607,84L546.267,85L533.928,86L521.554,86L509.214,85L496.875,85L484.535,83L472.161,81L459.822,76L447.482,69L435.142,64L422.769,58L410.429,58L398.089,53L385.749,47L373.376,44L361.036,42L348.696,47L336.357,52L323.983,52L311.643,54L299.304,58L286.964,65L274.590,69L262.251,73L249.911,76L237.571,78L225.198,78L212.858,76L200.518,75L188.178,73L175.805,72L163.465,69L151.125,66L138.786,60L126.412,55L114.072,48L101.733,39L89.393,41L77.019,46L64.679,49L52.340,48L40,47Z"><title>Cassette</title></path><path fill="#59a14f" d="M40,124L52.340,123L64.679,123L77.019,125L89.393,134L101.733,137L114.072,123L126.412,118L138.786,116L151.125,107L163.465,104L175.805,103L188.178,99L200.518,94L212.858,91L225.198,88L237.571,83L249.911,79L262.251,74L274.590,70L286.964,66L299.304,59L311.643,55L323.983,53L336.357,53L348.696,48L361.036,43L373.376,44L385.749,48L398.089,53L410.429,58L422.769,59L435.142,64L447.482,69L459.822,77L472.161,82L484.535,84L496.875,85L509.214,86L521.554,87L533.928,87L546.267,87L558.607,87L570.947,87L583.321,88L595.660,90L608,92L608,92L595.660,90L583.321,88L570.947,87L558.607,87L546.267,87L533.928,87L521.554,87L509.214,86L496.875,85L484.535,84L472.161,82L459.822,77L447.482,69L435.142,64L422.769,59L410.429,58L398.089,53L385.749,48L373.376,44L361.036,43L348.696,49L336.357,55L323.983,55L311.643,57L299.304,62L286.964,69L274.590,74L262.251,77L249.911,82L237.571,85L225.198,89L212.858,92L200.518,94L188.178,99L175.805,103L163.465,104L151.125,107L138.786,116L126.412,118L114.072,123L101.733,137L89.393,134L77.019,125L64.679,123L52.340,123L40,124Z"><title>Cassette Single</title></path><path fill="#e15759" d="M40,44L52.340,45L64.679,45L77.019,41L89.393,34L101.733,27L114.072,34L126.412,40L138.786,39L151.125,41L163.465,38L175.805,32L188.178,34L200.518,35L212.858,31L225.198,28L237.571,29L249.911,28L262.251,33L274.590,29L286.964,27L299.304,20L311.643,25L323.983,28L336.357,32L348.696,27L361.036,27L373.376,34L385.749,40L398.089,48L410.429,52L422.769,52L435.142,58L447.482,65L459.822,72L472.161,79L484.535,82L496.875,83L509.214,84L521.554,85L533.928,85L546.267,84L558.607,84L570.947,84L583.321,85L595.660,87L608,88L608,88L595.660,87L583.321,85L570.947,84L558.607,84L546.267,84L533.928,85L521.554,85L509.214,84L496.875,83L484.535,82L472.161,79L459.822,72L447.482,65L435.142,58L422.769,52L410.429,53L398.089,48L385.749,40L373.376,34L361.036,27L348.696,27L336.357,32L323.983,28L311.643,25L299.304,20L286.964,27L274.590,29L262.251,33L249.911,28L237.571,29L225.198,28L212.858,31L200.518,35L188.178,34L175.805,32L163.465,38L151.125,41L138.786,39L126.412,40L114.072,34L101.733,27L89.393,34L77.019,41L64.679,45L52.340,45L40,44Z"><title>DVD Audio</title></path><path fill="#f28e2c" d="M40,44L52.340,45L64.679,45L77.019,41L89.393,34L101.733,27L114.072,34L126.412,40L138.786,39L151.125,41L163.465,38L175.805,32L188.178,34L200.518,35L212.858,31L225.198,28L237.571,29L249.911,28L262.251,33L274.590,29L286.964,27L299.304,20L311.643,25L323.983,28L336.357,32L348.696,27L361.036,27L373.376,34L385.749,40L398.089,48L410.429,52L422.769,50L435.142,50L447.482,51L459.822,52L472.161,58L484.535,60L496.875,62L509.214,61L521.554,62L533.928,63L546.267,65L558.607,67L570.947,71L583.321,75L595.660,80L608,82L608,85L595.660,83L583.321,80L570.947,77L558.607,74L546.267,73L533.928,72L521.554,71L509.214,70L496.875,69L484.535,66L472.161,63L459.822,56L447.482,53L435.142,51L422.769,51L410.429,52L398.089,48L385.749,40L373.376,34L361.036,27L348.696,27L336.357,32L323.983,28L311.643,25L299.304,20L286.964,27L274.590,29L262.251,33L249.911,28L237.571,29L225.198,28L212.858,31L200.518,35L188.178,34L175.805,32L163.465,38L151.125,41L138.786,39L126.412,40L114.072,34L101.733,27L89.393,34L77.019,41L64.679,45L52.340,45L40,44Z"><title>Download Album</title></path><path fill="#f28e2c" d="M40,44L52.340,45L64.679,45L77.019,41L89.393,34L101.733,27L114.072,34L126.412,40L138.786,39L151.125,41L163.465,38L175.805,32L188.178,34L200.518,35L212.858,31L225.198,28L237.571,29L249.911,28L262.251,33L274.590,29L286.964,27L299.304,20L311.643,25L323.983,28L336.357,32L348.696,27L361.036,27L373.376,34L385.749,40L398.089,48L410.429,52L422.769,52L435.142,54L447.482,58L459.822,63L472.161,71L484.535,76L496.875,79L509.214,81L521.554,84L533.928,84L546.267,83L558.607,83L570.947,84L583.321,84L595.660,86L608,88L608,88L595.660,86L583.321,84L570.947,84L558.607,83L546.267,84L533.928,84L521.554,84L509.214,82L496.875,80L484.535,76L472.161,71L459.822,63L447.482,58L435.142,54L422.769,52L410.429,52L398.089,48L385.749,40L373.376,34L361.036,27L348.696,27L336.357,32L323.983,28L311.643,25L299.304,20L286.964,27L274.590,29L262.251,33L249.911,28L237.571,29L225.198,28L212.858,31L200.518,35L188.178,34L175.805,32L163.465,38L151.125,41L138.786,39L126.412,40L114.072,34L101.733,27L89.393,34L77.019,41L64.679,45L52.340,45L40,44Z"><title>Download Music Video</title></path><path fill="#f28e2c" d="M40,44L52.340,45L64.679,45L77.019,41L89.393,34L101.733,27L114.072,34L126.412,40L138.786,39L151.125,41L163.465,38L175.805,32L188.178,34L200.518,35L212.858,31L225.198,28L237.571,29L249.911,28L262.251,33L274.590,29L286.964,27L299.304,20L311.643,25L323.983,28L336.357,32L348.696,27L361.036,27L373.376,34L385.749,40L398.089,48L410.429,52L422.769,51L435.142,51L447.482,53L459.822,56L472.161,63L484.535,66L496.875,69L509.214,70L521.554,71L533.928,72L546.267,73L558.607,74L570.947,77L583.321,80L595.660,83L608,85L608,88L595.660,86L583.321,84L570.947,84L558.607,83L546.267,83L533.928,84L521.554,84L509.214,81L496.875,79L484.535,75L472.161,71L459.822,63L447.482,58L435.142,54L422.769,52L410.429,52L398.089,48L385.749,40L373.376,34L361.036,27L348.696,27L336.357,32L323.983,28L311.643,25L299.304,20L286.964,27L274.590,29L262.251,33L249.911,28L237.571,29L225.198,28L212.858,31L200.518,35L188.178,34L175.805,32L163.465,38L151.125,41L138.786,39L126.412,40L114.072,34L101.733,27L89.393,34L77.019,41L64.679,45L52.340,45L40,44Z"><title>Download Single</title></path><path fill="#e15759" d="M40,44L52.340,45L64.679,45L77.019,41L89.393,34L101.733,27L114.072,34L126.412,40L138.786,39L151.125,41L163.465,38L175.805,32L188.178,34L200.518,35L212.858,31L225.198,28L237.571,29L249.911,28L262.251,33L274.590,29L286.964,27L299.304,20L311.643,25L323.983,28L336.357,32L348.696,27L361.036,27L373.376,34L385.749,40L398.089,48L410.429,52L422.769,52L435.142,54L447.482,58L459.822,63L472.161,71L484.535,75L496.875,79L509.214,81L521.554,84L533.928,84L546.267,83L558.607,83L570.947,84L583.321,84L595.660,86L608,88L608,88L595.660,86L583.321,84L570.947,84L558.607,83L546.267,83L533.928,84L521.554,84L509.214,81L496.875,79L484.535,76L472.161,71L459.822,63L447.482,58L435.142,54L422.769,52L410.429,52L398.089,48L385.749,40L373.376,34L361.036,27L348.696,27L336.357,32L323.983,28L311.643,25L299.304,20L286.964,27L274.590,29L262.251,33L249.911,28L237.571,29L225.198,28L212.858,31L200.518,35L188.178,34L175.805,32L163.465,38L151.125,41L138.786,39L126.412,40L114.072,34L101.733,27L89.393,34L77.019,41L64.679,45L52.340,45L40,44Z"><title>Kiosk</title></path><path fill="#edc949" d="M40,75L52.340,75L64.679,75L77.019,74L89.393,71L101.733,71L114.072,73L126.412,72L138.786,71L151.125,72L163.465,74L175.805,77L188.178,78L200.518,78L212.858,79L225.198,81L237.571,80L249.911,78L262.251,74L274.590,70L286.964,66L299.304,58L311.643,54L323.983,52L336.357,53L348.696,48L361.036,43L373.376,44L385.749,47L398.089,53L410.429,58L422.769,58L435.142,64L447.482,69L459.822,76L472.161,81L484.535,83L496.875,85L509.214,85L521.554,86L533.928,86L546.267,85L558.607,84L570.947,85L583.321,85L595.660,87L608,88L608,92L595.660,90L583.321,88L570.947,87L558.607,87L546.267,87L533.928,87L521.554,87L509.214,86L496.875,85L484.535,84L472.161,82L459.822,77L447.482,69L435.142,64L422.769,59L410.429,58L398.089,53L385.749,48L373.376,44L361.036,43L348.696,48L336.357,53L323.983,53L311.643,55L299.304,59L286.964,66L274.590,70L262.251,74L249.911,79L237.571,83L225.198,88L212.858,91L200.518,94L188.178,99L175.805,103L163.465,104L151.125,107L138.786,116L126.412,118L114.072,123L101.733,137L89.393,134L77.019,125L64.679,123L52.340,123L40,124Z"><title>LP/EP</title></path><path fill="#76b7b2" d="M40,44L52.340,45L64.679,45L77.019,41L89.393,34L101.733,27L114.072,34L126.412,40L138.786,39L151.125,41L163.465,38L175.805,32L188.178,34L200.518,35L212.858,31L225.198,28L237.571,29L249.911,28L262.251,33L274.590,29L286.964,27L299.304,20L311.643,25L323.983,28L336.357,32L348.696,27L361.036,27L373.376,34L385.749,40L398.089,48L410.429,52L422.769,50L435.142,50L447.482,51L459.822,52L472.161,57L484.535,57L496.875,58L509.214,58L521.554,57L533.928,57L546.267,58L558.607,59L570.947,60L583.321,62L595.660,64L608,67L608,73L595.660,69L583.321,67L570.947,62L558.607,59L546.267,58L533.928,57L521.554,57L509.214,58L496.875,58L484.535,57L472.161,57L459.822,52L447.482,51L435.142,50L422.769,50L410.429,52L398.089,48L385.749,40L373.376,34L361.036,27L348.696,27L336.357,32L323.983,28L311.643,25L299.304,20L286.964,27L274.590,29L262.251,33L249.911,28L237.571,29L225.198,28L212.858,31L200.518,35L188.178,34L175.805,32L163.465,38L151.125,41L138.786,39L126.412,40L114.072,34L101.733,27L89.393,34L77.019,41L64.679,45L52.340,45L40,44Z"><title>Limited Tier Paid Subscription</title></path><path fill="#e15759" d="M40,44L52.340,45L64.679,45L77.019,41L89.393,34L101.733,27L114.072,34L126.412,40L138.786,39L151.125,41L163.465,38L175.805,32L188.178,34L200.518,35L212.858,31L225.198,28L237.571,29L249.911,28L262.251,33L274.590,29L286.964,27L299.304,20L311.643,25L323.983,28L336.357,32L348.696,27L361.036,27L373.376,34L385.749,40L398.089,48L410.429,53L422.769,52L435.142,58L447.482,65L459.822,72L472.161,79L484.535,82L496.875,83L509.214,84L521.554,85L533.928,85L546.267,84L558.607,84L570.947,84L583.321,85L595.660,87L608,88L608,88L595.660,87L583.321,85L570.947,85L558.607,84L546.267,85L533.928,86L521.554,86L509.214,85L496.875,85L484.535,83L472.161,81L459.822,76L447.482,69L435.142,63L422.769,58L410.429,56L398.089,51L385.749,44L373.376,37L361.036,31L348.696,32L336.357,36L323.983,31L311.643,27L299.304,23L286.964,30L274.590,31L262.251,34L249.911,30L237.571,31L225.198,28L212.858,31L200.518,35L188.178,34L175.805,32L163.465,38L151.125,41L138.786,39L126.412,40L114.072,34L101.733,27L89.393,34L77.019,41L64.679,45L52.340,45L40,44Z"><title>Music Video (Physical)</title></path><path fill="#76b7b2" d="M40,44L52.340,45L64.679,45L77.019,41L89.393,34L101.733,27L114.072,34L126.412,40L138.786,39L151.125,41L163.465,38L175.805,32L188.178,34L200.518,35L212.858,31L225.198,28L237.571,29L249.911,28L262.251,33L274.590,29L286.964,27L299.304,20L311.643,25L323.983,28L336.357,32L348.696,27L361.036,27L373.376,34L385.749,40L398.089,48L410.429,52L422.769,50L435.142,50L447.482,51L459.822,52L472.161,57L484.535,57L496.875,58L509.214,57L521.554,56L533.928,55L546.267,56L558.607,56L570.947,57L583.321,58L595.660,59L608,61L608,67L595.660,64L583.321,62L570.947,60L558.607,59L546.267,58L533.928,57L521.554,57L509.214,58L496.875,58L484.535,57L472.161,57L459.822,52L447.482,51L435.142,50L422.769,50L410.429,52L398.089,48L385.749,40L373.376,34L361.036,27L348.696,27L336.357,32L323.983,28L311.643,25L299.304,20L286.964,27L274.590,29L262.251,33L249.911,28L237.571,29L225.198,28L212.858,31L200.518,35L188.178,34L175.805,32L163.465,38L151.125,41L138.786,39L126.412,40L114.072,34L101.733,27L89.393,34L77.019,41L64.679,45L52.340,45L40,44Z"><title>On-Demand Streaming (Ad-Supported)</title></path><path fill="#76b7b2" d="M40,44L52.340,45L64.679,45L77.019,41L89.393,34L101.733,27L114.072,34L126.412,40L138.786,39L151.125,41L163.465,38L175.805,32L188.178,34L200.518,35L212.858,31L225.198,28L237.571,29L249.911,28L262.251,33L274.590,29L286.964,27L299.304,20L311.643,25L323.983,28L336.357,32L348.696,27L361.036,27L373.376,34L385.749,40L398.089,48L410.429,52L422.769,50L435.142,50L447.482,51L459.822,52L472.161,58L484.535,60L496.875,62L509.214,61L521.554,62L533.928,63L546.267,65L558.607,67L570.947,70L583.321,73L595.660,78L608,81L608,82L595.660,80L583.321,75L570.947,71L558.607,67L546.267,65L533.928,63L521.554,62L509.214,61L496.875,62L484.535,60L472.161,58L459.822,52L447.482,51L435.142,50L422.769,50L410.429,52L398.089,48L385.749,40L373.376,34L361.036,27L348.696,27L336.357,32L323.983,28L311.643,25L299.304,20L286.964,27L274.590,29L262.251,33L249.911,28L237.571,29L225.198,28L212.858,31L200.518,35L188.178,34L175.805,32L163.465,38L151.125,41L138.786,39L126.412,40L114.072,34L101.733,27L89.393,34L77.019,41L64.679,45L52.340,45L40,44Z"><title>Other Ad-Supported Streaming</title></path><path fill="#f28e2c" d="M40,44L52.340,45L64.679,45L77.019,41L89.393,34L101.733,27L114.072,34L126.412,40L138.786,39L151.125,41L163.465,38L175.805,32L188.178,34L200.518,35L212.858,31L225.198,28L237.571,29L249.911,28L262.251,33L274.590,29L286.964,27L299.304,20L311.643,25L323.983,28L336.357,32L348.696,27L361.036,27L373.376,34L385.749,40L398.089,48L410.429,52L422.769,50L435.142,50L447.482,51L459.822,52L472.161,57L484.535,57L496.875,58L509.214,57L521.554,56L533.928,55L546.267,56L558.607,56L570.947,57L583.321,58L595.660,59L608,61L608,61L595.660,59L583.321,58L570.947,57L558.607,56L546.267,56L533.928,55L521.554,56L509.214,57L496.875,58L484.535,57L472.161,57L459.822,52L447.482,51L435.142,50L422.769,50L410.429,52L398.089,48L385.749,40L373.376,34L361.036,27L348.696,27L336.357,32L323.983,28L311.643,25L299.304,20L286.964,27L274.590,29L262.251,33L249.911,28L237.571,29L225.198,28L212.858,31L200.518,35L188.178,34L175.805,32L163.465,38L151.125,41L138.786,39L126.412,40L114.072,34L101.733,27L89.393,34L77.019,41L64.679,45L52.340,45L40,44Z"><title>Other Digital</title></path><path fill="#59a14f" d="M40,74L52.340,74L64.679,74L77.019,74L89.393,71L101.733,71L114.072,73L126.412,72L138.786,71L151.125,72L163.465,74L175.805,77L188.178,78L200.518,78L212.858,79L225.198,81L237.571,80L249.911,78L262.251,74L274.590,70L286.964,66L299.304,58L311.643,54L323.983,52L336.357,53L348.696,48L361.036,43L373.376,44L385.749,47L398.089,53L410.429,58L422.769,58L435.142,64L447.482,69L459.822,76L472.161,81L484.535,83L496.875,85L509.214,85L521.554,86L533.928,86L546.267,85L558.607,84L570.947,85L583.321,85L595.660,87L608,88L608,88L595.660,87L583.321,85L570.947,85L558.607,84L546.267,85L533.928,86L521.554,86L509.214,85L496.875,85L484.535,83L472.161,81L459.822,76L447.482,69L435.142,64L422.769,58L410.429,58L398.089,53L385.749,47L373.376,44L361.036,43L348.696,48L336.357,53L323.983,52L311.643,54L299.304,58L286.964,66L274.590,70L262.251,74L249.911,78L237.571,80L225.198,81L212.858,79L200.518,78L188.178,78L175.805,77L163.465,74L151.125,72L138.786,71L126.412,72L114.072,73L101.733,71L89.393,71L77.019,74L64.679,75L52.340,75L40,75Z"><title>Other Tapes</title></path><path fill="#76b7b2" d="M40,44L52.340,45L64.679,45L77.019,41L89.393,34L101.733,27L114.072,34L126.412,40L138.786,39L151.125,41L163.465,38L175.805,32L188.178,34L200.518,35L212.858,31L225.198,28L237.571,29L249.911,28L262.251,33L274.590,29L286.964,27L299.304,20L311.643,25L323.983,28L336.357,32L348.696,27L361.036,27L373.376,34L385.749,40L398.089,48L410.429,52L422.769,50L435.142,48L447.482,49L459.822,50L472.161,55L484.535,55L496.875,56L509.214,55L521.554,53L533.928,51L546.267,50L558.607,48L570.947,40L583.321,33L595.660,26L608,20L608,61L595.660,59L583.321,58L570.947,57L558.607,56L546.267,56L533.928,55L521.554,56L509.214,57L496.875,58L484.535,57L472.161,57L459.822,52L447.482,51L435.142,50L422.769,50L410.429,52L398.089,48L385.749,40L373.376,34L361.036,27L348.696,27L336.357,32L323.983,28L311.643,25L299.304,20L286.964,27L274.590,29L262.251,33L249.911,28L237.571,29L225.198,28L212.858,31L200.518,35L188.178,34L175.805,32L163.465,38L151.125,41L138.786,39L126.412,40L114.072,34L101.733,27L89.393,34L77.019,41L64.679,45L52.340,45L40,44Z"><title>Paid Subscription</title></path><path fill="#f28e2c" d="M40,44L52.340,45L64.679,45L77.019,41L89.393,34L101.733,27L114.072,34L126.412,40L138.786,39L151.125,41L163.465,38L175.805,32L188.178,34L200.518,35L212.858,31L225.198,28L237.571,29L249.911,28L262.251,33L274.590,29L286.964,27L299.304,20L311.643,25L323.983,28L336.357,32L348.696,27L361.036,27L373.376,34L385.749,40L398.089,48L410.429,52L422.769,52L435.142,54L447.482,58L459.822,63L472.161,71L484.535,76L496.875,80L509.214,82L521.554,84L533.928,84L546.267,84L558.607,83L570.947,84L583.321,84L595.660,86L608,88L608,88L595.660,87L583.321,85L570.947,84L558.607,84L546.267,84L533.928,85L521.554,85L509.214,84L496.875,83L484.535,82L472.161,79L459.822,72L447.482,65L435.142,58L422.769,52L410.429,52L398.089,48L385.749,40L373.376,34L361.036,27L348.696,27L336.357,32L323.983,28L311.643,25L299.304,20L286.964,27L274.590,29L262.251,33L249.911,28L237.571,29L225.198,28L212.858,31L200.518,35L188.178,34L175.805,32L163.465,38L151.125,41L138.786,39L126.412,40L114.072,34L101.733,27L89.393,34L77.019,41L64.679,45L52.340,45L40,44Z"><title>Ringtones &amp; Ringbacks</title></path><path fill="#4e79a7" d="M40,44L52.340,45L64.679,45L77.019,41L89.393,34L101.733,27L114.072,34L126.412,40L138.786,39L151.125,41L163.465,38L175.805,32L188.178,34L200.518,35L212.858,31L225.198,28L237.571,31L249.911,30L262.251,34L274.590,31L286.964,30L299.304,23L311.643,27L323.983,31L336.357,36L348.696,32L361.036,31L373.376,37L385.749,44L398.089,51L410.429,56L422.769,58L435.142,63L447.482,69L459.822,76L472.161,81L484.535,83L496.875,85L509.214,85L521.554,86L533.928,86L546.267,85L558.607,84L570.947,85L583.321,85L595.660,87L608,88L608,88L595.660,87L583.321,85L570.947,85L558.607,84L546.267,85L533.928,86L521.554,86L509.214,85L496.875,85L484.535,83L472.161,81L459.822,76L447.482,69L435.142,64L422.769,58L410.429,57L398.089,51L385.749,44L373.376,37L361.036,31L348.696,32L336.357,36L323.983,31L311.643,27L299.304,23L286.964,30L274.590,31L262.251,34L249.911,30L237.571,31L225.198,28L212.858,31L200.518,35L188.178,34L175.805,32L163.465,38L151.125,41L138.786,39L126.412,40L114.072,34L101.733,27L89.393,34L77.019,41L64.679,45L52.340,45L40,44Z"><title>SACD</title></path><path fill="#76b7b2" d="M40,44L52.340,45L64.679,45L77.019,41L89.393,34L101.733,27L114.072,34L126.412,40L138.786,39L151.125,41L163.465,38L175.805,32L188.178,34L200.518,35L212.858,31L225.198,28L237.571,29L249.911,28L262.251,33L274.590,29L286.964,27L299.304,20L311.643,25L323.983,28L336.357,32L348.696,27L361.036,27L373.376,34L385.749,40L398.089,48L410.429,52L422.769,50L435.142,50L447.482,51L459.822,52L472.161,57L484.535,59L496.875,60L509.214,59L521.554,58L533.928,59L546.267,60L558.607,61L570.947,64L583.321,68L595.660,71L608,74L608,81L595.660,78L583.321,73L570.947,70L558.607,67L546.267,65L533.928,63L521.554,62L509.214,61L496.875,62L484.535,60L472.161,58L459.822,52L447.482,51L435.142,50L422.769,50L410.429,52L398.089,48L385.749,40L373.376,34L361.036,27L348.696,27L336.357,32L323.983,28L311.643,25L299.304,20L286.964,27L274.590,29L262.251,33L249.911,28L237.571,29L225.198,28L212.858,31L200.518,35L188.178,34L175.805,32L163.465,38L151.125,41L138.786,39L126.412,40L114.072,34L101.733,27L89.393,34L77.019,41L64.679,45L52.340,45L40,44Z"><title>SoundExchange Distributions</title></path><path fill="#e15759" d="M40,44L52.340,45L64.679,45L77.019,41L89.393,34L101.733,27L114.072,34L126.412,40L138.786,39L151.125,41L163.465,38L175.805,32L188.178,34L200.518,35L212.858,31L225.198,28L237.571,29L249.911,28L262.251,33L274.590,29L286.964,27L299.304,20L311.643,25L323.983,28L336.357,32L348.696,27L361.036,27L373.376,34L385.749,40L398.089,48L410.429,52L422.769,50L435.142,50L447.482,51L459.822,52L472.161,57L484.535,57L496.875,58L509.214,58L521.554,57L533.928,57L546.267,58L558.607,59L570.947,62L583.321,67L595.660,69L608,73L608,74L595.660,71L583.321,68L570.947,64L558.607,61L546.267,60L533.928,59L521.554,58L509.214,59L496.875,60L484.535,59L472.161,57L459.822,52L447.482,51L435.142,50L422.769,50L410.429,52L398.089,48L385.749,40L373.376,34L361.036,27L348.696,27L336.357,32L323.983,28L311.643,25L299.304,20L286.964,27L274.590,29L262.251,33L249.911,28L237.571,29L225.198,28L212.858,31L200.518,35L188.178,34L175.805,32L163.465,38L151.125,41L138.786,39L126.412,40L114.072,34L101.733,27L89.393,34L77.019,41L64.679,45L52.340,45L40,44Z"><title>Synchronization</title></path><path fill="#edc949" d="M40,47L52.340,48L64.679,49L77.019,46L89.393,41L101.733,39L114.072,48L126.412,55L138.786,60L151.125,66L163.465,69L175.805,72L188.178,73L200.518,75L212.858,76L225.198,78L237.571,78L249.911,76L262.251,73L274.590,69L286.964,65L299.304,58L311.643,54L323.983,52L336.357,52L348.696,47L361.036,42L373.376,44L385.749,47L398.089,53L410.429,58L422.769,58L435.142,64L447.482,69L459.822,76L472.161,81L484.535,83L496.875,85L509.214,85L521.554,86L533.928,86L546.267,85L558.607,84L570.947,85L583.321,85L595.660,87L608,88L608,88L595.660,87L583.321,85L570.947,85L558.607,84L546.267,85L533.928,86L521.554,86L509.214,85L496.875,85L484.535,83L472.161,81L459.822,76L447.482,69L435.142,64L422.769,58L410.429,58L398.089,53L385.749,47L373.376,44L361.036,43L348.696,48L336.357,53L323.983,52L311.643,54L299.304,58L286.964,66L274.590,70L262.251,74L249.911,78L237.571,80L225.198,81L212.858,79L200.518,78L188.178,78L175.805,77L163.465,74L151.125,71L138.786,65L126.412,60L114.072,57L101.733,46L89.393,48L77.019,53L64.679,55L52.340,55L40,55Z"><title>Vinyl Single</title></path></g></svg>