<svg xmlns="http://www.w3.org/2000/svg" width="628" height="200" view_box="0 0 628 200" style="max-width:100%;height:auto;"><g transform="translate(0, 180)" fill="none" font-size="10" font-family="sans-serif" text-anchor="middle"><g class="tick" opacity="1" transform="translate(65.17948336408547, 0)"><line stroke="white" y2="6"/><text fill="white" y="9" dy="0.71em" stroke="none">1975</text></g><g class="tick" opacity="1" transform="translate(126.9119992857568, 0)"><line stroke="white" y2="6"/><text fill="white" y="9" dy="0.71em" stroke="none">1980</text></g><g class="tick" opacity="1" transform="translate(188.6783227188858, 0)"><line stroke="white" y2="6"/><text fill="white" y="9" dy="0.71em" stroke="none">1985</text></g><g class="tick" opacity="1" transform="translate(250.41083864055713, 0)"><line stroke="white" y2="6"/><text fill="white" y="9" dy="0.71em" stroke="none">1990</text></g><g class="tick" opacity="1" transform="translate(312.1433545622284, 0)"><line stroke="white" y2="6"/><text fill="white" y="9" dy="0.71em" stroke="none">1995</text></g><g class="tick" opacity="1" transform="translate(373.87587048389975, 0)"><line stroke="white" y2="6"/><text fill="white" y="9" dy="0.71em" stroke="none">2000</text></g><g class="tick" opacity="1" transform="translate(435.6421939170287, 0)"><line stroke="white" y2="6"/><text fill="white" y="9" dy="0.71em" stroke="none">2005</text></g><g class="tick" opacity="1" transform="translate(497.3747098387001, 0)"><line stroke="white" y2="6"/><text fill="white" y="9" dy="0.71em" stroke="none">2010</text></g><g class="tick" opacity="1" transform="translate(559.1072257603714, 0)"><line stroke="white" y2="6"/><text fill="white" y="9" dy="0.71em" stroke="none">2015</text></g></g><g transform="translate(40,0)" fill="none" font-size="10" font-family="sans-serif" text-anchor="end"><g class="tick" opacity="1" transform="translate(0, 180.5)"><line stroke="white" x2="568" stroke-opacity="0.2"/><line stroke="white" x2="-6"/><text fill="white" x="-9" dy="0.32em" stroke="none">0</text></g><g class="tick" opacity="1" transform="translate(0, 144.5)"><line stroke="white" x2="568" stroke-opacity="0.2"/><line stroke="white" x2="-6"/><text fill="white" x="-9" dy="0.32em" stroke="none">5</text></g><g class="tick" opacity="1" transform="translate(0, 109.5)"><line stroke="white" x2="568" stroke-opacity="0.2"/><line stroke="white" x2="-6"/><text fill="white" x="-9" dy="0.32em" stroke="none">10</text></g><g class="tick" opacity="1" transform="translate(0, 73.5)"><line stroke="white" x2="568" stroke-opacity="0.2"/><line stroke="white" x2="-6"/><text fill="white" x="-9" dy="0.32em" stroke="none">15</text></g><g class="tick" opacity="1" transform="translate(0, 37.5)"><line stroke="white" x2="568" stroke-opacity="0.2"/><line stroke="white" x2="-6"/><text fill="white" x="-9" dy="0.32em" stroke="none">20</text></g><text x="-40" y="10" fill="white" text-anchor="start" stroke="none">&#8593; Annual revenue (billions)</text></g><g><path fill="#59a14f" d="M40,160L52.340,160L64.679,160L77.019,158L89.393,156L101.733,153L114.072,163L126.412,168L138.786,174L151.125,179L163.465,180L175.805,180L188.178,180L200.518,180L212.858,180L225.198,180L237.571,180L249.911,180L262.251,180L274.590,180L286.964,180L299.304,180L311.643,180L323.983,180L336.357,180L348.696,180L361.036,180L373.376,180L385.749,180L398.089,180L410.429,180L422.769,180L435.142,180L447.482,180L459.822,180L472.161,180L484.535,180L496.875,180L509.214,180L521.554,180L533.928,180L546.267,180L558.607,180L570.947,180L583.321,180L595.660,180L608,180L608,180L595.660,180L583.321,180L570.947,180L558.607,180L546.267,180L533.928,180L521.554,180L509.214,180L496.875,180L484.535,180L472.161,180L459.822,180L447.482,180L435.142,180L422.769,180L410.429,180L398.089,180L385.749,180L373.376,180L361.036,180L348.696,180L336.357,180L323.983,180L311.643,180L299.304,180L286.964,180L274.590,180L262.251,180L249.911,180L237.571,180L225.198,180L212.858,180L200.518,180L188.178,180L175.805,180L163.465,180L151.125,180L138.786,180L126.412,180L114.072,180L101.733,180L89.393,180L77.019,180L64.679,180L52.340,180L40,180Z"><title>8 - Track</title></path><path fill="#4e79a7" d="M40,160L52.340,160L64.679,160L77.019,158L89.393,156L101.733,153L114.072,163L126.412,168L138.786,174L151.125,179L163.465,180L175.805,178L188.178,173L200.518,164L212.858,154L225.198,148L237.571,142L249.911,132L262.251,122L274.590,111L286.964,98L299.304,76L311.643,68L323.983,64L336.357,67L348.696,52L361.036,39L373.376,40L385.749,47L398.089,58L410.429,68L422.769,69L435.142,82L447.482,95L459.822,114L472.161,134L484.535,143L496.875,152L509.214,155L521.554,160L533.928,163L546.267,166L558.607,169L570.947,171L583.321,172L595.660,175L608,176L608,180L595.660,180L583.321,180L570.947,180L558.607,180L546.267,180L533.928,180L521.554,180L509.214,180L496.875,180L484.535,180L472.161,180L459.822,180L447.482,180L435.142,180L422.769,180L410.429,180L398.089,180L385.749,180L373.376,180L361.036,180L348.696,180L336.357,180L323.983,180L311.643,180L299.304,180L286.964,180L274.590,180L262.251,180L249.911,180L237.571,180L225.198,180L212.858,180L200.518,180L188.178,180L175.805,180L163.465,180L151.125,179L138.786,174L126.412,168L114.072,163L101.733,153L89.393,156L77.019,158L64.679,160L52.340,160L40,160Z"><title>CD</title></path><path fill="#4e79a7" d="M40,160L52.340,160L64.679,160L77.019,158L89.393,156L101.733,153L114.072,163L126.412,168L138.786,174L151.125,179L163.465,180L175.805,178L188.178,173L200.518,164L212.858,154L225.198,148L237.571,142L249.911,132L262.251,121L274.590,110L286.964,97L299.304,75L311.643,66L323.983,62L336.357,64L348.696,50L361.036,37L373.376,38L385.749,46L398.089,57L410.429,68L422.769,69L435.142,81L447.482,95L459.822,114L472.161,134L484.535,143L496.875,152L509.214,155L521.554,160L533.928,163L546.267,166L558.607,169L570.947,171L583.321,172L595.660,175L608,176L608,176L595.660,175L583.321,172L570.947,171L558.607,169L546.267,166L533.928,163L521.554,160L509.214,155L496.875,152L484.535,143L472.161,134L459.822,114L447.482,95L435.142,82L422.769,69L410.429,68L398.089,58L385.749,47L373.376,40L361.036,39L348.696,52L336.357,67L323.983,64L311.643,68L299.304,76L286.964,98L274.590,111L262.251,122L249.911,132L237.571,142L225.198,148L212.858,154L200.518,164L188.178,173L175.805,178L163.465,180L151.125,179L138.786,174L126.412,168L114.072,163L101.733,153L89.393,156L77.019,158L64.679,160L52.340,160L40,160Z"><title>CD Single</title></path><path fill="#59a14f" d="M40,157L52.340,156L64.679,157L77.019,154L89.393,148L101.733,141L114.072,148L126.412,153L138.786,152L151.125,153L163.465,146L175.805,136L188.178,132L200.518,123L212.858,107L225.198,95L237.571,93L249.911,83L262.251,81L274.590,69L286.964,60L299.304,38L311.643,39L323.983,40L336.357,47L348.696,34L361.036,25L373.376,32L385.749,42L398.089,55L410.429,67L422.769,69L435.142,81L447.482,95L459.822,114L472.161,134L484.535,143L496.875,152L509.214,155L521.554,160L533.928,163L546.267,166L558.607,169L570.947,171L583.321,172L595.660,175L608,176L608,176L595.660,175L583.321,172L570.947,171L558.607,169L546.267,166L533.928,163L521.554,160L509.214,155L496.875,152L484.535,143L472.161,134L459.822,114L447.482,95L435.142,81L422.769,69L410.429,68L398.089,57L385.749,46L373.376,38L361.036,37L348.696,50L336.357,64L323.983,62L311.643,66L299.304,75L286.964,97L274.590,110L262.251,121L249.911,132L237.571,142L225.198,148L212.858,154L200.518,164L188.178,173L175.805,178L163.465,180L151.125,179L138.786,174L126.412,168L114.072,163L101.733,153L89.393,156L77.019,158L64.679,160L52.340,160L40,160Z"><title>Cassette</title></path><path fill="#59a14f" d="M40,157L52.340,156L64.679,157L77.019,154L89.393,148L101.733,141L114.072,148L126.412,153L138.786,152L151.125,153L163.465,146L175.805,136L188.178,132L200.518,123L212.858,107L225.198,94L237.571,90L249.911,79L262.251,78L274.590,66L286.964,56L299.304,35L311.643,36L323.983,38L336.357,45L348.696,33L361.036,25L373.376,32L385.749,42L398.089,55L410.429,67L422.769,69L435.142,81L447.482,95L459.822,114L472.161,134L484.535,143L496.875,152L509.214,155L521.554,160L533.928,163L546.267,166L558.607,169L570.947,171L583.321,172L595.660,175L608,176L608,176L595.660,175L583.321,172L570.947,171L558.607,169L546.267,166L533.928,163L521.554,160L509.214,155L496.875,152L484.535,143L472.161,134L459.822,114L447.482,95L435.142,81L422.769,69L410.429,67L398.089,55L385.749,42L373.376,32L361.036,25L348.696,34L336.357,47L323.983,40L311.643,39L299.304,38L286.964,60L274.590,69L262.251,81L249.911,83L237.571,93L225.198,95L212.858,107L200.518,123L188.178,132L175.805,136L163.465,146L151.125,153L138.786,152L126.412,153L114.072,148L101.733,141L89.393,148L77.019,154L64.679,157L52.340,156L40,157Z"><title>Cassette Single</title></path><path fill="#e15759" d="M40,157L52.340,156L64.679,157L77.019,154L89.393,148L101.733,141L114.072,148L126.412,153L138.786,152L151.125,153L163.465,146L175.805,136L188.178,132L200.518,123L212.858,107L225.198,94L237.571,90L249.911,79L262.251,78L274.590,66L286.964,56L299.304,35L311.643,36L323.983,38L336.357,45L348.696,33L361.036,25L373.376,32L385.749,42L398.089,55L410.429,67L422.769,69L435.142,81L447.482,95L459.822,114L472.161,134L484.535,143L496.875,152L509.214,155L521.554,160L533.928,163L546.267,166L558.607,169L570.947,171L583.321,172L595.660,175L608,176L608,176L595.660,175L583.321,172L570.947,171L558.607,169L546.267,166L533.928,163L521.554,160L509.214,155L496.875,152L484.535,143L472.161,134L459.822,114L447.482,95L435.142,81L422.769,69L410.429,67L398.089,55L385.749,42L373.376,32L361.036,25L348.696,33L336.357,45L323.983,38L311.643,36L299.304,35L286.964,56L274.590,66L262.251,78L249.911,79L237.571,90L225.198,94L212.858,107L200.518,123L188.178,132L175.805,136L163.465,146L151.125,153L138.786,152L126.412,153L114.072,148L101.733,141L89.393,148L77.019,154L64.679,157L52.340,156L40,157Z"><title>DVD Audio</title></path><path fill="#f28e2c" d="M40,157L52.340,156L64.679,157L77.019,154L89.393,148L101.733,141L114.072,148L126.412,153L138.786,152L151.125,153L163.465,146L175.805,136L188.178,132L200.518,123L212.858,107L225.198,94L237.571,90L249.911,79L262.251,78L274.590,66L286.964,56L299.304,35L311.643,36L323.983,38L336.357,45L348.696,33L361.036,25L373.376,32L385.749,42L398.089,55L410.429,67L422.769,68L435.142,80L447.482,92L459.822,110L472.161,128L484.535,137L496.875,144L509.214,146L521.554,151L533.928,154L546.267,158L558.607,161L570.947,165L583.321,167L595.660,171L608,173L608,176L595.660,175L583.321,172L570.947,171L558.607,169L546.267,166L533.928,163L521.554,160L509.214,155L496.875,152L484.535,143L472.161,134L459.822,114L447.482,95L435.142,81L422.769,69L410.429,67L398.089,55L385.749,42L373.376,32L361.036,25L348.696,33L336.357,45L323.983,38L311.643,36L299.304,35L286.964,56L274.590,66L262.251,78L249.911,79L237.571,90L225.198,94L212.858,107L200.518,123L188.178,132L175.805,136L163.465,146L151.125,153L138.786,152L126.412,153L114.072,148L101.733,141L89.393,148L77.019,154L64.679,157L52.340,156L40,157Z"><title>Download Album</title></path><path fill="#f28e2c" d="M40,157L52.340,156L64.679,157L77.019,154L89.393,148L101.733,141L114.072,148L126.412,153L138.786,152L151.125,153L163.465,146L175.805,136L188.178,132L200.518,123L212.858,107L225.198,94L237.571,90L249.911,79L262.251,78L274.590,66L286.964,56L299.304,35L311.643,36L323.983,38L336.357,45L348.696,33L361.036,25L373.376,32L385.749,42L398.089,55L410.429,67L422.769,68L435.142,80L447.482,92L459.822,110L472.161,128L484.535,136L496.875,144L509.214,146L521.554,150L533.928,153L546.267,158L558.607,161L570.947,165L583.321,167L595.660,171L608,173L608,173L595.660,171L583.321,167L570.947,165L558.607,161L546.267,158L533.928,154L521.554,151L509.214,146L496.875,144L484.535,137L472.161,128L459.822,110L447.482,92L435.142,80L422.769,68L410.429,67L398.089,55L385.749,42L373.376,32L361.036,25L348.696,33L336.357,45L323.983,38L311.643,36L299.304,35L286.964,56L274.590,66L262.251,78L249.911,79L237.571,90L225.198,94L212.858,107L200.518,123L188.178,132L175.805,136L163.465,146L151.125,153L138.786,152L126.412,153L114.072,148L101.733,141L89.393,148L77.019,154L64.679,157L52.340,156L40,157Z"><title>Download Music Video</title></path><path fill="#f28e2c" d="M40,157L52.340,156L64.679,157L77.019,154L89.393,148L101.733,141L114.072,148L126.412,153L138.786,152L151.125,153L163.465,146L175.805,136L188.178,132L200.518,123L212.858,107L225.198,94L237.571,90L249.911,79L262.251,78L274.590,66L286.964,56L299.304,35L311.643,36L323.983,38L336.357,45L348.696,33L361.036,25L373.376,32L385.749,42L398.089,55L410.429,67L422.769,67L435.142,77L447.482,87L459.822,102L472.161,119L484.535,126L496.875,133L509.214,133L521.554,137L533.928,141L546.267,147L558.607,151L570.947,158L583.321,162L595.660,168L608,170L608,173L595.660,171L583.321,167L570.947,165L558.607,161L546.267,158L533.928,153L521.554,150L509.214,146L496.875,144L484.535,136L472.161,128L459.822,110L447.482,92L435.142,80L422.769,68L410.429,67L398.089,55L385.749,42L373.376,32L361.036,25L348.696,33L336.357,45L323.983,38L311.643,36L299.304,35L286.964,56L274.590,66L262.251,78L249.911,79L237.571,90L225.198,94L212.858,107L200.518,123L188.178,132L175.805,136L163.465,146L151.125,153L138.786,152L126.412,153L114.072,148L101.733,141L89.393,148L77.019,154L64.679,157L52.340,156L40,157Z"><title>Download Single</title></path><path fill="#e15759" d="M40,157L52.340,156L64.679,157L77.019,154L89.393,148L101.733,141L114.072,148L126.412,153L138.786,152L151.125,153L163.465,146L175.805,136L188.178,132L200.518,123L212.858,107L225.198,94L237.571,90L249.911,79L262.251,78L274.590,66L286.964,56L299.304,35L311.643,36L323.983,38L336.357,45L348.696,33L361.036,25L373.376,32L385.749,42L398.089,55L410.429,67L422.769,67L435.142,77L447.482,87L459.822,102L472.161,119L484.535,126L496.875,133L509.214,133L521.554,137L533.928,141L546.267,147L558.607,151L570.947,158L583.321,162L595.660,168L608,170L608,170L595.660,168L583.321,162L570.947,158L558.607,151L546.267,147L533.928,141L521.554,137L509.214,133L496.875,133L484.535,126L472.161,119L459.822,102L447.482,87L435.142,77L422.769,67L410.429,67L398.089,55L385.749,42L373.376,32L361.036,25L348.696,33L336.357,45L323.983,38L311.643,36L299.304,35L286.964,56L274.590,66L262.251,78L249.911,79L237.571,90L225.198,94L212.858,107L200.518,123L188.178,132L175.805,136L163.465,146L151.125,153L138.786,152L126.412,153L114.072,148L101.733,141L89.393,148L77.019,154L64.679,157L52.340,156L40,157Z"><title>Kiosk</title></path><path fill="#edc949" d="M40,105L52.340,106L64.679,106L77.019,100L89.393,82L101.733,71L114.072,96L126.412,104L138.786,105L151.125,117L163.465,115L175.805,109L188.178,111L200.518,106L212.858,94L225.198,86L237.571,86L249.911,78L262.251,77L274.590,65L286.964,56L299.304,35L311.643,35L323.983,37L336.357,45L348.696,32L361.036,24L373.376,31L385.749,42L398.089,55L410.429,67L422.769,67L435.142,76L447.482,87L459.822,102L472.161,118L484.535,126L496.875,132L509.214,132L521.554,136L533.928,139L546.267,145L558.607,149L570.947,155L583.321,159L595.660,165L608,166L608,170L595.660,168L583.321,162L570.947,158L558.607,151L546.267,147L533.928,141L521.554,137L509.214,133L496.875,133L484.535,126L472.161,119L459.822,102L447.482,87L435.142,77L422.769,67L410.429,67L398.089,55L385.749,42L373.376,32L361.036,25L348.696,33L336.357,45L323.983,38L311.643,36L299.304,35L286.964,56L274.590,66L262.251,78L249.911,79L237.571,90L225.198,94L212.858,107L200.518,123L188.178,132L175.805,136L163.465,146L151.125,153L138.786,152L126.412,153L114.072,148L101.733,141L89.393,148L77.019,154L64.679,157L52.340,156L40,157Z"><title>LP/EP</title></path><path fill="#76b7b2" d="M40,105L52.340,106L64.679,106L77.019,100L89.393,82L101.733,71L114.072,96L126.412,104L138.786,105L151.125,117L163.465,115L175.805,109L188.178,111L200.518,106L212.858,94L225.198,86L237.571,86L249.911,78L262.251,77L274.590,65L286.964,56L299.304,35L311.643,35L323.983,37L336.357,45L348.696,32L361.036,24L373.376,31L385.749,42L398.089,55L410.429,67L422.769,67L435.142,76L447.482,87L459.822,102L472.161,118L484.535,126L496.875,132L509.214,132L521.554,136L533.928,139L546.267,145L558.607,149L570.947,153L583.321,155L595.660,159L608,160L608,166L595.660,165L583.321,159L570.947,155L558.607,149L546.267,145L533.928,139L521.554,136L509.214,132L496.875,132L484.535,126L472.161,118L459.822,102L447.482,87L435.142,76L422.769,67L410.429,67L398.089,55L385.749,42L373.376,31L361.036,24L348.696,32L336.357,45L323.983,37L311.643,35L299.304,35L286.964,56L274.590,65L262.251,77L249.911,78L237.571,86L225.198,86L212.858,94L200.518,106L188.178,111L175.805,109L163.465,115L151.125,117L138.786,105L126.412,104L114.072,96L101.733,71L89.393,82L77.019,100L64.679,106L52.340,106L40,105Z"><title>Limited Tier Paid Subscription</title></path><path fill="#e15759" d="M40,105L52.340,106L64.679,106L77.019,100L89.393,82L101.733,71L114.072,96L126.412,104L138.786,105L151.125,117L163.465,115L175.805,109L188.178,111L200.518,106L212.858,94L225.198,86L237.571,85L249.911,76L262.251,76L274.590,63L286.964,54L299.304,32L311.643,33L323.983,35L336.357,41L348.696,27L361.036,20L373.376,28L385.749,38L398.089,52L410.429,63L422.769,61L435.142,71L447.482,83L459.822,98L472.161,117L484.535,124L496.875,130L509.214,131L521.554,135L533.928,139L546.267,144L558.607,148L570.947,153L583.321,154L595.660,159L608,160L608,160L595.660,159L583.321,155L570.947,153L558.607,149L546.267,145L533.928,139L521.554,136L509.214,132L496.875,132L484.535,126L472.161,118L459.822,102L447.482,87L435.142,76L422.769,67L410.429,67L398.089,55L385.749,42L373.376,31L361.036,24L348.696,32L336.357,45L323.983,37L311.643,35L299.304,35L286.964,56L274.590,65L262.251,77L249.911,78L237.571,86L225.198,86L212.858,94L200.518,106L188.178,111L175.805,109L163.465,115L151.125,117L138.786,105L126.412,104L114.072,96L101.733,71L89.393,82L77.019,100L64.679,106L52.340,106L40,105Z"><title>Music Video (Physical)</title></path><path fill="#76b7b2" d="M40,105L52.340,106L64.679,106L77.019,100L89.393,82L101.733,71L114.072,96L126.412,104L138.786,105L151.125,117L163.465,115L175.805,109L188.178,111L200.518,106L212.858,94L225.198,86L237.571,85L249.911,76L262.251,76L274.590,63L286.964,54L299.304,32L311.643,33L323.983,35L336.357,41L348.696,27L361.036,20L373.376,28L385.749,38L398.089,52L410.429,63L422.769,61L435.142,71L447.482,83L459.822,98L472.161,117L484.535,124L496.875,130L509.214,130L521.554,134L533.928,137L546.267,142L558.607,145L570.947,149L583.321,149L595.660,153L608,154L608,160L595.660,159L583.321,154L570.947,153L558.607,148L546.267,144L533.928,139L521.554,135L509.214,131L496.875,130L484.535,124L472.161,117L459.822,98L447.482,83L435.142,71L422.769,61L410.429,63L398.089,52L385.749,38L373.376,28L361.036,20L348.696,27L336.357,41L323.983,35L311.643,33L299.304,32L286.964,54L274.590,63L262.251,76L249.911,76L237.571,85L225.198,86L212.858,94L200.518,106L188.178,111L175.805,109L163.465,115L151.125,117L138.786,105L126.412,104L114.072,96L101.733,71L89.393,82L77.019,100L64.679,106L52.340,106L40,105Z"><title>On-Demand Streaming (Ad-Supported)</title></path><path fill="#76b7b2" d="M40,105L52.340,106L64.679,106L77.019,100L89.393,82L101.733,71L114.072,96L126.412,104L138.786,105L151.125,117L163.465,115L175.805,109L188.178,111L200.518,106L212.858,94L225.198,86L237.571,85L249.911,76L262.251,76L274.590,63L286.964,54L299.304,32L311.643,33L323.983,35L336.357,41L348.696,27L361.036,20L373.376,28L385.749,38L398.089,52L410.429,63L422.769,61L435.142,71L447.482,83L459.822,98L472.161,117L484.535,124L496.875,130L509.214,130L521.554,134L533.928,137L546.267,142L558.607,145L570.947,148L583.321,148L595.660,152L608,152L608,154L595.660,153L583.321,149L570.947,149L558.607,145L546.267,142L533.928,137L521.554,134L509.214,130L496.875,130L484.535,124L472.161,117L459.822,98L447.482,83L435.142,71L422.769,61L410.429,63L398.089,52L385.749,38L373.376,28L361.036,20L348.696,27L336.357,41L323.983,35L311.643,33L299.304,32L286.964,54L274.590,63L262.251,76L249.911,76L237.571,85L225.198,86L212.858,94L200.518,106L188.178,111L175.805,109L163.465,115L151.125,117L138.786,105L126.412,104L114.072,96L101.733,71L89.393,82L77.019,100L64.679,106L52.340,106L40,105Z"><title>Other Ad-Supported Streaming</title></path><path fill="#f28e2c" d="M40,105L52.340,106L64.679,106L77.019,100L89.393,82L101.733,71L114.072,96L126.412,104L138.786,105L151.125,117L163.465,115L175.805,109L188.178,111L200.518,106L212.858,94L225.198,86L237.571,85L249.911,76L262.251,76L274.590,63L286.964,54L299.304,32L311.643,33L323.983,35L336.357,41L348.696,27L361.036,20L373.376,28L385.749,38L398.089,52L410.429,63L422.769,61L435.142,71L447.482,83L459.822,98L472.161,117L484.535,124L496.875,130L509.214,130L521.554,134L533.928,137L546.267,142L558.607,145L570.947,148L583.321,147L595.660,151L608,152L608,152L595.660,152L583.321,148L570.947,148L558.607,145L546.267,142L533.928,137L521.554,134L509.214,130L496.875,130L484.535,124L472.161,117L459.822,98L447.482,83L435.142,71L422.769,61L410.429,63L398.089,52L385.749,38L373.376,28L361.036,20L348.696,27L336.357,41L323.983,35L311.643,33L299.304,32L286.964,54L274.590,63L262.251,76L249.911,76L237.571,85L225.198,86L212.858,94L200.518,106L188.178,111L175.805,109L163.465,115L151.125,117L138.786,105L126.412,104L114.072,96L101.733,71L89.393,82L77.019,100L64.679,106L52.340,106L40,105Z"><title>Other Digital</title></path><path fill="#59a14f" d="M40,105L52.340,106L64.679,106L77.019,100L89.393,82L101.733,71L114.072,96L126.412,104L138.786,105L151.125,117L163.465,115L175.805,109L188.178,111L200.518,106L212.858,94L225.198,86L237.571,85L249.911,76L262.251,76L274.590,63L286.964,54L299.304,32L311.643,33L323.983,35L336.357,41L348.696,27L361.036,20L373.376,28L385.749,38L398.089,52L410.429,63L422.769,61L435.142,71L447.482,83L459.822,98L472.161,117L484.535,124L496.875,130L509.214,130L521.554,134L533.928,137L546.267,142L558.607,145L570.947,148L583.321,147L595.660,151L608,152L608,152L595.660,151L583.321,147L570.947,148L558.607,145L546.267,142L533.928,137L521.554,134L509.214,130L496.875,130L484.535,124L472.161,117L459.822,98L447.482,83L435.142,71L422.769,61L410.429,63L398.089,52L385.749,38L373.376,28L361.036,20L348.696,27L336.357,41L323.983,35L311.643,33L299.304,32L286.964,54L274.590,63L262.251,76L249.911,76L237.571,85L225.198,86L212.858,94L200.518,106L188.178,111L175.805,109L163.465,115L151.125,117L138.786,105L126.412,104L114.072,96L101.733,71L89.393,82L77.019,100L64.679,106L52.340,106L40,105Z"><title>Other Tapes</title></path><path fill="#76b7b2" d="M40,105L52.340,106L64.679,106L77.019,100L89.393,82L101.733,71L114.072,96L126.412,104L138.786,105L151.125,117L163.465,115L175.805,109L188.178,111L200.518,106L212.858,94L225.198,86L237.571,85L249.911,76L262.251,76L274.590,63L286.964,54L299.304,32L311.643,33L323.983,35L336.357,41L348.696,27L361.036,20L373.376,28L385.749,38L398.089,52L410.429,63L422.769,61L435.142,69L447.482,81L459.822,96L472.161,115L484.535,122L496.875,129L509.214,128L521.554,131L533.928,132L546.267,136L558.607,136L570.947,131L583.321,121L595.660,118L608,109L608,152L595.660,151L583.321,147L570.947,148L558.607,145L546.267,142L533.928,137L521.554,134L509.214,130L496.875,130L484.535,124L472.161,117L459.822,98L447.482,83L435.142,71L422.769,61L410.429,63L398.089,52L385.749,38L373.376,28L361.036,20L348.696,27L336.357,41L323.983,35L311.643,33L299.304,32L286.964,54L274.590,63L262.251,76L249.911,76L237.571,85L225.198,86L212.858,94L200.518,106L188.178,111L175.805,109L163.465,115L151.125,117L138.786,105L126.412,104L114.072,96L101.733,71L89.393,82L77.019,100L64.679,106L52.340,106L40,105Z"><title>Paid Subscription</title></path><path fill="#f28e2c" d="M40,105L52.340,106L64.679,106L77.019,100L89.393,82L101.733,71L114.072,96L126.412,104L138.786,105L151.125,117L163.465,115L175.805,109L188.178,111L200.518,106L212.858,94L225.198,86L237.571,85L249.911,76L262.251,76L274.590,63L286.964,54L299.304,32L311.643,33L323.983,35L336.357,41L348.696,27L361.036,20L373.376,28L385.749,38L398.089,52L410.429,63L422.769,61L435.142,65L447.482,74L459.822,86L472.161,106L484.535,116L496.875,125L509.214,126L521.554,129L533.928,131L546.267,136L558.607,136L570.947,131L583.321,121L595.660,117L608,109L608,109L595.660,118L583.321,121L570.947,131L558.607,136L546.267,136L533.928,132L521.554,131L509.214,128L496.875,129L484.535,122L472.161,115L459.822,96L447.482,81L435.142,69L422.769,61L410.429,63L398.089,52L385.749,38L373.376,28L361.036,20L348.696,27L336.357,41L323.983,35L311.643,33L299.304,32L286.964,54L274.590,63L262.251,76L249.911,76L237.571,85L225.198,86L212.858,94L200.518,106L188.178,111L175.805,109L163.465,115L151.125,117L138.786,105L126.412,104L114.072,96L101.733,71L89.393,82L77.019,100L64.679,106L52.340,106L40,105Z"><title>Ringtones &amp; Ringbacks</title></path><path fill="#4e79a7" d="M40,105L52.340,106L64.679,106L77.019,100L89.393,82L101.733,71L114.072,96L126.412,104L138.786,105L151.125,117L163.465,115L175.805,109L188.178,111L200.518,106L212.858,94L225.198,86L237.571,85L249.911,76L262.251,76L274.590,63L286.964,54L299.304,32L311.643,33L323.983,35L336.357,41L348.696,27L361.036,20L373.376,28L385.749,38L398.089,52L410.429,62L422.769,61L435.142,65L447.482,74L459.822,86L472.161,106L484.535,116L496.875,125L509.214,126L521.554,129L533.928,131L546.267,136L558.607,136L570.947,131L583.321,121L595.660,117L608,109L608,109L595.660,117L583.321,121L570.947,131L558.607,136L546.267,136L533.928,131L521.554,129L509.214,126L496.875,125L484.535,116L472.161,106L459.822,86L447.482,74L435.142,65L422.769,61L410.429,63L398.089,52L385.749,38L373.376,28L361.036,20L348.696,27L336.357,41L323.983,35L311.643,33L299.304,32L286.964,54L274.590,63L262.251,76L249.911,76L237.571,85L225.198,86L212.858,94L200.518,106L188.178,111L175.805,109L163.465,115L151.125,117L138.786,105L126.412,104L114.072,96L101.733,71L89.393,82L77.019,100L64.679,106L52.340,106L40,105Z"><title>SACD</title></path><path fill="#76b7b2" d="M40,105L52.340,106L64.679,106L77.019,100L89.393,82L101.733,71L114.072,96L126.412,104L138.786,105L151.125,117L163.465,115L175.805,109L188.178,111L200.518,106L212.858,94L225.198,86L237.571,85L249.911,76L262.251,76L274.590,63L286.964,54L299.304,32L311.643,33L323.983,35L336.357,41L348.696,27L361.036,20L373.376,28L385.749,38L398.089,52L410.429,62L422.769,61L435.142,65L447.482,73L459.822,86L472.161,106L484.535,115L496.875,123L509.214,124L521.554,126L533.928,126L546.267,130L558.607,130L570.947,124L583.321,116L595.660,110L608,103L608,109L595.660,117L583.321,121L570.947,131L558.607,136L546.267,136L533.928,131L521.554,129L509.214,126L496.875,125L484.535,116L472.161,106L459.822,86L447.482,74L435.142,65L422.769,61L410.429,62L398.089,52L385.749,38L373.376,28L361.036,20L348.696,27L336.357,41L323.983,35L311.643,33L299.304,32L286.964,54L274.590,63L262.251,76L249.911,76L237.571,85L225.198,86L212.858,94L200.518,106L188.178,111L175.805,109L163.465,115L151.125,117L138.786,105L126.412,104L114.072,96L101.733,71L89.393,82L77.019,100L64.679,106L52.340,106L40,105Z"><title>SoundExchange Distributions</title></path><path fill="#e15759" d="M40,105L52.340,106L64.679,106L77.019,100L89.393,82L101.733,71L114.072,96L126.412,104L138.786,105L151.125,117L163.465,115L175.805,109L188.178,111L200.518,106L212.858,94L225.198,86L237.571,85L249.911,76L262.251,76L274.590,63L286.964,54L299.304,32L311.643,33L323.983,35L336.357,41L348.696,27L361.036,20L373.376,28L385.749,38L398.089,52L410.429,62L422.769,61L435.142,65L447.482,73L459.822,86L472.161,106L484.535,113L496.875,121L509.214,122L521.554,124L533.928,125L546.267,128L558.607,128L570.947,122L583.321,114L595.660,108L608,101L608,103L595.660,110L583.321,116L570.947,124L558.607,130L546.267,130L533.928,126L521.554,126L509.214,124L496.875,123L484.535,115L472.161,106L459.822,86L447.482,73L435.142,65L422.769,61L410.429,62L398.089,52L385.749,38L373.376,28L361.036,20L348.696,27L336.357,41L323.983,35L311.643,33L299.304,32L286.964,54L274.590,63L262.251,76L249.911,76L237.571,85L225.198,86L212.858,94L200.518,106L188.178,111L175.805,109L163.465,115L151.125,117L138.786,105L126.412,104L114.072,96L101.733,71L89.393,82L77.019,100L64.679,106L52.340,106L40,105Z"><title>Synchronization</title></path><path fill="#edc949" d="M40,97L52.340,98L64.679,99L77.019,92L89.393,74L101.733,64L114.072,87L126.412,98L138.786,100L151.125,111L163.465,111L175.805,104L188.178,106L200.518,103L212.858,90L225.198,83L237.571,83L249.911,75L262.251,75L274.590,62L286.964,53L299.304,31L311.643,32L323.983,34L336.357,41L348.696,26L361.036,20L373.376,28L385.749,38L398.089,52L410.429,62L422.769,61L435.142,65L447.482,73L459.822,86L472.161,105L484.535,113L496.875,121L509.214,122L521.554,124L533.928,125L546.267,128L558.607,128L570.947,122L583.321,114L595.660,108L608,101L608,101L595.660,108L583.321,114L570.947,122L558.607,128L546.267,128L533.928,125L521.554,124L509.214,122L496.875,121L484.535,113L472.161,106L459.822,86L447.482,73L435.142,65L422.769,61L410.429,62L398.089,52L385.749,38L373.376,28L361.036,20L348.696,27L336.357,41L323.983,35L311.643,33L299.304,32L286.964,54L274.590,63L262.251,76L249.911,76L237.571,85L225.198,86L212.858,94L200.518,106L188.178,111L175.805,109L163.465,115L151.125,117L138.786,105L126.412,104L114.072,96L101.733,71L89.393,82L77.019,100L64.679,106L52.340,106L40,105Z"><title>Vinyl Single</title></path></g></svg>