<svg xmlns="http://www.w3.org/2000/svg" width="628" height="200" view_box="0 0 628 200" style="max-width:100%;height:auto;"><g transform="translate(0, 180)" fill="none" font-size="10" font-family="sans-serif" text-anchor="middle"><g class="tick" opacity="1" transform="translate(65.17948336408547, 0)"><line stroke="white" y2="6"/><text fill="white" y="9" dy="0.71em" stroke="none">1975</text></g><g class="tick" opacity="1" transform="translate(126.9119992857568, 0)"><line stroke="white" y2="6"/><text fill="white" y="9" dy="0.71em" stroke="none">1980</text></g><g class="tick" opacity="1" transform="translate(188.6783227188858, 0)"><line stroke="white" y2="6"/><text fill="white" y="9" dy="0.71em" stroke="none">1985</text></g><g class="tick" opacity="1" transform="translate(250.41083864055713, 0)"><line stroke="white" y2="6"/><text fill="white" y="9" dy="0.71em" stroke="none">1990</text></g><g class="tick" opacity="1" transform="translate(312.1433545622284, 0)"><line stroke="white" y2="6"/><text fill="white" y="9" dy="0.71em" stroke="none">1995</text></g><g class="tick" opacity="1" transform="translate(373.87587048389975, 0)"><line stroke="white" y2="6"/><text fill="white" y="9" dy="0.71em" stroke="none">2000</text></g><g class="tick" opacity="1" transform="translate(435.6421939170287, 0)"><line stroke="white" y2="6"/><text fill="white" y="9" dy="0.71em" stroke="none">2005</text></g><g class="tick" opacity="1" transform="translate(497.3747098387001, 0)"><line stroke="white" y2="6"/><text fill="white" y="9" dy="0.71em" stroke="none">2010</text></g><g class="tick" opacity="1" transform="translate(559.1072257603714, 0)"><line stroke="white" y2="6"/><text fill="white" y="9" dy="0.71em" stroke="none">2015</text></g></g><g transform="translate(40,0)" fill="none" font-size="10" font-family="sans-serif" text-anchor="end"><g class="tick" opacity="1" transform="translate(0, 180.5)"><line stroke="white" x2="568" stroke-opacity="0.2"/><line stroke="white" x2="-6"/><text fill="white" x="-9" dy="0.32em" stroke="none">0</text></g><g class="tick" opacity="1" transform="translate(0, 144.5)"><line stroke="white" x2="568" stroke-opacity="0.2"/><line stroke="white" x2="-6"/><text fill="white" x="-9" dy="0.32em" stroke="none">5</text></g><g class="tick" opacity="1" transform="translate(0, 109.5)"><line stroke="white" x2="568" stroke-opacity="0.2"/><line stroke="white" x2="-6"/><text fill="white" x="-9" dy="0.32em" stroke="none">10</text></g><g class="tick" opacity="1" transform="translate(0, 73.5)"><line stroke="white" x2="568" stroke-opacity="0.2"/><line stroke="white" x2="-6"/><text fill="white" x="-9" dy="0.32em" stroke="none">15</text></g><g class="tick" opacity="1" transform="translate(0, 37.5)"><line stroke="white" x2="568" stroke-opacity="0.2"/><line stroke="white" x2="-6"/><text fill="white" x="-9" dy="0.32em" stroke="none">20</text></g><text x="-40" y="10" fill="white" text-anchor="start" stroke="none">&#8593; Annual revenue (billions)</text></g><g><path fill="#59a14f" d="M40,97L52.340,98L64.679,99L77.019,92L89.393,74L101.733,64L114.072,87L126.412,98L138.786,100L151.125,111L163.465,111L175.805,104L188.178,106L200.518,103L212.858,90L225.198,83L237.571,83L249.911,75L262.251,75L274.590,62L286.964,53L299.304,31L311.643,32L323.983,34L336.357,41L348.696,26L361.036,20L373.376,28L385.749,38L398.089,52L410.429,62L422.769,61L435.142,65L447.482,73L459.822,86L472.161,105L484.535,113L496.875,121L509.214,122L521.554,124L533.928,125L546.267,128L558.607,128L570.947,122L583.321,114L595.660,108L608,101L608,101L595.660,108L583.321,114L570.947,122L558.607,128L546.267,128L533.928,125L521.554,124L509.214,122L496.875,121L484.535,113L472.161,105L459.822,86L447.482,73L435.142,65L422.769,61L410.429,62L398.089,52L385.749,38L373.376,28L361.036,20L348.696,26L336.357,41L323.983,34L311.643,32L299.304,31L286.964,53L274.590,62L262.251,75L249.911,75L237.571,83L225.198,83L212.858,90L200.518,103L188.178,106L175.805,104L163.465,111L151.125,112L138.786,106L126.412,110L114.072,105L101.733,91L89.393,99L77.019,114L64.679,119L52.340,119L40,117Z"><title>8 - Track</title></path><path fill="#4e79a7" d="M40,117L52.340,119L64.679,119L77.019,114L89.393,99L101.733,91L114.072,105L126.412,110L138.786,106L151.125,112L163.465,111L175.805,104L188.178,106L200.518,103L212.858,90L225.198,83L237.571,83L249.911,75L262.251,75L274.590,62L286.964,53L299.304,31L311.643,32L323.983,34L336.357,41L348.696,26L361.036,20L373.376,28L385.749,38L398.089,52L410.429,62L422.769,61L435.142,65L447.482,73L459.822,86L472.161,105L484.535,113L496.875,121L509.214,122L521.554,124L533.928,125L546.267,128L558.607,128L570.947,122L583.321,114L595.660,108L608,101L608,105L595.660,113L583.321,122L570.947,131L558.607,139L546.267,142L533.928,142L521.554,144L509.214,147L496.875,150L484.535,150L472.161,152L459.822,152L447.482,158L435.142,163L422.769,171L410.429,174L398.089,174L385.749,171L373.376,168L361.036,161L348.696,154L336.357,154L323.983,150L311.643,145L299.304,136L286.964,135L274.590,132L262.251,133L249.911,123L237.571,121L225.198,116L212.858,116L200.518,118L188.178,113L175.805,106L163.465,111L151.125,112L138.786,106L126.412,110L114.072,105L101.733,91L89.393,99L77.019,114L64.679,119L52.340,119L40,117Z"><title>CD</title></path><path fill="#4e79a7" d="M40,117L52.340,119L64.679,119L77.019,114L89.393,99L101.733,91L114.072,105L126.412,110L138.786,106L151.125,112L163.465,111L175.805,106L188.178,113L200.518,118L212.858,116L225.198,116L237.571,121L249.911,123L262.251,133L274.590,132L286.964,135L299.304,136L311.643,145L323.983,150L336.357,154L348.696,154L361.036,161L373.376,168L385.749,171L398.089,174L410.429,174L422.769,171L435.142,163L447.482,158L459.822,152L472.161,152L484.535,150L496.875,150L509.214,147L521.554,144L533.928,142L546.267,142L558.607,139L570.947,131L583.321,122L595.660,113L608,105L608,105L595.660,113L583.321,122L570.947,131L558.607,139L546.267,142L533.928,142L521.554,144L509.214,147L496.875,150L484.535,150L472.161,152L459.822,152L447.482,158L435.142,164L422.769,171L410.429,174L398.089,174L385.749,172L373.376,170L361.036,163L348.696,157L336.357,157L323.983,152L311.643,146L299.304,136L286.964,136L274.590,132L262.251,134L249.911,123L237.571,121L225.198,116L212.858,116L200.518,118L188.178,113L175.805,106L163.465,111L151.125,112L138.786,106L126.412,110L114.072,105L101.733,91L89.393,99L77.019,114L64.679,119L52.340,119L40,117Z"><title>CD Single</title></path><path fill="#59a14f" d="M40,117L52.340,119L64.679,119L77.019,114L89.393,99L101.733,91L114.072,105L126.412,110L138.786,106L151.125,112L163.465,111L175.805,106L188.178,113L200.518,118L212.858,116L225.198,116L237.571,121L249.911,123L262.251,134L274.590,132L286.964,136L299.304,136L311.643,146L323.983,152L336.357,157L348.696,157L361.036,163L373.376,170L385.749,172L398.089,174L410.429,174L422.769,171L435.142,164L447.482,158L459.822,152L472.161,152L484.535,150L496.875,150L509.214,147L521.554,144L533.928,142L546.267,142L558.607,139L570.947,131L583.321,122L595.660,113L608,105L608,105L595.660,113L583.321,122L570.947,131L558.607,139L546.267,142L533.928,142L521.554,144L509.214,147L496.875,150L484.535,150L472.161,152L459.822,152L447.482,158L435.142,164L422.769,172L410.429,175L398.089,177L385.749,176L373.376,176L361.036,175L348.696,173L336.357,174L323.983,174L311.643,174L299.304,173L286.964,173L274.590,173L262.251,174L249.911,171L237.571,170L225.198,168L212.858,164L200.518,160L188.178,153L175.805,148L163.465,144L151.125,138L138.786,128L126.412,126L114.072,119L101.733,103L89.393,106L77.019,119L64.679,122L52.340,122L40,120Z"><title>Cassette</title></path><path fill="#59a14f" d="M40,120L52.340,122L64.679,122L77.019,119L89.393,106L101.733,103L114.072,119L126.412,126L138.786,128L151.125,138L163.465,144L175.805,148L188.178,153L200.518,160L212.858,164L225.198,168L237.571,170L249.911,171L262.251,174L274.590,173L286.964,173L299.304,173L311.643,174L323.983,174L336.357,174L348.696,173L361.036,175L373.376,176L385.749,176L398.089,177L410.429,175L422.769,172L435.142,164L447.482,158L459.822,152L472.161,152L484.535,150L496.875,150L509.214,147L521.554,144L533.928,142L546.267,142L558.607,139L570.947,131L583.321,122L595.660,113L608,105L608,105L595.660,113L583.321,122L570.947,131L558.607,139L546.267,142L533.928,142L521.554,144L509.214,147L496.875,150L484.535,150L472.161,152L459.822,152L447.482,158L435.142,164L422.769,172L410.429,175L398.089,177L385.749,176L373.376,176L361.036,175L348.696,174L336.357,176L323.983,176L311.643,176L299.304,176L286.964,177L274.590,177L262.251,177L249.911,175L237.571,173L225.198,169L212.858,164L200.518,160L188.178,153L175.805,148L163.465,144L151.125,138L138.786,128L126.412,126L114.072,119L101.733,103L89.393,106L77.019,119L64.679,122L52.340,122L40,120Z"><title>Cassette Single</title></path><path fill="#e15759" d="M40,120L52.340,122L64.679,122L77.019,119L89.393,106L101.733,103L114.072,119L126.412,126L138.786,128L151.125,138L163.465,144L175.805,148L188.178,153L200.518,160L212.858,164L225.198,169L237.571,173L249.911,175L262.251,177L274.590,177L286.964,177L299.304,176L311.643,176L323.983,176L336.357,176L348.696,174L361.036,175L373.376,176L385.749,176L398.089,177L410.429,175L422.769,172L435.142,164L447.482,158L459.822,152L472.161,152L484.535,150L496.875,150L509.214,147L521.554,144L533.928,142L546.267,142L558.607,139L570.947,131L583.321,122L595.660,113L608,105L608,105L595.660,113L583.321,122L570.947,131L558.607,139L546.267,142L533.928,142L521.554,144L509.214,147L496.875,150L484.535,150L472.161,152L459.822,152L447.482,158L435.142,164L422.769,172L410.429,175L398.089,177L385.749,176L373.376,176L361.036,175L348.696,174L336.357,176L323.983,176L311.643,176L299.304,176L286.964,177L274.590,177L262.251,177L249.911,175L237.571,173L225.198,169L212.858,164L200.518,160L188.178,153L175.805,148L163.465,144L151.125,138L138.786,128L126.412,126L114.072,119L101.733,103L89.393,106L77.019,119L64.679,122L52.340,122L40,120Z"><title>DVD Audio</title></path><path fill="#f28e2c" d="M40,120L52.340,122L64.679,122L77.019,119L89.393,106L101.733,103L114.072,119L126.412,126L138.786,128L151.125,138L163.465,144L175.805,148L188.178,153L200.518,160L212.858,164L225.198,169L237.571,173L249.911,175L262.251,177L274.590,177L286.964,177L299.304,176L311.643,176L323.983,176L336.357,176L348.696,174L361.036,175L373.376,176L385.749,176L398.089,177L410.429,175L422.769,172L435.142,164L447.482,158L459.822,152L472.161,152L484.535,150L496.875,150L509.214,147L521.554,144L533.928,142L546.267,142L558.607,139L570.947,131L583.321,122L595.660,113L608,105L608,108L595.660,117L583.321,127L570.947,138L558.607,148L546.267,151L533.928,151L521.554,154L509.214,156L496.875,157L484.535,156L472.161,157L459.822,156L447.482,161L435.142,165L422.769,172L410.429,175L398.089,177L385.749,176L373.376,176L361.036,175L348.696,174L336.357,176L323.983,176L311.643,176L299.304,176L286.964,177L274.590,177L262.251,177L249.911,175L237.571,173L225.198,169L212.858,164L200.518,160L188.178,153L175.805,148L163.465,144L151.125,138L138.786,128L126.412,126L114.072,119L101.733,103L89.393,106L77.019,119L64.679,122L52.340,122L40,120Z"><title>Download Album</title></path><path fill="#f28e2c" d="M40,120L52.340,122L64.679,122L77.019,119L89.393,106L101.733,103L114.072,119L126.412,126L138.786,128L151.125,138L163.465,144L175.805,148L188.178,153L200.518,160L212.858,164L225.198,169L237.571,173L249.911,175L262.251,177L274.590,177L286.964,177L299.304,176L311.643,176L323.983,176L336.357,176L348.696,174L361.036,175L373.376,176L385.749,176L398.089,177L410.429,175L422.769,172L435.142,165L447.482,161L459.822,156L472.161,157L484.535,156L496.875,157L509.214,156L521.554,154L533.928,151L546.267,151L558.607,148L570.947,138L583.321,127L595.660,117L608,108L608,108L595.660,117L583.321,127L570.947,138L558.607,148L546.267,151L533.928,151L521.554,154L509.214,156L496.875,157L484.535,157L472.161,158L459.822,157L447.482,161L435.142,165L422.769,172L410.429,175L398.089,177L385.749,176L373.376,176L361.036,175L348.696,174L336.357,176L323.983,176L311.643,176L299.304,176L286.964,177L274.590,177L262.251,177L249.911,175L237.571,173L225.198,169L212.858,164L200.518,160L188.178,153L175.805,148L163.465,144L151.125,138L138.786,128L126.412,126L114.072,119L101.733,103L89.393,106L77.019,119L64.679,122L52.340,122L40,120Z"><title>Download Music Video</title></path><path fill="#f28e2c" d="M40,120L52.340,122L64.679,122L77.019,119L89.393,106L101.733,103L114.072,119L126.412,126L138.786,128L151.125,138L163.465,144L175.805,148L188.178,153L200.518,160L212.858,164L225.198,169L237.571,173L249.911,175L262.251,177L274.590,177L286.964,177L299.304,176L311.643,176L323.983,176L336.357,176L348.696,174L361.036,175L373.376,176L385.749,176L398.089,177L410.429,175L422.769,172L435.142,165L447.482,161L459.822,157L472.161,158L484.535,157L496.875,157L509.214,156L521.554,154L533.928,151L546.267,151L558.607,148L570.947,138L583.321,127L595.660,117L608,108L608,111L595.660,121L583.321,132L570.947,144L558.607,157L546.267,161L533.928,164L521.554,167L509.214,169L496.875,168L484.535,167L472.161,166L459.822,164L447.482,166L435.142,168L422.769,174L410.429,175L398.089,177L385.749,176L373.376,176L361.036,175L348.696,174L336.357,176L323.983,176L311.643,176L299.304,176L286.964,177L274.590,177L262.251,177L249.911,175L237.571,173L225.198,169L212.858,164L200.518,160L188.178,153L175.805,148L163.465,144L151.125,138L138.786,128L126.412,126L114.072,119L101.733,103L89.393,106L77.019,119L64.679,122L52.340,122L40,120Z"><title>Download Single</title></path><path fill="#e15759" d="M40,120L52.340,122L64.679,122L77.019,119L89.393,106L101.733,103L114.072,119L126.412,126L138.786,128L151.125,138L163.465,144L175.805,148L188.178,153L200.518,160L212.858,164L225.198,169L237.571,173L249.911,175L262.251,177L274.590,177L286.964,177L299.304,176L311.643,176L323.983,176L336.357,176L348.696,174L361.036,175L373.376,176L385.749,176L398.089,177L410.429,175L422.769,174L435.142,168L447.482,166L459.822,164L472.161,166L484.535,167L496.875,168L509.214,169L521.554,167L533.928,164L546.267,161L558.607,157L570.947,144L583.321,132L595.660,121L608,111L608,111L595.660,121L583.321,132L570.947,144L558.607,157L546.267,161L533.928,164L521.554,167L509.214,169L496.875,169L484.535,167L472.161,167L459.822,164L447.482,166L435.142,168L422.769,174L410.429,175L398.089,177L385.749,176L373.376,176L361.036,175L348.696,174L336.357,176L323.983,176L311.643,176L299.304,176L286.964,177L274.590,177L262.251,177L249.911,175L237.571,173L225.198,169L212.858,164L200.518,160L188.178,153L175.805,148L163.465,144L151.125,138L138.786,128L126.412,126L114.072,119L101.733,103L89.393,106L77.019,119L64.679,122L52.340,122L40,120Z"><title>Kiosk</title></path><path fill="#edc949" d="M40,120L52.340,122L64.679,122L77.019,119L89.393,106L101.733,103L114.072,119L126.412,126L138.786,128L151.125,138L163.465,144L175.805,148L188.178,153L200.518,160L212.858,164L225.198,169L237.571,173L249.911,175L262.251,177L274.590,177L286.964,177L299.304,176L311.643,176L323.983,176L336.357,176L348.696,174L361.036,175L373.376,176L385.749,176L398.089,177L410.429,175L422.769,174L435.142,168L447.482,166L459.822,164L472.161,167L484.535,167L496.875,169L509.214,169L521.554,167L533.928,164L546.267,161L558.607,157L570.947,144L583.321,132L595.660,121L608,111L608,114L595.660,124L583.321,135L570.947,147L558.607,159L546.267,163L533.928,165L521.554,168L509.214,170L496.875,169L484.535,167L472.161,167L459.822,164L447.482,167L435.142,169L422.769,174L410.429,176L398.089,177L385.749,176L373.376,177L361.036,176L348.696,174L336.357,176L323.983,177L311.643,177L299.304,177L286.964,177L274.590,177L262.251,178L249.911,176L237.571,177L225.198,177L212.858,177L200.518,176L188.178,175L175.805,175L163.465,175L151.125,175L138.786,175L126.412,174L114.072,171L101.733,173L89.393,173L77.019,172L64.679,172L52.340,172L40,172Z"><title>LP/EP</title></path><path fill="#76b7b2" d="M40,172L52.340,172L64.679,172L77.019,172L89.393,173L101.733,173L114.072,171L126.412,174L138.786,175L151.125,175L163.465,175L175.805,175L188.178,175L200.518,176L212.858,177L225.198,177L237.571,177L249.911,176L262.251,178L274.590,177L286.964,177L299.304,177L311.643,177L323.983,177L336.357,176L348.696,174L361.036,176L373.376,177L385.749,176L398.089,177L410.429,176L422.769,174L435.142,169L447.482,167L459.822,164L472.161,167L484.535,167L496.875,169L509.214,170L521.554,168L533.928,165L546.267,163L558.607,159L570.947,147L583.321,135L595.660,124L608,114L608,120L595.660,129L583.321,140L570.947,149L558.607,159L546.267,163L533.928,165L521.554,168L509.214,170L496.875,169L484.535,167L472.161,167L459.822,164L447.482,167L435.142,169L422.769,174L410.429,176L398.089,177L385.749,176L373.376,177L361.036,176L348.696,174L336.357,176L323.983,177L311.643,177L299.304,177L286.964,177L274.590,177L262.251,178L249.911,176L237.571,177L225.198,177L212.858,177L200.518,176L188.178,175L175.805,175L163.465,175L151.125,175L138.786,175L126.412,174L114.072,171L101.733,173L89.393,173L77.019,172L64.679,172L52.340,172L40,172Z"><title>Limited Tier Paid Subscription</title></path><path fill="#e15759" d="M40,172L52.340,172L64.679,172L77.019,172L89.393,173L101.733,173L114.072,171L126.412,174L138.786,175L151.125,175L163.465,175L175.805,175L188.178,175L200.518,176L212.858,177L225.198,177L237.571,177L249.911,176L262.251,178L274.590,177L286.964,177L299.304,177L311.643,177L323.983,177L336.357,176L348.696,174L361.036,176L373.376,177L385.749,176L398.089,177L410.429,176L422.769,174L435.142,169L447.482,167L459.822,164L472.161,167L484.535,167L496.875,169L509.214,170L521.554,168L533.928,165L546.267,163L558.607,159L570.947,149L583.321,140L595.660,129L608,120L608,120L595.660,129L583.321,140L570.947,150L558.607,160L546.267,164L533.928,166L521.554,169L509.214,171L496.875,171L484.535,169L472.161,169L459.822,168L447.482,171L435.142,174L422.769,180L410.429,180L398.089,180L385.749,180L373.376,180L361.036,180L348.696,180L336.357,180L323.983,179L311.643,179L299.304,179L286.964,179L274.590,179L262.251,179L249.911,179L237.571,178L225.198,177L212.858,177L200.518,176L188.178,175L175.805,175L163.465,175L151.125,175L138.786,175L126.412,174L114.072,171L101.733,173L89.393,173L77.019,172L64.679,172L52.340,172L40,172Z"><title>Music Video (Physical)</title></path><path fill="#76b7b2" d="M40,172L52.340,172L64.679,172L77.019,172L89.393,173L101.733,173L114.072,171L126.412,174L138.786,175L151.125,175L163.465,175L175.805,175L188.178,175L200.518,176L212.858,177L225.198,177L237.571,178L249.911,179L262.251,179L274.590,179L286.964,179L299.304,179L311.643,179L323.983,179L336.357,180L348.696,180L361.036,180L373.376,180L385.749,180L398.089,180L410.429,180L422.769,180L435.142,174L447.482,171L459.822,168L472.161,169L484.535,169L496.875,171L509.214,171L521.554,169L533.928,166L546.267,164L558.607,160L570.947,150L583.321,140L595.660,129L608,120L608,127L595.660,135L583.321,145L570.947,153L558.607,163L546.267,166L533.928,168L521.554,170L509.214,172L496.875,171L484.535,169L472.161,169L459.822,168L447.482,171L435.142,174L422.769,180L410.429,180L398.089,180L385.749,180L373.376,180L361.036,180L348.696,180L336.357,180L323.983,179L311.643,179L299.304,179L286.964,179L274.590,179L262.251,179L249.911,179L237.571,178L225.198,177L212.858,177L200.518,176L188.178,175L175.805,175L163.465,175L151.125,175L138.786,175L126.412,174L114.072,171L101.733,173L89.393,173L77.019,172L64.679,172L52.340,172L40,172Z"><title>On-Demand Streaming (Ad-Supported)</title></path><path fill="#76b7b2" d="M40,172L52.340,172L64.679,172L77.019,172L89.393,173L101.733,173L114.072,171L126.412,174L138.786,175L151.125,175L163.465,175L175.805,175L188.178,175L200.518,176L212.858,177L225.198,177L237.571,178L249.911,179L262.251,179L274.590,179L286.964,179L299.304,179L311.643,179L323.983,179L336.357,180L348.696,180L361.036,180L373.376,180L385.749,180L398.089,180L410.429,180L422.769,180L435.142,174L447.482,171L459.822,168L472.161,169L484.535,169L496.875,171L509.214,172L521.554,170L533.928,168L546.267,166L558.607,163L570.947,153L583.321,145L595.660,135L608,127L608,129L595.660,137L583.321,147L570.947,154L558.607,163L546.267,166L533.928,168L521.554,170L509.214,172L496.875,171L484.535,169L472.161,169L459.822,168L447.482,171L435.142,174L422.769,180L410.429,180L398.089,180L385.749,180L373.376,180L361.036,180L348.696,180L336.357,180L323.983,179L311.643,179L299.304,179L286.964,179L274.590,179L262.251,179L249.911,179L237.571,178L225.198,177L212.858,177L200.518,176L188.178,175L175.805,175L163.465,175L151.125,175L138.786,175L126.412,174L114.072,171L101.733,173L89.393,173L77.019,172L64.679,172L52.340,172L40,172Z"><title>Other Ad-Supported Streaming</title></path><path fill="#f28e2c" d="M40,172L52.340,172L64.679,172L77.019,172L89.393,173L101.733,173L114.072,171L126.412,174L138.786,175L151.125,175L163.465,175L175.805,175L188.178,175L200.518,176L212.858,177L225.198,177L237.571,178L249.911,179L262.251,179L274.590,179L286.964,179L299.304,179L311.643,179L323.983,179L336.357,180L348.696,180L361.036,180L373.376,180L385.749,180L398.089,180L410.429,180L422.769,180L435.142,174L447.482,171L459.822,168L472.161,169L484.535,169L496.875,171L509.214,172L521.554,170L533.928,168L546.267,166L558.607,163L570.947,154L583.321,147L595.660,137L608,129L608,129L595.660,137L583.321,147L570.947,154L558.607,163L546.267,166L533.928,168L521.554,170L509.214,172L496.875,171L484.535,169L472.161,169L459.822,168L447.482,171L435.142,174L422.769,180L410.429,180L398.089,180L385.749,180L373.376,180L361.036,180L348.696,180L336.357,180L323.983,179L311.643,179L299.304,179L286.964,179L274.590,179L262.251,179L249.911,179L237.571,178L225.198,177L212.858,177L200.518,176L188.178,175L175.805,175L163.465,175L151.125,175L138.786,175L126.412,174L114.072,171L101.733,173L89.393,173L77.019,172L64.679,172L52.340,172L40,172Z"><title>Other Digital</title></path><path fill="#59a14f" d="M40,172L52.340,172L64.679,172L77.019,172L89.393,173L101.733,173L114.072,171L126.412,174L138.786,175L151.125,175L163.465,175L175.805,175L188.178,175L200.518,176L212.858,177L225.198,177L237.571,178L249.911,179L262.251,179L274.590,179L286.964,179L299.304,179L311.643,179L323.983,179L336.357,180L348.696,180L361.036,180L373.376,180L385.749,180L398.089,180L410.429,180L422.769,180L435.142,174L447.482,171L459.822,168L472.161,169L484.535,169L496.875,171L509.214,172L521.554,170L533.928,168L546.267,166L558.607,163L570.947,154L583.321,147L595.660,137L608,129L608,129L595.660,137L583.321,147L570.947,154L558.607,163L546.267,166L533.928,168L521.554,170L509.214,172L496.875,171L484.535,169L472.161,169L459.822,168L447.482,171L435.142,174L422.769,180L410.429,180L398.089,180L385.749,180L373.376,180L361.036,180L348.696,180L336.357,180L323.983,179L311.643,179L299.304,179L286.964,179L274.590,179L262.251,179L249.911,179L237.571,178L225.198,177L212.858,177L200.518,176L188.178,175L175.805,175L163.465,175L151.125,175L138.786,175L126.412,174L114.072,171L101.733,173L89.393,173L77.019,172L64.679,173L52.340,173L40,172Z"><title>Other Tapes</title></path><path fill="#76b7b2" d="M40,172L52.340,173L64.679,173L77.019,172L89.393,173L101.733,173L114.072,171L126.412,174L138.786,175L151.125,175L163.465,175L175.805,175L188.178,175L200.518,176L212.858,177L225.198,177L237.571,178L249.911,179L262.251,179L274.590,179L286.964,179L299.304,179L311.643,179L323.983,179L336.357,180L348.696,180L361.036,180L373.376,180L385.749,180L398.089,180L410.429,180L422.769,180L435.142,174L447.482,171L459.822,168L472.161,169L484.535,169L496.875,171L509.214,172L521.554,170L533.928,168L546.267,166L558.607,163L570.947,154L583.321,147L595.660,137L608,129L608,171L595.660,171L583.321,173L570.947,171L558.607,172L546.267,172L533.928,173L521.554,174L509.214,174L496.875,173L484.535,171L472.161,171L459.822,170L447.482,173L435.142,176L422.769,180L410.429,180L398.089,180L385.749,180L373.376,180L361.036,180L348.696,180L336.357,180L323.983,179L311.643,179L299.304,179L286.964,179L274.590,179L262.251,179L249.911,179L237.571,178L225.198,177L212.858,177L200.518,176L188.178,175L175.805,175L163.465,175L151.125,175L138.786,175L126.412,174L114.072,171L101.733,173L89.393,173L77.019,172L64.679,173L52.340,173L40,172Z"><title>Paid Subscription</title></path><path fill="#f28e2c" d="M40,172L52.340,173L64.679,173L77.019,172L89.393,173L101.733,173L114.072,171L126.412,174L138.786,175L151.125,175L163.465,175L175.805,175L188.178,175L200.518,176L212.858,177L225.198,177L237.571,178L249.911,179L262.251,179L274.590,179L286.964,179L299.304,179L311.643,179L323.983,179L336.357,180L348.696,180L361.036,180L373.376,180L385.749,180L398.089,180L410.429,180L422.769,180L435.142,176L447.482,173L459.822,170L472.161,171L484.535,171L496.875,173L509.214,174L521.554,174L533.928,173L546.267,172L558.607,172L570.947,171L583.321,173L595.660,171L608,171L608,171L595.660,171L583.321,173L570.947,172L558.607,172L546.267,173L533.928,174L521.554,175L509.214,176L496.875,176L484.535,177L472.161,179L459.822,180L447.482,180L435.142,180L422.769,180L410.429,180L398.089,180L385.749,180L373.376,180L361.036,180L348.696,180L336.357,180L323.983,179L311.643,179L299.304,179L286.964,179L274.590,179L262.251,179L249.911,179L237.571,178L225.198,177L212.858,177L200.518,176L188.178,175L175.805,175L163.465,175L151.125,175L138.786,175L126.412,174L114.072,171L101.733,173L89.393,173L77.019,172L64.679,173L52.340,173L40,172Z"><title>Ringtones &amp; Ringbacks</title></path><path fill="#4e79a7" d="M40,172L52.340,173L64.679,173L77.019,172L89.393,173L101.733,173L114.072,171L126.412,174L138.786,175L151.125,175L163.465,175L175.805,175L188.178,175L200.518,176L212.858,177L225.198,177L237.571,178L249.911,179L262.251,179L274.590,179L286.964,179L299.304,179L311.643,179L323.983,179L336.357,180L348.696,180L361.036,180L373.376,180L385.749,180L398.089,180L410.429,180L422.769,180L435.142,180L447.482,180L459.822,180L472.161,179L484.535,177L496.875,176L509.214,176L521.554,175L533.928,174L546.267,173L558.607,172L570.947,172L583.321,173L595.660,171L608,171L608,171L595.660,171L583.321,173L570.947,172L558.607,172L546.267,173L533.928,174L521.554,175L509.214,176L496.875,176L484.535,177L472.161,179L459.822,180L447.482,180L435.142,180L422.769,180L410.429,180L398.089,180L385.749,180L373.376,180L361.036,180L348.696,180L336.357,180L323.983,179L311.643,179L299.304,179L286.964,179L274.590,179L262.251,179L249.911,179L237.571,178L225.198,177L212.858,177L200.518,176L188.178,175L175.805,175L163.465,175L151.125,175L138.786,175L126.412,174L114.072,171L101.733,173L89.393,173L77.019,172L64.679,173L52.340,173L40,172Z"><title>SACD</title></path><path fill="#76b7b2" d="M40,172L52.340,173L64.679,173L77.019,172L89.393,173L101.733,173L114.072,171L126.412,174L138.786,175L151.125,175L163.465,175L175.805,175L188.178,175L200.518,176L212.858,177L225.198,177L237.571,178L249.911,179L262.251,179L274.590,179L286.964,179L299.304,179L311.643,179L323.983,179L336.357,180L348.696,180L361.036,180L373.376,180L385.749,180L398.089,180L410.429,180L422.769,180L435.142,180L447.482,180L459.822,180L472.161,179L484.535,177L496.875,176L509.214,176L521.554,175L533.928,174L546.267,173L558.607,172L570.947,172L583.321,173L595.660,171L608,171L608,178L595.660,178L583.321,178L570.947,178L558.607,178L546.267,178L533.928,178L521.554,178L509.214,178L496.875,178L484.535,178L472.161,180L459.822,180L447.482,180L435.142,180L422.769,180L410.429,180L398.089,180L385.749,180L373.376,180L361.036,180L348.696,180L336.357,180L323.983,179L311.643,179L299.304,179L286.964,179L274.590,179L262.251,179L249.911,179L237.571,178L225.198,177L212.858,177L200.518,176L188.178,175L175.805,175L163.465,175L151.125,175L138.786,175L126.412,174L114.072,171L101.733,173L89.393,173L77.019,172L64.679,173L52.340,173L40,172Z"><title>SoundExchange Distributions</title></path><path fill="#e15759" d="M40,172L52.340,173L64.679,173L77.019,172L89.393,173L101.733,173L114.072,171L126.412,174L138.786,175L151.125,175L163.465,175L175.805,175L188.178,175L200.518,176L212.858,177L225.198,177L237.571,178L249.911,179L262.251,179L274.590,179L286.964,179L299.304,179L311.643,179L323.983,179L336.357,180L348.696,180L361.036,180L373.376,180L385.749,180L398.089,180L410.429,180L422.769,180L435.142,180L447.482,180L459.822,180L472.161,180L484.535,178L496.875,178L509.214,178L521.554,178L533.928,178L546.267,178L558.607,178L570.947,178L583.321,178L595.660,178L608,178L608,180L595.660,180L583.321,180L570.947,180L558.607,180L546.267,180L533.928,180L521.554,180L509.214,180L496.875,180L484.535,180L472.161,180L459.822,180L447.482,180L435.142,180L422.769,180L410.429,180L398.089,180L385.749,180L373.376,180L361.036,180L348.696,180L336.357,180L323.983,179L311.643,179L299.304,179L286.964,179L274.590,179L262.251,179L249.911,179L237.571,178L225.198,177L212.858,177L200.518,176L188.178,175L175.805,175L163.465,175L151.125,175L138.786,175L126.412,174L114.072,171L101.733,173L89.393,173L77.019,172L64.679,173L52.340,173L40,172Z"><title>Synchronization</title></path><path fill="#edc949" d="M40,172L52.340,173L64.679,173L77.019,172L89.393,173L101.733,173L114.072,171L126.412,174L138.786,175L151.125,175L163.465,175L175.805,175L188.178,175L200.518,176L212.858,177L225.198,177L237.571,178L249.911,179L262.251,179L274.590,179L286.964,179L299.304,179L311.643,179L323.983,179L336.357,180L348.696,180L361.036,180L373.376,180L385.749,180L398.089,180L410.429,180L422.769,180L435.142,180L447.482,180L459.822,180L472.161,180L484.535,180L496.875,180L509.214,180L521.554,180L533.928,180L546.267,180L558.607,180L570.947,180L583.321,180L595.660,180L608,180L608,180L595.660,180L583.321,180L570.947,180L558.607,180L546.267,180L533.928,180L521.554,180L509.214,180L496.875,180L484.535,180L472.161,180L459.822,180L447.482,180L435.142,180L422.769,180L410.429,180L398.089,180L385.749,180L373.376,180L361.036,180L348.696,180L336.357,180L323.983,180L311.643,180L299.304,180L286.964,180L274.590,180L262.251,180L249.911,180L237.571,180L225.198,180L212.858,180L200.518,180L188.178,180L175.805,180L163.465,180L151.125,180L138.786,180L126.412,180L114.072,180L101.733,180L89.393,180L77.019,180L64.679,180L52.340,180L40,180Z"><title>Vinyl Single</title></path></g></svg>