<svg xmlns="http://www.w3.org/2000/svg" width="640" height="640" viewBox="-320.0, -320.0, 640, 640" style="max-width: 100%; height: auto; font: 10px sans-serif;"><g><g><path fill="#ffffff" d="M0,-290A290,290,0,0,1,284.038,58.500L264.449,54.466A270,270,0,0,0,0,-270Z"><title>29,630 black</title></path><g><g transform="rotate(-90.0) translate(290.0,0)"><line stroke="#ffffff" x2="6"/><text x="8" dy=".35em" transform="none" text-anchor="none" fill="#ffffff">0k</text></g><g transform="rotate(-86.56976527263136) translate(290.0,0)"><line stroke="#ffffff" x2="6"/></g><g transform="rotate(-83.13953054526272) translate(290.0,0)"><line stroke="#ffffff" x2="6"/></g><g transform="rotate(-79.70929581789406) translate(290.0,0)"><line stroke="#ffffff" x2="6"/></g><g transform="rotate(-76.27906109052542) translate(290.0,0)"><line stroke="#ffffff" x2="6"/></g><g transform="rotate(-72.84882636315677) translate(290.0,0)"><line stroke="#ffffff" x2="6"/><text x="8" dy=".35em" transform="none" text-anchor="none" fill="#ffffff">5k</text></g><g transform="rotate(-69.41859163578813) translate(290.0,0)"><line stroke="#ffffff" x2="6"/></g><g transform="rotate(-65.98835690841949) translate(290.0,0)"><line stroke="#ffffff" x2="6"/></g><g transform="rotate(-62.55812218105084) translate(290.0,0)"><line stroke="#ffffff" x2="6"/></g><g transform="rotate(-59.1278874536822) translate(290.0,0)"><line stroke="#ffffff" x2="6"/></g><g transform="rotate(-55.69765272631355) translate(290.0,0)"><line stroke="#ffffff" x2="6"/><text x="8" dy=".35em" transform="none" text-anchor="none" fill="#ffffff">10k</text></g><g transform="rotate(-52.26741799894491) translate(290.0,0)"><line stroke="#ffffff" x2="6"/></g><g transform="rotate(-48.837183271576265) translate(290.0,0)"><line stroke="#ffffff" x2="6"/></g><g transform="rotate(-45.406948544207616) translate(290.0,0)"><line stroke="#ffffff" x2="6"/></g><g transform="rotate(-41.97671381683897) translate(290.0,0)"><line stroke="#ffffff" x2="6"/></g><g transform="rotate(-38.54647908947033) translate(290.0,0)"><line stroke="#ffffff" x2="6"/><text x="8" dy=".35em" transform="none" text-anchor="none" fill="#ffffff">15k</text></g><g transform="rotate(-35.11624436210168) translate(290.0,0)"><line stroke="#ffffff" x2="6"/></g><g transform="rotate(-31.68600963473304) translate(290.0,0)"><line stroke="#ffffff" x2="6"/></g><g transform="rotate(-28.255774907364398) translate(290.0,0)"><line stroke="#ffffff" x2="6"/></g><g transform="rotate(-24.825540179995755) translate(290.0,0)"><line stroke="#ffffff" x2="6"/></g><g transform="rotate(-21.3953054526271) translate(290.0,0)"><line stroke="#ffffff" x2="6"/><text x="8" dy=".35em" transform="none" text-anchor="none" fill="#ffffff">20k</text></g><g transform="rotate(-17.965070725258457) translate(290.0,0)"><line stroke="#ffffff" x2="6"/></g><g transform="rotate(-14.534835997889815) translate(290.0,0)"><line stroke="#ffffff" x2="6"/></g><g transform="rotate(-11.104601270521172) translate(290.0,0)"><line stroke="#ffffff" x2="6"/></g><g transform="rotate(-7.67436654315253) translate(290.0,0)"><line stroke="#ffffff" x2="6"/></g><g transform="rotate(-4.244131815783888) translate(290.0,0)"><line stroke="#ffffff" x2="6"/><text x="8" dy=".35em" transform="none" text-anchor="none" fill="#ffffff">25k</text></g><g transform="rotate(-0.8138970884152315) translate(290.0,0)"><line stroke="#ffffff" x2="6"/></g><g transform="rotate(2.6163376389534108) translate(290.0,0)"><line stroke="#ffffff" x2="6"/></g><g transform="rotate(6.046572366322053) translate(290.0,0)"><line stroke="#ffffff" x2="6"/></g><g transform="rotate(9.476807093690695) translate(290.0,0)"><line stroke="#ffffff" x2="6"/></g></g></g><g><path fill="#ffdd89" d="M278.930,79.360A290,290,0,0,1,23.885,289.015L22.238,269.083A270,270,0,0,0,259.693,73.887Z"><title>20,230 blond</title></path><g><g transform="rotate(15.881986787716826) translate(290.0,0)"><line stroke="#ffffff" x2="6"/><text x="8" dy=".35em" transform="none" text-anchor="none" fill="#ffffff">0k</text></g><g transform="rotate(19.31222151508547) translate(290.0,0)"><line stroke="#ffffff" x2="6"/></g><g transform="rotate(22.74245624245411) translate(290.0,0)"><line stroke="#ffffff" x2="6"/></g><g transform="rotate(26.17269096982278) translate(290.0,0)"><line stroke="#ffffff" x2="6"/></g><g transform="rotate(29.60292569719141) translate(290.0,0)"><line stroke="#ffffff" x2="6"/></g><g transform="rotate(33.03316042456004) translate(290.0,0)"><line stroke="#ffffff" x2="6"/><text x="8" dy=".35em" transform="none" text-anchor="none" fill="#ffffff">5k</text></g><g transform="rotate(36.463395151928694) translate(290.0,0)"><line stroke="#ffffff" x2="6"/></g><g transform="rotate(39.89362987929735) translate(290.0,0)"><line stroke="#ffffff" x2="6"/></g><g transform="rotate(43.32386460666598) translate(290.0,0)"><line stroke="#ffffff" x2="6"/></g><g transform="rotate(46.754099334034606) translate(290.0,0)"><line stroke="#ffffff" x2="6"/></g><g transform="rotate(50.18433406140326) translate(290.0,0)"><line stroke="#ffffff" x2="6"/><text x="8" dy=".35em" transform="none" text-anchor="none" fill="#ffffff">10k</text></g><g transform="rotate(53.61456878877192) translate(290.0,0)"><line stroke="#ffffff" x2="6"/></g><g transform="rotate(57.044803516140576) translate(290.0,0)"><line stroke="#ffffff" x2="6"/></g><g transform="rotate(60.4750382435092) translate(290.0,0)"><line stroke="#ffffff" x2="6"/></g><g transform="rotate(63.90527297087786) translate(290.0,0)"><line stroke="#ffffff" x2="6"/></g><g transform="rotate(67.33550769824652) translate(290.0,0)"><line stroke="#ffffff" x2="6"/><text x="8" dy=".35em" transform="none" text-anchor="none" fill="#ffffff">15k</text></g><g transform="rotate(70.76574242561514) translate(290.0,0)"><line stroke="#ffffff" x2="6"/></g><g transform="rotate(74.19597715298377) translate(290.0,0)"><line stroke="#ffffff" x2="6"/></g><g transform="rotate(77.62621188035243) translate(290.0,0)"><line stroke="#ffffff" x2="6"/></g><g transform="rotate(81.05644660772109) translate(290.0,0)"><line stroke="#ffffff" x2="6"/></g><g transform="rotate(84.48668133508971) translate(290.0,0)"><line stroke="#ffffff" x2="6"/><text x="8" dy=".35em" transform="none" text-anchor="none" fill="#ffffff">20k</text></g></g></g><g><path fill="#957244" d="M2.431,289.990A290,290,0,0,1,-195.084,-214.574L-181.630,-199.776A270,270,0,0,0,2.263,269.991Z"><title>40,290 brown</title></path><g><g transform="rotate(89.51976713816839) translate(290.0,0)"><line stroke="#ffffff" x2="6"/><text x="8" dy=".35em" transform="none" text-anchor="none" fill="#ffffff">0k</text></g><g transform="rotate(92.95000186553705) translate(290.0,0)"><line stroke="#ffffff" x2="6"/></g><g transform="rotate(96.38023659290567) translate(290.0,0)"><line stroke="#ffffff" x2="6"/></g><g transform="rotate(99.81047132027433) translate(290.0,0)"><line stroke="#ffffff" x2="6"/></g><g transform="rotate(103.24070604764296) translate(290.0,0)"><line stroke="#ffffff" x2="6"/></g><g transform="rotate(106.67094077501162) translate(290.0,0)"><line stroke="#ffffff" x2="6"/><text x="8" dy=".35em" transform="rotate(180) translate(-16)" text-anchor="end" fill="#ffffff">5k</text></g><g transform="rotate(110.10117550238024) translate(290.0,0)"><line stroke="#ffffff" x2="6"/></g><g transform="rotate(113.5314102297489) translate(290.0,0)"><line stroke="#ffffff" x2="6"/></g><g transform="rotate(116.96164495711753) translate(290.0,0)"><line stroke="#ffffff" x2="6"/></g><g transform="rotate(120.39187968448618) translate(290.0,0)"><line stroke="#ffffff" x2="6"/></g><g transform="rotate(123.82211441185487) translate(290.0,0)"><line stroke="#ffffff" x2="6"/><text x="8" dy=".35em" transform="rotate(180) translate(-16)" text-anchor="end" fill="#ffffff">10k</text></g><g transform="rotate(127.2523491392235) translate(290.0,0)"><line stroke="#ffffff" x2="6"/></g><g transform="rotate(130.68258386659215) translate(290.0,0)"><line stroke="#ffffff" x2="6"/></g><g transform="rotate(134.11281859396078) translate(290.0,0)"><line stroke="#ffffff" x2="6"/></g><g transform="rotate(137.54305332132944) translate(290.0,0)"><line stroke="#ffffff" x2="6"/></g><g transform="rotate(140.97328804869807) translate(290.0,0)"><line stroke="#ffffff" x2="6"/><text x="8" dy=".35em" transform="rotate(180) translate(-16)" text-anchor="end" fill="#ffffff">15k</text></g><g transform="rotate(144.40352277606675) translate(290.0,0)"><line stroke="#ffffff" x2="6"/></g><g transform="rotate(147.83375750343538) translate(290.0,0)"><line stroke="#ffffff" x2="6"/></g><g transform="rotate(151.263992230804) translate(290.0,0)"><line stroke="#ffffff" x2="6"/></g><g transform="rotate(154.69422695817264) translate(290.0,0)"><line stroke="#ffffff" x2="6"/></g><g transform="rotate(158.12446168554132) translate(290.0,0)"><line stroke="#ffffff" x2="6"/><text x="8" dy=".35em" transform="rotate(180) translate(-16)" text-anchor="end" fill="#ffffff">20k</text></g><g transform="rotate(161.55469641290995) translate(290.0,0)"><line stroke="#ffffff" x2="6"/></g><g transform="rotate(164.9849311402786) translate(290.0,0)"><line stroke="#ffffff" x2="6"/></g><g transform="rotate(168.41516586764726) translate(290.0,0)"><line stroke="#ffffff" x2="6"/></g><g transform="rotate(171.84540059501592) translate(290.0,0)"><line stroke="#ffffff" x2="6"/></g><g transform="rotate(175.27563532238452) translate(290.0,0)"><line stroke="#ffffff" x2="6"/><text x="8" dy=".35em" transform="rotate(180) translate(-16)" text-anchor="end" fill="#ffffff">25k</text></g><g transform="rotate(178.70587004975317) translate(290.0,0)"><line stroke="#ffffff" x2="6"/></g><g transform="rotate(182.13610477712183) translate(290.0,0)"><line stroke="#ffffff" x2="6"/></g><g transform="rotate(185.5663395044905) translate(290.0,0)"><line stroke="#ffffff" x2="6"/></g><g transform="rotate(188.99657423185914) translate(290.0,0)"><line stroke="#ffffff" x2="6"/></g><g transform="rotate(192.4268089592278) translate(290.0,0)"><line stroke="#ffffff" x2="6"/><text x="8" dy=".35em" transform="rotate(180) translate(-16)" text-anchor="end" fill="#ffffff">30k</text></g><g transform="rotate(195.85704368659646) translate(290.0,0)"><line stroke="#ffffff" x2="6"/></g><g transform="rotate(199.28727841396505) translate(290.0,0)"><line stroke="#ffffff" x2="6"/></g><g transform="rotate(202.7175131413337) translate(290.0,0)"><line stroke="#ffffff" x2="6"/></g><g transform="rotate(206.1477478687023) translate(290.0,0)"><line stroke="#ffffff" x2="6"/></g><g transform="rotate(209.57798259607102) translate(290.0,0)"><line stroke="#ffffff" x2="6"/><text x="8" dy=".35em" transform="rotate(180) translate(-16)" text-anchor="end" fill="#ffffff">35k</text></g><g transform="rotate(213.00821732343962) translate(290.0,0)"><line stroke="#ffffff" x2="6"/></g><g transform="rotate(216.43845205080834) translate(290.0,0)"><line stroke="#ffffff" x2="6"/></g><g transform="rotate(219.86868677817694) translate(290.0,0)"><line stroke="#ffffff" x2="6"/></g><g transform="rotate(223.2989215055456) translate(290.0,0)"><line stroke="#ffffff" x2="6"/></g><g transform="rotate(226.72915623291425) translate(290.0,0)"><line stroke="#ffffff" x2="6"/><text x="8" dy=".35em" transform="rotate(180) translate(-16)" text-anchor="end" fill="#ffffff">40k</text></g></g></g><g><path fill="#f26223" d="M-178.669,-228.424A290,290,0,0,1,-21.462,-289.205L-19.982,-269.260A270,270,0,0,0,-166.347,-212.670Z"><title>9,850 red</title></path><g><g transform="rotate(231.96805611963504) translate(290.0,0)"><line stroke="#ffffff" x2="6"/><text x="8" dy=".35em" transform="rotate(180) translate(-16)" text-anchor="end" fill="#ffffff">0k</text></g><g transform="rotate(235.3982908470037) translate(290.0,0)"><line stroke="#ffffff" x2="6"/></g><g transform="rotate(238.8285255743723) translate(290.0,0)"><line stroke="#ffffff" x2="6"/></g><g transform="rotate(242.258760301741) translate(290.0,0)"><line stroke="#ffffff" x2="6"/></g><g transform="rotate(245.6889950291096) translate(290.0,0)"><line stroke="#ffffff" x2="6"/></g><g transform="rotate(249.11922975647826) translate(290.0,0)"><line stroke="#ffffff" x2="6"/><text x="8" dy=".35em" transform="rotate(180) translate(-16)" text-anchor="end" fill="#ffffff">5k</text></g><g transform="rotate(252.54946448384686) translate(290.0,0)"><line stroke="#ffffff" x2="6"/></g><g transform="rotate(255.97969921121552) translate(290.0,0)"><line stroke="#ffffff" x2="6"/></g><g transform="rotate(259.4099339385841) translate(290.0,0)"><line stroke="#ffffff" x2="6"/></g><g transform="rotate(262.84016866595283) translate(290.0,0)"><line stroke="#ffffff" x2="6"/></g></g></g></g><g fill-opacity="0.7"><path d="M0,-270A270,270,0,0,1,177.410,-203.533Q0,0,0,-270Z" fill="#ffffff" stroke="black"><title>11,975 black &#8594; black</title></path><path d="M256.287,-84.952A270,270,0,0,1,269.867,8.481Q0,0,53.445,264.658A270,270,0,0,1,22.238,269.083Q0,0,256.287,-84.952Z" fill="#ffdd89" stroke="black"><title>5,871 black &#8594; blond
1,951 blond &#8594; black</title></path><path d="M177.410,-203.533A270,270,0,0,1,256.287,-84.952Q0,0,-253.315,-93.442A270,270,0,0,1,-181.630,-199.776Q0,0,177.410,-203.533Z" fill="#957244" stroke="black"><title>8,916 black &#8594; brown
8,010 brown &#8594; black</title></path><path d="M269.867,8.481A270,270,0,0,1,264.449,54.466Q0,0,-66.869,-261.588A270,270,0,0,1,-50.891,-265.160Q0,0,269.867,8.481Z" fill="#f26223" stroke="black"><title>2,868 black &#8594; red
1,013 red &#8594; black</title></path><path d="M259.693,73.887A270,270,0,0,1,172.290,207.885Q0,0,259.693,73.887Z" fill="#ffdd89" stroke="black"><title>10,048 blond &#8594; blond</title></path><path d="M2.263,269.991A270,270,0,0,1,-220.903,155.248Q0,0,85.596,256.073A270,270,0,0,1,53.445,264.658Q0,0,2.263,269.991Z" fill="#ffdd89" stroke="black"><title>16,145 brown &#8594; blond
2,060 blond &#8594; brown</title></path><path d="M172.290,207.885A270,270,0,0,1,85.596,256.073Q0,0,-50.891,-265.160A270,270,0,0,1,-35.095,-267.709Q0,0,172.290,207.885Z" fill="#f26223" stroke="black"><title>6,171 blond &#8594; red
990 red &#8594; blond</title></path><path d="M-220.903,155.248A270,270,0,0,1,-267.782,34.534Q0,0,-220.903,155.248Z" fill="#957244" stroke="black"><title>8,090 brown &#8594; brown</title></path><path d="M-267.782,34.534A270,270,0,0,1,-253.315,-93.442Q0,0,-35.095,-267.709A270,270,0,0,1,-19.982,-269.260Q0,0,-267.782,34.534Z" fill="#f26223" stroke="black"><title>8,045 brown &#8594; red
940 red &#8594; brown</title></path><path d="M-166.347,-212.670A270,270,0,0,1,-66.869,-261.588Q0,0,-166.347,-212.670Z" fill="#f26223" stroke="black"><title>6,907 red &#8594; red</title></path></g></svg>