<svg xmlns="http://www.w3.org/2000/svg" font-family="system-ui, sans-serif" font-size="10" text-anchor="middle" style="color: white;" width="640" height="800" viewBox="0 0 640 800" fill="rgb(0, 0, 0)"><g fill="currentColor" font-family="system-ui, sans-serif" font-size="10" text-anchor="middle" style="color: white;" transform="translate(0, 0)"><style>:where(.plot-d6a7b5) {
  --plot-background: white;
  display: block;
  height: auto;
  height: intrinsic;
  max-width: 100%;
}
:where(.plot-d6a7b5 text),
:where(.plot-d6a7b5 tspan) {
  white-space: pre;
}</style><g aria-label="fy-axis tick label" transform="translate(9.5,0.5)"><g text-anchor="start" transform="translate(0,0)"><text y="0.32em" transform="translate(550,77)">Waseca</text></g><g text-anchor="start" transform="translate(0,127)"><text y="0.32em" transform="translate(550,77)">Crookston</text></g><g text-anchor="start" transform="translate(0,254)"><text y="0.32em" transform="translate(550,77)">Morris</text></g><g text-anchor="start" transform="translate(0,381)"><text y="0.32em" transform="translate(550,77)">University Farm</text></g><g text-anchor="start" transform="translate(0,508)"><text y="0.32em" transform="translate(550,77)">Duluth</text></g><g text-anchor="start" transform="translate(0,635)"><text y="0.32em" transform="translate(550,77)">Grand Rapids</text></g></g><g aria-label="fy-axis label" transform="translate(87.5,0.5)"><text transform="translate(550,394.5) rotate(-90)">site</text></g><g aria-label="y-grid" transform="translate(0,0.5)"><g stroke="currentColor" stroke-opacity="0.1" transform="translate(0,0)"><line x1="110" x2="550" y1="32" y2="32"/><line x1="110" x2="550" y1="42" y2="42"/><line x1="110" x2="550" y1="52" y2="52"/><line x1="110" x2="550" y1="62" y2="62"/><line x1="110" x2="550" y1="72" y2="72"/><line x1="110" x2="550" y1="82" y2="82"/><line x1="110" x2="550" y1="92" y2="92"/><line x1="110" x2="550" y1="102" y2="102"/><line x1="110" x2="550" y1="112" y2="112"/><line x1="110" x2="550" y1="122" y2="122"/></g><g stroke="currentColor" stroke-opacity="0.1" transform="translate(0,127)"><line x1="110" x2="550" y1="32" y2="32"/><line x1="110" x2="550" y1="42" y2="42"/><line x1="110" x2="550" y1="52" y2="52"/><line x1="110" x2="550" y1="62" y2="62"/><line x1="110" x2="550" y1="72" y2="72"/><line x1="110" x2="550" y1="82" y2="82"/><line x1="110" x2="550" y1="92" y2="92"/><line x1="110" x2="550" y1="102" y2="102"/><line x1="110" x2="550" y1="112" y2="112"/><line x1="110" x2="550" y1="122" y2="122"/></g><g stroke="currentColor" stroke-opacity="0.1" transform="translate(0,254)"><line x1="110" x2="550" y1="32" y2="32"/><line x1="110" x2="550" y1="42" y2="42"/><line x1="110" x2="550" y1="52" y2="52"/><line x1="110" x2="550" y1="62" y2="62"/><line x1="110" x2="550" y1="72" y2="72"/><line x1="110" x2="550" y1="82" y2="82"/><line x1="110" x2="550" y1="92" y2="92"/><line x1="110" x2="550" y1="102" y2="102"/><line x1="110" x2="550" y1="112" y2="112"/><line x1="110" x2="550" y1="122" y2="122"/></g><g stroke="currentColor" stroke-opacity="0.1" transform="translate(0,381)"><line x1="110" x2="550" y1="32" y2="32"/><line x1="110" x2="550" y1="42" y2="42"/><line x1="110" x2="550" y1="52" y2="52"/><line x1="110" x2="550" y1="62" y2="62"/><line x1="110" x2="550" y1="72" y2="72"/><line x1="110" x2="550" y1="82" y2="82"/><line x1="110" x2="550" y1="92" y2="92"/><line x1="110" x2="550" y1="102" y2="102"/><line x1="110" x2="550" y1="112" y2="112"/><line x1="110" x2="550" y1="122" y2="122"/></g><g stroke="currentColor" stroke-opacity="0.1" transform="translate(0,508)"><line x1="110" x2="550" y1="32" y2="32"/><line x1="110" x2="550" y1="42" y2="42"/><line x1="110" x2="550" y1="52" y2="52"/><line x1="110" x2="550" y1="62" y2="62"/><line x1="110" x2="550" y1="72" y2="72"/><line x1="110" x2="550" y1="82" y2="82"/><line x1="110" x2="550" y1="92" y2="92"/><line x1="110" x2="550" y1="102" y2="102"/><line x1="110" x2="550" y1="112" y2="112"/><line x1="110" x2="550" y1="122" y2="122"/></g><g stroke="currentColor" stroke-opacity="0.1" transform="translate(0,635)"><line x1="110" x2="550" y1="32" y2="32"/><line x1="110" x2="550" y1="42" y2="42"/><line x1="110" x2="550" y1="52" y2="52"/><line x1="110" x2="550" y1="62" y2="62"/><line x1="110" x2="550" y1="72" y2="72"/><line x1="110" x2="550" y1="82" y2="82"/><line x1="110" x2="550" y1="92" y2="92"/><line x1="110" x2="550" y1="102" y2="102"/><line x1="110" x2="550" y1="112" y2="112"/><line x1="110" x2="550" y1="122" y2="122"/></g></g><g aria-label="y-axis tick" transform="translate(0,0.5)"><g fill="none" stroke="currentColor" transform="translate(0,0)"><path transform="translate(110,32)" d="M0,0L-6,0"/><path transform="translate(110,42)" d="M0,0L-6,0"/><path transform="translate(110,52)" d="M0,0L-6,0"/><path transform="translate(110,62)" d="M0,0L-6,0"/><path transform="translate(110,72)" d="M0,0L-6,0"/><path transform="translate(110,82)" d="M0,0L-6,0"/><path transform="translate(110,92)" d="M0,0L-6,0"/><path transform="translate(110,102)" d="M0,0L-6,0"/><path transform="translate(110,112)" d="M0,0L-6,0"/><path transform="translate(110,122)" d="M0,0L-6,0"/></g><g fill="none" stroke="currentColor" transform="translate(0,127)"><path transform="translate(110,32)" d="M0,0L-6,0"/><path transform="translate(110,42)" d="M0,0L-6,0"/><path transform="translate(110,52)" d="M0,0L-6,0"/><path transform="translate(110,62)" d="M0,0L-6,0"/><path transform="translate(110,72)" d="M0,0L-6,0"/><path transform="translate(110,82)" d="M0,0L-6,0"/><path transform="translate(110,92)" d="M0,0L-6,0"/><path transform="translate(110,102)" d="M0,0L-6,0"/><path transform="translate(110,112)" d="M0,0L-6,0"/><path transform="translate(110,122)" d="M0,0L-6,0"/></g><g fill="none" stroke="currentColor" transform="translate(0,254)"><path transform="translate(110,32)" d="M0,0L-6,0"/><path transform="translate(110,42)" d="M0,0L-6,0"/><path transform="translate(110,52)" d="M0,0L-6,0"/><path transform="translate(110,62)" d="M0,0L-6,0"/><path transform="translate(110,72)" d="M0,0L-6,0"/><path transform="translate(110,82)" d="M0,0L-6,0"/><path transform="translate(110,92)" d="M0,0L-6,0"/><path transform="translate(110,102)" d="M0,0L-6,0"/><path transform="translate(110,112)" d="M0,0L-6,0"/><path transform="translate(110,122)" d="M0,0L-6,0"/></g><g fill="none" stroke="currentColor" transform="translate(0,381)"><path transform="translate(110,32)" d="M0,0L-6,0"/><path transform="translate(110,42)" d="M0,0L-6,0"/><path transform="translate(110,52)" d="M0,0L-6,0"/><path transform="translate(110,62)" d="M0,0L-6,0"/><path transform="translate(110,72)" d="M0,0L-6,0"/><path transform="translate(110,82)" d="M0,0L-6,0"/><path transform="translate(110,92)" d="M0,0L-6,0"/><path transform="translate(110,102)" d="M0,0L-6,0"/><path transform="translate(110,112)" d="M0,0L-6,0"/><path transform="translate(110,122)" d="M0,0L-6,0"/></g><g fill="none" stroke="currentColor" transform="translate(0,508)"><path transform="translate(110,32)" d="M0,0L-6,0"/><path transform="translate(110,42)" d="M0,0L-6,0"/><path transform="translate(110,52)" d="M0,0L-6,0"/><path transform="translate(110,62)" d="M0,0L-6,0"/><path transform="translate(110,72)" d="M0,0L-6,0"/><path transform="translate(110,82)" d="M0,0L-6,0"/><path transform="translate(110,92)" d="M0,0L-6,0"/><path transform="translate(110,102)" d="M0,0L-6,0"/><path transform="translate(110,112)" d="M0,0L-6,0"/><path transform="translate(110,122)" d="M0,0L-6,0"/></g><g fill="none" stroke="currentColor" transform="translate(0,635)"><path transform="translate(110,32)" d="M0,0L-6,0"/><path transform="translate(110,42)" d="M0,0L-6,0"/><path transform="translate(110,52)" d="M0,0L-6,0"/><path transform="translate(110,62)" d="M0,0L-6,0"/><path transform="translate(110,72)" d="M0,0L-6,0"/><path transform="translate(110,82)" d="M0,0L-6,0"/><path transform="translate(110,92)" d="M0,0L-6,0"/><path transform="translate(110,102)" d="M0,0L-6,0"/><path transform="translate(110,112)" d="M0,0L-6,0"/><path transform="translate(110,122)" d="M0,0L-6,0"/></g></g><g aria-label="y-axis tick label" transform="translate(-8.5,0.5)"><g text-anchor="end" transform="translate(0,0)"><text y="0.32em" transform="translate(110,32)">Trebi</text><text y="0.32em" transform="translate(110,42)">Wisconsin No. 38</text><text y="0.32em" transform="translate(110,52)">No. 457</text><text y="0.32em" transform="translate(110,62)">Glabron</text><text y="0.32em" transform="translate(110,72)">Peatland</text><text y="0.32em" transform="translate(110,82)">Velvet</text><text y="0.32em" transform="translate(110,92)">No. 475</text><text y="0.32em" transform="translate(110,102)">Manchuria</text><text y="0.32em" transform="translate(110,112)">No. 462</text><text y="0.32em" transform="translate(110,122)">Svansota</text></g><g text-anchor="end" transform="translate(0,127)"><text y="0.32em" transform="translate(110,32)">Trebi</text><text y="0.32em" transform="translate(110,42)">Wisconsin No. 38</text><text y="0.32em" transform="translate(110,52)">No. 457</text><text y="0.32em" transform="translate(110,62)">Glabron</text><text y="0.32em" transform="translate(110,72)">Peatland</text><text y="0.32em" transform="translate(110,82)">Velvet</text><text y="0.32em" transform="translate(110,92)">No. 475</text><text y="0.32em" transform="translate(110,102)">Manchuria</text><text y="0.32em" transform="translate(110,112)">No. 462</text><text y="0.32em" transform="translate(110,122)">Svansota</text></g><g text-anchor="end" transform="translate(0,254)"><text y="0.32em" transform="translate(110,32)">Trebi</text><text y="0.32em" transform="translate(110,42)">Wisconsin No. 38</text><text y="0.32em" transform="translate(110,52)">No. 457</text><text y="0.32em" transform="translate(110,62)">Glabron</text><text y="0.32em" transform="translate(110,72)">Peatland</text><text y="0.32em" transform="translate(110,82)">Velvet</text><text y="0.32em" transform="translate(110,92)">No. 475</text><text y="0.32em" transform="translate(110,102)">Manchuria</text><text y="0.32em" transform="translate(110,112)">No. 462</text><text y="0.32em" transform="translate(110,122)">Svansota</text></g><g text-anchor="end" transform="translate(0,381)"><text y="0.32em" transform="translate(110,32)">Trebi</text><text y="0.32em" transform="translate(110,42)">Wisconsin No. 38</text><text y="0.32em" transform="translate(110,52)">No. 457</text><text y="0.32em" transform="translate(110,62)">Glabron</text><text y="0.32em" transform="translate(110,72)">Peatland</text><text y="0.32em" transform="translate(110,82)">Velvet</text><text y="0.32em" transform="translate(110,92)">No. 475</text><text y="0.32em" transform="translate(110,102)">Manchuria</text><text y="0.32em" transform="translate(110,112)">No. 462</text><text y="0.32em" transform="translate(110,122)">Svansota</text></g><g text-anchor="end" transform="translate(0,508)"><text y="0.32em" transform="translate(110,32)">Trebi</text><text y="0.32em" transform="translate(110,42)">Wisconsin No. 38</text><text y="0.32em" transform="translate(110,52)">No. 457</text><text y="0.32em" transform="translate(110,62)">Glabron</text><text y="0.32em" transform="translate(110,72)">Peatland</text><text y="0.32em" transform="translate(110,82)">Velvet</text><text y="0.32em" transform="translate(110,92)">No. 475</text><text y="0.32em" transform="translate(110,102)">Manchuria</text><text y="0.32em" transform="translate(110,112)">No. 462</text><text y="0.32em" transform="translate(110,122)">Svansota</text></g><g text-anchor="end" transform="translate(0,635)"><text y="0.32em" transform="translate(110,32)">Trebi</text><text y="0.32em" transform="translate(110,42)">Wisconsin No. 38</text><text y="0.32em" transform="translate(110,52)">No. 457</text><text y="0.32em" transform="translate(110,62)">Glabron</text><text y="0.32em" transform="translate(110,72)">Peatland</text><text y="0.32em" transform="translate(110,82)">Velvet</text><text y="0.32em" transform="translate(110,92)">No. 475</text><text y="0.32em" transform="translate(110,102)">Manchuria</text><text y="0.32em" transform="translate(110,112)">No. 462</text><text y="0.32em" transform="translate(110,122)">Svansota</text></g></g><g aria-label="y-axis label" transform="translate(-106.5,0.5)"><text y="0.71em" transform="translate(110,394.5) rotate(-90)">variety</text></g><g aria-label="x-grid" transform="translate(0.5,0)"><g stroke="currentColor" stroke-opacity="0.1" transform="translate(0,0)"><line x1="110" x2="110" y1="20" y2="134"/><line x1="183.33333333333331" x2="183.33333333333331" y1="20" y2="134"/><line x1="256.66666666666663" x2="256.66666666666663" y1="20" y2="134"/><line x1="330" x2="330" y1="20" y2="134"/><line x1="403.3333333333333" x2="403.3333333333333" y1="20" y2="134"/><line x1="476.6666666666667" x2="476.6666666666667" y1="20" y2="134"/><line x1="550" x2="550" y1="20" y2="134"/></g><g stroke="currentColor" stroke-opacity="0.1" transform="translate(0,127)"><line x1="110" x2="110" y1="20" y2="134"/><line x1="183.33333333333331" x2="183.33333333333331" y1="20" y2="134"/><line x1="256.66666666666663" x2="256.66666666666663" y1="20" y2="134"/><line x1="330" x2="330" y1="20" y2="134"/><line x1="403.3333333333333" x2="403.3333333333333" y1="20" y2="134"/><line x1="476.6666666666667" x2="476.6666666666667" y1="20" y2="134"/><line x1="550" x2="550" y1="20" y2="134"/></g><g stroke="currentColor" stroke-opacity="0.1" transform="translate(0,254)"><line x1="110" x2="110" y1="20" y2="134"/><line x1="183.33333333333331" x2="183.33333333333331" y1="20" y2="134"/><line x1="256.66666666666663" x2="256.66666666666663" y1="20" y2="134"/><line x1="330" x2="330" y1="20" y2="134"/><line x1="403.3333333333333" x2="403.3333333333333" y1="20" y2="134"/><line x1="476.6666666666667" x2="476.6666666666667" y1="20" y2="134"/><line x1="550" x2="550" y1="20" y2="134"/></g><g stroke="currentColor" stroke-opacity="0.1" transform="translate(0,381)"><line x1="110" x2="110" y1="20" y2="134"/><line x1="183.33333333333331" x2="183.33333333333331" y1="20" y2="134"/><line x1="256.66666666666663" x2="256.66666666666663" y1="20" y2="134"/><line x1="330" x2="330" y1="20" y2="134"/><line x1="403.3333333333333" x2="403.3333333333333" y1="20" y2="134"/><line x1="476.6666666666667" x2="476.6666666666667" y1="20" y2="134"/><line x1="550" x2="550" y1="20" y2="134"/></g><g stroke="currentColor" stroke-opacity="0.1" transform="translate(0,508)"><line x1="110" x2="110" y1="20" y2="134"/><line x1="183.33333333333331" x2="183.33333333333331" y1="20" y2="134"/><line x1="256.66666666666663" x2="256.66666666666663" y1="20" y2="134"/><line x1="330" x2="330" y1="20" y2="134"/><line x1="403.3333333333333" x2="403.3333333333333" y1="20" y2="134"/><line x1="476.6666666666667" x2="476.6666666666667" y1="20" y2="134"/><line x1="550" x2="550" y1="20" y2="134"/></g><g stroke="currentColor" stroke-opacity="0.1" transform="translate(0,635)"><line x1="110" x2="110" y1="20" y2="134"/><line x1="183.33333333333331" x2="183.33333333333331" y1="20" y2="134"/><line x1="256.66666666666663" x2="256.66666666666663" y1="20" y2="134"/><line x1="330" x2="330" y1="20" y2="134"/><line x1="403.3333333333333" x2="403.3333333333333" y1="20" y2="134"/><line x1="476.6666666666667" x2="476.6666666666667" y1="20" y2="134"/><line x1="550" x2="550" y1="20" y2="134"/></g></g><g aria-label="x-axis tick" transform="translate(0.5,0)"><g fill="none" stroke="currentColor" transform="translate(0,635)"><path transform="translate(110,134)" d="M0,0L0,6"/><path transform="translate(183.33333333333331,134)" d="M0,0L0,6"/><path transform="translate(256.66666666666663,134)" d="M0,0L0,6"/><path transform="translate(330,134)" d="M0,0L0,6"/><path transform="translate(403.3333333333333,134)" d="M0,0L0,6"/><path transform="translate(476.6666666666667,134)" d="M0,0L0,6"/><path transform="translate(550,134)" d="M0,0L0,6"/></g></g><g aria-label="x-axis tick label" transform="translate(0.5,9.5)"><g font-variant="tabular-nums" transform="translate(0,635)"><text y="0.71em" transform="translate(110,134)">10</text><text y="0.71em" transform="translate(183.33333333333331,134)">20</text><text y="0.71em" transform="translate(256.66666666666663,134)">30</text><text y="0.71em" transform="translate(330,134)">40</text><text y="0.71em" transform="translate(403.3333333333333,134)">50</text><text y="0.71em" transform="translate(476.6666666666667,134)">60</text><text y="0.71em" transform="translate(550,134)">70</text></g></g><g aria-label="x-axis label" text-anchor="end" transform="translate(87.5,27.5)"><text transform="translate(550,769)">yield →</text></g><g aria-label="frame" transform="translate(0.5,0.5)"><rect fill="none" stroke="currentColor" x="110" y="20" width="440" height="114" transform="translate(0,0)"/><rect fill="none" stroke="currentColor" x="110" y="20" width="440" height="114" transform="translate(0,127)"/><rect fill="none" stroke="currentColor" x="110" y="20" width="440" height="114" transform="translate(0,254)"/><rect fill="none" stroke="currentColor" x="110" y="20" width="440" height="114" transform="translate(0,381)"/><rect fill="none" stroke="currentColor" x="110" y="20" width="440" height="114" transform="translate(0,508)"/><rect fill="none" stroke="currentColor" x="110" y="20" width="440" height="114" transform="translate(0,635)"/></g><g aria-label="dot" transform="translate(0.5,0.5)"><g fill="none" stroke-width="1.5" transform="translate(0,0)"><circle cx="395.02224666666666" cy="102" r="3" stroke="#4269d0"/><circle cx="441.4666666666667" cy="62" r="3" stroke="#4269d0"/><circle cx="383.77775333333335" cy="122" r="3" stroke="#4269d0"/><circle cx="405.04442000000006" cy="82" r="3" stroke="#4269d0"/><circle cx="504.77753333333334" cy="32" r="3" stroke="#4269d0"/><circle cx="462.7333333333333" cy="52" r="3" stroke="#4269d0"/><circle cx="518.9558" cy="112" r="3" stroke="#4269d0"/><circle cx="392.82217333333335" cy="72" r="3" stroke="#4269d0"/><circle cx="379.6222466666666" cy="92" r="3" stroke="#4269d0"/><circle cx="467.8666666666666" cy="42" r="3" stroke="#4269d0"/><circle cx="282.0889133333333" cy="102" r="3" stroke="#efb118"/><circle cx="313.3777533333334" cy="62" r="3" stroke="#efb118"/><circle cx="319" cy="122" r="3" stroke="#efb118"/><circle cx="310.93333333333334" cy="82" r="3" stroke="#efb118"/><circle cx="397.7108666666667" cy="32" r="3" stroke="#efb118"/><circle cx="346.1333333333333" cy="52" r="3" stroke="#efb118"/><circle cx="364.4666666666667" cy="112" r="3" stroke="#efb118"/><circle cx="300.9110866666667" cy="72" r="3" stroke="#efb118"/><circle cx="339.28891333333337" cy="92" r="3" stroke="#efb118"/><circle cx="463.2222466666667" cy="42" r="3" stroke="#efb118"/></g><g fill="none" stroke-width="1.5" transform="translate(0,127)"><circle cx="329.51108666666664" cy="102" r="3" stroke="#4269d0"/><circle cx="316.3110866666667" cy="62" r="3" stroke="#4269d0"/><circle cx="333.4222466666667" cy="122" r="3" stroke="#4269d0"/><circle cx="339.77775333333335" cy="82" r="3" stroke="#4269d0"/><circle cx="380.84441999999996" cy="32" r="3" stroke="#4269d0"/><circle cx="371.55558" cy="52" r="3" stroke="#4269d0"/><circle cx="392.82217333333335" cy="112" r="3" stroke="#4269d0"/><circle cx="341.73333333333335" cy="72" r="3" stroke="#4269d0"/><circle cx="360.0666666666667" cy="92" r="3" stroke="#4269d0"/><circle cx="402.35558000000003" cy="42" r="3" stroke="#4269d0"/><circle cx="278.42224666666664" cy="102" r="3" stroke="#efb118"/><circle cx="228.55558" cy="62" r="3" stroke="#efb118"/><circle cx="187.97775333333334" cy="122" r="3" stroke="#efb118"/><circle cx="271.82217333333335" cy="82" r="3" stroke="#efb118"/><circle cx="343.44442" cy="32" r="3" stroke="#efb118"/><circle cx="288.44442" cy="52" r="3" stroke="#efb118"/><circle cx="260.57775333333336" cy="112" r="3" stroke="#efb118"/><circle cx="221.71108666666663" cy="72" r="3" stroke="#efb118"/><circle cx="272.31108666666665" cy="92" r="3" stroke="#efb118"/><circle cx="299.93333333333334" cy="42" r="3" stroke="#efb118"/></g><g fill="none" stroke-width="1.5" transform="translate(0,254)"><circle cx="237.84449333333333" cy="102" r="3" stroke="#4269d0"/><circle cx="247.62224666666668" cy="62" r="3" stroke="#4269d0"/><circle cx="225.62224666666668" cy="122" r="3" stroke="#4269d0"/><circle cx="228.31108666666665" cy="82" r="3" stroke="#4269d0"/><circle cx="357.6222466666667" cy="32" r="3" stroke="#4269d0"/><circle cx="247.13333333333333" cy="52" r="3" stroke="#4269d0"/><circle cx="259.35558" cy="112" r="3" stroke="#4269d0"/><circle cx="255.68891333333335" cy="72" r="3" stroke="#4269d0"/><circle cx="202.40000000000003" cy="92" r="3" stroke="#4269d0"/><circle cx="252.75558" cy="42" r="3" stroke="#4269d0"/><circle cx="288.68884" cy="102" r="3" stroke="#efb118"/><circle cx="294.31108666666665" cy="62" r="3" stroke="#efb118"/><circle cx="293.57775333333336" cy="122" r="3" stroke="#efb118"/><circle cx="321.44442" cy="82" r="3" stroke="#efb118"/><circle cx="378.64441999999997" cy="32" r="3" stroke="#efb118"/><circle cx="355.91116" cy="52" r="3" stroke="#efb118"/><circle cx="381.33333333333337" cy="112" r="3" stroke="#efb118"/><circle cx="353.46666666666664" cy="72" r="3" stroke="#efb118"/><circle cx="361.04442" cy="92" r="3" stroke="#efb118"/><circle cx="382.55558" cy="42" r="3" stroke="#efb118"/></g><g fill="none" stroke-width="1.5" transform="translate(0,381)"><circle cx="234.66666666666669" cy="102" r="3" stroke="#4269d0"/><circle cx="352.48884000000004" cy="62" r="3" stroke="#4269d0"/><circle cx="294.31108666666665" cy="122" r="3" stroke="#4269d0"/><circle cx="329.26666666666665" cy="82" r="3" stroke="#4269d0"/><circle cx="304.8221733333333" cy="32" r="3" stroke="#4269d0"/><circle cx="353.95558" cy="52" r="3" stroke="#4269d0"/><circle cx="305.06666666666666" cy="112" r="3" stroke="#4269d0"/><circle cx="276.95558" cy="72" r="3" stroke="#4269d0"/><circle cx="217.55558000000002" cy="92" r="3" stroke="#4269d0"/><circle cx="324.8666666666667" cy="42" r="3" stroke="#4269d0"/><circle cx="233.93333333333328" cy="102" r="3" stroke="#efb118"/><circle cx="306.5333333333333" cy="62" r="3" stroke="#efb118"/><circle cx="237.84449333333333" cy="122" r="3" stroke="#efb118"/><circle cx="233.20000000000005" cy="82" r="3" stroke="#efb118"/><circle cx="249.82224666666667" cy="32" r="3" stroke="#efb118"/><circle cx="230.51116" cy="52" r="3" stroke="#efb118"/><circle cx="224.15558" cy="112" r="3" stroke="#efb118"/><circle cx="242.48891333333336" cy="72" r="3" stroke="#efb118"/><circle cx="256.66666666666663" cy="92" r="3" stroke="#efb118"/><circle cx="315.33333333333337" cy="42" r="3" stroke="#efb118"/></g><g fill="none" stroke-width="1.5" transform="translate(0,508)"><circle cx="249.08891333333332" cy="102" r="3" stroke="#4269d0"/><circle cx="254.22224666666665" cy="62" r="3" stroke="#4269d0"/><circle cx="225.13333333333333" cy="122" r="3" stroke="#4269d0"/><circle cx="229.5333333333333" cy="82" r="3" stroke="#4269d0"/><circle cx="285.51108666666664" cy="32" r="3" stroke="#4269d0"/><circle cx="283.06666666666666" cy="52" r="3" stroke="#4269d0"/><circle cx="242.73333333333335" cy="112" r="3" stroke="#4269d0"/><circle cx="271.3333333333333" cy="72" r="3" stroke="#4269d0"/><circle cx="279.15550666666667" cy="92" r="3" stroke="#4269d0"/><circle cx="268.40000000000003" cy="42" r="3" stroke="#4269d0"/><circle cx="202.15558" cy="102" r="3" stroke="#efb118"/><circle cx="226.35557999999997" cy="62" r="3" stroke="#efb118"/><circle cx="199.7110866666667" cy="122" r="3" stroke="#efb118"/><circle cx="201.4222466666667" cy="82" r="3" stroke="#efb118"/><circle cx="261.0666666666667" cy="32" r="3" stroke="#efb118"/><circle cx="203.13333333333333" cy="52" r="3" stroke="#efb118"/><circle cx="201.66666666666669" cy="112" r="3" stroke="#efb118"/><circle cx="266.68891333333335" cy="72" r="3" stroke="#efb118"/><circle cx="237.35557999999997" cy="92" r="3" stroke="#efb118"/><circle cx="251.7777533333333" cy="42" r="3" stroke="#efb118"/></g><g fill="none" stroke-width="1.5" transform="translate(0,635)"><circle cx="278.42224666666664" cy="102" r="3" stroke="#4269d0"/><circle cx="250.31108666666665" cy="62" r="3" stroke="#4269d0"/><circle cx="254.22224666666665" cy="122" r="3" stroke="#4269d0"/><circle cx="205.5777533333333" cy="82" r="3" stroke="#4269d0"/><circle cx="254.95558" cy="32" r="3" stroke="#4269d0"/><circle cx="272.55558" cy="52" r="3" stroke="#4269d0"/><circle cx="219.51116000000002" cy="112" r="3" stroke="#4269d0"/><circle cx="291.1333333333334" cy="72" r="3" stroke="#4269d0"/><circle cx="181.13333333333333" cy="92" r="3" stroke="#4269d0"/><circle cx="289.42224666666664" cy="42" r="3" stroke="#4269d0"/><circle cx="198.97775333333334" cy="102" r="3" stroke="#efb118"/><circle cx="142.51108666666667" cy="62" r="3" stroke="#efb118"/><circle cx="158.64442" cy="122" r="3" stroke="#efb118"/><circle cx="273.04442" cy="82" r="3" stroke="#efb118"/><circle cx="187.97775333333334" cy="32" r="3" stroke="#efb118"/><circle cx="179.4222466666667" cy="52" r="3" stroke="#efb118"/><circle cx="182.59999999999997" cy="112" r="3" stroke="#efb118"/><circle cx="232.95558" cy="72" r="3" stroke="#efb118"/><circle cx="148.37775333333332" cy="92" r="3" stroke="#efb118"/><circle cx="188.22224666666665" cy="42" r="3" stroke="#efb118"/></g></g></g></svg>