<svg xmlns="http://www.w3.org/2000/svg" width="810" height="240.0" viewBox="0 0 810 240.0"><rect x="5" y="0" width="800" height="240.0" fill="#2b2b2e"/><g class="xlines"><line x1="25.0" y1="240.0" x2="25.0" y2="0.0" stroke="#202020"/><line x1="45.0" y1="240.0" x2="45.0" y2="0.0" stroke="#202020"/><line x1="65.0" y1="240.0" x2="65.0" y2="0.0" stroke="#202020"/><line x1="85.0" y1="240.0" x2="85.0" y2="0.0" stroke="#202020"/><line x1="105.0" y1="240.0" x2="105.0" y2="0.0" stroke="#202020"/><line x1="125.0" y1="240.0" x2="125.0" y2="0.0" stroke="#202020"/><line x1="145.0" y1="240.0" x2="145.0" y2="0.0" stroke="#202020"/><line x1="165.0" y1="240.0" x2="165.0" y2="0.0" stroke="#202020"/><line x1="185.0" y1="240.0" x2="185.0" y2="0.0" stroke="#202020"/><line x1="205.0" y1="240.0" x2="205.0" y2="0.0" stroke="#202020"/><line x1="225.00000000000003" y1="240.0" x2="225.00000000000003" y2="0.0" stroke="#202020"/><line x1="245.0" y1="240.0" x2="245.0" y2="0.0" stroke="#202020"/><line x1="265.0" y1="240.0" x2="265.0" y2="0.0" stroke="#202020"/><line x1="285.0" y1="240.0" x2="285.0" y2="0.0" stroke="#202020"/><line x1="305.0" y1="240.0" x2="305.0" y2="0.0" stroke="#202020"/><line x1="325.0" y1="240.0" x2="325.0" y2="0.0" stroke="#202020"/><line x1="345.0" y1="240.0" x2="345.0" y2="0.0" stroke="#202020"/><line x1="365.0" y1="240.0" x2="365.0" y2="0.0" stroke="#202020"/><line x1="385.0" y1="240.0" x2="385.0" y2="0.0" stroke="#202020"/><line x1="405.0" y1="240.0" x2="405.0" y2="0.0" stroke="#202020"/><line x1="425.0" y1="240.0" x2="425.0" y2="0.0" stroke="#202020"/><line x1="445.00000000000006" y1="240.0" x2="445.00000000000006" y2="0.0" stroke="#202020"/><line x1="464.99999999999994" y1="240.0" x2="464.99999999999994" y2="0.0" stroke="#202020"/><line x1="485.0" y1="240.0" x2="485.0" y2="0.0" stroke="#202020"/><line x1="505.0" y1="240.0" x2="505.0" y2="0.0" stroke="#202020"/><line x1="525.0" y1="240.0" x2="525.0" y2="0.0" stroke="#202020"/><line x1="545.0" y1="240.0" x2="545.0" y2="0.0" stroke="#202020"/><line x1="565.0" y1="240.0" x2="565.0" y2="0.0" stroke="#202020"/><line x1="585.0" y1="240.0" x2="585.0" y2="0.0" stroke="#202020"/><line x1="605.0" y1="240.0" x2="605.0" y2="0.0" stroke="#202020"/><line x1="625.0" y1="240.0" x2="625.0" y2="0.0" stroke="#202020"/><line x1="645.0" y1="240.0" x2="645.0" y2="0.0" stroke="#202020"/><line x1="665.0" y1="240.0" x2="665.0" y2="0.0" stroke="#202020"/><line x1="685.0" y1="240.0" x2="685.0" y2="0.0" stroke="#202020"/><line x1="705.0" y1="240.0" x2="705.0" y2="0.0" stroke="#202020"/><line x1="725.0" y1="240.0" x2="725.0" y2="0.0" stroke="#202020"/><line x1="745.0" y1="240.0" x2="745.0" y2="0.0" stroke="#202020"/><line x1="765.0" y1="240.0" x2="765.0" y2="0.0" stroke="#202020"/><line x1="785.0" y1="240.0" x2="785.0" y2="0.0" stroke="#202020"/></g><g class="ylines"><line x1="5.0" y1="220.0" x2="805.0" y2="220.0" stroke="#202020"/><line x1="5.0" y1="200.0" x2="805.0" y2="200.0" stroke="#202020"/><line x1="5.0" y1="180.0" x2="805.0" y2="180.0" stroke="#202020"/><line x1="5.0" y1="160.00000000000003" x2="805.0" y2="160.00000000000003" stroke="#202020"/><line x1="5.0" y1="139.99999999999997" x2="805.0" y2="139.99999999999997" stroke="#202020"/><line x1="5.0" y1="120.0" x2="805.0" y2="120.0" stroke="#202020"/><line x1="5.0" y1="99.99999999999999" x2="805.0" y2="99.99999999999999" stroke="#202020"/><line x1="5.0" y1="80.00000000000001" x2="805.0" y2="80.00000000000001" stroke="#202020"/><line x1="5.0" y1="60.0" x2="805.0" y2="60.0" stroke="#202020"/><line x1="5.0" y1="39.99999999999999" x2="805.0" y2="39.99999999999999" stroke="#202020"/><line x1="5.0" y1="20.000000000000007" x2="805.0" y2="20.000000000000007" stroke="#202020"/></g><g class="ease"><path d="M5,240L8.200,239.971L11.400,239.884L14.600,239.739L17.800,239.535L21,239.274L24.200,238.955L27.400,238.577L30.600,238.141L33.800,237.648L37,237.096L40.200,236.486L43.400,235.818L46.600,235.092L49.800,234.308L53,233.466L56.200,232.566L59.400,231.607L62.600,230.591L65.800,229.517L69,228.384L72.200,227.193L75.400,225.945L78.600,224.638L81.800,223.273L85,221.850L88.200,220.369L91.400,218.830L94.600,217.233L97.800,215.577L101,213.864L104.200,212.093L107.400,210.263L110.600,208.375L113.800,206.430L117,204.426L120.200,202.364L123.400,200.244L126.600,198.066L129.800,195.830L133,193.536L136.200,191.184L139.400,188.773L142.600,186.305L145.800,183.779L149,181.194L152.200,178.551L155.400,175.851L158.600,173.092L161.800,170.275L165,167.400L168.200,164.467L171.400,161.476L174.600,158.427L177.800,155.319L181,152.154L184.200,148.931L187.400,145.649L190.600,142.309L193.800,138.912L197,135.456L200.200,131.942L203.400,128.370L206.600,124.740L209.800,121.052L213,117.306L216.200,113.502L219.400,109.639L222.600,105.719L225.800,101.741L229,97.704L232.200,93.609L235.400,89.457L238.600,85.246L241.800,80.977L245,76.650L248.200,72.265L251.400,67.822L254.600,63.321L257.800,58.761L261,54.144L264.200,49.469L267.400,44.735L270.600,39.943L273.800,35.094L277,30.186L280.200,25.220L283.400,20.196L286.600,15.114L289.800,9.974L293,4.776L296.200,0.240L299.400,2.845L302.600,5.393L305.800,7.883L309,10.314L312.200,12.687L315.400,15.003L318.600,17.260L321.800,19.459L325,21.600L328.200,23.683L331.400,25.708L334.600,27.675L337.800,29.583L341,31.434L344.200,33.227L347.400,34.961L350.600,36.637L353.800,38.256L357,39.816L360.200,41.318L363.400,42.762L366.600,44.148L369.800,45.476L373,46.746L376.200,47.958L379.400,49.111L382.600,50.207L385.800,51.245L389,52.224L392.200,53.145L395.400,54.009L398.600,54.814L401.800,55.561L405,56.250L408.200,56.881L411.400,57.454L414.600,57.969L417.800,58.425L421,58.824L424.200,59.165L427.400,59.447L430.600,59.671L433.800,59.838L437,59.946L440.200,59.996L443.400,59.988L446.600,59.922L449.800,59.798L453,59.616L456.200,59.376L459.400,59.077L462.600,58.721L465.800,58.307L469,57.834L472.200,57.303L475.400,56.715L478.600,56.068L481.800,55.363L485,54.600L488.200,53.779L491.400,52.900L494.600,51.963L497.800,50.967L501,49.914L504.200,48.803L507.400,47.633L510.600,46.405L513.800,45.120L517,43.776L520.200,42.374L523.400,40.914L526.600,39.396L529.800,37.820L533,36.186L536.200,34.494L539.400,32.743L542.600,30.935L545.800,29.069L549,27.144L552.200,25.161L555.400,23.121L558.600,21.022L561.800,18.865L565,16.650L568.200,14.377L571.400,12.046L574.600,9.657L577.800,7.209L581,4.704L584.200,2.141L587.400,0.239L590.600,1.519L593.800,2.742L597,3.906L600.200,5.012L603.400,6.060L606.600,7.050L609.800,7.982L613,8.856L616.200,9.672L619.400,10.429L622.600,11.129L625.800,11.771L629,12.354L632.200,12.879L635.400,13.347L638.600,13.756L641.800,14.107L645,14.400L648.200,14.635L651.400,14.812L654.600,14.931L657.800,14.991L661,14.994L664.200,14.939L667.400,14.825L670.600,14.653L673.800,14.424L677,14.136L680.200,13.790L683.400,13.386L686.600,12.924L689.800,12.404L693,11.826L696.200,11.190L699.400,10.495L702.600,9.743L705.800,8.933L709,8.064L712.200,7.137L715.400,6.153L718.600,5.110L721.800,4.009L725,2.850L728.200,1.633L731.400,0.358L734.600,0.465L737.800,1.053L741,1.584L744.200,2.057L747.400,2.471L750.600,2.827L753.800,3.126L757,3.366L760.200,3.548L763.400,3.672L766.600,3.738L769.800,3.746L773,3.696L776.200,3.588L779.400,3.421L782.600,3.197L785.800,2.915L789,2.574L792.200,2.175L795.400,1.719L798.600,1.204L801.800,0.631L805,0" stroke="white" fill="none"/></g></svg>