<svg xmlns="http://www.w3.org/2000/svg" width="810" height="240.0" viewBox="0 0 810 240.0"><rect x="5" y="0" width="800" height="240.0" fill="#2b2b2e"/><g class="xlines"><line x1="25.0" y1="240.0" x2="25.0" y2="0.0" stroke="#202020"/><line x1="45.0" y1="240.0" x2="45.0" y2="0.0" stroke="#202020"/><line x1="65.0" y1="240.0" x2="65.0" y2="0.0" stroke="#202020"/><line x1="85.0" y1="240.0" x2="85.0" y2="0.0" stroke="#202020"/><line x1="105.0" y1="240.0" x2="105.0" y2="0.0" stroke="#202020"/><line x1="125.0" y1="240.0" x2="125.0" y2="0.0" stroke="#202020"/><line x1="145.0" y1="240.0" x2="145.0" y2="0.0" stroke="#202020"/><line x1="165.0" y1="240.0" x2="165.0" y2="0.0" stroke="#202020"/><line x1="185.0" y1="240.0" x2="185.0" y2="0.0" stroke="#202020"/><line x1="205.0" y1="240.0" x2="205.0" y2="0.0" stroke="#202020"/><line x1="225.00000000000003" y1="240.0" x2="225.00000000000003" y2="0.0" stroke="#202020"/><line x1="245.0" y1="240.0" x2="245.0" y2="0.0" stroke="#202020"/><line x1="265.0" y1="240.0" x2="265.0" y2="0.0" stroke="#202020"/><line x1="285.0" y1="240.0" x2="285.0" y2="0.0" stroke="#202020"/><line x1="305.0" y1="240.0" x2="305.0" y2="0.0" stroke="#202020"/><line x1="325.0" y1="240.0" x2="325.0" y2="0.0" stroke="#202020"/><line x1="345.0" y1="240.0" x2="345.0" y2="0.0" stroke="#202020"/><line x1="365.0" y1="240.0" x2="365.0" y2="0.0" stroke="#202020"/><line x1="385.0" y1="240.0" x2="385.0" y2="0.0" stroke="#202020"/><line x1="405.0" y1="240.0" x2="405.0" y2="0.0" stroke="#202020"/><line x1="425.0" y1="240.0" x2="425.0" y2="0.0" stroke="#202020"/><line x1="445.00000000000006" y1="240.0" x2="445.00000000000006" y2="0.0" stroke="#202020"/><line x1="464.99999999999994" y1="240.0" x2="464.99999999999994" y2="0.0" stroke="#202020"/><line x1="485.0" y1="240.0" x2="485.0" y2="0.0" stroke="#202020"/><line x1="505.0" y1="240.0" x2="505.0" y2="0.0" stroke="#202020"/><line x1="525.0" y1="240.0" x2="525.0" y2="0.0" stroke="#202020"/><line x1="545.0" y1="240.0" x2="545.0" y2="0.0" stroke="#202020"/><line x1="565.0" y1="240.0" x2="565.0" y2="0.0" stroke="#202020"/><line x1="585.0" y1="240.0" x2="585.0" y2="0.0" stroke="#202020"/><line x1="605.0" y1="240.0" x2="605.0" y2="0.0" stroke="#202020"/><line x1="625.0" y1="240.0" x2="625.0" y2="0.0" stroke="#202020"/><line x1="645.0" y1="240.0" x2="645.0" y2="0.0" stroke="#202020"/><line x1="665.0" y1="240.0" x2="665.0" y2="0.0" stroke="#202020"/><line x1="685.0" y1="240.0" x2="685.0" y2="0.0" stroke="#202020"/><line x1="705.0" y1="240.0" x2="705.0" y2="0.0" stroke="#202020"/><line x1="725.0" y1="240.0" x2="725.0" y2="0.0" stroke="#202020"/><line x1="745.0" y1="240.0" x2="745.0" y2="0.0" stroke="#202020"/><line x1="765.0" y1="240.0" x2="765.0" y2="0.0" stroke="#202020"/><line x1="785.0" y1="240.0" x2="785.0" y2="0.0" stroke="#202020"/></g><g class="ylines"><line x1="5.0" y1="220.0" x2="805.0" y2="220.0" stroke="#202020"/><line x1="5.0" y1="200.0" x2="805.0" y2="200.0" stroke="#202020"/><line x1="5.0" y1="180.0" x2="805.0" y2="180.0" stroke="#202020"/><line x1="5.0" y1="160.00000000000003" x2="805.0" y2="160.00000000000003" stroke="#202020"/><line x1="5.0" y1="139.99999999999997" x2="805.0" y2="139.99999999999997" stroke="#202020"/><line x1="5.0" y1="120.0" x2="805.0" y2="120.0" stroke="#202020"/><line x1="5.0" y1="99.99999999999999" x2="805.0" y2="99.99999999999999" stroke="#202020"/><line x1="5.0" y1="80.00000000000001" x2="805.0" y2="80.00000000000001" stroke="#202020"/><line x1="5.0" y1="60.0" x2="805.0" y2="60.0" stroke="#202020"/><line x1="5.0" y1="39.99999999999999" x2="805.0" y2="39.99999999999999" stroke="#202020"/><line x1="5.0" y1="20.000000000000007" x2="805.0" y2="20.000000000000007" stroke="#202020"/></g><g class="ease"><path d="M5,240L8.200,239.993L11.400,239.987L14.600,239.980L17.800,239.972L21,239.965L24.200,239.958L27.400,239.950L30.600,239.942L33.800,239.934L37,239.925L40.200,239.916L43.400,239.907L46.600,239.898L49.800,239.889L53,239.879L56.200,239.869L59.400,239.859L62.600,239.848L65.800,239.837L69,239.826L72.200,239.815L75.400,239.803L78.600,239.791L81.800,239.778L85,239.765L88.200,239.752L91.400,239.739L94.600,239.725L97.800,239.710L101,239.696L104.200,239.680L107.400,239.665L110.600,239.649L113.800,239.632L117,239.615L120.200,239.598L123.400,239.580L126.600,239.562L129.800,239.543L133,239.523L136.200,239.503L139.400,239.483L142.600,239.462L145.800,239.440L149,239.418L152.200,239.395L155.400,239.371L158.600,239.347L161.800,239.322L165,239.296L168.200,239.270L171.400,239.243L174.600,239.215L177.800,239.186L181,239.157L184.200,239.126L187.400,239.095L190.600,239.063L193.800,239.030L197,238.996L200.200,238.962L203.400,238.926L206.600,238.889L209.800,238.851L213,238.812L216.200,238.772L219.400,238.731L222.600,238.689L225.800,238.645L229,238.601L232.200,238.555L235.400,238.508L238.600,238.459L241.800,238.409L245,238.358L248.200,238.305L251.400,238.251L254.600,238.195L257.800,238.138L261,238.079L264.200,238.018L267.400,237.956L270.600,237.892L273.800,237.826L277,237.758L280.200,237.688L283.400,237.617L286.600,237.543L289.800,237.468L293,237.390L296.200,237.310L299.400,237.228L302.600,237.143L305.800,237.056L309,236.967L312.200,236.875L315.400,236.781L318.600,236.683L321.800,236.584L325,236.481L328.200,236.375L331.400,236.267L334.600,236.155L337.800,236.041L341,235.923L344.200,235.802L347.400,235.677L350.600,235.549L353.800,235.417L357,235.282L360.200,235.142L363.400,234.999L366.600,234.852L369.800,234.701L373,234.545L376.200,234.385L379.400,234.221L382.600,234.052L385.800,233.878L389,233.699L392.200,233.515L395.400,233.326L398.600,233.132L401.800,232.933L405,232.727L408.200,232.516L411.400,232.299L414.600,232.076L417.800,231.847L421,231.611L424.200,231.369L427.400,231.119L430.600,230.863L433.800,230.600L437,230.329L440.200,230.050L443.400,229.764L446.600,229.469L449.800,229.167L453,228.856L456.200,228.536L459.400,228.207L462.600,227.869L465.800,227.521L469,227.164L472.200,226.796L475.400,226.418L478.600,226.030L481.800,225.631L485,225.220L488.200,224.798L491.400,224.364L494.600,223.918L497.800,223.459L501,222.987L504.200,222.502L507.400,222.004L510.600,221.491L513.800,220.964L517,220.423L520.200,219.866L523.400,219.293L526.600,218.704L529.800,218.099L533,217.477L536.200,216.837L539.400,216.179L542.600,215.503L545.800,214.807L549,214.093L552.200,213.358L555.400,212.602L558.600,211.825L561.800,211.026L565,210.205L568.200,209.361L571.400,208.493L574.600,207.601L577.800,206.683L581,205.740L584.200,204.770L587.400,203.773L590.600,202.748L593.800,201.694L597,200.611L600.200,199.497L603.400,198.351L606.600,197.174L609.800,195.963L613,194.719L616.200,193.439L619.400,192.123L622.600,190.771L625.800,189.380L629,187.951L632.200,186.481L635.400,184.969L638.600,183.416L641.800,181.818L645,180.176L648.200,178.487L651.400,176.752L654.600,174.967L657.800,173.132L661,171.245L664.200,169.306L667.400,167.312L670.600,165.262L673.800,163.154L677,160.987L680.200,158.759L683.400,156.468L686.600,154.113L689.800,151.692L693,149.203L696.200,146.643L699.400,144.012L702.600,141.307L705.800,138.526L709,135.666L712.200,132.727L715.400,129.704L718.600,126.597L721.800,123.402L725,120.117L728.200,116.740L731.400,113.268L734.600,109.699L737.800,106.029L741,102.256L744.200,98.377L747.400,94.389L750.600,90.289L753.800,86.073L757,81.739L760.200,77.283L763.400,72.702L766.600,67.992L769.800,63.149L773,58.171L776.200,53.052L779.400,47.790L782.600,42.380L785.800,36.817L789,31.098L792.200,25.219L795.400,19.174L798.600,12.959L801.800,6.569L805,0" stroke="white" fill="none"/></g></svg>