<svg xmlns="http://www.w3.org/2000/svg" width="810" height="410.0" viewBox="0 0 810 410.0"><g class="legend"><text x="8.0" y="12.0" fill="white">amplitude</text><g transform="translate(8.0, 15.0)"><rect x="0" y="0" width="3" height="16.0" fill="rgb(153, 153, 153)"/><rect x="2" y="0" width="3" height="16.0" fill="rgb(152, 153, 154)"/><rect x="4" y="0" width="3" height="16.0" fill="rgb(152, 153, 154)"/><rect x="6" y="0" width="3" height="16.0" fill="rgb(151, 153, 155)"/><rect x="8" y="0" width="3" height="16.0" fill="rgb(151, 153, 156)"/><rect x="10" y="0" width="3" height="16.0" fill="rgb(150, 153, 156)"/><rect x="12" y="0" width="3" height="16.0" fill="rgb(149, 153, 157)"/><rect x="14" y="0" width="3" height="16.0" fill="rgb(149, 153, 158)"/><rect x="16" y="0" width="3" height="16.0" fill="rgb(148, 153, 158)"/><rect x="18" y="0" width="3" height="16.0" fill="rgb(147, 153, 159)"/><rect x="20" y="0" width="3" height="16.0" fill="rgb(147, 153, 160)"/><rect x="22" y="0" width="3" height="16.0" fill="rgb(146, 153, 160)"/><rect x="24" y="0" width="3" height="16.0" fill="rgb(146, 153, 161)"/><rect x="26" y="0" width="3" height="16.0" fill="rgb(145, 153, 162)"/><rect x="28" y="0" width="3" height="16.0" fill="rgb(144, 153, 163)"/><rect x="30" y="0" width="3" height="16.0" fill="rgb(144, 152, 163)"/><rect x="32" y="0" width="3" height="16.0" fill="rgb(143, 152, 164)"/><rect x="34" y="0" width="3" height="16.0" fill="rgb(143, 152, 165)"/><rect x="36" y="0" width="3" height="16.0" fill="rgb(142, 152, 165)"/><rect x="38" y="0" width="3" height="16.0" fill="rgb(141, 152, 166)"/><rect x="40" y="0" width="3" height="16.0" fill="rgb(141, 152, 167)"/><rect x="42" y="0" width="3" height="16.0" fill="rgb(140, 152, 167)"/><rect x="44" y="0" width="3" height="16.0" fill="rgb(140, 152, 168)"/><rect x="46" y="0" width="3" height="16.0" fill="rgb(139, 152, 169)"/><rect x="48" y="0" width="3" height="16.0" fill="rgb(138, 152, 169)"/><rect x="50" y="0" width="3" height="16.0" fill="rgb(138, 152, 170)"/><rect x="52" y="0" width="3" height="16.0" fill="rgb(137, 152, 171)"/><rect x="54" y="0" width="3" height="16.0" fill="rgb(136, 152, 171)"/><rect x="56" y="0" width="3" height="16.0" fill="rgb(136, 152, 172)"/><rect x="58" y="0" width="3" height="16.0" fill="rgb(135, 152, 173)"/><rect x="60" y="0" width="3" height="16.0" fill="rgb(135, 152, 173)"/><rect x="62" y="0" width="3" height="16.0" fill="rgb(134, 152, 174)"/><rect x="64" y="0" width="3" height="16.0" fill="rgb(133, 152, 175)"/><rect x="66" y="0" width="3" height="16.0" fill="rgb(133, 152, 175)"/><rect x="68" y="0" width="3" height="16.0" fill="rgb(132, 152, 176)"/><rect x="70" y="0" width="3" height="16.0" fill="rgb(132, 152, 177)"/><rect x="72" y="0" width="3" height="16.0" fill="rgb(131, 152, 177)"/><rect x="74" y="0" width="3" height="16.0" fill="rgb(130, 152, 178)"/><rect x="76" y="0" width="3" height="16.0" fill="rgb(130, 152, 179)"/><rect x="78" y="0" width="3" height="16.0" fill="rgb(129, 152, 180)"/><rect x="80" y="0" width="3" height="16.0" fill="rgb(128, 152, 180)"/><rect x="82" y="0" width="3" height="16.0" fill="rgb(128, 152, 181)"/><rect x="84" y="0" width="3" height="16.0" fill="rgb(127, 152, 182)"/><rect x="86" y="0" width="3" height="16.0" fill="rgb(127, 152, 182)"/><rect x="88" y="0" width="3" height="16.0" fill="rgb(126, 152, 183)"/><rect x="90" y="0" width="3" height="16.0" fill="rgb(125, 152, 184)"/><rect x="92" y="0" width="3" height="16.0" fill="rgb(125, 151, 184)"/><rect x="94" y="0" width="3" height="16.0" fill="rgb(124, 151, 185)"/><rect x="96" y="0" width="3" height="16.0" fill="rgb(124, 151, 186)"/><rect x="98" y="0" width="3" height="16.0" fill="rgb(123, 151, 186)"/><rect x="100" y="0" width="3" height="16.0" fill="rgb(122, 151, 187)"/><rect x="102" y="0" width="3" height="16.0" fill="rgb(122, 151, 188)"/><rect x="104" y="0" width="3" height="16.0" fill="rgb(121, 151, 188)"/><rect x="106" y="0" width="3" height="16.0" fill="rgb(120, 151, 189)"/><rect x="108" y="0" width="3" height="16.0" fill="rgb(120, 151, 190)"/><rect x="110" y="0" width="3" height="16.0" fill="rgb(119, 151, 190)"/><rect x="112" y="0" width="3" height="16.0" fill="rgb(119, 151, 191)"/><rect x="114" y="0" width="3" height="16.0" fill="rgb(118, 151, 192)"/><rect x="116" y="0" width="3" height="16.0" fill="rgb(117, 151, 192)"/><rect x="118" y="0" width="3" height="16.0" fill="rgb(117, 151, 193)"/><rect x="120" y="0" width="3" height="16.0" fill="rgb(116, 151, 194)"/><rect x="122" y="0" width="3" height="16.0" fill="rgb(116, 151, 194)"/><rect x="124" y="0" width="3" height="16.0" fill="rgb(115, 151, 195)"/><rect x="126" y="0" width="3" height="16.0" fill="rgb(114, 151, 196)"/><rect x="128" y="0" width="3" height="16.0" fill="rgb(114, 151, 197)"/><rect x="130" y="0" width="3" height="16.0" fill="rgb(113, 151, 197)"/><rect x="132" y="0" width="3" height="16.0" fill="rgb(113, 151, 198)"/><rect x="134" y="0" width="3" height="16.0" fill="rgb(112, 151, 199)"/><rect x="136" y="0" width="3" height="16.0" fill="rgb(111, 151, 199)"/><rect x="138" y="0" width="3" height="16.0" fill="rgb(111, 151, 200)"/><rect x="140" y="0" width="3" height="16.0" fill="rgb(110, 151, 201)"/><rect x="142" y="0" width="3" height="16.0" fill="rgb(109, 151, 201)"/><rect x="144" y="0" width="3" height="16.0" fill="rgb(109, 151, 202)"/><rect x="146" y="0" width="3" height="16.0" fill="rgb(108, 151, 203)"/><rect x="148" y="0" width="3" height="16.0" fill="rgb(108, 151, 203)"/><rect x="150" y="0" width="3" height="16.0" fill="rgb(107, 150, 204)"/><rect x="152" y="0" width="3" height="16.0" fill="rgb(106, 150, 205)"/><rect x="154" y="0" width="3" height="16.0" fill="rgb(106, 150, 205)"/><rect x="156" y="0" width="3" height="16.0" fill="rgb(105, 150, 206)"/><rect x="158" y="0" width="3" height="16.0" fill="rgb(105, 150, 207)"/><rect x="160" y="0" width="3" height="16.0" fill="rgb(104, 150, 207)"/><rect x="162" y="0" width="3" height="16.0" fill="rgb(103, 150, 208)"/><rect x="164" y="0" width="3" height="16.0" fill="rgb(103, 150, 209)"/><rect x="166" y="0" width="3" height="16.0" fill="rgb(102, 150, 209)"/><rect x="168" y="0" width="3" height="16.0" fill="rgb(101, 150, 210)"/><rect x="170" y="0" width="3" height="16.0" fill="rgb(101, 150, 211)"/><rect x="172" y="0" width="3" height="16.0" fill="rgb(100, 150, 211)"/><rect x="174" y="0" width="3" height="16.0" fill="rgb(100, 150, 212)"/><rect x="176" y="0" width="3" height="16.0" fill="rgb(99, 150, 213)"/><rect x="178" y="0" width="3" height="16.0" fill="rgb(98, 150, 214)"/><rect x="180" y="0" width="3" height="16.0" fill="rgb(98, 150, 214)"/><rect x="182" y="0" width="3" height="16.0" fill="rgb(97, 150, 215)"/><rect x="184" y="0" width="3" height="16.0" fill="rgb(97, 150, 216)"/><rect x="186" y="0" width="3" height="16.0" fill="rgb(96, 150, 216)"/><rect x="188" y="0" width="3" height="16.0" fill="rgb(95, 150, 217)"/><rect x="190" y="0" width="3" height="16.0" fill="rgb(95, 150, 218)"/><rect x="192" y="0" width="3" height="16.0" fill="rgb(94, 150, 218)"/><rect x="194" y="0" width="3" height="16.0" fill="rgb(94, 150, 219)"/><rect x="196" y="0" width="3" height="16.0" fill="rgb(93, 150, 220)"/><rect x="198" y="0" width="3" height="16.0" fill="rgb(92, 150, 220)"/><rect x="200" y="0" width="3" height="16.0" fill="rgb(92, 150, 221)"/><rect x="202" y="0" width="3" height="16.0" fill="rgb(91, 150, 222)"/><rect x="204" y="0" width="3" height="16.0" fill="rgb(90, 150, 222)"/><rect x="206" y="0" width="3" height="16.0" fill="rgb(90, 150, 223)"/><rect x="208" y="0" width="3" height="16.0" fill="rgb(89, 150, 224)"/><rect x="210" y="0" width="3" height="16.0" fill="rgb(89, 150, 224)"/><rect x="212" y="0" width="3" height="16.0" fill="rgb(88, 149, 225)"/><rect x="214" y="0" width="3" height="16.0" fill="rgb(87, 149, 226)"/><rect x="216" y="0" width="3" height="16.0" fill="rgb(87, 149, 226)"/><rect x="218" y="0" width="3" height="16.0" fill="rgb(86, 149, 227)"/><rect x="220" y="0" width="3" height="16.0" fill="rgb(86, 149, 228)"/><rect x="222" y="0" width="3" height="16.0" fill="rgb(85, 149, 228)"/><rect x="224" y="0" width="3" height="16.0" fill="rgb(84, 149, 229)"/><rect x="226" y="0" width="3" height="16.0" fill="rgb(84, 149, 230)"/><rect x="228" y="0" width="3" height="16.0" fill="rgb(83, 149, 231)"/><rect x="230" y="0" width="3" height="16.0" fill="rgb(82, 149, 231)"/><rect x="232" y="0" width="3" height="16.0" fill="rgb(82, 149, 232)"/><rect x="234" y="0" width="3" height="16.0" fill="rgb(81, 149, 233)"/><rect x="236" y="0" width="3" height="16.0" fill="rgb(81, 149, 233)"/><rect x="238" y="0" width="3" height="16.0" fill="rgb(80, 149, 234)"/><rect x="240" y="0" width="3" height="16.0" fill="rgb(79, 149, 235)"/><rect x="242" y="0" width="3" height="16.0" fill="rgb(79, 149, 235)"/><rect x="244" y="0" width="3" height="16.0" fill="rgb(78, 149, 236)"/><rect x="246" y="0" width="3" height="16.0" fill="rgb(78, 149, 237)"/><rect x="248" y="0" width="3" height="16.0" fill="rgb(77, 149, 237)"/><rect x="250" y="0" width="3" height="16.0" fill="rgb(76, 149, 238)"/><rect x="252" y="0" width="3" height="16.0" fill="rgb(76, 149, 239)"/><rect x="254" y="0" width="3" height="16.0" fill="rgb(75, 149, 239)"/><rect x="256" y="0" width="3" height="16.0" fill="rgb(74, 149, 240)"/><rect x="258" y="0" width="3" height="16.0" fill="rgb(74, 149, 241)"/><rect x="260" y="0" width="3" height="16.0" fill="rgb(73, 149, 241)"/><rect x="262" y="0" width="3" height="16.0" fill="rgb(73, 149, 242)"/><rect x="264" y="0" width="3" height="16.0" fill="rgb(72, 149, 243)"/><rect x="266" y="0" width="3" height="16.0" fill="rgb(71, 149, 243)"/><rect x="268" y="0" width="3" height="16.0" fill="rgb(71, 149, 244)"/><rect x="270" y="0" width="3" height="16.0" fill="rgb(70, 148, 245)"/><rect x="272" y="0" width="3" height="16.0" fill="rgb(70, 148, 245)"/><rect x="274" y="0" width="3" height="16.0" fill="rgb(69, 148, 246)"/><rect x="276" y="0" width="3" height="16.0" fill="rgb(68, 148, 247)"/><rect x="278" y="0" width="3" height="16.0" fill="rgb(68, 148, 248)"/><rect x="280" y="0" width="3" height="16.0" fill="rgb(67, 148, 248)"/><rect x="282" y="0" width="3" height="16.0" fill="rgb(67, 148, 249)"/><rect x="284" y="0" width="3" height="16.0" fill="rgb(66, 148, 250)"/><rect x="286" y="0" width="3" height="16.0" fill="rgb(65, 148, 250)"/><rect x="288" y="0" width="3" height="16.0" fill="rgb(65, 148, 251)"/><rect x="290" y="0" width="3" height="16.0" fill="rgb(64, 148, 252)"/><rect x="292" y="0" width="3" height="16.0" fill="rgb(63, 148, 252)"/><rect x="294" y="0" width="3" height="16.0" fill="rgb(63, 148, 253)"/><rect x="296" y="0" width="3" height="16.0" fill="rgb(62, 148, 254)"/><rect x="298" y="0" width="3" height="16.0" fill="rgb(62, 148, 254)"/></g><g transform="translate(8.0, 15.0)" fill="none" font-size="10" font-family="sans-serif" text-anchor="middle"><g class="tick" opacity="1" transform="translate(0.5, 0)"><line stroke="white" y2="19.2"/><text fill="white" y="22.2" dy="0.71em">1.0</text></g><g class="tick" opacity="1" transform="translate(60.50000000000006, 0)"><line stroke="white" y2="19.2"/><text fill="white" y="22.2" dy="0.71em">1.1</text></g><g class="tick" opacity="1" transform="translate(120.49999999999997, 0)"><line stroke="white" y2="19.2"/><text fill="white" y="22.2" dy="0.71em">1.2</text></g><g class="tick" opacity="1" transform="translate(180.50000000000003, 0)"><line stroke="white" y2="19.2"/><text fill="white" y="22.2" dy="0.71em">1.3</text></g><g class="tick" opacity="1" transform="translate(240.49999999999994, 0)"><line stroke="white" y2="19.2"/><text fill="white" y="22.2" dy="0.71em">1.4</text></g><g class="tick" opacity="1" transform="translate(300.5, 0)"><line stroke="white" y2="19.2"/><text fill="white" y="22.2" dy="0.71em">1.5</text></g></g></g><g class="main" transform="translate(0, 60)"><rect x="5" y="0" width="800" height="240.0" fill="#2b2b2e"/><g class="xlines"><line x1="25.0" y1="240.0" x2="25.0" y2="0.0" stroke="#202020"/><line x1="45.0" y1="240.0" x2="45.0" y2="0.0" stroke="#202020"/><line x1="65.0" y1="240.0" x2="65.0" y2="0.0" stroke="#202020"/><line x1="85.0" y1="240.0" x2="85.0" y2="0.0" stroke="#202020"/><line x1="105.0" y1="240.0" x2="105.0" y2="0.0" stroke="#202020"/><line x1="125.0" y1="240.0" x2="125.0" y2="0.0" stroke="#202020"/><line x1="145.0" y1="240.0" x2="145.0" y2="0.0" stroke="#202020"/><line x1="165.0" y1="240.0" x2="165.0" y2="0.0" stroke="#202020"/><line x1="185.0" y1="240.0" x2="185.0" y2="0.0" stroke="#202020"/><line x1="205.0" y1="240.0" x2="205.0" y2="0.0" stroke="#202020"/><line x1="225.00000000000003" y1="240.0" x2="225.00000000000003" y2="0.0" stroke="#202020"/><line x1="245.0" y1="240.0" x2="245.0" y2="0.0" stroke="#202020"/><line x1="265.0" y1="240.0" x2="265.0" y2="0.0" stroke="#202020"/><line x1="285.0" y1="240.0" x2="285.0" y2="0.0" stroke="#202020"/><line x1="305.0" y1="240.0" x2="305.0" y2="0.0" stroke="#202020"/><line x1="325.0" y1="240.0" x2="325.0" y2="0.0" stroke="#202020"/><line x1="345.0" y1="240.0" x2="345.0" y2="0.0" stroke="#202020"/><line x1="365.0" y1="240.0" x2="365.0" y2="0.0" stroke="#202020"/><line x1="385.0" y1="240.0" x2="385.0" y2="0.0" stroke="#202020"/><line x1="405.0" y1="240.0" x2="405.0" y2="0.0" stroke="#202020"/><line x1="425.0" y1="240.0" x2="425.0" y2="0.0" stroke="#202020"/><line x1="445.00000000000006" y1="240.0" x2="445.00000000000006" y2="0.0" stroke="#202020"/><line x1="464.99999999999994" y1="240.0" x2="464.99999999999994" y2="0.0" stroke="#202020"/><line x1="485.0" y1="240.0" x2="485.0" y2="0.0" stroke="#202020"/><line x1="505.0" y1="240.0" x2="505.0" y2="0.0" stroke="#202020"/><line x1="525.0" y1="240.0" x2="525.0" y2="0.0" stroke="#202020"/><line x1="545.0" y1="240.0" x2="545.0" y2="0.0" stroke="#202020"/><line x1="565.0" y1="240.0" x2="565.0" y2="0.0" stroke="#202020"/><line x1="585.0" y1="240.0" x2="585.0" y2="0.0" stroke="#202020"/><line x1="605.0" y1="240.0" x2="605.0" y2="0.0" stroke="#202020"/><line x1="625.0" y1="240.0" x2="625.0" y2="0.0" stroke="#202020"/><line x1="645.0" y1="240.0" x2="645.0" y2="0.0" stroke="#202020"/><line x1="665.0" y1="240.0" x2="665.0" y2="0.0" stroke="#202020"/><line x1="685.0" y1="240.0" x2="685.0" y2="0.0" stroke="#202020"/><line x1="705.0" y1="240.0" x2="705.0" y2="0.0" stroke="#202020"/><line x1="725.0" y1="240.0" x2="725.0" y2="0.0" stroke="#202020"/><line x1="745.0" y1="240.0" x2="745.0" y2="0.0" stroke="#202020"/><line x1="765.0" y1="240.0" x2="765.0" y2="0.0" stroke="#202020"/><line x1="785.0" y1="240.0" x2="785.0" y2="0.0" stroke="#202020"/></g><g class="ylines"><line x1="5.0" y1="220.0" x2="805.0" y2="220.0" stroke="#202020"/><line x1="5.0" y1="200.0" x2="805.0" y2="200.0" stroke="#202020"/><line x1="5.0" y1="180.0" x2="805.0" y2="180.0" stroke="#202020"/><line x1="5.0" y1="160.00000000000003" x2="805.0" y2="160.00000000000003" stroke="#202020"/><line x1="5.0" y1="139.99999999999997" x2="805.0" y2="139.99999999999997" stroke="#202020"/><line x1="5.0" y1="120.0" x2="805.0" y2="120.0" stroke="#202020"/><line x1="5.0" y1="99.99999999999999" x2="805.0" y2="99.99999999999999" stroke="#202020"/><line x1="5.0" y1="80.00000000000001" x2="805.0" y2="80.00000000000001" stroke="#202020"/><line x1="5.0" y1="60.0" x2="805.0" y2="60.0" stroke="#202020"/><line x1="5.0" y1="39.99999999999999" x2="805.0" y2="39.99999999999999" stroke="#202020"/><line x1="5.0" y1="20.000000000000007" x2="805.0" y2="20.000000000000007" stroke="#202020"/></g><g class="ease"><path d="M5,240L8.200,240.003L11.400,240.005L14.600,240.005L17.800,240.005L21,240.004L24.200,240.001L27.400,239.997L30.600,239.991L33.800,239.985L37,239.977L40.200,239.968L43.400,239.957L46.600,239.945L49.800,239.933L53,239.919L56.200,239.905L59.400,239.889L62.600,239.874L65.800,239.857L69,239.841L72.200,239.825L75.400,239.809L78.600,239.794L81.800,239.779L85,239.765L88.200,239.753L91.400,239.742L94.600,239.733L97.800,239.726L101,239.722L104.200,239.720L107.400,239.721L110.600,239.725L113.800,239.732L117,239.743L120.200,239.757L123.400,239.775L126.600,239.797L129.800,239.823L133,239.853L136.200,239.887L139.400,239.924L142.600,239.966L145.800,240.012L149,240.061L152.200,240.113L155.400,240.169L158.600,240.228L161.800,240.289L165,240.352L168.200,240.417L171.400,240.483L174.600,240.549L177.800,240.616L181,240.682L184.200,240.747L187.400,240.810L190.600,240.871L193.800,240.928L197,240.982L200.200,241.030L203.400,241.073L206.600,241.110L209.800,241.140L213,241.162L216.200,241.175L219.400,241.180L222.600,241.174L225.800,241.159L229,241.132L232.200,241.094L235.400,241.044L238.600,240.982L241.800,240.908L245,240.821L248.200,240.722L251.400,240.610L254.600,240.485L257.800,240.349L261,240.201L264.200,240.042L267.400,239.872L270.600,239.692L273.800,239.504L277,239.307L280.200,239.104L283.400,238.896L286.600,238.684L289.800,238.469L293,238.253L296.200,238.039L299.400,237.827L302.600,237.620L305.800,237.420L309,237.229L312.200,237.049L315.400,236.882L318.600,236.730L321.800,236.596L325,236.481L328.200,236.388L331.400,236.319L334.600,236.276L337.800,236.261L341,236.275L344.200,236.321L347.400,236.399L350.600,236.512L353.800,236.659L357,236.843L360.200,237.063L363.400,237.320L366.600,237.615L369.800,237.946L373,238.314L376.200,238.718L379.400,239.156L382.600,239.626L385.800,240.128L389,240.659L392.200,241.215L395.400,241.795L398.600,242.394L401.800,243.009L405,243.636L408.200,244.271L411.400,244.909L414.600,245.544L417.800,246.172L421,246.787L424.200,247.383L427.400,247.955L430.600,248.495L433.800,248.999L437,249.460L440.200,249.871L443.400,250.227L446.600,250.521L449.800,250.748L453,250.901L456.200,250.975L459.400,250.965L462.600,250.866L465.800,250.674L469,250.385L472.200,249.995L475.400,249.503L478.600,248.905L481.800,248.201L485,247.390L488.200,246.473L491.400,245.450L494.600,244.325L497.800,243.099L501,241.778L504.200,240.366L507.400,238.870L510.600,237.296L513.800,235.653L517,233.950L520.200,232.198L523.400,230.407L526.600,228.589L529.800,226.759L533,224.929L536.200,223.115L539.400,221.332L542.600,219.596L545.800,217.924L549,216.332L552.200,214.840L555.400,213.463L558.600,212.220L561.800,211.128L565,210.205L568.200,209.468L571.400,208.934L574.600,208.619L577.800,208.536L581,208.702L584.200,209.128L587.400,209.826L590.600,210.806L593.800,212.076L597,213.643L600.200,215.512L603.400,217.684L606.600,220.159L609.800,222.935L613,226.007L616.200,229.368L619.400,233.006L622.600,236.909L625.800,241.060L629,245.441L632.200,250.029L635.400,254.799L638.600,259.724L641.800,264.773L645,269.912L648.200,275.106L651.400,280.316L654.600,285.501L657.800,290.619L661,295.624L664.200,300.469L667.400,305.108L670.600,309.490L673.800,313.566L677,317.287L680.200,320.601L683.400,323.459L686.600,325.811L689.800,327.612L693,328.813L696.200,329.372L699.400,329.247L702.600,328.400L705.800,326.797L709,324.408L712.200,321.205L715.400,317.170L718.600,312.286L721.800,306.544L725,299.941L728.200,292.481L731.400,284.175L734.600,275.041L737.800,265.104L741,254.398L744.200,242.966L747.400,230.857L750.600,218.130L753.800,204.851L757,191.095L760.200,176.945L763.400,162.491L766.600,147.833L769.800,133.076L773,118.333L776.200,103.721L779.400,89.366L782.600,75.398L785.800,61.949L789,49.159L792.200,37.166L795.400,26.111L798.600,16.138L801.800,7.388L805,0" stroke="rgb(153, 153, 153)" fill="none"/><path d="M5,240L8.200,240L11.400,239.999L14.600,239.996L17.800,239.993L21,239.988L24.200,239.981L27.400,239.974L30.600,239.965L33.800,239.955L37,239.944L40.200,239.932L43.400,239.919L46.600,239.906L49.800,239.892L53,239.878L56.200,239.863L59.400,239.849L62.600,239.835L65.800,239.822L69,239.809L72.200,239.797L75.400,239.787L78.600,239.778L81.800,239.771L85,239.765L88.200,239.763L91.400,239.762L94.600,239.765L97.800,239.770L101,239.779L104.200,239.791L107.400,239.806L110.600,239.825L113.800,239.847L117,239.874L120.200,239.904L123.400,239.937L126.600,239.975L129.800,240.016L133,240.060L136.200,240.108L139.400,240.159L142.600,240.212L145.800,240.268L149,240.326L152.200,240.386L155.400,240.447L158.600,240.508L161.800,240.570L165,240.631L168.200,240.692L171.400,240.750L174.600,240.806L177.800,240.860L181,240.909L184.200,240.955L187.400,240.995L190.600,241.029L193.800,241.057L197,241.077L200.200,241.090L203.400,241.094L206.600,241.089L209.800,241.074L213,241.049L216.200,241.013L219.400,240.966L222.600,240.907L225.800,240.837L229,240.755L232.200,240.661L235.400,240.556L238.600,240.438L241.800,240.309L245,240.169L248.200,240.019L251.400,239.858L254.600,239.689L257.800,239.511L261,239.325L264.200,239.133L267.400,238.937L270.600,238.736L273.800,238.534L277,238.330L280.200,238.128L283.400,237.928L286.600,237.733L289.800,237.545L293,237.365L296.200,237.195L299.400,237.038L302.600,236.896L305.800,236.770L309,236.664L312.200,236.578L315.400,236.515L318.600,236.476L321.800,236.465L325,236.481L328.200,236.527L331.400,236.604L334.600,236.714L337.800,236.858L341,237.035L344.200,237.248L347.400,237.496L350.600,237.779L353.800,238.097L357,238.450L360.200,238.836L363.400,239.255L366.600,239.706L369.800,240.185L373,240.692L376.200,241.223L379.400,241.776L382.600,242.347L385.800,242.933L389,243.530L392.200,244.134L395.400,244.740L398.600,245.344L401.800,245.940L405,246.523L408.200,247.087L411.400,247.628L414.600,248.138L417.800,248.613L421,249.047L424.200,249.432L427.400,249.764L430.600,250.037L433.800,250.244L437,250.381L440.200,250.443L443.400,250.424L446.600,250.319L449.800,250.126L453,249.839L456.200,249.457L459.400,248.976L462.600,248.394L465.800,247.712L469,246.927L472.200,246.042L475.400,245.056L478.600,243.972L481.800,242.794L485,241.524L488.200,240.169L491.400,238.734L494.600,237.226L497.800,235.654L501,234.025L504.200,232.350L507.400,230.639L510.600,228.905L513.800,227.160L517,225.418L520.200,223.692L523.400,221.997L526.600,220.349L529.800,218.764L533,217.259L536.200,215.849L539.400,214.551L542.600,213.383L545.800,212.362L549,211.503L552.200,210.824L555.400,210.340L558.600,210.066L561.800,210.017L565,210.205L568.200,210.643L571.400,211.342L574.600,212.311L577.800,213.557L581,215.088L584.200,216.905L587.400,219.013L590.600,221.410L593.800,224.093L597,227.057L600.200,230.296L603.400,233.798L606.600,237.551L609.800,241.538L613,245.742L616.200,250.141L619.400,254.710L622.600,259.424L625.800,264.252L629,269.162L632.200,274.120L635.400,279.088L638.600,284.028L641.800,288.897L645,293.654L648.200,298.253L651.400,302.649L654.600,306.794L657.800,310.642L661,314.143L664.200,317.251L667.400,319.919L670.600,322.098L673.800,323.745L677,324.815L680.200,325.267L683.400,325.062L686.600,324.163L689.800,322.540L693,320.162L696.200,317.007L699.400,313.054L702.600,308.291L705.800,302.708L709,296.305L712.200,289.084L715.400,281.058L718.600,272.244L721.800,262.669L725,252.364L728.200,241.373L731.400,229.742L734.600,217.529L737.800,204.798L741,191.622L744.200,178.080L747.400,164.261L750.600,150.259L753.800,136.176L757,122.120L760.200,108.205L763.400,94.550L766.600,81.280L769.800,68.523L773,56.410L776.200,45.076L779.400,34.654L782.600,25.282L785.800,17.093L789,10.222L792.200,4.797L795.400,0.945L798.600,-1.213L801.800,-1.563L805,0" stroke="rgb(135, 152, 173)" fill="none"/><path d="M5,240L8.200,239.999L11.400,239.996L14.600,239.992L17.800,239.987L21,239.981L24.200,239.973L27.400,239.964L30.600,239.953L33.800,239.942L37,239.930L40.200,239.916L43.400,239.903L46.600,239.888L49.800,239.874L53,239.859L56.200,239.845L59.400,239.831L62.600,239.818L65.800,239.805L69,239.794L72.200,239.785L75.400,239.777L78.600,239.770L81.800,239.767L85,239.765L88.200,239.767L91.400,239.771L94.600,239.779L97.800,239.790L101,239.804L104.200,239.822L107.400,239.844L110.600,239.869L113.800,239.899L117,239.932L120.200,239.969L123.400,240.010L126.600,240.055L129.800,240.102L133,240.153L136.200,240.207L139.400,240.264L142.600,240.323L145.800,240.383L149,240.445L152.200,240.508L155.400,240.571L158.600,240.634L161.800,240.696L165,240.756L168.200,240.814L171.400,240.870L174.600,240.922L177.800,240.969L181,241.011L184.200,241.048L187.400,241.077L190.600,241.100L193.800,241.114L197,241.120L200.200,241.117L203.400,241.103L206.600,241.079L209.800,241.044L213,240.998L216.200,240.940L219.400,240.870L222.600,240.788L225.800,240.693L229,240.586L232.200,240.468L235.400,240.337L238.600,240.195L241.800,240.041L245,239.878L248.200,239.704L251.400,239.522L254.600,239.332L257.800,239.136L261,238.933L264.200,238.727L267.400,238.518L270.600,238.309L273.800,238.099L277,237.893L280.200,237.691L283.400,237.495L286.600,237.308L289.800,237.131L293,236.967L296.200,236.817L299.400,236.685L302.600,236.572L305.800,236.480L309,236.411L312.200,236.367L315.400,236.351L318.600,236.363L321.800,236.406L325,236.481L328.200,236.589L331.400,236.732L334.600,236.910L337.800,237.125L341,237.375L344.200,237.663L347.400,237.986L350.600,238.346L353.800,238.740L357,239.169L360.200,239.630L363.400,240.121L366.600,240.641L369.800,241.187L373,241.756L376.200,242.344L379.400,242.948L382.600,243.564L385.800,244.188L389,244.815L392.200,245.440L395.400,246.058L398.600,246.664L401.800,247.251L405,247.814L408.200,248.347L411.400,248.845L414.600,249.299L417.800,249.706L421,250.058L424.200,250.349L427.400,250.574L430.600,250.727L433.800,250.802L437,250.794L440.200,250.699L443.400,250.512L446.600,250.229L449.800,249.847L453,249.364L456.200,248.777L459.400,248.085L462.600,247.288L465.800,246.386L469,245.380L472.200,244.272L475.400,243.066L478.600,241.765L481.800,240.374L485,238.900L488.200,237.349L491.400,235.729L494.600,234.050L497.800,232.322L501,230.555L504.200,228.762L507.400,226.956L510.600,225.151L513.800,223.360L517,221.600L520.200,219.886L523.400,218.234L526.600,216.662L529.800,215.187L533,213.826L536.200,212.597L539.400,211.517L542.600,210.603L545.800,209.873L549,209.343L552.200,209.028L555.400,208.943L558.600,209.103L561.800,209.520L565,210.205L568.200,211.169L571.400,212.420L574.600,213.963L577.800,215.804L581,217.945L584.200,220.386L587.400,223.124L590.600,226.155L593.800,229.470L597,233.060L600.200,236.912L603.400,241.009L606.600,245.334L609.800,249.863L613,254.573L616.200,259.437L619.400,264.423L622.600,269.499L625.800,274.630L629,279.777L632.200,284.900L635.400,289.957L638.600,294.903L641.800,299.693L645,304.278L648.200,308.611L651.400,312.642L654.600,316.322L657.800,319.602L661,322.431L664.200,324.761L667.400,326.546L670.600,327.740L673.800,328.300L677,328.184L680.200,327.355L683.400,325.779L686.600,323.426L689.800,320.270L693,316.291L696.200,311.474L699.400,305.808L702.600,299.292L705.800,291.929L709,283.729L712.200,274.710L715.400,264.898L718.600,254.325L721.800,243.034L725,231.074L728.200,218.502L731.400,205.383L734.600,191.793L737.800,177.811L741,163.530L744.200,149.044L747.400,134.460L750.600,119.888L753.800,105.445L757,91.254L760.200,77.444L763.400,64.147L766.600,51.498L769.800,39.636L773,28.700L776.200,18.832L779.400,10.171L782.600,2.856L785.800,-2.980L789,-7.203L792.200,-9.688L795.400,-10.317L798.600,-8.977L801.800,-5.569L805,0" stroke="rgb(116, 151, 194)" fill="none"/><path d="M5,240L8.200,239.998L11.400,239.994L14.600,239.989L17.800,239.983L21,239.975L24.200,239.966L27.400,239.955L30.600,239.944L33.800,239.931L37,239.918L40.200,239.904L43.400,239.889L46.600,239.874L49.800,239.859L53,239.844L56.200,239.830L59.400,239.816L62.600,239.804L65.800,239.792L69,239.782L72.200,239.774L75.400,239.768L78.600,239.765L81.800,239.764L85,239.765L88.200,239.770L91.400,239.779L94.600,239.790L97.800,239.806L101,239.825L104.200,239.848L107.400,239.875L110.600,239.906L113.800,239.941L117,239.980L120.200,240.023L123.400,240.069L126.600,240.120L129.800,240.173L133,240.229L136.200,240.288L139.400,240.349L142.600,240.412L145.800,240.477L149,240.542L152.200,240.607L155.400,240.672L158.600,240.736L161.800,240.798L165,240.858L168.200,240.915L171.400,240.967L174.600,241.015L177.800,241.058L181,241.094L184.200,241.123L187.400,241.145L190.600,241.158L193.800,241.161L197,241.155L200.200,241.138L203.400,241.111L206.600,241.071L209.800,241.020L213,240.957L216.200,240.881L219.400,240.792L222.600,240.690L225.800,240.576L229,240.449L232.200,240.310L235.400,240.158L238.600,239.996L241.800,239.823L245,239.640L248.200,239.448L251.400,239.248L254.600,239.041L257.800,238.829L261,238.614L264.200,238.396L267.400,238.177L270.600,237.960L273.800,237.745L277,237.536L280.200,237.334L283.400,237.142L286.600,236.961L289.800,236.793L293,236.642L296.200,236.509L299.400,236.397L302.600,236.307L305.800,236.242L309,236.204L312.200,236.195L315.400,236.217L318.600,236.270L321.800,236.358L325,236.481L328.200,236.640L331.400,236.836L334.600,237.070L337.800,237.343L341,237.653L344.200,238.001L347.400,238.386L350.600,238.808L353.800,239.265L357,239.755L360.200,240.277L363.400,240.828L366.600,241.405L369.800,242.004L373,242.624L376.200,243.259L379.400,243.905L382.600,244.558L385.800,245.213L389,245.864L392.200,246.506L395.400,247.134L398.600,247.741L401.800,248.321L405,248.868L408.200,249.376L411.400,249.837L414.600,250.247L417.800,250.597L421,250.883L424.200,251.097L427.400,251.235L430.600,251.289L433.800,251.256L437,251.130L440.200,250.907L443.400,250.583L446.600,250.155L449.800,249.620L453,248.976L456.200,248.223L459.400,247.359L462.600,246.386L465.800,245.304L469,244.117L472.200,242.829L475.400,241.442L478.600,239.964L481.800,238.399L485,236.758L488.200,235.047L491.400,233.277L494.600,231.458L497.800,229.603L501,227.724L504.200,225.835L507.400,223.951L510.600,222.087L513.800,220.259L517,218.484L520.200,216.780L523.400,215.163L526.600,213.653L529.800,212.268L533,211.025L536.200,209.944L539.400,209.041L542.600,208.335L545.800,207.842L549,207.579L552.200,207.561L555.400,207.803L558.600,208.317L561.800,209.114L565,210.205L568.200,211.598L571.400,213.299L574.600,215.312L577.800,217.638L581,220.277L584.200,223.226L587.400,226.479L590.600,230.027L593.800,233.858L597,237.959L600.200,242.311L603.400,246.894L606.600,251.685L609.800,256.657L613,261.780L616.200,267.022L619.400,272.349L622.600,277.721L625.800,283.099L629,288.439L632.200,293.698L635.400,298.827L638.600,303.778L641.800,308.502L645,312.948L648.200,317.064L651.400,320.797L654.600,324.098L657.800,326.913L661,329.193L664.200,330.889L667.400,331.955L670.600,332.344L673.800,332.016L677,330.933L680.200,329.059L683.400,326.364L686.600,322.824L689.800,318.418L693,313.132L696.200,306.958L699.400,299.895L702.600,291.949L705.800,283.132L709,273.467L712.200,262.980L715.400,251.711L718.600,239.704L721.800,227.013L725,213.701L728.200,199.839L731.400,185.506L734.600,170.791L737.800,155.790L741,140.606L744.200,125.351L747.400,110.142L750.600,95.104L753.800,80.367L757,66.067L760.200,52.343L763.400,39.337L766.600,27.195L769.800,16.063L773,6.089L776.200,-2.583L779.400,-9.807L782.600,-15.445L785.800,-19.359L789,-21.421L792.200,-21.508L795.400,-19.506L798.600,-15.313L801.800,-8.837L805,0" stroke="rgb(98, 150, 214)" fill="none"/><path d="M5,240L8.200,239.997L11.400,239.992L14.600,239.986L17.800,239.979L21,239.970L24.200,239.959L27.400,239.948L30.600,239.935L33.800,239.921L37,239.907L40.200,239.892L43.400,239.877L46.600,239.861L49.800,239.846L53,239.831L56.200,239.817L59.400,239.803L62.600,239.791L65.800,239.781L69,239.772L72.200,239.765L75.400,239.761L78.600,239.759L81.800,239.761L85,239.765L88.200,239.773L91.400,239.785L94.600,239.800L97.800,239.820L101,239.843L104.200,239.871L107.400,239.903L110.600,239.939L113.800,239.979L117,240.023L120.200,240.071L123.400,240.122L126.600,240.177L129.800,240.236L133,240.297L136.200,240.360L139.400,240.426L142.600,240.493L145.800,240.560L149,240.628L152.200,240.696L155.400,240.763L158.600,240.828L161.800,240.890L165,240.949L168.200,241.004L171.400,241.054L174.600,241.099L177.800,241.137L181,241.168L184.200,241.191L187.400,241.205L190.600,241.209L193.800,241.203L197,241.186L200.200,241.158L203.400,241.117L206.600,241.064L209.800,240.999L213,240.920L216.200,240.828L219.400,240.722L222.600,240.603L225.800,240.471L229,240.326L232.200,240.169L235.400,239.999L238.600,239.819L241.800,239.628L245,239.428L248.200,239.219L251.400,239.003L254.600,238.782L257.800,238.557L261,238.329L264.200,238.100L267.400,237.873L270.600,237.648L273.800,237.430L277,237.218L280.200,237.016L283.400,236.827L286.600,236.651L289.800,236.493L293,236.353L296.200,236.235L299.400,236.140L302.600,236.071L305.800,236.031L309,236.020L312.200,236.042L315.400,236.097L318.600,236.188L321.800,236.315L325,236.481L328.200,236.685L331.400,236.929L334.600,237.213L337.800,237.537L341,237.900L344.200,238.303L347.400,238.743L350.600,239.221L353.800,239.733L357,240.278L360.200,240.854L363.400,241.457L366.600,242.085L369.800,242.733L373,243.397L376.200,244.074L379.400,244.758L382.600,245.443L385.800,246.125L389,246.798L392.200,247.456L395.400,248.092L398.600,248.701L401.800,249.275L405,249.807L408.200,250.292L411.400,250.722L414.600,251.091L417.800,251.392L421,251.618L424.200,251.764L427.400,251.824L430.600,251.791L433.800,251.661L437,251.430L440.200,251.093L443.400,250.647L446.600,250.089L449.800,249.417L453,248.631L456.200,247.728L459.400,246.711L462.600,245.581L465.800,244.340L469,242.992L472.200,241.542L475.400,239.995L478.600,238.358L481.800,236.640L485,234.849L488.200,232.995L491.400,231.091L494.600,229.148L497.800,227.180L501,225.201L504.200,223.226L507.400,221.272L510.600,219.356L513.800,217.495L517,215.707L520.200,214.012L523.400,212.427L526.600,210.972L529.800,209.666L533,208.529L536.200,207.579L539.400,206.834L542.600,206.313L545.800,206.032L549,206.008L552.200,206.255L555.400,206.787L558.600,207.616L561.800,208.753L565,210.205L568.200,211.980L571.400,214.082L574.600,216.513L577.800,219.272L581,222.355L584.200,225.757L587.400,229.468L590.600,233.477L593.800,237.769L597,242.324L600.200,247.122L603.400,252.138L606.600,257.345L609.800,262.711L613,268.202L616.200,273.783L619.400,279.412L622.600,285.048L625.800,290.646L629,296.159L632.200,301.538L635.400,306.731L638.600,311.688L641.800,316.353L645,320.674L648.200,324.596L651.400,328.065L654.600,331.027L657.800,333.429L661,335.220L664.200,336.351L667.400,336.775L670.600,336.447L673.800,335.329L677,333.383L680.200,330.577L683.400,326.886L686.600,322.288L689.800,316.767L693,310.317L696.200,302.934L699.400,294.626L702.600,285.405L705.800,275.293L709,264.321L712.200,252.527L715.400,239.959L718.600,226.673L721.800,212.734L725,198.218L728.200,183.206L731.400,167.792L734.600,152.075L737.800,136.165L741,120.177L744.200,104.235L747.400,88.469L750.600,73.017L753.800,58.018L757,43.620L760.200,29.972L763.400,17.227L766.600,5.536L769.800,-4.944L773,-14.063L776.200,-21.668L779.400,-27.612L782.600,-31.754L785.800,-33.957L789,-34.093L792.200,-32.042L795.400,-27.696L798.600,-20.960L801.800,-11.750L805,0" stroke="rgb(79, 149, 235)" fill="none"/><path d="M5,240L8.200,239.996L11.400,239.991L14.600,239.984L17.800,239.975L21,239.965L24.200,239.953L27.400,239.941L30.600,239.927L33.800,239.912L37,239.897L40.200,239.881L43.400,239.865L46.600,239.849L49.800,239.834L53,239.819L56.200,239.804L59.400,239.791L62.600,239.780L65.800,239.770L69,239.762L72.200,239.757L75.400,239.754L78.600,239.755L81.800,239.758L85,239.765L88.200,239.776L91.400,239.791L94.600,239.810L97.800,239.833L101,239.860L104.200,239.892L107.400,239.928L110.600,239.969L113.800,240.013L117,240.062L120.200,240.115L123.400,240.171L126.600,240.231L129.800,240.294L133,240.359L136.200,240.427L139.400,240.496L142.600,240.567L145.800,240.638L149,240.708L152.200,240.778L155.400,240.846L158.600,240.912L161.800,240.975L165,241.033L168.200,241.087L171.400,241.135L174.600,241.177L177.800,241.211L181,241.237L184.200,241.253L187.400,241.260L190.600,241.257L193.800,241.242L197,241.215L200.200,241.176L203.400,241.124L206.600,241.058L209.800,240.979L213,240.886L216.200,240.779L219.400,240.658L222.600,240.523L225.800,240.374L229,240.212L232.200,240.038L235.400,239.852L238.600,239.655L241.800,239.447L245,239.231L248.200,239.007L251.400,238.777L254.600,238.542L257.800,238.304L261,238.065L264.200,237.826L267.400,237.591L270.600,237.360L273.800,237.137L277,236.923L280.200,236.722L283.400,236.535L286.600,236.365L289.800,236.214L293,236.085L296.200,235.980L299.400,235.902L302.600,235.853L305.800,235.835L309,235.850L312.200,235.900L315.400,235.987L318.600,236.111L321.800,236.276L325,236.481L328.200,236.727L331.400,237.015L334.600,237.345L337.800,237.717L341,238.129L344.200,238.582L347.400,239.074L350.600,239.603L353.800,240.167L357,240.763L360.200,241.389L363.400,242.041L366.600,242.716L369.800,243.408L373,244.115L376.200,244.830L379.400,245.548L382.600,246.264L385.800,246.972L389,247.665L392.200,248.337L395.400,248.981L398.600,249.591L401.800,250.159L405,250.678L408.200,251.142L411.400,251.543L414.600,251.874L417.800,252.128L421,252.300L424.200,252.382L427.400,252.369L430.600,252.256L433.800,252.037L437,251.708L440.200,251.266L443.400,250.706L446.600,250.028L449.800,249.230L453,248.310L456.200,247.270L459.400,246.111L462.600,244.835L465.800,243.447L469,241.949L472.200,240.349L475.400,238.653L478.600,236.870L481.800,235.009L485,233.079L488.200,231.094L491.400,229.065L494.600,227.007L497.800,224.934L501,222.862L504.200,220.808L507.400,218.789L510.600,216.825L513.800,214.933L517,213.133L520.200,211.446L523.400,209.890L526.600,208.486L529.800,207.255L533,206.215L536.200,205.387L539.400,204.789L542.600,204.439L545.800,204.354L549,204.551L552.200,205.044L555.400,205.845L558.600,206.966L561.800,208.417L565,210.205L568.200,212.335L571.400,214.809L574.600,217.627L577.800,220.786L581,224.281L584.200,228.103L587.400,232.240L590.600,236.676L593.800,241.394L597,246.370L600.200,251.582L603.400,256.999L606.600,262.591L609.800,268.323L613,274.156L616.200,280.049L619.400,285.959L622.600,291.840L625.800,297.642L629,303.315L632.200,308.805L635.400,314.058L638.600,319.019L641.800,323.631L645,327.836L648.200,331.579L651.400,334.802L654.600,337.450L657.800,339.469L661,340.807L664.200,341.413L667.400,341.242L670.600,340.251L673.800,338.399L677,335.653L680.200,331.985L683.400,327.369L686.600,321.790L689.800,315.237L693,307.707L696.200,299.204L699.400,289.741L702.600,279.338L705.800,268.026L709,255.843L712.200,242.837L715.400,229.065L718.600,214.594L721.800,199.499L725,183.865L728.200,167.789L731.400,151.371L734.600,134.726L737.800,117.973L741,101.239L744.200,84.661L747.400,68.380L750.600,52.543L753.800,37.302L757,22.813L760.200,9.236L763.400,-3.269L766.600,-14.540L769.800,-24.418L773,-32.742L776.200,-39.359L779.400,-44.117L782.600,-46.872L785.800,-47.488L789,-45.838L792.200,-41.806L795.400,-35.288L798.600,-26.194L801.800,-14.451L805,0" stroke="rgb(61, 148, 255)" fill="none"/></g></g></svg>