<svg xmlns="http://www.w3.org/2000/svg" width="810" height="240.0" viewBox="0 0 810 240.0"><rect x="5" y="0" width="800" height="240.0" fill="#2b2b2e"/><g class="xlines"><line x1="25.0" y1="240.0" x2="25.0" y2="0.0" stroke="#202020"/><line x1="45.0" y1="240.0" x2="45.0" y2="0.0" stroke="#202020"/><line x1="65.0" y1="240.0" x2="65.0" y2="0.0" stroke="#202020"/><line x1="85.0" y1="240.0" x2="85.0" y2="0.0" stroke="#202020"/><line x1="105.0" y1="240.0" x2="105.0" y2="0.0" stroke="#202020"/><line x1="125.0" y1="240.0" x2="125.0" y2="0.0" stroke="#202020"/><line x1="145.0" y1="240.0" x2="145.0" y2="0.0" stroke="#202020"/><line x1="165.0" y1="240.0" x2="165.0" y2="0.0" stroke="#202020"/><line x1="185.0" y1="240.0" x2="185.0" y2="0.0" stroke="#202020"/><line x1="205.0" y1="240.0" x2="205.0" y2="0.0" stroke="#202020"/><line x1="225.00000000000003" y1="240.0" x2="225.00000000000003" y2="0.0" stroke="#202020"/><line x1="245.0" y1="240.0" x2="245.0" y2="0.0" stroke="#202020"/><line x1="265.0" y1="240.0" x2="265.0" y2="0.0" stroke="#202020"/><line x1="285.0" y1="240.0" x2="285.0" y2="0.0" stroke="#202020"/><line x1="305.0" y1="240.0" x2="305.0" y2="0.0" stroke="#202020"/><line x1="325.0" y1="240.0" x2="325.0" y2="0.0" stroke="#202020"/><line x1="345.0" y1="240.0" x2="345.0" y2="0.0" stroke="#202020"/><line x1="365.0" y1="240.0" x2="365.0" y2="0.0" stroke="#202020"/><line x1="385.0" y1="240.0" x2="385.0" y2="0.0" stroke="#202020"/><line x1="405.0" y1="240.0" x2="405.0" y2="0.0" stroke="#202020"/><line x1="425.0" y1="240.0" x2="425.0" y2="0.0" stroke="#202020"/><line x1="445.00000000000006" y1="240.0" x2="445.00000000000006" y2="0.0" stroke="#202020"/><line x1="464.99999999999994" y1="240.0" x2="464.99999999999994" y2="0.0" stroke="#202020"/><line x1="485.0" y1="240.0" x2="485.0" y2="0.0" stroke="#202020"/><line x1="505.0" y1="240.0" x2="505.0" y2="0.0" stroke="#202020"/><line x1="525.0" y1="240.0" x2="525.0" y2="0.0" stroke="#202020"/><line x1="545.0" y1="240.0" x2="545.0" y2="0.0" stroke="#202020"/><line x1="565.0" y1="240.0" x2="565.0" y2="0.0" stroke="#202020"/><line x1="585.0" y1="240.0" x2="585.0" y2="0.0" stroke="#202020"/><line x1="605.0" y1="240.0" x2="605.0" y2="0.0" stroke="#202020"/><line x1="625.0" y1="240.0" x2="625.0" y2="0.0" stroke="#202020"/><line x1="645.0" y1="240.0" x2="645.0" y2="0.0" stroke="#202020"/><line x1="665.0" y1="240.0" x2="665.0" y2="0.0" stroke="#202020"/><line x1="685.0" y1="240.0" x2="685.0" y2="0.0" stroke="#202020"/><line x1="705.0" y1="240.0" x2="705.0" y2="0.0" stroke="#202020"/><line x1="725.0" y1="240.0" x2="725.0" y2="0.0" stroke="#202020"/><line x1="745.0" y1="240.0" x2="745.0" y2="0.0" stroke="#202020"/><line x1="765.0" y1="240.0" x2="765.0" y2="0.0" stroke="#202020"/><line x1="785.0" y1="240.0" x2="785.0" y2="0.0" stroke="#202020"/></g><g class="ylines"><line x1="5.0" y1="220.0" x2="805.0" y2="220.0" stroke="#202020"/><line x1="5.0" y1="200.0" x2="805.0" y2="200.0" stroke="#202020"/><line x1="5.0" y1="180.0" x2="805.0" y2="180.0" stroke="#202020"/><line x1="5.0" y1="160.00000000000003" x2="805.0" y2="160.00000000000003" stroke="#202020"/><line x1="5.0" y1="139.99999999999997" x2="805.0" y2="139.99999999999997" stroke="#202020"/><line x1="5.0" y1="120.0" x2="805.0" y2="120.0" stroke="#202020"/><line x1="5.0" y1="99.99999999999999" x2="805.0" y2="99.99999999999999" stroke="#202020"/><line x1="5.0" y1="80.00000000000001" x2="805.0" y2="80.00000000000001" stroke="#202020"/><line x1="5.0" y1="60.0" x2="805.0" y2="60.0" stroke="#202020"/><line x1="5.0" y1="39.99999999999999" x2="805.0" y2="39.99999999999999" stroke="#202020"/><line x1="5.0" y1="20.000000000000007" x2="805.0" y2="20.000000000000007" stroke="#202020"/></g><g class="ease"><path d="M5,240L8.200,239.398L11.400,238.912L14.600,238.543L17.800,238.289L21,238.152L24.200,238.131L27.400,238.226L30.600,238.437L33.800,238.764L37,239.208L40.200,239.768L43.400,239.184L46.600,237.996L49.800,236.924L53,235.968L56.200,235.128L59.400,234.405L62.600,233.798L65.800,233.307L69,232.932L72.200,232.673L75.400,232.531L78.600,232.504L81.800,232.594L85,232.800L88.200,233.122L91.400,233.560L94.600,234.115L97.800,234.785L101,235.572L104.200,236.475L107.400,237.494L110.600,238.629L113.800,239.880L117,237.648L120.200,235.172L123.400,232.812L126.600,230.568L129.800,228.440L133,226.428L136.200,224.532L139.400,222.753L142.600,221.090L145.800,219.543L149,218.112L152.200,216.797L155.400,215.599L158.600,214.516L161.800,213.550L165,212.700L168.200,211.966L171.400,211.348L174.600,210.847L177.800,210.461L181,210.192L184.200,210.039L187.400,210.002L190.600,210.081L193.800,210.276L197,210.588L200.200,211.016L203.400,211.560L206.600,212.220L209.800,212.996L213,213.888L216.200,214.896L219.400,216.021L222.600,217.262L225.800,218.619L229,220.092L232.200,221.681L235.400,223.387L238.600,225.208L241.800,227.146L245,229.200L248.200,231.370L251.400,233.656L254.600,236.059L257.800,238.577L261,237.612L264.200,232.443L267.400,227.390L270.600,222.453L273.800,217.632L277,212.928L280.200,208.340L283.400,203.868L286.600,199.512L289.800,195.272L293,191.148L296.200,187.140L299.400,183.249L302.600,179.474L305.800,175.815L309,172.272L312.200,168.845L315.400,165.535L318.600,162.340L321.800,159.262L325,156.300L328.200,153.454L331.400,150.724L334.600,148.111L337.800,145.613L341,143.232L344.200,140.967L347.400,138.818L350.600,136.785L353.800,134.868L357,133.068L360.200,131.384L363.400,129.816L366.600,128.364L369.800,127.028L373,125.808L376.200,124.704L379.400,123.717L382.600,122.846L385.800,122.091L389,121.452L392.200,120.929L395.400,120.523L398.600,120.232L401.800,120.058L405,120L408.200,119.942L411.400,119.768L414.600,119.477L417.800,119.071L421,118.548L424.200,117.909L427.400,117.154L430.600,116.283L433.800,115.296L437,114.192L440.200,112.972L443.400,111.636L446.600,110.184L449.800,108.616L453,106.932L456.200,105.132L459.400,103.215L462.600,101.182L465.800,99.033L469,96.768L472.200,94.387L475.400,91.889L478.600,89.276L481.800,86.546L485,83.700L488.200,80.738L491.400,77.660L494.600,74.465L497.800,71.155L501,67.728L504.200,64.185L507.400,60.526L510.600,56.751L513.800,52.860L517,48.852L520.200,44.728L523.400,40.488L526.600,36.132L529.800,31.660L533,27.072L536.200,22.368L539.400,17.547L542.600,12.610L545.800,7.557L549,2.388L552.200,1.423L555.400,3.941L558.600,6.344L561.800,8.630L565,10.800L568.200,12.854L571.400,14.792L574.600,16.613L577.800,18.319L581,19.908L584.200,21.381L587.400,22.738L590.600,23.979L593.800,25.104L597,26.112L600.200,27.004L603.400,27.780L606.600,28.440L609.800,28.984L613,29.412L616.200,29.724L619.400,29.919L622.600,29.998L625.800,29.961L629,29.808L632.200,29.539L635.400,29.153L638.600,28.652L641.800,28.034L645,27.300L648.200,26.450L651.400,25.484L654.600,24.401L657.800,23.203L661,21.888L664.200,20.457L667.400,18.910L670.600,17.247L673.800,15.468L677,13.572L680.200,11.560L683.400,9.432L686.600,7.188L689.800,4.828L693,2.352L696.200,0.120L699.400,1.371L702.600,2.506L705.800,3.525L709,4.428L712.200,5.215L715.400,5.885L718.600,6.440L721.800,6.878L725,7.200L728.200,7.406L731.400,7.496L734.600,7.469L737.800,7.327L741,7.068L744.200,6.693L747.400,6.202L750.600,5.595L753.800,4.872L757,4.032L760.200,3.076L763.400,2.004L766.600,0.816L769.800,0.232L773,0.792L776.200,1.236L779.400,1.563L782.600,1.774L785.800,1.869L789,1.848L792.200,1.711L795.400,1.457L798.600,1.088L801.800,0.602L805,0" stroke="white" fill="none"/></g></svg>