<svg xmlns="http://www.w3.org/2000/svg" width="810" height="240.0" viewBox="0 0 810 240.0"><rect x="5" y="0" width="800" height="240.0" fill="#2b2b2e"/><g class="xlines"><line x1="25.0" y1="240.0" x2="25.0" y2="0.0" stroke="#202020"/><line x1="45.0" y1="240.0" x2="45.0" y2="0.0" stroke="#202020"/><line x1="65.0" y1="240.0" x2="65.0" y2="0.0" stroke="#202020"/><line x1="85.0" y1="240.0" x2="85.0" y2="0.0" stroke="#202020"/><line x1="105.0" y1="240.0" x2="105.0" y2="0.0" stroke="#202020"/><line x1="125.0" y1="240.0" x2="125.0" y2="0.0" stroke="#202020"/><line x1="145.0" y1="240.0" x2="145.0" y2="0.0" stroke="#202020"/><line x1="165.0" y1="240.0" x2="165.0" y2="0.0" stroke="#202020"/><line x1="185.0" y1="240.0" x2="185.0" y2="0.0" stroke="#202020"/><line x1="205.0" y1="240.0" x2="205.0" y2="0.0" stroke="#202020"/><line x1="225.00000000000003" y1="240.0" x2="225.00000000000003" y2="0.0" stroke="#202020"/><line x1="245.0" y1="240.0" x2="245.0" y2="0.0" stroke="#202020"/><line x1="265.0" y1="240.0" x2="265.0" y2="0.0" stroke="#202020"/><line x1="285.0" y1="240.0" x2="285.0" y2="0.0" stroke="#202020"/><line x1="305.0" y1="240.0" x2="305.0" y2="0.0" stroke="#202020"/><line x1="325.0" y1="240.0" x2="325.0" y2="0.0" stroke="#202020"/><line x1="345.0" y1="240.0" x2="345.0" y2="0.0" stroke="#202020"/><line x1="365.0" y1="240.0" x2="365.0" y2="0.0" stroke="#202020"/><line x1="385.0" y1="240.0" x2="385.0" y2="0.0" stroke="#202020"/><line x1="405.0" y1="240.0" x2="405.0" y2="0.0" stroke="#202020"/><line x1="425.0" y1="240.0" x2="425.0" y2="0.0" stroke="#202020"/><line x1="445.00000000000006" y1="240.0" x2="445.00000000000006" y2="0.0" stroke="#202020"/><line x1="464.99999999999994" y1="240.0" x2="464.99999999999994" y2="0.0" stroke="#202020"/><line x1="485.0" y1="240.0" x2="485.0" y2="0.0" stroke="#202020"/><line x1="505.0" y1="240.0" x2="505.0" y2="0.0" stroke="#202020"/><line x1="525.0" y1="240.0" x2="525.0" y2="0.0" stroke="#202020"/><line x1="545.0" y1="240.0" x2="545.0" y2="0.0" stroke="#202020"/><line x1="565.0" y1="240.0" x2="565.0" y2="0.0" stroke="#202020"/><line x1="585.0" y1="240.0" x2="585.0" y2="0.0" stroke="#202020"/><line x1="605.0" y1="240.0" x2="605.0" y2="0.0" stroke="#202020"/><line x1="625.0" y1="240.0" x2="625.0" y2="0.0" stroke="#202020"/><line x1="645.0" y1="240.0" x2="645.0" y2="0.0" stroke="#202020"/><line x1="665.0" y1="240.0" x2="665.0" y2="0.0" stroke="#202020"/><line x1="685.0" y1="240.0" x2="685.0" y2="0.0" stroke="#202020"/><line x1="705.0" y1="240.0" x2="705.0" y2="0.0" stroke="#202020"/><line x1="725.0" y1="240.0" x2="725.0" y2="0.0" stroke="#202020"/><line x1="745.0" y1="240.0" x2="745.0" y2="0.0" stroke="#202020"/><line x1="765.0" y1="240.0" x2="765.0" y2="0.0" stroke="#202020"/><line x1="785.0" y1="240.0" x2="785.0" y2="0.0" stroke="#202020"/></g><g class="ylines"><line x1="5.0" y1="220.0" x2="805.0" y2="220.0" stroke="#202020"/><line x1="5.0" y1="200.0" x2="805.0" y2="200.0" stroke="#202020"/><line x1="5.0" y1="180.0" x2="805.0" y2="180.0" stroke="#202020"/><line x1="5.0" y1="160.00000000000003" x2="805.0" y2="160.00000000000003" stroke="#202020"/><line x1="5.0" y1="139.99999999999997" x2="805.0" y2="139.99999999999997" stroke="#202020"/><line x1="5.0" y1="120.0" x2="805.0" y2="120.0" stroke="#202020"/><line x1="5.0" y1="99.99999999999999" x2="805.0" y2="99.99999999999999" stroke="#202020"/><line x1="5.0" y1="80.00000000000001" x2="805.0" y2="80.00000000000001" stroke="#202020"/><line x1="5.0" y1="60.0" x2="805.0" y2="60.0" stroke="#202020"/><line x1="5.0" y1="39.99999999999999" x2="805.0" y2="39.99999999999999" stroke="#202020"/><line x1="5.0" y1="20.000000000000007" x2="805.0" y2="20.000000000000007" stroke="#202020"/></g><g class="ease"><path d="M5,240L8.200,239.995L11.400,239.981L14.600,239.957L17.800,239.924L21,239.882L24.200,239.829L27.400,239.768L30.600,239.697L33.800,239.616L37,239.526L40.200,239.427L43.400,239.318L46.600,239.200L49.800,239.072L53,238.935L56.200,238.788L59.400,238.632L62.600,238.467L65.800,238.292L69,238.108L72.200,237.914L75.400,237.711L78.600,237.498L81.800,237.276L85,237.045L88.200,236.805L91.400,236.555L94.600,236.295L97.800,236.027L101,235.749L104.200,235.462L107.400,235.165L110.600,234.859L113.800,234.544L117,234.220L120.200,233.886L123.400,233.544L126.600,233.192L129.800,232.830L133,232.460L136.200,232.080L139.400,231.692L142.600,231.294L145.800,230.887L149,230.470L152.200,230.045L155.400,229.611L158.600,229.167L161.800,228.715L165,228.254L168.200,227.783L171.400,227.304L174.600,226.815L177.800,226.318L181,225.811L184.200,225.296L187.400,224.772L190.600,224.239L193.800,223.697L197,223.146L200.200,222.587L203.400,222.019L206.600,221.441L209.800,220.856L213,220.261L216.200,219.658L219.400,219.046L222.600,218.425L225.800,217.796L229,217.158L232.200,216.512L235.400,215.857L238.600,215.194L241.800,214.522L245,213.842L248.200,213.153L251.400,212.456L254.600,211.750L257.800,211.036L261,210.314L264.200,209.583L267.400,208.844L270.600,208.097L273.800,207.342L277,206.578L280.200,205.806L283.400,205.027L286.600,204.239L289.800,203.443L293,202.639L296.200,201.827L299.400,201.007L302.600,200.179L305.800,199.343L309,198.499L312.200,197.648L315.400,196.789L318.600,195.921L321.800,195.047L325,194.164L328.200,193.274L331.400,192.376L334.600,191.471L337.800,190.558L341,189.637L344.200,188.709L347.400,187.774L350.600,186.831L353.800,185.881L357,184.923L360.200,183.958L363.400,182.986L366.600,182.007L369.800,181.020L373,180.027L376.200,179.026L379.400,178.018L382.600,177.003L385.800,175.981L389,174.952L392.200,173.917L395.400,172.874L398.600,171.825L401.800,170.769L405,169.706L408.200,168.636L411.400,167.560L414.600,166.477L417.800,165.387L421,164.291L424.200,163.189L427.400,162.080L430.600,160.965L433.800,159.843L437,158.715L440.200,157.581L443.400,156.440L446.600,155.293L449.800,154.141L453,152.982L456.200,151.817L459.400,150.646L462.600,149.469L465.800,148.286L469,147.098L472.200,145.903L475.400,144.703L478.600,143.497L481.800,142.286L485,141.068L488.200,139.846L491.400,138.617L494.600,137.384L497.800,136.145L501,134.900L504.200,133.650L507.400,132.395L510.600,131.135L513.800,129.869L517,128.598L520.200,127.323L523.400,126.042L526.600,124.756L529.800,123.465L533,122.170L536.200,120.870L539.400,119.564L542.600,118.255L545.800,116.940L549,115.621L552.200,114.297L555.400,112.969L558.600,111.636L561.800,110.299L565,108.958L568.200,107.612L571.400,106.262L574.600,104.908L577.800,103.549L581,102.187L584.200,100.821L587.400,99.450L590.600,98.076L593.800,96.698L597,95.315L600.200,93.930L603.400,92.540L606.600,91.147L609.800,89.750L613,88.350L616.200,86.946L619.400,85.539L622.600,84.128L625.800,82.714L629,81.297L632.200,79.877L635.400,78.453L638.600,77.026L641.800,75.597L645,74.164L648.200,72.728L651.400,71.290L654.600,69.849L657.800,68.405L661,66.958L664.200,65.508L667.400,64.056L670.600,62.602L673.800,61.145L677,59.686L680.200,58.224L683.400,56.760L686.600,55.293L689.800,53.825L693,52.354L696.200,50.882L699.400,49.407L702.600,47.930L705.800,46.452L709,44.972L712.200,43.489L715.400,42.006L718.600,40.520L721.800,39.033L725,37.544L728.200,36.054L731.400,34.563L734.600,33.070L737.800,31.575L741,30.080L744.200,28.583L747.400,27.086L750.600,25.587L753.800,24.087L757,22.586L760.200,21.084L763.400,19.582L766.600,18.078L769.800,16.574L773,15.070L776.200,13.564L779.400,12.059L782.600,10.552L785.800,9.046L789,7.539L792.200,6.031L795.400,4.524L798.600,3.016L801.800,1.508L805,0" stroke="white" fill="none"/></g></svg>