<svg xmlns="http://www.w3.org/2000/svg" width="810" height="360.0" viewBox="0 0 810 360.0"><g class="legend"><text x="8.0" y="12.0" fill="white">amplitude</text><g transform="translate(8.0, 15.0)"><rect x="0" y="0" width="3" height="16.0" fill="rgb(153, 153, 153)"/><rect x="2" y="0" width="3" height="16.0" fill="rgb(152, 153, 154)"/><rect x="4" y="0" width="3" height="16.0" fill="rgb(152, 153, 154)"/><rect x="6" y="0" width="3" height="16.0" fill="rgb(151, 153, 155)"/><rect x="8" y="0" width="3" height="16.0" fill="rgb(151, 153, 156)"/><rect x="10" y="0" width="3" height="16.0" fill="rgb(150, 153, 156)"/><rect x="12" y="0" width="3" height="16.0" fill="rgb(149, 153, 157)"/><rect x="14" y="0" width="3" height="16.0" fill="rgb(149, 153, 158)"/><rect x="16" y="0" width="3" height="16.0" fill="rgb(148, 153, 158)"/><rect x="18" y="0" width="3" height="16.0" fill="rgb(147, 153, 159)"/><rect x="20" y="0" width="3" height="16.0" fill="rgb(147, 153, 160)"/><rect x="22" y="0" width="3" height="16.0" fill="rgb(146, 153, 160)"/><rect x="24" y="0" width="3" height="16.0" fill="rgb(146, 153, 161)"/><rect x="26" y="0" width="3" height="16.0" fill="rgb(145, 153, 162)"/><rect x="28" y="0" width="3" height="16.0" fill="rgb(144, 153, 163)"/><rect x="30" y="0" width="3" height="16.0" fill="rgb(144, 152, 163)"/><rect x="32" y="0" width="3" height="16.0" fill="rgb(143, 152, 164)"/><rect x="34" y="0" width="3" height="16.0" fill="rgb(143, 152, 165)"/><rect x="36" y="0" width="3" height="16.0" fill="rgb(142, 152, 165)"/><rect x="38" y="0" width="3" height="16.0" fill="rgb(141, 152, 166)"/><rect x="40" y="0" width="3" height="16.0" fill="rgb(141, 152, 167)"/><rect x="42" y="0" width="3" height="16.0" fill="rgb(140, 152, 167)"/><rect x="44" y="0" width="3" height="16.0" fill="rgb(140, 152, 168)"/><rect x="46" y="0" width="3" height="16.0" fill="rgb(139, 152, 169)"/><rect x="48" y="0" width="3" height="16.0" fill="rgb(138, 152, 169)"/><rect x="50" y="0" width="3" height="16.0" fill="rgb(138, 152, 170)"/><rect x="52" y="0" width="3" height="16.0" fill="rgb(137, 152, 171)"/><rect x="54" y="0" width="3" height="16.0" fill="rgb(136, 152, 171)"/><rect x="56" y="0" width="3" height="16.0" fill="rgb(136, 152, 172)"/><rect x="58" y="0" width="3" height="16.0" fill="rgb(135, 152, 173)"/><rect x="60" y="0" width="3" height="16.0" fill="rgb(135, 152, 173)"/><rect x="62" y="0" width="3" height="16.0" fill="rgb(134, 152, 174)"/><rect x="64" y="0" width="3" height="16.0" fill="rgb(133, 152, 175)"/><rect x="66" y="0" width="3" height="16.0" fill="rgb(133, 152, 175)"/><rect x="68" y="0" width="3" height="16.0" fill="rgb(132, 152, 176)"/><rect x="70" y="0" width="3" height="16.0" fill="rgb(132, 152, 177)"/><rect x="72" y="0" width="3" height="16.0" fill="rgb(131, 152, 177)"/><rect x="74" y="0" width="3" height="16.0" fill="rgb(130, 152, 178)"/><rect x="76" y="0" width="3" height="16.0" fill="rgb(130, 152, 179)"/><rect x="78" y="0" width="3" height="16.0" fill="rgb(129, 152, 180)"/><rect x="80" y="0" width="3" height="16.0" fill="rgb(128, 152, 180)"/><rect x="82" y="0" width="3" height="16.0" fill="rgb(128, 152, 181)"/><rect x="84" y="0" width="3" height="16.0" fill="rgb(127, 152, 182)"/><rect x="86" y="0" width="3" height="16.0" fill="rgb(127, 152, 182)"/><rect x="88" y="0" width="3" height="16.0" fill="rgb(126, 152, 183)"/><rect x="90" y="0" width="3" height="16.0" fill="rgb(125, 152, 184)"/><rect x="92" y="0" width="3" height="16.0" fill="rgb(125, 151, 184)"/><rect x="94" y="0" width="3" height="16.0" fill="rgb(124, 151, 185)"/><rect x="96" y="0" width="3" height="16.0" fill="rgb(124, 151, 186)"/><rect x="98" y="0" width="3" height="16.0" fill="rgb(123, 151, 186)"/><rect x="100" y="0" width="3" height="16.0" fill="rgb(122, 151, 187)"/><rect x="102" y="0" width="3" height="16.0" fill="rgb(122, 151, 188)"/><rect x="104" y="0" width="3" height="16.0" fill="rgb(121, 151, 188)"/><rect x="106" y="0" width="3" height="16.0" fill="rgb(120, 151, 189)"/><rect x="108" y="0" width="3" height="16.0" fill="rgb(120, 151, 190)"/><rect x="110" y="0" width="3" height="16.0" fill="rgb(119, 151, 190)"/><rect x="112" y="0" width="3" height="16.0" fill="rgb(119, 151, 191)"/><rect x="114" y="0" width="3" height="16.0" fill="rgb(118, 151, 192)"/><rect x="116" y="0" width="3" height="16.0" fill="rgb(117, 151, 192)"/><rect x="118" y="0" width="3" height="16.0" fill="rgb(117, 151, 193)"/><rect x="120" y="0" width="3" height="16.0" fill="rgb(116, 151, 194)"/><rect x="122" y="0" width="3" height="16.0" fill="rgb(116, 151, 194)"/><rect x="124" y="0" width="3" height="16.0" fill="rgb(115, 151, 195)"/><rect x="126" y="0" width="3" height="16.0" fill="rgb(114, 151, 196)"/><rect x="128" y="0" width="3" height="16.0" fill="rgb(114, 151, 197)"/><rect x="130" y="0" width="3" height="16.0" fill="rgb(113, 151, 197)"/><rect x="132" y="0" width="3" height="16.0" fill="rgb(113, 151, 198)"/><rect x="134" y="0" width="3" height="16.0" fill="rgb(112, 151, 199)"/><rect x="136" y="0" width="3" height="16.0" fill="rgb(111, 151, 199)"/><rect x="138" y="0" width="3" height="16.0" fill="rgb(111, 151, 200)"/><rect x="140" y="0" width="3" height="16.0" fill="rgb(110, 151, 201)"/><rect x="142" y="0" width="3" height="16.0" fill="rgb(109, 151, 201)"/><rect x="144" y="0" width="3" height="16.0" fill="rgb(109, 151, 202)"/><rect x="146" y="0" width="3" height="16.0" fill="rgb(108, 151, 203)"/><rect x="148" y="0" width="3" height="16.0" fill="rgb(108, 151, 203)"/><rect x="150" y="0" width="3" height="16.0" fill="rgb(107, 150, 204)"/><rect x="152" y="0" width="3" height="16.0" fill="rgb(106, 150, 205)"/><rect x="154" y="0" width="3" height="16.0" fill="rgb(106, 150, 205)"/><rect x="156" y="0" width="3" height="16.0" fill="rgb(105, 150, 206)"/><rect x="158" y="0" width="3" height="16.0" fill="rgb(105, 150, 207)"/><rect x="160" y="0" width="3" height="16.0" fill="rgb(104, 150, 207)"/><rect x="162" y="0" width="3" height="16.0" fill="rgb(103, 150, 208)"/><rect x="164" y="0" width="3" height="16.0" fill="rgb(103, 150, 209)"/><rect x="166" y="0" width="3" height="16.0" fill="rgb(102, 150, 209)"/><rect x="168" y="0" width="3" height="16.0" fill="rgb(101, 150, 210)"/><rect x="170" y="0" width="3" height="16.0" fill="rgb(101, 150, 211)"/><rect x="172" y="0" width="3" height="16.0" fill="rgb(100, 150, 211)"/><rect x="174" y="0" width="3" height="16.0" fill="rgb(100, 150, 212)"/><rect x="176" y="0" width="3" height="16.0" fill="rgb(99, 150, 213)"/><rect x="178" y="0" width="3" height="16.0" fill="rgb(98, 150, 214)"/><rect x="180" y="0" width="3" height="16.0" fill="rgb(98, 150, 214)"/><rect x="182" y="0" width="3" height="16.0" fill="rgb(97, 150, 215)"/><rect x="184" y="0" width="3" height="16.0" fill="rgb(97, 150, 216)"/><rect x="186" y="0" width="3" height="16.0" fill="rgb(96, 150, 216)"/><rect x="188" y="0" width="3" height="16.0" fill="rgb(95, 150, 217)"/><rect x="190" y="0" width="3" height="16.0" fill="rgb(95, 150, 218)"/><rect x="192" y="0" width="3" height="16.0" fill="rgb(94, 150, 218)"/><rect x="194" y="0" width="3" height="16.0" fill="rgb(94, 150, 219)"/><rect x="196" y="0" width="3" height="16.0" fill="rgb(93, 150, 220)"/><rect x="198" y="0" width="3" height="16.0" fill="rgb(92, 150, 220)"/><rect x="200" y="0" width="3" height="16.0" fill="rgb(92, 150, 221)"/><rect x="202" y="0" width="3" height="16.0" fill="rgb(91, 150, 222)"/><rect x="204" y="0" width="3" height="16.0" fill="rgb(90, 150, 222)"/><rect x="206" y="0" width="3" height="16.0" fill="rgb(90, 150, 223)"/><rect x="208" y="0" width="3" height="16.0" fill="rgb(89, 150, 224)"/><rect x="210" y="0" width="3" height="16.0" fill="rgb(89, 150, 224)"/><rect x="212" y="0" width="3" height="16.0" fill="rgb(88, 149, 225)"/><rect x="214" y="0" width="3" height="16.0" fill="rgb(87, 149, 226)"/><rect x="216" y="0" width="3" height="16.0" fill="rgb(87, 149, 226)"/><rect x="218" y="0" width="3" height="16.0" fill="rgb(86, 149, 227)"/><rect x="220" y="0" width="3" height="16.0" fill="rgb(86, 149, 228)"/><rect x="222" y="0" width="3" height="16.0" fill="rgb(85, 149, 228)"/><rect x="224" y="0" width="3" height="16.0" fill="rgb(84, 149, 229)"/><rect x="226" y="0" width="3" height="16.0" fill="rgb(84, 149, 230)"/><rect x="228" y="0" width="3" height="16.0" fill="rgb(83, 149, 231)"/><rect x="230" y="0" width="3" height="16.0" fill="rgb(82, 149, 231)"/><rect x="232" y="0" width="3" height="16.0" fill="rgb(82, 149, 232)"/><rect x="234" y="0" width="3" height="16.0" fill="rgb(81, 149, 233)"/><rect x="236" y="0" width="3" height="16.0" fill="rgb(81, 149, 233)"/><rect x="238" y="0" width="3" height="16.0" fill="rgb(80, 149, 234)"/><rect x="240" y="0" width="3" height="16.0" fill="rgb(79, 149, 235)"/><rect x="242" y="0" width="3" height="16.0" fill="rgb(79, 149, 235)"/><rect x="244" y="0" width="3" height="16.0" fill="rgb(78, 149, 236)"/><rect x="246" y="0" width="3" height="16.0" fill="rgb(78, 149, 237)"/><rect x="248" y="0" width="3" height="16.0" fill="rgb(77, 149, 237)"/><rect x="250" y="0" width="3" height="16.0" fill="rgb(76, 149, 238)"/><rect x="252" y="0" width="3" height="16.0" fill="rgb(76, 149, 239)"/><rect x="254" y="0" width="3" height="16.0" fill="rgb(75, 149, 239)"/><rect x="256" y="0" width="3" height="16.0" fill="rgb(74, 149, 240)"/><rect x="258" y="0" width="3" height="16.0" fill="rgb(74, 149, 241)"/><rect x="260" y="0" width="3" height="16.0" fill="rgb(73, 149, 241)"/><rect x="262" y="0" width="3" height="16.0" fill="rgb(73, 149, 242)"/><rect x="264" y="0" width="3" height="16.0" fill="rgb(72, 149, 243)"/><rect x="266" y="0" width="3" height="16.0" fill="rgb(71, 149, 243)"/><rect x="268" y="0" width="3" height="16.0" fill="rgb(71, 149, 244)"/><rect x="270" y="0" width="3" height="16.0" fill="rgb(70, 148, 245)"/><rect x="272" y="0" width="3" height="16.0" fill="rgb(70, 148, 245)"/><rect x="274" y="0" width="3" height="16.0" fill="rgb(69, 148, 246)"/><rect x="276" y="0" width="3" height="16.0" fill="rgb(68, 148, 247)"/><rect x="278" y="0" width="3" height="16.0" fill="rgb(68, 148, 248)"/><rect x="280" y="0" width="3" height="16.0" fill="rgb(67, 148, 248)"/><rect x="282" y="0" width="3" height="16.0" fill="rgb(67, 148, 249)"/><rect x="284" y="0" width="3" height="16.0" fill="rgb(66, 148, 250)"/><rect x="286" y="0" width="3" height="16.0" fill="rgb(65, 148, 250)"/><rect x="288" y="0" width="3" height="16.0" fill="rgb(65, 148, 251)"/><rect x="290" y="0" width="3" height="16.0" fill="rgb(64, 148, 252)"/><rect x="292" y="0" width="3" height="16.0" fill="rgb(63, 148, 252)"/><rect x="294" y="0" width="3" height="16.0" fill="rgb(63, 148, 253)"/><rect x="296" y="0" width="3" height="16.0" fill="rgb(62, 148, 254)"/><rect x="298" y="0" width="3" height="16.0" fill="rgb(62, 148, 254)"/></g><g transform="translate(8.0, 15.0)" fill="none" font-size="10" font-family="sans-serif" text-anchor="middle"><g class="tick" opacity="1" transform="translate(0.5, 0)"><line stroke="white" y2="19.2"/><text fill="white" y="22.2" dy="0.71em">1.0</text></g><g class="tick" opacity="1" transform="translate(60.50000000000006, 0)"><line stroke="white" y2="19.2"/><text fill="white" y="22.2" dy="0.71em">1.1</text></g><g class="tick" opacity="1" transform="translate(120.49999999999997, 0)"><line stroke="white" y2="19.2"/><text fill="white" y="22.2" dy="0.71em">1.2</text></g><g class="tick" opacity="1" transform="translate(180.50000000000003, 0)"><line stroke="white" y2="19.2"/><text fill="white" y="22.2" dy="0.71em">1.3</text></g><g class="tick" opacity="1" transform="translate(240.49999999999994, 0)"><line stroke="white" y2="19.2"/><text fill="white" y="22.2" dy="0.71em">1.4</text></g><g class="tick" opacity="1" transform="translate(300.5, 0)"><line stroke="white" y2="19.2"/><text fill="white" y="22.2" dy="0.71em">1.5</text></g></g></g><g class="main" transform="translate(0, 60)"><rect x="5" y="0" width="800" height="240.0" fill="#2b2b2e"/><g class="xlines"><line x1="25.0" y1="240.0" x2="25.0" y2="0.0" stroke="#202020"/><line x1="45.0" y1="240.0" x2="45.0" y2="0.0" stroke="#202020"/><line x1="65.0" y1="240.0" x2="65.0" y2="0.0" stroke="#202020"/><line x1="85.0" y1="240.0" x2="85.0" y2="0.0" stroke="#202020"/><line x1="105.0" y1="240.0" x2="105.0" y2="0.0" stroke="#202020"/><line x1="125.0" y1="240.0" x2="125.0" y2="0.0" stroke="#202020"/><line x1="145.0" y1="240.0" x2="145.0" y2="0.0" stroke="#202020"/><line x1="165.0" y1="240.0" x2="165.0" y2="0.0" stroke="#202020"/><line x1="185.0" y1="240.0" x2="185.0" y2="0.0" stroke="#202020"/><line x1="205.0" y1="240.0" x2="205.0" y2="0.0" stroke="#202020"/><line x1="225.00000000000003" y1="240.0" x2="225.00000000000003" y2="0.0" stroke="#202020"/><line x1="245.0" y1="240.0" x2="245.0" y2="0.0" stroke="#202020"/><line x1="265.0" y1="240.0" x2="265.0" y2="0.0" stroke="#202020"/><line x1="285.0" y1="240.0" x2="285.0" y2="0.0" stroke="#202020"/><line x1="305.0" y1="240.0" x2="305.0" y2="0.0" stroke="#202020"/><line x1="325.0" y1="240.0" x2="325.0" y2="0.0" stroke="#202020"/><line x1="345.0" y1="240.0" x2="345.0" y2="0.0" stroke="#202020"/><line x1="365.0" y1="240.0" x2="365.0" y2="0.0" stroke="#202020"/><line x1="385.0" y1="240.0" x2="385.0" y2="0.0" stroke="#202020"/><line x1="405.0" y1="240.0" x2="405.0" y2="0.0" stroke="#202020"/><line x1="425.0" y1="240.0" x2="425.0" y2="0.0" stroke="#202020"/><line x1="445.00000000000006" y1="240.0" x2="445.00000000000006" y2="0.0" stroke="#202020"/><line x1="464.99999999999994" y1="240.0" x2="464.99999999999994" y2="0.0" stroke="#202020"/><line x1="485.0" y1="240.0" x2="485.0" y2="0.0" stroke="#202020"/><line x1="505.0" y1="240.0" x2="505.0" y2="0.0" stroke="#202020"/><line x1="525.0" y1="240.0" x2="525.0" y2="0.0" stroke="#202020"/><line x1="545.0" y1="240.0" x2="545.0" y2="0.0" stroke="#202020"/><line x1="565.0" y1="240.0" x2="565.0" y2="0.0" stroke="#202020"/><line x1="585.0" y1="240.0" x2="585.0" y2="0.0" stroke="#202020"/><line x1="605.0" y1="240.0" x2="605.0" y2="0.0" stroke="#202020"/><line x1="625.0" y1="240.0" x2="625.0" y2="0.0" stroke="#202020"/><line x1="645.0" y1="240.0" x2="645.0" y2="0.0" stroke="#202020"/><line x1="665.0" y1="240.0" x2="665.0" y2="0.0" stroke="#202020"/><line x1="685.0" y1="240.0" x2="685.0" y2="0.0" stroke="#202020"/><line x1="705.0" y1="240.0" x2="705.0" y2="0.0" stroke="#202020"/><line x1="725.0" y1="240.0" x2="725.0" y2="0.0" stroke="#202020"/><line x1="745.0" y1="240.0" x2="745.0" y2="0.0" stroke="#202020"/><line x1="765.0" y1="240.0" x2="765.0" y2="0.0" stroke="#202020"/><line x1="785.0" y1="240.0" x2="785.0" y2="0.0" stroke="#202020"/></g><g class="ylines"><line x1="5.0" y1="220.0" x2="805.0" y2="220.0" stroke="#202020"/><line x1="5.0" y1="200.0" x2="805.0" y2="200.0" stroke="#202020"/><line x1="5.0" y1="180.0" x2="805.0" y2="180.0" stroke="#202020"/><line x1="5.0" y1="160.00000000000003" x2="805.0" y2="160.00000000000003" stroke="#202020"/><line x1="5.0" y1="139.99999999999997" x2="805.0" y2="139.99999999999997" stroke="#202020"/><line x1="5.0" y1="120.0" x2="805.0" y2="120.0" stroke="#202020"/><line x1="5.0" y1="99.99999999999999" x2="805.0" y2="99.99999999999999" stroke="#202020"/><line x1="5.0" y1="80.00000000000001" x2="805.0" y2="80.00000000000001" stroke="#202020"/><line x1="5.0" y1="60.0" x2="805.0" y2="60.0" stroke="#202020"/><line x1="5.0" y1="39.99999999999999" x2="805.0" y2="39.99999999999999" stroke="#202020"/><line x1="5.0" y1="20.000000000000007" x2="805.0" y2="20.000000000000007" stroke="#202020"/></g><g class="ease"><path d="M5,240L8.200,240.002L11.400,240.003L14.600,240L17.800,239.996L21,239.988L24.200,239.979L27.400,239.966L30.600,239.952L33.800,239.937L37,239.921L40.200,239.905L43.400,239.890L46.600,239.877L49.800,239.867L53,239.861L56.200,239.860L59.400,239.866L62.600,239.878L65.800,239.898L69,239.926L72.200,239.962L75.400,240.006L78.600,240.057L81.800,240.114L85,240.176L88.200,240.241L91.400,240.308L94.600,240.374L97.800,240.436L101,240.491L104.200,240.537L107.400,240.570L110.600,240.588L113.800,240.587L117,240.566L120.200,240.522L123.400,240.454L126.600,240.361L129.800,240.243L133,240.100L136.200,239.936L139.400,239.752L142.600,239.552L145.800,239.342L149,239.127L152.200,238.914L155.400,238.710L158.600,238.524L161.800,238.365L165,238.240L168.200,238.160L171.400,238.130L174.600,238.160L177.800,238.256L181,238.421L184.200,238.660L187.400,238.973L190.600,239.359L193.800,239.813L197,240.329L200.200,240.897L203.400,241.505L206.600,242.136L209.800,242.772L213,243.393L216.200,243.977L219.400,244.500L222.600,244.936L225.800,245.261L229,245.450L232.200,245.483L235.400,245.337L238.600,244.998L241.800,244.452L245,243.695L248.200,242.725L251.400,241.550L254.600,240.183L257.800,238.648L261,236.975L264.200,235.203L267.400,233.379L270.600,231.557L273.800,229.798L277,228.166L280.200,226.731L283.400,225.564L286.600,224.734L289.800,224.309L293,224.351L296.200,224.913L299.400,226.038L302.600,227.756L305.800,230.079L309,233.004L312.200,236.503L315.400,240.530L318.600,245.014L321.800,249.862L325,254.956L328.200,260.158L331.400,265.309L334.600,270.235L337.800,274.745L341,278.643L344.200,281.729L347.400,283.806L350.600,284.686L353.800,284.200L357,282.204L360.200,278.585L363.400,273.272L366.600,266.241L369.800,257.520L373,247.199L376.200,235.428L379.400,222.425L382.600,208.472L385.800,193.917L389,179.166L392.200,164.683L395.400,150.975L398.600,138.583L401.800,128.069L405,120L408.200,111.931L411.400,101.417L414.600,89.025L417.800,75.317L421,60.834L424.200,46.083L427.400,31.528L430.600,17.575L433.800,4.572L437,-7.199L440.200,-17.520L443.400,-26.241L446.600,-33.272L449.800,-38.585L453,-42.204L456.200,-44.200L459.400,-44.686L462.600,-43.806L465.800,-41.729L469,-38.643L472.200,-34.745L475.400,-30.235L478.600,-25.309L481.800,-20.158L485,-14.956L488.200,-9.862L491.400,-5.014L494.600,-0.530L497.800,3.497L501,6.996L504.200,9.921L507.400,12.244L510.600,13.962L513.800,15.087L517,15.649L520.200,15.691L523.400,15.266L526.600,14.436L529.800,13.269L533,11.834L536.200,10.202L539.400,8.443L542.600,6.621L545.800,4.797L549,3.025L552.200,1.352L555.400,-0.183L558.600,-1.550L561.800,-2.725L565,-3.695L568.200,-4.452L571.400,-4.998L574.600,-5.337L577.800,-5.483L581,-5.450L584.200,-5.261L587.400,-4.936L590.600,-4.500L593.800,-3.977L597,-3.393L600.200,-2.772L603.400,-2.136L606.600,-1.505L609.800,-0.897L613,-0.329L616.200,0.187L619.400,0.641L622.600,1.027L625.800,1.340L629,1.579L632.200,1.744L635.400,1.840L638.600,1.870L641.800,1.840L645,1.760L648.200,1.635L651.400,1.476L654.600,1.290L657.800,1.086L661,0.873L664.200,0.658L667.400,0.448L670.600,0.248L673.800,0.064L677,-0.100L680.200,-0.243L683.400,-0.361L686.600,-0.454L689.800,-0.522L693,-0.566L696.200,-0.587L699.400,-0.588L702.600,-0.570L705.800,-0.537L709,-0.491L712.200,-0.436L715.400,-0.374L718.600,-0.308L721.800,-0.241L725,-0.176L728.200,-0.114L731.400,-0.057L734.600,-0.006L737.800,0.038L741,0.074L744.200,0.102L747.400,0.122L750.600,0.134L753.800,0.140L757,0.139L760.200,0.133L763.400,0.123L766.600,0.110L769.800,0.095L773,0.079L776.200,0.063L779.400,0.048L782.600,0.034L785.800,0.021L789,0.012L792.200,0.004L795.400,0L798.600,-0.003L801.800,-0.002L805,0" stroke="rgb(153, 153, 153)" fill="none"/><path d="M5,240L8.200,239.999L11.400,239.996L14.600,239.991L17.800,239.983L21,239.972L24.200,239.960L27.400,239.946L30.600,239.932L33.800,239.918L37,239.904L40.200,239.893L43.400,239.885L46.600,239.881L49.800,239.882L53,239.889L56.200,239.903L59.400,239.924L62.600,239.952L65.800,239.987L69,240.030L72.200,240.079L75.400,240.134L78.600,240.193L81.800,240.254L85,240.316L88.200,240.375L91.400,240.430L94.600,240.477L97.800,240.515L101,240.539L104.200,240.547L107.400,240.537L110.600,240.506L113.800,240.454L117,240.378L120.200,240.278L123.400,240.155L126.600,240.009L129.800,239.844L133,239.663L136.200,239.468L139.400,239.267L142.600,239.064L145.800,238.867L149,238.682L152.200,238.519L155.400,238.385L158.600,238.289L161.800,238.238L165,238.240L168.200,238.302L171.400,238.429L174.600,238.624L177.800,238.889L181,239.225L184.200,239.628L187.400,240.093L190.600,240.611L193.800,241.174L197,241.765L200.200,242.370L203.400,242.970L206.600,243.544L209.800,244.069L213,244.523L216.200,244.882L219.400,245.122L222.600,245.221L225.800,245.160L229,244.920L232.200,244.488L235.400,243.856L238.600,243.021L241.800,241.986L245,240.762L248.200,239.367L251.400,237.827L254.600,236.175L257.800,234.453L261,232.709L264.200,230.999L267.400,229.382L270.600,227.924L273.800,226.692L277,225.752L280.200,225.170L283.400,225.009L286.600,225.322L289.800,226.155L293,227.544L296.200,229.506L299.400,232.046L302.600,235.148L305.800,238.775L309,242.871L312.200,247.355L315.400,252.126L318.600,257.060L321.800,262.014L325,266.827L328.200,271.324L331.400,275.321L334.600,278.626L337.800,281.049L341,282.407L344.200,282.531L347.400,281.270L350.600,278.503L353.800,274.145L357,268.152L360.200,260.529L363.400,251.334L366.600,240.686L369.800,228.764L373,215.811L376.200,202.131L379.400,188.088L382.600,174.102L385.800,160.640L389,148.205L392.200,137.327L395.400,128.547L398.600,122.398L401.800,119.394L405,120L408.200,120.606L411.400,117.602L414.600,111.453L417.800,102.673L421,91.795L424.200,79.360L427.400,65.898L430.600,51.912L433.800,37.869L437,24.189L440.200,11.236L443.400,-0.686L446.600,-11.334L449.800,-20.529L453,-28.152L456.200,-34.145L459.400,-38.503L462.600,-41.270L465.800,-42.531L469,-42.407L472.200,-41.049L475.400,-38.626L478.600,-35.321L481.800,-31.324L485,-26.827L488.200,-22.014L491.400,-17.060L494.600,-12.126L497.800,-7.355L501,-2.871L504.200,1.225L507.400,4.852L510.600,7.954L513.800,10.494L517,12.456L520.200,13.845L523.400,14.678L526.600,14.991L529.800,14.830L533,14.248L536.200,13.308L539.400,12.076L542.600,10.618L545.800,9.001L549,7.291L552.200,5.547L555.400,3.825L558.600,2.173L561.800,0.633L565,-0.762L568.200,-1.986L571.400,-3.021L574.600,-3.856L577.800,-4.488L581,-4.920L584.200,-5.160L587.400,-5.221L590.600,-5.122L593.800,-4.882L597,-4.523L600.200,-4.069L603.400,-3.544L606.600,-2.970L609.800,-2.370L613,-1.765L616.200,-1.174L619.400,-0.611L622.600,-0.093L625.800,0.372L629,0.775L632.200,1.111L635.400,1.376L638.600,1.571L641.800,1.698L645,1.760L648.200,1.762L651.400,1.711L654.600,1.615L657.800,1.481L661,1.318L664.200,1.133L667.400,0.936L670.600,0.733L673.800,0.532L677,0.337L680.200,0.156L683.400,-0.009L686.600,-0.155L689.800,-0.278L693,-0.378L696.200,-0.454L699.400,-0.506L702.600,-0.537L705.800,-0.547L709,-0.539L712.200,-0.515L715.400,-0.477L718.600,-0.430L721.800,-0.375L725,-0.316L728.200,-0.254L731.400,-0.193L734.600,-0.134L737.800,-0.079L741,-0.030L744.200,0.013L747.400,0.048L750.600,0.076L753.800,0.097L757,0.111L760.200,0.118L763.400,0.119L766.600,0.115L769.800,0.107L773,0.096L776.200,0.082L779.400,0.068L782.600,0.054L785.800,0.040L789,0.028L792.200,0.017L795.400,0.009L798.600,0.004L801.800,0.001L805,0" stroke="rgb(135, 152, 173)" fill="none"/><path d="M5,240L8.200,239.998L11.400,239.994L14.600,239.986L17.800,239.977L21,239.965L24.200,239.951L27.400,239.937L30.600,239.923L33.800,239.909L37,239.897L40.200,239.888L43.400,239.883L46.600,239.883L49.800,239.889L53,239.902L56.200,239.922L59.400,239.949L62.600,239.985L65.800,240.027L69,240.077L72.200,240.132L75.400,240.192L78.600,240.254L81.800,240.317L85,240.378L88.200,240.435L91.400,240.484L94.600,240.524L97.800,240.550L101,240.560L104.200,240.552L107.400,240.522L110.600,240.470L113.800,240.394L117,240.293L120.200,240.168L123.400,240.021L126.600,239.852L129.800,239.666L133,239.467L136.200,239.259L139.400,239.050L142.600,238.845L145.800,238.654L149,238.483L152.200,238.343L155.400,238.240L158.600,238.184L161.800,238.181L165,238.240L168.200,238.366L171.400,238.562L174.600,238.831L177.800,239.173L181,239.584L184.200,240.061L187.400,240.593L190.600,241.172L193.800,241.782L197,242.408L200.200,243.029L203.400,243.626L206.600,244.174L209.800,244.650L213,245.029L216.200,245.287L219.400,245.401L222.600,245.349L225.800,245.114L229,244.682L232.200,244.043L235.400,243.193L238.600,242.136L241.800,240.882L245,239.450L248.200,237.864L251.400,236.161L254.600,234.381L257.800,232.575L261,230.800L264.200,229.117L267.400,227.594L270.600,226.298L273.800,225.302L277,224.671L280.200,224.472L283.400,224.760L286.600,225.585L289.800,226.982L293,228.973L296.200,231.562L299.400,234.735L302.600,238.456L305.800,242.667L309,247.287L312.200,252.212L315.400,257.315L318.600,262.450L321.800,267.452L325,272.139L328.200,276.321L331.400,279.801L334.600,282.381L337.800,283.870L341,284.092L344.200,282.889L347.400,280.135L350.600,275.737L353.800,269.646L357,261.864L360.200,252.449L363.400,241.517L366.600,229.251L369.800,215.896L373,201.765L376.200,187.230L379.400,172.722L382.600,158.722L385.800,145.749L389,134.350L392.200,125.086L395.400,118.510L398.600,115.156L401.800,115.511L405,120L408.200,124.489L411.400,124.844L414.600,121.490L417.800,114.914L421,105.650L424.200,94.251L427.400,81.278L430.600,67.278L433.800,52.770L437,38.235L440.200,24.104L443.400,10.749L446.600,-1.517L449.800,-12.449L453,-21.864L456.200,-29.646L459.400,-35.737L462.600,-40.135L465.800,-42.889L469,-44.092L472.200,-43.870L475.400,-42.381L478.600,-39.801L481.800,-36.321L485,-32.139L488.200,-27.452L491.400,-22.450L494.600,-17.315L497.800,-12.212L501,-7.287L504.200,-2.667L507.400,1.544L510.600,5.265L513.800,8.438L517,11.027L520.200,13.018L523.400,14.415L526.600,15.240L529.800,15.528L533,15.329L536.200,14.698L539.400,13.702L542.600,12.406L545.800,10.883L549,9.200L552.200,7.425L555.400,5.619L558.600,3.839L561.800,2.136L565,0.550L568.200,-0.882L571.400,-2.136L574.600,-3.193L577.800,-4.043L581,-4.682L584.200,-5.114L587.400,-5.349L590.600,-5.401L593.800,-5.287L597,-5.029L600.200,-4.650L603.400,-4.174L606.600,-3.626L609.800,-3.029L613,-2.408L616.200,-1.782L619.400,-1.172L622.600,-0.593L625.800,-0.061L629,0.416L632.200,0.827L635.400,1.169L638.600,1.438L641.800,1.634L645,1.760L648.200,1.819L651.400,1.816L654.600,1.760L657.800,1.657L661,1.517L664.200,1.346L667.400,1.155L670.600,0.950L673.800,0.741L677,0.533L680.200,0.334L683.400,0.148L686.600,-0.021L689.800,-0.168L693,-0.293L696.200,-0.394L699.400,-0.470L702.600,-0.522L705.800,-0.552L709,-0.560L712.200,-0.550L715.400,-0.524L718.600,-0.484L721.800,-0.435L725,-0.378L728.200,-0.317L731.400,-0.254L734.600,-0.192L737.800,-0.132L741,-0.077L744.200,-0.027L747.400,0.015L750.600,0.051L753.800,0.078L757,0.098L760.200,0.111L763.400,0.117L766.600,0.117L769.800,0.112L773,0.103L776.200,0.091L779.400,0.077L782.600,0.063L785.800,0.049L789,0.035L792.200,0.023L795.400,0.014L798.600,0.006L801.800,0.002L805,0" stroke="rgb(116, 151, 194)" fill="none"/><path d="M5,240L8.200,239.997L11.400,239.991L14.600,239.983L17.800,239.972L21,239.959L24.200,239.944L27.400,239.930L30.600,239.915L33.800,239.902L37,239.891L40.200,239.884L43.400,239.882L46.600,239.885L49.800,239.895L53,239.912L56.200,239.937L59.400,239.971L62.600,240.011L65.800,240.060L69,240.115L72.200,240.175L75.400,240.238L78.600,240.304L81.800,240.368L85,240.429L88.200,240.484L91.400,240.529L94.600,240.562L97.800,240.579L101,240.578L104.200,240.555L107.400,240.510L110.600,240.440L113.800,240.345L117,240.224L120.200,240.079L123.400,239.911L126.600,239.724L129.800,239.521L133,239.307L136.200,239.088L139.400,238.873L142.600,238.667L145.800,238.480L149,238.321L152.200,238.198L155.400,238.121L158.600,238.098L161.800,238.135L165,238.240L168.200,238.418L171.400,238.671L174.600,239L177.800,239.404L181,239.878L184.200,240.414L187.400,241.002L190.600,241.629L193.800,242.279L197,242.932L200.200,243.567L203.400,244.161L206.600,244.688L209.800,245.123L213,245.441L216.200,245.617L219.400,245.628L222.600,245.454L225.800,245.078L229,244.488L232.200,243.679L235.400,242.652L238.600,241.414L241.800,239.982L245,238.379L248.200,236.638L251.400,234.801L254.600,232.918L257.800,231.043L261,229.242L264.200,227.582L267.400,226.134L270.600,224.972L273.800,224.167L277,223.790L280.200,223.901L283.400,224.557L286.600,225.799L289.800,227.656L293,230.139L296.200,233.239L299.400,236.929L302.600,241.155L305.800,245.842L309,250.890L312.200,256.174L315.400,261.549L318.600,266.849L321.800,271.889L325,276.474L328.200,280.399L331.400,283.457L334.600,285.445L337.800,286.172L341,285.466L344.200,283.182L347.400,279.209L350.600,273.479L353.800,265.974L357,256.733L360.200,245.855L363.400,233.506L366.600,219.919L369.800,205.396L373,190.303L376.200,175.071L379.400,160.184L382.600,146.171L385.800,133.598L389,123.044L392.200,115.096L395.400,110.320L398.600,109.246L401.800,112.343L405,120L408.200,127.657L411.400,130.754L414.600,129.680L417.800,124.904L421,116.956L424.200,106.402L427.400,93.829L430.600,79.816L433.800,64.929L437,49.697L440.200,34.604L443.400,20.081L446.600,6.494L449.800,-5.855L453,-16.733L456.200,-25.974L459.400,-33.479L462.600,-39.209L465.800,-43.182L469,-45.466L472.200,-46.172L475.400,-45.445L478.600,-43.457L481.800,-40.399L485,-36.474L488.200,-31.889L491.400,-26.849L494.600,-21.549L497.800,-16.174L501,-10.890L504.200,-5.842L507.400,-1.155L510.600,3.071L513.800,6.761L517,9.861L520.200,12.344L523.400,14.201L526.600,15.443L529.800,16.099L533,16.210L536.200,15.833L539.400,15.028L542.600,13.866L545.800,12.418L549,10.758L552.200,8.957L555.400,7.082L558.600,5.199L561.800,3.362L565,1.621L568.200,0.018L571.400,-1.414L574.600,-2.652L577.800,-3.679L581,-4.488L584.200,-5.078L587.400,-5.454L590.600,-5.628L593.800,-5.617L597,-5.441L600.200,-5.123L603.400,-4.688L606.600,-4.161L609.800,-3.567L613,-2.932L616.200,-2.279L619.400,-1.629L622.600,-1.002L625.800,-0.414L629,0.122L632.200,0.596L635.400,1L638.600,1.329L641.800,1.582L645,1.760L648.200,1.865L651.400,1.902L654.600,1.879L657.800,1.802L661,1.679L664.200,1.520L667.400,1.333L670.600,1.127L673.800,0.912L677,0.693L680.200,0.479L683.400,0.276L686.600,0.089L689.800,-0.079L693,-0.224L696.200,-0.345L699.400,-0.440L702.600,-0.510L705.800,-0.555L709,-0.578L712.200,-0.579L715.400,-0.562L718.600,-0.529L721.800,-0.484L725,-0.429L728.200,-0.368L731.400,-0.304L734.600,-0.238L737.800,-0.175L741,-0.115L744.200,-0.060L747.400,-0.011L750.600,0.029L753.800,0.063L757,0.088L760.200,0.105L763.400,0.115L766.600,0.118L769.800,0.116L773,0.109L776.200,0.098L779.400,0.085L782.600,0.070L785.800,0.056L789,0.041L792.200,0.028L795.400,0.017L798.600,0.009L801.800,0.003L805,0" stroke="rgb(98, 150, 214)" fill="none"/><path d="M5,240L8.200,239.996L11.400,239.989L14.600,239.980L17.800,239.968L21,239.953L24.200,239.938L27.400,239.923L30.600,239.908L33.800,239.896L37,239.886L40.200,239.880L43.400,239.880L46.600,239.887L49.800,239.900L53,239.922L56.200,239.951L59.400,239.989L62.600,240.035L65.800,240.089L69,240.148L72.200,240.213L75.400,240.280L78.600,240.348L81.800,240.414L85,240.475L88.200,240.527L91.400,240.569L94.600,240.595L97.800,240.604L101,240.593L104.200,240.559L107.400,240.499L110.600,240.414L113.800,240.302L117,240.163L120.200,240L123.400,239.814L126.600,239.610L129.800,239.391L133,239.164L136.200,238.936L139.400,238.715L142.600,238.508L145.800,238.326L149,238.176L152.200,238.070L155.400,238.015L158.600,238.021L161.800,238.094L165,238.240L168.200,238.465L171.400,238.768L174.600,239.151L177.800,239.610L181,240.139L184.200,240.729L187.400,241.366L190.600,242.037L193.800,242.722L197,243.399L200.200,244.046L203.400,244.637L206.600,245.146L209.800,245.546L213,245.809L216.200,245.912L219.400,245.831L222.600,245.547L225.800,245.045L229,244.315L232.200,243.356L235.400,242.170L238.600,240.771L241.800,239.179L245,237.424L248.200,235.545L251.400,233.590L254.600,231.613L257.800,229.678L261,227.854L264.200,226.213L267.400,224.833L270.600,223.789L273.800,223.157L277,223.004L280.200,223.393L283.400,224.376L286.600,225.990L289.800,228.257L293,231.178L296.200,234.734L299.400,238.884L302.600,243.561L305.800,248.672L309,254.101L312.200,259.706L315.400,265.323L318.600,270.769L321.800,275.844L325,280.337L328.200,284.033L331.400,286.715L334.600,288.175L337.800,288.224L341,286.691L344.200,283.443L347.400,278.384L350.600,271.467L353.800,262.702L357,252.160L360.200,239.979L363.400,226.367L366.600,211.603L369.800,196.038L373,180.088L376.200,164.235L379.400,149.009L382.600,134.986L385.800,122.768L389,112.969L392.200,106.194L395.400,103.021L398.600,103.979L401.800,109.520L405,120L408.200,130.480L411.400,136.021L414.600,136.979L417.800,133.806L421,127.031L424.200,117.232L427.400,105.014L430.600,90.991L433.800,75.765L437,59.912L440.200,43.962L443.400,28.397L446.600,13.633L449.800,0.021L453,-12.160L456.200,-22.702L459.400,-31.467L462.600,-38.384L465.800,-43.443L469,-46.691L472.200,-48.224L475.400,-48.175L478.600,-46.715L481.800,-44.033L485,-40.337L488.200,-35.844L491.400,-30.769L494.600,-25.323L497.800,-19.706L501,-14.101L504.200,-8.672L507.400,-3.561L510.600,1.116L513.800,5.266L517,8.822L520.200,11.743L523.400,14.010L526.600,15.624L529.800,16.607L533,16.996L536.200,16.843L539.400,16.211L542.600,15.167L545.800,13.787L549,12.146L552.200,10.322L555.400,8.387L558.600,6.410L561.800,4.455L565,2.576L568.200,0.821L571.400,-0.771L574.600,-2.170L577.800,-3.356L581,-4.315L584.200,-5.045L587.400,-5.547L590.600,-5.831L593.800,-5.912L597,-5.809L600.200,-5.546L603.400,-5.146L606.600,-4.637L609.800,-4.046L613,-3.399L616.200,-2.722L619.400,-2.037L622.600,-1.366L625.800,-0.729L629,-0.139L632.200,0.390L635.400,0.849L638.600,1.232L641.800,1.535L645,1.760L648.200,1.906L651.400,1.979L654.600,1.985L657.800,1.930L661,1.824L664.200,1.674L667.400,1.492L670.600,1.285L673.800,1.064L677,0.836L680.200,0.609L683.400,0.390L686.600,0.186L689.800,0L693,-0.163L696.200,-0.302L699.400,-0.414L702.600,-0.499L705.800,-0.559L709,-0.593L712.200,-0.604L715.400,-0.595L718.600,-0.569L721.800,-0.527L725,-0.475L728.200,-0.414L731.400,-0.348L734.600,-0.280L737.800,-0.213L741,-0.148L744.200,-0.089L747.400,-0.035L750.600,0.011L753.800,0.049L757,0.078L760.200,0.100L763.400,0.113L766.600,0.120L769.800,0.120L773,0.114L776.200,0.104L779.400,0.092L782.600,0.077L785.800,0.062L789,0.047L792.200,0.032L795.400,0.020L798.600,0.011L801.800,0.004L805,0" stroke="rgb(79, 149, 235)" fill="none"/><path d="M5,240L8.200,239.995L11.400,239.987L14.600,239.977L17.800,239.964L21,239.949L24.200,239.933L27.400,239.917L30.600,239.902L33.800,239.890L37,239.881L40.200,239.877L43.400,239.879L46.600,239.888L49.800,239.905L53,239.930L56.200,239.964L59.400,240.007L62.600,240.057L65.800,240.116L69,240.180L72.200,240.248L75.400,240.319L78.600,240.389L81.800,240.456L85,240.517L88.200,240.568L91.400,240.605L94.600,240.627L97.800,240.628L101,240.608L104.200,240.562L107.400,240.489L110.600,240.389L113.800,240.261L117,240.106L120.200,239.926L123.400,239.724L126.600,239.503L129.800,239.271L133,239.032L136.200,238.795L139.400,238.568L142.600,238.361L145.800,238.182L149,238.042L152.200,237.951L155.400,237.917L158.600,237.950L161.800,238.056L165,238.240L168.200,238.508L171.400,238.858L174.600,239.291L177.800,239.801L181,240.382L184.200,241.021L187.400,241.704L190.600,242.415L193.800,243.132L197,243.832L200.200,244.491L203.400,245.079L206.600,245.571L209.800,245.937L213,246.150L216.200,246.185L219.400,246.019L222.600,245.633L225.800,245.014L229,244.155L232.200,243.056L235.400,241.723L238.600,240.175L241.800,238.435L245,236.540L248.200,234.532L251.400,232.467L254.600,230.404L257.800,228.412L261,226.567L264.200,224.945L267.400,223.627L270.600,222.693L273.800,222.219L277,222.276L280.200,222.922L283.400,224.209L286.600,226.167L289.800,228.813L293,232.141L296.200,236.120L299.400,240.697L302.600,245.791L305.800,251.296L309,257.078L312.200,262.980L315.400,268.821L318.600,274.403L321.800,279.510L325,283.918L328.200,287.401L331.400,289.735L334.600,290.707L337.800,290.125L341,287.827L344.200,283.685L347.400,277.619L350.600,269.602L353.800,259.669L357,247.922L360.200,234.533L363.400,219.749L366.600,203.894L369.800,187.363L373,170.620L376.200,154.190L379.400,138.651L382.600,124.618L385.800,112.730L389,103.629L392.200,97.942L395.400,96.256L398.600,99.097L401.800,106.903L405,120L408.200,133.097L411.400,140.903L414.600,143.744L417.800,142.058L421,136.371L424.200,127.270L427.400,115.382L430.600,101.349L433.800,85.810L437,69.380L440.200,52.637L443.400,36.106L446.600,20.251L449.800,5.467L453,-7.922L456.200,-19.669L459.400,-29.602L462.600,-37.619L465.800,-43.685L469,-47.827L472.200,-50.125L475.400,-50.707L478.600,-49.735L481.800,-47.401L485,-43.918L488.200,-39.510L491.400,-34.403L494.600,-28.821L497.800,-22.980L501,-17.078L504.200,-11.296L507.400,-5.791L510.600,-0.697L513.800,3.880L517,7.859L520.200,11.187L523.400,13.833L526.600,15.791L529.800,17.078L533,17.724L536.200,17.781L539.400,17.307L542.600,16.373L545.800,15.055L549,13.433L552.200,11.588L555.400,9.596L558.600,7.533L561.800,5.468L565,3.460L568.200,1.565L571.400,-0.175L574.600,-1.723L577.800,-3.056L581,-4.155L584.200,-5.014L587.400,-5.633L590.600,-6.019L593.800,-6.185L597,-6.150L600.200,-5.937L603.400,-5.571L606.600,-5.079L609.800,-4.491L613,-3.832L616.200,-3.132L619.400,-2.415L622.600,-1.704L625.800,-1.021L629,-0.382L632.200,0.199L635.400,0.709L638.600,1.142L641.800,1.492L645,1.760L648.200,1.944L651.400,2.050L654.600,2.083L657.800,2.049L661,1.958L664.200,1.818L667.400,1.639L670.600,1.432L673.800,1.205L677,0.968L680.200,0.729L683.400,0.497L686.600,0.276L689.800,0.074L693,-0.106L696.200,-0.261L699.400,-0.389L702.600,-0.489L705.800,-0.562L709,-0.608L712.200,-0.628L715.400,-0.627L718.600,-0.605L721.800,-0.568L725,-0.517L728.200,-0.456L731.400,-0.389L734.600,-0.319L737.800,-0.248L741,-0.180L744.200,-0.116L747.400,-0.057L750.600,-0.007L753.800,0.036L757,0.070L760.200,0.095L763.400,0.112L766.600,0.121L769.800,0.123L773,0.119L776.200,0.110L779.400,0.098L782.600,0.083L785.800,0.067L789,0.051L792.200,0.036L795.400,0.023L798.600,0.013L801.800,0.005L805,0" stroke="rgb(61, 148, 255)" fill="none"/></g></g></svg>