<svg xmlns="http://www.w3.org/2000/svg" width="810" height="240.0" viewBox="0 0 810 240.0"><rect x="5" y="0" width="800" height="240.0" fill="#2b2b2e"/><g class="xlines"><line x1="25.0" y1="240.0" x2="25.0" y2="0.0" stroke="#202020"/><line x1="45.0" y1="240.0" x2="45.0" y2="0.0" stroke="#202020"/><line x1="65.0" y1="240.0" x2="65.0" y2="0.0" stroke="#202020"/><line x1="85.0" y1="240.0" x2="85.0" y2="0.0" stroke="#202020"/><line x1="105.0" y1="240.0" x2="105.0" y2="0.0" stroke="#202020"/><line x1="125.0" y1="240.0" x2="125.0" y2="0.0" stroke="#202020"/><line x1="145.0" y1="240.0" x2="145.0" y2="0.0" stroke="#202020"/><line x1="165.0" y1="240.0" x2="165.0" y2="0.0" stroke="#202020"/><line x1="185.0" y1="240.0" x2="185.0" y2="0.0" stroke="#202020"/><line x1="205.0" y1="240.0" x2="205.0" y2="0.0" stroke="#202020"/><line x1="225.00000000000003" y1="240.0" x2="225.00000000000003" y2="0.0" stroke="#202020"/><line x1="245.0" y1="240.0" x2="245.0" y2="0.0" stroke="#202020"/><line x1="265.0" y1="240.0" x2="265.0" y2="0.0" stroke="#202020"/><line x1="285.0" y1="240.0" x2="285.0" y2="0.0" stroke="#202020"/><line x1="305.0" y1="240.0" x2="305.0" y2="0.0" stroke="#202020"/><line x1="325.0" y1="240.0" x2="325.0" y2="0.0" stroke="#202020"/><line x1="345.0" y1="240.0" x2="345.0" y2="0.0" stroke="#202020"/><line x1="365.0" y1="240.0" x2="365.0" y2="0.0" stroke="#202020"/><line x1="385.0" y1="240.0" x2="385.0" y2="0.0" stroke="#202020"/><line x1="405.0" y1="240.0" x2="405.0" y2="0.0" stroke="#202020"/><line x1="425.0" y1="240.0" x2="425.0" y2="0.0" stroke="#202020"/><line x1="445.00000000000006" y1="240.0" x2="445.00000000000006" y2="0.0" stroke="#202020"/><line x1="464.99999999999994" y1="240.0" x2="464.99999999999994" y2="0.0" stroke="#202020"/><line x1="485.0" y1="240.0" x2="485.0" y2="0.0" stroke="#202020"/><line x1="505.0" y1="240.0" x2="505.0" y2="0.0" stroke="#202020"/><line x1="525.0" y1="240.0" x2="525.0" y2="0.0" stroke="#202020"/><line x1="545.0" y1="240.0" x2="545.0" y2="0.0" stroke="#202020"/><line x1="565.0" y1="240.0" x2="565.0" y2="0.0" stroke="#202020"/><line x1="585.0" y1="240.0" x2="585.0" y2="0.0" stroke="#202020"/><line x1="605.0" y1="240.0" x2="605.0" y2="0.0" stroke="#202020"/><line x1="625.0" y1="240.0" x2="625.0" y2="0.0" stroke="#202020"/><line x1="645.0" y1="240.0" x2="645.0" y2="0.0" stroke="#202020"/><line x1="665.0" y1="240.0" x2="665.0" y2="0.0" stroke="#202020"/><line x1="685.0" y1="240.0" x2="685.0" y2="0.0" stroke="#202020"/><line x1="705.0" y1="240.0" x2="705.0" y2="0.0" stroke="#202020"/><line x1="725.0" y1="240.0" x2="725.0" y2="0.0" stroke="#202020"/><line x1="745.0" y1="240.0" x2="745.0" y2="0.0" stroke="#202020"/><line x1="765.0" y1="240.0" x2="765.0" y2="0.0" stroke="#202020"/><line x1="785.0" y1="240.0" x2="785.0" y2="0.0" stroke="#202020"/></g><g class="ylines"><line x1="5.0" y1="220.0" x2="805.0" y2="220.0" stroke="#202020"/><line x1="5.0" y1="200.0" x2="805.0" y2="200.0" stroke="#202020"/><line x1="5.0" y1="180.0" x2="805.0" y2="180.0" stroke="#202020"/><line x1="5.0" y1="160.00000000000003" x2="805.0" y2="160.00000000000003" stroke="#202020"/><line x1="5.0" y1="139.99999999999997" x2="805.0" y2="139.99999999999997" stroke="#202020"/><line x1="5.0" y1="120.0" x2="805.0" y2="120.0" stroke="#202020"/><line x1="5.0" y1="99.99999999999999" x2="805.0" y2="99.99999999999999" stroke="#202020"/><line x1="5.0" y1="80.00000000000001" x2="805.0" y2="80.00000000000001" stroke="#202020"/><line x1="5.0" y1="60.0" x2="805.0" y2="60.0" stroke="#202020"/><line x1="5.0" y1="39.99999999999999" x2="805.0" y2="39.99999999999999" stroke="#202020"/><line x1="5.0" y1="20.000000000000007" x2="805.0" y2="20.000000000000007" stroke="#202020"/></g><g class="ease"><path d="M5,240L8.200,238.492L11.400,236.984L14.600,235.476L17.800,233.969L21,232.461L24.200,230.954L27.400,229.448L30.600,227.941L33.800,226.436L37,224.930L40.200,223.426L43.400,221.922L46.600,220.418L49.800,218.916L53,217.414L56.200,215.913L59.400,214.413L62.600,212.914L65.800,211.417L69,209.920L72.200,208.425L75.400,206.930L78.600,205.437L81.800,203.946L85,202.456L88.200,200.967L91.400,199.480L94.600,197.994L97.800,196.511L101,195.028L104.200,193.548L107.400,192.070L110.600,190.593L113.800,189.118L117,187.646L120.200,186.175L123.400,184.707L126.600,183.240L129.800,181.776L133,180.314L136.200,178.855L139.400,177.398L142.600,175.944L145.800,174.492L149,173.042L152.200,171.595L155.400,170.151L158.600,168.710L161.800,167.272L165,165.836L168.200,164.403L171.400,162.974L174.600,161.547L177.800,160.123L181,158.703L184.200,157.286L187.400,155.872L190.600,154.461L193.800,153.054L197,151.650L200.200,150.250L203.400,148.853L206.600,147.460L209.800,146.070L213,144.685L216.200,143.302L219.400,141.924L222.600,140.550L225.800,139.179L229,137.813L232.200,136.451L235.400,135.092L238.600,133.738L241.800,132.388L245,131.042L248.200,129.701L251.400,128.364L254.600,127.031L257.800,125.703L261,124.379L264.200,123.060L267.400,121.745L270.600,120.436L273.800,119.130L277,117.830L280.200,116.535L283.400,115.244L286.600,113.958L289.800,112.677L293,111.402L296.200,110.131L299.400,108.865L302.600,107.605L305.800,106.350L309,105.100L312.200,103.855L315.400,102.616L318.600,101.383L321.800,100.154L325,98.932L328.200,97.714L331.400,96.503L334.600,95.297L337.800,94.097L341,92.902L344.200,91.714L347.400,90.531L350.600,89.354L353.800,88.183L357,87.018L360.200,85.859L363.400,84.707L366.600,83.560L369.800,82.419L373,81.285L376.200,80.157L379.400,79.035L382.600,77.920L385.800,76.811L389,75.709L392.200,74.613L395.400,73.523L398.600,72.440L401.800,71.364L405,70.294L408.200,69.231L411.400,68.175L414.600,67.126L417.800,66.083L421,65.048L424.200,64.019L427.400,62.997L430.600,61.982L433.800,60.974L437,59.973L440.200,58.980L443.400,57.993L446.600,57.014L449.800,56.042L453,55.077L456.200,54.119L459.400,53.169L462.600,52.226L465.800,51.291L469,50.363L472.200,49.442L475.400,48.529L478.600,47.624L481.800,46.726L485,45.836L488.200,44.953L491.400,44.079L494.600,43.211L497.800,42.352L501,41.501L504.200,40.657L507.400,39.821L510.600,38.993L513.800,38.173L517,37.361L520.200,36.557L523.400,35.761L526.600,34.973L529.800,34.194L533,33.422L536.200,32.658L539.400,31.903L542.600,31.156L545.800,30.417L549,29.686L552.200,28.964L555.400,28.250L558.600,27.544L561.800,26.847L565,26.158L568.200,25.478L571.400,24.806L574.600,24.143L577.800,23.488L581,22.842L584.200,22.204L587.400,21.575L590.600,20.954L593.800,20.342L597,19.739L600.200,19.144L603.400,18.559L606.600,17.981L609.800,17.413L613,16.854L616.200,16.303L619.400,15.761L622.600,15.228L625.800,14.704L629,14.189L632.200,13.682L635.400,13.185L638.600,12.696L641.800,12.217L645,11.746L648.200,11.285L651.400,10.833L654.600,10.389L657.800,9.955L661,9.530L664.200,9.113L667.400,8.706L670.600,8.308L673.800,7.920L677,7.540L680.200,7.170L683.400,6.808L686.600,6.456L689.800,6.114L693,5.780L696.200,5.456L699.400,5.141L702.600,4.835L705.800,4.538L709,4.251L712.200,3.973L715.400,3.705L718.600,3.445L721.800,3.195L725,2.955L728.200,2.724L731.400,2.502L734.600,2.289L737.800,2.086L741,1.892L744.200,1.708L747.400,1.533L750.600,1.368L753.800,1.212L757,1.065L760.200,0.928L763.400,0.800L766.600,0.682L769.800,0.573L773,0.474L776.200,0.384L779.400,0.303L782.600,0.232L785.800,0.171L789,0.118L792.200,0.076L795.400,0.043L798.600,0.019L801.800,0.005L805,0" stroke="white" fill="none"/></g></svg>