<svg xmlns="http://www.w3.org/2000/svg" width="480" height="400" viewBox="0 0 480 400" style="max-width:100%;height:auto;"><g><rect x="120.0" y="51.04597701149424" width="307.1028037383178" height="12.758620689655174" fill="rgb(180, 180, 255)" stroke="blue"/><rect x="120.0" y="93.57471264367815" width="295.38805363673305" height="12.758620689655174" fill="rgb(180, 180, 255)" stroke="blue"/><rect x="120.0" y="136.10344827586206" width="291.9555058919138" height="12.758620689655174" fill="rgb(180, 180, 255)" stroke="blue"/><rect x="120.0" y="178.632183908046" width="282.2247054043072" height="12.758620689655174" fill="rgb(180, 180, 255)" stroke="blue"/><rect x="120.0" y="221.16091954022988" width="268.0851279967493" height="12.758620689655174" fill="rgb(180, 180, 255)" stroke="blue"/><rect x="120.0" y="263.6896551724138" width="19.209670865501835" height="12.758620689655174" fill="rgb(180, 180, 255)" stroke="blue"/><rect x="120.0" y="306.21839080459773" width="18.83177570093457" height="12.758620689655174" fill="rgb(180, 180, 255)" stroke="blue"/><rect x="120.0" y="348.7471264367816" width="18.453880536367336" height="12.758620689655174" fill="rgb(180, 180, 255)" stroke="blue"/></g><g><rect x="120.0" y="35.73563218390803" width="310.0" height="12.758620689655174" fill="rgb(255, 180, 180)" stroke="red"/><rect x="120.0" y="120.79310344827584" width="292.8372612759041" height="12.758620689655174" fill="rgb(255, 180, 180)" stroke="red"/><rect x="120.0" y="78.26436781609193" width="292.42787484762295" height="12.758620689655174" fill="rgb(255, 180, 180)" stroke="red"/><rect x="120.0" y="163.32183908045977" width="275.8634701340918" height="12.758620689655174" fill="rgb(255, 180, 180)" stroke="red"/><rect x="120.0" y="205.85057471264366" width="267.9906542056075" height="12.758620689655174" fill="rgb(255, 180, 180)" stroke="red"/><rect x="120.0" y="290.9080459770115" width="18.83177570093457" height="12.758620689655174" fill="rgb(255, 180, 180)" stroke="red"/><rect x="120.0" y="248.37931034482756" width="18.83177570093457" height="12.758620689655174" fill="rgb(255, 180, 180)" stroke="red"/><rect x="120.0" y="333.4367816091954" width="18.390898008939445" height="12.758620689655174" fill="rgb(255, 180, 180)" stroke="red"/></g><g><text x="432.1028037383178" y="61.25287356321838" stroke="none" fill="rgb(180, 180, 255)">97.52</text><text x="420.38805363673305" y="103.78160919540228" stroke="none" fill="rgb(180, 180, 255)">93.8</text><text x="416.9555058919138" y="146.3103448275862" stroke="none" fill="rgb(180, 180, 255)">92.71</text><text x="407.2247054043072" y="188.83908045977012" stroke="none" fill="rgb(180, 180, 255)">89.62</text><text x="393.0851279967493" y="231.367816091954" stroke="none" fill="rgb(180, 180, 255)">85.13</text><text x="144.20967086550183" y="273.8965517241379" stroke="none" fill="rgb(180, 180, 255)">6.1</text><text x="143.83177570093457" y="316.42528735632186" stroke="none" fill="rgb(180, 180, 255)">5.98</text><text x="143.45388053636734" y="358.95402298850576" stroke="none" fill="rgb(180, 180, 255)">5.86</text></g><g><text x="435.0" y="45.942528735632166" stroke="none" fill="rgb(255, 180, 180)">98.44</text><text x="417.8372612759041" y="131.0" stroke="none" fill="rgb(255, 180, 180)">92.99</text><text x="417.42787484762295" y="88.47126436781608" stroke="none" fill="rgb(255, 180, 180)">92.86</text><text x="400.8634701340918" y="173.52873563218392" stroke="none" fill="rgb(255, 180, 180)">87.6</text><text x="392.9906542056075" y="216.05747126436782" stroke="none" fill="rgb(255, 180, 180)">85.1</text><text x="143.83177570093457" y="301.11494252873564" stroke="none" fill="rgb(255, 180, 180)">5.98</text><text x="143.83177570093457" y="258.5862068965517" stroke="none" fill="rgb(255, 180, 180)">5.98</text><text x="143.39089800893944" y="343.64367816091954" stroke="none" fill="rgb(255, 180, 180)">5.84</text></g><g transform="translate(120, 0)" fill="none" font-size="14px" font-family="sans-serif" text-anchor="end"><g class="tick" opacity="1" transform="translate(0, 347.9712643678161)"><line stroke="currentColor" x2="0"/><text fill="#cfd0d0" x="-8" dy="0.32em">outflow</text></g><g class="tick" opacity="1" transform="translate(0, 305.4425287356322)"><line stroke="currentColor" x2="0"/><text fill="#cfd0d0" x="-8" dy="0.32em">update_fin</text></g><g class="tick" opacity="1" transform="translate(0, 262.91379310344826)"><line stroke="currentColor" x2="0"/><text fill="#cfd0d0" x="-8" dy="0.32em">inflow</text></g><g class="tick" opacity="1" transform="translate(0, 220.38505747126436)"><line stroke="currentColor" x2="0"/><text fill="#cfd0d0" x="-8" dy="0.32em">bounce_back</text></g><g class="tick" opacity="1" transform="translate(0, 177.85632183908046)"><line stroke="currentColor" x2="0"/><text fill="#cfd0d0" x="-8" dy="0.32em">collision</text></g><g class="tick" opacity="1" transform="translate(0, 135.32758620689654)"><line stroke="currentColor" x2="0"/><text fill="#cfd0d0" x="-8" dy="0.32em">streaming_step</text></g><g class="tick" opacity="1" transform="translate(0, 92.79885057471263)"><line stroke="currentColor" x2="0"/><text fill="#cfd0d0" x="-8" dy="0.32em">equilibrium</text></g><g class="tick" opacity="1" transform="translate(0, 50.27011494252872)"><line stroke="currentColor" x2="0"/><text fill="#cfd0d0" x="-8" dy="0.32em">macroscopic</text></g></g><g transform="translate(360.0, 10)"><rect x="-5" y="-5" width="75" height="42" fill="#202020" stroke="#cfd0d0"/><rect x="0" y="0" width="10" height="10" fill="rgb(180, 180, 255)" stroke="blue"/><rect x="0" y="20" width="10" height="10" fill="rgb(255, 180, 180)" stroke="red"/><text x="15" y="10" fill="#cfd0d0">Numba</text><text x="15" y="30" fill="#cfd0d0">Cupy</text></g></svg>