<svg xmlns="http://www.w3.org/2000/svg" width="628" height="200" view_box="0 0 628 200" style="max-width:100%;height:auto;"><g transform="translate(0, 180)" fill="none" font-size="10" font-family="sans-serif" text-anchor="middle"><g class="tick" opacity="1" transform="translate(65.17948336408547, 0)"><line stroke="white" y2="6"/><text fill="white" y="9" dy="0.71em" stroke="none">1975</text></g><g class="tick" opacity="1" transform="translate(126.9119992857568, 0)"><line stroke="white" y2="6"/><text fill="white" y="9" dy="0.71em" stroke="none">1980</text></g><g class="tick" opacity="1" transform="translate(188.6783227188858, 0)"><line stroke="white" y2="6"/><text fill="white" y="9" dy="0.71em" stroke="none">1985</text></g><g class="tick" opacity="1" transform="translate(250.41083864055713, 0)"><line stroke="white" y2="6"/><text fill="white" y="9" dy="0.71em" stroke="none">1990</text></g><g class="tick" opacity="1" transform="translate(312.1433545622284, 0)"><line stroke="white" y2="6"/><text fill="white" y="9" dy="0.71em" stroke="none">1995</text></g><g class="tick" opacity="1" transform="translate(373.87587048389975, 0)"><line stroke="white" y2="6"/><text fill="white" y="9" dy="0.71em" stroke="none">2000</text></g><g class="tick" opacity="1" transform="translate(435.6421939170287, 0)"><line stroke="white" y2="6"/><text fill="white" y="9" dy="0.71em" stroke="none">2005</text></g><g class="tick" opacity="1" transform="translate(497.3747098387001, 0)"><line stroke="white" y2="6"/><text fill="white" y="9" dy="0.71em" stroke="none">2010</text></g><g class="tick" opacity="1" transform="translate(559.1072257603714, 0)"><line stroke="white" y2="6"/><text fill="white" y="9" dy="0.71em" stroke="none">2015</text></g></g><g transform="translate(40,0)" fill="none" font-size="10" font-family="sans-serif" text-anchor="end"><g class="tick" opacity="1" transform="translate(0, 180.5)"><line stroke="white" x2="568" stroke-opacity="0.2"/><line stroke="white" x2="-6"/><text fill="white" x="-9" dy="0.32em" stroke="none">-20</text></g><g class="tick" opacity="1" transform="translate(0, 136.5)"><line stroke="white" x2="568" stroke-opacity="0.2"/><line stroke="white" x2="-6"/><text fill="white" x="-9" dy="0.32em" stroke="none">-10</text></g><g class="tick" opacity="1" transform="translate(0, 92.5)"><line stroke="white" x2="568" stroke-opacity="0.2"/><line stroke="white" x2="-6"/><text fill="white" x="-9" dy="0.32em" stroke="none">0</text></g><g class="tick" opacity="1" transform="translate(0, 47.5)"><line stroke="white" x2="568" stroke-opacity="0.2"/><line stroke="white" x2="-6"/><text fill="white" x="-9" dy="0.32em" stroke="none">10</text></g><text x="-40" y="10" fill="white" text-anchor="start" stroke="none">&#8593; Annual revenue (billions)</text></g><g><path fill="#59a14f" d="M40,79L52.340,79L64.679,79L77.019,78L89.393,76L101.733,75L114.072,81L126.412,84L138.786,88L151.125,91L163.465,92L175.805,92L188.178,92L200.518,92L212.858,92L225.198,92L237.571,92L249.911,92L262.251,92L274.590,92L286.964,92L299.304,92L311.643,92L323.983,92L336.357,92L348.696,92L361.036,92L373.376,92L385.749,92L398.089,92L410.429,92L422.769,92L435.142,92L447.482,92L459.822,92L472.161,92L484.535,92L496.875,92L509.214,92L521.554,92L533.928,92L546.267,92L558.607,92L570.947,92L583.321,92L595.660,92L608,92L608,92L595.660,92L583.321,92L570.947,92L558.607,92L546.267,92L533.928,92L521.554,92L509.214,92L496.875,92L484.535,92L472.161,92L459.822,92L447.482,92L435.142,92L422.769,92L410.429,92L398.089,92L385.749,92L373.376,92L361.036,92L348.696,92L336.357,92L323.983,92L311.643,92L299.304,92L286.964,92L274.590,92L262.251,92L249.911,92L237.571,92L225.198,92L212.858,92L200.518,92L188.178,92L175.805,92L163.465,92L151.125,92L138.786,92L126.412,92L114.072,92L101.733,92L89.393,92L77.019,91L64.679,91L52.340,91L40,91Z"><title>8 - Track</title></path><path fill="#4e79a7" d="M40,92L52.340,92L64.679,92L77.019,92L89.393,92L101.733,92L114.072,92L126.412,92L138.786,92L151.125,92L163.465,92L175.805,92L188.178,92L200.518,92L212.858,92L225.198,92L237.571,92L249.911,92L262.251,92L274.590,92L286.964,92L299.304,92L311.643,92L323.983,92L336.357,92L348.696,92L361.036,92L373.376,92L385.749,92L398.089,92L410.429,92L422.769,92L435.142,92L447.482,92L459.822,92L472.161,92L484.535,92L496.875,92L509.214,92L521.554,92L533.928,92L546.267,92L558.607,92L570.947,92L583.321,92L595.660,92L608,92L608,94L595.660,95L583.321,96L570.947,97L558.607,98L546.267,100L533.928,102L521.554,104L509.214,107L496.875,109L484.535,114L472.161,120L459.822,132L447.482,144L435.142,152L422.769,160L410.429,161L398.089,167L385.749,174L373.376,178L361.036,178L348.696,171L336.357,161L323.983,163L311.643,161L299.304,156L286.964,142L274.590,134L262.251,128L249.911,121L237.571,115L225.198,112L212.858,107L200.518,101L188.178,96L175.805,93L163.465,92L151.125,92L138.786,92L126.412,92L114.072,92L101.733,92L89.393,92L77.019,92L64.679,92L52.340,92L40,92Z"><title>CD</title></path><path fill="#4e79a7" d="M40,92L52.340,92L64.679,92L77.019,92L89.393,92L101.733,92L114.072,92L126.412,92L138.786,92L151.125,92L163.465,92L175.805,92L188.178,92L200.518,92L212.858,92L225.198,112L237.571,115L249.911,121L262.251,128L274.590,134L286.964,142L299.304,156L311.643,161L323.983,163L336.357,161L348.696,171L361.036,178L373.376,178L385.749,174L398.089,167L410.429,161L422.769,160L435.142,152L447.482,144L459.822,132L472.161,120L484.535,114L496.875,109L509.214,107L521.554,104L533.928,102L546.267,100L558.607,98L570.947,97L583.321,96L595.660,95L608,94L608,94L595.660,95L583.321,96L570.947,97L558.607,98L546.267,100L533.928,102L521.554,104L509.214,107L496.875,109L484.535,114L472.161,120L459.822,132L447.482,144L435.142,153L422.769,160L410.429,161L398.089,167L385.749,174L373.376,179L361.036,180L348.696,172L336.357,163L323.983,164L311.643,162L299.304,157L286.964,143L274.590,135L262.251,128L249.911,121L237.571,115L225.198,112L212.858,92L200.518,92L188.178,92L175.805,92L163.465,92L151.125,92L138.786,92L126.412,92L114.072,92L101.733,92L89.393,92L77.019,92L64.679,92L52.340,92L40,92Z"><title>CD Single</title></path><path fill="#59a14f" d="M40,40L52.340,41L64.679,41L77.019,37L89.393,26L101.733,20L114.072,34L126.412,41L138.786,42L151.125,49L163.465,49L175.805,46L188.178,50L200.518,53L212.858,52L225.198,52L237.571,58L249.911,60L262.251,66L274.590,66L286.964,68L299.304,68L311.643,74L323.983,77L336.357,80L348.696,81L361.036,84L373.376,87L385.749,89L398.089,90L410.429,91L422.769,91L435.142,91L447.482,91L459.822,91L472.161,91L484.535,92L496.875,92L509.214,92L521.554,92L533.928,92L546.267,92L558.607,92L570.947,92L583.321,92L595.660,92L608,92L608,92L595.660,92L583.321,92L570.947,92L558.607,92L546.267,92L533.928,92L521.554,92L509.214,92L496.875,92L484.535,92L472.161,91L459.822,91L447.482,91L435.142,91L422.769,91L410.429,91L398.089,91L385.749,91L373.376,91L361.036,91L348.696,91L336.357,91L323.983,91L311.643,91L299.304,91L286.964,91L274.590,91L262.251,91L249.911,90L237.571,89L225.198,85L212.858,82L200.518,79L188.178,75L175.805,71L163.465,69L151.125,65L138.786,55L126.412,51L114.072,43L101.733,28L89.393,31L77.019,40L64.679,44L52.340,43L40,42Z"><title>Cassette</title></path><path fill="#59a14f" d="M40,92L52.340,92L64.679,92L77.019,92L89.393,92L101.733,92L114.072,92L126.412,92L138.786,92L151.125,92L163.465,92L175.805,92L188.178,92L200.518,92L212.858,52L225.198,52L237.571,56L249.911,58L262.251,64L274.590,63L286.964,66L299.304,66L311.643,72L323.983,76L336.357,79L348.696,81L361.036,84L373.376,87L385.749,89L398.089,90L410.429,92L422.769,92L435.142,92L447.482,92L459.822,92L472.161,92L484.535,92L496.875,92L509.214,92L521.554,92L533.928,92L546.267,92L558.607,92L570.947,92L583.321,92L595.660,92L608,92L608,92L595.660,92L583.321,92L570.947,92L558.607,92L546.267,92L533.928,92L521.554,92L509.214,92L496.875,92L484.535,92L472.161,92L459.822,92L447.482,92L435.142,92L422.769,92L410.429,92L398.089,90L385.749,89L373.376,87L361.036,84L348.696,81L336.357,80L323.983,77L311.643,74L299.304,68L286.964,68L274.590,66L262.251,66L249.911,60L237.571,58L225.198,52L212.858,52L200.518,92L188.178,92L175.805,92L163.465,92L151.125,92L138.786,92L126.412,92L114.072,92L101.733,92L89.393,92L77.019,92L64.679,92L52.340,92L40,92Z"><title>Cassette Single</title></path><path fill="#e15759" d="M40,92L52.340,92L64.679,92L77.019,92L89.393,92L101.733,92L114.072,92L126.412,92L138.786,92L151.125,92L163.465,92L175.805,92L188.178,92L200.518,92L212.858,92L225.198,92L237.571,92L249.911,92L262.251,92L274.590,92L286.964,92L299.304,92L311.643,92L323.983,92L336.357,92L348.696,92L361.036,92L373.376,92L385.749,87L398.089,88L410.429,88L422.769,88L435.142,88L447.482,89L459.822,89L472.161,90L484.535,90L496.875,90L509.214,90L521.554,90L533.928,90L546.267,90L558.607,90L570.947,90L583.321,90L595.660,90L608,89L608,89L595.660,90L583.321,90L570.947,90L558.607,90L546.267,90L533.928,90L521.554,90L509.214,90L496.875,90L484.535,90L472.161,90L459.822,89L447.482,89L435.142,88L422.769,88L410.429,88L398.089,88L385.749,87L373.376,92L361.036,92L348.696,92L336.357,92L323.983,92L311.643,92L299.304,92L286.964,92L274.590,92L262.251,92L249.911,92L237.571,92L225.198,92L212.858,92L200.518,92L188.178,92L175.805,92L163.465,92L151.125,92L138.786,92L126.412,92L114.072,92L101.733,92L89.393,92L77.019,92L64.679,92L52.340,92L40,92Z"><title>DVD Audio</title></path><path fill="#f28e2c" d="M40,92L52.340,92L64.679,92L77.019,92L89.393,92L101.733,92L114.072,92L126.412,92L138.786,92L151.125,92L163.465,92L175.805,92L188.178,92L200.518,92L212.858,92L225.198,92L237.571,92L249.911,92L262.251,92L274.590,92L286.964,92L299.304,92L311.643,92L323.983,92L336.357,92L348.696,92L361.036,92L373.376,92L385.749,92L398.089,92L410.429,92L422.769,86L435.142,82L447.482,80L459.822,76L472.161,76L484.535,76L496.875,76L509.214,76L521.554,75L533.928,76L546.267,78L558.607,79L570.947,81L583.321,83L595.660,85L608,86L608,87L595.660,87L583.321,86L570.947,85L558.607,84L546.267,83L533.928,82L521.554,81L509.214,81L496.875,81L484.535,80L472.161,79L459.822,78L447.482,81L435.142,83L422.769,87L410.429,92L398.089,92L385.749,92L373.376,92L361.036,92L348.696,92L336.357,92L323.983,92L311.643,92L299.304,92L286.964,92L274.590,92L262.251,92L249.911,92L237.571,92L225.198,92L212.858,92L200.518,92L188.178,92L175.805,92L163.465,92L151.125,92L138.786,92L126.412,92L114.072,92L101.733,92L89.393,92L77.019,92L64.679,92L52.340,92L40,92Z"><title>Download Album</title></path><path fill="#f28e2c" d="M40,92L52.340,92L64.679,92L77.019,92L89.393,92L101.733,92L114.072,92L126.412,92L138.786,92L151.125,92L163.465,92L175.805,92L188.178,92L200.518,92L212.858,92L225.198,92L237.571,92L249.911,92L262.251,92L274.590,92L286.964,92L299.304,92L311.643,92L323.983,92L336.357,92L348.696,92L361.036,92L373.376,92L385.749,92L398.089,92L410.429,92L422.769,92L435.142,85L447.482,84L459.822,83L472.161,85L484.535,86L496.875,88L509.214,89L521.554,89L533.928,89L546.267,90L558.607,89L570.947,89L583.321,89L595.660,89L608,89L608,89L595.660,89L583.321,89L570.947,89L558.607,89L546.267,90L533.928,90L521.554,89L509.214,89L496.875,88L484.535,86L472.161,85L459.822,83L447.482,85L435.142,85L422.769,92L410.429,92L398.089,92L385.749,92L373.376,92L361.036,92L348.696,92L336.357,92L323.983,92L311.643,92L299.304,92L286.964,92L274.590,92L262.251,92L249.911,92L237.571,92L225.198,92L212.858,92L200.518,92L188.178,92L175.805,92L163.465,92L151.125,92L138.786,92L126.412,92L114.072,92L101.733,92L89.393,92L77.019,92L64.679,92L52.340,92L40,92Z"><title>Download Music Video</title></path><path fill="#f28e2c" d="M40,92L52.340,92L64.679,92L77.019,92L89.393,92L101.733,92L114.072,92L126.412,92L138.786,92L151.125,92L163.465,92L175.805,92L188.178,92L200.518,92L212.858,92L225.198,92L237.571,92L249.911,92L262.251,92L274.590,92L286.964,92L299.304,92L311.643,92L323.983,92L336.357,92L348.696,92L361.036,92L373.376,92L385.749,92L398.089,92L410.429,92L422.769,87L435.142,83L447.482,81L459.822,78L472.161,79L484.535,80L496.875,81L509.214,81L521.554,81L533.928,82L546.267,83L558.607,84L570.947,85L583.321,86L595.660,87L608,87L608,89L595.660,89L583.321,89L570.947,89L558.607,89L546.267,90L533.928,89L521.554,89L509.214,89L496.875,88L484.535,86L472.161,85L459.822,83L447.482,84L435.142,85L422.769,88L410.429,92L398.089,92L385.749,92L373.376,92L361.036,92L348.696,92L336.357,92L323.983,92L311.643,92L299.304,92L286.964,92L274.590,92L262.251,92L249.911,92L237.571,92L225.198,92L212.858,92L200.518,92L188.178,92L175.805,92L163.465,92L151.125,92L138.786,92L126.412,92L114.072,92L101.733,92L89.393,92L77.019,92L64.679,92L52.340,92L40,92Z"><title>Download Single</title></path><path fill="#e15759" d="M40,92L52.340,92L64.679,92L77.019,92L89.393,92L101.733,92L114.072,92L126.412,92L138.786,92L151.125,92L163.465,92L175.805,92L188.178,92L200.518,92L212.858,92L225.198,92L237.571,92L249.911,92L262.251,92L274.590,92L286.964,92L299.304,92L311.643,92L323.983,92L336.357,92L348.696,92L361.036,92L373.376,92L385.749,92L398.089,92L410.429,92L422.769,92L435.142,85L447.482,84L459.822,83L472.161,85L484.535,86L496.875,88L509.214,89L521.554,89L533.928,89L546.267,90L558.607,89L570.947,89L583.321,89L595.660,89L608,89L608,89L595.660,89L583.321,89L570.947,89L558.607,89L546.267,90L533.928,89L521.554,89L509.214,89L496.875,88L484.535,86L472.161,85L459.822,83L447.482,84L435.142,85L422.769,92L410.429,92L398.089,92L385.749,92L373.376,92L361.036,92L348.696,92L336.357,92L323.983,92L311.643,92L299.304,92L286.964,92L274.590,92L262.251,92L249.911,92L237.571,92L225.198,92L212.858,92L200.518,92L188.178,92L175.805,92L163.465,92L151.125,92L138.786,92L126.412,92L114.072,92L101.733,92L89.393,92L77.019,92L64.679,92L52.340,92L40,92Z"><title>Kiosk</title></path><path fill="#edc949" d="M40,47L52.340,48L64.679,48L77.019,45L89.393,36L101.733,32L114.072,49L126.412,54L138.786,59L151.125,69L163.465,72L175.805,75L188.178,78L200.518,81L212.858,84L225.198,87L237.571,90L249.911,91L262.251,91L274.590,91L286.964,92L299.304,91L311.643,91L323.983,91L336.357,91L348.696,91L361.036,91L373.376,91L385.749,91L398.089,91L410.429,91L422.769,91L435.142,92L447.482,91L459.822,91L472.161,91L484.535,91L496.875,91L509.214,91L521.554,91L533.928,91L546.267,90L558.607,90L570.947,90L583.321,90L595.660,90L608,89L608,92L595.660,92L583.321,92L570.947,92L558.607,92L546.267,92L533.928,92L521.554,92L509.214,92L496.875,92L484.535,92L472.161,92L459.822,92L447.482,92L435.142,92L422.769,92L410.429,92L398.089,92L385.749,92L373.376,92L361.036,92L348.696,92L336.357,92L323.983,92L311.643,92L299.304,92L286.964,92L274.590,92L262.251,92L249.911,92L237.571,92L225.198,92L212.858,92L200.518,92L188.178,92L175.805,92L163.465,92L151.125,91L138.786,88L126.412,84L114.072,81L101.733,75L89.393,76L77.019,78L64.679,79L52.340,79L40,79Z"><title>LP/EP</title></path><path fill="#76b7b2" d="M40,92L52.340,92L64.679,92L77.019,92L89.393,92L101.733,92L114.072,92L126.412,92L138.786,92L151.125,92L163.465,92L175.805,92L188.178,92L200.518,92L212.858,92L225.198,92L237.571,92L249.911,92L262.251,92L274.590,92L286.964,92L299.304,92L311.643,92L323.983,92L336.357,92L348.696,92L361.036,92L373.376,92L385.749,92L398.089,92L410.429,92L422.769,92L435.142,92L447.482,92L459.822,92L472.161,92L484.535,92L496.875,92L509.214,92L521.554,92L533.928,92L546.267,92L558.607,92L570.947,74L583.321,75L595.660,75L608,76L608,79L595.660,78L583.321,78L570.947,75L558.607,92L546.267,92L533.928,92L521.554,92L509.214,92L496.875,92L484.535,92L472.161,92L459.822,92L447.482,92L435.142,92L422.769,92L410.429,92L398.089,92L385.749,92L373.376,92L361.036,92L348.696,92L336.357,92L323.983,92L311.643,92L299.304,92L286.964,92L274.590,92L262.251,92L249.911,92L237.571,92L225.198,92L212.858,92L200.518,92L188.178,92L175.805,92L163.465,92L151.125,92L138.786,92L126.412,92L114.072,92L101.733,92L89.393,92L77.019,92L64.679,92L52.340,92L40,92Z"><title>Limited Tier Paid Subscription</title></path><path fill="#e15759" d="M40,92L52.340,92L64.679,92L77.019,92L89.393,92L101.733,92L114.072,92L126.412,92L138.786,92L151.125,92L163.465,92L175.805,92L188.178,92L200.518,92L212.858,92L225.198,92L237.571,55L249.911,56L262.251,63L274.590,62L286.964,64L299.304,65L311.643,71L323.983,74L336.357,77L348.696,77L361.036,81L373.376,85L385.749,87L398.089,88L410.429,88L422.769,88L435.142,88L447.482,89L459.822,89L472.161,90L484.535,90L496.875,90L509.214,90L521.554,90L533.928,90L546.267,90L558.607,90L570.947,90L583.321,90L595.660,90L608,89L608,89L595.660,90L583.321,90L570.947,90L558.607,90L546.267,90L533.928,91L521.554,91L509.214,91L496.875,91L484.535,91L472.161,91L459.822,91L447.482,91L435.142,91L422.769,91L410.429,91L398.089,90L385.749,89L373.376,87L361.036,84L348.696,81L336.357,79L323.983,76L311.643,72L299.304,66L286.964,66L274.590,63L262.251,64L249.911,58L237.571,56L225.198,92L212.858,92L200.518,92L188.178,92L175.805,92L163.465,92L151.125,92L138.786,92L126.412,92L114.072,92L101.733,92L89.393,92L77.019,92L64.679,92L52.340,92L40,92Z"><title>Music Video (Physical)</title></path><path fill="#76b7b2" d="M40,92L52.340,92L64.679,92L77.019,92L89.393,92L101.733,92L114.072,92L126.412,92L138.786,92L151.125,92L163.465,92L175.805,92L188.178,92L200.518,92L212.858,92L225.198,92L237.571,92L249.911,92L262.251,92L274.590,92L286.964,92L299.304,92L311.643,92L323.983,92L336.357,92L348.696,92L361.036,92L373.376,92L385.749,92L398.089,92L410.429,92L422.769,92L435.142,92L447.482,92L459.822,92L472.161,92L484.535,92L496.875,92L509.214,73L521.554,71L533.928,71L546.267,72L558.607,72L570.947,72L583.321,72L595.660,71L608,72L608,76L595.660,75L583.321,75L570.947,74L558.607,74L546.267,73L533.928,72L521.554,72L509.214,73L496.875,92L484.535,92L472.161,92L459.822,92L447.482,92L435.142,92L422.769,92L410.429,92L398.089,92L385.749,92L373.376,92L361.036,92L348.696,92L336.357,92L323.983,92L311.643,92L299.304,92L286.964,92L274.590,92L262.251,92L249.911,92L237.571,92L225.198,92L212.858,92L200.518,92L188.178,92L175.805,92L163.465,92L151.125,92L138.786,92L126.412,92L114.072,92L101.733,92L89.393,92L77.019,92L64.679,92L52.340,92L40,92Z"><title>On-Demand Streaming (Ad-Supported)</title></path><path fill="#76b7b2" d="M40,92L52.340,92L64.679,92L77.019,92L89.393,92L101.733,92L114.072,92L126.412,92L138.786,92L151.125,92L163.465,92L175.805,92L188.178,92L200.518,92L212.858,92L225.198,92L237.571,92L249.911,92L262.251,92L274.590,92L286.964,92L299.304,92L311.643,92L323.983,92L336.357,92L348.696,92L361.036,92L373.376,92L385.749,92L398.089,92L410.429,92L422.769,92L435.142,92L447.482,92L459.822,92L472.161,92L484.535,92L496.875,92L509.214,92L521.554,92L533.928,92L546.267,92L558.607,92L570.947,81L583.321,82L595.660,84L608,84L608,86L595.660,85L583.321,83L570.947,81L558.607,92L546.267,92L533.928,92L521.554,92L509.214,92L496.875,92L484.535,92L472.161,92L459.822,92L447.482,92L435.142,92L422.769,92L410.429,92L398.089,92L385.749,92L373.376,92L361.036,92L348.696,92L336.357,92L323.983,92L311.643,92L299.304,92L286.964,92L274.590,92L262.251,92L249.911,92L237.571,92L225.198,92L212.858,92L200.518,92L188.178,92L175.805,92L163.465,92L151.125,92L138.786,92L126.412,92L114.072,92L101.733,92L89.393,92L77.019,92L64.679,92L52.340,92L40,92Z"><title>Other Ad-Supported Streaming</title></path><path fill="#f28e2c" d="M40,92L52.340,92L64.679,92L77.019,92L89.393,92L101.733,92L114.072,92L126.412,92L138.786,92L151.125,92L163.465,92L175.805,92L188.178,92L200.518,92L212.858,92L225.198,92L237.571,92L249.911,92L262.251,92L274.590,92L286.964,92L299.304,92L311.643,92L323.983,92L336.357,92L348.696,92L361.036,92L373.376,92L385.749,92L398.089,92L410.429,92L422.769,92L435.142,92L447.482,92L459.822,92L472.161,92L484.535,92L496.875,92L509.214,92L521.554,92L533.928,92L546.267,92L558.607,92L570.947,72L583.321,72L595.660,71L608,71L608,72L595.660,71L583.321,72L570.947,72L558.607,92L546.267,92L533.928,92L521.554,92L509.214,92L496.875,92L484.535,92L472.161,92L459.822,92L447.482,92L435.142,92L422.769,92L410.429,92L398.089,92L385.749,92L373.376,92L361.036,92L348.696,92L336.357,92L323.983,92L311.643,92L299.304,92L286.964,92L274.590,92L262.251,92L249.911,92L237.571,92L225.198,92L212.858,92L200.518,92L188.178,92L175.805,92L163.465,92L151.125,92L138.786,92L126.412,92L114.072,92L101.733,92L89.393,92L77.019,92L64.679,92L52.340,92L40,92Z"><title>Other Digital</title></path><path fill="#59a14f" d="M40,91L52.340,91L64.679,91L77.019,91L89.393,92L101.733,92L114.072,92L126.412,92L138.786,92L151.125,92L163.465,92L175.805,92L188.178,92L200.518,92L212.858,92L225.198,92L237.571,92L249.911,92L262.251,92L274.590,92L286.964,92L299.304,92L311.643,92L323.983,92L336.357,92L348.696,92L361.036,92L373.376,92L385.749,92L398.089,92L410.429,92L422.769,92L435.142,92L447.482,92L459.822,92L472.161,92L484.535,92L496.875,92L509.214,92L521.554,92L533.928,92L546.267,92L558.607,92L570.947,92L583.321,92L595.660,92L608,92L608,92L595.660,92L583.321,92L570.947,92L558.607,92L546.267,92L533.928,92L521.554,92L509.214,92L496.875,92L484.535,92L472.161,92L459.822,92L447.482,92L435.142,92L422.769,92L410.429,92L398.089,92L385.749,92L373.376,92L361.036,92L348.696,92L336.357,92L323.983,92L311.643,92L299.304,92L286.964,92L274.590,92L262.251,92L249.911,92L237.571,92L225.198,92L212.858,92L200.518,92L188.178,92L175.805,92L163.465,92L151.125,92L138.786,92L126.412,92L114.072,92L101.733,92L89.393,92L77.019,92L64.679,92L52.340,92L40,92Z"><title>Other Tapes</title></path><path fill="#76b7b2" d="M40,92L52.340,92L64.679,92L77.019,92L89.393,92L101.733,92L114.072,92L126.412,92L138.786,92L151.125,92L163.465,92L175.805,92L188.178,92L200.518,92L212.858,92L225.198,92L237.571,92L249.911,92L262.251,92L274.590,92L286.964,92L299.304,92L311.643,92L323.983,92L336.357,92L348.696,92L361.036,92L373.376,92L385.749,92L398.089,92L410.429,92L422.769,92L435.142,81L447.482,78L459.822,74L472.161,74L484.535,73L496.875,73L509.214,71L521.554,69L533.928,68L546.267,68L558.607,66L570.947,61L583.321,56L595.660,50L608,45L608,71L595.660,71L583.321,72L570.947,72L558.607,72L546.267,72L533.928,71L521.554,71L509.214,73L496.875,74L484.535,74L472.161,75L459.822,76L447.482,79L435.142,82L422.769,92L410.429,92L398.089,92L385.749,92L373.376,92L361.036,92L348.696,92L336.357,92L323.983,92L311.643,92L299.304,92L286.964,92L274.590,92L262.251,92L249.911,92L237.571,92L225.198,92L212.858,92L200.518,92L188.178,92L175.805,92L163.465,92L151.125,92L138.786,92L126.412,92L114.072,92L101.733,92L89.393,92L77.019,92L64.679,92L52.340,92L40,92Z"><title>Paid Subscription</title></path><path fill="#f28e2c" d="M40,92L52.340,92L64.679,92L77.019,92L89.393,92L101.733,92L114.072,92L126.412,92L138.786,92L151.125,92L163.465,92L175.805,92L188.178,92L200.518,92L212.858,92L225.198,92L237.571,92L249.911,92L262.251,92L274.590,92L286.964,92L299.304,92L311.643,92L323.983,92L336.357,92L348.696,92L361.036,92L373.376,92L385.749,92L398.089,92L410.429,92L422.769,92L435.142,85L447.482,85L459.822,83L472.161,85L484.535,86L496.875,88L509.214,89L521.554,89L533.928,90L546.267,90L558.607,89L570.947,89L583.321,89L595.660,89L608,89L608,89L595.660,90L583.321,90L570.947,90L558.607,90L546.267,90L533.928,90L521.554,90L509.214,90L496.875,90L484.535,90L472.161,90L459.822,89L447.482,89L435.142,88L422.769,92L410.429,92L398.089,92L385.749,92L373.376,92L361.036,92L348.696,92L336.357,92L323.983,92L311.643,92L299.304,92L286.964,92L274.590,92L262.251,92L249.911,92L237.571,92L225.198,92L212.858,92L200.518,92L188.178,92L175.805,92L163.465,92L151.125,92L138.786,92L126.412,92L114.072,92L101.733,92L89.393,92L77.019,92L64.679,92L52.340,92L40,92Z"><title>Ringtones &amp; Ringbacks</title></path><path fill="#4e79a7" d="M40,92L52.340,92L64.679,92L77.019,92L89.393,92L101.733,92L114.072,92L126.412,92L138.786,92L151.125,92L163.465,92L175.805,92L188.178,92L200.518,92L212.858,92L225.198,92L237.571,92L249.911,92L262.251,92L274.590,92L286.964,92L299.304,92L311.643,92L323.983,92L336.357,92L348.696,92L361.036,92L373.376,92L385.749,92L398.089,92L410.429,161L422.769,160L435.142,153L447.482,144L459.822,132L472.161,120L484.535,114L496.875,109L509.214,107L521.554,104L533.928,102L546.267,100L558.607,98L570.947,97L583.321,96L595.660,95L608,94L608,94L595.660,95L583.321,96L570.947,97L558.607,98L546.267,100L533.928,102L521.554,104L509.214,107L496.875,109L484.535,114L472.161,120L459.822,132L447.482,144L435.142,153L422.769,160L410.429,161L398.089,92L385.749,92L373.376,92L361.036,92L348.696,92L336.357,92L323.983,92L311.643,92L299.304,92L286.964,92L274.590,92L262.251,92L249.911,92L237.571,92L225.198,92L212.858,92L200.518,92L188.178,92L175.805,92L163.465,92L151.125,92L138.786,92L126.412,92L114.072,92L101.733,92L89.393,92L77.019,92L64.679,92L52.340,92L40,92Z"><title>SACD</title></path><path fill="#76b7b2" d="M40,92L52.340,92L64.679,92L77.019,92L89.393,92L101.733,92L114.072,92L126.412,92L138.786,92L151.125,92L163.465,92L175.805,92L188.178,92L200.518,92L212.858,92L225.198,92L237.571,92L249.911,92L262.251,92L274.590,92L286.964,92L299.304,92L311.643,92L323.983,92L336.357,92L348.696,92L361.036,92L373.376,92L385.749,92L398.089,92L410.429,92L422.769,86L435.142,82L447.482,79L459.822,76L472.161,75L484.535,75L496.875,75L509.214,74L521.554,73L533.928,73L546.267,74L558.607,75L570.947,76L583.321,79L595.660,80L608,80L608,84L595.660,84L583.321,82L570.947,81L558.607,79L546.267,78L533.928,76L521.554,75L509.214,76L496.875,76L484.535,76L472.161,76L459.822,76L447.482,80L435.142,82L422.769,86L410.429,92L398.089,92L385.749,92L373.376,92L361.036,92L348.696,92L336.357,92L323.983,92L311.643,92L299.304,92L286.964,92L274.590,92L262.251,92L249.911,92L237.571,92L225.198,92L212.858,92L200.518,92L188.178,92L175.805,92L163.465,92L151.125,92L138.786,92L126.412,92L114.072,92L101.733,92L89.393,92L77.019,92L64.679,92L52.340,92L40,92Z"><title>SoundExchange Distributions</title></path><path fill="#e15759" d="M40,92L52.340,92L64.679,92L77.019,92L89.393,92L101.733,92L114.072,92L126.412,92L138.786,92L151.125,92L163.465,92L175.805,92L188.178,92L200.518,92L212.858,92L225.198,92L237.571,92L249.911,92L262.251,92L274.590,92L286.964,92L299.304,92L311.643,92L323.983,92L336.357,92L348.696,92L361.036,92L373.376,92L385.749,92L398.089,92L410.429,92L422.769,92L435.142,92L447.482,92L459.822,92L472.161,92L484.535,74L496.875,74L509.214,73L521.554,72L533.928,72L546.267,73L558.607,74L570.947,75L583.321,78L595.660,78L608,79L608,80L595.660,80L583.321,79L570.947,76L558.607,75L546.267,74L533.928,73L521.554,73L509.214,74L496.875,75L484.535,75L472.161,92L459.822,92L447.482,92L435.142,92L422.769,92L410.429,92L398.089,92L385.749,92L373.376,92L361.036,92L348.696,92L336.357,92L323.983,92L311.643,92L299.304,92L286.964,92L274.590,92L262.251,92L249.911,92L237.571,92L225.198,92L212.858,92L200.518,92L188.178,92L175.805,92L163.465,92L151.125,92L138.786,92L126.412,92L114.072,92L101.733,92L89.393,92L77.019,92L64.679,92L52.340,92L40,92Z"><title>Synchronization</title></path><path fill="#edc949" d="M40,42L52.340,43L64.679,44L77.019,40L89.393,31L101.733,28L114.072,43L126.412,51L138.786,55L151.125,65L163.465,69L175.805,71L188.178,75L200.518,79L212.858,82L225.198,85L237.571,89L249.911,90L262.251,91L274.590,91L286.964,91L299.304,91L311.643,91L323.983,91L336.357,91L348.696,91L361.036,91L373.376,91L385.749,91L398.089,91L410.429,91L422.769,91L435.142,91L447.482,91L459.822,91L472.161,91L484.535,91L496.875,91L509.214,91L521.554,91L533.928,91L546.267,90L558.607,90L570.947,90L583.321,90L595.660,90L608,89L608,89L595.660,90L583.321,90L570.947,90L558.607,90L546.267,90L533.928,91L521.554,91L509.214,91L496.875,91L484.535,91L472.161,91L459.822,91L447.482,91L435.142,92L422.769,91L410.429,91L398.089,91L385.749,91L373.376,91L361.036,91L348.696,91L336.357,91L323.983,91L311.643,91L299.304,91L286.964,92L274.590,91L262.251,91L249.911,91L237.571,90L225.198,87L212.858,84L200.518,81L188.178,78L175.805,75L163.465,72L151.125,69L138.786,59L126.412,54L114.072,49L101.733,32L89.393,36L77.019,45L64.679,48L52.340,48L40,47Z"><title>Vinyl Single</title></path></g></svg>