<svg xmlns="http://www.w3.org/2000/svg" width="810" height="240.0" viewBox="0 0 810 240.0"><rect x="5" y="0" width="800" height="240.0" fill="#2b2b2e"/><g class="xlines"><line x1="25.0" y1="240.0" x2="25.0" y2="0.0" stroke="#202020"/><line x1="45.0" y1="240.0" x2="45.0" y2="0.0" stroke="#202020"/><line x1="65.0" y1="240.0" x2="65.0" y2="0.0" stroke="#202020"/><line x1="85.0" y1="240.0" x2="85.0" y2="0.0" stroke="#202020"/><line x1="105.0" y1="240.0" x2="105.0" y2="0.0" stroke="#202020"/><line x1="125.0" y1="240.0" x2="125.0" y2="0.0" stroke="#202020"/><line x1="145.0" y1="240.0" x2="145.0" y2="0.0" stroke="#202020"/><line x1="165.0" y1="240.0" x2="165.0" y2="0.0" stroke="#202020"/><line x1="185.0" y1="240.0" x2="185.0" y2="0.0" stroke="#202020"/><line x1="205.0" y1="240.0" x2="205.0" y2="0.0" stroke="#202020"/><line x1="225.00000000000003" y1="240.0" x2="225.00000000000003" y2="0.0" stroke="#202020"/><line x1="245.0" y1="240.0" x2="245.0" y2="0.0" stroke="#202020"/><line x1="265.0" y1="240.0" x2="265.0" y2="0.0" stroke="#202020"/><line x1="285.0" y1="240.0" x2="285.0" y2="0.0" stroke="#202020"/><line x1="305.0" y1="240.0" x2="305.0" y2="0.0" stroke="#202020"/><line x1="325.0" y1="240.0" x2="325.0" y2="0.0" stroke="#202020"/><line x1="345.0" y1="240.0" x2="345.0" y2="0.0" stroke="#202020"/><line x1="365.0" y1="240.0" x2="365.0" y2="0.0" stroke="#202020"/><line x1="385.0" y1="240.0" x2="385.0" y2="0.0" stroke="#202020"/><line x1="405.0" y1="240.0" x2="405.0" y2="0.0" stroke="#202020"/><line x1="425.0" y1="240.0" x2="425.0" y2="0.0" stroke="#202020"/><line x1="445.00000000000006" y1="240.0" x2="445.00000000000006" y2="0.0" stroke="#202020"/><line x1="464.99999999999994" y1="240.0" x2="464.99999999999994" y2="0.0" stroke="#202020"/><line x1="485.0" y1="240.0" x2="485.0" y2="0.0" stroke="#202020"/><line x1="505.0" y1="240.0" x2="505.0" y2="0.0" stroke="#202020"/><line x1="525.0" y1="240.0" x2="525.0" y2="0.0" stroke="#202020"/><line x1="545.0" y1="240.0" x2="545.0" y2="0.0" stroke="#202020"/><line x1="565.0" y1="240.0" x2="565.0" y2="0.0" stroke="#202020"/><line x1="585.0" y1="240.0" x2="585.0" y2="0.0" stroke="#202020"/><line x1="605.0" y1="240.0" x2="605.0" y2="0.0" stroke="#202020"/><line x1="625.0" y1="240.0" x2="625.0" y2="0.0" stroke="#202020"/><line x1="645.0" y1="240.0" x2="645.0" y2="0.0" stroke="#202020"/><line x1="665.0" y1="240.0" x2="665.0" y2="0.0" stroke="#202020"/><line x1="685.0" y1="240.0" x2="685.0" y2="0.0" stroke="#202020"/><line x1="705.0" y1="240.0" x2="705.0" y2="0.0" stroke="#202020"/><line x1="725.0" y1="240.0" x2="725.0" y2="0.0" stroke="#202020"/><line x1="745.0" y1="240.0" x2="745.0" y2="0.0" stroke="#202020"/><line x1="765.0" y1="240.0" x2="765.0" y2="0.0" stroke="#202020"/><line x1="785.0" y1="240.0" x2="785.0" y2="0.0" stroke="#202020"/></g><g class="ylines"><line x1="5.0" y1="220.0" x2="805.0" y2="220.0" stroke="#202020"/><line x1="5.0" y1="200.0" x2="805.0" y2="200.0" stroke="#202020"/><line x1="5.0" y1="180.0" x2="805.0" y2="180.0" stroke="#202020"/><line x1="5.0" y1="160.00000000000003" x2="805.0" y2="160.00000000000003" stroke="#202020"/><line x1="5.0" y1="139.99999999999997" x2="805.0" y2="139.99999999999997" stroke="#202020"/><line x1="5.0" y1="120.0" x2="805.0" y2="120.0" stroke="#202020"/><line x1="5.0" y1="99.99999999999999" x2="805.0" y2="99.99999999999999" stroke="#202020"/><line x1="5.0" y1="80.00000000000001" x2="805.0" y2="80.00000000000001" stroke="#202020"/><line x1="5.0" y1="60.0" x2="805.0" y2="60.0" stroke="#202020"/><line x1="5.0" y1="39.99999999999999" x2="805.0" y2="39.99999999999999" stroke="#202020"/><line x1="5.0" y1="20.000000000000007" x2="805.0" y2="20.000000000000007" stroke="#202020"/></g><g class="ease"><path d="M5,240L8.200,233.431L11.400,227.041L14.600,220.826L17.800,214.781L21,208.902L24.200,203.183L27.400,197.620L30.600,192.210L33.800,186.948L37,181.829L40.200,176.851L43.400,172.008L46.600,167.298L49.800,162.717L53,158.261L56.200,153.927L59.400,149.711L62.600,145.611L65.800,141.623L69,137.744L72.200,133.971L75.400,130.301L78.600,126.732L81.800,123.260L85,119.883L88.200,116.598L91.400,113.403L94.600,110.296L97.800,107.273L101,104.334L104.200,101.474L107.400,98.693L110.600,95.988L113.800,93.357L117,90.797L120.200,88.308L123.400,85.887L126.600,83.532L129.800,81.241L133,79.013L136.200,76.846L139.400,74.738L142.600,72.688L145.800,70.694L149,68.755L152.200,66.868L155.400,65.033L158.600,63.248L161.800,61.513L165,59.824L168.200,58.182L171.400,56.584L174.600,55.031L177.800,53.519L181,52.049L184.200,50.620L187.400,49.229L190.600,47.877L193.800,46.561L197,45.281L200.200,44.037L203.400,42.826L206.600,41.649L209.800,40.503L213,39.389L216.200,38.306L219.400,37.252L222.600,36.227L225.800,35.230L229,34.260L232.200,33.317L235.400,32.399L238.600,31.507L241.800,30.639L245,29.795L248.200,28.974L251.400,28.175L254.600,27.398L257.800,26.642L261,25.907L264.200,25.193L267.400,24.497L270.600,23.821L273.800,23.163L277,22.523L280.200,21.901L283.400,21.296L286.600,20.707L289.800,20.134L293,19.577L296.200,19.036L299.400,18.509L302.600,17.996L305.800,17.498L309,17.013L312.200,16.541L315.400,16.082L318.600,15.636L321.800,15.202L325,14.780L328.200,14.369L331.400,13.970L334.600,13.582L337.800,13.204L341,12.836L344.200,12.479L347.400,12.131L350.600,11.793L353.800,11.464L357,11.144L360.200,10.833L363.400,10.531L366.600,10.236L369.800,9.950L373,9.671L376.200,9.400L379.400,9.137L382.600,8.881L385.800,8.631L389,8.389L392.200,8.153L395.400,7.924L398.600,7.701L401.800,7.484L405,7.273L408.200,7.067L411.400,6.868L414.600,6.674L417.800,6.485L421,6.301L424.200,6.122L427.400,5.948L430.600,5.779L433.800,5.615L437,5.455L440.200,5.299L443.400,5.148L446.600,5.001L449.800,4.858L453,4.718L456.200,4.583L459.400,4.451L462.600,4.323L465.800,4.198L469,4.077L472.200,3.959L475.400,3.845L478.600,3.733L481.800,3.625L485,3.519L488.200,3.416L491.400,3.317L494.600,3.219L497.800,3.125L501,3.033L504.200,2.944L507.400,2.857L510.600,2.772L513.800,2.690L517,2.610L520.200,2.532L523.400,2.457L526.600,2.383L529.800,2.312L533,2.242L536.200,2.174L539.400,2.108L542.600,2.044L545.800,1.982L549,1.921L552.200,1.862L555.400,1.805L558.600,1.749L561.800,1.695L565,1.642L568.200,1.591L571.400,1.541L574.600,1.492L577.800,1.445L581,1.399L584.200,1.355L587.400,1.311L590.600,1.269L593.800,1.228L597,1.188L600.200,1.149L603.400,1.111L606.600,1.074L609.800,1.038L613,1.004L616.200,0.970L619.400,0.937L622.600,0.905L625.800,0.874L629,0.843L632.200,0.814L635.400,0.785L638.600,0.757L641.800,0.730L645,0.704L648.200,0.678L651.400,0.653L654.600,0.629L657.800,0.605L661,0.582L664.200,0.560L667.400,0.538L670.600,0.517L673.800,0.497L677,0.477L680.200,0.457L683.400,0.438L686.600,0.420L689.800,0.402L693,0.385L696.200,0.368L699.400,0.351L702.600,0.335L705.800,0.320L709,0.304L712.200,0.290L715.400,0.275L718.600,0.261L721.800,0.248L725,0.235L728.200,0.222L731.400,0.209L734.600,0.197L737.800,0.185L741,0.174L744.200,0.163L747.400,0.152L750.600,0.141L753.800,0.131L757,0.121L760.200,0.111L763.400,0.102L766.600,0.093L769.800,0.084L773,0.075L776.200,0.066L779.400,0.058L782.600,0.050L785.800,0.042L789,0.035L792.200,0.028L795.400,0.020L798.600,0.013L801.800,0.007L805,0" stroke="white" fill="none"/></g></svg>