<svg xmlns="http://www.w3.org/2000/svg" width="810" height="240.0" viewBox="0 0 810 240.0"><rect x="5" y="0" width="800" height="240.0" fill="#2b2b2e"/><g class="xlines"><line x1="25.0" y1="240.0" x2="25.0" y2="0.0" stroke="#202020"/><line x1="45.0" y1="240.0" x2="45.0" y2="0.0" stroke="#202020"/><line x1="65.0" y1="240.0" x2="65.0" y2="0.0" stroke="#202020"/><line x1="85.0" y1="240.0" x2="85.0" y2="0.0" stroke="#202020"/><line x1="105.0" y1="240.0" x2="105.0" y2="0.0" stroke="#202020"/><line x1="125.0" y1="240.0" x2="125.0" y2="0.0" stroke="#202020"/><line x1="145.0" y1="240.0" x2="145.0" y2="0.0" stroke="#202020"/><line x1="165.0" y1="240.0" x2="165.0" y2="0.0" stroke="#202020"/><line x1="185.0" y1="240.0" x2="185.0" y2="0.0" stroke="#202020"/><line x1="205.0" y1="240.0" x2="205.0" y2="0.0" stroke="#202020"/><line x1="225.00000000000003" y1="240.0" x2="225.00000000000003" y2="0.0" stroke="#202020"/><line x1="245.0" y1="240.0" x2="245.0" y2="0.0" stroke="#202020"/><line x1="265.0" y1="240.0" x2="265.0" y2="0.0" stroke="#202020"/><line x1="285.0" y1="240.0" x2="285.0" y2="0.0" stroke="#202020"/><line x1="305.0" y1="240.0" x2="305.0" y2="0.0" stroke="#202020"/><line x1="325.0" y1="240.0" x2="325.0" y2="0.0" stroke="#202020"/><line x1="345.0" y1="240.0" x2="345.0" y2="0.0" stroke="#202020"/><line x1="365.0" y1="240.0" x2="365.0" y2="0.0" stroke="#202020"/><line x1="385.0" y1="240.0" x2="385.0" y2="0.0" stroke="#202020"/><line x1="405.0" y1="240.0" x2="405.0" y2="0.0" stroke="#202020"/><line x1="425.0" y1="240.0" x2="425.0" y2="0.0" stroke="#202020"/><line x1="445.00000000000006" y1="240.0" x2="445.00000000000006" y2="0.0" stroke="#202020"/><line x1="464.99999999999994" y1="240.0" x2="464.99999999999994" y2="0.0" stroke="#202020"/><line x1="485.0" y1="240.0" x2="485.0" y2="0.0" stroke="#202020"/><line x1="505.0" y1="240.0" x2="505.0" y2="0.0" stroke="#202020"/><line x1="525.0" y1="240.0" x2="525.0" y2="0.0" stroke="#202020"/><line x1="545.0" y1="240.0" x2="545.0" y2="0.0" stroke="#202020"/><line x1="565.0" y1="240.0" x2="565.0" y2="0.0" stroke="#202020"/><line x1="585.0" y1="240.0" x2="585.0" y2="0.0" stroke="#202020"/><line x1="605.0" y1="240.0" x2="605.0" y2="0.0" stroke="#202020"/><line x1="625.0" y1="240.0" x2="625.0" y2="0.0" stroke="#202020"/><line x1="645.0" y1="240.0" x2="645.0" y2="0.0" stroke="#202020"/><line x1="665.0" y1="240.0" x2="665.0" y2="0.0" stroke="#202020"/><line x1="685.0" y1="240.0" x2="685.0" y2="0.0" stroke="#202020"/><line x1="705.0" y1="240.0" x2="705.0" y2="0.0" stroke="#202020"/><line x1="725.0" y1="240.0" x2="725.0" y2="0.0" stroke="#202020"/><line x1="745.0" y1="240.0" x2="745.0" y2="0.0" stroke="#202020"/><line x1="765.0" y1="240.0" x2="765.0" y2="0.0" stroke="#202020"/><line x1="785.0" y1="240.0" x2="785.0" y2="0.0" stroke="#202020"/></g><g class="ylines"><line x1="5.0" y1="220.0" x2="805.0" y2="220.0" stroke="#202020"/><line x1="5.0" y1="200.0" x2="805.0" y2="200.0" stroke="#202020"/><line x1="5.0" y1="180.0" x2="805.0" y2="180.0" stroke="#202020"/><line x1="5.0" y1="160.00000000000003" x2="805.0" y2="160.00000000000003" stroke="#202020"/><line x1="5.0" y1="139.99999999999997" x2="805.0" y2="139.99999999999997" stroke="#202020"/><line x1="5.0" y1="120.0" x2="805.0" y2="120.0" stroke="#202020"/><line x1="5.0" y1="99.99999999999999" x2="805.0" y2="99.99999999999999" stroke="#202020"/><line x1="5.0" y1="80.00000000000001" x2="805.0" y2="80.00000000000001" stroke="#202020"/><line x1="5.0" y1="60.0" x2="805.0" y2="60.0" stroke="#202020"/><line x1="5.0" y1="39.99999999999999" x2="805.0" y2="39.99999999999999" stroke="#202020"/><line x1="5.0" y1="20.000000000000007" x2="805.0" y2="20.000000000000007" stroke="#202020"/></g><g class="ease"><path d="M5,240L8.200,239.040L11.400,238.080L14.600,237.120L17.800,236.160L21,235.200L24.200,234.240L27.400,233.280L30.600,232.320L33.800,231.360L37,230.400L40.200,229.440L43.400,228.480L46.600,227.520L49.800,226.560L53,225.600L56.200,224.640L59.400,223.680L62.600,222.720L65.800,221.760L69,220.800L72.200,219.840L75.400,218.880L78.600,217.920L81.800,216.960L85,216L88.200,215.040L91.400,214.080L94.600,213.120L97.800,212.160L101,211.200L104.200,210.240L107.400,209.280L110.600,208.320L113.800,207.360L117,206.400L120.200,205.440L123.400,204.480L126.600,203.520L129.800,202.560L133,201.600L136.200,200.640L139.400,199.680L142.600,198.720L145.800,197.760L149,196.800L152.200,195.840L155.400,194.880L158.600,193.920L161.800,192.960L165,192L168.200,191.040L171.400,190.080L174.600,189.120L177.800,188.160L181,187.200L184.200,186.240L187.400,185.280L190.600,184.320L193.800,183.360L197,182.400L200.200,181.440L203.400,180.480L206.600,179.520L209.800,178.560L213,177.600L216.200,176.640L219.400,175.680L222.600,174.720L225.800,173.760L229,172.800L232.200,171.840L235.400,170.880L238.600,169.920L241.800,168.960L245,168L248.200,167.040L251.400,166.080L254.600,165.120L257.800,164.160L261,163.200L264.200,162.240L267.400,161.280L270.600,160.320L273.800,159.360L277,158.400L280.200,157.440L283.400,156.480L286.600,155.520L289.800,154.560L293,153.600L296.200,152.640L299.400,151.680L302.600,150.720L305.800,149.760L309,148.800L312.200,147.840L315.400,146.880L318.600,145.920L321.800,144.960L325,144L328.200,143.040L331.400,142.080L334.600,141.120L337.800,140.160L341,139.200L344.200,138.240L347.400,137.280L350.600,136.320L353.800,135.360L357,134.400L360.200,133.440L363.400,132.480L366.600,131.520L369.800,130.560L373,129.600L376.200,128.640L379.400,127.680L382.600,126.720L385.800,125.760L389,124.800L392.200,123.840L395.400,122.880L398.600,121.920L401.800,120.960L405,120L408.200,119.040L411.400,118.080L414.600,117.120L417.800,116.160L421,115.200L424.200,114.240L427.400,113.280L430.600,112.320L433.800,111.360L437,110.400L440.200,109.440L443.400,108.480L446.600,107.520L449.800,106.560L453,105.600L456.200,104.640L459.400,103.680L462.600,102.720L465.800,101.760L469,100.800L472.200,99.840L475.400,98.880L478.600,97.920L481.800,96.960L485,96L488.200,95.040L491.400,94.080L494.600,93.120L497.800,92.160L501,91.200L504.200,90.240L507.400,89.280L510.600,88.320L513.800,87.360L517,86.400L520.200,85.440L523.400,84.480L526.600,83.520L529.800,82.560L533,81.600L536.200,80.640L539.400,79.680L542.600,78.720L545.800,77.760L549,76.800L552.200,75.840L555.400,74.880L558.600,73.920L561.800,72.960L565,72L568.200,71.040L571.400,70.080L574.600,69.120L577.800,68.160L581,67.200L584.200,66.240L587.400,65.280L590.600,64.320L593.800,63.360L597,62.400L600.200,61.440L603.400,60.480L606.600,59.520L609.800,58.560L613,57.600L616.200,56.640L619.400,55.680L622.600,54.720L625.800,53.760L629,52.800L632.200,51.840L635.400,50.880L638.600,49.920L641.800,48.960L645,48L648.200,47.040L651.400,46.080L654.600,45.120L657.800,44.160L661,43.200L664.200,42.240L667.400,41.280L670.600,40.320L673.800,39.360L677,38.400L680.200,37.440L683.400,36.480L686.600,35.520L689.800,34.560L693,33.600L696.200,32.640L699.400,31.680L702.600,30.720L705.800,29.760L709,28.800L712.200,27.840L715.400,26.880L718.600,25.920L721.800,24.960L725,24L728.200,23.040L731.400,22.080L734.600,21.120L737.800,20.160L741,19.200L744.200,18.240L747.400,17.280L750.600,16.320L753.800,15.360L757,14.400L760.200,13.440L763.400,12.480L766.600,11.520L769.800,10.560L773,9.600L776.200,8.640L779.400,7.680L782.600,6.720L785.800,5.760L789,4.800L792.200,3.840L795.400,2.880L798.600,1.920L801.800,0.960L805,0" stroke="white" fill="none"/></g></svg>