<svg xmlns="http://www.w3.org/2000/svg" width="810" height="240.0" viewBox="0 0 810 240.0"><rect x="5" y="0" width="800" height="240.0" fill="#2b2b2e"/><g class="xlines"><line x1="25.0" y1="240.0" x2="25.0" y2="0.0" stroke="#202020"/><line x1="45.0" y1="240.0" x2="45.0" y2="0.0" stroke="#202020"/><line x1="65.0" y1="240.0" x2="65.0" y2="0.0" stroke="#202020"/><line x1="85.0" y1="240.0" x2="85.0" y2="0.0" stroke="#202020"/><line x1="105.0" y1="240.0" x2="105.0" y2="0.0" stroke="#202020"/><line x1="125.0" y1="240.0" x2="125.0" y2="0.0" stroke="#202020"/><line x1="145.0" y1="240.0" x2="145.0" y2="0.0" stroke="#202020"/><line x1="165.0" y1="240.0" x2="165.0" y2="0.0" stroke="#202020"/><line x1="185.0" y1="240.0" x2="185.0" y2="0.0" stroke="#202020"/><line x1="205.0" y1="240.0" x2="205.0" y2="0.0" stroke="#202020"/><line x1="225.00000000000003" y1="240.0" x2="225.00000000000003" y2="0.0" stroke="#202020"/><line x1="245.0" y1="240.0" x2="245.0" y2="0.0" stroke="#202020"/><line x1="265.0" y1="240.0" x2="265.0" y2="0.0" stroke="#202020"/><line x1="285.0" y1="240.0" x2="285.0" y2="0.0" stroke="#202020"/><line x1="305.0" y1="240.0" x2="305.0" y2="0.0" stroke="#202020"/><line x1="325.0" y1="240.0" x2="325.0" y2="0.0" stroke="#202020"/><line x1="345.0" y1="240.0" x2="345.0" y2="0.0" stroke="#202020"/><line x1="365.0" y1="240.0" x2="365.0" y2="0.0" stroke="#202020"/><line x1="385.0" y1="240.0" x2="385.0" y2="0.0" stroke="#202020"/><line x1="405.0" y1="240.0" x2="405.0" y2="0.0" stroke="#202020"/><line x1="425.0" y1="240.0" x2="425.0" y2="0.0" stroke="#202020"/><line x1="445.00000000000006" y1="240.0" x2="445.00000000000006" y2="0.0" stroke="#202020"/><line x1="464.99999999999994" y1="240.0" x2="464.99999999999994" y2="0.0" stroke="#202020"/><line x1="485.0" y1="240.0" x2="485.0" y2="0.0" stroke="#202020"/><line x1="505.0" y1="240.0" x2="505.0" y2="0.0" stroke="#202020"/><line x1="525.0" y1="240.0" x2="525.0" y2="0.0" stroke="#202020"/><line x1="545.0" y1="240.0" x2="545.0" y2="0.0" stroke="#202020"/><line x1="565.0" y1="240.0" x2="565.0" y2="0.0" stroke="#202020"/><line x1="585.0" y1="240.0" x2="585.0" y2="0.0" stroke="#202020"/><line x1="605.0" y1="240.0" x2="605.0" y2="0.0" stroke="#202020"/><line x1="625.0" y1="240.0" x2="625.0" y2="0.0" stroke="#202020"/><line x1="645.0" y1="240.0" x2="645.0" y2="0.0" stroke="#202020"/><line x1="665.0" y1="240.0" x2="665.0" y2="0.0" stroke="#202020"/><line x1="685.0" y1="240.0" x2="685.0" y2="0.0" stroke="#202020"/><line x1="705.0" y1="240.0" x2="705.0" y2="0.0" stroke="#202020"/><line x1="725.0" y1="240.0" x2="725.0" y2="0.0" stroke="#202020"/><line x1="745.0" y1="240.0" x2="745.0" y2="0.0" stroke="#202020"/><line x1="765.0" y1="240.0" x2="765.0" y2="0.0" stroke="#202020"/><line x1="785.0" y1="240.0" x2="785.0" y2="0.0" stroke="#202020"/></g><g class="ylines"><line x1="5.0" y1="220.0" x2="805.0" y2="220.0" stroke="#202020"/><line x1="5.0" y1="200.0" x2="805.0" y2="200.0" stroke="#202020"/><line x1="5.0" y1="180.0" x2="805.0" y2="180.0" stroke="#202020"/><line x1="5.0" y1="160.00000000000003" x2="805.0" y2="160.00000000000003" stroke="#202020"/><line x1="5.0" y1="139.99999999999997" x2="805.0" y2="139.99999999999997" stroke="#202020"/><line x1="5.0" y1="120.0" x2="805.0" y2="120.0" stroke="#202020"/><line x1="5.0" y1="99.99999999999999" x2="805.0" y2="99.99999999999999" stroke="#202020"/><line x1="5.0" y1="80.00000000000001" x2="805.0" y2="80.00000000000001" stroke="#202020"/><line x1="5.0" y1="60.0" x2="805.0" y2="60.0" stroke="#202020"/><line x1="5.0" y1="39.99999999999999" x2="805.0" y2="39.99999999999999" stroke="#202020"/><line x1="5.0" y1="20.000000000000007" x2="805.0" y2="20.000000000000007" stroke="#202020"/></g><g class="ease"><path d="M5,240L8.200,239.991L11.400,239.962L14.600,239.915L17.800,239.848L21,239.763L24.200,239.659L27.400,239.536L30.600,239.394L33.800,239.233L37,239.054L40.200,238.855L43.400,238.638L46.600,238.402L49.800,238.148L53,237.874L56.200,237.583L59.400,237.272L62.600,236.943L65.800,236.596L69,236.230L72.200,235.846L75.400,235.443L78.600,235.023L81.800,234.584L85,234.127L88.200,233.652L91.400,233.159L94.600,232.648L97.800,232.119L101,231.573L104.200,231.009L107.400,230.428L110.600,229.829L113.800,229.213L117,228.579L120.200,227.929L123.400,227.261L126.600,226.576L129.800,225.875L133,225.157L136.200,224.422L139.400,223.671L142.600,222.903L145.800,222.119L149,221.319L152.200,220.503L155.400,219.672L158.600,218.824L161.800,217.961L165,217.082L168.200,216.188L171.400,215.279L174.600,214.355L177.800,213.415L181,212.462L184.200,211.493L187.400,210.510L190.600,209.513L193.800,208.502L197,207.476L200.200,206.437L203.400,205.384L206.600,204.318L209.800,203.238L213,202.146L216.200,201.040L219.400,199.921L222.600,198.790L225.800,197.647L229,196.491L232.200,195.323L235.400,194.143L238.600,192.952L241.800,191.749L245,190.534L248.200,189.309L251.400,188.072L254.600,186.825L257.800,185.567L261,184.299L264.200,183.021L267.400,181.733L270.600,180.435L273.800,179.127L277,177.810L280.200,176.484L283.400,175.150L286.600,173.806L289.800,172.454L293,171.094L296.200,169.725L299.400,168.349L302.600,166.965L305.800,165.573L309,164.175L312.200,162.769L315.400,161.357L318.600,159.938L321.800,158.513L325,157.082L328.200,155.645L331.400,154.202L334.600,152.754L337.800,151.301L341,149.843L344.200,148.380L347.400,146.912L350.600,145.441L353.800,143.965L357,142.486L360.200,141.003L363.400,139.516L366.600,138.027L369.800,136.535L373,135.040L376.200,133.543L379.400,132.043L382.600,130.542L385.800,129.039L389,127.535L392.200,126.029L395.400,124.523L398.600,123.016L401.800,121.508L405,120L408.200,118.492L411.400,116.984L414.600,115.477L417.800,113.971L421,112.465L424.200,110.961L427.400,109.458L430.600,107.957L433.800,106.457L437,104.960L440.200,103.465L443.400,101.973L446.600,100.484L449.800,98.997L453,97.514L456.200,96.035L459.400,94.559L462.600,93.088L465.800,91.620L469,90.157L472.200,88.699L475.400,87.246L478.600,85.798L481.800,84.355L485,82.918L488.200,81.487L491.400,80.062L494.600,78.643L497.800,77.231L501,75.825L504.200,74.427L507.400,73.035L510.600,71.651L513.800,70.275L517,68.906L520.200,67.546L523.400,66.194L526.600,64.850L529.800,63.516L533,62.190L536.200,60.873L539.400,59.565L542.600,58.267L545.800,56.979L549,55.701L552.200,54.433L555.400,53.175L558.600,51.928L561.800,50.691L565,49.466L568.200,48.251L571.400,47.048L574.600,45.857L577.800,44.677L581,43.509L584.200,42.353L587.400,41.210L590.600,40.079L593.800,38.960L597,37.854L600.200,36.762L603.400,35.682L606.600,34.616L609.800,33.563L613,32.524L616.200,31.498L619.400,30.487L622.600,29.490L625.800,28.507L629,27.538L632.200,26.585L635.400,25.645L638.600,24.721L641.800,23.812L645,22.918L648.200,22.039L651.400,21.176L654.600,20.328L657.800,19.497L661,18.681L664.200,17.881L667.400,17.097L670.600,16.329L673.800,15.578L677,14.843L680.200,14.125L683.400,13.424L686.600,12.739L689.800,12.071L693,11.421L696.200,10.787L699.400,10.171L702.600,9.572L705.800,8.991L709,8.427L712.200,7.881L715.400,7.352L718.600,6.841L721.800,6.348L725,5.873L728.200,5.416L731.400,4.977L734.600,4.557L737.800,4.154L741,3.770L744.200,3.404L747.400,3.057L750.600,2.728L753.800,2.417L757,2.126L760.200,1.852L763.400,1.598L766.600,1.362L769.800,1.145L773,0.946L776.200,0.767L779.400,0.606L782.600,0.464L785.800,0.341L789,0.237L792.200,0.152L795.400,0.085L798.600,0.038L801.800,0.009L805,0" stroke="white" fill="none"/></g></svg>