<svg xmlns="http://www.w3.org/2000/svg" width="810" height="570" viewBox="0 0 810 570"><g transform="translate(30, 25)" fill="none" font-size="10" font-family="sans-serif" text-anchor="middle"><path class="domain" stroke="currentColor" d="M0.5,-6V0.5H745.5V-6"/><g class="tick" opacity="1" transform="translate(0.5, 0)"><line stroke="currentColor" y2="-6"/><text fill="currentColor" y="-9" dy="0em">0</text></g><g class="tick" opacity="1" transform="translate(75.0, 0)"><line stroke="currentColor" y2="-6"/><text fill="currentColor" y="-9" dy="0em">1</text></g><g class="tick" opacity="1" transform="translate(149.5, 0)"><line stroke="currentColor" y2="-6"/><text fill="currentColor" y="-9" dy="0em">2</text></g><g class="tick" opacity="1" transform="translate(224.0, 0)"><line stroke="currentColor" y2="-6"/><text fill="currentColor" y="-9" dy="0em">3</text></g><g class="tick" opacity="1" transform="translate(298.5, 0)"><line stroke="currentColor" y2="-6"/><text fill="currentColor" y="-9" dy="0em">4</text></g><g class="tick" opacity="1" transform="translate(373.0, 0)"><line stroke="currentColor" y2="-6"/><text fill="currentColor" y="-9" dy="0em">5</text></g><g class="tick" opacity="1" transform="translate(447.5, 0)"><line stroke="currentColor" y2="-6"/><text fill="currentColor" y="-9" dy="0em">6</text></g><g class="tick" opacity="1" transform="translate(522.0, 0)"><line stroke="currentColor" y2="-6"/><text fill="currentColor" y="-9" dy="0em">7</text></g><g class="tick" opacity="1" transform="translate(596.5, 0)"><line stroke="currentColor" y2="-6"/><text fill="currentColor" y="-9" dy="0em">8</text></g><g class="tick" opacity="1" transform="translate(671.0, 0)"><line stroke="currentColor" y2="-6"/><text fill="currentColor" y="-9" dy="0em">9</text></g><g class="tick" opacity="1" transform="translate(745.5, 0)"><line stroke="currentColor" y2="-6"/><text fill="currentColor" y="-9" dy="0em">10</text></g><text style="fill:black;font-size:20;text-anchor:middle;" x="370.0" y="30">axis_top</text></g><g transform="translate(30, 540)" fill="none" font-size="10" font-family="sans-serif" text-anchor="middle"><path class="domain" stroke="currentColor" d="M0.5,6V0.5H745.5V6"/><g class="tick" opacity="1" transform="translate(0.5, 0)"><line stroke="currentColor" y2="6"/><text fill="currentColor" y="9" dy="0.71em">0</text></g><g class="tick" opacity="1" transform="translate(75.0, 0)"><line stroke="currentColor" y2="6"/><text fill="currentColor" y="9" dy="0.71em">1</text></g><g class="tick" opacity="1" transform="translate(149.5, 0)"><line stroke="currentColor" y2="6"/><text fill="currentColor" y="9" dy="0.71em">2</text></g><g class="tick" opacity="1" transform="translate(224.0, 0)"><line stroke="currentColor" y2="6"/><text fill="currentColor" y="9" dy="0.71em">3</text></g><g class="tick" opacity="1" transform="translate(298.5, 0)"><line stroke="currentColor" y2="6"/><text fill="currentColor" y="9" dy="0.71em">4</text></g><g class="tick" opacity="1" transform="translate(373.0, 0)"><line stroke="currentColor" y2="6"/><text fill="currentColor" y="9" dy="0.71em">5</text></g><g class="tick" opacity="1" transform="translate(447.5, 0)"><line stroke="currentColor" y2="6"/><text fill="currentColor" y="9" dy="0.71em">6</text></g><g class="tick" opacity="1" transform="translate(522.0, 0)"><line stroke="currentColor" y2="6"/><text fill="currentColor" y="9" dy="0.71em">7</text></g><g class="tick" opacity="1" transform="translate(596.5, 0)"><line stroke="currentColor" y2="6"/><text fill="currentColor" y="9" dy="0.71em">8</text></g><g class="tick" opacity="1" transform="translate(671.0, 0)"><line stroke="currentColor" y2="6"/><text fill="currentColor" y="9" dy="0.71em">9</text></g><g class="tick" opacity="1" transform="translate(745.5, 0)"><line stroke="currentColor" y2="6"/><text fill="currentColor" y="9" dy="0.71em">10</text></g><text style="fill:black;font-size:20;text-anchor:middle;" x="370.0" y="-30">axis_bottom</text></g><g transform="translate(25, 30)" fill="none" font-size="10" font-family="sans-serif" text-anchor="end"><path class="domain" stroke="currentColor" d="M-6,0.5H0.5V505.5H-6"/><g class="tick" opacity="1" transform="translate(0, 0.5)"><line stroke="currentColor" x2="-6"/><text fill="currentColor" x="-9" dy="0.32em">0</text></g><g class="tick" opacity="1" transform="translate(0, 51.0)"><line stroke="currentColor" x2="-6"/><text fill="currentColor" x="-9" dy="0.32em">1</text></g><g class="tick" opacity="1" transform="translate(0, 101.5)"><line stroke="currentColor" x2="-6"/><text fill="currentColor" x="-9" dy="0.32em">2</text></g><g class="tick" opacity="1" transform="translate(0, 152.0)"><line stroke="currentColor" x2="-6"/><text fill="currentColor" x="-9" dy="0.32em">3</text></g><g class="tick" opacity="1" transform="translate(0, 202.5)"><line stroke="currentColor" x2="-6"/><text fill="currentColor" x="-9" dy="0.32em">4</text></g><g class="tick" opacity="1" transform="translate(0, 253.0)"><line stroke="currentColor" x2="-6"/><text fill="currentColor" x="-9" dy="0.32em">5</text></g><g class="tick" opacity="1" transform="translate(0, 303.5)"><line stroke="currentColor" x2="-6"/><text fill="currentColor" x="-9" dy="0.32em">6</text></g><g class="tick" opacity="1" transform="translate(0, 354.0)"><line stroke="currentColor" x2="-6"/><text fill="currentColor" x="-9" dy="0.32em">7</text></g><g class="tick" opacity="1" transform="translate(0, 404.5)"><line stroke="currentColor" x2="-6"/><text fill="currentColor" x="-9" dy="0.32em">8</text></g><g class="tick" opacity="1" transform="translate(0, 455.0)"><line stroke="currentColor" x2="-6"/><text fill="currentColor" x="-9" dy="0.32em">9</text></g><g class="tick" opacity="1" transform="translate(0, 505.5)"><line stroke="currentColor" x2="-6"/><text fill="currentColor" x="-9" dy="0.32em">10</text></g><text style="fill:black;font-size:20;text-anchor:middle;" x="60" y="257.5">axis_left</text></g><g transform="translate(780, 30)" fill="none" font-size="10" font-family="sans-serif" text-anchor="start"><path class="domain" stroke="currentColor" d="M6,0.5H0.5V505.5H6"/><g class="tick" opacity="1" transform="translate(0, 0.5)"><line stroke="currentColor" x2="6"/><text fill="currentColor" x="9" dy="0.32em">0</text></g><g class="tick" opacity="1" transform="translate(0, 51.0)"><line stroke="currentColor" x2="6"/><text fill="currentColor" x="9" dy="0.32em">1</text></g><g class="tick" opacity="1" transform="translate(0, 101.5)"><line stroke="currentColor" x2="6"/><text fill="currentColor" x="9" dy="0.32em">2</text></g><g class="tick" opacity="1" transform="translate(0, 152.0)"><line stroke="currentColor" x2="6"/><text fill="currentColor" x="9" dy="0.32em">3</text></g><g class="tick" opacity="1" transform="translate(0, 202.5)"><line stroke="currentColor" x2="6"/><text fill="currentColor" x="9" dy="0.32em">4</text></g><g class="tick" opacity="1" transform="translate(0, 253.0)"><line stroke="currentColor" x2="6"/><text fill="currentColor" x="9" dy="0.32em">5</text></g><g class="tick" opacity="1" transform="translate(0, 303.5)"><line stroke="currentColor" x2="6"/><text fill="currentColor" x="9" dy="0.32em">6</text></g><g class="tick" opacity="1" transform="translate(0, 354.0)"><line stroke="currentColor" x2="6"/><text fill="currentColor" x="9" dy="0.32em">7</text></g><g class="tick" opacity="1" transform="translate(0, 404.5)"><line stroke="currentColor" x2="6"/><text fill="currentColor" x="9" dy="0.32em">8</text></g><g class="tick" opacity="1" transform="translate(0, 455.0)"><line stroke="currentColor" x2="6"/><text fill="currentColor" x="9" dy="0.32em">9</text></g><g class="tick" opacity="1" transform="translate(0, 505.5)"><line stroke="currentColor" x2="6"/><text fill="currentColor" x="9" dy="0.32em">10</text></g><text style="fill:black;font-size:20;text-anchor:middle;" x="-60" y="257.5">axis_right</text></g></svg>