<svg xmlns="http://www.w3.org/2000/svg" width="688" height="400" viewBox="0 0 688 400"><path name="graticule" d="M170.834,298.053L167.623,291.91L164.825,285.552L162.446,278.993L160.492,272.25L158.967,265.338L157.876,258.272L157.22,251.071L157.001,243.749L157.226,236.217L157.902,228.597L159.025,220.908L160.594,213.169L162.605,205.398L165.053,197.614L167.932,189.836L171.236,182.082L179.082,166.722L188.516,151.684L199.448,137.11L211.772,123.142L225.369,109.914L240.109,97.554L255.849,86.181L272.439,75.903L289.717,66.821L307.518,59.021L325.671,52.579L344,47.557M389.333,393.768L391.94,392.875L394.415,391.448L396.75,389.491L398.939,387.01L402.855,380.503L406.12,371.999L408.698,361.592L410.56,349.397L411.685,335.548L412.062,320.201L411.734,304.68L410.754,288.151L409.131,270.773L406.881,252.713L404.025,234.146L400.591,215.25L396.613,196.208L392.127,177.201L387.178,158.414L381.813,140.028L376.084,122.22L370.046,105.16L363.757,89.014L357.278,73.936L350.671,60.073L344,47.557M517.166,101.947L511.475,93.001L504.868,84.641L497.381,76.912L489.054,69.856L479.934,63.512L470.07,57.915L459.516,53.096L448.33,49.08L436.574,45.89L424.311,43.543L411.608,42.052L398.536,41.425L385.165,41.666L371.569,42.773L357.822,44.74L344,47.557M298.667,6.232L301.026,5.892L303.474,5.955L308.618,7.288L314.055,10.22L319.74,14.726L325.627,20.769L331.666,28.298L337.807,37.253L344,47.557M157.001,243.749L160.148,248.951L163.645,254.059L167.485,259.064L171.661,263.957L176.165,268.729L180.989,273.369L186.123,277.87L191.557,282.222L197.282,286.418L203.286,290.449L209.558,294.309L216.085,297.988L222.856,301.482L229.858,304.782L237.077,307.882L244.5,310.777L252.112,313.462L259.899,315.93L267.846,318.178L275.938,320.201L284.16,321.994L292.495,323.556L300.929,324.883L309.444,325.971L318.025,326.82L326.656,327.428L335.32,327.793L344,327.915L352.68,327.793L361.344,327.428L369.975,326.82L378.556,325.971L387.071,324.883L395.505,323.556L403.84,321.994L412.062,320.201L420.154,318.178L428.101,315.93L435.888,313.462L443.5,310.777L450.923,307.882L458.142,304.782L465.144,301.482L471.915,297.988L478.442,294.309L484.714,290.449L490.718,286.418L496.443,282.222L501.877,277.87L507.011,273.369L511.835,268.729L516.339,263.957L520.515,259.064L524.355,254.059L527.852,248.951L530.999,243.749L533.79,238.465L536.219,233.107L538.283,227.686L539.977,222.212L541.298,216.696L542.243,211.149L542.811,205.58L543,200L543,200M145,200L145.189,205.58L145.757,211.149L146.702,216.696L148.023,222.212L149.717,227.686L151.781,233.107L154.21,238.465L157.001,243.749M195.952,332.976L188.698,323.722L182.672,313.487L177.924,302.355L174.489,290.413L172.397,277.755L171.662,264.482L172.291,250.699L174.279,236.514L177.057,224.108L180.807,211.562L185.508,198.948L191.133,186.341L197.649,173.813L205.018,161.437L213.197,149.286L222.138,137.431L231.789,125.941L242.094,114.882L252.993,104.319L264.423,94.314L276.316,84.924L288.603,76.206L301.214,68.208L314.074,60.979M222.984,357.975L218.35,354.089L214.052,349.79L210.102,345.09L206.511,340.002L203.288,334.538L200.442,328.714L197.981,322.545L195.911,316.047L194.238,309.239L192.966,302.138L192.098,294.764L191.638,287.136L191.585,279.274L191.941,271.2L193.873,254.501L196.33,241.801L199.647,228.857L203.806,215.745L208.782,202.542L214.545,189.323L221.063,176.167L228.298,163.149L236.207,150.346L244.744,137.833L253.859,125.682L263.5,113.964L273.61,102.747L284.13,92.098L294.999,82.077L306.153,72.743L317.529,64.151M249.532,375.148L244.76,372.205L240.312,368.699L236.202,364.643L232.445,360.049L229.051,354.932L226.034,349.31L223.401,343.199L221.162,336.622L219.325,329.598L217.894,322.151L216.876,314.304L216.272,306.085L216.086,297.519L216.317,288.635L218.029,270.028L220.09,257.074L222.874,243.787L226.363,230.245L230.538,216.526L235.375,202.712L240.844,188.881L246.914,175.116L253.551,161.495L260.714,148.099L268.363,135.005L276.452,122.29L284.936,110.028L293.763,98.29L302.883,87.145L312.243,76.657L321.788,66.889M274.763,386.567L270.536,384.604L266.583,381.954L262.917,378.629L259.553,374.639L256.503,370L253.779,364.729L251.389,358.845L249.344,352.371L247.651,345.33L246.316,337.749L245.344,329.656L244.739,321.081L244.637,302.614L246.012,282.623L247.615,269.463L249.78,255.897L252.495,242.006L255.742,227.87L259.504,213.572L263.759,199.195L268.481,184.822L273.643,170.538L279.215,156.426L285.165,142.567L291.457,129.043L298.056,115.933L304.923,103.312L312.017,91.256L319.297,79.832L326.722,69.109M298.667,393.768L295.535,392.623L292.6,390.701L289.871,388.01L287.361,384.56L285.079,380.365L283.035,375.443L281.237,369.814L279.692,363.499L277.386,348.919L276.153,331.938L276.015,312.83L276.972,291.903L279.55,264.82L283.628,236.229L289.112,206.794L295.873,177.201L303.754,148.139L312.572,120.284L322.122,94.284L332.181,70.746M321.589,397.734L319.928,397.123L318.369,395.68L316.918,393.412L315.582,390.326L313.274,381.763L311.484,370.134L310.242,355.635L309.57,338.512L309.478,319.053L309.969,297.586L311.278,270.285L313.348,241.348L316.133,211.448L319.565,181.282L323.567,151.551L328.044,122.949L332.892,96.139L337.999,71.748M344,399L344,392.219L344,372.339L344,340.714L344,299.5L344,243.071L344,182.656L344,123.846L344,72.085M366.411,397.734L368.072,397.123L369.631,395.68L371.082,393.412L372.418,390.326L374.726,381.763L376.516,370.134L377.758,355.635L378.43,338.512L378.522,319.053L378.031,297.586L376.722,270.285L374.652,241.348L371.867,211.448L368.435,181.282L364.433,151.551L359.956,122.949L355.108,96.139L350.001,71.748M413.237,386.567L417.464,384.604L421.417,381.954L425.083,378.629L428.447,374.639L431.497,370L434.221,364.729L436.611,358.845L438.656,352.371L440.349,345.33L441.684,337.749L442.656,329.656L443.261,321.081L443.363,302.614L441.988,282.623L440.385,269.463L438.22,255.897L435.505,242.006L432.258,227.87L428.496,213.572L424.241,199.195L419.519,184.822L414.357,170.538L408.785,156.426L402.835,142.567L396.543,129.043L389.944,115.933L383.077,103.312L375.983,91.256L368.703,79.832L361.278,69.109M438.468,375.148L443.24,372.205L447.688,368.699L451.798,364.643L455.555,360.049L458.949,354.932L461.966,349.31L464.599,343.199L466.838,336.622L468.675,329.598L470.106,322.151L471.124,314.304L471.728,306.085L471.914,297.519L471.683,288.635L469.971,270.028L467.91,257.074L465.126,243.787L461.637,230.245L457.462,216.526L452.625,202.712L447.156,188.881L441.086,175.116L434.449,161.495L427.286,148.099L419.637,135.005L411.548,122.29L403.064,110.028L394.237,98.29L385.117,87.145L375.757,76.657L366.212,66.889M465.016,357.975L469.65,354.089L473.948,349.79L477.898,345.09L481.489,340.002L484.712,334.538L487.558,328.714L490.019,322.545L492.089,316.047L493.762,309.239L495.034,302.138L495.902,294.764L496.362,287.136L496.415,279.274L496.059,271.2L494.127,254.501L491.67,241.801L488.353,228.857L484.194,215.745L479.218,202.542L473.455,189.323L466.937,176.167L459.702,163.149L451.793,150.346L443.256,137.833L434.141,125.682L424.5,113.964L414.39,102.747L403.87,92.098L393.001,82.077L381.847,72.743L370.471,64.151M492.048,332.976L499.302,323.722L505.328,313.487L510.076,302.355L513.511,290.413L515.603,277.755L516.338,264.482L515.709,250.699L513.721,236.514L510.943,224.108L507.193,211.562L502.492,198.948L496.867,186.341L490.351,173.813L482.982,161.437L474.803,149.286L465.862,137.431L456.211,125.941L445.906,114.882L435.007,104.319L423.577,94.314L411.684,84.924L399.397,76.206L386.786,68.208L373.926,60.979M517.166,298.053L521.691,289.069L525.339,279.645L528.095,269.83L529.944,259.67L530.877,249.217L530.89,238.521L529.982,227.635L528.158,216.613L525.144,204.533L521.075,192.426L515.974,180.364L509.87,168.416L502.8,156.652L494.804,145.141L485.93,133.949L476.228,123.142L465.756,112.783L454.574,102.933L442.748,93.648L430.346,84.983L417.442,76.988L404.109,69.71L390.426,63.191L376.472,57.47M535.91,252.644L537.574,245.736L538.805,238.726L539.599,231.629L539.955,224.461L539.873,217.238L539.352,209.977L538.393,202.693L536.999,195.403L533.841,183.67L529.576,172.032L524.23,160.557L517.833,149.312L510.424,138.362L502.044,127.772L492.744,117.602L482.576,107.913L471.602,98.76L459.883,90.198L447.489,82.275L434.492,75.038L420.968,68.529L406.995,62.787L392.655,57.844L378.031,53.73M543,200L542.243,186.714L539.977,173.529L536.77,162.153L532.439,150.999L527.01,140.13L520.515,129.61L512.991,119.5L504.482,109.859L495.038,100.744L484.714,92.207L473.57,84.298L461.671,77.063L449.086,70.545L435.888,64.782L422.155,59.806L407.966,55.647L393.405,52.33L378.556,49.873M535.91,147.356L532.421,136.724L527.887,126.444L522.332,116.571L515.787,107.162L508.289,98.268L499.879,89.938L490.604,82.219L480.515,75.154L469.669,68.782L458.126,63.137L445.949,58.253L433.206,54.155L419.968,50.866L406.309,48.405L392.304,46.785L378.031,46.016M492.048,67.024L487.102,61.945L481.743,57.265L475.987,52.995L469.851,49.15L463.353,45.738L456.511,42.772L449.344,40.258L441.874,38.204L434.123,36.616L426.111,35.5L417.863,34.857L409.402,34.689L400.753,34.998L391.94,35.783L382.99,37.04L373.926,38.767M465.016,42.025L460.585,38.9L455.902,36.123L450.979,33.698L445.826,31.631L440.453,29.927L434.872,28.59L423.136,27.024L410.719,26.947L397.727,28.36L384.272,31.251L370.471,35.595M438.468,24.852L431.083,21.629L423.111,19.606L414.608,18.797L405.629,19.206L396.236,20.832L386.491,23.663L376.461,27.681L366.212,32.858M413.237,13.433L407.735,11.978L401.881,11.563L395.706,12.19L389.246,13.856L382.535,16.551L375.611,20.261L368.512,24.965L361.278,30.637M389.333,6.232L385.709,5.875L381.885,6.449L377.879,7.953L373.71,10.378L369.399,13.714L364.965,17.944L360.432,23.047L355.819,29.001M366.411,2.266L364.617,2.504L362.732,3.612L360.764,5.585L358.722,8.416L354.453,16.592L350.001,27.998M344,1L344,7.781L344,27.661M321.589,2.266L323.383,2.504L325.268,3.612L327.236,5.585L329.278,8.416L333.547,16.592L337.999,27.998M274.763,13.433L280.265,11.978L286.119,11.563L292.294,12.19L298.754,13.856L305.465,16.551L312.389,20.261L319.488,24.965L326.722,30.637M249.532,24.852L256.917,21.629L264.889,19.606L273.392,18.797L282.371,19.206L291.764,20.832L301.509,23.663L311.539,27.681L321.788,32.858M222.984,42.025L227.415,38.9L232.098,36.123L237.021,33.698L242.174,31.631L247.547,29.927L253.128,28.59L264.864,27.024L277.281,26.947L290.273,28.36L303.728,31.251L317.529,35.595M195.952,67.024L200.898,61.945L206.257,57.265L212.013,52.995L218.149,49.15L224.647,45.738L231.489,42.772L238.656,40.258L246.126,38.204L253.877,36.616L261.889,35.5L270.137,34.857L278.598,34.689L287.247,34.998L296.06,35.783L305.01,37.04L314.074,38.767M170.834,101.947L175.627,94.284L181.09,87.042L187.202,80.25L193.936,73.933L201.268,68.118L209.167,62.828L217.603,58.083L226.541,53.902L235.947,50.303L245.782,47.299L256.008,44.902L266.584,43.122L277.467,41.967L288.616,41.439L299.984,41.543L311.528,42.276M152.09,147.356L155.579,136.724L160.113,126.444L165.668,116.571L172.213,107.162L179.711,98.268L188.121,89.938L197.396,82.219L207.485,75.154L218.331,68.782L229.874,63.137L242.051,58.253L254.794,54.155L268.032,50.866L281.691,48.405L295.696,46.785L309.969,46.016M145,200L145.757,186.714L148.023,173.529L151.23,162.153L155.561,150.999L160.99,140.13L167.485,129.61L175.009,119.5L183.518,109.859L192.962,100.744L203.286,92.207L214.43,84.298L226.329,77.063L238.914,70.545L252.112,64.782L265.845,59.806L280.034,55.647L294.595,52.33L309.444,49.873M152.09,252.644L150.426,245.736L149.195,238.726L148.401,231.629L148.045,224.461L148.127,217.238L148.648,209.977L149.607,202.693L151.001,195.403L154.159,183.67L158.424,172.032L163.77,160.557L170.167,149.312L177.576,138.362L185.956,127.772L195.256,117.602L205.424,107.913L216.398,98.76L228.117,90.198L240.511,82.275L253.508,75.038L267.032,68.529L281.005,62.787L295.345,57.844L309.969,53.73M344,399L344,399L344,399M235.761,366.989L236.207,367.277L241.011,370.233L246.012,373.052L251.199,375.728L256.562,378.256L262.093,380.631L267.779,382.849L273.61,384.905L279.575,386.796L285.663,388.518L291.861,390.067L298.16,391.442L304.545,392.638L311.005,393.654L317.529,394.488L324.102,395.138L330.714,395.604L337.351,395.883L344,395.977L350.649,395.883L357.286,395.604L363.898,395.138L370.471,394.488L376.995,393.654L383.455,392.638L389.84,391.442L396.139,390.067L402.337,388.518L408.425,386.796L414.39,384.905L420.221,382.849L425.907,380.631L431.438,378.256L436.801,375.728L441.988,373.052L446.989,370.233L451.793,367.277L452.239,366.989M193.254,329.91L194.75,331.61L198.651,335.742L202.828,339.761L207.274,343.658L211.981,347.428L216.938,351.062L222.138,354.553L227.569,357.895L233.223,361.082L239.087,364.107L245.15,366.965L251.402,369.65L257.83,372.157L264.423,374.482L271.166,376.62L278.049,378.566L285.057,380.318L292.177,381.872L299.395,383.224L306.699,384.373L314.074,385.316L321.505,386.051L328.98,386.577L336.483,386.893L344,386.999L351.517,386.893L359.02,386.577L366.495,386.051L373.926,385.316L381.301,384.373L388.605,383.224L395.823,381.872L402.943,380.318L409.951,378.566L416.834,376.62L423.577,374.482L430.17,372.157L436.598,369.65L442.85,366.965L448.913,364.107L454.777,361.082L460.431,357.895L465.862,354.553L471.062,351.062L476.019,347.428L480.726,343.658L485.172,339.761L489.349,335.742L493.25,331.61L494.746,329.91M168.279,293.25L171.236,298.137L174.522,302.937L178.13,307.641L182.054,312.239L186.287,316.722L190.82,321.083L195.644,325.312L200.751,329.402L206.13,333.345L211.772,337.133L217.665,340.76L223.799,344.217L230.162,347.5L236.742,350.601L243.526,353.515L250.501,356.235L257.654,358.758L264.971,361.077L272.439,363.189L280.043,365.09L287.768,366.776L295.601,368.243L303.526,369.49L311.528,370.513L319.592,371.311L327.702,371.882L335.843,372.225L344,372.339L352.157,372.225L360.298,371.882L368.408,371.311L376.472,370.513L384.474,369.49L392.399,368.243L400.232,366.776L407.957,365.09L415.561,363.189L423.029,361.077L430.346,358.758L437.499,356.235L444.474,353.515L451.258,350.601L457.838,347.5L464.201,344.217L470.335,340.76L476.228,337.133L481.87,333.345L487.249,329.402L492.356,325.312L497.18,321.083L501.713,316.722L505.946,312.239L509.87,307.641L513.478,302.937L516.764,298.137L519.721,293.25L522.061,288.856M165.939,288.856L168.279,293.25M159.842,269.556L162.941,274.679L166.385,279.709L170.167,284.639L174.279,289.457L178.715,294.156L183.465,298.726L188.521,303.158L193.873,307.444L199.511,311.576L205.424,315.547L211.6,319.347L218.029,322.971L224.697,326.411L231.592,329.661L238.702,332.715L246.012,335.566L253.508,338.209L261.177,340.64L269.003,342.854L276.972,344.846L285.069,346.613L293.277,348.15L301.583,349.457L309.969,350.529L318.42,351.365L326.92,351.963L335.452,352.323L344,352.443L352.548,352.323L361.08,351.963L369.58,351.365L378.031,350.529L386.417,349.457L394.723,348.15L402.931,346.613L411.028,344.846L418.997,342.854L426.823,340.64L434.492,338.209L441.988,335.566L449.298,332.715L456.408,329.661L463.303,326.411L469.971,322.971L476.4,319.347L482.576,315.547L488.489,311.576L494.127,307.444L499.479,303.158L504.535,298.726L509.285,294.156L513.721,289.457L517.833,284.639L521.615,279.709L525.059,274.679L528.158,269.556L530.906,264.352L533.299,259.075L535.331,253.737L536.999,248.346L537.817,245.12M150.183,245.12L151.001,248.346L152.669,253.737L154.701,259.075L157.094,264.352L159.842,269.556M159.842,216.613L162.941,221.736L166.385,226.766L170.167,231.696L174.279,236.514L178.715,241.213L183.465,245.783L188.521,250.215L193.873,254.501L199.511,258.634L205.424,262.604L211.6,266.404L218.029,270.028L224.697,273.468L231.592,276.718L238.702,279.772L246.012,282.623L253.508,285.267L261.177,287.697L269.003,289.911L276.972,291.903L285.069,293.67L293.277,295.208L301.583,296.514L309.969,297.586L318.42,298.422L326.92,299.021L335.452,299.38L344,299.5L352.548,299.38L361.08,299.021L369.58,298.422L378.031,297.586L386.417,296.514L394.723,295.208L402.931,293.67L411.028,291.903L418.997,289.911L426.823,287.697L434.492,285.267L441.988,282.623L449.298,279.772L456.408,276.718L463.303,273.468L469.971,270.028L476.4,266.404L482.576,262.604L488.489,258.634L494.127,254.501L499.479,250.215L504.535,245.783L509.285,241.213L513.721,236.514L517.833,231.696L521.615,226.766L525.059,221.736L528.158,216.613L530.906,211.409L533.299,206.132L535.331,200.794L536.999,195.403L538.3,189.971L539.231,184.508L539.79,179.023L539.977,173.529L539.79,168.034L539.231,162.549L538.3,157.086L537.817,154.88M150.183,154.88L149.7,157.086L148.769,162.549L148.21,168.034L148.023,173.529L148.21,179.023L148.769,184.508L149.7,189.971L151.001,195.403L152.669,200.794L154.701,206.132L157.094,211.409L159.842,216.613M168.279,188.972L171.236,193.86L174.522,198.66L178.13,203.364L182.054,207.962L186.287,212.445L190.82,216.806L195.644,221.035L200.751,225.125L206.13,229.068L211.772,232.856L217.665,236.483L223.799,239.94L230.162,243.223L236.742,246.324L243.526,249.238L250.501,251.958L257.654,254.481L264.971,256.8L272.439,258.912L280.043,260.813L287.768,262.499L295.601,263.966L303.526,265.213L311.528,266.236L319.592,267.034L327.702,267.605L335.843,267.948L344,268.062L352.157,267.948L360.298,267.605L368.408,267.034L376.472,266.236L384.474,265.213L392.399,263.966L400.232,262.499L407.957,260.813L415.561,258.912L423.029,256.8L430.346,254.481L437.499,251.958L444.474,249.238L451.258,246.324L457.838,243.223L464.201,239.94L470.335,236.483L476.228,232.856L481.87,229.068L487.249,225.125L492.356,221.035L497.18,216.806L501.713,212.445L505.946,207.962L509.87,203.364L513.478,198.66L516.764,193.86L519.721,188.972L522.344,184.006L524.627,178.972L526.566,173.878L528.158,168.734L529.399,163.551L530.287,158.338L530.821,153.105L530.999,147.861L530.821,142.618L530.287,137.385L529.399,132.172L528.158,126.989L526.566,121.845L524.627,116.751L522.344,111.716L522.061,111.144M165.939,111.144L165.656,111.716L163.373,116.751L161.434,121.845L159.842,126.989L158.601,132.172L157.713,137.385L157.179,142.618L157.001,147.861L157.179,153.105L157.713,158.338L158.601,163.551L159.842,168.734L161.434,173.878L163.373,178.972L165.656,184.006L168.279,188.972M182.054,161.667L184.779,166.171L187.808,170.595L191.133,174.93L194.75,179.167L198.651,183.299L202.828,187.318L207.274,191.216L211.981,194.985L216.938,198.619L222.138,202.11L227.569,205.452L233.223,208.639L239.087,211.664L245.15,214.522L251.402,217.207L257.83,219.715L264.423,222.039L271.166,224.177L278.049,226.124L285.057,227.875L292.177,229.429L299.395,230.781L306.699,231.93L314.074,232.873L321.505,233.608L328.98,234.134L336.483,234.451L344,234.556L351.517,234.451L359.02,234.134L366.495,233.608L373.926,232.873L381.301,231.93L388.605,230.781L395.823,229.429L402.943,227.875L409.951,226.124L416.834,224.177L423.577,222.039L430.17,219.715L436.598,217.207L442.85,214.522L448.913,211.664L454.777,208.639L460.431,205.452L465.862,202.11L471.062,198.619L476.019,194.985L480.726,191.216L485.172,187.318L489.349,183.299L493.25,179.167L496.867,174.93L500.192,170.595L503.221,166.171L505.946,161.667L508.363,157.09L510.467,152.45L512.254,147.755L513.721,143.015L514.865,138.238L515.683,133.433L516.175,128.611L516.339,123.779L516.175,118.947L515.683,114.124L514.865,109.319L513.721,104.542L512.254,99.802L510.467,95.107L508.363,90.467L505.946,85.89L503.221,81.386L500.192,76.962L496.867,72.627L494.746,70.09M193.254,70.09L191.133,72.627L187.808,76.962L184.779,81.386L182.054,85.89L179.637,90.467L177.533,95.107L175.746,99.802L174.279,104.542L173.135,109.319L172.317,114.124L171.825,118.947L171.661,123.779L171.825,128.611L172.317,133.433L173.135,138.238L174.279,143.015L175.746,147.755L177.533,152.45L179.637,157.09L182.054,161.667M200.751,135.526L203.161,139.51L205.84,143.423L208.782,147.258L211.981,151.006L215.431,154.661L219.126,158.215L223.059,161.663L227.222,164.997L231.607,168.212L236.207,171.3L241.011,174.256L246.012,177.075L251.199,179.751L256.562,182.279L262.093,184.654L267.779,186.872L273.61,188.928L279.575,190.819L285.663,192.541L291.861,194.091L298.16,195.465L304.545,196.661L311.005,197.677L317.529,198.511L324.102,199.162L330.714,199.627L337.351,199.907L344,200L350.649,199.907L357.286,199.627L363.898,199.162L370.471,198.511L376.995,197.677L383.455,196.661L389.84,195.465L396.139,194.091L402.337,192.541L408.425,190.819L414.39,188.928L420.221,186.872L425.907,184.654L431.438,182.279L436.801,179.751L441.988,177.075L446.989,174.256L451.793,171.3L456.393,168.212L460.778,164.997L464.941,161.663L468.874,158.215L472.569,154.661L476.019,151.006L479.218,147.258L482.16,143.423L484.839,139.51L487.249,135.526L489.387,131.477L491.248,127.373L492.829,123.22L494.127,119.027L495.139,114.802L495.863,110.552L496.298,106.286L496.443,102.012L496.298,97.737L495.863,93.471L495.139,89.222L494.127,84.996L492.829,80.803L491.248,76.65L489.387,72.546L487.249,68.498L484.839,64.513L482.16,60.6L479.218,56.766L476.019,53.017L472.569,49.363L468.874,45.808L464.941,42.36L460.778,39.026L456.393,35.812L452.239,33.011M235.761,33.011L231.607,35.812L227.222,39.026L223.059,42.36L219.126,45.808L215.431,49.363L211.981,53.017L208.782,56.766L205.84,60.6L203.161,64.513L200.751,68.498L198.613,72.546L196.752,76.65L195.171,80.803L193.873,84.996L192.861,89.222L192.137,93.471L191.702,97.737L191.557,102.012L191.702,106.286L192.137,110.552L192.861,114.802L193.873,119.027L195.171,123.22L196.752,127.373L198.613,131.477L200.751,135.526M223.799,111.344L225.822,114.687L228.07,117.971L230.538,121.188L233.223,124.333L236.118,127.4L239.218,130.383L242.518,133.276L246.012,136.073L249.691,138.77L253.551,141.362L257.582,143.842L261.778,146.208L266.13,148.453L270.631,150.574L275.271,152.567L280.043,154.428L284.936,156.154L289.941,157.74L295.049,159.185L300.251,160.485L305.535,161.639L310.893,162.642L316.314,163.495L321.788,164.195L327.304,164.741L332.851,165.131L338.42,165.366L344,165.444L349.58,165.366L355.149,165.131L360.696,164.741L366.212,164.195L371.686,163.495L377.107,162.642L382.465,161.639L387.749,160.485L392.951,159.185L398.059,157.74L403.064,156.154L407.957,154.428L412.729,152.567L417.369,150.574L421.87,148.453L426.222,146.208L430.418,143.842L434.449,141.362L438.309,138.77L441.988,136.073L445.482,133.276L448.782,130.383L451.882,127.4L454.777,124.333L457.462,121.188L459.93,117.971L462.178,114.687L464.201,111.344L465.994,107.947L467.556,104.503L468.883,101.018L469.971,97.5L470.82,93.954L471.428,90.388L471.793,86.808L471.915,83.222L471.793,79.636L471.428,76.056L470.82,72.49L469.971,68.944L468.883,65.426L467.556,61.941L465.994,58.497L464.201,55.1L462.178,51.757L459.93,48.473L457.462,45.256L454.777,42.111L451.882,39.044L448.782,36.061L445.482,33.168L441.988,30.371L438.309,27.674L434.449,25.082L430.418,22.602L426.222,20.236L421.87,17.991L417.369,15.87L412.729,13.877L407.957,12.016L403.064,10.29L398.059,8.704L392.951,7.259L387.749,5.959L382.465,4.805L377.107,3.802L371.686,2.949L366.212,2.249L360.696,1.703L355.149,1.313L349.58,1.078L344,1L338.42,1.078L332.851,1.313L327.304,1.703L321.788,2.249L316.314,2.949L310.893,3.802L305.535,4.805L300.251,5.959L295.049,7.259L289.941,8.704L284.936,10.29L280.043,12.016L275.271,13.877L270.631,15.87L266.13,17.991L261.778,20.236L257.582,22.602L253.551,25.082L249.691,27.674L246.012,30.371L242.518,33.168L239.218,36.061L236.118,39.044L233.223,42.111L230.538,45.256L228.07,48.473L225.822,51.757L223.799,55.1L222.006,58.497L220.444,61.941L219.117,65.426L218.029,68.944L217.18,72.49L216.572,76.056L216.207,79.636L216.085,83.222L216.207,86.808L216.572,90.388L217.18,93.954L218.029,97.5L219.117,101.018L220.444,104.503L222.006,107.947L223.799,111.344M250.501,89.855L252.074,92.456L253.822,95.01L255.742,97.513L257.83,99.959L260.083,102.345L262.494,104.665L265.061,106.915L267.779,109.092L270.641,111.19L273.643,113.205L276.779,115.135L280.043,116.975L283.428,118.721L286.929,120.371L290.539,121.922L294.25,123.369L298.056,124.712L301.949,125.946L305.923,127.07L309.969,128.081L314.08,128.978L318.248,129.759L322.464,130.422L326.722,130.966L331.013,131.391L335.328,131.695L339.66,131.877L344,131.938L348.34,131.877L352.672,131.695L356.987,131.391L361.278,130.966L365.536,130.422L369.752,129.759L373.92,128.978L378.031,128.081L382.077,127.07L386.051,125.946L389.944,124.712L393.75,123.369L397.461,121.922L401.071,120.371L404.572,118.721L407.957,116.975L411.221,115.135L414.357,113.205L417.359,111.19L420.221,109.092L422.939,106.915L425.506,104.665L427.917,102.345L430.17,99.959L432.258,97.513L434.178,95.01L435.926,92.456L437.499,89.855L438.895,87.213L440.11,84.534L441.141,81.824L441.988,79.087L442.649,76.329L443.121,73.555L443.405,70.77L443.5,67.981L443.405,65.191L443.121,62.406L442.649,59.633L441.988,56.875L441.141,54.138L440.11,51.427L438.895,48.748L437.499,46.106L435.926,43.505L434.178,40.951L432.258,38.448L430.17,36.002L427.917,33.616L425.506,31.296L422.939,29.046L420.221,26.87L417.359,24.772L414.357,22.756L411.221,20.826L407.957,18.986L404.572,17.24L401.071,15.59L397.461,14.04L393.75,12.592L389.944,11.25L386.051,10.016L382.077,8.892L378.031,7.88L373.92,6.983L369.752,6.203L365.536,5.539L361.278,4.995L356.987,4.57L352.672,4.267L348.34,4.084L344,4.023L339.66,4.084L335.328,4.267L331.013,4.57L326.722,4.995L322.464,5.539L318.248,6.203L314.08,6.983L309.969,7.88L305.923,8.892L301.949,10.016L298.056,11.25L294.25,12.592L290.539,14.04L286.929,15.59L283.428,17.24L280.043,18.986L276.779,20.826L273.643,22.756L270.641,24.772L267.779,26.87L265.061,29.046L262.494,31.296L260.083,33.616L257.83,36.002L255.742,38.448L253.822,40.951L252.074,43.505L250.501,46.106L249.105,48.748L247.89,51.427L246.859,54.138L246.012,56.875L245.351,59.633L244.879,62.406L244.595,65.191L244.5,67.981L244.595,70.77L244.879,73.555L245.351,76.329L246.012,79.087L246.859,81.824L247.89,84.534L249.105,87.213L250.501,89.855M280.043,71.714L281.119,73.493L282.315,75.24L283.628,76.952L285.057,78.625L286.597,80.257L288.247,81.844L290.003,83.384L291.861,84.872L293.819,86.307L295.873,87.686L298.018,89.006L300.251,90.265L302.566,91.459L304.961,92.588L307.43,93.648L309.969,94.639L312.572,95.557L315.236,96.401L317.954,97.17L320.721,97.862L323.533,98.475L326.384,99.009L329.269,99.463L332.181,99.835L335.116,100.126L338.068,100.334L341.031,100.458L344,100.5L346.969,100.458L349.932,100.334L352.884,100.126L355.819,99.835L358.731,99.463L361.616,99.009L364.467,98.475L367.279,97.862L370.046,97.17L372.764,96.401L375.428,95.557L378.031,94.639L380.57,93.648L383.039,92.588L385.434,91.459L387.749,90.265L389.982,89.006L392.127,87.686L394.181,86.307L396.139,84.872L397.997,83.384L399.753,81.844L401.403,80.257L402.943,78.625L404.372,76.952L405.685,75.24L406.881,73.493L407.957,71.714L408.912,69.906L409.743,68.074L410.449,66.22L411.028,64.348L411.48,62.461L411.803,60.564L411.997,58.659L412.062,56.751L411.997,54.842L411.803,52.938L411.48,51.04L411.028,49.154L410.449,47.281L409.743,45.427L408.912,43.595L407.957,41.787L406.881,40.008L405.685,38.261L404.372,36.549L402.943,34.876L401.403,33.244L399.753,31.657L397.997,30.118L396.139,28.629L394.181,27.194L392.127,25.815L389.982,24.495L387.749,23.237L385.434,22.042L383.039,20.913L380.57,19.853L378.031,18.862L375.428,17.944L372.764,17.1L370.046,16.331L367.279,15.64L364.467,15.026L361.616,14.492L358.731,14.038L355.819,13.666L352.884,13.375L349.932,13.168L346.969,13.043L344,13.001L341.031,13.043L338.068,13.168L335.116,13.375L332.181,13.666L329.269,14.038L326.384,14.492L323.533,15.026L320.721,15.64L317.954,16.331L315.236,17.1L312.572,17.944L309.969,18.862L307.43,19.853L304.961,20.913L302.566,22.042L300.251,23.237L298.018,24.495L295.873,25.815L293.819,27.194L291.861,28.629L290.003,30.118L288.247,31.657L286.597,33.244L285.057,34.876L283.628,36.549L282.315,38.261L281.119,40.008L280.043,41.787L279.088,43.595L278.257,45.427L277.551,47.281L276.972,49.154L276.52,51.04L276.197,52.938L276.003,54.842L275.938,56.751L276.003,58.659L276.197,60.564L276.52,62.461L276.972,64.348L277.551,66.22L278.257,68.074L279.088,69.906L280.043,71.714M311.528,57.47L312.074,58.373L312.682,59.26L313.348,60.13L314.074,60.979L314.856,61.808L315.693,62.613L316.585,63.395L317.529,64.151L318.523,64.879L319.565,65.579L320.654,66.25L321.788,66.889L322.964,67.495L324.179,68.068L325.433,68.607L326.722,69.109L328.044,69.576L329.396,70.004L330.776,70.394L332.181,70.746L333.609,71.057L335.056,71.328L336.521,71.559L337.999,71.748L339.49,71.895L340.988,72.001L342.493,72.064L344,72.085L345.507,72.064L347.012,72.001L348.51,71.895L350.001,71.748L351.479,71.559L352.944,71.328L354.391,71.057L355.819,70.746L357.224,70.394L358.604,70.004L359.956,69.576L361.278,69.109L362.567,68.607L363.821,68.068L365.036,67.495L366.212,66.889L367.346,66.25L368.435,65.579L369.477,64.879L370.471,64.151L371.415,63.395L372.307,62.613L373.144,61.808L373.926,60.979L374.652,60.13L375.318,59.26L375.926,58.373L376.472,57.47L376.957,56.552L377.379,55.622L377.737,54.681L378.031,53.73L378.26,52.772L378.424,51.809L378.523,50.842L378.556,49.873L378.523,48.904L378.424,47.937L378.26,46.974L378.031,46.016L377.737,45.066L377.379,44.124L376.957,43.194L376.472,42.276L375.926,41.373L375.318,40.486L374.652,39.617L373.926,38.767L373.144,37.939L372.307,37.133L371.415,36.351L370.471,35.595L369.477,34.867L368.435,34.167L367.346,33.497L366.212,32.858L365.036,32.251L363.821,31.678L362.567,31.14L361.278,30.637L359.956,30.171L358.604,29.742L357.224,29.352L355.819,29.001L354.391,28.689L352.944,28.418L351.479,28.187L350.001,27.998L348.51,27.851L347.012,27.745L345.507,27.682L344,27.661L342.493,27.682L340.988,27.745L339.49,27.851L337.999,27.998L336.521,28.187L335.056,28.418L333.609,28.689L332.181,29.001L330.776,29.352L329.396,29.742L328.044,30.171L326.722,30.637L325.433,31.14L324.179,31.678L322.964,32.251L321.788,32.858L320.654,33.497L319.565,34.167L318.523,34.867L317.529,35.595L316.585,36.351L315.693,37.133L314.856,37.939L314.074,38.767L313.348,39.617L312.682,40.486L312.074,41.373L311.528,42.276L311.043,43.194L310.621,44.124L310.263,45.066L309.969,46.016L309.74,46.974L309.576,47.937L309.477,48.904L309.444,49.873L309.477,50.842L309.576,51.809L309.74,52.772L309.969,53.73L310.263,54.681L310.621,55.622L311.043,56.552L311.528,57.47" stroke="black" stroke-opacity="0.2" fill="none"/></svg>