<svg xmlns="http://www.w3.org/2000/svg" width="810" height="370.0" viewBox="0 0 810 370.0"><g class="legend"><text x="8.0" y="12.0" fill="black">overshoot</text><g transform="translate(8.0, 15.0)"><rect x="0" y="0" width="3" height="16.0" fill="rgb(48, 48, 48)"/><rect x="2" y="0" width="3" height="16.0" fill="rgb(48, 49, 49)"/><rect x="4" y="0" width="3" height="16.0" fill="rgb(48, 49, 51)"/><rect x="6" y="0" width="3" height="16.0" fill="rgb(48, 50, 52)"/><rect x="8" y="0" width="3" height="16.0" fill="rgb(48, 51, 54)"/><rect x="10" y="0" width="3" height="16.0" fill="rgb(48, 51, 55)"/><rect x="12" y="0" width="3" height="16.0" fill="rgb(49, 52, 56)"/><rect x="14" y="0" width="3" height="16.0" fill="rgb(49, 53, 58)"/><rect x="16" y="0" width="3" height="16.0" fill="rgb(49, 53, 59)"/><rect x="18" y="0" width="3" height="16.0" fill="rgb(49, 54, 60)"/><rect x="20" y="0" width="3" height="16.0" fill="rgb(49, 55, 62)"/><rect x="22" y="0" width="3" height="16.0" fill="rgb(49, 55, 63)"/><rect x="24" y="0" width="3" height="16.0" fill="rgb(49, 56, 65)"/><rect x="26" y="0" width="3" height="16.0" fill="rgb(49, 57, 66)"/><rect x="28" y="0" width="3" height="16.0" fill="rgb(49, 57, 67)"/><rect x="30" y="0" width="3" height="16.0" fill="rgb(49, 58, 69)"/><rect x="32" y="0" width="3" height="16.0" fill="rgb(49, 59, 70)"/><rect x="34" y="0" width="3" height="16.0" fill="rgb(49, 59, 71)"/><rect x="36" y="0" width="3" height="16.0" fill="rgb(50, 60, 73)"/><rect x="38" y="0" width="3" height="16.0" fill="rgb(50, 61, 74)"/><rect x="40" y="0" width="3" height="16.0" fill="rgb(50, 61, 76)"/><rect x="42" y="0" width="3" height="16.0" fill="rgb(50, 62, 77)"/><rect x="44" y="0" width="3" height="16.0" fill="rgb(50, 63, 78)"/><rect x="46" y="0" width="3" height="16.0" fill="rgb(50, 63, 80)"/><rect x="48" y="0" width="3" height="16.0" fill="rgb(50, 64, 81)"/><rect x="50" y="0" width="3" height="16.0" fill="rgb(50, 65, 82)"/><rect x="52" y="0" width="3" height="16.0" fill="rgb(50, 65, 84)"/><rect x="54" y="0" width="3" height="16.0" fill="rgb(50, 66, 85)"/><rect x="56" y="0" width="3" height="16.0" fill="rgb(50, 67, 87)"/><rect x="58" y="0" width="3" height="16.0" fill="rgb(51, 67, 88)"/><rect x="60" y="0" width="3" height="16.0" fill="rgb(51, 68, 89)"/><rect x="62" y="0" width="3" height="16.0" fill="rgb(51, 69, 91)"/><rect x="64" y="0" width="3" height="16.0" fill="rgb(51, 69, 92)"/><rect x="66" y="0" width="3" height="16.0" fill="rgb(51, 70, 94)"/><rect x="68" y="0" width="3" height="16.0" fill="rgb(51, 71, 95)"/><rect x="70" y="0" width="3" height="16.0" fill="rgb(51, 71, 96)"/><rect x="72" y="0" width="3" height="16.0" fill="rgb(51, 72, 98)"/><rect x="74" y="0" width="3" height="16.0" fill="rgb(51, 73, 99)"/><rect x="76" y="0" width="3" height="16.0" fill="rgb(51, 73, 100)"/><rect x="78" y="0" width="3" height="16.0" fill="rgb(51, 74, 102)"/><rect x="80" y="0" width="3" height="16.0" fill="rgb(51, 75, 103)"/><rect x="82" y="0" width="3" height="16.0" fill="rgb(52, 75, 105)"/><rect x="84" y="0" width="3" height="16.0" fill="rgb(52, 76, 106)"/><rect x="86" y="0" width="3" height="16.0" fill="rgb(52, 77, 107)"/><rect x="88" y="0" width="3" height="16.0" fill="rgb(52, 77, 109)"/><rect x="90" y="0" width="3" height="16.0" fill="rgb(52, 78, 110)"/><rect x="92" y="0" width="3" height="16.0" fill="rgb(52, 79, 111)"/><rect x="94" y="0" width="3" height="16.0" fill="rgb(52, 79, 113)"/><rect x="96" y="0" width="3" height="16.0" fill="rgb(52, 80, 114)"/><rect x="98" y="0" width="3" height="16.0" fill="rgb(52, 81, 116)"/><rect x="100" y="0" width="3" height="16.0" fill="rgb(52, 81, 117)"/><rect x="102" y="0" width="3" height="16.0" fill="rgb(52, 82, 118)"/><rect x="104" y="0" width="3" height="16.0" fill="rgb(53, 83, 120)"/><rect x="106" y="0" width="3" height="16.0" fill="rgb(53, 83, 121)"/><rect x="108" y="0" width="3" height="16.0" fill="rgb(53, 84, 123)"/><rect x="110" y="0" width="3" height="16.0" fill="rgb(53, 85, 124)"/><rect x="112" y="0" width="3" height="16.0" fill="rgb(53, 85, 125)"/><rect x="114" y="0" width="3" height="16.0" fill="rgb(53, 86, 127)"/><rect x="116" y="0" width="3" height="16.0" fill="rgb(53, 87, 128)"/><rect x="118" y="0" width="3" height="16.0" fill="rgb(53, 87, 129)"/><rect x="120" y="0" width="3" height="16.0" fill="rgb(53, 88, 131)"/><rect x="122" y="0" width="3" height="16.0" fill="rgb(53, 89, 132)"/><rect x="124" y="0" width="3" height="16.0" fill="rgb(53, 89, 134)"/><rect x="126" y="0" width="3" height="16.0" fill="rgb(53, 90, 135)"/><rect x="128" y="0" width="3" height="16.0" fill="rgb(54, 91, 136)"/><rect x="130" y="0" width="3" height="16.0" fill="rgb(54, 91, 138)"/><rect x="132" y="0" width="3" height="16.0" fill="rgb(54, 92, 139)"/><rect x="134" y="0" width="3" height="16.0" fill="rgb(54, 93, 140)"/><rect x="136" y="0" width="3" height="16.0" fill="rgb(54, 93, 142)"/><rect x="138" y="0" width="3" height="16.0" fill="rgb(54, 94, 143)"/><rect x="140" y="0" width="3" height="16.0" fill="rgb(54, 95, 145)"/><rect x="142" y="0" width="3" height="16.0" fill="rgb(54, 95, 146)"/><rect x="144" y="0" width="3" height="16.0" fill="rgb(54, 96, 147)"/><rect x="146" y="0" width="3" height="16.0" fill="rgb(54, 97, 149)"/><rect x="148" y="0" width="3" height="16.0" fill="rgb(54, 97, 150)"/><rect x="150" y="0" width="3" height="16.0" fill="rgb(54, 98, 152)"/><rect x="152" y="0" width="3" height="16.0" fill="rgb(55, 99, 153)"/><rect x="154" y="0" width="3" height="16.0" fill="rgb(55, 99, 154)"/><rect x="156" y="0" width="3" height="16.0" fill="rgb(55, 100, 156)"/><rect x="158" y="0" width="3" height="16.0" fill="rgb(55, 101, 157)"/><rect x="160" y="0" width="3" height="16.0" fill="rgb(55, 101, 158)"/><rect x="162" y="0" width="3" height="16.0" fill="rgb(55, 102, 160)"/><rect x="164" y="0" width="3" height="16.0" fill="rgb(55, 103, 161)"/><rect x="166" y="0" width="3" height="16.0" fill="rgb(55, 103, 163)"/><rect x="168" y="0" width="3" height="16.0" fill="rgb(55, 104, 164)"/><rect x="170" y="0" width="3" height="16.0" fill="rgb(55, 105, 165)"/><rect x="172" y="0" width="3" height="16.0" fill="rgb(55, 105, 167)"/><rect x="174" y="0" width="3" height="16.0" fill="rgb(56, 106, 168)"/><rect x="176" y="0" width="3" height="16.0" fill="rgb(56, 107, 169)"/><rect x="178" y="0" width="3" height="16.0" fill="rgb(56, 107, 171)"/><rect x="180" y="0" width="3" height="16.0" fill="rgb(56, 108, 172)"/><rect x="182" y="0" width="3" height="16.0" fill="rgb(56, 109, 174)"/><rect x="184" y="0" width="3" height="16.0" fill="rgb(56, 109, 175)"/><rect x="186" y="0" width="3" height="16.0" fill="rgb(56, 110, 176)"/><rect x="188" y="0" width="3" height="16.0" fill="rgb(56, 111, 178)"/><rect x="190" y="0" width="3" height="16.0" fill="rgb(56, 111, 179)"/><rect x="192" y="0" width="3" height="16.0" fill="rgb(56, 112, 180)"/><rect x="194" y="0" width="3" height="16.0" fill="rgb(56, 113, 182)"/><rect x="196" y="0" width="3" height="16.0" fill="rgb(56, 113, 183)"/><rect x="198" y="0" width="3" height="16.0" fill="rgb(57, 114, 185)"/><rect x="200" y="0" width="3" height="16.0" fill="rgb(57, 115, 186)"/><rect x="202" y="0" width="3" height="16.0" fill="rgb(57, 115, 187)"/><rect x="204" y="0" width="3" height="16.0" fill="rgb(57, 116, 189)"/><rect x="206" y="0" width="3" height="16.0" fill="rgb(57, 117, 190)"/><rect x="208" y="0" width="3" height="16.0" fill="rgb(57, 117, 192)"/><rect x="210" y="0" width="3" height="16.0" fill="rgb(57, 118, 193)"/><rect x="212" y="0" width="3" height="16.0" fill="rgb(57, 119, 194)"/><rect x="214" y="0" width="3" height="16.0" fill="rgb(57, 119, 196)"/><rect x="216" y="0" width="3" height="16.0" fill="rgb(57, 120, 197)"/><rect x="218" y="0" width="3" height="16.0" fill="rgb(57, 121, 198)"/><rect x="220" y="0" width="3" height="16.0" fill="rgb(58, 121, 200)"/><rect x="222" y="0" width="3" height="16.0" fill="rgb(58, 122, 201)"/><rect x="224" y="0" width="3" height="16.0" fill="rgb(58, 123, 203)"/><rect x="226" y="0" width="3" height="16.0" fill="rgb(58, 123, 204)"/><rect x="228" y="0" width="3" height="16.0" fill="rgb(58, 124, 205)"/><rect x="230" y="0" width="3" height="16.0" fill="rgb(58, 125, 207)"/><rect x="232" y="0" width="3" height="16.0" fill="rgb(58, 125, 208)"/><rect x="234" y="0" width="3" height="16.0" fill="rgb(58, 126, 209)"/><rect x="236" y="0" width="3" height="16.0" fill="rgb(58, 127, 211)"/><rect x="238" y="0" width="3" height="16.0" fill="rgb(58, 127, 212)"/><rect x="240" y="0" width="3" height="16.0" fill="rgb(58, 128, 214)"/><rect x="242" y="0" width="3" height="16.0" fill="rgb(58, 129, 215)"/><rect x="244" y="0" width="3" height="16.0" fill="rgb(59, 129, 216)"/><rect x="246" y="0" width="3" height="16.0" fill="rgb(59, 130, 218)"/><rect x="248" y="0" width="3" height="16.0" fill="rgb(59, 131, 219)"/><rect x="250" y="0" width="3" height="16.0" fill="rgb(59, 131, 220)"/><rect x="252" y="0" width="3" height="16.0" fill="rgb(59, 132, 222)"/><rect x="254" y="0" width="3" height="16.0" fill="rgb(59, 133, 223)"/><rect x="256" y="0" width="3" height="16.0" fill="rgb(59, 133, 225)"/><rect x="258" y="0" width="3" height="16.0" fill="rgb(59, 134, 226)"/><rect x="260" y="0" width="3" height="16.0" fill="rgb(59, 135, 227)"/><rect x="262" y="0" width="3" height="16.0" fill="rgb(59, 135, 229)"/><rect x="264" y="0" width="3" height="16.0" fill="rgb(59, 136, 230)"/><rect x="266" y="0" width="3" height="16.0" fill="rgb(60, 137, 232)"/><rect x="268" y="0" width="3" height="16.0" fill="rgb(60, 137, 233)"/><rect x="270" y="0" width="3" height="16.0" fill="rgb(60, 138, 234)"/><rect x="272" y="0" width="3" height="16.0" fill="rgb(60, 139, 236)"/><rect x="274" y="0" width="3" height="16.0" fill="rgb(60, 139, 237)"/><rect x="276" y="0" width="3" height="16.0" fill="rgb(60, 140, 238)"/><rect x="278" y="0" width="3" height="16.0" fill="rgb(60, 141, 240)"/><rect x="280" y="0" width="3" height="16.0" fill="rgb(60, 141, 241)"/><rect x="282" y="0" width="3" height="16.0" fill="rgb(60, 142, 243)"/><rect x="284" y="0" width="3" height="16.0" fill="rgb(60, 143, 244)"/><rect x="286" y="0" width="3" height="16.0" fill="rgb(60, 143, 245)"/><rect x="288" y="0" width="3" height="16.0" fill="rgb(60, 144, 247)"/><rect x="290" y="0" width="3" height="16.0" fill="rgb(61, 145, 248)"/><rect x="292" y="0" width="3" height="16.0" fill="rgb(61, 145, 249)"/><rect x="294" y="0" width="3" height="16.0" fill="rgb(61, 146, 251)"/><rect x="296" y="0" width="3" height="16.0" fill="rgb(61, 147, 252)"/><rect x="298" y="0" width="3" height="16.0" fill="rgb(61, 147, 254)"/></g><g transform="translate(8.0, 15.0)" fill="none" font-size="10" font-family="sans-serif" text-anchor="middle"><g class="tick" opacity="1" transform="translate(0.5, 0)"><line stroke="black" y2="19.2"/><text fill="black" y="22.2" dy="0.71em">0.5</text></g><g class="tick" opacity="1" transform="translate(60.5, 0)"><line stroke="black" y2="19.2"/><text fill="black" y="22.2" dy="0.71em">1.0</text></g><g class="tick" opacity="1" transform="translate(120.5, 0)"><line stroke="black" y2="19.2"/><text fill="black" y="22.2" dy="0.71em">1.5</text></g><g class="tick" opacity="1" transform="translate(180.5, 0)"><line stroke="black" y2="19.2"/><text fill="black" y="22.2" dy="0.71em">2.0</text></g><g class="tick" opacity="1" transform="translate(240.5, 0)"><line stroke="black" y2="19.2"/><text fill="black" y="22.2" dy="0.71em">2.5</text></g><g class="tick" opacity="1" transform="translate(300.5, 0)"><line stroke="black" y2="19.2"/><text fill="black" y="22.2" dy="0.71em">3.0</text></g></g></g><g class="main" transform="translate(0, 60)"><rect x="5" y="0" width="800" height="240.0" fill="#d4d4d1"/><g class="xlines"><line x1="25.0" y1="240.0" x2="25.0" y2="0.0" stroke="#f8f8f8"/><line x1="45.0" y1="240.0" x2="45.0" y2="0.0" stroke="#f8f8f8"/><line x1="65.0" y1="240.0" x2="65.0" y2="0.0" stroke="#f8f8f8"/><line x1="85.0" y1="240.0" x2="85.0" y2="0.0" stroke="#f8f8f8"/><line x1="105.0" y1="240.0" x2="105.0" y2="0.0" stroke="#f8f8f8"/><line x1="125.0" y1="240.0" x2="125.0" y2="0.0" stroke="#f8f8f8"/><line x1="145.0" y1="240.0" x2="145.0" y2="0.0" stroke="#f8f8f8"/><line x1="165.0" y1="240.0" x2="165.0" y2="0.0" stroke="#f8f8f8"/><line x1="185.0" y1="240.0" x2="185.0" y2="0.0" stroke="#f8f8f8"/><line x1="205.0" y1="240.0" x2="205.0" y2="0.0" stroke="#f8f8f8"/><line x1="225.00000000000003" y1="240.0" x2="225.00000000000003" y2="0.0" stroke="#f8f8f8"/><line x1="245.0" y1="240.0" x2="245.0" y2="0.0" stroke="#f8f8f8"/><line x1="265.0" y1="240.0" x2="265.0" y2="0.0" stroke="#f8f8f8"/><line x1="285.0" y1="240.0" x2="285.0" y2="0.0" stroke="#f8f8f8"/><line x1="305.0" y1="240.0" x2="305.0" y2="0.0" stroke="#f8f8f8"/><line x1="325.0" y1="240.0" x2="325.0" y2="0.0" stroke="#f8f8f8"/><line x1="345.0" y1="240.0" x2="345.0" y2="0.0" stroke="#f8f8f8"/><line x1="365.0" y1="240.0" x2="365.0" y2="0.0" stroke="#f8f8f8"/><line x1="385.0" y1="240.0" x2="385.0" y2="0.0" stroke="#f8f8f8"/><line x1="405.0" y1="240.0" x2="405.0" y2="0.0" stroke="#f8f8f8"/><line x1="425.0" y1="240.0" x2="425.0" y2="0.0" stroke="#f8f8f8"/><line x1="445.00000000000006" y1="240.0" x2="445.00000000000006" y2="0.0" stroke="#f8f8f8"/><line x1="464.99999999999994" y1="240.0" x2="464.99999999999994" y2="0.0" stroke="#f8f8f8"/><line x1="485.0" y1="240.0" x2="485.0" y2="0.0" stroke="#f8f8f8"/><line x1="505.0" y1="240.0" x2="505.0" y2="0.0" stroke="#f8f8f8"/><line x1="525.0" y1="240.0" x2="525.0" y2="0.0" stroke="#f8f8f8"/><line x1="545.0" y1="240.0" x2="545.0" y2="0.0" stroke="#f8f8f8"/><line x1="565.0" y1="240.0" x2="565.0" y2="0.0" stroke="#f8f8f8"/><line x1="585.0" y1="240.0" x2="585.0" y2="0.0" stroke="#f8f8f8"/><line x1="605.0" y1="240.0" x2="605.0" y2="0.0" stroke="#f8f8f8"/><line x1="625.0" y1="240.0" x2="625.0" y2="0.0" stroke="#f8f8f8"/><line x1="645.0" y1="240.0" x2="645.0" y2="0.0" stroke="#f8f8f8"/><line x1="665.0" y1="240.0" x2="665.0" y2="0.0" stroke="#f8f8f8"/><line x1="685.0" y1="240.0" x2="685.0" y2="0.0" stroke="#f8f8f8"/><line x1="705.0" y1="240.0" x2="705.0" y2="0.0" stroke="#f8f8f8"/><line x1="725.0" y1="240.0" x2="725.0" y2="0.0" stroke="#f8f8f8"/><line x1="745.0" y1="240.0" x2="745.0" y2="0.0" stroke="#f8f8f8"/><line x1="765.0" y1="240.0" x2="765.0" y2="0.0" stroke="#f8f8f8"/><line x1="785.0" y1="240.0" x2="785.0" y2="0.0" stroke="#f8f8f8"/></g><g class="ylines"><line x1="5.0" y1="220.0" x2="805.0" y2="220.0" stroke="#f8f8f8"/><line x1="5.0" y1="200.0" x2="805.0" y2="200.0" stroke="#f8f8f8"/><line x1="5.0" y1="180.0" x2="805.0" y2="180.0" stroke="#f8f8f8"/><line x1="5.0" y1="160.00000000000003" x2="805.0" y2="160.00000000000003" stroke="#f8f8f8"/><line x1="5.0" y1="139.99999999999997" x2="805.0" y2="139.99999999999997" stroke="#f8f8f8"/><line x1="5.0" y1="120.0" x2="805.0" y2="120.0" stroke="#f8f8f8"/><line x1="5.0" y1="99.99999999999999" x2="805.0" y2="99.99999999999999" stroke="#f8f8f8"/><line x1="5.0" y1="80.00000000000001" x2="805.0" y2="80.00000000000001" stroke="#f8f8f8"/><line x1="5.0" y1="60.0" x2="805.0" y2="60.0" stroke="#f8f8f8"/><line x1="5.0" y1="39.99999999999999" x2="805.0" y2="39.99999999999999" stroke="#f8f8f8"/><line x1="5.0" y1="20.000000000000007" x2="805.0" y2="20.000000000000007" stroke="#f8f8f8"/></g><g class="ease"><path d="M5,240L8.200,240.002L11.400,240.007L14.600,240.017L17.800,240.029L21,240.045L24.200,240.064L27.400,240.086L30.600,240.111L33.800,240.139L37,240.169L40.200,240.202L43.400,240.237L46.600,240.274L49.800,240.313L53,240.354L56.200,240.397L59.400,240.442L62.600,240.488L65.800,240.535L69,240.584L72.200,240.633L75.400,240.684L78.600,240.735L81.800,240.787L85,240.840L88.200,240.893L91.400,240.946L94.600,241L97.800,241.053L101,241.106L104.200,241.159L107.400,241.211L110.600,241.263L113.800,241.314L117,241.364L120.200,241.413L123.400,241.461L126.600,241.508L129.800,241.554L133,241.597L136.200,241.640L139.400,241.680L142.600,241.718L145.800,241.754L149,241.788L152.200,241.820L155.400,241.849L158.600,241.876L161.800,241.899L165,241.920L168.200,241.938L171.400,241.952L174.600,241.963L177.800,241.971L181,241.975L184.200,241.975L187.400,241.971L190.600,241.963L193.800,241.952L197,241.935L200.200,241.915L203.400,241.889L206.600,241.859L209.800,241.825L213,241.785L216.200,241.740L219.400,241.689L222.600,241.634L225.800,241.572L229,241.505L232.200,241.432L235.400,241.354L238.600,241.269L241.800,241.178L245,241.080L248.200,240.976L251.400,240.865L254.600,240.748L257.800,240.623L261,240.492L264.200,240.353L267.400,240.207L270.600,240.053L273.800,239.892L277,239.723L280.200,239.546L283.400,239.361L286.600,239.167L289.800,238.966L293,238.756L296.200,238.537L299.400,238.310L302.600,238.074L305.800,237.828L309,237.574L312.200,237.310L315.400,237.037L318.600,236.755L321.800,236.462L325,236.160L328.200,235.848L331.400,235.525L334.600,235.193L337.800,234.850L341,234.496L344.200,234.132L347.400,233.757L350.600,233.371L353.800,232.974L357,232.566L360.200,232.146L363.400,231.715L366.600,231.272L369.800,230.818L373,230.351L376.200,229.872L379.400,229.382L382.600,228.879L385.800,228.363L389,227.835L392.200,227.294L395.400,226.740L398.600,226.173L401.800,225.593L405,225L408.200,224.393L411.400,223.773L414.600,223.139L417.800,222.491L421,221.829L424.200,221.153L427.400,220.463L430.600,219.758L433.800,219.039L437,218.305L440.200,217.556L443.400,216.793L446.600,216.014L449.800,215.220L453,214.410L456.200,213.585L459.400,212.745L462.600,211.888L465.800,211.016L469,210.128L472.200,209.223L475.400,208.302L478.600,207.365L481.800,206.411L485,205.440L488.200,204.452L491.400,203.448L494.600,202.426L497.800,201.387L501,200.330L504.200,199.256L507.400,198.164L510.600,197.054L513.800,195.926L517,194.780L520.200,193.616L523.400,192.433L526.600,191.232L529.800,190.012L533,188.773L536.200,187.516L539.400,186.239L542.600,184.943L545.800,183.627L549,182.292L552.200,180.938L555.400,179.563L558.600,178.169L561.800,176.755L565,175.320L568.200,173.865L571.400,172.390L574.600,170.893L577.800,169.377L581,167.839L584.200,166.280L587.400,164.700L590.600,163.099L593.800,161.476L597,159.831L600.200,158.165L603.400,156.477L606.600,154.767L609.800,153.035L613,151.281L616.200,149.504L619.400,147.704L622.600,145.882L625.800,144.037L629,142.169L632.200,140.278L635.400,138.364L638.600,136.426L641.800,134.465L645,132.480L648.200,130.471L651.400,128.439L654.600,126.382L657.800,124.301L661,122.196L664.200,120.066L667.400,117.911L670.600,115.732L673.800,113.528L677,111.299L680.200,109.044L683.400,106.764L686.600,104.459L689.800,102.128L693,99.772L696.200,97.389L699.400,94.981L702.600,92.546L705.800,90.085L709,87.598L712.200,85.084L715.400,82.544L718.600,79.976L721.800,77.382L725,74.760L728.200,72.111L731.400,69.435L734.600,66.731L737.800,64L741,61.240L744.200,58.453L747.400,55.638L750.600,52.794L753.800,49.922L757,47.022L760.200,44.093L763.400,41.135L766.600,38.148L769.800,35.132L773,32.087L776.200,29.013L779.400,25.909L782.600,22.775L785.800,19.612L789,16.419L792.200,13.196L795.400,9.942L798.600,6.659L801.800,3.345L805,0" stroke="rgb(48, 48, 48)" fill="none"/><path d="M5,240L8.200,240.004L11.400,240.015L14.600,240.034L17.800,240.059L21,240.092L24.200,240.132L27.400,240.178L30.600,240.230L33.800,240.289L37,240.353L40.200,240.424L43.400,240.500L46.600,240.581L49.800,240.668L53,240.760L56.200,240.857L59.400,240.959L62.600,241.065L65.800,241.176L69,241.290L72.200,241.409L75.400,241.531L78.600,241.658L81.800,241.787L85,241.920L88.200,242.056L91.400,242.195L94.600,242.336L97.800,242.480L101,242.627L104.200,242.775L107.400,242.926L110.600,243.078L113.800,243.232L117,243.387L120.200,243.543L123.400,243.701L126.600,243.859L129.800,244.018L133,244.178L136.200,244.338L139.400,244.498L142.600,244.658L145.800,244.817L149,244.977L152.200,245.135L155.400,245.293L158.600,245.450L161.800,245.606L165,245.760L168.200,245.913L171.400,246.064L174.600,246.213L177.800,246.360L181,246.505L184.200,246.647L187.400,246.787L190.600,246.924L193.800,247.058L197,247.188L200.200,247.316L203.400,247.440L206.600,247.560L209.800,247.676L213,247.788L216.200,247.895L219.400,247.998L222.600,248.097L225.800,248.190L229,248.279L232.200,248.362L235.400,248.440L238.600,248.513L241.800,248.579L245,248.640L248.200,248.694L251.400,248.743L254.600,248.784L257.800,248.819L261,248.847L264.200,248.868L267.400,248.882L270.600,248.888L273.800,248.887L277,248.878L280.200,248.861L283.400,248.836L286.600,248.802L289.800,248.760L293,248.709L296.200,248.649L299.400,248.580L302.600,248.502L305.800,248.415L309,248.317L312.200,248.210L315.400,248.093L318.600,247.966L321.800,247.828L325,247.680L328.200,247.521L331.400,247.351L334.600,247.170L337.800,246.978L341,246.774L344.200,246.558L347.400,246.331L350.600,246.091L353.800,245.840L357,245.576L360.200,245.299L363.400,245.010L366.600,244.707L369.800,244.392L373,244.063L376.200,243.720L379.400,243.364L382.600,242.994L385.800,242.610L389,242.212L392.200,241.799L395.400,241.372L398.600,240.930L401.800,240.472L405,240L408.200,239.512L411.400,239.009L414.600,238.490L417.800,237.955L421,237.404L424.200,236.837L427.400,236.253L430.600,235.653L433.800,235.036L437,234.401L440.200,233.750L443.400,233.081L446.600,232.395L449.800,231.690L453,230.968L456.200,230.228L459.400,229.470L462.600,228.693L465.800,227.897L469,227.082L472.200,226.249L475.400,225.396L478.600,224.524L481.800,223.632L485,222.720L488.200,221.788L491.400,220.837L494.600,219.865L497.800,218.872L501,217.859L504.200,216.824L507.400,215.769L510.600,214.692L513.800,213.595L517,212.475L520.200,211.333L523.400,210.170L526.600,208.984L529.800,207.776L533,206.546L536.200,205.293L539.400,204.016L542.600,202.717L545.800,201.395L549,200.049L552.200,198.679L555.400,197.285L558.600,195.868L561.800,194.426L565,192.960L568.200,191.469L571.400,189.954L574.600,188.413L577.800,186.848L581,185.257L584.200,183.641L587.400,181.999L590.600,180.331L593.800,178.637L597,176.916L600.200,175.170L603.400,173.397L606.600,171.597L609.800,169.770L613,167.916L616.200,166.034L619.400,164.125L622.600,162.188L625.800,160.224L629,158.231L632.200,156.210L635.400,154.161L638.600,152.083L641.800,149.976L645,147.840L648.200,145.675L651.400,143.481L654.600,141.257L657.800,139.003L661,136.719L664.200,134.406L667.400,132.062L670.600,129.687L673.800,127.282L677,124.846L680.200,122.379L683.400,119.881L686.600,117.351L689.800,114.790L693,112.197L696.200,109.572L699.400,106.915L702.600,104.226L705.800,101.504L709,98.749L712.200,95.962L715.400,93.142L718.600,90.288L721.800,87.401L725,84.480L728.200,81.525L731.400,78.537L734.600,75.514L737.800,72.457L741,69.366L744.200,66.240L747.400,63.078L750.600,59.882L753.800,56.651L757,53.384L760.200,50.081L763.400,46.743L766.600,43.368L769.800,39.958L773,36.511L776.200,33.027L779.400,29.507L782.600,25.950L785.800,22.355L789,18.724L792.200,15.055L795.400,11.348L798.600,7.603L801.800,3.821L805,0" stroke="rgb(51, 68, 89)" fill="none"/><path d="M5,240L8.200,240.006L11.400,240.023L14.600,240.051L17.800,240.090L21,240.139L24.200,240.199L27.400,240.269L30.600,240.349L33.800,240.439L37,240.538L40.200,240.646L43.400,240.763L46.600,240.889L49.800,241.024L53,241.166L56.200,241.317L59.400,241.476L62.600,241.642L65.800,241.816L69,241.997L72.200,242.185L75.400,242.379L78.600,242.580L81.800,242.787L85,243L88.200,243.219L91.400,243.443L94.600,243.673L97.800,243.908L101,244.147L104.200,244.391L107.400,244.640L110.600,244.893L113.800,245.149L117,245.410L120.200,245.673L123.400,245.940L126.600,246.210L129.800,246.483L133,246.758L136.200,247.036L139.400,247.316L142.600,247.597L145.800,247.880L149,248.165L152.200,248.450L155.400,248.737L158.600,249.024L161.800,249.312L165,249.600L168.200,249.888L171.400,250.176L174.600,250.463L177.800,250.750L181,251.035L184.200,251.320L187.400,251.603L190.600,251.884L193.800,252.164L197,252.442L200.200,252.717L203.400,252.990L206.600,253.260L209.800,253.527L213,253.790L216.200,254.051L219.400,254.307L222.600,254.560L225.800,254.809L229,255.053L232.200,255.292L235.400,255.527L238.600,255.757L241.800,255.981L245,256.200L248.200,256.413L251.400,256.620L254.600,256.821L257.800,257.015L261,257.203L264.200,257.384L267.400,257.558L270.600,257.724L273.800,257.883L277,258.034L280.200,258.176L283.400,258.311L286.600,258.437L289.800,258.554L293,258.662L296.200,258.761L299.400,258.851L302.600,258.931L305.800,259.001L309,259.061L312.200,259.110L315.400,259.149L318.600,259.177L321.800,259.194L325,259.200L328.200,259.194L331.400,259.177L334.600,259.147L337.800,259.105L341,259.051L344.200,258.984L347.400,258.905L350.600,258.812L353.800,258.705L357,258.586L360.200,258.452L363.400,258.304L366.600,258.142L369.800,257.966L373,257.774L376.200,257.568L379.400,257.347L382.600,257.110L385.800,256.857L389,256.589L392.200,256.304L395.400,256.003L398.600,255.686L401.800,255.351L405,255L408.200,254.631L411.400,254.245L414.600,253.841L417.800,253.419L421,252.979L424.200,252.521L427.400,252.043L430.600,251.547L433.800,251.032L437,250.498L440.200,249.943L443.400,249.369L446.600,248.775L449.800,248.161L453,247.526L456.200,246.871L459.400,246.194L462.600,245.497L465.800,244.778L469,244.037L472.200,243.274L475.400,242.489L478.600,241.682L481.800,240.853L485,240L488.200,239.124L491.400,238.226L494.600,237.303L497.800,236.357L501,235.387L504.200,234.393L507.400,233.374L510.600,232.331L513.800,231.263L517,230.170L520.200,229.051L523.400,227.907L526.600,226.737L529.800,225.541L533,224.318L536.200,223.070L539.400,221.794L542.600,220.492L545.800,219.162L549,217.805L552.200,216.420L555.400,215.007L558.600,213.567L561.800,212.098L565,210.600L568.200,209.074L571.400,207.518L574.600,205.933L577.800,204.319L581,202.675L584.200,201.001L587.400,199.297L590.600,197.563L593.800,195.798L597,194.002L600.200,192.174L603.400,190.316L606.600,188.426L609.800,186.504L613,184.550L616.200,182.564L619.400,180.546L622.600,178.494L625.800,176.410L629,174.293L632.200,172.142L635.400,169.958L638.600,167.739L641.800,165.487L645,163.200L648.200,160.879L651.400,158.523L654.600,156.131L657.800,153.705L661,151.243L664.200,148.746L667.400,146.212L670.600,143.642L673.800,141.036L677,138.394L680.200,135.714L683.400,132.997L686.600,130.243L689.800,127.452L693,124.622L696.200,121.755L699.400,118.849L702.600,115.905L705.800,112.923L709,109.901L712.200,106.840L715.400,103.740L718.600,100.600L721.800,97.420L725,94.200L728.200,90.940L731.400,87.639L734.600,84.298L737.800,80.915L741,77.491L744.200,74.026L747.400,70.519L750.600,66.970L753.800,63.379L757,59.746L760.200,56.070L763.400,52.351L766.600,48.589L769.800,44.783L773,40.934L776.200,37.042L779.400,33.105L782.600,29.124L785.800,25.099L789,21.029L792.200,16.914L795.400,12.754L798.600,8.548L801.800,4.297L805,0" stroke="rgb(53, 88, 131)" fill="none"/><path d="M5,240L8.200,240.008L11.400,240.030L14.600,240.068L17.800,240.120L21,240.186L24.200,240.267L27.400,240.361L30.600,240.468L33.800,240.588L37,240.722L40.200,240.868L43.400,241.026L46.600,241.197L49.800,241.379L53,241.572L56.200,241.777L59.400,241.993L62.600,242.220L65.800,242.456L69,242.703L72.200,242.960L75.400,243.226L78.600,243.502L81.800,243.787L85,244.080L88.200,244.382L91.400,244.692L94.600,245.010L97.800,245.335L101,245.668L104.200,246.008L107.400,246.354L110.600,246.708L113.800,247.067L117,247.432L120.200,247.803L123.400,248.180L126.600,248.561L129.800,248.948L133,249.339L136.200,249.734L139.400,250.134L142.600,250.537L145.800,250.943L149,251.353L152.200,251.766L155.400,252.181L158.600,252.599L161.800,253.018L165,253.440L168.200,253.863L171.400,254.288L174.600,254.713L177.800,255.139L181,255.565L184.200,255.992L187.400,256.419L190.600,256.845L193.800,257.270L197,257.695L200.200,258.118L203.400,258.540L206.600,258.960L209.800,259.378L213,259.793L216.200,260.206L219.400,260.616L222.600,261.023L225.800,261.427L229,261.827L232.200,262.222L235.400,262.614L238.600,263.001L241.800,263.383L245,263.760L248.200,264.132L251.400,264.498L254.600,264.858L257.800,265.212L261,265.559L264.200,265.900L267.400,266.233L270.600,266.560L273.800,266.878L277,267.189L280.200,267.492L283.400,267.786L286.600,268.072L289.800,268.348L293,268.616L296.200,268.874L299.400,269.122L302.600,269.360L305.800,269.587L309,269.804L312.200,270.010L315.400,270.205L318.600,270.389L321.800,270.560L325,270.720L328.200,270.867L331.400,271.002L334.600,271.124L337.800,271.233L341,271.329L344.200,271.410L347.400,271.478L350.600,271.532L353.800,271.571L357,271.596L360.200,271.605L363.400,271.599L366.600,271.577L369.800,271.540L373,271.486L376.200,271.416L379.400,271.329L382.600,271.225L385.800,271.104L389,270.966L392.200,270.809L395.400,270.635L398.600,270.442L401.800,270.230L405,270L408.200,269.750L411.400,269.481L414.600,269.192L417.800,268.883L421,268.554L424.200,268.204L427.400,267.834L430.600,267.442L433.800,267.029L437,266.594L440.200,266.137L443.400,265.658L446.600,265.156L449.800,264.632L453,264.084L456.200,263.514L459.400,262.919L462.600,262.301L465.800,261.658L469,260.991L472.200,260.300L475.400,259.583L478.600,258.841L481.800,258.073L485,257.280L488.200,256.460L491.400,255.615L494.600,254.742L497.800,253.843L501,252.916L504.200,251.962L507.400,250.980L510.600,249.970L513.800,248.931L517,247.864L520.200,246.768L523.400,245.644L526.600,244.489L529.800,243.305L533,242.091L536.200,240.847L539.400,239.572L542.600,238.266L545.800,236.929L549,235.561L552.200,234.161L555.400,232.729L558.600,231.266L561.800,229.769L565,228.240L568.200,226.678L571.400,225.082L574.600,223.453L577.800,221.790L581,220.093L584.200,218.362L587.400,216.596L590.600,214.795L593.800,212.959L597,211.087L600.200,209.179L603.400,207.235L606.600,205.255L609.800,203.239L613,201.185L616.200,199.095L619.400,196.966L622.600,194.801L625.800,192.597L629,190.355L632.200,188.074L635.400,185.754L638.600,183.396L641.800,180.998L645,178.560L648.200,176.082L651.400,173.565L654.600,171.006L657.800,168.407L661,165.767L664.200,163.086L667.400,160.363L670.600,157.598L673.800,154.791L677,151.941L680.200,149.049L683.400,146.114L686.600,143.135L689.800,140.113L693,137.048L696.200,133.938L699.400,130.784L702.600,127.585L705.800,124.341L709,121.052L712.200,117.718L715.400,114.338L718.600,110.911L721.800,107.439L725,103.920L728.200,100.354L731.400,96.741L734.600,93.081L737.800,89.373L741,85.617L744.200,81.812L747.400,77.960L750.600,74.058L753.800,70.107L757,66.108L760.200,62.058L763.400,57.959L766.600,53.809L769.800,49.609L773,45.358L776.200,41.056L779.400,36.703L782.600,32.299L785.800,27.842L789,23.334L792.200,18.773L795.400,14.159L798.600,9.493L801.800,4.773L805,0" stroke="rgb(56, 108, 172)" fill="none"/><path d="M5,240L8.200,240.010L11.400,240.038L14.600,240.085L17.800,240.150L21,240.233L24.200,240.334L27.400,240.452L30.600,240.587L33.800,240.738L37,240.906L40.200,241.090L43.400,241.290L46.600,241.504L49.800,241.734L53,241.979L56.200,242.237L59.400,242.510L62.600,242.797L65.800,243.097L69,243.410L72.200,243.736L75.400,244.074L78.600,244.424L81.800,244.786L85,245.160L88.200,245.545L91.400,245.940L94.600,246.346L97.800,246.762L101,247.188L104.200,247.624L107.400,248.069L110.600,248.522L113.800,248.985L117,249.455L120.200,249.933L123.400,250.419L126.600,250.912L129.800,251.413L133,251.919L136.200,252.432L139.400,252.951L142.600,253.476L145.800,254.006L149,254.541L152.200,255.081L155.400,255.625L158.600,256.173L161.800,256.725L165,257.280L168.200,257.838L171.400,258.399L174.600,258.963L177.800,259.528L181,260.096L184.200,260.664L187.400,261.234L190.600,261.805L193.800,262.376L197,262.948L200.200,263.519L203.400,264.090L206.600,264.660L209.800,265.229L213,265.796L216.200,266.362L219.400,266.925L222.600,267.487L225.800,268.045L229,268.600L232.200,269.152L235.400,269.701L238.600,270.245L241.800,270.785L245,271.320L248.200,271.850L251.400,272.375L254.600,272.894L257.800,273.408L261,273.915L264.200,274.415L267.400,274.909L270.600,275.395L273.800,275.874L277,276.345L280.200,276.807L283.400,277.261L286.600,277.706L289.800,278.142L293,278.569L296.200,278.986L299.400,279.392L302.600,279.788L305.800,280.173L309,280.548L312.200,280.910L315.400,281.261L318.600,281.600L321.800,281.926L325,282.240L328.200,282.541L331.400,282.828L334.600,283.101L337.800,283.361L341,283.606L344.200,283.837L347.400,284.052L350.600,284.252L353.800,284.437L357,284.605L360.200,284.758L363.400,284.893L366.600,285.012L369.800,285.114L373,285.198L376.200,285.264L379.400,285.312L382.600,285.341L385.800,285.351L389,285.343L392.200,285.314L395.400,285.266L398.600,285.198L401.800,285.109L405,285L408.200,284.869L411.400,284.717L414.600,284.544L417.800,284.348L421,284.129L424.200,283.888L427.400,283.624L430.600,283.337L433.800,283.025L437,282.690L440.200,282.331L443.400,281.946L446.600,281.537L449.800,281.103L453,280.643L456.200,280.156L459.400,279.644L462.600,279.105L465.800,278.539L469,277.946L472.200,277.325L475.400,276.677L478.600,276L481.800,275.294L485,274.560L488.200,273.797L491.400,273.004L494.600,272.181L497.800,271.328L501,270.444L504.200,269.530L507.400,268.585L510.600,267.608L513.800,266.600L517,265.559L520.200,264.486L523.400,263.380L526.600,262.241L529.800,261.069L533,259.863L536.200,258.623L539.400,257.349L542.600,256.040L545.800,254.696L549,253.317L552.200,251.902L555.400,250.451L558.600,248.964L561.800,247.441L565,245.880L568.200,244.282L571.400,242.647L574.600,240.973L577.800,239.262L581,237.512L584.200,235.723L587.400,233.895L590.600,232.027L593.800,230.119L597,228.172L600.200,226.184L603.400,224.155L606.600,222.085L609.800,219.973L613,217.820L616.200,215.625L619.400,213.387L622.600,211.107L625.800,208.783L629,206.416L632.200,204.006L635.400,201.551L638.600,199.052L641.800,196.509L645,193.920L648.200,191.286L651.400,188.607L654.600,185.881L657.800,183.109L661,180.291L664.200,177.426L667.400,174.513L670.600,171.553L673.800,168.545L677,165.489L680.200,162.384L683.400,159.230L686.600,156.027L689.800,152.775L693,149.473L696.200,146.121L699.400,142.718L702.600,139.264L705.800,135.760L709,132.204L712.200,128.596L715.400,124.936L718.600,121.223L721.800,117.458L725,113.640L728.200,109.768L731.400,105.843L734.600,101.864L737.800,97.830L741,93.742L744.200,89.599L747.400,85.400L750.600,81.146L753.800,76.836L757,72.469L760.200,68.046L763.400,63.566L766.600,59.029L769.800,54.434L773,49.782L776.200,45.071L779.400,40.301L782.600,35.473L785.800,30.586L789,25.639L792.200,20.632L795.400,15.565L798.600,10.438L801.800,5.249L805,0" stroke="rgb(58, 128, 214)" fill="none"/><path d="M5,240L8.200,240.011L11.400,240.046L14.600,240.102L17.800,240.180L21,240.280L24.200,240.401L27.400,240.543L30.600,240.706L33.800,240.888L37,241.091L40.200,241.312L43.400,241.553L46.600,241.812L49.800,242.089L53,242.385L56.200,242.697L59.400,243.027L62.600,243.374L65.800,243.737L69,244.116L72.200,244.511L75.400,244.921L78.600,245.347L81.800,245.786L85,246.240L88.200,246.708L91.400,247.189L94.600,247.683L97.800,248.190L101,248.709L104.200,249.240L107.400,249.783L110.600,250.337L113.800,250.902L117,251.478L120.200,252.063L123.400,252.659L126.600,253.264L129.800,253.877L133,254.500L136.200,255.131L139.400,255.769L142.600,256.416L145.800,257.069L149,257.729L152.200,258.396L155.400,259.069L158.600,259.747L161.800,260.431L165,261.120L168.200,261.813L171.400,262.511L174.600,263.213L177.800,263.918L181,264.626L184.200,265.337L187.400,266.050L190.600,266.766L193.800,267.483L197,268.201L200.200,268.920L203.400,269.640L206.600,270.360L209.800,271.080L213,271.799L216.200,272.517L219.400,273.234L222.600,273.950L225.800,274.663L229,275.374L232.200,276.082L235.400,276.787L238.600,277.489L241.800,278.187L245,278.880L248.200,279.569L251.400,280.253L254.600,280.931L257.800,281.604L261,282.271L264.200,282.931L267.400,283.584L270.600,284.231L273.800,284.869L277,285.500L280.200,286.123L283.400,286.736L286.600,287.341L289.800,287.937L293,288.522L296.200,289.098L299.400,289.663L302.600,290.217L305.800,290.760L309,291.291L312.200,291.810L315.400,292.317L318.600,292.811L321.800,293.292L325,293.760L328.200,294.214L331.400,294.653L334.600,295.079L337.800,295.489L341,295.884L344.200,296.263L347.400,296.626L350.600,296.973L353.800,297.303L357,297.615L360.200,297.911L363.400,298.188L366.600,298.447L369.800,298.688L373,298.909L376.200,299.112L379.400,299.294L382.600,299.457L385.800,299.599L389,299.720L392.200,299.820L395.400,299.898L398.600,299.954L401.800,299.989L405,300L408.200,299.988L411.400,299.953L414.600,299.895L417.800,299.812L421,299.704L424.200,299.572L427.400,299.414L430.600,299.231L433.800,299.022L437,298.787L440.200,298.524L443.400,298.235L446.600,297.918L449.800,297.573L453,297.201L456.200,296.799L459.400,296.369L462.600,295.909L465.800,295.420L469,294.900L472.200,294.351L475.400,293.770L478.600,293.158L481.800,292.515L485,291.840L488.200,291.133L491.400,290.393L494.600,289.620L497.800,288.813L501,287.973L504.200,287.099L507.400,286.190L510.600,285.247L513.800,284.268L517,283.254L520.200,282.204L523.400,281.117L526.600,279.994L529.800,278.834L533,277.636L536.200,276.400L539.400,275.127L542.600,273.815L545.800,272.464L549,271.073L552.200,269.643L555.400,268.173L558.600,266.663L561.800,265.112L565,263.520L568.200,261.886L571.400,260.211L574.600,258.493L577.800,256.733L581,254.930L584.200,253.083L587.400,251.193L590.600,249.259L593.800,247.280L597,245.257L600.200,243.188L603.400,241.074L606.600,238.914L609.800,236.708L613,234.455L616.200,232.155L619.400,229.808L622.600,227.413L625.800,224.970L629,222.478L632.200,219.938L635.400,217.348L638.600,214.709L641.800,212.020L645,209.280L648.200,206.490L651.400,203.649L654.600,200.756L657.800,197.811L661,194.815L664.200,191.766L667.400,188.663L670.600,185.508L673.800,182.299L677,179.036L680.200,175.719L683.400,172.347L686.600,168.919L689.800,165.437L693,161.898L696.200,158.303L699.400,154.652L702.600,150.944L705.800,147.178L709,143.355L712.200,139.474L715.400,135.534L718.600,131.535L721.800,127.477L725,123.360L728.200,119.183L731.400,114.945L734.600,110.647L737.800,106.288L741,101.868L744.200,97.385L747.400,92.841L750.600,88.234L753.800,83.564L757,78.831L760.200,74.035L763.400,69.174L766.600,64.250L769.800,59.260L773,54.205L776.200,49.085L779.400,43.900L782.600,38.648L785.800,33.329L789,27.944L792.200,22.491L795.400,16.971L798.600,11.382L801.800,5.726L805,0" stroke="rgb(61, 148, 255)" fill="none"/></g></g></svg>