<svg xmlns="http://www.w3.org/2000/svg" width="810" height="240.0" viewBox="0 0 810 240.0"><rect x="5" y="0" width="800" height="240.0" fill="#d4d4d1"/><g class="xlines"><line x1="25.0" y1="240.0" x2="25.0" y2="0.0" stroke="#f8f8f8"/><line x1="45.0" y1="240.0" x2="45.0" y2="0.0" stroke="#f8f8f8"/><line x1="65.0" y1="240.0" x2="65.0" y2="0.0" stroke="#f8f8f8"/><line x1="85.0" y1="240.0" x2="85.0" y2="0.0" stroke="#f8f8f8"/><line x1="105.0" y1="240.0" x2="105.0" y2="0.0" stroke="#f8f8f8"/><line x1="125.0" y1="240.0" x2="125.0" y2="0.0" stroke="#f8f8f8"/><line x1="145.0" y1="240.0" x2="145.0" y2="0.0" stroke="#f8f8f8"/><line x1="165.0" y1="240.0" x2="165.0" y2="0.0" stroke="#f8f8f8"/><line x1="185.0" y1="240.0" x2="185.0" y2="0.0" stroke="#f8f8f8"/><line x1="205.0" y1="240.0" x2="205.0" y2="0.0" stroke="#f8f8f8"/><line x1="225.00000000000003" y1="240.0" x2="225.00000000000003" y2="0.0" stroke="#f8f8f8"/><line x1="245.0" y1="240.0" x2="245.0" y2="0.0" stroke="#f8f8f8"/><line x1="265.0" y1="240.0" x2="265.0" y2="0.0" stroke="#f8f8f8"/><line x1="285.0" y1="240.0" x2="285.0" y2="0.0" stroke="#f8f8f8"/><line x1="305.0" y1="240.0" x2="305.0" y2="0.0" stroke="#f8f8f8"/><line x1="325.0" y1="240.0" x2="325.0" y2="0.0" stroke="#f8f8f8"/><line x1="345.0" y1="240.0" x2="345.0" y2="0.0" stroke="#f8f8f8"/><line x1="365.0" y1="240.0" x2="365.0" y2="0.0" stroke="#f8f8f8"/><line x1="385.0" y1="240.0" x2="385.0" y2="0.0" stroke="#f8f8f8"/><line x1="405.0" y1="240.0" x2="405.0" y2="0.0" stroke="#f8f8f8"/><line x1="425.0" y1="240.0" x2="425.0" y2="0.0" stroke="#f8f8f8"/><line x1="445.00000000000006" y1="240.0" x2="445.00000000000006" y2="0.0" stroke="#f8f8f8"/><line x1="464.99999999999994" y1="240.0" x2="464.99999999999994" y2="0.0" stroke="#f8f8f8"/><line x1="485.0" y1="240.0" x2="485.0" y2="0.0" stroke="#f8f8f8"/><line x1="505.0" y1="240.0" x2="505.0" y2="0.0" stroke="#f8f8f8"/><line x1="525.0" y1="240.0" x2="525.0" y2="0.0" stroke="#f8f8f8"/><line x1="545.0" y1="240.0" x2="545.0" y2="0.0" stroke="#f8f8f8"/><line x1="565.0" y1="240.0" x2="565.0" y2="0.0" stroke="#f8f8f8"/><line x1="585.0" y1="240.0" x2="585.0" y2="0.0" stroke="#f8f8f8"/><line x1="605.0" y1="240.0" x2="605.0" y2="0.0" stroke="#f8f8f8"/><line x1="625.0" y1="240.0" x2="625.0" y2="0.0" stroke="#f8f8f8"/><line x1="645.0" y1="240.0" x2="645.0" y2="0.0" stroke="#f8f8f8"/><line x1="665.0" y1="240.0" x2="665.0" y2="0.0" stroke="#f8f8f8"/><line x1="685.0" y1="240.0" x2="685.0" y2="0.0" stroke="#f8f8f8"/><line x1="705.0" y1="240.0" x2="705.0" y2="0.0" stroke="#f8f8f8"/><line x1="725.0" y1="240.0" x2="725.0" y2="0.0" stroke="#f8f8f8"/><line x1="745.0" y1="240.0" x2="745.0" y2="0.0" stroke="#f8f8f8"/><line x1="765.0" y1="240.0" x2="765.0" y2="0.0" stroke="#f8f8f8"/><line x1="785.0" y1="240.0" x2="785.0" y2="0.0" stroke="#f8f8f8"/></g><g class="ylines"><line x1="5.0" y1="220.0" x2="805.0" y2="220.0" stroke="#f8f8f8"/><line x1="5.0" y1="200.0" x2="805.0" y2="200.0" stroke="#f8f8f8"/><line x1="5.0" y1="180.0" x2="805.0" y2="180.0" stroke="#f8f8f8"/><line x1="5.0" y1="160.00000000000003" x2="805.0" y2="160.00000000000003" stroke="#f8f8f8"/><line x1="5.0" y1="139.99999999999997" x2="805.0" y2="139.99999999999997" stroke="#f8f8f8"/><line x1="5.0" y1="120.0" x2="805.0" y2="120.0" stroke="#f8f8f8"/><line x1="5.0" y1="99.99999999999999" x2="805.0" y2="99.99999999999999" stroke="#f8f8f8"/><line x1="5.0" y1="80.00000000000001" x2="805.0" y2="80.00000000000001" stroke="#f8f8f8"/><line x1="5.0" y1="60.0" x2="805.0" y2="60.0" stroke="#f8f8f8"/><line x1="5.0" y1="39.99999999999999" x2="805.0" y2="39.99999999999999" stroke="#f8f8f8"/><line x1="5.0" y1="20.000000000000007" x2="805.0" y2="20.000000000000007" stroke="#f8f8f8"/></g><g class="ease"><path d="M5,240L8.200,238.084L11.400,236.175L14.600,234.275L17.800,232.381L21,230.496L24.200,228.618L27.400,226.748L30.600,224.886L33.800,223.031L37,221.184L40.200,219.345L43.400,217.513L46.600,215.689L49.800,213.873L53,212.064L56.200,210.263L59.400,208.470L62.600,206.684L65.800,204.906L69,203.136L72.200,201.373L75.400,199.619L78.600,197.871L81.800,196.132L85,194.400L88.200,192.676L91.400,190.959L94.600,189.251L97.800,187.549L101,185.856L104.200,184.170L107.400,182.492L110.600,180.822L113.800,179.159L117,177.504L120.200,175.857L123.400,174.217L126.600,172.585L129.800,170.961L133,169.344L136.200,167.735L139.400,166.134L142.600,164.540L145.800,162.954L149,161.376L152.200,159.805L155.400,158.243L158.600,156.687L161.800,155.140L165,153.600L168.200,152.068L171.400,150.543L174.600,149.027L177.800,147.517L181,146.016L184.200,144.522L187.400,143.036L190.600,141.558L193.800,140.087L197,138.624L200.200,137.169L203.400,135.721L206.600,134.281L209.800,132.849L213,131.424L216.200,130.007L219.400,128.598L222.600,127.196L225.800,125.802L229,124.416L232.200,123.037L235.400,121.667L238.600,120.303L241.800,118.948L245,117.600L248.200,116.260L251.400,114.927L254.600,113.603L257.800,112.285L261,110.976L264.200,109.674L267.400,108.380L270.600,107.094L273.800,105.815L277,104.544L280.200,103.281L283.400,102.025L286.600,100.777L289.800,99.537L293,98.304L296.200,97.079L299.400,95.862L302.600,94.652L305.800,93.450L309,92.256L312.200,91.069L315.400,89.891L318.600,88.719L321.800,87.556L325,86.400L328.200,85.252L331.400,84.111L334.600,82.979L337.800,81.853L341,80.736L344.200,79.626L347.400,78.524L350.600,77.430L353.800,76.343L357,75.264L360.200,74.193L363.400,73.129L366.600,72.073L369.800,71.025L373,69.984L376.200,68.951L379.400,67.926L382.600,66.908L385.800,65.898L389,64.896L392.200,63.901L395.400,62.915L398.600,61.935L401.800,60.964L405,60L408.200,59.044L411.400,58.095L414.600,57.155L417.800,56.221L421,55.296L424.200,54.378L427.400,53.468L430.600,52.566L433.800,51.671L437,50.784L440.200,49.905L443.400,49.033L446.600,48.169L449.800,47.313L453,46.464L456.200,45.623L459.400,44.790L462.600,43.964L465.800,43.146L469,42.336L472.200,41.533L475.400,40.739L478.600,39.951L481.800,39.172L485,38.400L488.200,37.636L491.400,36.879L494.600,36.131L497.800,35.389L501,34.656L504.200,33.930L507.400,33.212L510.600,32.502L513.800,31.799L517,31.104L520.200,30.417L523.400,29.737L526.600,29.065L529.800,28.401L533,27.744L536.200,27.095L539.400,26.454L542.600,25.820L545.800,25.194L549,24.576L552.200,23.965L555.400,23.363L558.600,22.767L561.800,22.180L565,21.600L568.200,21.028L571.400,20.463L574.600,19.907L577.800,19.357L581,18.816L584.200,18.282L587.400,17.756L590.600,17.238L593.800,16.727L597,16.224L600.200,15.729L603.400,15.241L606.600,14.761L609.800,14.289L613,13.824L616.200,13.367L619.400,12.918L622.600,12.476L625.800,12.042L629,11.616L632.200,11.197L635.400,10.787L638.600,10.383L641.800,9.988L645,9.600L648.200,9.220L651.400,8.847L654.600,8.483L657.800,8.125L661,7.776L664.200,7.434L667.400,7.100L670.600,6.774L673.800,6.455L677,6.144L680.200,5.841L683.400,5.545L686.600,5.257L689.800,4.977L693,4.704L696.200,4.439L699.400,4.182L702.600,3.932L705.800,3.690L709,3.456L712.200,3.229L715.400,3.011L718.600,2.799L721.800,2.596L725,2.400L728.200,2.212L731.400,2.031L734.600,1.859L737.800,1.693L741,1.536L744.200,1.386L747.400,1.244L750.600,1.110L753.800,0.983L757,0.864L760.200,0.753L763.400,0.649L766.600,0.553L769.800,0.465L773,0.384L776.200,0.311L779.400,0.246L782.600,0.188L785.800,0.138L789,0.096L792.200,0.061L795.400,0.035L798.600,0.015L801.800,0.004L805,0" stroke="black" fill="none"/></g></svg>