<svg xmlns="http://www.w3.org/2000/svg" width="810" height="300.0" viewBox="0 0 810 300.0"><g class="legend"><text x="8.0" y="12.0" fill="black">overshoot</text><g transform="translate(8.0, 15.0)"><rect x="0" y="0" width="3" height="16.0" fill="rgb(48, 48, 48)"/><rect x="2" y="0" width="3" height="16.0" fill="rgb(48, 49, 49)"/><rect x="4" y="0" width="3" height="16.0" fill="rgb(48, 49, 51)"/><rect x="6" y="0" width="3" height="16.0" fill="rgb(48, 50, 52)"/><rect x="8" y="0" width="3" height="16.0" fill="rgb(48, 51, 54)"/><rect x="10" y="0" width="3" height="16.0" fill="rgb(48, 51, 55)"/><rect x="12" y="0" width="3" height="16.0" fill="rgb(49, 52, 56)"/><rect x="14" y="0" width="3" height="16.0" fill="rgb(49, 53, 58)"/><rect x="16" y="0" width="3" height="16.0" fill="rgb(49, 53, 59)"/><rect x="18" y="0" width="3" height="16.0" fill="rgb(49, 54, 60)"/><rect x="20" y="0" width="3" height="16.0" fill="rgb(49, 55, 62)"/><rect x="22" y="0" width="3" height="16.0" fill="rgb(49, 55, 63)"/><rect x="24" y="0" width="3" height="16.0" fill="rgb(49, 56, 65)"/><rect x="26" y="0" width="3" height="16.0" fill="rgb(49, 57, 66)"/><rect x="28" y="0" width="3" height="16.0" fill="rgb(49, 57, 67)"/><rect x="30" y="0" width="3" height="16.0" fill="rgb(49, 58, 69)"/><rect x="32" y="0" width="3" height="16.0" fill="rgb(49, 59, 70)"/><rect x="34" y="0" width="3" height="16.0" fill="rgb(49, 59, 71)"/><rect x="36" y="0" width="3" height="16.0" fill="rgb(50, 60, 73)"/><rect x="38" y="0" width="3" height="16.0" fill="rgb(50, 61, 74)"/><rect x="40" y="0" width="3" height="16.0" fill="rgb(50, 61, 76)"/><rect x="42" y="0" width="3" height="16.0" fill="rgb(50, 62, 77)"/><rect x="44" y="0" width="3" height="16.0" fill="rgb(50, 63, 78)"/><rect x="46" y="0" width="3" height="16.0" fill="rgb(50, 63, 80)"/><rect x="48" y="0" width="3" height="16.0" fill="rgb(50, 64, 81)"/><rect x="50" y="0" width="3" height="16.0" fill="rgb(50, 65, 82)"/><rect x="52" y="0" width="3" height="16.0" fill="rgb(50, 65, 84)"/><rect x="54" y="0" width="3" height="16.0" fill="rgb(50, 66, 85)"/><rect x="56" y="0" width="3" height="16.0" fill="rgb(50, 67, 87)"/><rect x="58" y="0" width="3" height="16.0" fill="rgb(51, 67, 88)"/><rect x="60" y="0" width="3" height="16.0" fill="rgb(51, 68, 89)"/><rect x="62" y="0" width="3" height="16.0" fill="rgb(51, 69, 91)"/><rect x="64" y="0" width="3" height="16.0" fill="rgb(51, 69, 92)"/><rect x="66" y="0" width="3" height="16.0" fill="rgb(51, 70, 94)"/><rect x="68" y="0" width="3" height="16.0" fill="rgb(51, 71, 95)"/><rect x="70" y="0" width="3" height="16.0" fill="rgb(51, 71, 96)"/><rect x="72" y="0" width="3" height="16.0" fill="rgb(51, 72, 98)"/><rect x="74" y="0" width="3" height="16.0" fill="rgb(51, 73, 99)"/><rect x="76" y="0" width="3" height="16.0" fill="rgb(51, 73, 100)"/><rect x="78" y="0" width="3" height="16.0" fill="rgb(51, 74, 102)"/><rect x="80" y="0" width="3" height="16.0" fill="rgb(51, 75, 103)"/><rect x="82" y="0" width="3" height="16.0" fill="rgb(52, 75, 105)"/><rect x="84" y="0" width="3" height="16.0" fill="rgb(52, 76, 106)"/><rect x="86" y="0" width="3" height="16.0" fill="rgb(52, 77, 107)"/><rect x="88" y="0" width="3" height="16.0" fill="rgb(52, 77, 109)"/><rect x="90" y="0" width="3" height="16.0" fill="rgb(52, 78, 110)"/><rect x="92" y="0" width="3" height="16.0" fill="rgb(52, 79, 111)"/><rect x="94" y="0" width="3" height="16.0" fill="rgb(52, 79, 113)"/><rect x="96" y="0" width="3" height="16.0" fill="rgb(52, 80, 114)"/><rect x="98" y="0" width="3" height="16.0" fill="rgb(52, 81, 116)"/><rect x="100" y="0" width="3" height="16.0" fill="rgb(52, 81, 117)"/><rect x="102" y="0" width="3" height="16.0" fill="rgb(52, 82, 118)"/><rect x="104" y="0" width="3" height="16.0" fill="rgb(53, 83, 120)"/><rect x="106" y="0" width="3" height="16.0" fill="rgb(53, 83, 121)"/><rect x="108" y="0" width="3" height="16.0" fill="rgb(53, 84, 123)"/><rect x="110" y="0" width="3" height="16.0" fill="rgb(53, 85, 124)"/><rect x="112" y="0" width="3" height="16.0" fill="rgb(53, 85, 125)"/><rect x="114" y="0" width="3" height="16.0" fill="rgb(53, 86, 127)"/><rect x="116" y="0" width="3" height="16.0" fill="rgb(53, 87, 128)"/><rect x="118" y="0" width="3" height="16.0" fill="rgb(53, 87, 129)"/><rect x="120" y="0" width="3" height="16.0" fill="rgb(53, 88, 131)"/><rect x="122" y="0" width="3" height="16.0" fill="rgb(53, 89, 132)"/><rect x="124" y="0" width="3" height="16.0" fill="rgb(53, 89, 134)"/><rect x="126" y="0" width="3" height="16.0" fill="rgb(53, 90, 135)"/><rect x="128" y="0" width="3" height="16.0" fill="rgb(54, 91, 136)"/><rect x="130" y="0" width="3" height="16.0" fill="rgb(54, 91, 138)"/><rect x="132" y="0" width="3" height="16.0" fill="rgb(54, 92, 139)"/><rect x="134" y="0" width="3" height="16.0" fill="rgb(54, 93, 140)"/><rect x="136" y="0" width="3" height="16.0" fill="rgb(54, 93, 142)"/><rect x="138" y="0" width="3" height="16.0" fill="rgb(54, 94, 143)"/><rect x="140" y="0" width="3" height="16.0" fill="rgb(54, 95, 145)"/><rect x="142" y="0" width="3" height="16.0" fill="rgb(54, 95, 146)"/><rect x="144" y="0" width="3" height="16.0" fill="rgb(54, 96, 147)"/><rect x="146" y="0" width="3" height="16.0" fill="rgb(54, 97, 149)"/><rect x="148" y="0" width="3" height="16.0" fill="rgb(54, 97, 150)"/><rect x="150" y="0" width="3" height="16.0" fill="rgb(54, 98, 152)"/><rect x="152" y="0" width="3" height="16.0" fill="rgb(55, 99, 153)"/><rect x="154" y="0" width="3" height="16.0" fill="rgb(55, 99, 154)"/><rect x="156" y="0" width="3" height="16.0" fill="rgb(55, 100, 156)"/><rect x="158" y="0" width="3" height="16.0" fill="rgb(55, 101, 157)"/><rect x="160" y="0" width="3" height="16.0" fill="rgb(55, 101, 158)"/><rect x="162" y="0" width="3" height="16.0" fill="rgb(55, 102, 160)"/><rect x="164" y="0" width="3" height="16.0" fill="rgb(55, 103, 161)"/><rect x="166" y="0" width="3" height="16.0" fill="rgb(55, 103, 163)"/><rect x="168" y="0" width="3" height="16.0" fill="rgb(55, 104, 164)"/><rect x="170" y="0" width="3" height="16.0" fill="rgb(55, 105, 165)"/><rect x="172" y="0" width="3" height="16.0" fill="rgb(55, 105, 167)"/><rect x="174" y="0" width="3" height="16.0" fill="rgb(56, 106, 168)"/><rect x="176" y="0" width="3" height="16.0" fill="rgb(56, 107, 169)"/><rect x="178" y="0" width="3" height="16.0" fill="rgb(56, 107, 171)"/><rect x="180" y="0" width="3" height="16.0" fill="rgb(56, 108, 172)"/><rect x="182" y="0" width="3" height="16.0" fill="rgb(56, 109, 174)"/><rect x="184" y="0" width="3" height="16.0" fill="rgb(56, 109, 175)"/><rect x="186" y="0" width="3" height="16.0" fill="rgb(56, 110, 176)"/><rect x="188" y="0" width="3" height="16.0" fill="rgb(56, 111, 178)"/><rect x="190" y="0" width="3" height="16.0" fill="rgb(56, 111, 179)"/><rect x="192" y="0" width="3" height="16.0" fill="rgb(56, 112, 180)"/><rect x="194" y="0" width="3" height="16.0" fill="rgb(56, 113, 182)"/><rect x="196" y="0" width="3" height="16.0" fill="rgb(56, 113, 183)"/><rect x="198" y="0" width="3" height="16.0" fill="rgb(57, 114, 185)"/><rect x="200" y="0" width="3" height="16.0" fill="rgb(57, 115, 186)"/><rect x="202" y="0" width="3" height="16.0" fill="rgb(57, 115, 187)"/><rect x="204" y="0" width="3" height="16.0" fill="rgb(57, 116, 189)"/><rect x="206" y="0" width="3" height="16.0" fill="rgb(57, 117, 190)"/><rect x="208" y="0" width="3" height="16.0" fill="rgb(57, 117, 192)"/><rect x="210" y="0" width="3" height="16.0" fill="rgb(57, 118, 193)"/><rect x="212" y="0" width="3" height="16.0" fill="rgb(57, 119, 194)"/><rect x="214" y="0" width="3" height="16.0" fill="rgb(57, 119, 196)"/><rect x="216" y="0" width="3" height="16.0" fill="rgb(57, 120, 197)"/><rect x="218" y="0" width="3" height="16.0" fill="rgb(57, 121, 198)"/><rect x="220" y="0" width="3" height="16.0" fill="rgb(58, 121, 200)"/><rect x="222" y="0" width="3" height="16.0" fill="rgb(58, 122, 201)"/><rect x="224" y="0" width="3" height="16.0" fill="rgb(58, 123, 203)"/><rect x="226" y="0" width="3" height="16.0" fill="rgb(58, 123, 204)"/><rect x="228" y="0" width="3" height="16.0" fill="rgb(58, 124, 205)"/><rect x="230" y="0" width="3" height="16.0" fill="rgb(58, 125, 207)"/><rect x="232" y="0" width="3" height="16.0" fill="rgb(58, 125, 208)"/><rect x="234" y="0" width="3" height="16.0" fill="rgb(58, 126, 209)"/><rect x="236" y="0" width="3" height="16.0" fill="rgb(58, 127, 211)"/><rect x="238" y="0" width="3" height="16.0" fill="rgb(58, 127, 212)"/><rect x="240" y="0" width="3" height="16.0" fill="rgb(58, 128, 214)"/><rect x="242" y="0" width="3" height="16.0" fill="rgb(58, 129, 215)"/><rect x="244" y="0" width="3" height="16.0" fill="rgb(59, 129, 216)"/><rect x="246" y="0" width="3" height="16.0" fill="rgb(59, 130, 218)"/><rect x="248" y="0" width="3" height="16.0" fill="rgb(59, 131, 219)"/><rect x="250" y="0" width="3" height="16.0" fill="rgb(59, 131, 220)"/><rect x="252" y="0" width="3" height="16.0" fill="rgb(59, 132, 222)"/><rect x="254" y="0" width="3" height="16.0" fill="rgb(59, 133, 223)"/><rect x="256" y="0" width="3" height="16.0" fill="rgb(59, 133, 225)"/><rect x="258" y="0" width="3" height="16.0" fill="rgb(59, 134, 226)"/><rect x="260" y="0" width="3" height="16.0" fill="rgb(59, 135, 227)"/><rect x="262" y="0" width="3" height="16.0" fill="rgb(59, 135, 229)"/><rect x="264" y="0" width="3" height="16.0" fill="rgb(59, 136, 230)"/><rect x="266" y="0" width="3" height="16.0" fill="rgb(60, 137, 232)"/><rect x="268" y="0" width="3" height="16.0" fill="rgb(60, 137, 233)"/><rect x="270" y="0" width="3" height="16.0" fill="rgb(60, 138, 234)"/><rect x="272" y="0" width="3" height="16.0" fill="rgb(60, 139, 236)"/><rect x="274" y="0" width="3" height="16.0" fill="rgb(60, 139, 237)"/><rect x="276" y="0" width="3" height="16.0" fill="rgb(60, 140, 238)"/><rect x="278" y="0" width="3" height="16.0" fill="rgb(60, 141, 240)"/><rect x="280" y="0" width="3" height="16.0" fill="rgb(60, 141, 241)"/><rect x="282" y="0" width="3" height="16.0" fill="rgb(60, 142, 243)"/><rect x="284" y="0" width="3" height="16.0" fill="rgb(60, 143, 244)"/><rect x="286" y="0" width="3" height="16.0" fill="rgb(60, 143, 245)"/><rect x="288" y="0" width="3" height="16.0" fill="rgb(60, 144, 247)"/><rect x="290" y="0" width="3" height="16.0" fill="rgb(61, 145, 248)"/><rect x="292" y="0" width="3" height="16.0" fill="rgb(61, 145, 249)"/><rect x="294" y="0" width="3" height="16.0" fill="rgb(61, 146, 251)"/><rect x="296" y="0" width="3" height="16.0" fill="rgb(61, 147, 252)"/><rect x="298" y="0" width="3" height="16.0" fill="rgb(61, 147, 254)"/></g><g transform="translate(8.0, 15.0)" fill="none" font-size="10" font-family="sans-serif" text-anchor="middle"><g class="tick" opacity="1" transform="translate(0.5, 0)"><line stroke="black" y2="19.2"/><text fill="black" y="22.2" dy="0.71em">0.5</text></g><g class="tick" opacity="1" transform="translate(60.5, 0)"><line stroke="black" y2="19.2"/><text fill="black" y="22.2" dy="0.71em">1.0</text></g><g class="tick" opacity="1" transform="translate(120.5, 0)"><line stroke="black" y2="19.2"/><text fill="black" y="22.2" dy="0.71em">1.5</text></g><g class="tick" opacity="1" transform="translate(180.5, 0)"><line stroke="black" y2="19.2"/><text fill="black" y="22.2" dy="0.71em">2.0</text></g><g class="tick" opacity="1" transform="translate(240.5, 0)"><line stroke="black" y2="19.2"/><text fill="black" y="22.2" dy="0.71em">2.5</text></g><g class="tick" opacity="1" transform="translate(300.5, 0)"><line stroke="black" y2="19.2"/><text fill="black" y="22.2" dy="0.71em">3.0</text></g></g></g><g class="main" transform="translate(0, 60)"><rect x="5" y="0" width="800" height="240.0" fill="#d4d4d1"/><g class="xlines"><line x1="25.0" y1="240.0" x2="25.0" y2="0.0" stroke="#f8f8f8"/><line x1="45.0" y1="240.0" x2="45.0" y2="0.0" stroke="#f8f8f8"/><line x1="65.0" y1="240.0" x2="65.0" y2="0.0" stroke="#f8f8f8"/><line x1="85.0" y1="240.0" x2="85.0" y2="0.0" stroke="#f8f8f8"/><line x1="105.0" y1="240.0" x2="105.0" y2="0.0" stroke="#f8f8f8"/><line x1="125.0" y1="240.0" x2="125.0" y2="0.0" stroke="#f8f8f8"/><line x1="145.0" y1="240.0" x2="145.0" y2="0.0" stroke="#f8f8f8"/><line x1="165.0" y1="240.0" x2="165.0" y2="0.0" stroke="#f8f8f8"/><line x1="185.0" y1="240.0" x2="185.0" y2="0.0" stroke="#f8f8f8"/><line x1="205.0" y1="240.0" x2="205.0" y2="0.0" stroke="#f8f8f8"/><line x1="225.00000000000003" y1="240.0" x2="225.00000000000003" y2="0.0" stroke="#f8f8f8"/><line x1="245.0" y1="240.0" x2="245.0" y2="0.0" stroke="#f8f8f8"/><line x1="265.0" y1="240.0" x2="265.0" y2="0.0" stroke="#f8f8f8"/><line x1="285.0" y1="240.0" x2="285.0" y2="0.0" stroke="#f8f8f8"/><line x1="305.0" y1="240.0" x2="305.0" y2="0.0" stroke="#f8f8f8"/><line x1="325.0" y1="240.0" x2="325.0" y2="0.0" stroke="#f8f8f8"/><line x1="345.0" y1="240.0" x2="345.0" y2="0.0" stroke="#f8f8f8"/><line x1="365.0" y1="240.0" x2="365.0" y2="0.0" stroke="#f8f8f8"/><line x1="385.0" y1="240.0" x2="385.0" y2="0.0" stroke="#f8f8f8"/><line x1="405.0" y1="240.0" x2="405.0" y2="0.0" stroke="#f8f8f8"/><line x1="425.0" y1="240.0" x2="425.0" y2="0.0" stroke="#f8f8f8"/><line x1="445.00000000000006" y1="240.0" x2="445.00000000000006" y2="0.0" stroke="#f8f8f8"/><line x1="464.99999999999994" y1="240.0" x2="464.99999999999994" y2="0.0" stroke="#f8f8f8"/><line x1="485.0" y1="240.0" x2="485.0" y2="0.0" stroke="#f8f8f8"/><line x1="505.0" y1="240.0" x2="505.0" y2="0.0" stroke="#f8f8f8"/><line x1="525.0" y1="240.0" x2="525.0" y2="0.0" stroke="#f8f8f8"/><line x1="545.0" y1="240.0" x2="545.0" y2="0.0" stroke="#f8f8f8"/><line x1="565.0" y1="240.0" x2="565.0" y2="0.0" stroke="#f8f8f8"/><line x1="585.0" y1="240.0" x2="585.0" y2="0.0" stroke="#f8f8f8"/><line x1="605.0" y1="240.0" x2="605.0" y2="0.0" stroke="#f8f8f8"/><line x1="625.0" y1="240.0" x2="625.0" y2="0.0" stroke="#f8f8f8"/><line x1="645.0" y1="240.0" x2="645.0" y2="0.0" stroke="#f8f8f8"/><line x1="665.0" y1="240.0" x2="665.0" y2="0.0" stroke="#f8f8f8"/><line x1="685.0" y1="240.0" x2="685.0" y2="0.0" stroke="#f8f8f8"/><line x1="705.0" y1="240.0" x2="705.0" y2="0.0" stroke="#f8f8f8"/><line x1="725.0" y1="240.0" x2="725.0" y2="0.0" stroke="#f8f8f8"/><line x1="745.0" y1="240.0" x2="745.0" y2="0.0" stroke="#f8f8f8"/><line x1="765.0" y1="240.0" x2="765.0" y2="0.0" stroke="#f8f8f8"/><line x1="785.0" y1="240.0" x2="785.0" y2="0.0" stroke="#f8f8f8"/></g><g class="ylines"><line x1="5.0" y1="220.0" x2="805.0" y2="220.0" stroke="#f8f8f8"/><line x1="5.0" y1="200.0" x2="805.0" y2="200.0" stroke="#f8f8f8"/><line x1="5.0" y1="180.0" x2="805.0" y2="180.0" stroke="#f8f8f8"/><line x1="5.0" y1="160.00000000000003" x2="805.0" y2="160.00000000000003" stroke="#f8f8f8"/><line x1="5.0" y1="139.99999999999997" x2="805.0" y2="139.99999999999997" stroke="#f8f8f8"/><line x1="5.0" y1="120.0" x2="805.0" y2="120.0" stroke="#f8f8f8"/><line x1="5.0" y1="99.99999999999999" x2="805.0" y2="99.99999999999999" stroke="#f8f8f8"/><line x1="5.0" y1="80.00000000000001" x2="805.0" y2="80.00000000000001" stroke="#f8f8f8"/><line x1="5.0" y1="60.0" x2="805.0" y2="60.0" stroke="#f8f8f8"/><line x1="5.0" y1="39.99999999999999" x2="805.0" y2="39.99999999999999" stroke="#f8f8f8"/><line x1="5.0" y1="20.000000000000007" x2="805.0" y2="20.000000000000007" stroke="#f8f8f8"/></g><g class="ease"><path d="M5,240L8.200,236.655L11.400,233.341L14.600,230.058L17.800,226.804L21,223.581L24.200,220.388L27.400,217.225L30.600,214.091L33.800,210.987L37,207.913L40.200,204.868L43.400,201.852L46.600,198.865L49.800,195.907L53,192.978L56.200,190.078L59.400,187.206L62.600,184.362L65.800,181.547L69,178.760L72.200,176L75.400,173.269L78.600,170.565L81.800,167.889L85,165.240L88.200,162.618L91.400,160.024L94.600,157.456L97.800,154.916L101,152.402L104.200,149.915L107.400,147.454L110.600,145.019L113.800,142.611L117,140.228L120.200,137.872L123.400,135.541L126.600,133.236L129.800,130.956L133,128.701L136.200,126.472L139.400,124.268L142.600,122.089L145.800,119.934L149,117.804L152.200,115.699L155.400,113.618L158.600,111.561L161.800,109.529L165,107.520L168.200,105.535L171.400,103.574L174.600,101.636L177.800,99.722L181,97.831L184.200,95.963L187.400,94.118L190.600,92.296L193.800,90.496L197,88.719L200.200,86.965L203.400,85.233L206.600,83.523L209.800,81.835L213,80.169L216.200,78.524L219.400,76.901L222.600,75.300L225.800,73.720L229,72.161L232.200,70.623L235.400,69.107L238.600,67.610L241.800,66.135L245,64.680L248.200,63.245L251.400,61.831L254.600,60.437L257.800,59.062L261,57.708L264.200,56.373L267.400,55.057L270.600,53.761L273.800,52.484L277,51.227L280.200,49.988L283.400,48.768L286.600,47.567L289.800,46.384L293,45.220L296.200,44.074L299.400,42.946L302.600,41.836L305.800,40.744L309,39.670L312.200,38.613L315.400,37.574L318.600,36.552L321.800,35.548L325,34.560L328.200,33.589L331.400,32.635L334.600,31.698L337.800,30.777L341,29.872L344.200,28.984L347.400,28.112L350.600,27.255L353.800,26.415L357,25.590L360.200,24.780L363.400,23.986L366.600,23.207L369.800,22.444L373,21.695L376.200,20.961L379.400,20.242L382.600,19.537L385.800,18.847L389,18.171L392.200,17.509L395.400,16.861L398.600,16.227L401.800,15.607L405,15L408.200,14.407L411.400,13.827L414.600,13.260L417.800,12.706L421,12.165L424.200,11.637L427.400,11.121L430.600,10.618L433.800,10.128L437,9.649L440.200,9.182L443.400,8.728L446.600,8.285L449.800,7.854L453,7.434L456.200,7.026L459.400,6.629L462.600,6.243L465.800,5.868L469,5.504L472.200,5.150L475.400,4.807L478.600,4.475L481.800,4.152L485,3.840L488.200,3.538L491.400,3.245L494.600,2.963L497.800,2.690L501,2.426L504.200,2.172L507.400,1.926L510.600,1.690L513.800,1.463L517,1.244L520.200,1.034L523.400,0.833L526.600,0.639L529.800,0.454L533,0.277L536.200,0.108L539.400,-0.053L542.600,-0.207L545.800,-0.353L549,-0.492L552.200,-0.623L555.400,-0.748L558.600,-0.865L561.800,-0.976L565,-1.080L568.200,-1.178L571.400,-1.269L574.600,-1.354L577.800,-1.432L581,-1.505L584.200,-1.572L587.400,-1.634L590.600,-1.689L593.800,-1.740L597,-1.785L600.200,-1.825L603.400,-1.859L606.600,-1.889L609.800,-1.915L613,-1.935L616.200,-1.952L619.400,-1.963L622.600,-1.971L625.800,-1.975L629,-1.975L632.200,-1.971L635.400,-1.963L638.600,-1.952L641.800,-1.938L645,-1.920L648.200,-1.899L651.400,-1.876L654.600,-1.849L657.800,-1.820L661,-1.788L664.200,-1.754L667.400,-1.718L670.600,-1.680L673.800,-1.640L677,-1.597L680.200,-1.554L683.400,-1.508L686.600,-1.461L689.800,-1.413L693,-1.364L696.200,-1.314L699.400,-1.263L702.600,-1.211L705.800,-1.159L709,-1.106L712.200,-1.053L715.400,-1L718.600,-0.946L721.800,-0.893L725,-0.840L728.200,-0.787L731.400,-0.735L734.600,-0.684L737.800,-0.633L741,-0.584L744.200,-0.535L747.400,-0.488L750.600,-0.442L753.800,-0.397L757,-0.354L760.200,-0.313L763.400,-0.274L766.600,-0.237L769.800,-0.202L773,-0.169L776.200,-0.139L779.400,-0.111L782.600,-0.086L785.800,-0.064L789,-0.045L792.200,-0.029L795.400,-0.017L798.600,-0.007L801.800,-0.002L805,0" stroke="rgb(48, 48, 48)" fill="none"/><path d="M5,240L8.200,236.179L11.400,232.397L14.600,228.652L17.800,224.945L21,221.276L24.200,217.645L27.400,214.050L30.600,210.493L33.800,206.973L37,203.489L40.200,200.042L43.400,196.632L46.600,193.257L49.800,189.919L53,186.616L56.200,183.349L59.400,180.118L62.600,176.922L65.800,173.760L69,170.634L72.200,167.543L75.400,164.486L78.600,161.463L81.800,158.475L85,155.520L88.200,152.599L91.400,149.712L94.600,146.858L97.800,144.038L101,141.251L104.200,138.496L107.400,135.774L110.600,133.085L113.800,130.428L117,127.803L120.200,125.210L123.400,122.649L126.600,120.119L129.800,117.621L133,115.154L136.200,112.718L139.400,110.313L142.600,107.938L145.800,105.594L149,103.281L152.200,100.997L155.400,98.743L158.600,96.519L161.800,94.325L165,92.160L168.200,90.024L171.400,87.917L174.600,85.839L177.800,83.790L181,81.769L184.200,79.776L187.400,77.812L190.600,75.875L193.800,73.966L197,72.084L200.200,70.230L203.400,68.403L206.600,66.603L209.800,64.830L213,63.084L216.200,61.363L219.400,59.669L222.600,58.001L225.800,56.359L229,54.743L232.200,53.152L235.400,51.587L238.600,50.046L241.800,48.531L245,47.040L248.200,45.574L251.400,44.132L254.600,42.715L257.800,41.321L261,39.951L264.200,38.605L267.400,37.283L270.600,35.984L273.800,34.707L277,33.454L280.200,32.224L283.400,31.016L286.600,29.830L289.800,28.667L293,27.525L296.200,26.405L299.400,25.308L302.600,24.231L305.800,23.176L309,22.141L312.200,21.128L315.400,20.135L318.600,19.163L321.800,18.212L325,17.280L328.200,16.368L331.400,15.476L334.600,14.604L337.800,13.751L341,12.918L344.200,12.103L347.400,11.307L350.600,10.530L353.800,9.772L357,9.032L360.200,8.310L363.400,7.605L366.600,6.919L369.800,6.250L373,5.599L376.200,4.964L379.400,4.347L382.600,3.747L385.800,3.163L389,2.596L392.200,2.045L395.400,1.510L398.600,0.991L401.800,0.488L405,0L408.200,-0.472L411.400,-0.930L414.600,-1.372L417.800,-1.799L421,-2.212L424.200,-2.610L427.400,-2.994L430.600,-3.364L433.800,-3.720L437,-4.063L440.200,-4.392L443.400,-4.707L446.600,-5.010L449.800,-5.299L453,-5.576L456.200,-5.840L459.400,-6.091L462.600,-6.331L465.800,-6.558L469,-6.774L472.200,-6.978L475.400,-7.170L478.600,-7.351L481.800,-7.521L485,-7.680L488.200,-7.828L491.400,-7.966L494.600,-8.093L497.800,-8.210L501,-8.317L504.200,-8.415L507.400,-8.502L510.600,-8.580L513.800,-8.649L517,-8.709L520.200,-8.760L523.400,-8.802L526.600,-8.836L529.800,-8.861L533,-8.878L536.200,-8.887L539.400,-8.888L542.600,-8.882L545.800,-8.868L549,-8.847L552.200,-8.819L555.400,-8.784L558.600,-8.743L561.800,-8.694L565,-8.640L568.200,-8.579L571.400,-8.513L574.600,-8.440L577.800,-8.362L581,-8.279L584.200,-8.190L587.400,-8.097L590.600,-7.998L593.800,-7.895L597,-7.788L600.200,-7.676L603.400,-7.560L606.600,-7.440L609.800,-7.316L613,-7.188L616.200,-7.058L619.400,-6.924L622.600,-6.787L625.800,-6.647L629,-6.505L632.200,-6.360L635.400,-6.213L638.600,-6.064L641.800,-5.913L645,-5.760L648.200,-5.606L651.400,-5.450L654.600,-5.293L657.800,-5.135L661,-4.977L664.200,-4.817L667.400,-4.658L670.600,-4.498L673.800,-4.338L677,-4.178L680.200,-4.018L683.400,-3.859L686.600,-3.701L689.800,-3.543L693,-3.387L696.200,-3.232L699.400,-3.078L702.600,-2.926L705.800,-2.775L709,-2.627L712.200,-2.480L715.400,-2.336L718.600,-2.195L721.800,-2.056L725,-1.920L728.200,-1.787L731.400,-1.658L734.600,-1.531L737.800,-1.409L741,-1.290L744.200,-1.176L747.400,-1.065L750.600,-0.959L753.800,-0.857L757,-0.760L760.200,-0.668L763.400,-0.581L766.600,-0.500L769.800,-0.424L773,-0.353L776.200,-0.289L779.400,-0.230L782.600,-0.178L785.800,-0.132L789,-0.092L792.200,-0.059L795.400,-0.034L798.600,-0.015L801.800,-0.004L805,0" stroke="rgb(51, 68, 89)" fill="none"/><path d="M5,240L8.200,235.703L11.400,231.452L14.600,227.246L17.800,223.086L21,218.971L24.200,214.901L27.400,210.876L30.600,206.895L33.800,202.958L37,199.066L40.200,195.217L43.400,191.411L46.600,187.649L49.800,183.930L53,180.254L56.200,176.621L59.400,173.030L62.600,169.481L65.800,165.974L69,162.509L72.200,159.085L75.400,155.702L78.600,152.361L81.800,149.060L85,145.800L88.200,142.580L91.400,139.400L94.600,136.260L97.800,133.160L101,130.099L104.200,127.077L107.400,124.095L110.600,121.151L113.800,118.245L117,115.378L120.200,112.548L123.400,109.757L126.600,107.003L129.800,104.286L133,101.606L136.200,98.964L139.400,96.358L142.600,93.788L145.800,91.254L149,88.757L152.200,86.295L155.400,83.869L158.600,81.477L161.800,79.121L165,76.800L168.200,74.513L171.400,72.261L174.600,70.042L177.800,67.858L181,65.707L184.200,63.590L187.400,61.506L190.600,59.454L193.800,57.436L197,55.450L200.200,53.496L203.400,51.574L206.600,49.684L209.800,47.826L213,45.998L216.200,44.202L219.400,42.437L222.600,40.703L225.800,38.999L229,37.325L232.200,35.681L235.400,34.067L238.600,32.482L241.800,30.926L245,29.400L248.200,27.902L251.400,26.433L254.600,24.993L257.800,23.580L261,22.195L264.200,20.838L267.400,19.508L270.600,18.206L273.800,16.930L277,15.682L280.200,14.459L283.400,13.263L286.600,12.093L289.800,10.949L293,9.830L296.200,8.737L299.400,7.669L302.600,6.626L305.800,5.607L309,4.613L312.200,3.643L315.400,2.697L318.600,1.774L321.800,0.876L325,0L328.200,-0.853L331.400,-1.682L334.600,-2.489L337.800,-3.274L341,-4.037L344.200,-4.778L347.400,-5.497L350.600,-6.194L353.800,-6.871L357,-7.526L360.200,-8.161L363.400,-8.775L366.600,-9.369L369.800,-9.943L373,-10.498L376.200,-11.032L379.400,-11.547L382.600,-12.043L385.800,-12.521L389,-12.979L392.200,-13.419L395.400,-13.841L398.600,-14.245L401.800,-14.631L405,-15L408.200,-15.351L411.400,-15.686L414.600,-16.003L417.800,-16.304L421,-16.589L424.200,-16.857L427.400,-17.110L430.600,-17.347L433.800,-17.568L437,-17.774L440.200,-17.966L443.400,-18.142L446.600,-18.304L449.800,-18.452L453,-18.586L456.200,-18.705L459.400,-18.812L462.600,-18.905L465.800,-18.984L469,-19.051L472.200,-19.105L475.400,-19.147L478.600,-19.177L481.800,-19.194L485,-19.200L488.200,-19.194L491.400,-19.177L494.600,-19.149L497.800,-19.110L501,-19.061L504.200,-19.001L507.400,-18.931L510.600,-18.851L513.800,-18.761L517,-18.662L520.200,-18.554L523.400,-18.437L526.600,-18.311L529.800,-18.176L533,-18.034L536.200,-17.883L539.400,-17.724L542.600,-17.558L545.800,-17.384L549,-17.203L552.200,-17.015L555.400,-16.821L558.600,-16.620L561.800,-16.413L565,-16.200L568.200,-15.981L571.400,-15.757L574.600,-15.527L577.800,-15.292L581,-15.053L584.200,-14.809L587.400,-14.560L590.600,-14.307L593.800,-14.051L597,-13.790L600.200,-13.527L603.400,-13.260L606.600,-12.990L609.800,-12.717L613,-12.442L616.200,-12.164L619.400,-11.884L622.600,-11.603L625.800,-11.320L629,-11.035L632.200,-10.750L635.400,-10.463L638.600,-10.176L641.800,-9.888L645,-9.600L648.200,-9.312L651.400,-9.024L654.600,-8.737L657.800,-8.450L661,-8.165L664.200,-7.880L667.400,-7.597L670.600,-7.316L673.800,-7.036L677,-6.758L680.200,-6.483L683.400,-6.210L686.600,-5.940L689.800,-5.673L693,-5.410L696.200,-5.149L699.400,-4.893L702.600,-4.640L705.800,-4.391L709,-4.147L712.200,-3.908L715.400,-3.673L718.600,-3.443L721.800,-3.219L725,-3L728.200,-2.787L731.400,-2.580L734.600,-2.379L737.800,-2.185L741,-1.997L744.200,-1.816L747.400,-1.642L750.600,-1.476L753.800,-1.317L757,-1.166L760.200,-1.024L763.400,-0.889L766.600,-0.763L769.800,-0.646L773,-0.538L776.200,-0.439L779.400,-0.349L782.600,-0.269L785.800,-0.199L789,-0.139L792.200,-0.090L795.400,-0.051L798.600,-0.023L801.800,-0.006L805,0" stroke="rgb(53, 88, 131)" fill="none"/><path d="M5,240L8.200,235.227L11.400,230.507L14.600,225.841L17.800,221.227L21,216.666L24.200,212.158L27.400,207.701L30.600,203.297L33.800,198.944L37,194.642L40.200,190.391L43.400,186.191L46.600,182.041L49.800,177.942L53,173.892L56.200,169.893L59.400,165.942L62.600,162.040L65.800,158.188L69,154.383L72.200,150.627L75.400,146.919L78.600,143.259L81.800,139.646L85,136.080L88.200,132.561L91.400,129.089L94.600,125.662L97.800,122.282L101,118.948L104.200,115.659L107.400,112.415L110.600,109.216L113.800,106.062L117,102.952L120.200,99.887L123.400,96.865L126.600,93.886L129.800,90.951L133,88.059L136.200,85.209L139.400,82.402L142.600,79.637L145.800,76.914L149,74.233L152.200,71.593L155.400,68.994L158.600,66.435L161.800,63.918L165,61.440L168.200,59.002L171.400,56.604L174.600,54.246L177.800,51.926L181,49.645L184.200,47.403L187.400,45.199L190.600,43.034L193.800,40.905L197,38.815L200.200,36.761L203.400,34.745L206.600,32.765L209.800,30.821L213,28.913L216.200,27.041L219.400,25.205L222.600,23.404L225.800,21.638L229,19.907L232.200,18.210L235.400,16.547L238.600,14.918L241.800,13.322L245,11.760L248.200,10.231L251.400,8.734L254.600,7.271L257.800,5.839L261,4.439L264.200,3.071L267.400,1.734L270.600,0.428L273.800,-0.847L277,-2.091L280.200,-3.305L283.400,-4.489L286.600,-5.644L289.800,-6.768L293,-7.864L296.200,-8.931L299.400,-9.970L302.600,-10.980L305.800,-11.962L309,-12.916L312.200,-13.843L315.400,-14.742L318.600,-15.615L321.800,-16.460L325,-17.280L328.200,-18.073L331.400,-18.841L334.600,-19.583L337.800,-20.300L341,-20.991L344.200,-21.658L347.400,-22.301L350.600,-22.919L353.800,-23.514L357,-24.084L360.200,-24.632L363.400,-25.156L366.600,-25.658L369.800,-26.137L373,-26.594L376.200,-27.029L379.400,-27.442L382.600,-27.834L385.800,-28.204L389,-28.554L392.200,-28.883L395.400,-29.192L398.600,-29.481L401.800,-29.750L405,-30L408.200,-30.230L411.400,-30.442L414.600,-30.635L417.800,-30.809L421,-30.966L424.200,-31.104L427.400,-31.225L430.600,-31.329L433.800,-31.416L437,-31.486L440.200,-31.540L443.400,-31.577L446.600,-31.599L449.800,-31.605L453,-31.596L456.200,-31.571L459.400,-31.532L462.600,-31.478L465.800,-31.410L469,-31.329L472.200,-31.233L475.400,-31.124L478.600,-31.002L481.800,-30.867L485,-30.720L488.200,-30.560L491.400,-30.389L494.600,-30.205L497.800,-30.010L501,-29.804L504.200,-29.587L507.400,-29.360L510.600,-29.122L513.800,-28.874L517,-28.616L520.200,-28.348L523.400,-28.072L526.600,-27.786L529.800,-27.492L533,-27.189L536.200,-26.878L539.400,-26.560L542.600,-26.233L545.800,-25.900L549,-25.559L552.200,-25.212L555.400,-24.858L558.600,-24.498L561.800,-24.132L565,-23.760L568.200,-23.383L571.400,-23.001L574.600,-22.614L577.800,-22.222L581,-21.827L584.200,-21.427L587.400,-21.023L590.600,-20.616L593.800,-20.206L597,-19.793L600.200,-19.378L603.400,-18.960L606.600,-18.540L609.800,-18.118L613,-17.695L616.200,-17.270L619.400,-16.845L622.600,-16.419L625.800,-15.992L629,-15.565L632.200,-15.139L635.400,-14.713L638.600,-14.288L641.800,-13.863L645,-13.440L648.200,-13.018L651.400,-12.599L654.600,-12.181L657.800,-11.766L661,-11.353L664.200,-10.943L667.400,-10.537L670.600,-10.134L673.800,-9.734L677,-9.339L680.200,-8.948L683.400,-8.561L686.600,-8.180L689.800,-7.803L693,-7.432L696.200,-7.067L699.400,-6.708L702.600,-6.354L705.800,-6.008L709,-5.668L712.200,-5.335L715.400,-5.010L718.600,-4.692L721.800,-4.382L725,-4.080L728.200,-3.787L731.400,-3.502L734.600,-3.226L737.800,-2.960L741,-2.703L744.200,-2.456L747.400,-2.220L750.600,-1.993L753.800,-1.777L757,-1.572L760.200,-1.379L763.400,-1.197L766.600,-1.026L769.800,-0.868L773,-0.722L776.200,-0.588L779.400,-0.468L782.600,-0.361L785.800,-0.267L789,-0.186L792.200,-0.120L795.400,-0.068L798.600,-0.030L801.800,-0.008L805,0" stroke="rgb(56, 108, 172)" fill="none"/><path d="M5,240L8.200,234.751L11.400,229.562L14.600,224.435L17.800,219.368L21,214.361L24.200,209.414L27.400,204.527L30.600,199.699L33.800,194.929L37,190.218L40.200,185.566L43.400,180.971L46.600,176.434L49.800,171.954L53,167.531L56.200,163.164L59.400,158.854L62.600,154.600L65.800,150.401L69,146.258L72.200,142.170L75.400,138.136L78.600,134.157L81.800,130.232L85,126.360L88.200,122.542L91.400,118.777L94.600,115.064L97.800,111.404L101,107.796L104.200,104.240L107.400,100.736L110.600,97.282L113.800,93.879L117,90.527L120.200,87.225L123.400,83.973L126.600,80.770L129.800,77.616L133,74.511L136.200,71.455L139.400,68.447L142.600,65.487L145.800,62.574L149,59.709L152.200,56.891L155.400,54.119L158.600,51.393L161.800,48.714L165,46.080L168.200,43.491L171.400,40.948L174.600,38.449L177.800,35.994L181,33.584L184.200,31.217L187.400,28.893L190.600,26.613L193.800,24.375L197,22.180L200.200,20.027L203.400,17.915L206.600,15.845L209.800,13.816L213,11.828L216.200,9.881L219.400,7.973L222.600,6.105L225.800,4.277L229,2.488L232.200,0.738L235.400,-0.973L238.600,-2.647L241.800,-4.282L245,-5.880L248.200,-7.441L251.400,-8.964L254.600,-10.451L257.800,-11.902L261,-13.317L264.200,-14.696L267.400,-16.040L270.600,-17.349L273.800,-18.623L277,-19.863L280.200,-21.069L283.400,-22.241L286.600,-23.380L289.800,-24.486L293,-25.559L296.200,-26.600L299.400,-27.608L302.600,-28.585L305.800,-29.530L309,-30.444L312.200,-31.328L315.400,-32.181L318.600,-33.004L321.800,-33.797L325,-34.560L328.200,-35.294L331.400,-36L334.600,-36.677L337.800,-37.325L341,-37.946L344.200,-38.539L347.400,-39.105L350.600,-39.644L353.800,-40.156L357,-40.643L360.200,-41.103L363.400,-41.537L366.600,-41.946L369.800,-42.331L373,-42.690L376.200,-43.025L379.400,-43.337L382.600,-43.624L385.800,-43.888L389,-44.129L392.200,-44.348L395.400,-44.544L398.600,-44.717L401.800,-44.869L405,-45L408.200,-45.109L411.400,-45.198L414.600,-45.266L417.800,-45.314L421,-45.343L424.200,-45.351L427.400,-45.341L430.600,-45.312L433.800,-45.264L437,-45.198L440.200,-45.114L443.400,-45.012L446.600,-44.893L449.800,-44.758L453,-44.605L456.200,-44.437L459.400,-44.252L462.600,-44.052L465.800,-43.837L469,-43.606L472.200,-43.361L475.400,-43.101L478.600,-42.828L481.800,-42.541L485,-42.240L488.200,-41.926L491.400,-41.600L494.600,-41.261L497.800,-40.910L501,-40.548L504.200,-40.173L507.400,-39.788L510.600,-39.392L513.800,-38.986L517,-38.569L520.200,-38.142L523.400,-37.706L526.600,-37.261L529.800,-36.807L533,-36.345L536.200,-35.874L539.400,-35.395L542.600,-34.909L545.800,-34.415L549,-33.915L552.200,-33.408L555.400,-32.894L558.600,-32.375L561.800,-31.850L565,-31.320L568.200,-30.785L571.400,-30.245L574.600,-29.701L577.800,-29.152L581,-28.600L584.200,-28.045L587.400,-27.487L590.600,-26.925L593.800,-26.362L597,-25.796L600.200,-25.229L603.400,-24.660L606.600,-24.090L609.800,-23.519L613,-22.948L616.200,-22.376L619.400,-21.805L622.600,-21.234L625.800,-20.664L629,-20.096L632.200,-19.528L635.400,-18.963L638.600,-18.399L641.800,-17.838L645,-17.280L648.200,-16.725L651.400,-16.173L654.600,-15.625L657.800,-15.081L661,-14.541L664.200,-14.006L667.400,-13.476L670.600,-12.951L673.800,-12.432L677,-11.919L680.200,-11.413L683.400,-10.912L686.600,-10.419L689.800,-9.933L693,-9.455L696.200,-8.985L699.400,-8.522L702.600,-8.069L705.800,-7.624L709,-7.188L712.200,-6.762L715.400,-6.346L718.600,-5.940L721.800,-5.545L725,-5.160L728.200,-4.786L731.400,-4.424L734.600,-4.074L737.800,-3.736L741,-3.410L744.200,-3.097L747.400,-2.797L750.600,-2.510L753.800,-2.237L757,-1.979L760.200,-1.734L763.400,-1.504L766.600,-1.290L769.800,-1.090L773,-0.906L776.200,-0.738L779.400,-0.587L782.600,-0.452L785.800,-0.334L789,-0.233L792.200,-0.150L795.400,-0.085L798.600,-0.038L801.800,-0.010L805,0" stroke="rgb(58, 128, 214)" fill="none"/><path d="M5,240L8.200,234.274L11.400,228.618L14.600,223.029L17.800,217.509L21,212.056L24.200,206.671L27.400,201.352L30.600,196.100L33.800,190.915L37,185.795L40.200,180.740L43.400,175.750L46.600,170.826L49.800,165.965L53,161.169L56.200,156.436L59.400,151.766L62.600,147.159L65.800,142.615L69,138.132L72.200,133.712L75.400,129.353L78.600,125.055L81.800,120.817L85,116.640L88.200,112.523L91.400,108.465L94.600,104.466L97.800,100.526L101,96.645L104.200,92.822L107.400,89.056L110.600,85.348L113.800,81.697L117,78.102L120.200,74.563L123.400,71.081L126.600,67.653L129.800,64.281L133,60.964L136.200,57.701L139.400,54.492L142.600,51.337L145.800,48.234L149,45.185L152.200,42.189L155.400,39.244L158.600,36.351L161.800,33.510L165,30.720L168.200,27.980L171.400,25.291L174.600,22.652L177.800,20.062L181,17.522L184.200,15.030L187.400,12.587L190.600,10.192L193.800,7.845L197,5.545L200.200,3.292L203.400,1.086L206.600,-1.074L209.800,-3.188L213,-5.257L216.200,-7.280L219.400,-9.259L222.600,-11.193L225.800,-13.083L229,-14.930L232.200,-16.733L235.400,-18.493L238.600,-20.211L241.800,-21.886L245,-23.520L248.200,-25.112L251.400,-26.663L254.600,-28.173L257.800,-29.643L261,-31.073L264.200,-32.464L267.400,-33.815L270.600,-35.127L273.800,-36.400L277,-37.636L280.200,-38.834L283.400,-39.994L286.600,-41.117L289.800,-42.204L293,-43.254L296.200,-44.268L299.400,-45.247L302.600,-46.190L305.800,-47.099L309,-47.973L312.200,-48.813L315.400,-49.620L318.600,-50.393L321.800,-51.133L325,-51.840L328.200,-52.515L331.400,-53.158L334.600,-53.770L337.800,-54.351L341,-54.900L344.200,-55.420L347.400,-55.909L350.600,-56.369L353.800,-56.799L357,-57.201L360.200,-57.573L363.400,-57.918L366.600,-58.235L369.800,-58.524L373,-58.787L376.200,-59.022L379.400,-59.231L382.600,-59.414L385.800,-59.572L389,-59.704L392.200,-59.812L395.400,-59.895L398.600,-59.953L401.800,-59.988L405,-60L408.200,-59.989L411.400,-59.954L414.600,-59.898L417.800,-59.820L421,-59.720L424.200,-59.599L427.400,-59.457L430.600,-59.294L433.800,-59.112L437,-58.909L440.200,-58.688L443.400,-58.447L446.600,-58.188L449.800,-57.911L453,-57.615L456.200,-57.303L459.400,-56.973L462.600,-56.626L465.800,-56.263L469,-55.884L472.200,-55.489L475.400,-55.079L478.600,-54.653L481.800,-54.214L485,-53.760L488.200,-53.292L491.400,-52.811L494.600,-52.317L497.800,-51.810L501,-51.291L504.200,-50.760L507.400,-50.217L510.600,-49.663L513.800,-49.098L517,-48.522L520.200,-47.937L523.400,-47.341L526.600,-46.736L529.800,-46.123L533,-45.500L536.200,-44.869L539.400,-44.231L542.600,-43.584L545.800,-42.931L549,-42.271L552.200,-41.604L555.400,-40.931L558.600,-40.253L561.800,-39.569L565,-38.880L568.200,-38.187L571.400,-37.489L574.600,-36.787L577.800,-36.082L581,-35.374L584.200,-34.663L587.400,-33.950L590.600,-33.234L593.800,-32.517L597,-31.799L600.200,-31.080L603.400,-30.360L606.600,-29.640L609.800,-28.920L613,-28.201L616.200,-27.483L619.400,-26.766L622.600,-26.050L625.800,-25.337L629,-24.626L632.200,-23.918L635.400,-23.213L638.600,-22.511L641.800,-21.813L645,-21.120L648.200,-20.431L651.400,-19.747L654.600,-19.069L657.800,-18.396L661,-17.729L664.200,-17.069L667.400,-16.416L670.600,-15.769L673.800,-15.131L677,-14.500L680.200,-13.877L683.400,-13.264L686.600,-12.659L689.800,-12.063L693,-11.478L696.200,-10.902L699.400,-10.337L702.600,-9.783L705.800,-9.240L709,-8.709L712.200,-8.190L715.400,-7.683L718.600,-7.189L721.800,-6.708L725,-6.240L728.200,-5.786L731.400,-5.347L734.600,-4.921L737.800,-4.511L741,-4.116L744.200,-3.737L747.400,-3.374L750.600,-3.027L753.800,-2.697L757,-2.385L760.200,-2.089L763.400,-1.812L766.600,-1.553L769.800,-1.312L773,-1.091L776.200,-0.888L779.400,-0.706L782.600,-0.543L785.800,-0.401L789,-0.280L792.200,-0.180L795.400,-0.102L798.600,-0.046L801.800,-0.011L805,0" stroke="rgb(61, 148, 255)" fill="none"/></g></g></svg>