<svg xmlns="http://www.w3.org/2000/svg" width="628" height="200" view_box="0 0 628 200" style="max-width:100%;height:auto;"><g transform="translate(0, 180)" fill="none" font-size="10" font-family="sans-serif" text-anchor="middle"><g class="tick" opacity="1" transform="translate(65.17948336408547, 0)"><line stroke="currentColor" y2="6"/><text fill="currentColor" y="9" dy="0.71em">1975</text></g><g class="tick" opacity="1" transform="translate(126.9119992857568, 0)"><line stroke="currentColor" y2="6"/><text fill="currentColor" y="9" dy="0.71em">1980</text></g><g class="tick" opacity="1" transform="translate(188.6783227188858, 0)"><line stroke="currentColor" y2="6"/><text fill="currentColor" y="9" dy="0.71em">1985</text></g><g class="tick" opacity="1" transform="translate(250.41083864055713, 0)"><line stroke="currentColor" y2="6"/><text fill="currentColor" y="9" dy="0.71em">1990</text></g><g class="tick" opacity="1" transform="translate(312.1433545622284, 0)"><line stroke="currentColor" y2="6"/><text fill="currentColor" y="9" dy="0.71em">1995</text></g><g class="tick" opacity="1" transform="translate(373.87587048389975, 0)"><line stroke="currentColor" y2="6"/><text fill="currentColor" y="9" dy="0.71em">2000</text></g><g class="tick" opacity="1" transform="translate(435.6421939170287, 0)"><line stroke="currentColor" y2="6"/><text fill="currentColor" y="9" dy="0.71em">2005</text></g><g class="tick" opacity="1" transform="translate(497.3747098387001, 0)"><line stroke="currentColor" y2="6"/><text fill="currentColor" y="9" dy="0.71em">2010</text></g><g class="tick" opacity="1" transform="translate(559.1072257603714, 0)"><line stroke="currentColor" y2="6"/><text fill="currentColor" y="9" dy="0.71em">2015</text></g></g><g transform="translate(40,0)" fill="none" font-size="10" font-family="sans-serif" text-anchor="end"><g class="tick" opacity="1" transform="translate(0, 180.5)"><line stroke="currentColor" x2="568" stroke-opacity="0.2"/><line stroke="currentColor" x2="-6"/><text fill="currentColor" x="-9" dy="0.32em">0</text></g><g class="tick" opacity="1" transform="translate(0, 144.5)"><line stroke="currentColor" x2="568" stroke-opacity="0.2"/><line stroke="currentColor" x2="-6"/><text fill="currentColor" x="-9" dy="0.32em">5</text></g><g class="tick" opacity="1" transform="translate(0, 109.5)"><line stroke="currentColor" x2="568" stroke-opacity="0.2"/><line stroke="currentColor" x2="-6"/><text fill="currentColor" x="-9" dy="0.32em">10</text></g><g class="tick" opacity="1" transform="translate(0, 73.5)"><line stroke="currentColor" x2="568" stroke-opacity="0.2"/><line stroke="currentColor" x2="-6"/><text fill="currentColor" x="-9" dy="0.32em">15</text></g><g class="tick" opacity="1" transform="translate(0, 37.5)"><line stroke="currentColor" x2="568" stroke-opacity="0.2"/><line stroke="currentColor" x2="-6"/><text fill="currentColor" x="-9" dy="0.32em">20</text></g><text x="-40" y="10" fill="currentColor" text-anchor="start">&#8593; Annual revenue (billions)</text></g><g><path fill="#59a14f" d="M40,151L52.340,152L64.679,153L77.019,150L89.393,148L101.733,146L114.072,154L126.412,163L138.786,169L151.125,174L163.465,175L175.805,175L188.178,175L200.518,176L212.858,176L225.198,176L237.571,174L249.911,173L262.251,174L274.590,173L286.964,172L299.304,172L311.643,173L323.983,172L336.357,171L348.696,171L361.036,173L373.376,175L385.749,175L398.089,177L410.429,175L422.769,172L435.142,164L447.482,159L459.822,152L472.161,152L484.535,151L496.875,150L509.214,148L521.554,145L533.928,143L546.267,144L558.607,142L570.947,134L583.321,125L595.660,116L608,109L608,109L595.660,116L583.321,125L570.947,134L558.607,142L546.267,144L533.928,143L521.554,145L509.214,148L496.875,150L484.535,151L472.161,152L459.822,152L447.482,159L435.142,164L422.769,172L410.429,175L398.089,177L385.749,175L373.376,175L361.036,173L348.696,171L336.357,171L323.983,172L311.643,173L299.304,172L286.964,172L274.590,173L262.251,174L249.911,173L237.571,174L225.198,176L212.858,176L200.518,176L188.178,175L175.805,175L163.465,175L151.125,175L138.786,175L126.412,174L114.072,171L101.733,173L89.393,173L77.019,172L64.679,172L52.340,172L40,172Z"><title>8 - Track</title></path><path fill="#4e79a7" d="M40,97L52.340,98L64.679,99L77.019,92L89.393,74L101.733,64L114.072,87L126.412,98L138.786,100L151.125,111L163.465,111L175.805,104L188.178,106L200.518,103L212.858,90L225.198,83L237.571,83L249.911,75L262.251,75L274.590,62L286.964,53L299.304,31L311.643,32L323.983,34L336.357,41L348.696,26L361.036,20L373.376,28L385.749,38L398.089,52L410.429,62L422.769,61L435.142,65L447.482,73L459.822,86L472.161,105L484.535,113L496.875,121L509.214,122L521.554,124L533.928,125L546.267,128L558.607,128L570.947,122L583.321,114L595.660,108L608,101L608,105L595.660,113L583.321,122L570.947,131L558.607,139L546.267,142L533.928,142L521.554,144L509.214,147L496.875,150L484.535,150L472.161,152L459.822,152L447.482,158L435.142,163L422.769,171L410.429,174L398.089,174L385.749,171L373.376,168L361.036,161L348.696,154L336.357,154L323.983,150L311.643,145L299.304,136L286.964,135L274.590,132L262.251,133L249.911,123L237.571,121L225.198,116L212.858,116L200.518,118L188.178,113L175.805,106L163.465,111L151.125,111L138.786,100L126.412,98L114.072,87L101.733,64L89.393,74L77.019,92L64.679,99L52.340,98L40,97Z"><title>CD</title></path><path fill="#4e79a7" d="M40,179L52.340,180L64.679,180L77.019,180L89.393,180L101.733,180L114.072,180L126.412,180L138.786,180L151.125,180L163.465,180L175.805,180L188.178,180L200.518,180L212.858,180L225.198,180L237.571,180L249.911,180L262.251,180L274.590,179L286.964,179L299.304,179L311.643,179L323.983,178L336.357,177L348.696,178L361.036,178L373.376,178L385.749,179L398.089,180L410.429,179L422.769,180L435.142,180L447.482,180L459.822,180L472.161,180L484.535,180L496.875,180L509.214,180L521.554,180L533.928,180L546.267,180L558.607,180L570.947,179L583.321,178L595.660,178L608,178L608,178L595.660,178L583.321,178L570.947,179L558.607,180L546.267,180L533.928,180L521.554,180L509.214,180L496.875,180L484.535,180L472.161,180L459.822,180L447.482,180L435.142,180L422.769,180L410.429,180L398.089,180L385.749,180L373.376,180L361.036,180L348.696,180L336.357,180L323.983,180L311.643,180L299.304,180L286.964,180L274.590,180L262.251,180L249.911,180L237.571,180L225.198,180L212.858,180L200.518,180L188.178,180L175.805,180L163.465,180L151.125,180L138.786,180L126.412,180L114.072,180L101.733,180L89.393,180L77.019,180L64.679,180L52.340,180L40,179Z"><title>CD Single</title></path><path fill="#59a14f" d="M40,97L52.340,98L64.679,99L77.019,92L89.393,74L101.733,64L114.072,87L126.412,98L138.786,100L151.125,111L163.465,111L175.805,106L188.178,113L200.518,118L212.858,116L225.198,116L237.571,121L249.911,123L262.251,133L274.590,132L286.964,135L299.304,136L311.643,145L323.983,150L336.357,154L348.696,154L361.036,161L373.376,168L385.749,171L398.089,174L410.429,174L422.769,171L435.142,163L447.482,158L459.822,152L472.161,152L484.535,150L496.875,150L509.214,147L521.554,144L533.928,142L546.267,142L558.607,139L570.947,131L583.321,122L595.660,113L608,105L608,105L595.660,113L583.321,122L570.947,131L558.607,139L546.267,142L533.928,142L521.554,144L509.214,147L496.875,150L484.535,150L472.161,152L459.822,152L447.482,158L435.142,164L422.769,172L410.429,175L398.089,176L385.749,175L373.376,175L361.036,172L348.696,170L336.357,171L323.983,172L311.643,172L299.304,172L286.964,172L274.590,172L262.251,174L249.911,171L237.571,170L225.198,168L212.858,164L200.518,160L188.178,153L175.805,148L163.465,144L151.125,137L138.786,121L126.412,114L114.072,102L101.733,77L89.393,82L77.019,97L64.679,102L52.340,102L40,100Z"><title>Cassette</title></path><path fill="#59a14f" d="M40,179L52.340,180L64.679,180L77.019,180L89.393,180L101.733,180L114.072,180L126.412,180L138.786,180L151.125,180L163.465,180L175.805,180L188.178,180L200.518,180L212.858,180L225.198,179L237.571,177L249.911,176L262.251,176L274.590,176L286.964,176L299.304,176L311.643,176L323.983,176L336.357,175L348.696,177L361.036,177L373.376,178L385.749,179L398.089,180L410.429,179L422.769,180L435.142,180L447.482,180L459.822,180L472.161,180L484.535,178L496.875,178L509.214,177L521.554,177L533.928,177L546.267,176L558.607,175L570.947,172L583.321,167L595.660,165L608,164L608,164L595.660,165L583.321,167L570.947,172L558.607,175L546.267,176L533.928,177L521.554,177L509.214,177L496.875,178L484.535,178L472.161,180L459.822,180L447.482,180L435.142,180L422.769,180L410.429,179L398.089,180L385.749,179L373.376,178L361.036,178L348.696,178L336.357,177L323.983,178L311.643,179L299.304,179L286.964,179L274.590,179L262.251,180L249.911,180L237.571,180L225.198,180L212.858,180L200.518,180L188.178,180L175.805,180L163.465,180L151.125,180L138.786,180L126.412,180L114.072,180L101.733,180L89.393,180L77.019,180L64.679,180L52.340,180L40,179Z"><title>Cassette Single</title></path><path fill="#e15759" d="M40,180L52.340,180L64.679,180L77.019,180L89.393,180L101.733,180L114.072,180L126.412,180L138.786,180L151.125,180L163.465,180L175.805,180L188.178,180L200.518,180L212.858,180L225.198,180L237.571,180L249.911,180L262.251,180L274.590,180L286.964,180L299.304,180L311.643,180L323.983,180L336.357,180L348.696,180L361.036,180L373.376,180L385.749,180L398.089,180L410.429,180L422.769,180L435.142,180L447.482,180L459.822,180L472.161,180L484.535,180L496.875,180L509.214,180L521.554,180L533.928,180L546.267,180L558.607,180L570.947,180L583.321,180L595.660,180L608,180L608,180L595.660,180L583.321,180L570.947,180L558.607,180L546.267,180L533.928,180L521.554,180L509.214,180L496.875,180L484.535,180L472.161,180L459.822,180L447.482,180L435.142,180L422.769,180L410.429,180L398.089,180L385.749,180L373.376,180L361.036,180L348.696,180L336.357,180L323.983,180L311.643,180L299.304,180L286.964,180L274.590,180L262.251,180L249.911,180L237.571,180L225.198,180L212.858,180L200.518,180L188.178,180L175.805,180L163.465,180L151.125,180L138.786,180L126.412,180L114.072,180L101.733,180L89.393,180L77.019,180L64.679,180L52.340,180L40,180Z"><title>DVD Audio</title></path><path fill="#f28e2c" d="M40,179L52.340,180L64.679,180L77.019,180L89.393,180L101.733,180L114.072,180L126.412,180L138.786,180L151.125,180L163.465,180L175.805,180L188.178,180L200.518,180L212.858,180L225.198,179L237.571,175L249.911,174L262.251,175L274.590,173L286.964,173L299.304,173L311.643,173L323.983,173L336.357,172L348.696,171L361.036,173L373.376,175L385.749,176L398.089,177L410.429,175L422.769,173L435.142,169L447.482,166L459.822,161L472.161,163L484.535,162L496.875,163L509.214,163L521.554,162L533.928,161L546.267,160L558.607,160L570.947,158L583.321,156L595.660,154L608,154L608,157L595.660,158L583.321,161L570.947,164L558.607,168L546.267,169L533.928,170L521.554,171L509.214,171L496.875,171L484.535,169L472.161,168L459.822,166L447.482,168L435.142,170L422.769,174L410.429,175L398.089,177L385.749,176L373.376,175L361.036,173L348.696,171L336.357,172L323.983,173L311.643,173L299.304,173L286.964,173L274.590,173L262.251,175L249.911,174L237.571,175L225.198,179L212.858,180L200.518,180L188.178,180L175.805,180L163.465,180L151.125,180L138.786,180L126.412,180L114.072,180L101.733,180L89.393,180L77.019,180L64.679,180L52.340,180L40,179Z"><title>Download Album</title></path><path fill="#f28e2c" d="M40,179L52.340,180L64.679,180L77.019,180L89.393,180L101.733,180L114.072,180L126.412,180L138.786,180L151.125,180L163.465,180L175.805,180L188.178,180L200.518,180L212.858,180L225.198,180L237.571,180L249.911,180L262.251,180L274.590,180L286.964,180L299.304,180L311.643,180L323.983,180L336.357,180L348.696,180L361.036,180L373.376,180L385.749,180L398.089,180L410.429,180L422.769,180L435.142,180L447.482,180L459.822,180L472.161,180L484.535,180L496.875,180L509.214,180L521.554,180L533.928,180L546.267,180L558.607,180L570.947,180L583.321,180L595.660,180L608,180L608,180L595.660,180L583.321,180L570.947,180L558.607,180L546.267,180L533.928,180L521.554,180L509.214,180L496.875,180L484.535,180L472.161,180L459.822,180L447.482,180L435.142,180L422.769,180L410.429,180L398.089,180L385.749,180L373.376,180L361.036,180L348.696,180L336.357,180L323.983,180L311.643,180L299.304,180L286.964,180L274.590,180L262.251,180L249.911,180L237.571,180L225.198,180L212.858,180L200.518,180L188.178,180L175.805,180L163.465,180L151.125,180L138.786,180L126.412,180L114.072,180L101.733,180L89.393,180L77.019,180L64.679,180L52.340,180L40,179Z"><title>Download Music Video</title></path><path fill="#f28e2c" d="M40,172L52.340,172L64.679,172L77.019,172L89.393,173L101.733,173L114.072,171L126.412,174L138.786,175L151.125,175L163.465,175L175.805,175L188.178,175L200.518,176L212.858,176L225.198,176L237.571,174L249.911,173L262.251,174L274.590,173L286.964,172L299.304,172L311.643,173L323.983,172L336.357,171L348.696,171L361.036,173L373.376,175L385.749,175L398.089,177L410.429,175L422.769,172L435.142,165L447.482,160L459.822,154L472.161,154L484.535,152L496.875,152L509.214,150L521.554,148L533.928,148L546.267,150L558.607,151L570.947,151L583.321,151L595.660,150L608,151L608,154L595.660,154L583.321,156L570.947,158L558.607,160L546.267,160L533.928,161L521.554,161L509.214,163L496.875,163L484.535,162L472.161,163L459.822,161L447.482,166L435.142,168L422.769,173L410.429,175L398.089,177L385.749,175L373.376,175L361.036,173L348.696,171L336.357,171L323.983,172L311.643,173L299.304,172L286.964,172L274.590,173L262.251,174L249.911,173L237.571,174L225.198,176L212.858,176L200.518,176L188.178,175L175.805,175L163.465,175L151.125,175L138.786,175L126.412,174L114.072,171L101.733,173L89.393,173L77.019,172L64.679,172L52.340,172L40,172Z"><title>Download Single</title></path><path fill="#e15759" d="M40,180L52.340,180L64.679,180L77.019,180L89.393,180L101.733,180L114.072,180L126.412,180L138.786,180L151.125,180L163.465,180L175.805,180L188.178,180L200.518,180L212.858,180L225.198,180L237.571,180L249.911,180L262.251,180L274.590,180L286.964,180L299.304,180L311.643,180L323.983,180L336.357,180L348.696,180L361.036,180L373.376,180L385.749,180L398.089,180L410.429,180L422.769,180L435.142,180L447.482,180L459.822,180L472.161,180L484.535,180L496.875,180L509.214,180L521.554,180L533.928,180L546.267,180L558.607,180L570.947,180L583.321,180L595.660,180L608,180L608,180L595.660,180L583.321,180L570.947,180L558.607,180L546.267,180L533.928,180L521.554,180L509.214,180L496.875,180L484.535,180L472.161,180L459.822,180L447.482,180L435.142,180L422.769,180L410.429,180L398.089,180L385.749,180L373.376,180L361.036,180L348.696,180L336.357,180L323.983,180L311.643,180L299.304,180L286.964,180L274.590,180L262.251,180L249.911,180L237.571,180L225.198,180L212.858,180L200.518,180L188.178,180L175.805,180L163.465,180L151.125,180L138.786,180L126.412,180L114.072,180L101.733,180L89.393,180L77.019,180L64.679,180L52.340,180L40,180Z"><title>Kiosk</title></path><path fill="#edc949" d="M40,100L52.340,102L64.679,102L77.019,97L89.393,82L101.733,77L114.072,102L126.412,114L138.786,121L151.125,137L163.465,144L175.805,148L188.178,153L200.518,160L212.858,164L225.198,168L237.571,170L249.911,171L262.251,174L274.590,172L286.964,172L299.304,172L311.643,172L323.983,172L336.357,171L348.696,170L361.036,172L373.376,175L385.749,175L398.089,176L410.429,175L422.769,172L435.142,164L447.482,158L459.822,152L472.161,152L484.535,150L496.875,150L509.214,147L521.554,144L533.928,142L546.267,142L558.607,139L570.947,131L583.321,122L595.660,113L608,105L608,109L595.660,116L583.321,125L570.947,134L558.607,142L546.267,144L533.928,143L521.554,145L509.214,148L496.875,150L484.535,151L472.161,152L459.822,152L447.482,159L435.142,164L422.769,172L410.429,175L398.089,177L385.749,175L373.376,175L361.036,173L348.696,171L336.357,171L323.983,172L311.643,173L299.304,172L286.964,172L274.590,173L262.251,174L249.911,173L237.571,174L225.198,176L212.858,176L200.518,176L188.178,175L175.805,175L163.465,175L151.125,174L138.786,169L126.412,163L114.072,154L101.733,146L89.393,148L77.019,150L64.679,153L52.340,152L40,151Z"><title>LP/EP</title></path><path fill="#76b7b2" d="M40,179L52.340,180L64.679,180L77.019,180L89.393,180L101.733,180L114.072,180L126.412,180L138.786,180L151.125,180L163.465,180L175.805,180L188.178,180L200.518,180L212.858,180L225.198,180L237.571,180L249.911,180L262.251,180L274.590,179L286.964,179L299.304,179L311.643,179L323.983,178L336.357,177L348.696,178L361.036,178L373.376,178L385.749,179L398.089,180L410.429,179L422.769,180L435.142,180L447.482,180L459.822,180L472.161,180L484.535,180L496.875,180L509.214,180L521.554,180L533.928,180L546.267,180L558.607,180L570.947,177L583.321,173L595.660,173L608,172L608,178L595.660,178L583.321,178L570.947,179L558.607,180L546.267,180L533.928,180L521.554,180L509.214,180L496.875,180L484.535,180L472.161,180L459.822,180L447.482,180L435.142,180L422.769,180L410.429,179L398.089,180L385.749,179L373.376,178L361.036,178L348.696,178L336.357,177L323.983,178L311.643,179L299.304,179L286.964,179L274.590,179L262.251,180L249.911,180L237.571,180L225.198,180L212.858,180L200.518,180L188.178,180L175.805,180L163.465,180L151.125,180L138.786,180L126.412,180L114.072,180L101.733,180L89.393,180L77.019,180L64.679,180L52.340,180L40,179Z"><title>Limited Tier Paid Subscription</title></path><path fill="#e15759" d="M40,179L52.340,180L64.679,180L77.019,180L89.393,180L101.733,180L114.072,180L126.412,180L138.786,180L151.125,180L163.465,180L175.805,180L188.178,180L200.518,180L212.858,180L225.198,179L237.571,175L249.911,174L262.251,175L274.590,173L286.964,173L299.304,173L311.643,173L323.983,173L336.357,172L348.696,171L361.036,173L373.376,175L385.749,176L398.089,177L410.429,175L422.769,174L435.142,170L447.482,168L459.822,166L472.161,168L484.535,169L496.875,171L509.214,171L521.554,171L533.928,170L546.267,169L558.607,168L570.947,164L583.321,161L595.660,158L608,157L608,157L595.660,158L583.321,162L570.947,165L558.607,169L546.267,170L533.928,171L521.554,172L509.214,173L496.875,172L484.535,171L472.161,170L459.822,170L447.482,172L435.142,176L422.769,180L410.429,179L398.089,180L385.749,179L373.376,178L361.036,177L348.696,177L336.357,175L323.983,176L311.643,176L299.304,176L286.964,176L274.590,176L262.251,176L249.911,176L237.571,177L225.198,179L212.858,180L200.518,180L188.178,180L175.805,180L163.465,180L151.125,180L138.786,180L126.412,180L114.072,180L101.733,180L89.393,180L77.019,180L64.679,180L52.340,180L40,179Z"><title>Music Video (Physical)</title></path><path fill="#76b7b2" d="M40,179L52.340,180L64.679,180L77.019,180L89.393,180L101.733,180L114.072,180L126.412,180L138.786,180L151.125,180L163.465,180L175.805,180L188.178,180L200.518,180L212.858,180L225.198,180L237.571,180L249.911,180L262.251,180L274.590,179L286.964,179L299.304,179L311.643,179L323.983,178L336.357,177L348.696,178L361.036,178L373.376,178L385.749,179L398.089,180L410.429,179L422.769,180L435.142,180L447.482,180L459.822,180L472.161,180L484.535,178L496.875,178L509.214,177L521.554,177L533.928,177L546.267,176L558.607,175L570.947,172L583.321,167L595.660,165L608,164L608,170L595.660,170L583.321,172L570.947,176L558.607,178L546.267,178L533.928,178L521.554,178L509.214,178L496.875,178L484.535,178L472.161,180L459.822,180L447.482,180L435.142,180L422.769,180L410.429,179L398.089,180L385.749,179L373.376,178L361.036,178L348.696,178L336.357,177L323.983,178L311.643,179L299.304,179L286.964,179L274.590,179L262.251,180L249.911,180L237.571,180L225.198,180L212.858,180L200.518,180L188.178,180L175.805,180L163.465,180L151.125,180L138.786,180L126.412,180L114.072,180L101.733,180L89.393,180L77.019,180L64.679,180L52.340,180L40,179Z"><title>On-Demand Streaming (Ad-Supported)</title></path><path fill="#76b7b2" d="M40,179L52.340,180L64.679,180L77.019,180L89.393,180L101.733,180L114.072,180L126.412,180L138.786,180L151.125,180L163.465,180L175.805,180L188.178,180L200.518,180L212.858,180L225.198,180L237.571,180L249.911,180L262.251,180L274.590,180L286.964,180L299.304,180L311.643,180L323.983,180L336.357,180L348.696,180L361.036,180L373.376,180L385.749,180L398.089,180L410.429,180L422.769,180L435.142,180L447.482,180L459.822,180L472.161,180L484.535,180L496.875,180L509.214,180L521.554,180L533.928,180L546.267,180L558.607,180L570.947,179L583.321,178L595.660,178L608,178L608,180L595.660,180L583.321,180L570.947,180L558.607,180L546.267,180L533.928,180L521.554,180L509.214,180L496.875,180L484.535,180L472.161,180L459.822,180L447.482,180L435.142,180L422.769,180L410.429,180L398.089,180L385.749,180L373.376,180L361.036,180L348.696,180L336.357,180L323.983,180L311.643,180L299.304,180L286.964,180L274.590,180L262.251,180L249.911,180L237.571,180L225.198,180L212.858,180L200.518,180L188.178,180L175.805,180L163.465,180L151.125,180L138.786,180L126.412,180L114.072,180L101.733,180L89.393,180L77.019,180L64.679,180L52.340,180L40,179Z"><title>Other Ad-Supported Streaming</title></path><path fill="#f28e2c" d="M40,180L52.340,180L64.679,180L77.019,180L89.393,180L101.733,180L114.072,180L126.412,180L138.786,180L151.125,180L163.465,180L175.805,180L188.178,180L200.518,180L212.858,180L225.198,180L237.571,180L249.911,180L262.251,180L274.590,180L286.964,180L299.304,180L311.643,180L323.983,180L336.357,180L348.696,180L361.036,180L373.376,180L385.749,180L398.089,180L410.429,180L422.769,180L435.142,180L447.482,180L459.822,180L472.161,180L484.535,180L496.875,180L509.214,180L521.554,180L533.928,180L546.267,180L558.607,180L570.947,180L583.321,180L595.660,180L608,180L608,180L595.660,180L583.321,180L570.947,180L558.607,180L546.267,180L533.928,180L521.554,180L509.214,180L496.875,180L484.535,180L472.161,180L459.822,180L447.482,180L435.142,180L422.769,180L410.429,180L398.089,180L385.749,180L373.376,180L361.036,180L348.696,180L336.357,180L323.983,180L311.643,180L299.304,180L286.964,180L274.590,180L262.251,180L249.911,180L237.571,180L225.198,180L212.858,180L200.518,180L188.178,180L175.805,180L163.465,180L151.125,180L138.786,180L126.412,180L114.072,180L101.733,180L89.393,180L77.019,180L64.679,180L52.340,180L40,180Z"><title>Other Digital</title></path><path fill="#59a14f" d="M40,179L52.340,180L64.679,180L77.019,180L89.393,180L101.733,180L114.072,180L126.412,180L138.786,180L151.125,180L163.465,180L175.805,180L188.178,180L200.518,180L212.858,180L225.198,180L237.571,180L249.911,180L262.251,180L274.590,180L286.964,180L299.304,180L311.643,180L323.983,180L336.357,180L348.696,180L361.036,180L373.376,180L385.749,180L398.089,180L410.429,180L422.769,180L435.142,180L447.482,180L459.822,180L472.161,180L484.535,180L496.875,180L509.214,180L521.554,180L533.928,180L546.267,180L558.607,180L570.947,180L583.321,180L595.660,180L608,180L608,180L595.660,180L583.321,180L570.947,180L558.607,180L546.267,180L533.928,180L521.554,180L509.214,180L496.875,180L484.535,180L472.161,180L459.822,180L447.482,180L435.142,180L422.769,180L410.429,180L398.089,180L385.749,180L373.376,180L361.036,180L348.696,180L336.357,180L323.983,180L311.643,180L299.304,180L286.964,180L274.590,180L262.251,180L249.911,180L237.571,180L225.198,180L212.858,180L200.518,180L188.178,180L175.805,180L163.465,180L151.125,180L138.786,180L126.412,180L114.072,180L101.733,180L89.393,180L77.019,180L64.679,180L52.340,180L40,180Z"><title>Other Tapes</title></path><path fill="#76b7b2" d="M40,172L52.340,172L64.679,172L77.019,172L89.393,173L101.733,173L114.072,171L126.412,174L138.786,175L151.125,175L163.465,175L175.805,175L188.178,175L200.518,176L212.858,176L225.198,176L237.571,174L249.911,173L262.251,174L274.590,173L286.964,172L299.304,172L311.643,173L323.983,172L336.357,171L348.696,171L361.036,173L373.376,175L385.749,175L398.089,177L410.429,175L422.769,172L435.142,164L447.482,159L459.822,152L472.161,152L484.535,151L496.875,150L509.214,148L521.554,145L533.928,143L546.267,144L558.607,142L570.947,134L583.321,125L595.660,116L608,109L608,151L595.660,150L583.321,151L570.947,151L558.607,151L546.267,150L533.928,148L521.554,148L509.214,150L496.875,152L484.535,152L472.161,154L459.822,154L447.482,160L435.142,165L422.769,172L410.429,175L398.089,177L385.749,175L373.376,175L361.036,173L348.696,171L336.357,171L323.983,172L311.643,173L299.304,172L286.964,172L274.590,173L262.251,174L249.911,173L237.571,174L225.198,176L212.858,176L200.518,176L188.178,175L175.805,175L163.465,175L151.125,175L138.786,175L126.412,174L114.072,171L101.733,173L89.393,173L77.019,172L64.679,172L52.340,172L40,172Z"><title>Paid Subscription</title></path><path fill="#f28e2c" d="M40,179L52.340,180L64.679,180L77.019,180L89.393,180L101.733,180L114.072,180L126.412,180L138.786,180L151.125,180L163.465,180L175.805,180L188.178,180L200.518,180L212.858,180L225.198,179L237.571,177L249.911,176L262.251,176L274.590,176L286.964,176L299.304,176L311.643,176L323.983,176L336.357,175L348.696,177L361.036,177L373.376,178L385.749,179L398.089,180L410.429,179L422.769,180L435.142,176L447.482,173L459.822,170L472.161,171L484.535,172L496.875,174L509.214,175L521.554,176L533.928,176L546.267,176L558.607,175L570.947,171L583.321,167L595.660,165L608,163L608,164L595.660,165L583.321,167L570.947,172L558.607,175L546.267,176L533.928,177L521.554,177L509.214,177L496.875,178L484.535,178L472.161,180L459.822,180L447.482,180L435.142,180L422.769,180L410.429,179L398.089,180L385.749,179L373.376,178L361.036,177L348.696,177L336.357,175L323.983,176L311.643,176L299.304,176L286.964,176L274.590,176L262.251,176L249.911,176L237.571,177L225.198,179L212.858,180L200.518,180L188.178,180L175.805,180L163.465,180L151.125,180L138.786,180L126.412,180L114.072,180L101.733,180L89.393,180L77.019,180L64.679,180L52.340,180L40,179Z"><title>Ringtones &amp; Ringbacks</title></path><path fill="#4e79a7" d="M40,180L52.340,180L64.679,180L77.019,180L89.393,180L101.733,180L114.072,180L126.412,180L138.786,180L151.125,180L163.465,180L175.805,180L188.178,180L200.518,180L212.858,180L225.198,180L237.571,180L249.911,180L262.251,180L274.590,180L286.964,180L299.304,180L311.643,180L323.983,180L336.357,180L348.696,180L361.036,180L373.376,180L385.749,180L398.089,180L410.429,180L422.769,180L435.142,180L447.482,180L459.822,180L472.161,180L484.535,180L496.875,180L509.214,180L521.554,180L533.928,180L546.267,180L558.607,180L570.947,180L583.321,180L595.660,180L608,180L608,180L595.660,180L583.321,180L570.947,180L558.607,180L546.267,180L533.928,180L521.554,180L509.214,180L496.875,180L484.535,180L472.161,180L459.822,180L447.482,180L435.142,180L422.769,180L410.429,180L398.089,180L385.749,180L373.376,180L361.036,180L348.696,180L336.357,180L323.983,180L311.643,180L299.304,180L286.964,180L274.590,180L262.251,180L249.911,180L237.571,180L225.198,180L212.858,180L200.518,180L188.178,180L175.805,180L163.465,180L151.125,180L138.786,180L126.412,180L114.072,180L101.733,180L89.393,180L77.019,180L64.679,180L52.340,180L40,180Z"><title>SACD</title></path><path fill="#76b7b2" d="M40,179L52.340,180L64.679,180L77.019,180L89.393,180L101.733,180L114.072,180L126.412,180L138.786,180L151.125,180L163.465,180L175.805,180L188.178,180L200.518,180L212.858,180L225.198,179L237.571,177L249.911,176L262.251,176L274.590,176L286.964,176L299.304,176L311.643,176L323.983,176L336.357,175L348.696,177L361.036,177L373.376,178L385.749,179L398.089,180L410.429,179L422.769,180L435.142,176L447.482,172L459.822,170L472.161,170L484.535,171L496.875,172L509.214,173L521.554,172L533.928,171L546.267,170L558.607,169L570.947,165L583.321,162L595.660,158L608,157L608,163L595.660,165L583.321,167L570.947,171L558.607,175L546.267,176L533.928,176L521.554,176L509.214,175L496.875,174L484.535,172L472.161,171L459.822,170L447.482,173L435.142,176L422.769,180L410.429,179L398.089,180L385.749,179L373.376,178L361.036,177L348.696,177L336.357,175L323.983,176L311.643,176L299.304,176L286.964,176L274.590,176L262.251,176L249.911,176L237.571,177L225.198,179L212.858,180L200.518,180L188.178,180L175.805,180L163.465,180L151.125,180L138.786,180L126.412,180L114.072,180L101.733,180L89.393,180L77.019,180L64.679,180L52.340,180L40,179Z"><title>SoundExchange Distributions</title></path><path fill="#e15759" d="M40,179L52.340,180L64.679,180L77.019,180L89.393,180L101.733,180L114.072,180L126.412,180L138.786,180L151.125,180L163.465,180L175.805,180L188.178,180L200.518,180L212.858,180L225.198,180L237.571,180L249.911,180L262.251,180L274.590,179L286.964,179L299.304,179L311.643,179L323.983,178L336.357,177L348.696,178L361.036,178L373.376,178L385.749,179L398.089,180L410.429,179L422.769,180L435.142,180L447.482,180L459.822,180L472.161,180L484.535,178L496.875,178L509.214,178L521.554,178L533.928,178L546.267,178L558.607,178L570.947,176L583.321,172L595.660,170L608,170L608,172L595.660,173L583.321,173L570.947,177L558.607,180L546.267,180L533.928,180L521.554,180L509.214,180L496.875,180L484.535,180L472.161,180L459.822,180L447.482,180L435.142,180L422.769,180L410.429,179L398.089,180L385.749,179L373.376,178L361.036,178L348.696,178L336.357,177L323.983,178L311.643,179L299.304,179L286.964,179L274.590,179L262.251,180L249.911,180L237.571,180L225.198,180L212.858,180L200.518,180L188.178,180L175.805,180L163.465,180L151.125,180L138.786,180L126.412,180L114.072,180L101.733,180L89.393,180L77.019,180L64.679,180L52.340,180L40,179Z"><title>Synchronization</title></path><path fill="#edc949" d="M40,172L52.340,172L64.679,172L77.019,172L89.393,173L101.733,173L114.072,171L126.412,174L138.786,175L151.125,175L163.465,175L175.805,175L188.178,175L200.518,176L212.858,176L225.198,176L237.571,174L249.911,173L262.251,174L274.590,173L286.964,172L299.304,172L311.643,173L323.983,172L336.357,171L348.696,171L361.036,173L373.376,175L385.749,175L398.089,177L410.429,175L422.769,173L435.142,168L447.482,166L459.822,161L472.161,163L484.535,162L496.875,163L509.214,163L521.554,161L533.928,161L546.267,160L558.607,160L570.947,158L583.321,156L595.660,154L608,154L608,154L595.660,154L583.321,156L570.947,158L558.607,160L546.267,160L533.928,161L521.554,162L509.214,163L496.875,163L484.535,162L472.161,163L459.822,161L447.482,166L435.142,169L422.769,173L410.429,175L398.089,177L385.749,176L373.376,175L361.036,173L348.696,171L336.357,172L323.983,173L311.643,173L299.304,173L286.964,173L274.590,173L262.251,175L249.911,174L237.571,175L225.198,179L212.858,180L200.518,180L188.178,180L175.805,180L163.465,180L151.125,180L138.786,180L126.412,180L114.072,180L101.733,180L89.393,180L77.019,180L64.679,180L52.340,180L40,179Z"><title>Vinyl Single</title></path></g></svg>