<svg xmlns="http://www.w3.org/2000/svg" width="810" height="300.0" viewBox="0 0 810 300.0"><g class="legend"><text x="8.0" y="12.0" fill="black">exponent</text><g transform="translate(8.0, 15.0)"><rect x="0" y="0" width="3" height="16.0" fill="rgb(48, 48, 48)"/><rect x="2" y="0" width="3" height="16.0" fill="rgb(48, 49, 49)"/><rect x="4" y="0" width="3" height="16.0" fill="rgb(48, 49, 51)"/><rect x="6" y="0" width="3" height="16.0" fill="rgb(48, 50, 52)"/><rect x="8" y="0" width="3" height="16.0" fill="rgb(48, 51, 54)"/><rect x="10" y="0" width="3" height="16.0" fill="rgb(48, 51, 55)"/><rect x="12" y="0" width="3" height="16.0" fill="rgb(49, 52, 56)"/><rect x="14" y="0" width="3" height="16.0" fill="rgb(49, 53, 58)"/><rect x="16" y="0" width="3" height="16.0" fill="rgb(49, 53, 59)"/><rect x="18" y="0" width="3" height="16.0" fill="rgb(49, 54, 60)"/><rect x="20" y="0" width="3" height="16.0" fill="rgb(49, 55, 62)"/><rect x="22" y="0" width="3" height="16.0" fill="rgb(49, 55, 63)"/><rect x="24" y="0" width="3" height="16.0" fill="rgb(49, 56, 65)"/><rect x="26" y="0" width="3" height="16.0" fill="rgb(49, 57, 66)"/><rect x="28" y="0" width="3" height="16.0" fill="rgb(49, 57, 67)"/><rect x="30" y="0" width="3" height="16.0" fill="rgb(49, 58, 69)"/><rect x="32" y="0" width="3" height="16.0" fill="rgb(49, 59, 70)"/><rect x="34" y="0" width="3" height="16.0" fill="rgb(49, 59, 71)"/><rect x="36" y="0" width="3" height="16.0" fill="rgb(50, 60, 73)"/><rect x="38" y="0" width="3" height="16.0" fill="rgb(50, 61, 74)"/><rect x="40" y="0" width="3" height="16.0" fill="rgb(50, 61, 76)"/><rect x="42" y="0" width="3" height="16.0" fill="rgb(50, 62, 77)"/><rect x="44" y="0" width="3" height="16.0" fill="rgb(50, 63, 78)"/><rect x="46" y="0" width="3" height="16.0" fill="rgb(50, 63, 80)"/><rect x="48" y="0" width="3" height="16.0" fill="rgb(50, 64, 81)"/><rect x="50" y="0" width="3" height="16.0" fill="rgb(50, 65, 82)"/><rect x="52" y="0" width="3" height="16.0" fill="rgb(50, 65, 84)"/><rect x="54" y="0" width="3" height="16.0" fill="rgb(50, 66, 85)"/><rect x="56" y="0" width="3" height="16.0" fill="rgb(50, 67, 87)"/><rect x="58" y="0" width="3" height="16.0" fill="rgb(51, 67, 88)"/><rect x="60" y="0" width="3" height="16.0" fill="rgb(51, 68, 89)"/><rect x="62" y="0" width="3" height="16.0" fill="rgb(51, 69, 91)"/><rect x="64" y="0" width="3" height="16.0" fill="rgb(51, 69, 92)"/><rect x="66" y="0" width="3" height="16.0" fill="rgb(51, 70, 94)"/><rect x="68" y="0" width="3" height="16.0" fill="rgb(51, 71, 95)"/><rect x="70" y="0" width="3" height="16.0" fill="rgb(51, 71, 96)"/><rect x="72" y="0" width="3" height="16.0" fill="rgb(51, 72, 98)"/><rect x="74" y="0" width="3" height="16.0" fill="rgb(51, 73, 99)"/><rect x="76" y="0" width="3" height="16.0" fill="rgb(51, 73, 100)"/><rect x="78" y="0" width="3" height="16.0" fill="rgb(51, 74, 102)"/><rect x="80" y="0" width="3" height="16.0" fill="rgb(51, 75, 103)"/><rect x="82" y="0" width="3" height="16.0" fill="rgb(52, 75, 105)"/><rect x="84" y="0" width="3" height="16.0" fill="rgb(52, 76, 106)"/><rect x="86" y="0" width="3" height="16.0" fill="rgb(52, 77, 107)"/><rect x="88" y="0" width="3" height="16.0" fill="rgb(52, 77, 109)"/><rect x="90" y="0" width="3" height="16.0" fill="rgb(52, 78, 110)"/><rect x="92" y="0" width="3" height="16.0" fill="rgb(52, 79, 111)"/><rect x="94" y="0" width="3" height="16.0" fill="rgb(52, 79, 113)"/><rect x="96" y="0" width="3" height="16.0" fill="rgb(52, 80, 114)"/><rect x="98" y="0" width="3" height="16.0" fill="rgb(52, 81, 116)"/><rect x="100" y="0" width="3" height="16.0" fill="rgb(52, 81, 117)"/><rect x="102" y="0" width="3" height="16.0" fill="rgb(52, 82, 118)"/><rect x="104" y="0" width="3" height="16.0" fill="rgb(53, 83, 120)"/><rect x="106" y="0" width="3" height="16.0" fill="rgb(53, 83, 121)"/><rect x="108" y="0" width="3" height="16.0" fill="rgb(53, 84, 123)"/><rect x="110" y="0" width="3" height="16.0" fill="rgb(53, 85, 124)"/><rect x="112" y="0" width="3" height="16.0" fill="rgb(53, 85, 125)"/><rect x="114" y="0" width="3" height="16.0" fill="rgb(53, 86, 127)"/><rect x="116" y="0" width="3" height="16.0" fill="rgb(53, 87, 128)"/><rect x="118" y="0" width="3" height="16.0" fill="rgb(53, 87, 129)"/><rect x="120" y="0" width="3" height="16.0" fill="rgb(53, 88, 131)"/><rect x="122" y="0" width="3" height="16.0" fill="rgb(53, 89, 132)"/><rect x="124" y="0" width="3" height="16.0" fill="rgb(53, 89, 134)"/><rect x="126" y="0" width="3" height="16.0" fill="rgb(53, 90, 135)"/><rect x="128" y="0" width="3" height="16.0" fill="rgb(54, 91, 136)"/><rect x="130" y="0" width="3" height="16.0" fill="rgb(54, 91, 138)"/><rect x="132" y="0" width="3" height="16.0" fill="rgb(54, 92, 139)"/><rect x="134" y="0" width="3" height="16.0" fill="rgb(54, 93, 140)"/><rect x="136" y="0" width="3" height="16.0" fill="rgb(54, 93, 142)"/><rect x="138" y="0" width="3" height="16.0" fill="rgb(54, 94, 143)"/><rect x="140" y="0" width="3" height="16.0" fill="rgb(54, 95, 145)"/><rect x="142" y="0" width="3" height="16.0" fill="rgb(54, 95, 146)"/><rect x="144" y="0" width="3" height="16.0" fill="rgb(54, 96, 147)"/><rect x="146" y="0" width="3" height="16.0" fill="rgb(54, 97, 149)"/><rect x="148" y="0" width="3" height="16.0" fill="rgb(54, 97, 150)"/><rect x="150" y="0" width="3" height="16.0" fill="rgb(54, 98, 152)"/><rect x="152" y="0" width="3" height="16.0" fill="rgb(55, 99, 153)"/><rect x="154" y="0" width="3" height="16.0" fill="rgb(55, 99, 154)"/><rect x="156" y="0" width="3" height="16.0" fill="rgb(55, 100, 156)"/><rect x="158" y="0" width="3" height="16.0" fill="rgb(55, 101, 157)"/><rect x="160" y="0" width="3" height="16.0" fill="rgb(55, 101, 158)"/><rect x="162" y="0" width="3" height="16.0" fill="rgb(55, 102, 160)"/><rect x="164" y="0" width="3" height="16.0" fill="rgb(55, 103, 161)"/><rect x="166" y="0" width="3" height="16.0" fill="rgb(55, 103, 163)"/><rect x="168" y="0" width="3" height="16.0" fill="rgb(55, 104, 164)"/><rect x="170" y="0" width="3" height="16.0" fill="rgb(55, 105, 165)"/><rect x="172" y="0" width="3" height="16.0" fill="rgb(55, 105, 167)"/><rect x="174" y="0" width="3" height="16.0" fill="rgb(56, 106, 168)"/><rect x="176" y="0" width="3" height="16.0" fill="rgb(56, 107, 169)"/><rect x="178" y="0" width="3" height="16.0" fill="rgb(56, 107, 171)"/><rect x="180" y="0" width="3" height="16.0" fill="rgb(56, 108, 172)"/><rect x="182" y="0" width="3" height="16.0" fill="rgb(56, 109, 174)"/><rect x="184" y="0" width="3" height="16.0" fill="rgb(56, 109, 175)"/><rect x="186" y="0" width="3" height="16.0" fill="rgb(56, 110, 176)"/><rect x="188" y="0" width="3" height="16.0" fill="rgb(56, 111, 178)"/><rect x="190" y="0" width="3" height="16.0" fill="rgb(56, 111, 179)"/><rect x="192" y="0" width="3" height="16.0" fill="rgb(56, 112, 180)"/><rect x="194" y="0" width="3" height="16.0" fill="rgb(56, 113, 182)"/><rect x="196" y="0" width="3" height="16.0" fill="rgb(56, 113, 183)"/><rect x="198" y="0" width="3" height="16.0" fill="rgb(57, 114, 185)"/><rect x="200" y="0" width="3" height="16.0" fill="rgb(57, 115, 186)"/><rect x="202" y="0" width="3" height="16.0" fill="rgb(57, 115, 187)"/><rect x="204" y="0" width="3" height="16.0" fill="rgb(57, 116, 189)"/><rect x="206" y="0" width="3" height="16.0" fill="rgb(57, 117, 190)"/><rect x="208" y="0" width="3" height="16.0" fill="rgb(57, 117, 192)"/><rect x="210" y="0" width="3" height="16.0" fill="rgb(57, 118, 193)"/><rect x="212" y="0" width="3" height="16.0" fill="rgb(57, 119, 194)"/><rect x="214" y="0" width="3" height="16.0" fill="rgb(57, 119, 196)"/><rect x="216" y="0" width="3" height="16.0" fill="rgb(57, 120, 197)"/><rect x="218" y="0" width="3" height="16.0" fill="rgb(57, 121, 198)"/><rect x="220" y="0" width="3" height="16.0" fill="rgb(58, 121, 200)"/><rect x="222" y="0" width="3" height="16.0" fill="rgb(58, 122, 201)"/><rect x="224" y="0" width="3" height="16.0" fill="rgb(58, 123, 203)"/><rect x="226" y="0" width="3" height="16.0" fill="rgb(58, 123, 204)"/><rect x="228" y="0" width="3" height="16.0" fill="rgb(58, 124, 205)"/><rect x="230" y="0" width="3" height="16.0" fill="rgb(58, 125, 207)"/><rect x="232" y="0" width="3" height="16.0" fill="rgb(58, 125, 208)"/><rect x="234" y="0" width="3" height="16.0" fill="rgb(58, 126, 209)"/><rect x="236" y="0" width="3" height="16.0" fill="rgb(58, 127, 211)"/><rect x="238" y="0" width="3" height="16.0" fill="rgb(58, 127, 212)"/><rect x="240" y="0" width="3" height="16.0" fill="rgb(58, 128, 214)"/><rect x="242" y="0" width="3" height="16.0" fill="rgb(58, 129, 215)"/><rect x="244" y="0" width="3" height="16.0" fill="rgb(59, 129, 216)"/><rect x="246" y="0" width="3" height="16.0" fill="rgb(59, 130, 218)"/><rect x="248" y="0" width="3" height="16.0" fill="rgb(59, 131, 219)"/><rect x="250" y="0" width="3" height="16.0" fill="rgb(59, 131, 221)"/><rect x="252" y="0" width="3" height="16.0" fill="rgb(59, 132, 222)"/><rect x="254" y="0" width="3" height="16.0" fill="rgb(59, 133, 223)"/><rect x="256" y="0" width="3" height="16.0" fill="rgb(59, 133, 225)"/><rect x="258" y="0" width="3" height="16.0" fill="rgb(59, 134, 226)"/><rect x="260" y="0" width="3" height="16.0" fill="rgb(59, 135, 227)"/><rect x="262" y="0" width="3" height="16.0" fill="rgb(59, 135, 229)"/><rect x="264" y="0" width="3" height="16.0" fill="rgb(59, 136, 230)"/><rect x="266" y="0" width="3" height="16.0" fill="rgb(60, 137, 232)"/><rect x="268" y="0" width="3" height="16.0" fill="rgb(60, 137, 233)"/><rect x="270" y="0" width="3" height="16.0" fill="rgb(60, 138, 234)"/><rect x="272" y="0" width="3" height="16.0" fill="rgb(60, 139, 236)"/><rect x="274" y="0" width="3" height="16.0" fill="rgb(60, 139, 237)"/><rect x="276" y="0" width="3" height="16.0" fill="rgb(60, 140, 238)"/><rect x="278" y="0" width="3" height="16.0" fill="rgb(60, 141, 240)"/><rect x="280" y="0" width="3" height="16.0" fill="rgb(60, 141, 241)"/><rect x="282" y="0" width="3" height="16.0" fill="rgb(60, 142, 243)"/><rect x="284" y="0" width="3" height="16.0" fill="rgb(60, 143, 244)"/><rect x="286" y="0" width="3" height="16.0" fill="rgb(60, 143, 245)"/><rect x="288" y="0" width="3" height="16.0" fill="rgb(60, 144, 247)"/><rect x="290" y="0" width="3" height="16.0" fill="rgb(61, 145, 248)"/><rect x="292" y="0" width="3" height="16.0" fill="rgb(61, 145, 249)"/><rect x="294" y="0" width="3" height="16.0" fill="rgb(61, 146, 251)"/><rect x="296" y="0" width="3" height="16.0" fill="rgb(61, 147, 252)"/><rect x="298" y="0" width="3" height="16.0" fill="rgb(61, 147, 254)"/></g><g transform="translate(8.0, 15.0)" fill="none" font-size="10" font-family="sans-serif" text-anchor="middle"><g class="tick" opacity="1" transform="translate(50.5, 0)"><line stroke="black" y2="19.2"/><text fill="black" y="22.2" dy="0.71em">1</text></g><g class="tick" opacity="1" transform="translate(133.83333333333334, 0)"><line stroke="black" y2="19.2"/><text fill="black" y="22.2" dy="0.71em">2</text></g><g class="tick" opacity="1" transform="translate(217.16666666666666, 0)"><line stroke="black" y2="19.2"/><text fill="black" y="22.2" dy="0.71em">3</text></g><g class="tick" opacity="1" transform="translate(300.5, 0)"><line stroke="black" y2="19.2"/><text fill="black" y="22.2" dy="0.71em">4</text></g></g></g><g class="main" transform="translate(0, 60)"><rect x="5" y="0" width="800" height="240.0" fill="#d4d4d1"/><g class="xlines"><line x1="25.0" y1="240.0" x2="25.0" y2="0.0" stroke="#f8f8f8"/><line x1="45.0" y1="240.0" x2="45.0" y2="0.0" stroke="#f8f8f8"/><line x1="65.0" y1="240.0" x2="65.0" y2="0.0" stroke="#f8f8f8"/><line x1="85.0" y1="240.0" x2="85.0" y2="0.0" stroke="#f8f8f8"/><line x1="105.0" y1="240.0" x2="105.0" y2="0.0" stroke="#f8f8f8"/><line x1="125.0" y1="240.0" x2="125.0" y2="0.0" stroke="#f8f8f8"/><line x1="145.0" y1="240.0" x2="145.0" y2="0.0" stroke="#f8f8f8"/><line x1="165.0" y1="240.0" x2="165.0" y2="0.0" stroke="#f8f8f8"/><line x1="185.0" y1="240.0" x2="185.0" y2="0.0" stroke="#f8f8f8"/><line x1="205.0" y1="240.0" x2="205.0" y2="0.0" stroke="#f8f8f8"/><line x1="225.00000000000003" y1="240.0" x2="225.00000000000003" y2="0.0" stroke="#f8f8f8"/><line x1="245.0" y1="240.0" x2="245.0" y2="0.0" stroke="#f8f8f8"/><line x1="265.0" y1="240.0" x2="265.0" y2="0.0" stroke="#f8f8f8"/><line x1="285.0" y1="240.0" x2="285.0" y2="0.0" stroke="#f8f8f8"/><line x1="305.0" y1="240.0" x2="305.0" y2="0.0" stroke="#f8f8f8"/><line x1="325.0" y1="240.0" x2="325.0" y2="0.0" stroke="#f8f8f8"/><line x1="345.0" y1="240.0" x2="345.0" y2="0.0" stroke="#f8f8f8"/><line x1="365.0" y1="240.0" x2="365.0" y2="0.0" stroke="#f8f8f8"/><line x1="385.0" y1="240.0" x2="385.0" y2="0.0" stroke="#f8f8f8"/><line x1="405.0" y1="240.0" x2="405.0" y2="0.0" stroke="#f8f8f8"/><line x1="425.0" y1="240.0" x2="425.0" y2="0.0" stroke="#f8f8f8"/><line x1="445.00000000000006" y1="240.0" x2="445.00000000000006" y2="0.0" stroke="#f8f8f8"/><line x1="464.99999999999994" y1="240.0" x2="464.99999999999994" y2="0.0" stroke="#f8f8f8"/><line x1="485.0" y1="240.0" x2="485.0" y2="0.0" stroke="#f8f8f8"/><line x1="505.0" y1="240.0" x2="505.0" y2="0.0" stroke="#f8f8f8"/><line x1="525.0" y1="240.0" x2="525.0" y2="0.0" stroke="#f8f8f8"/><line x1="545.0" y1="240.0" x2="545.0" y2="0.0" stroke="#f8f8f8"/><line x1="565.0" y1="240.0" x2="565.0" y2="0.0" stroke="#f8f8f8"/><line x1="585.0" y1="240.0" x2="585.0" y2="0.0" stroke="#f8f8f8"/><line x1="605.0" y1="240.0" x2="605.0" y2="0.0" stroke="#f8f8f8"/><line x1="625.0" y1="240.0" x2="625.0" y2="0.0" stroke="#f8f8f8"/><line x1="645.0" y1="240.0" x2="645.0" y2="0.0" stroke="#f8f8f8"/><line x1="665.0" y1="240.0" x2="665.0" y2="0.0" stroke="#f8f8f8"/><line x1="685.0" y1="240.0" x2="685.0" y2="0.0" stroke="#f8f8f8"/><line x1="705.0" y1="240.0" x2="705.0" y2="0.0" stroke="#f8f8f8"/><line x1="725.0" y1="240.0" x2="725.0" y2="0.0" stroke="#f8f8f8"/><line x1="745.0" y1="240.0" x2="745.0" y2="0.0" stroke="#f8f8f8"/><line x1="765.0" y1="240.0" x2="765.0" y2="0.0" stroke="#f8f8f8"/><line x1="785.0" y1="240.0" x2="785.0" y2="0.0" stroke="#f8f8f8"/></g><g class="ylines"><line x1="5.0" y1="220.0" x2="805.0" y2="220.0" stroke="#f8f8f8"/><line x1="5.0" y1="200.0" x2="805.0" y2="200.0" stroke="#f8f8f8"/><line x1="5.0" y1="180.0" x2="805.0" y2="180.0" stroke="#f8f8f8"/><line x1="5.0" y1="160.00000000000003" x2="805.0" y2="160.00000000000003" stroke="#f8f8f8"/><line x1="5.0" y1="139.99999999999997" x2="805.0" y2="139.99999999999997" stroke="#f8f8f8"/><line x1="5.0" y1="120.0" x2="805.0" y2="120.0" stroke="#f8f8f8"/><line x1="5.0" y1="99.99999999999999" x2="805.0" y2="99.99999999999999" stroke="#f8f8f8"/><line x1="5.0" y1="80.00000000000001" x2="805.0" y2="80.00000000000001" stroke="#f8f8f8"/><line x1="5.0" y1="60.0" x2="805.0" y2="60.0" stroke="#f8f8f8"/><line x1="5.0" y1="39.99999999999999" x2="805.0" y2="39.99999999999999" stroke="#f8f8f8"/><line x1="5.0" y1="20.000000000000007" x2="805.0" y2="20.000000000000007" stroke="#f8f8f8"/></g><g class="ease"><path d="M5,240L8.200,213.635L11.400,205.211L14.600,199.085L17.800,194.095L21,189.809L24.200,186.012L27.400,182.579L30.600,179.428L33.800,176.506L37,173.773L40.200,171.199L43.400,168.763L46.600,166.445L49.800,164.232L53,162.112L56.200,160.075L59.400,158.113L62.600,156.219L65.800,154.388L69,152.613L72.200,150.891L75.400,149.217L78.600,147.588L81.800,146.002L85,144.454L88.200,142.944L91.400,141.467L94.600,140.023L97.800,138.610L101,137.226L104.200,135.869L107.400,134.538L110.600,133.232L113.800,131.949L117,130.689L120.200,129.451L123.400,128.232L126.600,127.034L129.800,125.854L133,124.692L136.200,123.548L139.400,122.420L142.600,121.308L145.800,120.211L149,119.130L152.200,118.062L155.400,117.009L158.600,115.969L161.800,114.941L165,113.927L168.200,112.924L171.400,111.933L174.600,110.954L177.800,109.985L181,109.027L184.200,108.080L187.400,107.143L190.600,106.215L193.800,105.297L197,104.389L200.200,103.489L203.400,102.598L206.600,101.716L209.800,100.842L213,99.977L216.200,99.119L219.400,98.269L222.600,97.427L225.800,96.592L229,95.764L232.200,94.943L235.400,94.129L238.600,93.322L241.800,92.522L245,91.728L248.200,90.940L251.400,90.159L254.600,89.383L257.800,88.614L261,87.850L264.200,87.092L267.400,86.340L270.600,85.593L273.800,84.852L277,84.116L280.200,83.385L283.400,82.659L286.600,81.938L289.800,81.222L293,80.510L296.200,79.804L299.400,79.102L302.600,78.405L305.800,77.712L309,77.024L312.200,76.340L315.400,75.660L318.600,74.984L321.800,74.313L325,73.645L328.200,72.982L331.400,72.322L334.600,71.667L337.800,71.015L341,70.367L344.200,69.722L347.400,69.082L350.600,68.444L353.800,67.811L357,67.181L360.200,66.554L363.400,65.931L366.600,65.311L369.800,64.694L373,64.080L376.200,63.470L379.400,62.863L382.600,62.259L385.800,61.658L389,61.060L392.200,60.465L395.400,59.873L398.600,59.284L401.800,58.697L405,58.114L408.200,57.533L411.400,56.955L414.600,56.380L417.800,55.808L421,55.238L424.200,54.671L427.400,54.106L430.600,53.544L433.800,52.985L437,52.428L440.200,51.873L443.400,51.321L446.600,50.771L449.800,50.224L453,49.679L456.200,49.137L459.400,48.596L462.600,48.058L465.800,47.522L469,46.989L472.200,46.457L475.400,45.928L478.600,45.401L481.800,44.876L485,44.354L488.200,43.833L491.400,43.314L494.600,42.798L497.800,42.283L501,41.771L504.200,41.260L507.400,40.751L510.600,40.245L513.800,39.740L517,39.237L520.200,38.736L523.400,38.237L526.600,37.740L529.800,37.244L533,36.751L536.200,36.259L539.400,35.769L542.600,35.281L545.800,34.794L549,34.309L552.200,33.826L555.400,33.345L558.600,32.865L561.800,32.387L565,31.910L568.200,31.436L571.400,30.962L574.600,30.491L577.800,30.021L581,29.552L584.200,29.085L587.400,28.620L590.600,28.156L593.800,27.694L597,27.233L600.200,26.774L603.400,26.316L606.600,25.860L609.800,25.405L613,24.951L616.200,24.499L619.400,24.049L622.600,23.600L625.800,23.152L629,22.705L632.200,22.260L635.400,21.817L638.600,21.374L641.800,20.933L645,20.494L648.200,20.055L651.400,19.618L654.600,19.182L657.800,18.748L661,18.315L664.200,17.883L667.400,17.452L670.600,17.023L673.800,16.595L677,16.168L680.200,15.742L683.400,15.317L686.600,14.894L689.800,14.472L693,14.051L696.200,13.631L699.400,13.212L702.600,12.795L705.800,12.379L709,11.964L712.200,11.549L715.400,11.137L718.600,10.725L721.800,10.314L725,9.904L728.200,9.496L731.400,9.088L734.600,8.682L737.800,8.277L741,7.873L744.200,7.469L747.400,7.067L750.600,6.666L753.800,6.266L757,5.867L760.200,5.469L763.400,5.072L766.600,4.676L769.800,4.281L773,3.887L776.200,3.494L779.400,3.102L782.600,2.711L785.800,2.321L789,1.932L792.200,1.543L795.400,1.156L798.600,0.770L801.800,0.384L805,0" stroke="rgb(48, 48, 48)" fill="none"/><path d="M5,240L8.200,239.505L11.400,238.924L14.600,238.306L17.800,237.662L21,236.998L24.200,236.318L27.400,235.624L30.600,234.919L33.800,234.202L37,233.476L40.200,232.741L43.400,231.998L46.600,231.247L49.800,230.490L53,229.726L56.200,228.956L59.400,228.180L62.600,227.398L65.800,226.612L69,225.820L72.200,225.024L75.400,224.223L78.600,223.417L81.800,222.608L85,221.794L88.200,220.977L91.400,220.155L94.600,219.330L97.800,218.502L101,217.670L104.200,216.834L107.400,215.996L110.600,215.154L113.800,214.309L117,213.462L120.200,212.611L123.400,211.757L126.600,210.901L129.800,210.042L133,209.180L136.200,208.316L139.400,207.450L142.600,206.580L145.800,205.709L149,204.835L152.200,203.958L155.400,203.079L158.600,202.199L161.800,201.315L165,200.430L168.200,199.543L171.400,198.653L174.600,197.762L177.800,196.868L181,195.972L184.200,195.075L187.400,194.175L190.600,193.274L193.800,192.371L197,191.466L200.200,190.559L203.400,189.650L206.600,188.740L209.800,187.828L213,186.914L216.200,185.998L219.400,185.081L222.600,184.162L225.800,183.242L229,182.320L232.200,181.396L235.400,180.471L238.600,179.544L241.800,178.616L245,177.686L248.200,176.754L251.400,175.822L254.600,174.887L257.800,173.952L261,173.015L264.200,172.076L267.400,171.136L270.600,170.195L273.800,169.252L277,168.309L280.200,167.363L283.400,166.417L286.600,165.469L289.800,164.519L293,163.569L296.200,162.617L299.400,161.664L302.600,160.710L305.800,159.754L309,158.798L312.200,157.840L315.400,156.881L318.600,155.920L321.800,154.959L325,153.996L328.200,153.032L331.400,152.067L334.600,151.101L337.800,150.134L341,149.166L344.200,148.196L347.400,147.226L350.600,146.254L353.800,145.281L357,144.307L360.200,143.333L363.400,142.357L366.600,141.380L369.800,140.402L373,139.423L376.200,138.443L379.400,137.462L382.600,136.480L385.800,135.496L389,134.512L392.200,133.527L395.400,132.541L398.600,131.554L401.800,130.566L405,129.577L408.200,128.588L411.400,127.597L414.600,126.605L417.800,125.612L421,124.619L424.200,123.624L427.400,122.629L430.600,121.633L433.800,120.635L437,119.637L440.200,118.638L443.400,117.638L446.600,116.638L449.800,115.636L453,114.633L456.200,113.630L459.400,112.626L462.600,111.621L465.800,110.615L469,109.608L472.200,108.601L475.400,107.592L478.600,106.583L481.800,105.573L485,104.562L488.200,103.550L491.400,102.538L494.600,101.525L497.800,100.510L501,99.496L504.200,98.480L507.400,97.464L510.600,96.446L513.800,95.428L517,94.410L520.200,93.390L523.400,92.370L526.600,91.349L529.800,90.327L533,89.304L536.200,88.281L539.400,87.257L542.600,86.232L545.800,85.207L549,84.181L552.200,83.154L555.400,82.126L558.600,81.098L561.800,80.069L565,79.039L568.200,78.008L571.400,76.977L574.600,75.945L577.800,74.913L581,73.879L584.200,72.845L587.400,71.811L590.600,70.775L593.800,69.739L597,68.703L600.200,67.665L603.400,66.627L606.600,65.588L609.800,64.549L613,63.509L616.200,62.468L619.400,61.427L622.600,60.385L625.800,59.342L629,58.299L632.200,57.255L635.400,56.211L638.600,55.165L641.800,54.119L645,53.073L648.200,52.026L651.400,50.978L654.600,49.930L657.800,48.881L661,47.831L664.200,46.781L667.400,45.730L670.600,44.679L673.800,43.627L677,42.574L680.200,41.521L683.400,40.467L686.600,39.413L689.800,38.358L693,37.302L696.200,36.246L699.400,35.189L702.600,34.132L705.800,33.074L709,32.015L712.200,30.956L715.400,29.896L718.600,28.836L721.800,27.775L725,26.714L728.200,25.652L731.400,24.589L734.600,23.526L737.800,22.462L741,21.398L744.200,20.333L747.400,19.268L750.600,18.202L753.800,17.136L757,16.069L760.200,15.001L763.400,13.933L766.600,12.865L769.800,11.796L773,10.726L776.200,9.656L779.400,8.585L782.600,7.514L785.800,6.442L789,5.370L792.200,4.297L795.400,3.223L798.600,2.149L801.800,1.075L805,0" stroke="rgb(51, 68, 89)" fill="none"/><path d="M5,240L8.200,239.991L11.400,239.967L14.600,239.930L17.800,239.881L21,239.820L24.200,239.749L27.400,239.667L30.600,239.574L33.800,239.471L37,239.357L40.200,239.234L43.400,239.101L46.600,238.959L49.800,238.806L53,238.645L56.200,238.474L59.400,238.294L62.600,238.105L65.800,237.906L69,237.699L72.200,237.483L75.400,237.258L78.600,237.024L81.800,236.782L85,236.531L88.200,236.271L91.400,236.003L94.600,235.727L97.800,235.442L101,235.148L104.200,234.846L107.400,234.536L110.600,234.218L113.800,233.892L117,233.557L120.200,233.214L123.400,232.863L126.600,232.504L129.800,232.138L133,231.763L136.200,231.380L139.400,230.989L142.600,230.590L145.800,230.184L149,229.769L152.200,229.347L155.400,228.917L158.600,228.479L161.800,228.034L165,227.580L168.200,227.120L171.400,226.651L174.600,226.175L177.800,225.691L181,225.200L184.200,224.701L187.400,224.194L190.600,223.680L193.800,223.159L197,222.630L200.200,222.094L203.400,221.550L206.600,220.998L209.800,220.440L213,219.874L216.200,219.300L219.400,218.720L222.600,218.132L225.800,217.536L229,216.933L232.200,216.324L235.400,215.706L238.600,215.082L241.800,214.450L245,213.811L248.200,213.165L251.400,212.512L254.600,211.851L257.800,211.184L261,210.509L264.200,209.827L267.400,209.138L270.600,208.442L273.800,207.739L277,207.029L280.200,206.312L283.400,205.587L286.600,204.856L289.800,204.118L293,203.372L296.200,202.620L299.400,201.861L302.600,201.095L305.800,200.321L309,199.541L312.200,198.754L315.400,197.960L318.600,197.159L321.800,196.351L325,195.537L328.200,194.715L331.400,193.887L334.600,193.051L337.800,192.209L341,191.360L344.200,190.505L347.400,189.642L350.600,188.773L353.800,187.897L357,187.014L360.200,186.124L363.400,185.227L366.600,184.324L369.800,183.414L373,182.498L376.200,181.574L379.400,180.644L382.600,179.707L385.800,178.764L389,177.814L392.200,176.857L395.400,175.893L398.600,174.923L401.800,173.946L405,172.963L408.200,171.973L411.400,170.976L414.600,169.973L417.800,168.963L421,167.946L424.200,166.923L427.400,165.893L430.600,164.857L433.800,163.814L437,162.765L440.200,161.709L443.400,160.646L446.600,159.577L449.800,158.502L453,157.420L456.200,156.331L459.400,155.236L462.600,154.134L465.800,153.026L469,151.912L472.200,150.791L475.400,149.663L478.600,148.529L481.800,147.389L485,146.242L488.200,145.088L491.400,143.929L494.600,142.762L497.800,141.590L501,140.411L504.200,139.225L507.400,138.034L510.600,136.835L513.800,135.631L517,134.420L520.200,133.202L523.400,131.979L526.600,130.749L529.800,129.512L533,128.269L536.200,127.020L539.400,125.765L542.600,124.503L545.800,123.235L549,121.960L552.200,120.680L555.400,119.393L558.600,118.099L561.800,116.800L565,115.494L568.200,114.181L571.400,112.863L574.600,111.538L577.800,110.207L581,108.870L584.200,107.526L587.400,106.176L590.600,104.820L593.800,103.458L597,102.089L600.200,100.715L603.400,99.334L606.600,97.946L609.800,96.553L613,95.153L616.200,93.748L619.400,92.336L622.600,90.917L625.800,89.493L629,88.062L632.200,86.626L635.400,85.183L638.600,83.734L641.800,82.278L645,80.817L648.200,79.349L651.400,77.876L654.600,76.396L657.800,74.910L661,73.418L664.200,71.920L667.400,70.415L670.600,68.905L673.800,67.388L677,65.865L680.200,64.337L683.400,62.802L686.600,61.261L689.800,59.714L693,58.160L696.200,56.601L699.400,55.036L702.600,53.464L705.800,51.887L709,50.303L712.200,48.714L715.400,47.118L718.600,45.517L721.800,43.909L725,42.295L728.200,40.675L731.400,39.049L734.600,37.418L737.800,35.780L741,34.136L744.200,32.486L747.400,30.830L750.600,29.168L753.800,27.500L757,25.826L760.200,24.146L763.400,22.460L766.600,20.768L769.800,19.070L773,17.367L776.200,15.657L779.400,13.941L782.600,12.219L785.800,10.491L789,8.758L792.200,7.018L795.400,5.272L798.600,3.521L801.800,1.763L805,0" stroke="rgb(53, 88, 131)" fill="none"/><path d="M5,240L8.200,240L11.400,239.999L14.600,239.997L17.800,239.994L21,239.989L24.200,239.983L27.400,239.975L30.600,239.964L33.800,239.952L37,239.937L40.200,239.919L43.400,239.899L46.600,239.876L49.800,239.850L53,239.821L56.200,239.789L59.400,239.754L62.600,239.715L65.800,239.673L69,239.627L72.200,239.577L75.400,239.523L78.600,239.466L81.800,239.405L85,239.339L88.200,239.269L91.400,239.195L94.600,239.116L97.800,239.033L101,238.946L104.200,238.854L107.400,238.756L110.600,238.655L113.800,238.548L117,238.436L120.200,238.319L123.400,238.197L126.600,238.069L129.800,237.936L133,237.798L136.200,237.655L139.400,237.505L142.600,237.350L145.800,237.190L149,237.023L152.200,236.851L155.400,236.673L158.600,236.489L161.800,236.298L165,236.102L168.200,235.899L171.400,235.690L174.600,235.475L177.800,235.253L181,235.025L184.200,234.790L187.400,234.548L190.600,234.300L193.800,234.045L197,233.783L200.200,233.515L203.400,233.239L206.600,232.956L209.800,232.667L213,232.370L216.200,232.066L219.400,231.754L222.600,231.435L225.800,231.109L229,230.776L232.200,230.435L235.400,230.086L238.600,229.730L241.800,229.365L245,228.994L248.200,228.614L251.400,228.227L254.600,227.831L257.800,227.428L261,227.016L264.200,226.597L267.400,226.169L270.600,225.733L273.800,225.289L277,224.837L280.200,224.376L283.400,223.906L286.600,223.429L289.800,222.942L293,222.447L296.200,221.944L299.400,221.431L302.600,220.910L305.800,220.380L309,219.842L312.200,219.294L315.400,218.737L318.600,218.172L321.800,217.597L325,217.013L328.200,216.420L331.400,215.817L334.600,215.206L337.800,214.585L341,213.955L344.200,213.315L347.400,212.666L350.600,212.007L353.800,211.339L357,210.661L360.200,209.973L363.400,209.276L366.600,208.568L369.800,207.851L373,207.125L376.200,206.388L379.400,205.641L382.600,204.884L385.800,204.117L389,203.340L392.200,202.553L395.400,201.756L398.600,200.948L401.800,200.130L405,199.302L408.200,198.463L411.400,197.614L414.600,196.754L417.800,195.884L421,195.003L424.200,194.112L427.400,193.210L430.600,192.297L433.800,191.373L437,190.439L440.200,189.494L443.400,188.538L446.600,187.571L449.800,186.592L453,185.603L456.200,184.603L459.400,183.592L462.600,182.569L465.800,181.535L469,180.490L472.200,179.434L475.400,178.366L478.600,177.287L481.800,176.197L485,175.095L488.200,173.981L491.400,172.856L494.600,171.720L497.800,170.571L501,169.411L504.200,168.240L507.400,167.056L510.600,165.861L513.800,164.654L517,163.435L520.200,162.204L523.400,160.961L526.600,159.706L529.800,158.439L533,157.159L536.200,155.868L539.400,154.564L542.600,153.249L545.800,151.921L549,150.580L552.200,149.227L555.400,147.862L558.600,146.485L561.800,145.095L565,143.692L568.200,142.277L571.400,140.849L574.600,139.409L577.800,137.956L581,136.490L584.200,135.011L587.400,133.520L590.600,132.016L593.800,130.499L597,128.969L600.200,127.426L603.400,125.870L606.600,124.301L609.800,122.719L613,121.124L616.200,119.516L619.400,117.894L622.600,116.260L625.800,114.612L629,112.950L632.200,111.276L635.400,109.588L638.600,107.886L641.800,106.171L645,104.443L648.200,102.701L651.400,100.946L654.600,99.177L657.800,97.394L661,95.598L664.200,93.787L667.400,91.963L670.600,90.126L673.800,88.274L677,86.409L680.200,84.530L683.400,82.636L686.600,80.729L689.800,78.808L693,76.872L696.200,74.923L699.400,72.960L702.600,70.982L705.800,68.990L709,66.984L712.200,64.963L715.400,62.929L718.600,60.880L721.800,58.816L725,56.738L728.200,54.646L731.400,52.539L734.600,50.418L737.800,48.282L741,46.131L744.200,43.966L747.400,41.786L750.600,39.592L753.800,37.382L757,35.158L760.200,32.919L763.400,30.666L766.600,28.397L769.800,26.113L773,23.815L776.200,21.502L779.400,19.173L782.600,16.829L785.800,14.471L789,12.097L792.200,9.708L795.400,7.304L798.600,4.885L801.800,2.450L805,0" stroke="rgb(56, 108, 172)" fill="none"/><path d="M5,240L8.200,240L11.400,240L14.600,240L17.800,240L21,239.999L24.200,239.999L27.400,239.998L30.600,239.997L33.800,239.996L37,239.994L40.200,239.991L43.400,239.989L46.600,239.985L49.800,239.981L53,239.976L56.200,239.971L59.400,239.964L62.600,239.957L65.800,239.949L69,239.939L72.200,239.929L75.400,239.917L78.600,239.904L81.800,239.890L85,239.874L88.200,239.857L91.400,239.838L94.600,239.817L97.800,239.795L101,239.771L104.200,239.745L107.400,239.717L110.600,239.687L113.800,239.655L117,239.620L120.200,239.583L123.400,239.544L126.600,239.503L129.800,239.458L133,239.412L136.200,239.362L139.400,239.309L142.600,239.254L145.800,239.196L149,239.134L152.200,239.069L155.400,239.001L158.600,238.930L161.800,238.855L165,238.777L168.200,238.694L171.400,238.609L174.600,238.519L177.800,238.425L181,238.328L184.200,238.226L187.400,238.120L190.600,238.009L193.800,237.894L197,237.775L200.200,237.651L203.400,237.523L206.600,237.389L209.800,237.251L213,237.107L216.200,236.959L219.400,236.805L222.600,236.646L225.800,236.481L229,236.311L232.200,236.135L235.400,235.954L238.600,235.767L241.800,235.574L245,235.374L248.200,235.169L251.400,234.957L254.600,234.739L257.800,234.515L261,234.284L264.200,234.046L267.400,233.802L270.600,233.550L273.800,233.292L277,233.026L280.200,232.754L283.400,232.474L286.600,232.186L289.800,231.891L293,231.588L296.200,231.278L299.400,230.960L302.600,230.633L305.800,230.299L309,229.956L312.200,229.605L315.400,229.246L318.600,228.878L321.800,228.501L325,228.116L328.200,227.722L331.400,227.318L334.600,226.906L337.800,226.484L341,226.053L344.200,225.613L347.400,225.163L350.600,224.703L353.800,224.234L357,223.754L360.200,223.265L363.400,222.765L366.600,222.255L369.800,221.735L373,221.204L376.200,220.663L379.400,220.111L382.600,219.548L385.800,218.974L389,218.389L392.200,217.792L395.400,217.185L398.600,216.565L401.800,215.935L405,215.292L408.200,214.638L411.400,213.972L414.600,213.294L417.800,212.603L421,211.900L424.200,211.185L427.400,210.457L430.600,209.717L433.800,208.964L437,208.197L440.200,207.418L443.400,206.626L446.600,205.820L449.800,205.001L453,204.168L456.200,203.322L459.400,202.462L462.600,201.588L465.800,200.700L469,199.797L472.200,198.881L475.400,197.950L478.600,197.004L481.800,196.044L485,195.069L488.200,194.079L491.400,193.074L494.600,192.054L497.800,191.018L501,189.967L504.200,188.900L507.400,187.818L510.600,186.720L513.800,185.606L517,184.476L520.200,183.330L523.400,182.167L526.600,180.988L529.800,179.792L533,178.579L536.200,177.350L539.400,176.103L542.600,174.840L545.800,173.559L549,172.261L552.200,170.945L555.400,169.612L558.600,168.260L561.800,166.891L565,165.504L568.200,164.099L571.400,162.675L574.600,161.233L577.800,159.772L581,158.293L584.200,156.794L587.400,155.277L590.600,153.740L593.800,152.185L597,150.610L600.200,149.015L603.400,147.401L606.600,145.766L609.800,144.112L613,142.438L616.200,140.744L619.400,139.029L622.600,137.294L625.800,135.538L629,133.762L632.200,131.964L635.400,130.146L638.600,128.306L641.800,126.445L645,124.563L648.200,122.659L651.400,120.733L654.600,118.785L657.800,116.816L661,114.824L664.200,112.810L667.400,110.774L670.600,108.715L673.800,106.633L677,104.529L680.200,102.401L683.400,100.251L686.600,98.077L689.800,95.880L693,93.659L696.200,91.415L699.400,89.146L702.600,86.854L705.800,84.538L709,82.197L712.200,79.832L715.400,77.443L718.600,75.029L721.800,72.590L725,70.126L728.200,67.637L731.400,65.123L734.600,62.583L737.800,60.018L741,57.428L744.200,54.811L747.400,52.168L750.600,49.500L753.800,46.805L757,44.084L760.200,41.336L763.400,38.561L766.600,35.760L769.800,32.932L773,30.077L776.200,27.194L779.400,24.284L782.600,21.346L785.800,18.381L789,15.388L792.200,12.367L795.400,9.318L798.600,6.240L801.800,3.134L805,0" stroke="rgb(58, 128, 214)" fill="none"/><path d="M5,240L8.200,240L11.400,240L14.600,240L17.800,240L21,240L24.200,240L27.400,240L30.600,240L33.800,240L37,239.999L40.200,239.999L43.400,239.999L46.600,239.998L49.800,239.998L53,239.997L56.200,239.996L59.400,239.995L62.600,239.994L65.800,239.992L69,239.990L72.200,239.988L75.400,239.986L78.600,239.983L81.800,239.980L85,239.976L88.200,239.972L91.400,239.967L94.600,239.962L97.800,239.957L101,239.950L104.200,239.943L107.400,239.936L110.600,239.927L113.800,239.918L117,239.908L120.200,239.897L123.400,239.885L126.600,239.872L129.800,239.858L133,239.843L136.200,239.826L139.400,239.809L142.600,239.790L145.800,239.770L149,239.748L152.200,239.725L155.400,239.700L158.600,239.674L161.800,239.646L165,239.616L168.200,239.584L171.400,239.551L174.600,239.515L177.800,239.478L181,239.438L184.200,239.396L187.400,239.351L190.600,239.305L193.800,239.256L197,239.204L200.200,239.149L203.400,239.092L206.600,239.032L209.800,238.969L213,238.903L216.200,238.834L219.400,238.762L222.600,238.686L225.800,238.607L229,238.525L232.200,238.439L235.400,238.349L238.600,238.255L241.800,238.158L245,238.056L248.200,237.950L251.400,237.840L254.600,237.726L257.800,237.607L261,237.483L264.200,237.355L267.400,237.222L270.600,237.084L273.800,236.941L277,236.793L280.200,236.639L283.400,236.480L286.600,236.315L289.800,236.145L293,235.969L296.200,235.787L299.400,235.598L302.600,235.404L305.800,235.203L309,234.996L312.200,234.782L315.400,234.561L318.600,234.333L321.800,234.098L325,233.856L328.200,233.607L331.400,233.350L334.600,233.085L337.800,232.812L341,232.532L344.200,232.243L347.400,231.946L350.600,231.641L353.800,231.327L357,231.005L360.200,230.673L363.400,230.332L366.600,229.982L369.800,229.623L373,229.254L376.200,228.875L379.400,228.487L382.600,228.088L385.800,227.679L389,227.260L392.200,226.830L395.400,226.389L398.600,225.937L401.800,225.474L405,225L408.200,224.514L411.400,224.017L414.600,223.507L417.800,222.986L421,222.452L424.200,221.906L427.400,221.347L430.600,220.775L433.800,220.191L437,219.593L440.200,218.981L443.400,218.356L446.600,217.717L449.800,217.064L453,216.397L456.200,215.716L459.400,215.019L462.600,214.308L465.800,213.582L469,212.840L472.200,212.083L475.400,211.311L478.600,210.522L481.800,209.717L485,208.896L488.200,208.058L491.400,207.204L494.600,206.332L497.800,205.443L501,204.537L504.200,203.613L507.400,202.671L510.600,201.711L513.800,200.732L517,199.735L520.200,198.719L523.400,197.683L526.600,196.629L529.800,195.555L533,194.461L536.200,193.347L539.400,192.212L542.600,191.057L545.800,189.882L549,188.685L552.200,187.467L555.400,186.227L558.600,184.965L561.800,183.682L565,182.376L568.200,181.048L571.400,179.696L574.600,178.322L577.800,176.924L581,175.503L584.200,174.057L587.400,172.588L590.600,171.094L593.800,169.576L597,168.032L600.200,166.463L603.400,164.869L606.600,163.249L609.800,161.603L613,159.931L616.200,158.232L619.400,156.506L622.600,154.753L625.800,152.972L629,151.164L632.200,149.328L635.400,147.463L638.600,145.570L641.800,143.647L645,141.696L648.200,139.715L651.400,137.704L654.600,135.664L657.800,133.593L661,131.491L664.200,129.358L667.400,127.194L670.600,124.998L673.800,122.771L677,120.511L680.200,118.219L683.400,115.893L686.600,113.535L689.800,111.144L693,108.718L696.200,106.258L699.400,103.765L702.600,101.236L705.800,98.672L709,96.073L712.200,93.438L715.400,90.768L718.600,88.061L721.800,85.317L725,82.536L728.200,79.718L731.400,76.862L734.600,73.968L737.800,71.036L741,68.066L744.200,65.056L747.400,62.007L750.600,58.918L753.800,55.789L757,52.620L760.200,49.410L763.400,46.159L766.600,42.867L769.800,39.533L773,36.157L776.200,32.738L779.400,29.277L782.600,25.772L785.800,22.224L789,18.632L792.200,14.995L795.400,11.314L798.600,7.588L801.800,3.817L805,0" stroke="rgb(61, 148, 255)" fill="none"/></g></g></svg>