<svg xmlns="http://www.w3.org/2000/svg" width="810" height="240.0" viewBox="0 0 810 240.0"><rect x="5" y="0" width="800" height="240.0" fill="#d4d4d1"/><g class="xlines"><line x1="25.0" y1="240.0" x2="25.0" y2="0.0" stroke="#f8f8f8"/><line x1="45.0" y1="240.0" x2="45.0" y2="0.0" stroke="#f8f8f8"/><line x1="65.0" y1="240.0" x2="65.0" y2="0.0" stroke="#f8f8f8"/><line x1="85.0" y1="240.0" x2="85.0" y2="0.0" stroke="#f8f8f8"/><line x1="105.0" y1="240.0" x2="105.0" y2="0.0" stroke="#f8f8f8"/><line x1="125.0" y1="240.0" x2="125.0" y2="0.0" stroke="#f8f8f8"/><line x1="145.0" y1="240.0" x2="145.0" y2="0.0" stroke="#f8f8f8"/><line x1="165.0" y1="240.0" x2="165.0" y2="0.0" stroke="#f8f8f8"/><line x1="185.0" y1="240.0" x2="185.0" y2="0.0" stroke="#f8f8f8"/><line x1="205.0" y1="240.0" x2="205.0" y2="0.0" stroke="#f8f8f8"/><line x1="225.00000000000003" y1="240.0" x2="225.00000000000003" y2="0.0" stroke="#f8f8f8"/><line x1="245.0" y1="240.0" x2="245.0" y2="0.0" stroke="#f8f8f8"/><line x1="265.0" y1="240.0" x2="265.0" y2="0.0" stroke="#f8f8f8"/><line x1="285.0" y1="240.0" x2="285.0" y2="0.0" stroke="#f8f8f8"/><line x1="305.0" y1="240.0" x2="305.0" y2="0.0" stroke="#f8f8f8"/><line x1="325.0" y1="240.0" x2="325.0" y2="0.0" stroke="#f8f8f8"/><line x1="345.0" y1="240.0" x2="345.0" y2="0.0" stroke="#f8f8f8"/><line x1="365.0" y1="240.0" x2="365.0" y2="0.0" stroke="#f8f8f8"/><line x1="385.0" y1="240.0" x2="385.0" y2="0.0" stroke="#f8f8f8"/><line x1="405.0" y1="240.0" x2="405.0" y2="0.0" stroke="#f8f8f8"/><line x1="425.0" y1="240.0" x2="425.0" y2="0.0" stroke="#f8f8f8"/><line x1="445.00000000000006" y1="240.0" x2="445.00000000000006" y2="0.0" stroke="#f8f8f8"/><line x1="464.99999999999994" y1="240.0" x2="464.99999999999994" y2="0.0" stroke="#f8f8f8"/><line x1="485.0" y1="240.0" x2="485.0" y2="0.0" stroke="#f8f8f8"/><line x1="505.0" y1="240.0" x2="505.0" y2="0.0" stroke="#f8f8f8"/><line x1="525.0" y1="240.0" x2="525.0" y2="0.0" stroke="#f8f8f8"/><line x1="545.0" y1="240.0" x2="545.0" y2="0.0" stroke="#f8f8f8"/><line x1="565.0" y1="240.0" x2="565.0" y2="0.0" stroke="#f8f8f8"/><line x1="585.0" y1="240.0" x2="585.0" y2="0.0" stroke="#f8f8f8"/><line x1="605.0" y1="240.0" x2="605.0" y2="0.0" stroke="#f8f8f8"/><line x1="625.0" y1="240.0" x2="625.0" y2="0.0" stroke="#f8f8f8"/><line x1="645.0" y1="240.0" x2="645.0" y2="0.0" stroke="#f8f8f8"/><line x1="665.0" y1="240.0" x2="665.0" y2="0.0" stroke="#f8f8f8"/><line x1="685.0" y1="240.0" x2="685.0" y2="0.0" stroke="#f8f8f8"/><line x1="705.0" y1="240.0" x2="705.0" y2="0.0" stroke="#f8f8f8"/><line x1="725.0" y1="240.0" x2="725.0" y2="0.0" stroke="#f8f8f8"/><line x1="745.0" y1="240.0" x2="745.0" y2="0.0" stroke="#f8f8f8"/><line x1="765.0" y1="240.0" x2="765.0" y2="0.0" stroke="#f8f8f8"/><line x1="785.0" y1="240.0" x2="785.0" y2="0.0" stroke="#f8f8f8"/></g><g class="ylines"><line x1="5.0" y1="220.0" x2="805.0" y2="220.0" stroke="#f8f8f8"/><line x1="5.0" y1="200.0" x2="805.0" y2="200.0" stroke="#f8f8f8"/><line x1="5.0" y1="180.0" x2="805.0" y2="180.0" stroke="#f8f8f8"/><line x1="5.0" y1="160.00000000000003" x2="805.0" y2="160.00000000000003" stroke="#f8f8f8"/><line x1="5.0" y1="139.99999999999997" x2="805.0" y2="139.99999999999997" stroke="#f8f8f8"/><line x1="5.0" y1="120.0" x2="805.0" y2="120.0" stroke="#f8f8f8"/><line x1="5.0" y1="99.99999999999999" x2="805.0" y2="99.99999999999999" stroke="#f8f8f8"/><line x1="5.0" y1="80.00000000000001" x2="805.0" y2="80.00000000000001" stroke="#f8f8f8"/><line x1="5.0" y1="60.0" x2="805.0" y2="60.0" stroke="#f8f8f8"/><line x1="5.0" y1="39.99999999999999" x2="805.0" y2="39.99999999999999" stroke="#f8f8f8"/><line x1="5.0" y1="20.000000000000007" x2="805.0" y2="20.000000000000007" stroke="#f8f8f8"/></g><g class="ease"><path d="M5,240L8.200,239.369L11.400,238.796L14.600,238.281L17.800,237.825L21,237.426L24.200,237.085L27.400,236.803L30.600,236.579L33.800,236.412L37,236.304L40.200,236.254L43.400,236.262L46.600,236.328L49.800,236.452L53,236.634L56.200,236.874L59.400,237.173L62.600,237.529L65.800,237.943L69,238.416L72.200,238.947L75.400,239.535L78.600,239.642L81.800,238.367L85,237.150L88.200,235.991L91.400,234.890L94.600,233.847L97.800,232.863L101,231.936L104.200,231.067L107.400,230.257L110.600,229.505L113.800,228.810L117,228.174L120.200,227.596L123.400,227.076L126.600,226.614L129.800,226.210L133,225.864L136.200,225.576L139.400,225.347L142.600,225.175L145.800,225.061L149,225.006L152.200,225.009L155.400,225.069L158.600,225.188L161.800,225.365L165,225.600L168.200,225.893L171.400,226.244L174.600,226.653L177.800,227.121L181,227.646L184.200,228.229L187.400,228.871L190.600,229.571L193.800,230.328L197,231.144L200.200,232.018L203.400,232.950L206.600,233.940L209.800,234.988L213,236.094L216.200,237.258L219.400,238.481L222.600,239.761L225.800,237.859L229,235.296L232.200,232.791L235.400,230.343L238.600,227.954L241.800,225.623L245,223.350L248.200,221.135L251.400,218.978L254.600,216.879L257.800,214.839L261,212.856L264.200,210.931L267.400,209.065L270.600,207.257L273.800,205.506L277,203.814L280.200,202.180L283.400,200.604L286.600,199.086L289.800,197.626L293,196.224L296.200,194.880L299.400,193.595L302.600,192.367L305.800,191.197L309,190.086L312.200,189.033L315.400,188.037L318.600,187.100L321.800,186.221L325,185.400L328.200,184.637L331.400,183.932L334.600,183.285L337.800,182.697L341,182.166L344.200,181.693L347.400,181.279L350.600,180.923L353.800,180.624L357,180.384L360.200,180.202L363.400,180.078L366.600,180.012L369.800,180.004L373,180.054L376.200,180.162L379.400,180.329L382.600,180.553L385.800,180.835L389,181.176L392.200,181.575L395.400,182.031L398.600,182.546L401.800,183.119L405,183.750L408.200,184.439L411.400,185.186L414.600,185.991L417.800,186.855L421,187.776L424.200,188.755L427.400,189.793L430.600,190.889L433.800,192.042L437,193.254L440.200,194.524L443.400,195.852L446.600,197.238L449.800,198.682L453,200.184L456.200,201.744L459.400,203.363L462.600,205.039L465.800,206.773L469,208.566L472.200,210.417L475.400,212.325L478.600,214.292L481.800,216.317L485,218.400L488.200,220.541L491.400,222.740L494.600,224.997L497.800,227.313L501,229.686L504.200,232.117L507.400,234.607L510.600,237.155L513.800,239.760L517,235.224L520.200,230.026L523.400,224.886L526.600,219.804L529.800,214.780L533,209.814L536.200,204.906L539.400,200.057L542.600,195.265L545.800,190.531L549,185.856L552.200,181.239L555.400,176.679L558.600,172.178L561.800,167.735L565,163.350L568.200,159.023L571.400,154.754L574.600,150.543L577.800,146.391L581,142.296L584.200,138.259L587.400,134.281L590.600,130.361L593.800,126.498L597,122.694L600.200,118.948L603.400,115.260L606.600,111.630L609.800,108.058L613,104.544L616.200,101.088L619.400,97.691L622.600,94.351L625.800,91.069L629,87.846L632.200,84.681L635.400,81.573L638.600,78.524L641.800,75.533L645,72.600L648.200,69.725L651.400,66.908L654.600,64.149L657.800,61.449L661,58.806L664.200,56.221L667.400,53.695L670.600,51.227L673.800,48.816L677,46.464L680.200,44.170L683.400,41.934L686.600,39.756L689.800,37.636L693,35.574L696.200,33.570L699.400,31.625L702.600,29.737L705.800,27.907L709,26.136L712.200,24.423L715.400,22.767L718.600,21.170L721.800,19.631L725,18.150L728.200,16.727L731.400,15.362L734.600,14.055L737.800,12.807L741,11.616L744.200,10.483L747.400,9.409L750.600,8.393L753.800,7.434L757,6.534L760.200,5.692L763.400,4.908L766.600,4.182L769.800,3.514L773,2.904L776.200,2.352L779.400,1.859L782.600,1.423L785.800,1.045L789,0.726L792.200,0.465L795.400,0.261L798.600,0.116L801.800,0.029L805,0" stroke="black" fill="none"/></g></svg>