<svg xmlns="http://www.w3.org/2000/svg" width="810" height="240.0" viewBox="0 0 810 240.0"><rect x="5" y="0" width="800" height="240.0" fill="#d4d4d1"/><g class="xlines"><line x1="25.0" y1="240.0" x2="25.0" y2="0.0" stroke="#f8f8f8"/><line x1="45.0" y1="240.0" x2="45.0" y2="0.0" stroke="#f8f8f8"/><line x1="65.0" y1="240.0" x2="65.0" y2="0.0" stroke="#f8f8f8"/><line x1="85.0" y1="240.0" x2="85.0" y2="0.0" stroke="#f8f8f8"/><line x1="105.0" y1="240.0" x2="105.0" y2="0.0" stroke="#f8f8f8"/><line x1="125.0" y1="240.0" x2="125.0" y2="0.0" stroke="#f8f8f8"/><line x1="145.0" y1="240.0" x2="145.0" y2="0.0" stroke="#f8f8f8"/><line x1="165.0" y1="240.0" x2="165.0" y2="0.0" stroke="#f8f8f8"/><line x1="185.0" y1="240.0" x2="185.0" y2="0.0" stroke="#f8f8f8"/><line x1="205.0" y1="240.0" x2="205.0" y2="0.0" stroke="#f8f8f8"/><line x1="225.00000000000003" y1="240.0" x2="225.00000000000003" y2="0.0" stroke="#f8f8f8"/><line x1="245.0" y1="240.0" x2="245.0" y2="0.0" stroke="#f8f8f8"/><line x1="265.0" y1="240.0" x2="265.0" y2="0.0" stroke="#f8f8f8"/><line x1="285.0" y1="240.0" x2="285.0" y2="0.0" stroke="#f8f8f8"/><line x1="305.0" y1="240.0" x2="305.0" y2="0.0" stroke="#f8f8f8"/><line x1="325.0" y1="240.0" x2="325.0" y2="0.0" stroke="#f8f8f8"/><line x1="345.0" y1="240.0" x2="345.0" y2="0.0" stroke="#f8f8f8"/><line x1="365.0" y1="240.0" x2="365.0" y2="0.0" stroke="#f8f8f8"/><line x1="385.0" y1="240.0" x2="385.0" y2="0.0" stroke="#f8f8f8"/><line x1="405.0" y1="240.0" x2="405.0" y2="0.0" stroke="#f8f8f8"/><line x1="425.0" y1="240.0" x2="425.0" y2="0.0" stroke="#f8f8f8"/><line x1="445.00000000000006" y1="240.0" x2="445.00000000000006" y2="0.0" stroke="#f8f8f8"/><line x1="464.99999999999994" y1="240.0" x2="464.99999999999994" y2="0.0" stroke="#f8f8f8"/><line x1="485.0" y1="240.0" x2="485.0" y2="0.0" stroke="#f8f8f8"/><line x1="505.0" y1="240.0" x2="505.0" y2="0.0" stroke="#f8f8f8"/><line x1="525.0" y1="240.0" x2="525.0" y2="0.0" stroke="#f8f8f8"/><line x1="545.0" y1="240.0" x2="545.0" y2="0.0" stroke="#f8f8f8"/><line x1="565.0" y1="240.0" x2="565.0" y2="0.0" stroke="#f8f8f8"/><line x1="585.0" y1="240.0" x2="585.0" y2="0.0" stroke="#f8f8f8"/><line x1="605.0" y1="240.0" x2="605.0" y2="0.0" stroke="#f8f8f8"/><line x1="625.0" y1="240.0" x2="625.0" y2="0.0" stroke="#f8f8f8"/><line x1="645.0" y1="240.0" x2="645.0" y2="0.0" stroke="#f8f8f8"/><line x1="665.0" y1="240.0" x2="665.0" y2="0.0" stroke="#f8f8f8"/><line x1="685.0" y1="240.0" x2="685.0" y2="0.0" stroke="#f8f8f8"/><line x1="705.0" y1="240.0" x2="705.0" y2="0.0" stroke="#f8f8f8"/><line x1="725.0" y1="240.0" x2="725.0" y2="0.0" stroke="#f8f8f8"/><line x1="745.0" y1="240.0" x2="745.0" y2="0.0" stroke="#f8f8f8"/><line x1="765.0" y1="240.0" x2="765.0" y2="0.0" stroke="#f8f8f8"/><line x1="785.0" y1="240.0" x2="785.0" y2="0.0" stroke="#f8f8f8"/></g><g class="ylines"><line x1="5.0" y1="220.0" x2="805.0" y2="220.0" stroke="#f8f8f8"/><line x1="5.0" y1="200.0" x2="805.0" y2="200.0" stroke="#f8f8f8"/><line x1="5.0" y1="180.0" x2="805.0" y2="180.0" stroke="#f8f8f8"/><line x1="5.0" y1="160.00000000000003" x2="805.0" y2="160.00000000000003" stroke="#f8f8f8"/><line x1="5.0" y1="139.99999999999997" x2="805.0" y2="139.99999999999997" stroke="#f8f8f8"/><line x1="5.0" y1="120.0" x2="805.0" y2="120.0" stroke="#f8f8f8"/><line x1="5.0" y1="99.99999999999999" x2="805.0" y2="99.99999999999999" stroke="#f8f8f8"/><line x1="5.0" y1="80.00000000000001" x2="805.0" y2="80.00000000000001" stroke="#f8f8f8"/><line x1="5.0" y1="60.0" x2="805.0" y2="60.0" stroke="#f8f8f8"/><line x1="5.0" y1="39.99999999999999" x2="805.0" y2="39.99999999999999" stroke="#f8f8f8"/><line x1="5.0" y1="20.000000000000007" x2="805.0" y2="20.000000000000007" stroke="#f8f8f8"/></g><g class="ease"><path d="M5,240L8.200,239.998L11.400,239.992L14.600,239.983L17.800,239.969L21,239.952L24.200,239.931L27.400,239.906L30.600,239.877L33.800,239.844L37,239.808L40.200,239.768L43.400,239.723L46.600,239.675L49.800,239.623L53,239.568L56.200,239.508L59.400,239.444L62.600,239.377L65.800,239.306L69,239.231L72.200,239.152L75.400,239.069L78.600,238.982L81.800,238.892L85,238.797L88.200,238.699L91.400,238.596L94.600,238.490L97.800,238.380L101,238.266L104.200,238.148L107.400,238.026L110.600,237.900L113.800,237.770L117,237.636L120.200,237.499L123.400,237.357L126.600,237.211L129.800,237.062L133,236.908L136.200,236.750L139.400,236.589L142.600,236.423L145.800,236.254L149,236.080L152.200,235.902L155.400,235.721L158.600,235.535L161.800,235.345L165,235.151L168.200,234.953L171.400,234.751L174.600,234.545L177.800,234.334L181,234.120L184.200,233.901L187.400,233.679L190.600,233.452L193.800,233.221L197,232.985L200.200,232.746L203.400,232.502L206.600,232.255L209.800,232.002L213,231.746L216.200,231.485L219.400,231.221L222.600,230.951L225.800,230.678L229,230.400L232.200,230.118L235.400,229.831L238.600,229.540L241.800,229.245L245,228.945L248.200,228.641L251.400,228.333L254.600,228.020L257.800,227.702L261,227.380L264.200,227.054L267.400,226.723L270.600,226.387L273.800,226.047L277,225.702L280.200,225.353L283.400,224.999L286.600,224.640L289.800,224.277L293,223.909L296.200,223.536L299.400,223.158L302.600,222.776L305.800,222.389L309,221.997L312.200,221.600L315.400,221.198L318.600,220.792L321.800,220.380L325,219.964L328.200,219.542L331.400,219.116L334.600,218.684L337.800,218.248L341,217.806L344.200,217.359L347.400,216.907L350.600,216.450L353.800,215.987L357,215.519L360.200,215.046L363.400,214.568L366.600,214.084L369.800,213.595L373,213.101L376.200,212.600L379.400,212.095L382.600,211.584L385.800,211.067L389,210.544L392.200,210.016L395.400,209.482L398.600,208.943L401.800,208.397L405,207.846L408.200,207.289L411.400,206.726L414.600,206.157L417.800,205.581L421,205L424.200,204.412L427.400,203.819L430.600,203.219L433.800,202.612L437,202L440.200,201.380L443.400,200.755L446.600,200.123L449.800,199.484L453,198.838L456.200,198.186L459.400,197.527L462.600,196.861L465.800,196.188L469,195.508L472.200,194.821L475.400,194.127L478.600,193.425L481.800,192.716L485,192L488.200,191.276L491.400,190.545L494.600,189.806L497.800,189.059L501,188.304L504.200,187.542L507.400,186.771L510.600,185.992L513.800,185.205L517,184.410L520.200,183.606L523.400,182.794L526.600,181.973L529.800,181.143L533,180.304L536.200,179.456L539.400,178.599L542.600,177.732L545.800,176.856L549,175.971L552.200,175.076L555.400,174.171L558.600,173.255L561.800,172.330L565,171.394L568.200,170.448L571.400,169.491L574.600,168.523L577.800,167.544L581,166.554L584.200,165.552L587.400,164.539L590.600,163.513L593.800,162.476L597,161.426L600.200,160.363L603.400,159.288L606.600,158.199L609.800,157.097L613,155.982L616.200,154.852L619.400,153.708L622.600,152.549L625.800,151.376L629,150.187L632.200,148.983L635.400,147.762L638.600,146.525L641.800,145.271L645,144L648.200,142.711L651.400,141.404L654.600,140.078L657.800,138.732L661,137.367L664.200,135.982L667.400,134.575L670.600,133.146L673.800,131.695L677,130.221L680.200,128.722L683.400,127.199L686.600,125.650L689.800,124.074L693,122.471L696.200,120.838L699.400,119.175L702.600,117.481L705.800,115.755L709,113.994L712.200,112.197L715.400,110.362L718.600,108.488L721.800,106.573L725,104.614L728.200,102.608L731.400,100.553L734.600,98.446L737.800,96.283L741,94.060L744.200,91.774L747.400,89.419L750.600,86.990L753.800,84.480L757,81.882L760.200,79.187L763.400,76.385L766.600,73.464L769.800,70.408L773,67.200L776.200,63.817L779.400,60.228L782.600,56.395L785.800,52.265L789,47.759L792.200,42.760L795.400,37.069L798.600,30.297L801.800,21.445L805,0" stroke="black" fill="none"/></g></svg>