<svg xmlns="http://www.w3.org/2000/svg" width="810" height="300.0" viewBox="0 0 810 300.0"><g class="legend"><text x="8.0" y="12.0" fill="black">tension</text><g transform="translate(8.0, 15.0)"><rect x="0" y="0" width="3" height="16.0" fill="rgb(48, 48, 48)"/><rect x="2" y="0" width="3" height="16.0" fill="rgb(48, 49, 49)"/><rect x="4" y="0" width="3" height="16.0" fill="rgb(48, 49, 51)"/><rect x="6" y="0" width="3" height="16.0" fill="rgb(48, 50, 52)"/><rect x="8" y="0" width="3" height="16.0" fill="rgb(48, 51, 54)"/><rect x="10" y="0" width="3" height="16.0" fill="rgb(48, 51, 55)"/><rect x="12" y="0" width="3" height="16.0" fill="rgb(49, 52, 56)"/><rect x="14" y="0" width="3" height="16.0" fill="rgb(49, 53, 58)"/><rect x="16" y="0" width="3" height="16.0" fill="rgb(49, 53, 59)"/><rect x="18" y="0" width="3" height="16.0" fill="rgb(49, 54, 60)"/><rect x="20" y="0" width="3" height="16.0" fill="rgb(49, 55, 62)"/><rect x="22" y="0" width="3" height="16.0" fill="rgb(49, 55, 63)"/><rect x="24" y="0" width="3" height="16.0" fill="rgb(49, 56, 65)"/><rect x="26" y="0" width="3" height="16.0" fill="rgb(49, 57, 66)"/><rect x="28" y="0" width="3" height="16.0" fill="rgb(49, 57, 67)"/><rect x="30" y="0" width="3" height="16.0" fill="rgb(49, 58, 69)"/><rect x="32" y="0" width="3" height="16.0" fill="rgb(49, 59, 70)"/><rect x="34" y="0" width="3" height="16.0" fill="rgb(49, 59, 71)"/><rect x="36" y="0" width="3" height="16.0" fill="rgb(50, 60, 73)"/><rect x="38" y="0" width="3" height="16.0" fill="rgb(50, 61, 74)"/><rect x="40" y="0" width="3" height="16.0" fill="rgb(50, 61, 76)"/><rect x="42" y="0" width="3" height="16.0" fill="rgb(50, 62, 77)"/><rect x="44" y="0" width="3" height="16.0" fill="rgb(50, 63, 78)"/><rect x="46" y="0" width="3" height="16.0" fill="rgb(50, 63, 80)"/><rect x="48" y="0" width="3" height="16.0" fill="rgb(50, 64, 81)"/><rect x="50" y="0" width="3" height="16.0" fill="rgb(50, 65, 82)"/><rect x="52" y="0" width="3" height="16.0" fill="rgb(50, 65, 84)"/><rect x="54" y="0" width="3" height="16.0" fill="rgb(50, 66, 85)"/><rect x="56" y="0" width="3" height="16.0" fill="rgb(50, 67, 87)"/><rect x="58" y="0" width="3" height="16.0" fill="rgb(51, 67, 88)"/><rect x="60" y="0" width="3" height="16.0" fill="rgb(51, 68, 89)"/><rect x="62" y="0" width="3" height="16.0" fill="rgb(51, 69, 91)"/><rect x="64" y="0" width="3" height="16.0" fill="rgb(51, 69, 92)"/><rect x="66" y="0" width="3" height="16.0" fill="rgb(51, 70, 94)"/><rect x="68" y="0" width="3" height="16.0" fill="rgb(51, 71, 95)"/><rect x="70" y="0" width="3" height="16.0" fill="rgb(51, 71, 96)"/><rect x="72" y="0" width="3" height="16.0" fill="rgb(51, 72, 98)"/><rect x="74" y="0" width="3" height="16.0" fill="rgb(51, 73, 99)"/><rect x="76" y="0" width="3" height="16.0" fill="rgb(51, 73, 100)"/><rect x="78" y="0" width="3" height="16.0" fill="rgb(51, 74, 102)"/><rect x="80" y="0" width="3" height="16.0" fill="rgb(51, 75, 103)"/><rect x="82" y="0" width="3" height="16.0" fill="rgb(52, 75, 105)"/><rect x="84" y="0" width="3" height="16.0" fill="rgb(52, 76, 106)"/><rect x="86" y="0" width="3" height="16.0" fill="rgb(52, 77, 107)"/><rect x="88" y="0" width="3" height="16.0" fill="rgb(52, 77, 109)"/><rect x="90" y="0" width="3" height="16.0" fill="rgb(52, 78, 110)"/><rect x="92" y="0" width="3" height="16.0" fill="rgb(52, 79, 111)"/><rect x="94" y="0" width="3" height="16.0" fill="rgb(52, 79, 113)"/><rect x="96" y="0" width="3" height="16.0" fill="rgb(52, 80, 114)"/><rect x="98" y="0" width="3" height="16.0" fill="rgb(52, 81, 116)"/><rect x="100" y="0" width="3" height="16.0" fill="rgb(52, 81, 117)"/><rect x="102" y="0" width="3" height="16.0" fill="rgb(52, 82, 118)"/><rect x="104" y="0" width="3" height="16.0" fill="rgb(53, 83, 120)"/><rect x="106" y="0" width="3" height="16.0" fill="rgb(53, 83, 121)"/><rect x="108" y="0" width="3" height="16.0" fill="rgb(53, 84, 123)"/><rect x="110" y="0" width="3" height="16.0" fill="rgb(53, 85, 124)"/><rect x="112" y="0" width="3" height="16.0" fill="rgb(53, 85, 125)"/><rect x="114" y="0" width="3" height="16.0" fill="rgb(53, 86, 127)"/><rect x="116" y="0" width="3" height="16.0" fill="rgb(53, 87, 128)"/><rect x="118" y="0" width="3" height="16.0" fill="rgb(53, 87, 129)"/><rect x="120" y="0" width="3" height="16.0" fill="rgb(53, 88, 131)"/><rect x="122" y="0" width="3" height="16.0" fill="rgb(53, 89, 132)"/><rect x="124" y="0" width="3" height="16.0" fill="rgb(53, 89, 134)"/><rect x="126" y="0" width="3" height="16.0" fill="rgb(53, 90, 135)"/><rect x="128" y="0" width="3" height="16.0" fill="rgb(54, 91, 136)"/><rect x="130" y="0" width="3" height="16.0" fill="rgb(54, 91, 138)"/><rect x="132" y="0" width="3" height="16.0" fill="rgb(54, 92, 139)"/><rect x="134" y="0" width="3" height="16.0" fill="rgb(54, 93, 140)"/><rect x="136" y="0" width="3" height="16.0" fill="rgb(54, 93, 142)"/><rect x="138" y="0" width="3" height="16.0" fill="rgb(54, 94, 143)"/><rect x="140" y="0" width="3" height="16.0" fill="rgb(54, 95, 145)"/><rect x="142" y="0" width="3" height="16.0" fill="rgb(54, 95, 146)"/><rect x="144" y="0" width="3" height="16.0" fill="rgb(54, 96, 147)"/><rect x="146" y="0" width="3" height="16.0" fill="rgb(54, 97, 149)"/><rect x="148" y="0" width="3" height="16.0" fill="rgb(54, 97, 150)"/><rect x="150" y="0" width="3" height="16.0" fill="rgb(54, 98, 152)"/><rect x="152" y="0" width="3" height="16.0" fill="rgb(55, 99, 153)"/><rect x="154" y="0" width="3" height="16.0" fill="rgb(55, 99, 154)"/><rect x="156" y="0" width="3" height="16.0" fill="rgb(55, 100, 156)"/><rect x="158" y="0" width="3" height="16.0" fill="rgb(55, 101, 157)"/><rect x="160" y="0" width="3" height="16.0" fill="rgb(55, 101, 158)"/><rect x="162" y="0" width="3" height="16.0" fill="rgb(55, 102, 160)"/><rect x="164" y="0" width="3" height="16.0" fill="rgb(55, 103, 161)"/><rect x="166" y="0" width="3" height="16.0" fill="rgb(55, 103, 163)"/><rect x="168" y="0" width="3" height="16.0" fill="rgb(55, 104, 164)"/><rect x="170" y="0" width="3" height="16.0" fill="rgb(55, 105, 165)"/><rect x="172" y="0" width="3" height="16.0" fill="rgb(55, 105, 167)"/><rect x="174" y="0" width="3" height="16.0" fill="rgb(56, 106, 168)"/><rect x="176" y="0" width="3" height="16.0" fill="rgb(56, 107, 169)"/><rect x="178" y="0" width="3" height="16.0" fill="rgb(56, 107, 171)"/><rect x="180" y="0" width="3" height="16.0" fill="rgb(56, 108, 172)"/><rect x="182" y="0" width="3" height="16.0" fill="rgb(56, 109, 174)"/><rect x="184" y="0" width="3" height="16.0" fill="rgb(56, 109, 175)"/><rect x="186" y="0" width="3" height="16.0" fill="rgb(56, 110, 176)"/><rect x="188" y="0" width="3" height="16.0" fill="rgb(56, 111, 178)"/><rect x="190" y="0" width="3" height="16.0" fill="rgb(56, 111, 179)"/><rect x="192" y="0" width="3" height="16.0" fill="rgb(56, 112, 180)"/><rect x="194" y="0" width="3" height="16.0" fill="rgb(56, 113, 182)"/><rect x="196" y="0" width="3" height="16.0" fill="rgb(56, 113, 183)"/><rect x="198" y="0" width="3" height="16.0" fill="rgb(57, 114, 185)"/><rect x="200" y="0" width="3" height="16.0" fill="rgb(57, 115, 186)"/><rect x="202" y="0" width="3" height="16.0" fill="rgb(57, 115, 187)"/><rect x="204" y="0" width="3" height="16.0" fill="rgb(57, 116, 189)"/><rect x="206" y="0" width="3" height="16.0" fill="rgb(57, 117, 190)"/><rect x="208" y="0" width="3" height="16.0" fill="rgb(57, 117, 192)"/><rect x="210" y="0" width="3" height="16.0" fill="rgb(57, 118, 193)"/><rect x="212" y="0" width="3" height="16.0" fill="rgb(57, 119, 194)"/><rect x="214" y="0" width="3" height="16.0" fill="rgb(57, 119, 196)"/><rect x="216" y="0" width="3" height="16.0" fill="rgb(57, 120, 197)"/><rect x="218" y="0" width="3" height="16.0" fill="rgb(57, 121, 198)"/><rect x="220" y="0" width="3" height="16.0" fill="rgb(58, 121, 200)"/><rect x="222" y="0" width="3" height="16.0" fill="rgb(58, 122, 201)"/><rect x="224" y="0" width="3" height="16.0" fill="rgb(58, 123, 203)"/><rect x="226" y="0" width="3" height="16.0" fill="rgb(58, 123, 204)"/><rect x="228" y="0" width="3" height="16.0" fill="rgb(58, 124, 205)"/><rect x="230" y="0" width="3" height="16.0" fill="rgb(58, 125, 207)"/><rect x="232" y="0" width="3" height="16.0" fill="rgb(58, 125, 208)"/><rect x="234" y="0" width="3" height="16.0" fill="rgb(58, 126, 209)"/><rect x="236" y="0" width="3" height="16.0" fill="rgb(58, 127, 211)"/><rect x="238" y="0" width="3" height="16.0" fill="rgb(58, 127, 212)"/><rect x="240" y="0" width="3" height="16.0" fill="rgb(58, 128, 214)"/><rect x="242" y="0" width="3" height="16.0" fill="rgb(58, 129, 215)"/><rect x="244" y="0" width="3" height="16.0" fill="rgb(59, 129, 216)"/><rect x="246" y="0" width="3" height="16.0" fill="rgb(59, 130, 218)"/><rect x="248" y="0" width="3" height="16.0" fill="rgb(59, 131, 219)"/><rect x="250" y="0" width="3" height="16.0" fill="rgb(59, 131, 220)"/><rect x="252" y="0" width="3" height="16.0" fill="rgb(59, 132, 222)"/><rect x="254" y="0" width="3" height="16.0" fill="rgb(59, 133, 223)"/><rect x="256" y="0" width="3" height="16.0" fill="rgb(59, 133, 225)"/><rect x="258" y="0" width="3" height="16.0" fill="rgb(59, 134, 226)"/><rect x="260" y="0" width="3" height="16.0" fill="rgb(59, 135, 227)"/><rect x="262" y="0" width="3" height="16.0" fill="rgb(59, 135, 229)"/><rect x="264" y="0" width="3" height="16.0" fill="rgb(59, 136, 230)"/><rect x="266" y="0" width="3" height="16.0" fill="rgb(60, 137, 232)"/><rect x="268" y="0" width="3" height="16.0" fill="rgb(60, 137, 233)"/><rect x="270" y="0" width="3" height="16.0" fill="rgb(60, 138, 234)"/><rect x="272" y="0" width="3" height="16.0" fill="rgb(60, 139, 236)"/><rect x="274" y="0" width="3" height="16.0" fill="rgb(60, 139, 237)"/><rect x="276" y="0" width="3" height="16.0" fill="rgb(60, 140, 238)"/><rect x="278" y="0" width="3" height="16.0" fill="rgb(60, 141, 240)"/><rect x="280" y="0" width="3" height="16.0" fill="rgb(60, 141, 241)"/><rect x="282" y="0" width="3" height="16.0" fill="rgb(60, 142, 243)"/><rect x="284" y="0" width="3" height="16.0" fill="rgb(60, 143, 244)"/><rect x="286" y="0" width="3" height="16.0" fill="rgb(60, 143, 245)"/><rect x="288" y="0" width="3" height="16.0" fill="rgb(60, 144, 247)"/><rect x="290" y="0" width="3" height="16.0" fill="rgb(61, 145, 248)"/><rect x="292" y="0" width="3" height="16.0" fill="rgb(61, 145, 249)"/><rect x="294" y="0" width="3" height="16.0" fill="rgb(61, 146, 251)"/><rect x="296" y="0" width="3" height="16.0" fill="rgb(61, 147, 252)"/><rect x="298" y="0" width="3" height="16.0" fill="rgb(61, 147, 254)"/></g><g transform="translate(8.0, 15.0)" fill="none" font-size="10" font-family="sans-serif" text-anchor="middle"><g class="tick" opacity="1" transform="translate(0.5, 0)"><line stroke="black" y2="19.2"/><text fill="black" y="22.2" dy="0.71em">0.0</text></g><g class="tick" opacity="1" transform="translate(60.5, 0)"><line stroke="black" y2="19.2"/><text fill="black" y="22.2" dy="0.71em">0.2</text></g><g class="tick" opacity="1" transform="translate(120.5, 0)"><line stroke="black" y2="19.2"/><text fill="black" y="22.2" dy="0.71em">0.4</text></g><g class="tick" opacity="1" transform="translate(180.5, 0)"><line stroke="black" y2="19.2"/><text fill="black" y="22.2" dy="0.71em">0.6</text></g><g class="tick" opacity="1" transform="translate(240.5, 0)"><line stroke="black" y2="19.2"/><text fill="black" y="22.2" dy="0.71em">0.8</text></g><g class="tick" opacity="1" transform="translate(300.5, 0)"><line stroke="black" y2="19.2"/><text fill="black" y="22.2" dy="0.71em">1.0</text></g></g></g><g class="main" transform="translate(0, 60)"><rect x="5" y="0" width="800" height="240.0" fill="#d4d4d1"/><g class="xlines"><line x1="25.0" y1="240.0" x2="25.0" y2="0.0" stroke="#f8f8f8"/><line x1="45.0" y1="240.0" x2="45.0" y2="0.0" stroke="#f8f8f8"/><line x1="65.0" y1="240.0" x2="65.0" y2="0.0" stroke="#f8f8f8"/><line x1="85.0" y1="240.0" x2="85.0" y2="0.0" stroke="#f8f8f8"/><line x1="105.0" y1="240.0" x2="105.0" y2="0.0" stroke="#f8f8f8"/><line x1="125.0" y1="240.0" x2="125.0" y2="0.0" stroke="#f8f8f8"/><line x1="145.0" y1="240.0" x2="145.0" y2="0.0" stroke="#f8f8f8"/><line x1="165.0" y1="240.0" x2="165.0" y2="0.0" stroke="#f8f8f8"/><line x1="185.0" y1="240.0" x2="185.0" y2="0.0" stroke="#f8f8f8"/><line x1="205.0" y1="240.0" x2="205.0" y2="0.0" stroke="#f8f8f8"/><line x1="225.00000000000003" y1="240.0" x2="225.00000000000003" y2="0.0" stroke="#f8f8f8"/><line x1="245.0" y1="240.0" x2="245.0" y2="0.0" stroke="#f8f8f8"/><line x1="265.0" y1="240.0" x2="265.0" y2="0.0" stroke="#f8f8f8"/><line x1="285.0" y1="240.0" x2="285.0" y2="0.0" stroke="#f8f8f8"/><line x1="305.0" y1="240.0" x2="305.0" y2="0.0" stroke="#f8f8f8"/><line x1="325.0" y1="240.0" x2="325.0" y2="0.0" stroke="#f8f8f8"/><line x1="345.0" y1="240.0" x2="345.0" y2="0.0" stroke="#f8f8f8"/><line x1="365.0" y1="240.0" x2="365.0" y2="0.0" stroke="#f8f8f8"/><line x1="385.0" y1="240.0" x2="385.0" y2="0.0" stroke="#f8f8f8"/><line x1="405.0" y1="240.0" x2="405.0" y2="0.0" stroke="#f8f8f8"/><line x1="425.0" y1="240.0" x2="425.0" y2="0.0" stroke="#f8f8f8"/><line x1="445.00000000000006" y1="240.0" x2="445.00000000000006" y2="0.0" stroke="#f8f8f8"/><line x1="464.99999999999994" y1="240.0" x2="464.99999999999994" y2="0.0" stroke="#f8f8f8"/><line x1="485.0" y1="240.0" x2="485.0" y2="0.0" stroke="#f8f8f8"/><line x1="505.0" y1="240.0" x2="505.0" y2="0.0" stroke="#f8f8f8"/><line x1="525.0" y1="240.0" x2="525.0" y2="0.0" stroke="#f8f8f8"/><line x1="545.0" y1="240.0" x2="545.0" y2="0.0" stroke="#f8f8f8"/><line x1="565.0" y1="240.0" x2="565.0" y2="0.0" stroke="#f8f8f8"/><line x1="585.0" y1="240.0" x2="585.0" y2="0.0" stroke="#f8f8f8"/><line x1="605.0" y1="240.0" x2="605.0" y2="0.0" stroke="#f8f8f8"/><line x1="625.0" y1="240.0" x2="625.0" y2="0.0" stroke="#f8f8f8"/><line x1="645.0" y1="240.0" x2="645.0" y2="0.0" stroke="#f8f8f8"/><line x1="665.0" y1="240.0" x2="665.0" y2="0.0" stroke="#f8f8f8"/><line x1="685.0" y1="240.0" x2="685.0" y2="0.0" stroke="#f8f8f8"/><line x1="705.0" y1="240.0" x2="705.0" y2="0.0" stroke="#f8f8f8"/><line x1="725.0" y1="240.0" x2="725.0" y2="0.0" stroke="#f8f8f8"/><line x1="745.0" y1="240.0" x2="745.0" y2="0.0" stroke="#f8f8f8"/><line x1="765.0" y1="240.0" x2="765.0" y2="0.0" stroke="#f8f8f8"/><line x1="785.0" y1="240.0" x2="785.0" y2="0.0" stroke="#f8f8f8"/></g><g class="ylines"><line x1="5.0" y1="220.0" x2="805.0" y2="220.0" stroke="#f8f8f8"/><line x1="5.0" y1="200.0" x2="805.0" y2="200.0" stroke="#f8f8f8"/><line x1="5.0" y1="180.0" x2="805.0" y2="180.0" stroke="#f8f8f8"/><line x1="5.0" y1="160.00000000000003" x2="805.0" y2="160.00000000000003" stroke="#f8f8f8"/><line x1="5.0" y1="139.99999999999997" x2="805.0" y2="139.99999999999997" stroke="#f8f8f8"/><line x1="5.0" y1="120.0" x2="805.0" y2="120.0" stroke="#f8f8f8"/><line x1="5.0" y1="99.99999999999999" x2="805.0" y2="99.99999999999999" stroke="#f8f8f8"/><line x1="5.0" y1="80.00000000000001" x2="805.0" y2="80.00000000000001" stroke="#f8f8f8"/><line x1="5.0" y1="60.0" x2="805.0" y2="60.0" stroke="#f8f8f8"/><line x1="5.0" y1="39.99999999999999" x2="805.0" y2="39.99999999999999" stroke="#f8f8f8"/><line x1="5.0" y1="20.000000000000007" x2="805.0" y2="20.000000000000007" stroke="#f8f8f8"/></g><g class="points"><circle cx="45.0" cy="200.0" r="2" stroke="black" fill="none"/><circle cx="125.0" cy="80.00000000000001" r="2" stroke="black" fill="none"/><circle cx="205.0" cy="39.99999999999999" r="2" stroke="black" fill="none"/><circle cx="245.0" cy="39.99999999999999" r="2" stroke="black" fill="none"/><circle cx="285.0" cy="160.00000000000003" r="2" stroke="black" fill="none"/><circle cx="405.0" cy="160.00000000000003" r="2" stroke="black" fill="none"/><circle cx="485.0" cy="80.00000000000001" r="2" stroke="black" fill="none"/><circle cx="585.0" cy="120.0" r="2" stroke="black" fill="none"/><circle cx="645.0" cy="160.00000000000003" r="2" stroke="black" fill="none"/><circle cx="705.0" cy="139.99999999999997" r="2" stroke="black" fill="none"/><circle cx="765.0" cy="200.0" r="2" stroke="black" fill="none"/></g><g class="curve"><path d="M45,200C45,200,98.333,106.667,125,80C151.667,53.333,185,46.667,205,40C225,33.333,231.667,20,245,40C258.333,60,258.333,140,285,160C311.667,180,371.667,173.333,405,160C438.333,146.667,455,86.667,485,80C515,73.333,558.333,106.667,585,120C611.667,133.333,625,156.667,645,160C665,163.333,685,133.333,705,140C725,146.667,765,200,765,200" stroke="rgb(48, 48, 48)" fill="none"/><path d="M45,200C45,200,105,100,125,80C145,60,190,45,205,40C220,35,235,25,245,40C255,55,265,145,285,160C305,175,380,170,405,160C430,150,462.500,85,485,80C507.500,75,565,110,585,120C605,130,630,157.500,645,160C660,162.500,690,135,705,140C720,145,765,200,765,200" stroke="rgb(51, 73, 100)" fill="none"/><path d="M45,200C45,200,111.667,93.333,125,80C138.333,66.667,195,43.333,205,40C215,36.667,238.333,30,245,40C251.667,50,271.667,150,285,160C298.333,170,388.333,166.667,405,160C421.667,153.333,470,83.333,485,80C500,76.667,571.667,113.333,585,120C598.333,126.667,635,158.333,645,160C655,161.667,695,136.667,705,140C715,143.333,765,200,765,200" stroke="rgb(54, 98, 152)" fill="none"/><path d="M45,200C45,200,118.333,86.667,125,80C131.667,73.333,200,41.667,205,40C210,38.333,241.667,35,245,40C248.333,45,278.333,155,285,160C291.667,165,396.667,163.333,405,160C413.333,156.667,477.500,81.667,485,80C492.500,78.333,578.333,116.667,585,120C591.667,123.333,640,159.167,645,160C650,160.833,700,138.333,705,140C710,141.667,765,200,765,200" stroke="rgb(58, 123, 203)" fill="none"/><path d="M45,200C45,200,125,80,125,80C125,80,205,40,205,40C205,40,245,40,245,40C245,40,285,160,285,160C285,160,405,160,405,160C405,160,485,80,485,80C485,80,585,120,585,120C585,120,645,160,645,160C645,160,705,140,705,140C705,140,765,200,765,200" stroke="rgb(61, 148, 255)" fill="none"/></g></g></svg>