<svg xmlns="http://www.w3.org/2000/svg" width="928" height="500" view_box="[0, 0, 928, 500]" style="max-width: 100% height: auto"><g><path fill="#4e79a7" d="M40,21L47.304,22L54.137,21L61.431,22L68.499,22L75.803,21L82.872,21L90.176,22L97.480,22L104.548,24L111.862,21L118.931,22L126.235,21L133.539,22L140.136,21L147.430,22L154.498,23L161.802,22L168.871,21L176.175,21L183.479,22L190.547,22L197.861,21L204.929,22L212.233,22L219.537,22L226.135,22L233.429,22L240.497,22L247.801,22L254.870,21L262.174,22L269.478,23L276.546,22L283.860,22L290.928,23L298.232,23L305.536,22L312.134,23L319.428,22L326.496,22L333.800,22L340.869,22L348.173,21L355.477,21L362.545,22L369.859,22L376.927,22L384.231,22L391.535,21L398.368,21L405.662,22L412.731,21L420.035,22L427.103,22L434.407,21L441.711,21L448.780,21L456.093,21L463.162,21L470.466,22L477.770,21L484.367,22L491.661,21L498.730,21L506.034,22L513.102,21L520.406,21L527.710,21L534.778,20L542.092,21L549.161,22L556.465,22L563.769,22L570.366,21L577.660,21L584.729,21L592.033,22L599.101,22L606.405,22L613.709,21L620.777,21L628.091,22L635.160,22L642.464,22L649.768,22L656.365,22L663.659,21L670.727,22L678.031,22L685.100,22L692.404,22L699.708,22L706.776,21L714.090,21L721.159,22L728.463,22L735.767,21L742.599,22L749.894,22L756.962,22L764.266,22L771.334,21L778.638,21L785.942,21L793.011,21L800.325,22L807.393,22L814.697,22L822.001,22L828.598,24L835.892,25L842.961,23L850.265,23L857.333,23L864.637,23L871.941,23L879.010,23L886.324,23L893.392,23L900.696,22L908,22L908,31L900.696,32L893.392,33L886.324,30L879.010,29L871.941,28L864.637,30L857.333,29L850.265,29L842.961,28L835.892,31L828.598,32L822.001,31L814.697,31L807.393,32L800.325,27L793.011,26L785.942,26L778.638,27L771.334,28L764.266,27L756.962,28L749.894,29L742.599,33L735.767,29L728.463,28L721.159,28L714.090,27L706.776,24L699.708,26L692.404,26L685.100,25L678.031,27L670.727,27L663.659,26L656.365,31L649.768,31L642.464,31L635.160,33L628.091,31L620.777,27L613.709,27L606.405,28L599.101,25L592.033,25L584.729,27L577.660,27L570.366,29L563.769,31L556.465,31L549.161,31L542.092,29L534.778,26L527.710,30L520.406,28L513.102,26L506.034,27L498.730,26L491.661,27L484.367,31L477.770,28L470.466,31L463.162,32L456.093,30L448.780,28L441.711,26L434.407,27L427.103,30L420.035,28L412.731,28L405.662,29L398.368,30L391.535,31L384.231,32L376.927,30L369.859,31L362.545,30L355.477,27L348.173,31L340.869,29L333.800,27L326.496,30L319.428,31L312.134,31L305.536,31L298.232,31L290.928,30L283.860,30L276.546,28L269.478,28L262.174,29L254.870,28L247.801,27L240.497,27L233.429,31L226.135,36L219.537,32L212.233,32L204.929,34L197.861,31L190.547,30L183.479,29L176.175,31L168.871,30L161.802,32L154.498,32L147.430,33L140.136,41L133.539,36L126.235,35L118.931,40L111.862,39L104.548,35L97.480,34L90.176,31L82.872,28L75.803,31L68.499,29L61.431,35L54.137,34L47.304,35L40,33Z"><title>Agriculture</title></path><path fill="#f28e2c" d="M40,403L47.304,401L54.137,400L61.431,405L68.499,405L75.803,408L82.872,413L90.176,406L97.480,407L104.548,409L111.862,415L118.931,413L126.235,413L133.539,406L140.136,403L147.430,413L154.498,406L161.802,408L168.871,418L176.175,414L183.479,412L190.547,416L197.861,413L204.929,413L212.233,415L219.537,411L226.135,410L233.429,408L240.497,410L247.801,408L254.870,414L262.174,409L269.478,406L276.546,404L283.860,405L290.928,412L298.232,410L305.536,415L312.134,416L319.428,410L326.496,407L333.800,404L340.869,404L348.173,414L355.477,408L362.545,408L369.859,411L376.927,413L384.231,405L391.535,403L398.368,403L405.662,401L412.731,403L420.035,409L427.103,409L434.407,411L441.711,405L448.780,404L456.093,411L463.162,411L470.466,404L477.770,404L484.367,407L491.661,402L498.730,400L506.034,400L513.102,401L520.406,402L527.710,409L534.778,404L542.092,410L549.161,411L556.465,402L563.769,406L570.366,410L577.660,409L584.729,403L592.033,402L599.101,406L606.405,410L613.709,403L620.777,402L628.091,402L635.160,406L642.464,405L649.768,410L656.365,415L663.659,413L670.727,419L678.031,409L685.100,406L692.404,407L699.708,405L706.776,412L714.090,415L721.159,412L728.463,413L735.767,417L742.599,419L749.894,417L756.962,414L764.266,412L771.334,406L778.638,407L785.942,410L793.011,410L800.325,411L807.393,412L814.697,413L822.001,414L828.598,415L835.892,412L842.961,415L850.265,417L857.333,418L864.637,419L871.941,418L879.010,415L886.324,415L893.392,418L900.696,414L908,416L908,480L900.696,480L893.392,480L886.324,480L879.010,480L871.941,480L864.637,480L857.333,480L850.265,480L842.961,480L835.892,480L828.598,480L822.001,480L814.697,480L807.393,480L800.325,480L793.011,480L785.942,480L778.638,480L771.334,480L764.266,480L756.962,480L749.894,480L742.599,480L735.767,480L728.463,480L721.159,480L714.090,480L706.776,480L699.708,480L692.404,480L685.100,480L678.031,480L670.727,480L663.659,480L656.365,480L649.768,480L642.464,480L635.160,480L628.091,480L620.777,480L613.709,480L606.405,480L599.101,480L592.033,480L584.729,480L577.660,480L570.366,480L563.769,480L556.465,480L549.161,480L542.092,480L534.778,480L527.710,480L520.406,480L513.102,480L506.034,480L498.730,480L491.661,480L484.367,480L477.770,480L470.466,480L463.162,480L456.093,480L448.780,480L441.711,480L434.407,480L427.103,480L420.035,480L412.731,480L405.662,480L398.368,480L391.535,480L384.231,480L376.927,480L369.859,480L362.545,480L355.477,480L348.173,480L340.869,480L333.800,480L326.496,480L319.428,480L312.134,480L305.536,480L298.232,480L290.928,480L283.860,480L276.546,480L269.478,480L262.174,480L254.870,480L247.801,480L240.497,480L233.429,480L226.135,480L219.537,480L212.233,480L204.929,480L197.861,480L190.547,480L183.479,480L176.175,480L168.871,480L161.802,480L154.498,480L147.430,480L140.136,480L133.539,480L126.235,480L118.931,480L111.862,480L104.548,480L97.480,480L90.176,480L82.872,480L75.803,480L68.499,480L61.431,480L54.137,480L47.304,480L40,480Z"><title>Wholesale and Retail Trade</title></path><path fill="#e15759" d="M40,82L47.304,79L54.137,81L61.431,85L68.499,82L75.803,75L82.872,77L90.176,77L97.480,87L104.548,74L111.862,82L118.931,86L126.235,75L133.539,77L140.136,81L147.430,83L154.498,76L161.802,81L168.871,79L176.175,79L183.479,77L190.547,84L197.861,82L204.929,87L212.233,82L219.537,84L226.135,86L233.429,78L240.497,75L247.801,77L254.870,79L262.174,80L269.478,76L276.546,75L283.860,75L290.928,73L298.232,77L305.536,82L312.134,83L319.428,82L326.496,80L333.800,75L340.869,79L348.173,79L355.477,77L362.545,80L369.859,84L376.927,78L384.231,75L391.535,78L398.368,78L405.662,77L412.731,75L420.035,72L427.103,76L434.407,76L441.711,72L448.780,75L456.093,76L463.162,74L470.466,73L477.770,73L484.367,78L491.661,78L498.730,73L506.034,73L513.102,68L520.406,73L527.710,77L534.778,79L542.092,76L549.161,73L556.465,76L563.769,73L570.366,75L577.660,76L584.729,76L592.033,68L599.101,70L606.405,78L613.709,78L620.777,75L628.091,79L635.160,79L642.464,74L649.768,74L656.365,72L663.659,64L670.727,71L678.031,71L685.100,70L692.404,68L699.708,70L706.776,63L714.090,73L721.159,67L728.463,71L735.767,79L742.599,76L749.894,73L756.962,73L764.266,74L771.334,75L778.638,73L785.942,74L793.011,69L800.325,74L807.393,77L814.697,75L822.001,76L828.598,74L835.892,78L842.961,74L850.265,77L857.333,75L864.637,78L871.941,74L879.010,72L886.324,72L893.392,77L900.696,80L908,77L908,98L900.696,102L893.392,97L886.324,93L879.010,93L871.941,96L864.637,97L857.333,93L850.265,93L842.961,92L835.892,96L828.598,95L822.001,96L814.697,100L807.393,102L800.325,94L793.011,90L785.942,97L778.638,94L771.334,94L764.266,96L756.962,96L749.894,96L742.599,98L735.767,100L728.463,91L721.159,89L714.090,98L706.776,89L699.708,92L692.404,90L685.100,93L678.031,90L670.727,92L663.659,82L656.365,95L649.768,94L642.464,98L635.160,101L628.091,99L620.777,97L613.709,100L606.405,100L599.101,90L592.033,86L584.729,95L577.660,101L570.366,96L563.769,95L556.465,98L549.161,97L542.092,98L534.778,98L527.710,96L520.406,90L513.102,87L506.034,91L498.730,94L491.661,97L484.367,97L477.770,94L470.466,93L463.162,97L456.093,99L448.780,95L441.711,96L434.407,97L427.103,94L420.035,90L412.731,94L405.662,92L398.368,92L391.535,93L384.231,91L376.927,97L369.859,102L362.545,100L355.477,94L348.173,96L340.869,94L333.800,90L326.496,96L319.428,96L312.134,98L305.536,98L298.232,93L290.928,93L283.860,93L276.546,92L269.478,92L262.174,97L254.870,94L247.801,92L240.497,91L233.429,94L226.135,98L219.537,98L212.233,96L204.929,103L197.861,97L190.547,101L183.479,95L176.175,96L168.871,93L161.802,95L154.498,93L147.430,101L140.136,95L133.539,92L126.235,89L118.931,103L111.862,107L104.548,96L97.480,107L90.176,93L82.872,96L75.803,91L68.499,101L61.431,105L54.137,98L47.304,100L40,101Z"><title>Self-employed</title></path><path fill="#76b7b2" d="M40,346L47.304,347L54.137,341L61.431,335L68.499,342L75.803,354L82.872,352L90.176,347L97.480,345L104.548,342L111.862,353L118.931,351L126.235,346L133.539,339L140.136,332L147.430,342L154.498,330L161.802,336L168.871,340L176.175,342L183.479,340L190.547,343L197.861,342L204.929,340L212.233,342L219.537,340L226.135,334L233.429,330L240.497,337L247.801,339L254.870,345L262.174,342L269.478,338L276.546,338L283.860,338L290.928,342L298.232,343L305.536,351L312.134,349L319.428,341L326.496,340L333.800,339L340.869,338L348.173,347L355.477,338L362.545,345L369.859,349L376.927,349L384.231,346L391.535,342L398.368,343L405.662,337L412.731,341L420.035,352L427.103,347L434.407,357L441.711,348L448.780,344L456.093,352L463.162,354L470.466,352L477.770,353L484.367,352L491.661,347L498.730,348L506.034,351L513.102,343L520.406,349L527.710,355L534.778,346L542.092,353L549.161,357L556.465,351L563.769,353L570.366,362L577.660,354L584.729,352L592.033,356L599.101,355L606.405,361L613.709,355L620.777,352L628.091,349L635.160,356L642.464,356L649.768,359L656.365,362L663.659,356L670.727,368L678.031,362L685.100,363L692.404,364L699.708,356L706.776,357L714.090,359L721.159,360L728.463,362L735.767,367L742.599,367L749.894,363L756.962,358L764.266,361L771.334,356L778.638,355L785.942,356L793.011,357L800.325,355L807.393,353L814.697,349L822.001,349L828.598,348L835.892,340L842.961,344L850.265,350L857.333,352L864.637,356L871.941,354L879.010,350L886.324,349L893.392,359L900.696,356L908,361L908,416L900.696,414L893.392,418L886.324,415L879.010,415L871.941,418L864.637,419L857.333,418L850.265,417L842.961,415L835.892,412L828.598,415L822.001,414L814.697,413L807.393,412L800.325,411L793.011,410L785.942,410L778.638,407L771.334,406L764.266,412L756.962,414L749.894,417L742.599,419L735.767,417L728.463,413L721.159,412L714.090,415L706.776,412L699.708,405L692.404,407L685.100,406L678.031,409L670.727,419L663.659,413L656.365,415L649.768,410L642.464,405L635.160,406L628.091,402L620.777,402L613.709,403L606.405,410L599.101,406L592.033,402L584.729,403L577.660,409L570.366,410L563.769,406L556.465,402L549.161,411L542.092,410L534.778,404L527.710,409L520.406,402L513.102,401L506.034,400L498.730,400L491.661,402L484.367,407L477.770,404L470.466,404L463.162,411L456.093,411L448.780,404L441.711,405L434.407,411L427.103,409L420.035,409L412.731,403L405.662,401L398.368,403L391.535,403L384.231,405L376.927,413L369.859,411L362.545,408L355.477,408L348.173,414L340.869,404L333.800,404L326.496,407L319.428,410L312.134,416L305.536,415L298.232,410L290.928,412L283.860,405L276.546,404L269.478,406L262.174,409L254.870,414L247.801,408L240.497,410L233.429,408L226.135,410L219.537,411L212.233,415L204.929,413L197.861,413L190.547,416L183.479,412L176.175,414L168.871,418L161.802,408L154.498,406L147.430,413L140.136,403L133.539,406L126.235,413L118.931,413L111.862,415L104.548,409L97.480,407L90.176,406L82.872,413L75.803,408L68.499,405L61.431,405L54.137,400L47.304,401L40,403Z"><title>Manufacturing</title></path><path fill="#59a14f" d="M40,20L47.304,20L54.137,20L61.431,20L68.499,20L75.803,20L82.872,20L90.176,20L97.480,20L104.548,20L111.862,20L118.931,20L126.235,20L133.539,20L140.136,20L147.430,20L154.498,20L161.802,20L168.871,20L176.175,20L183.479,20L190.547,20L197.861,20L204.929,20L212.233,20L219.537,20L226.135,20L233.429,20L240.497,20L247.801,20L254.870,20L262.174,20L269.478,20L276.546,20L283.860,20L290.928,20L298.232,20L305.536,20L312.134,20L319.428,20L326.496,20L333.800,20L340.869,20L348.173,20L355.477,20L362.545,20L369.859,20L376.927,20L384.231,20L391.535,20L398.368,20L405.662,20L412.731,20L420.035,20L427.103,20L434.407,20L441.711,20L448.780,20L456.093,20L463.162,20L470.466,20L477.770,20L484.367,20L491.661,20L498.730,20L506.034,20L513.102,20L520.406,20L527.710,20L534.778,20L542.092,20L549.161,20L556.465,20L563.769,20L570.366,20L577.660,20L584.729,20L592.033,20L599.101,20L606.405,20L613.709,20L620.777,20L628.091,20L635.160,20L642.464,20L649.768,20L656.365,20L663.659,20L670.727,20L678.031,20L685.100,20L692.404,20L699.708,20L706.776,20L714.090,20L721.159,20L728.463,20L735.767,20L742.599,20L749.894,20L756.962,20L764.266,20L771.334,20L778.638,20L785.942,20L793.011,20L800.325,20L807.393,20L814.697,20L822.001,20L828.598,20L835.892,20L842.961,20L850.265,20L857.333,20L864.637,20L871.941,20L879.010,20L886.324,20L893.392,20L900.696,20L908,20L908,22L900.696,22L893.392,23L886.324,23L879.010,23L871.941,23L864.637,23L857.333,23L850.265,23L842.961,23L835.892,25L828.598,24L822.001,22L814.697,22L807.393,22L800.325,22L793.011,21L785.942,21L778.638,21L771.334,21L764.266,22L756.962,22L749.894,22L742.599,22L735.767,21L728.463,22L721.159,22L714.090,21L706.776,21L699.708,22L692.404,22L685.100,22L678.031,22L670.727,22L663.659,21L656.365,22L649.768,22L642.464,22L635.160,22L628.091,22L620.777,21L613.709,21L606.405,22L599.101,22L592.033,22L584.729,21L577.660,21L570.366,21L563.769,22L556.465,22L549.161,22L542.092,21L534.778,20L527.710,21L520.406,21L513.102,21L506.034,22L498.730,21L491.661,21L484.367,22L477.770,21L470.466,22L463.162,21L456.093,21L448.780,21L441.711,21L434.407,21L427.103,22L420.035,22L412.731,21L405.662,22L398.368,21L391.535,21L384.231,22L376.927,22L369.859,22L362.545,22L355.477,21L348.173,21L340.869,22L333.800,22L326.496,22L319.428,22L312.134,23L305.536,22L298.232,23L290.928,23L283.860,22L276.546,22L269.478,23L262.174,22L254.870,21L247.801,22L240.497,22L233.429,22L226.135,22L219.537,22L212.233,22L204.929,22L197.861,21L190.547,22L183.479,22L176.175,21L168.871,21L161.802,22L154.498,23L147.430,22L140.136,21L133.539,22L126.235,21L118.931,22L111.862,21L104.548,24L97.480,22L90.176,22L82.872,21L75.803,21L68.499,22L61.431,22L54.137,21L47.304,22L40,21Z"><title>Mining and Extraction</title></path><path fill="#edc949" d="M40,33L47.304,35L54.137,34L61.431,35L68.499,29L75.803,31L82.872,28L90.176,31L97.480,34L104.548,35L111.862,39L118.931,40L126.235,35L133.539,36L140.136,41L147.430,33L154.498,32L161.802,32L168.871,30L176.175,31L183.479,29L190.547,30L197.861,31L204.929,34L212.233,32L219.537,32L226.135,36L233.429,31L240.497,27L247.801,27L254.870,28L262.174,29L269.478,28L276.546,28L283.860,30L290.928,30L298.232,31L305.536,31L312.134,31L319.428,31L326.496,30L333.800,27L340.869,29L348.173,31L355.477,27L362.545,30L369.859,31L376.927,30L384.231,32L391.535,31L398.368,30L405.662,29L412.731,28L420.035,28L427.103,30L434.407,27L441.711,26L448.780,28L456.093,30L463.162,32L470.466,31L477.770,28L484.367,31L491.661,27L498.730,26L506.034,27L513.102,26L520.406,28L527.710,30L534.778,26L542.092,29L549.161,31L556.465,31L563.769,31L570.366,29L577.660,27L584.729,27L592.033,25L599.101,25L606.405,28L613.709,27L620.777,27L628.091,31L635.160,33L642.464,31L649.768,31L656.365,31L663.659,26L670.727,27L678.031,27L685.100,25L692.404,26L699.708,26L706.776,24L714.090,27L721.159,28L728.463,28L735.767,29L742.599,33L749.894,29L756.962,28L764.266,27L771.334,28L778.638,27L785.942,26L793.011,26L800.325,27L807.393,32L814.697,31L822.001,31L828.598,32L835.892,31L842.961,28L850.265,29L857.333,29L864.637,30L871.941,28L879.010,29L886.324,30L893.392,33L900.696,32L908,31L908,40L900.696,41L893.392,41L886.324,38L879.010,37L871.941,40L864.637,42L857.333,42L850.265,41L842.961,39L835.892,43L828.598,41L822.001,39L814.697,40L807.393,42L800.325,36L793.011,35L785.942,35L778.638,35L771.334,35L764.266,36L756.962,38L749.894,39L742.599,42L735.767,41L728.463,39L721.159,37L714.090,37L706.776,33L699.708,35L692.404,36L685.100,33L678.031,35L670.727,35L663.659,32L656.365,38L649.768,40L642.464,40L635.160,41L628.091,42L620.777,37L613.709,40L606.405,37L599.101,33L592.033,33L584.729,39L577.660,37L570.366,37L563.769,38L556.465,38L549.161,40L542.092,41L534.778,38L527.710,41L520.406,39L513.102,35L506.034,37L498.730,36L491.661,39L484.367,42L477.770,40L470.466,40L463.162,43L456.093,42L448.780,40L441.711,38L434.407,39L427.103,41L420.035,38L412.731,40L405.662,40L398.368,42L391.535,42L384.231,44L376.927,44L369.859,46L362.545,41L355.477,42L348.173,44L340.869,41L333.800,40L326.496,45L319.428,47L312.134,46L305.536,48L298.232,44L290.928,45L283.860,43L276.546,42L269.478,43L262.174,46L254.870,43L247.801,42L240.497,43L233.429,46L226.135,51L219.537,47L212.233,46L204.929,51L197.861,46L190.547,46L183.479,45L176.175,46L168.871,45L161.802,44L154.498,46L147.430,46L140.136,52L133.539,44L126.235,46L118.931,55L111.862,50L104.548,44L97.480,46L90.176,44L82.872,40L75.803,39L68.499,41L61.431,44L54.137,45L47.304,44L40,43Z"><title>Information</title></path><path fill="#af7aa1" d="M40,151L47.304,150L54.137,141L61.431,150L68.499,153L75.803,162L82.872,158L90.176,162L97.480,162L104.548,155L111.862,160L118.931,156L126.235,140L133.539,132L140.136,137L147.430,150L154.498,140L161.802,153L168.871,155L176.175,153L183.479,147L190.547,150L197.861,145L204.929,145L212.233,136L219.537,143L226.135,140L233.429,137L240.497,142L247.801,146L254.870,151L262.174,154L269.478,145L276.546,143L283.860,141L290.928,138L298.232,140L305.536,139L312.134,146L319.428,141L326.496,142L333.800,147L340.869,151L348.173,158L355.477,145L362.545,149L369.859,153L376.927,146L384.231,140L391.535,141L398.368,141L405.662,139L412.731,144L420.035,145L427.103,158L434.407,161L441.711,159L448.780,157L456.093,152L463.162,148L470.466,140L477.770,139L484.367,143L491.661,148L498.730,146L506.034,157L513.102,152L520.406,157L527.710,153L534.778,152L542.092,151L549.161,139L556.465,143L563.769,143L570.366,148L577.660,152L584.729,149L592.033,149L599.101,157L606.405,161L613.709,148L620.777,148L628.091,147L635.160,148L642.464,144L649.768,140L656.365,143L663.659,131L670.727,147L678.031,153L685.100,162L692.404,167L699.708,153L706.776,149L714.090,152L721.159,140L728.463,137L735.767,143L742.599,144L749.894,143L756.962,148L764.266,154L771.334,156L778.638,154L785.942,149L793.011,142L800.325,144L807.393,149L814.697,146L822.001,139L828.598,139L835.892,138L842.961,136L850.265,143L857.333,150L864.637,154L871.941,151L879.010,142L886.324,141L893.392,146L900.696,150L908,147L908,183L900.696,185L893.392,186L886.324,181L879.010,185L871.941,194L864.637,196L857.333,192L850.265,186L842.961,172L835.892,173L828.598,171L822.001,170L814.697,175L807.393,184L800.325,181L793.011,185L785.942,195L778.638,200L771.334,199L764.266,194L756.962,187L749.894,181L742.599,182L735.767,178L728.463,171L721.159,175L714.090,190L706.776,189L699.708,199L692.404,213L685.100,207L678.031,200L670.727,195L663.659,174L656.365,179L649.768,173L642.464,180L635.160,186L628.091,188L620.777,190L613.709,192L606.405,205L599.101,202L592.033,193L584.729,189L577.660,193L570.366,186L563.769,177L556.465,182L549.161,177L542.092,198L534.778,198L527.710,199L520.406,201L513.102,194L506.034,201L498.730,191L491.661,189L484.367,181L477.770,174L470.466,176L463.162,185L456.093,189L448.780,192L441.711,199L434.407,202L427.103,202L420.035,191L412.731,181L405.662,177L398.368,173L391.535,175L384.231,176L376.927,185L369.859,193L362.545,188L355.477,183L348.173,201L340.869,189L333.800,187L326.496,178L319.428,176L312.134,175L305.536,170L298.232,169L290.928,171L283.860,171L276.546,176L269.478,180L262.174,193L254.870,190L247.801,183L240.497,175L233.429,166L226.135,170L219.537,175L212.233,167L204.929,175L197.861,178L190.547,183L183.479,180L176.175,195L168.871,193L161.802,189L154.498,173L147.430,178L140.136,171L133.539,163L126.235,172L118.931,184L111.862,193L104.548,187L97.480,199L90.176,200L82.872,199L75.803,201L68.499,192L61.431,181L54.137,172L47.304,177L40,178Z"><title>Education and Health</title></path><path fill="#ff9da7" d="M40,101L47.304,100L54.137,98L61.431,105L68.499,101L75.803,91L82.872,96L90.176,93L97.480,107L104.548,96L111.862,107L118.931,103L126.235,89L133.539,92L140.136,95L147.430,101L154.498,93L161.802,95L168.871,93L176.175,96L183.479,95L190.547,101L197.861,97L204.929,103L212.233,96L219.537,98L226.135,98L233.429,94L240.497,91L247.801,92L254.870,94L262.174,97L269.478,92L276.546,92L283.860,93L290.928,93L298.232,93L305.536,98L312.134,98L319.428,96L326.496,96L333.800,90L340.869,94L348.173,96L355.477,94L362.545,100L369.859,102L376.927,97L384.231,91L391.535,93L398.368,92L405.662,92L412.731,94L420.035,90L427.103,94L434.407,97L441.711,96L448.780,95L456.093,99L463.162,97L470.466,93L477.770,94L484.367,97L491.661,97L498.730,94L506.034,91L513.102,87L520.406,90L527.710,96L534.778,98L542.092,98L549.161,97L556.465,98L563.769,95L570.366,96L577.660,101L584.729,95L592.033,86L599.101,90L606.405,100L613.709,100L620.777,97L628.091,99L635.160,101L642.464,98L649.768,94L656.365,95L663.659,82L670.727,92L678.031,90L685.100,93L692.404,90L699.708,92L706.776,89L714.090,98L721.159,89L728.463,91L735.767,100L742.599,98L749.894,96L756.962,96L764.266,96L771.334,94L778.638,94L785.942,97L793.011,90L800.325,94L807.393,102L814.697,100L822.001,96L828.598,95L835.892,96L842.961,92L850.265,93L857.333,93L864.637,97L871.941,96L879.010,93L886.324,93L893.392,97L900.696,102L908,98L908,120L900.696,121L893.392,120L886.324,115L879.010,115L871.941,119L864.637,117L857.333,112L850.265,110L842.961,111L835.892,116L828.598,118L822.001,119L814.697,121L807.393,126L800.325,118L793.011,113L785.942,117L778.638,116L771.334,114L764.266,116L756.962,119L749.894,118L742.599,118L735.767,120L728.463,108L721.159,110L714.090,117L706.776,112L699.708,115L692.404,117L685.100,114L678.031,111L670.727,114L663.659,100L656.365,113L649.768,113L642.464,113L635.160,118L628.091,116L620.777,114L613.709,118L606.405,118L599.101,112L592.033,107L584.729,117L577.660,122L570.366,116L563.769,112L556.465,114L549.161,111L542.092,117L534.778,116L527.710,114L520.406,111L513.102,107L506.034,111L498.730,114L491.661,115L484.367,113L477.770,111L470.466,108L463.162,116L456.093,118L448.780,119L441.711,121L434.407,117L427.103,113L420.035,110L412.731,113L405.662,112L398.368,111L391.535,113L384.231,113L376.927,114L369.859,121L362.545,119L355.477,112L348.173,116L340.869,109L333.800,109L326.496,114L319.428,115L312.134,118L305.536,114L298.232,110L290.928,112L283.860,113L276.546,112L269.478,111L262.174,118L254.870,114L247.801,113L240.497,112L233.429,111L226.135,114L219.537,115L212.233,110L204.929,119L197.861,118L190.547,120L183.479,115L176.175,114L168.871,115L161.802,114L154.498,109L147.430,120L140.136,111L133.539,110L126.235,106L118.931,122L111.862,124L104.548,117L97.480,124L90.176,111L82.872,112L75.803,110L68.499,119L61.431,124L54.137,116L47.304,118L40,118Z"><title>Finance</title></path><path fill="#9c755f" d="M40,43L47.304,44L54.137,45L61.431,44L68.499,41L75.803,39L82.872,40L90.176,44L97.480,46L104.548,44L111.862,50L118.931,55L126.235,46L133.539,44L140.136,52L147.430,46L154.498,46L161.802,44L168.871,45L176.175,46L183.479,45L190.547,46L197.861,46L204.929,51L212.233,46L219.537,47L226.135,51L233.429,46L240.497,43L247.801,42L254.870,43L262.174,46L269.478,43L276.546,42L283.860,43L290.928,45L298.232,44L305.536,48L312.134,46L319.428,47L326.496,45L333.800,40L340.869,41L348.173,44L355.477,42L362.545,41L369.859,46L376.927,44L384.231,44L391.535,42L398.368,42L405.662,40L412.731,40L420.035,38L427.103,41L434.407,39L441.711,38L448.780,40L456.093,42L463.162,43L470.466,40L477.770,40L484.367,42L491.661,39L498.730,36L506.034,37L513.102,35L520.406,39L527.710,41L534.778,38L542.092,41L549.161,40L556.465,38L563.769,38L570.366,37L577.660,37L584.729,39L592.033,33L599.101,33L606.405,37L613.709,40L620.777,37L628.091,42L635.160,41L642.464,40L649.768,40L656.365,38L663.659,32L670.727,35L678.031,35L685.100,33L692.404,36L699.708,35L706.776,33L714.090,37L721.159,37L728.463,39L735.767,41L742.599,42L749.894,39L756.962,38L764.266,36L771.334,35L778.638,35L785.942,35L793.011,35L800.325,36L807.393,42L814.697,40L822.001,39L828.598,41L835.892,43L842.961,39L850.265,41L857.333,42L864.637,42L871.941,40L879.010,37L886.324,38L893.392,41L900.696,41L908,40L908,59L900.696,61L893.392,60L886.324,55L879.010,54L871.941,59L864.637,60L857.333,59L850.265,58L842.961,57L835.892,63L828.598,60L822.001,59L814.697,59L807.393,61L800.325,52L793.011,52L785.942,54L778.638,51L771.334,55L764.266,55L756.962,55L749.894,56L742.599,59L735.767,59L728.463,55L721.159,51L714.090,54L706.776,50L699.708,51L692.404,51L685.100,54L678.031,52L670.727,52L663.659,47L656.365,56L649.768,57L642.464,56L635.160,55L628.091,56L620.777,53L613.709,54L606.405,53L599.101,49L592.033,49L584.729,56L577.660,57L570.366,55L563.769,55L556.465,56L549.161,54L542.092,55L534.778,56L527.710,56L520.406,51L513.102,50L506.034,54L498.730,51L491.661,57L484.367,58L477.770,54L470.466,56L463.162,56L456.093,56L448.780,55L441.711,52L434.407,55L427.103,55L420.035,52L412.731,55L405.662,55L398.368,58L391.535,58L384.231,57L376.927,61L369.859,63L362.545,57L355.477,57L348.173,58L340.869,57L333.800,55L326.496,60L319.428,63L312.134,63L305.536,65L298.232,61L290.928,59L283.860,58L276.546,58L269.478,58L262.174,59L254.870,59L247.801,58L240.497,59L233.429,63L226.135,69L219.537,66L212.233,66L204.929,70L197.861,65L190.547,68L183.479,60L176.175,62L168.871,62L161.802,62L154.498,61L147.430,65L140.136,66L133.539,59L126.235,61L118.931,70L111.862,62L104.548,59L97.480,67L90.176,61L82.872,60L75.803,55L68.499,59L61.431,62L54.137,61L47.304,61L40,61Z"><title>Transportation and Utilities</title></path><path fill="#bab0ab" d="M40,118L47.304,118L54.137,116L61.431,124L68.499,119L75.803,110L82.872,112L90.176,111L97.480,124L104.548,117L111.862,124L118.931,122L126.235,106L133.539,110L140.136,111L147.430,120L154.498,109L161.802,114L168.871,115L176.175,114L183.479,115L190.547,120L197.861,118L204.929,119L212.233,110L219.537,115L226.135,114L233.429,111L240.497,112L247.801,113L254.870,114L262.174,118L269.478,111L276.546,112L283.860,113L290.928,112L298.232,110L305.536,114L312.134,118L319.428,115L326.496,114L333.800,109L340.869,109L348.173,116L355.477,112L362.545,119L369.859,121L376.927,114L384.231,113L391.535,113L398.368,111L405.662,112L412.731,113L420.035,110L427.103,113L434.407,117L441.711,121L448.780,119L456.093,118L463.162,116L470.466,108L477.770,111L484.367,113L491.661,115L498.730,114L506.034,111L513.102,107L520.406,111L527.710,114L534.778,116L542.092,117L549.161,111L556.465,114L563.769,112L570.366,116L577.660,122L584.729,117L592.033,107L599.101,112L606.405,118L613.709,118L620.777,114L628.091,116L635.160,118L642.464,113L649.768,113L656.365,113L663.659,100L670.727,114L678.031,111L685.100,114L692.404,117L699.708,115L706.776,112L714.090,117L721.159,110L728.463,108L735.767,120L742.599,118L749.894,118L756.962,119L764.266,116L771.334,114L778.638,116L785.942,117L793.011,113L800.325,118L807.393,126L814.697,121L822.001,119L828.598,118L835.892,116L842.961,111L850.265,110L857.333,112L864.637,117L871.941,119L879.010,115L886.324,115L893.392,120L900.696,121L908,120L908,147L900.696,150L893.392,146L886.324,141L879.010,142L871.941,151L864.637,154L857.333,150L850.265,143L842.961,136L835.892,138L828.598,139L822.001,139L814.697,146L807.393,149L800.325,144L793.011,142L785.942,149L778.638,154L771.334,156L764.266,154L756.962,148L749.894,143L742.599,144L735.767,143L728.463,137L721.159,140L714.090,152L706.776,149L699.708,153L692.404,167L685.100,162L678.031,153L670.727,147L663.659,131L656.365,143L649.768,140L642.464,144L635.160,148L628.091,147L620.777,148L613.709,148L606.405,161L599.101,157L592.033,149L584.729,149L577.660,152L570.366,148L563.769,143L556.465,143L549.161,139L542.092,151L534.778,152L527.710,153L520.406,157L513.102,152L506.034,157L498.730,146L491.661,148L484.367,143L477.770,139L470.466,140L463.162,148L456.093,152L448.780,157L441.711,159L434.407,161L427.103,158L420.035,145L412.731,144L405.662,139L398.368,141L391.535,141L384.231,140L376.927,146L369.859,153L362.545,149L355.477,145L348.173,158L340.869,151L333.800,147L326.496,142L319.428,141L312.134,146L305.536,139L298.232,140L290.928,138L283.860,141L276.546,143L269.478,145L262.174,154L254.870,151L247.801,146L240.497,142L233.429,137L226.135,140L219.537,143L212.233,136L204.929,145L197.861,145L190.547,150L183.479,147L176.175,153L168.871,155L161.802,153L154.498,140L147.430,150L140.136,137L133.539,132L126.235,140L118.931,156L111.862,160L104.548,155L97.480,162L90.176,162L82.872,158L75.803,162L68.499,153L61.431,150L54.137,141L47.304,150L40,151Z"><title>Government</title></path><path fill="#4e79a7" d="M40,286L47.304,286L54.137,277L61.431,272L68.499,280L75.803,282L82.872,286L90.176,289L97.480,286L104.548,276L111.862,288L118.931,291L126.235,287L133.539,278L140.136,271L147.430,281L154.498,268L161.802,274L168.871,280L176.175,288L183.479,274L190.547,281L197.861,282L204.929,282L212.233,292L219.537,287L226.135,280L233.429,273L240.497,274L247.801,279L254.870,287L262.174,289L269.478,282L276.546,278L283.860,279L290.928,288L298.232,289L305.536,291L312.134,293L319.428,283L326.496,284L333.800,283L340.869,282L348.173,288L355.477,281L362.545,288L369.859,290L376.927,294L384.231,287L391.535,287L398.368,285L405.662,278L412.731,277L420.035,280L427.103,288L434.407,292L441.711,291L448.780,287L456.093,292L463.162,299L470.466,295L477.770,294L484.367,291L491.661,286L498.730,282L506.034,288L513.102,281L520.406,290L527.710,297L534.778,289L542.092,286L549.161,291L556.465,292L563.769,286L570.366,299L577.660,290L584.729,290L592.033,288L599.101,296L606.405,299L613.709,293L620.777,289L628.091,285L635.160,302L642.464,297L649.768,300L656.365,301L663.659,292L670.727,304L678.031,296L685.100,300L692.404,301L699.708,291L706.776,288L714.090,287L721.159,295L728.463,291L735.767,301L742.599,309L749.894,303L756.962,290L764.266,293L771.334,291L778.638,295L785.942,300L793.011,297L800.325,291L807.393,299L814.697,294L822.001,296L828.598,296L835.892,291L842.961,288L850.265,293L857.333,299L864.637,301L871.941,303L879.010,296L886.324,296L893.392,305L900.696,301L908,312L908,361L900.696,356L893.392,359L886.324,349L879.010,350L871.941,354L864.637,356L857.333,352L850.265,350L842.961,344L835.892,340L828.598,348L822.001,349L814.697,349L807.393,353L800.325,355L793.011,357L785.942,356L778.638,355L771.334,356L764.266,361L756.962,358L749.894,363L742.599,367L735.767,367L728.463,362L721.159,360L714.090,359L706.776,357L699.708,356L692.404,364L685.100,363L678.031,362L670.727,368L663.659,356L656.365,362L649.768,359L642.464,356L635.160,356L628.091,349L620.777,352L613.709,355L606.405,361L599.101,355L592.033,356L584.729,352L577.660,354L570.366,362L563.769,353L556.465,351L549.161,357L542.092,353L534.778,346L527.710,355L520.406,349L513.102,343L506.034,351L498.730,348L491.661,347L484.367,352L477.770,353L470.466,352L463.162,354L456.093,352L448.780,344L441.711,348L434.407,357L427.103,347L420.035,352L412.731,341L405.662,337L398.368,343L391.535,342L384.231,346L376.927,349L369.859,349L362.545,345L355.477,338L348.173,347L340.869,338L333.800,339L326.496,340L319.428,341L312.134,349L305.536,351L298.232,343L290.928,342L283.860,338L276.546,338L269.478,338L262.174,342L254.870,345L247.801,339L240.497,337L233.429,330L226.135,334L219.537,340L212.233,342L204.929,340L197.861,342L190.547,343L183.479,340L176.175,342L168.871,340L161.802,336L154.498,330L147.430,342L140.136,332L133.539,339L126.235,346L118.931,351L111.862,353L104.548,342L97.480,345L90.176,347L82.872,352L75.803,354L68.499,342L61.431,335L54.137,341L47.304,347L40,346Z"><title>Leisure and hospitality</title></path><path fill="#f28e2c" d="M40,178L47.304,177L54.137,172L61.431,181L68.499,192L75.803,201L82.872,199L90.176,200L97.480,199L104.548,187L111.862,193L118.931,184L126.235,172L133.539,163L140.136,171L147.430,178L154.498,173L161.802,189L168.871,193L176.175,195L183.479,180L190.547,183L197.861,178L204.929,175L212.233,167L219.537,175L226.135,170L233.429,166L240.497,175L247.801,183L254.870,190L262.174,193L269.478,180L276.546,176L283.860,171L290.928,171L298.232,169L305.536,170L312.134,175L319.428,176L326.496,178L333.800,187L340.869,189L348.173,201L355.477,183L362.545,188L369.859,193L376.927,185L384.231,176L391.535,175L398.368,173L405.662,177L412.731,181L420.035,191L427.103,202L434.407,202L441.711,199L448.780,192L456.093,189L463.162,185L470.466,176L477.770,174L484.367,181L491.661,189L498.730,191L506.034,201L513.102,194L520.406,201L527.710,199L534.778,198L542.092,198L549.161,177L556.465,182L563.769,177L570.366,186L577.660,193L584.729,189L592.033,193L599.101,202L606.405,205L613.709,192L620.777,190L628.091,188L635.160,186L642.464,180L649.768,173L656.365,179L663.659,174L670.727,195L678.031,200L685.100,207L692.404,213L699.708,199L706.776,189L714.090,190L721.159,175L728.463,171L735.767,178L742.599,182L749.894,181L756.962,187L764.266,194L771.334,199L778.638,200L785.942,195L793.011,185L800.325,181L807.393,184L814.697,175L822.001,170L828.598,171L835.892,173L842.961,172L850.265,186L857.333,192L864.637,196L871.941,194L879.010,185L886.324,181L893.392,186L900.696,185L908,183L908,258L900.696,252L893.392,255L886.324,243L879.010,245L871.941,248L864.637,248L857.333,248L850.265,240L842.961,234L835.892,237L828.598,241L822.001,242L814.697,240L807.393,248L800.325,242L793.011,242L785.942,248L778.638,243L771.334,243L764.266,240L756.962,238L749.894,253L742.599,254L735.767,247L728.463,238L721.159,241L714.090,237L706.776,237L699.708,243L692.404,253L685.100,249L678.031,243L670.727,247L663.659,240L656.365,245L649.768,245L642.464,240L635.160,242L628.091,235L620.777,227L613.709,237L606.405,250L599.101,246L592.033,234L584.729,238L577.660,243L570.366,242L563.769,231L556.465,238L549.161,235L542.092,237L534.778,235L527.710,238L520.406,240L513.102,228L506.034,238L498.730,231L491.661,237L484.367,241L477.770,241L470.466,239L463.162,242L456.093,235L448.780,235L441.711,241L434.407,238L427.103,239L420.035,231L412.731,224L405.662,231L398.368,229L391.535,233L384.231,229L376.927,235L369.859,234L362.545,227L355.477,223L348.173,238L340.869,226L333.800,225L326.496,220L319.428,221L312.134,228L305.536,231L298.232,231L290.928,226L283.860,217L276.546,218L269.478,219L262.174,233L254.870,225L247.801,217L240.497,213L233.429,217L226.135,226L219.537,233L212.233,232L204.929,224L197.861,221L190.547,219L183.479,215L176.175,232L168.871,226L161.802,222L154.498,213L147.430,227L140.136,222L133.539,225L126.235,233L118.931,238L111.862,237L104.548,228L97.480,235L90.176,239L82.872,231L75.803,235L68.499,228L61.431,223L54.137,226L47.304,240L40,236Z"><title>Construction</title></path><path fill="#e15759" d="M40,61L47.304,61L54.137,61L61.431,62L68.499,59L75.803,55L82.872,60L90.176,61L97.480,67L104.548,59L111.862,62L118.931,70L126.235,61L133.539,59L140.136,66L147.430,65L154.498,61L161.802,62L168.871,62L176.175,62L183.479,60L190.547,68L197.861,65L204.929,70L212.233,66L219.537,66L226.135,69L233.429,63L240.497,59L247.801,58L254.870,59L262.174,59L269.478,58L276.546,58L283.860,58L290.928,59L298.232,61L305.536,65L312.134,63L319.428,63L326.496,60L333.800,55L340.869,57L348.173,58L355.477,57L362.545,57L369.859,63L376.927,61L384.231,57L391.535,58L398.368,58L405.662,55L412.731,55L420.035,52L427.103,55L434.407,55L441.711,52L448.780,55L456.093,56L463.162,56L470.466,56L477.770,54L484.367,58L491.661,57L498.730,51L506.034,54L513.102,50L520.406,51L527.710,56L534.778,56L542.092,55L549.161,54L556.465,56L563.769,55L570.366,55L577.660,57L584.729,56L592.033,49L599.101,49L606.405,53L613.709,54L620.777,53L628.091,56L635.160,55L642.464,56L649.768,57L656.365,56L663.659,47L670.727,52L678.031,52L685.100,54L692.404,51L699.708,51L706.776,50L714.090,54L721.159,51L728.463,55L735.767,59L742.599,59L749.894,56L756.962,55L764.266,55L771.334,55L778.638,51L785.942,54L793.011,52L800.325,52L807.393,61L814.697,59L822.001,59L828.598,60L835.892,63L842.961,57L850.265,58L857.333,59L864.637,60L871.941,59L879.010,54L886.324,55L893.392,60L900.696,61L908,59L908,77L900.696,80L893.392,77L886.324,72L879.010,72L871.941,74L864.637,78L857.333,75L850.265,77L842.961,74L835.892,78L828.598,74L822.001,76L814.697,75L807.393,77L800.325,74L793.011,69L785.942,74L778.638,73L771.334,75L764.266,74L756.962,73L749.894,73L742.599,76L735.767,79L728.463,71L721.159,67L714.090,73L706.776,63L699.708,70L692.404,68L685.100,70L678.031,71L670.727,71L663.659,64L656.365,72L649.768,74L642.464,74L635.160,79L628.091,79L620.777,75L613.709,78L606.405,78L599.101,70L592.033,68L584.729,76L577.660,76L570.366,75L563.769,73L556.465,76L549.161,73L542.092,76L534.778,79L527.710,77L520.406,73L513.102,68L506.034,73L498.730,73L491.661,78L484.367,78L477.770,73L470.466,73L463.162,74L456.093,76L448.780,75L441.711,72L434.407,76L427.103,76L420.035,72L412.731,75L405.662,77L398.368,78L391.535,78L384.231,75L376.927,78L369.859,84L362.545,80L355.477,77L348.173,79L340.869,79L333.800,75L326.496,80L319.428,82L312.134,83L305.536,82L298.232,77L290.928,73L283.860,75L276.546,75L269.478,76L262.174,80L254.870,79L247.801,77L240.497,75L233.429,78L226.135,86L219.537,84L212.233,82L204.929,87L197.861,82L190.547,84L183.479,77L176.175,79L168.871,79L161.802,81L154.498,76L147.430,83L140.136,81L133.539,77L126.235,75L118.931,86L111.862,82L104.548,74L97.480,87L90.176,77L82.872,77L75.803,75L68.499,82L61.431,85L54.137,81L47.304,79L40,82Z"><title>Other</title></path><path fill="#76b7b2" d="M40,236L47.304,240L54.137,226L61.431,223L68.499,228L75.803,235L82.872,231L90.176,239L97.480,235L104.548,228L111.862,237L118.931,238L126.235,233L133.539,225L140.136,222L147.430,227L154.498,213L161.802,222L168.871,226L176.175,232L183.479,215L190.547,219L197.861,221L204.929,224L212.233,232L219.537,233L226.135,226L233.429,217L240.497,213L247.801,217L254.870,225L262.174,233L269.478,219L276.546,218L283.860,217L290.928,226L298.232,231L305.536,231L312.134,228L319.428,221L326.496,220L333.800,225L340.869,226L348.173,238L355.477,223L362.545,227L369.859,234L376.927,235L384.231,229L391.535,233L398.368,229L405.662,231L412.731,224L420.035,231L427.103,239L434.407,238L441.711,241L448.780,235L456.093,235L463.162,242L470.466,239L477.770,241L484.367,241L491.661,237L498.730,231L506.034,238L513.102,228L520.406,240L527.710,238L534.778,235L542.092,237L549.161,235L556.465,238L563.769,231L570.366,242L577.660,243L584.729,238L592.033,234L599.101,246L606.405,250L613.709,237L620.777,227L628.091,235L635.160,242L642.464,240L649.768,245L656.365,245L663.659,240L670.727,247L678.031,243L685.100,249L692.404,253L699.708,243L706.776,237L714.090,237L721.159,241L728.463,238L735.767,247L742.599,254L749.894,253L756.962,238L764.266,240L771.334,243L778.638,243L785.942,248L793.011,242L800.325,242L807.393,248L814.697,240L822.001,242L828.598,241L835.892,237L842.961,234L850.265,240L857.333,248L864.637,248L871.941,248L879.010,245L886.324,243L893.392,255L900.696,252L908,258L908,312L900.696,301L893.392,305L886.324,296L879.010,296L871.941,303L864.637,301L857.333,299L850.265,293L842.961,288L835.892,291L828.598,296L822.001,296L814.697,294L807.393,299L800.325,291L793.011,297L785.942,300L778.638,295L771.334,291L764.266,293L756.962,290L749.894,303L742.599,309L735.767,301L728.463,291L721.159,295L714.090,287L706.776,288L699.708,291L692.404,301L685.100,300L678.031,296L670.727,304L663.659,292L656.365,301L649.768,300L642.464,297L635.160,302L628.091,285L620.777,289L613.709,293L606.405,299L599.101,296L592.033,288L584.729,290L577.660,290L570.366,299L563.769,286L556.465,292L549.161,291L542.092,286L534.778,289L527.710,297L520.406,290L513.102,281L506.034,288L498.730,282L491.661,286L484.367,291L477.770,294L470.466,295L463.162,299L456.093,292L448.780,287L441.711,291L434.407,292L427.103,288L420.035,280L412.731,277L405.662,278L398.368,285L391.535,287L384.231,287L376.927,294L369.859,290L362.545,288L355.477,281L348.173,288L340.869,282L333.800,283L326.496,284L319.428,283L312.134,293L305.536,291L298.232,289L290.928,288L283.860,279L276.546,278L269.478,282L262.174,289L254.870,287L247.801,279L240.497,274L233.429,273L226.135,280L219.537,287L212.233,292L204.929,282L197.861,282L190.547,281L183.479,274L176.175,288L168.871,280L161.802,274L154.498,268L147.430,281L140.136,271L133.539,278L126.235,287L118.931,291L111.862,288L104.548,276L97.480,286L90.176,289L82.872,286L75.803,282L68.499,280L61.431,272L54.137,277L47.304,286L40,286Z"><title>Business services</title></path></g><g transform="translate(0, 480)" fill="none" font-size="10" font-family="sans-serif" text-anchor="middle"><g class="tick" opacity="1" transform="translate(40.5, 0)"><line stroke="currentColor" y2="6"/><text fill="currentColor" y="9" dy="0.71em">2000</text></g><g class="tick" opacity="1" transform="translate(126.7345276872964, 0)"><line stroke="currentColor" y2="6"/><text fill="currentColor" y="9" dy="0.71em">2001</text></g><g class="tick" opacity="1" transform="translate(212.73344191096635, 0)"><line stroke="currentColor" y2="6"/><text fill="currentColor" y="9" dy="0.71em">2002</text></g><g class="tick" opacity="1" transform="translate(298.73235613463623, 0)"><line stroke="currentColor" y2="6"/><text fill="currentColor" y="9" dy="0.71em">2003</text></g><g class="tick" opacity="1" transform="translate(384.7312703583062, 0)"><line stroke="currentColor" y2="6"/><text fill="currentColor" y="9" dy="0.71em">2004</text></g><g class="tick" opacity="1" transform="translate(470.9657980456026, 0)"><line stroke="currentColor" y2="6"/><text fill="currentColor" y="9" dy="0.71em">2005</text></g><g class="tick" opacity="1" transform="translate(556.9647122692725, 0)"><line stroke="currentColor" y2="6"/><text fill="currentColor" y="9" dy="0.71em">2006</text></g><g class="tick" opacity="1" transform="translate(642.9636264929425, 0)"><line stroke="currentColor" y2="6"/><text fill="currentColor" y="9" dy="0.71em">2007</text></g><g class="tick" opacity="1" transform="translate(728.9625407166124, 0)"><line stroke="currentColor" y2="6"/><text fill="currentColor" y="9" dy="0.71em">2008</text></g><g class="tick" opacity="1" transform="translate(815.1970684039087, 0)"><line stroke="currentColor" y2="6"/><text fill="currentColor" y="9" dy="0.71em">2009</text></g><g class="tick" opacity="1" transform="translate(901.1959826275787, 0)"><line stroke="currentColor" y2="6"/><text fill="currentColor" y="9" dy="0.71em">2010</text></g></g><g transform="translate(40,0)" fill="none" font-size="10" font-family="sans-serif" text-anchor="end"><g class="tick" opacity="1" transform="translate(0, 480.5)"><line stroke="currentColor" x2="868"/><line stroke="currentColor" x2="-6"/><text fill="currentColor" x="-9" dy="0.32em">0%</text></g><g class="tick" opacity="1" transform="translate(0, 388.5)"><line stroke="currentColor" x2="-6"/><text fill="currentColor" x="-9" dy="0.32em">20%</text></g><g class="tick" opacity="1" transform="translate(0, 296.5)"><line stroke="currentColor" x2="-6"/><text fill="currentColor" x="-9" dy="0.32em">40%</text></g><g class="tick" opacity="1" transform="translate(0, 204.5)"><line stroke="currentColor" x2="-6"/><text fill="currentColor" x="-9" dy="0.32em">60%</text></g><g class="tick" opacity="1" transform="translate(0, 112.5)"><line stroke="currentColor" x2="-6"/><text fill="currentColor" x="-9" dy="0.32em">80%</text></g><g class="tick" opacity="1" transform="translate(0, 20.5)"><line stroke="currentColor" x2="868"/><line stroke="currentColor" x2="-6"/><text fill="currentColor" x="-9" dy="0.32em">100%</text></g><text x="-40" y="10" fill="currentColor" text-anchor="start">&#8593; Unemployed persons</text></g></svg>