<svg xmlns="http://www.w3.org/2000/svg" width="810" height="340.0" viewBox="0 0 810 340.0"><g class="legend"><text x="8.0" y="12.0" fill="black">overshoot</text><g transform="translate(8.0, 15.0)"><rect x="0" y="0" width="3" height="16.0" fill="rgb(48, 48, 48)"/><rect x="2" y="0" width="3" height="16.0" fill="rgb(48, 49, 49)"/><rect x="4" y="0" width="3" height="16.0" fill="rgb(48, 49, 51)"/><rect x="6" y="0" width="3" height="16.0" fill="rgb(48, 50, 52)"/><rect x="8" y="0" width="3" height="16.0" fill="rgb(48, 51, 54)"/><rect x="10" y="0" width="3" height="16.0" fill="rgb(48, 51, 55)"/><rect x="12" y="0" width="3" height="16.0" fill="rgb(49, 52, 56)"/><rect x="14" y="0" width="3" height="16.0" fill="rgb(49, 53, 58)"/><rect x="16" y="0" width="3" height="16.0" fill="rgb(49, 53, 59)"/><rect x="18" y="0" width="3" height="16.0" fill="rgb(49, 54, 60)"/><rect x="20" y="0" width="3" height="16.0" fill="rgb(49, 55, 62)"/><rect x="22" y="0" width="3" height="16.0" fill="rgb(49, 55, 63)"/><rect x="24" y="0" width="3" height="16.0" fill="rgb(49, 56, 65)"/><rect x="26" y="0" width="3" height="16.0" fill="rgb(49, 57, 66)"/><rect x="28" y="0" width="3" height="16.0" fill="rgb(49, 57, 67)"/><rect x="30" y="0" width="3" height="16.0" fill="rgb(49, 58, 69)"/><rect x="32" y="0" width="3" height="16.0" fill="rgb(49, 59, 70)"/><rect x="34" y="0" width="3" height="16.0" fill="rgb(49, 59, 71)"/><rect x="36" y="0" width="3" height="16.0" fill="rgb(50, 60, 73)"/><rect x="38" y="0" width="3" height="16.0" fill="rgb(50, 61, 74)"/><rect x="40" y="0" width="3" height="16.0" fill="rgb(50, 61, 76)"/><rect x="42" y="0" width="3" height="16.0" fill="rgb(50, 62, 77)"/><rect x="44" y="0" width="3" height="16.0" fill="rgb(50, 63, 78)"/><rect x="46" y="0" width="3" height="16.0" fill="rgb(50, 63, 80)"/><rect x="48" y="0" width="3" height="16.0" fill="rgb(50, 64, 81)"/><rect x="50" y="0" width="3" height="16.0" fill="rgb(50, 65, 82)"/><rect x="52" y="0" width="3" height="16.0" fill="rgb(50, 65, 84)"/><rect x="54" y="0" width="3" height="16.0" fill="rgb(50, 66, 85)"/><rect x="56" y="0" width="3" height="16.0" fill="rgb(50, 67, 87)"/><rect x="58" y="0" width="3" height="16.0" fill="rgb(51, 67, 88)"/><rect x="60" y="0" width="3" height="16.0" fill="rgb(51, 68, 89)"/><rect x="62" y="0" width="3" height="16.0" fill="rgb(51, 69, 91)"/><rect x="64" y="0" width="3" height="16.0" fill="rgb(51, 69, 92)"/><rect x="66" y="0" width="3" height="16.0" fill="rgb(51, 70, 94)"/><rect x="68" y="0" width="3" height="16.0" fill="rgb(51, 71, 95)"/><rect x="70" y="0" width="3" height="16.0" fill="rgb(51, 71, 96)"/><rect x="72" y="0" width="3" height="16.0" fill="rgb(51, 72, 98)"/><rect x="74" y="0" width="3" height="16.0" fill="rgb(51, 73, 99)"/><rect x="76" y="0" width="3" height="16.0" fill="rgb(51, 73, 100)"/><rect x="78" y="0" width="3" height="16.0" fill="rgb(51, 74, 102)"/><rect x="80" y="0" width="3" height="16.0" fill="rgb(51, 75, 103)"/><rect x="82" y="0" width="3" height="16.0" fill="rgb(52, 75, 105)"/><rect x="84" y="0" width="3" height="16.0" fill="rgb(52, 76, 106)"/><rect x="86" y="0" width="3" height="16.0" fill="rgb(52, 77, 107)"/><rect x="88" y="0" width="3" height="16.0" fill="rgb(52, 77, 109)"/><rect x="90" y="0" width="3" height="16.0" fill="rgb(52, 78, 110)"/><rect x="92" y="0" width="3" height="16.0" fill="rgb(52, 79, 111)"/><rect x="94" y="0" width="3" height="16.0" fill="rgb(52, 79, 113)"/><rect x="96" y="0" width="3" height="16.0" fill="rgb(52, 80, 114)"/><rect x="98" y="0" width="3" height="16.0" fill="rgb(52, 81, 116)"/><rect x="100" y="0" width="3" height="16.0" fill="rgb(52, 81, 117)"/><rect x="102" y="0" width="3" height="16.0" fill="rgb(52, 82, 118)"/><rect x="104" y="0" width="3" height="16.0" fill="rgb(53, 83, 120)"/><rect x="106" y="0" width="3" height="16.0" fill="rgb(53, 83, 121)"/><rect x="108" y="0" width="3" height="16.0" fill="rgb(53, 84, 123)"/><rect x="110" y="0" width="3" height="16.0" fill="rgb(53, 85, 124)"/><rect x="112" y="0" width="3" height="16.0" fill="rgb(53, 85, 125)"/><rect x="114" y="0" width="3" height="16.0" fill="rgb(53, 86, 127)"/><rect x="116" y="0" width="3" height="16.0" fill="rgb(53, 87, 128)"/><rect x="118" y="0" width="3" height="16.0" fill="rgb(53, 87, 129)"/><rect x="120" y="0" width="3" height="16.0" fill="rgb(53, 88, 131)"/><rect x="122" y="0" width="3" height="16.0" fill="rgb(53, 89, 132)"/><rect x="124" y="0" width="3" height="16.0" fill="rgb(53, 89, 134)"/><rect x="126" y="0" width="3" height="16.0" fill="rgb(53, 90, 135)"/><rect x="128" y="0" width="3" height="16.0" fill="rgb(54, 91, 136)"/><rect x="130" y="0" width="3" height="16.0" fill="rgb(54, 91, 138)"/><rect x="132" y="0" width="3" height="16.0" fill="rgb(54, 92, 139)"/><rect x="134" y="0" width="3" height="16.0" fill="rgb(54, 93, 140)"/><rect x="136" y="0" width="3" height="16.0" fill="rgb(54, 93, 142)"/><rect x="138" y="0" width="3" height="16.0" fill="rgb(54, 94, 143)"/><rect x="140" y="0" width="3" height="16.0" fill="rgb(54, 95, 145)"/><rect x="142" y="0" width="3" height="16.0" fill="rgb(54, 95, 146)"/><rect x="144" y="0" width="3" height="16.0" fill="rgb(54, 96, 147)"/><rect x="146" y="0" width="3" height="16.0" fill="rgb(54, 97, 149)"/><rect x="148" y="0" width="3" height="16.0" fill="rgb(54, 97, 150)"/><rect x="150" y="0" width="3" height="16.0" fill="rgb(54, 98, 152)"/><rect x="152" y="0" width="3" height="16.0" fill="rgb(55, 99, 153)"/><rect x="154" y="0" width="3" height="16.0" fill="rgb(55, 99, 154)"/><rect x="156" y="0" width="3" height="16.0" fill="rgb(55, 100, 156)"/><rect x="158" y="0" width="3" height="16.0" fill="rgb(55, 101, 157)"/><rect x="160" y="0" width="3" height="16.0" fill="rgb(55, 101, 158)"/><rect x="162" y="0" width="3" height="16.0" fill="rgb(55, 102, 160)"/><rect x="164" y="0" width="3" height="16.0" fill="rgb(55, 103, 161)"/><rect x="166" y="0" width="3" height="16.0" fill="rgb(55, 103, 163)"/><rect x="168" y="0" width="3" height="16.0" fill="rgb(55, 104, 164)"/><rect x="170" y="0" width="3" height="16.0" fill="rgb(55, 105, 165)"/><rect x="172" y="0" width="3" height="16.0" fill="rgb(55, 105, 167)"/><rect x="174" y="0" width="3" height="16.0" fill="rgb(56, 106, 168)"/><rect x="176" y="0" width="3" height="16.0" fill="rgb(56, 107, 169)"/><rect x="178" y="0" width="3" height="16.0" fill="rgb(56, 107, 171)"/><rect x="180" y="0" width="3" height="16.0" fill="rgb(56, 108, 172)"/><rect x="182" y="0" width="3" height="16.0" fill="rgb(56, 109, 174)"/><rect x="184" y="0" width="3" height="16.0" fill="rgb(56, 109, 175)"/><rect x="186" y="0" width="3" height="16.0" fill="rgb(56, 110, 176)"/><rect x="188" y="0" width="3" height="16.0" fill="rgb(56, 111, 178)"/><rect x="190" y="0" width="3" height="16.0" fill="rgb(56, 111, 179)"/><rect x="192" y="0" width="3" height="16.0" fill="rgb(56, 112, 180)"/><rect x="194" y="0" width="3" height="16.0" fill="rgb(56, 113, 182)"/><rect x="196" y="0" width="3" height="16.0" fill="rgb(56, 113, 183)"/><rect x="198" y="0" width="3" height="16.0" fill="rgb(57, 114, 185)"/><rect x="200" y="0" width="3" height="16.0" fill="rgb(57, 115, 186)"/><rect x="202" y="0" width="3" height="16.0" fill="rgb(57, 115, 187)"/><rect x="204" y="0" width="3" height="16.0" fill="rgb(57, 116, 189)"/><rect x="206" y="0" width="3" height="16.0" fill="rgb(57, 117, 190)"/><rect x="208" y="0" width="3" height="16.0" fill="rgb(57, 117, 192)"/><rect x="210" y="0" width="3" height="16.0" fill="rgb(57, 118, 193)"/><rect x="212" y="0" width="3" height="16.0" fill="rgb(57, 119, 194)"/><rect x="214" y="0" width="3" height="16.0" fill="rgb(57, 119, 196)"/><rect x="216" y="0" width="3" height="16.0" fill="rgb(57, 120, 197)"/><rect x="218" y="0" width="3" height="16.0" fill="rgb(57, 121, 198)"/><rect x="220" y="0" width="3" height="16.0" fill="rgb(58, 121, 200)"/><rect x="222" y="0" width="3" height="16.0" fill="rgb(58, 122, 201)"/><rect x="224" y="0" width="3" height="16.0" fill="rgb(58, 123, 203)"/><rect x="226" y="0" width="3" height="16.0" fill="rgb(58, 123, 204)"/><rect x="228" y="0" width="3" height="16.0" fill="rgb(58, 124, 205)"/><rect x="230" y="0" width="3" height="16.0" fill="rgb(58, 125, 207)"/><rect x="232" y="0" width="3" height="16.0" fill="rgb(58, 125, 208)"/><rect x="234" y="0" width="3" height="16.0" fill="rgb(58, 126, 209)"/><rect x="236" y="0" width="3" height="16.0" fill="rgb(58, 127, 211)"/><rect x="238" y="0" width="3" height="16.0" fill="rgb(58, 127, 212)"/><rect x="240" y="0" width="3" height="16.0" fill="rgb(58, 128, 214)"/><rect x="242" y="0" width="3" height="16.0" fill="rgb(58, 129, 215)"/><rect x="244" y="0" width="3" height="16.0" fill="rgb(59, 129, 216)"/><rect x="246" y="0" width="3" height="16.0" fill="rgb(59, 130, 218)"/><rect x="248" y="0" width="3" height="16.0" fill="rgb(59, 131, 219)"/><rect x="250" y="0" width="3" height="16.0" fill="rgb(59, 131, 220)"/><rect x="252" y="0" width="3" height="16.0" fill="rgb(59, 132, 222)"/><rect x="254" y="0" width="3" height="16.0" fill="rgb(59, 133, 223)"/><rect x="256" y="0" width="3" height="16.0" fill="rgb(59, 133, 225)"/><rect x="258" y="0" width="3" height="16.0" fill="rgb(59, 134, 226)"/><rect x="260" y="0" width="3" height="16.0" fill="rgb(59, 135, 227)"/><rect x="262" y="0" width="3" height="16.0" fill="rgb(59, 135, 229)"/><rect x="264" y="0" width="3" height="16.0" fill="rgb(59, 136, 230)"/><rect x="266" y="0" width="3" height="16.0" fill="rgb(60, 137, 232)"/><rect x="268" y="0" width="3" height="16.0" fill="rgb(60, 137, 233)"/><rect x="270" y="0" width="3" height="16.0" fill="rgb(60, 138, 234)"/><rect x="272" y="0" width="3" height="16.0" fill="rgb(60, 139, 236)"/><rect x="274" y="0" width="3" height="16.0" fill="rgb(60, 139, 237)"/><rect x="276" y="0" width="3" height="16.0" fill="rgb(60, 140, 238)"/><rect x="278" y="0" width="3" height="16.0" fill="rgb(60, 141, 240)"/><rect x="280" y="0" width="3" height="16.0" fill="rgb(60, 141, 241)"/><rect x="282" y="0" width="3" height="16.0" fill="rgb(60, 142, 243)"/><rect x="284" y="0" width="3" height="16.0" fill="rgb(60, 143, 244)"/><rect x="286" y="0" width="3" height="16.0" fill="rgb(60, 143, 245)"/><rect x="288" y="0" width="3" height="16.0" fill="rgb(60, 144, 247)"/><rect x="290" y="0" width="3" height="16.0" fill="rgb(61, 145, 248)"/><rect x="292" y="0" width="3" height="16.0" fill="rgb(61, 145, 249)"/><rect x="294" y="0" width="3" height="16.0" fill="rgb(61, 146, 251)"/><rect x="296" y="0" width="3" height="16.0" fill="rgb(61, 147, 252)"/><rect x="298" y="0" width="3" height="16.0" fill="rgb(61, 147, 254)"/></g><g transform="translate(8.0, 15.0)" fill="none" font-size="10" font-family="sans-serif" text-anchor="middle"><g class="tick" opacity="1" transform="translate(0.5, 0)"><line stroke="black" y2="19.2"/><text fill="black" y="22.2" dy="0.71em">0.5</text></g><g class="tick" opacity="1" transform="translate(60.5, 0)"><line stroke="black" y2="19.2"/><text fill="black" y="22.2" dy="0.71em">1.0</text></g><g class="tick" opacity="1" transform="translate(120.5, 0)"><line stroke="black" y2="19.2"/><text fill="black" y="22.2" dy="0.71em">1.5</text></g><g class="tick" opacity="1" transform="translate(180.5, 0)"><line stroke="black" y2="19.2"/><text fill="black" y="22.2" dy="0.71em">2.0</text></g><g class="tick" opacity="1" transform="translate(240.5, 0)"><line stroke="black" y2="19.2"/><text fill="black" y="22.2" dy="0.71em">2.5</text></g><g class="tick" opacity="1" transform="translate(300.5, 0)"><line stroke="black" y2="19.2"/><text fill="black" y="22.2" dy="0.71em">3.0</text></g></g></g><g class="main" transform="translate(0, 60)"><rect x="5" y="0" width="800" height="240.0" fill="#d4d4d1"/><g class="xlines"><line x1="25.0" y1="240.0" x2="25.0" y2="0.0" stroke="#f8f8f8"/><line x1="45.0" y1="240.0" x2="45.0" y2="0.0" stroke="#f8f8f8"/><line x1="65.0" y1="240.0" x2="65.0" y2="0.0" stroke="#f8f8f8"/><line x1="85.0" y1="240.0" x2="85.0" y2="0.0" stroke="#f8f8f8"/><line x1="105.0" y1="240.0" x2="105.0" y2="0.0" stroke="#f8f8f8"/><line x1="125.0" y1="240.0" x2="125.0" y2="0.0" stroke="#f8f8f8"/><line x1="145.0" y1="240.0" x2="145.0" y2="0.0" stroke="#f8f8f8"/><line x1="165.0" y1="240.0" x2="165.0" y2="0.0" stroke="#f8f8f8"/><line x1="185.0" y1="240.0" x2="185.0" y2="0.0" stroke="#f8f8f8"/><line x1="205.0" y1="240.0" x2="205.0" y2="0.0" stroke="#f8f8f8"/><line x1="225.00000000000003" y1="240.0" x2="225.00000000000003" y2="0.0" stroke="#f8f8f8"/><line x1="245.0" y1="240.0" x2="245.0" y2="0.0" stroke="#f8f8f8"/><line x1="265.0" y1="240.0" x2="265.0" y2="0.0" stroke="#f8f8f8"/><line x1="285.0" y1="240.0" x2="285.0" y2="0.0" stroke="#f8f8f8"/><line x1="305.0" y1="240.0" x2="305.0" y2="0.0" stroke="#f8f8f8"/><line x1="325.0" y1="240.0" x2="325.0" y2="0.0" stroke="#f8f8f8"/><line x1="345.0" y1="240.0" x2="345.0" y2="0.0" stroke="#f8f8f8"/><line x1="365.0" y1="240.0" x2="365.0" y2="0.0" stroke="#f8f8f8"/><line x1="385.0" y1="240.0" x2="385.0" y2="0.0" stroke="#f8f8f8"/><line x1="405.0" y1="240.0" x2="405.0" y2="0.0" stroke="#f8f8f8"/><line x1="425.0" y1="240.0" x2="425.0" y2="0.0" stroke="#f8f8f8"/><line x1="445.00000000000006" y1="240.0" x2="445.00000000000006" y2="0.0" stroke="#f8f8f8"/><line x1="464.99999999999994" y1="240.0" x2="464.99999999999994" y2="0.0" stroke="#f8f8f8"/><line x1="485.0" y1="240.0" x2="485.0" y2="0.0" stroke="#f8f8f8"/><line x1="505.0" y1="240.0" x2="505.0" y2="0.0" stroke="#f8f8f8"/><line x1="525.0" y1="240.0" x2="525.0" y2="0.0" stroke="#f8f8f8"/><line x1="545.0" y1="240.0" x2="545.0" y2="0.0" stroke="#f8f8f8"/><line x1="565.0" y1="240.0" x2="565.0" y2="0.0" stroke="#f8f8f8"/><line x1="585.0" y1="240.0" x2="585.0" y2="0.0" stroke="#f8f8f8"/><line x1="605.0" y1="240.0" x2="605.0" y2="0.0" stroke="#f8f8f8"/><line x1="625.0" y1="240.0" x2="625.0" y2="0.0" stroke="#f8f8f8"/><line x1="645.0" y1="240.0" x2="645.0" y2="0.0" stroke="#f8f8f8"/><line x1="665.0" y1="240.0" x2="665.0" y2="0.0" stroke="#f8f8f8"/><line x1="685.0" y1="240.0" x2="685.0" y2="0.0" stroke="#f8f8f8"/><line x1="705.0" y1="240.0" x2="705.0" y2="0.0" stroke="#f8f8f8"/><line x1="725.0" y1="240.0" x2="725.0" y2="0.0" stroke="#f8f8f8"/><line x1="745.0" y1="240.0" x2="745.0" y2="0.0" stroke="#f8f8f8"/><line x1="765.0" y1="240.0" x2="765.0" y2="0.0" stroke="#f8f8f8"/><line x1="785.0" y1="240.0" x2="785.0" y2="0.0" stroke="#f8f8f8"/></g><g class="ylines"><line x1="5.0" y1="220.0" x2="805.0" y2="220.0" stroke="#f8f8f8"/><line x1="5.0" y1="200.0" x2="805.0" y2="200.0" stroke="#f8f8f8"/><line x1="5.0" y1="180.0" x2="805.0" y2="180.0" stroke="#f8f8f8"/><line x1="5.0" y1="160.00000000000003" x2="805.0" y2="160.00000000000003" stroke="#f8f8f8"/><line x1="5.0" y1="139.99999999999997" x2="805.0" y2="139.99999999999997" stroke="#f8f8f8"/><line x1="5.0" y1="120.0" x2="805.0" y2="120.0" stroke="#f8f8f8"/><line x1="5.0" y1="99.99999999999999" x2="805.0" y2="99.99999999999999" stroke="#f8f8f8"/><line x1="5.0" y1="80.00000000000001" x2="805.0" y2="80.00000000000001" stroke="#f8f8f8"/><line x1="5.0" y1="60.0" x2="805.0" y2="60.0" stroke="#f8f8f8"/><line x1="5.0" y1="39.99999999999999" x2="805.0" y2="39.99999999999999" stroke="#f8f8f8"/><line x1="5.0" y1="20.000000000000007" x2="805.0" y2="20.000000000000007" stroke="#f8f8f8"/></g><g class="ease"><path d="M5,240L8.200,240.004L11.400,240.015L14.600,240.032L17.800,240.056L21,240.084L24.200,240.118L27.400,240.157L30.600,240.199L33.800,240.244L37,240.292L40.200,240.342L43.400,240.394L46.600,240.446L49.800,240.500L53,240.553L56.200,240.606L59.400,240.657L62.600,240.707L65.800,240.754L69,240.799L72.200,240.840L75.400,240.877L78.600,240.910L81.800,240.938L85,240.960L88.200,240.976L91.400,240.985L94.600,240.987L97.800,240.982L101,240.968L104.200,240.945L107.400,240.912L110.600,240.870L113.800,240.817L117,240.753L120.200,240.677L123.400,240.589L126.600,240.488L129.800,240.374L133,240.246L136.200,240.103L139.400,239.946L142.600,239.773L145.800,239.584L149,239.378L152.200,239.155L155.400,238.914L158.600,238.655L161.800,238.377L165,238.080L168.200,237.763L171.400,237.425L174.600,237.066L177.800,236.686L181,236.283L184.200,235.857L187.400,235.409L190.600,234.936L193.800,234.439L197,233.917L200.200,233.370L203.400,232.797L206.600,232.197L209.800,231.569L213,230.915L216.200,230.231L219.400,229.519L222.600,228.778L225.800,228.007L229,227.205L232.200,226.372L235.400,225.508L238.600,224.612L241.800,223.682L245,222.720L248.200,221.724L251.400,220.693L254.600,219.628L257.800,218.527L261,217.390L264.200,216.217L267.400,215.006L270.600,213.758L273.800,212.471L277,211.146L280.200,209.782L283.400,208.377L286.600,206.933L289.800,205.447L293,203.919L296.200,202.350L299.400,200.738L302.600,199.083L305.800,197.384L309,195.640L312.200,193.852L315.400,192.019L318.600,190.139L321.800,188.213L325,186.240L328.200,184.219L331.400,182.150L334.600,180.033L337.800,177.866L341,175.649L344.200,173.382L347.400,171.064L350.600,168.695L353.800,166.273L357,163.799L360.200,161.272L363.400,158.691L366.600,156.056L369.800,153.366L373,150.620L376.200,147.819L379.400,144.961L382.600,142.046L385.800,139.074L389,136.044L392.200,132.954L395.400,129.806L398.600,126.598L401.800,123.329L405,120L408.200,116.671L411.400,113.402L414.600,110.194L417.800,107.046L421,103.956L424.200,100.926L427.400,97.954L430.600,95.039L433.800,92.181L437,89.380L440.200,86.634L443.400,83.944L446.600,81.309L449.800,78.728L453,76.201L456.200,73.727L459.400,71.305L462.600,68.936L465.800,66.618L469,64.351L472.200,62.134L475.400,59.967L478.600,57.850L481.800,55.781L485,53.760L488.200,51.787L491.400,49.861L494.600,47.981L497.800,46.148L501,44.360L504.200,42.616L507.400,40.917L510.600,39.262L513.800,37.650L517,36.081L520.200,34.553L523.400,33.067L526.600,31.623L529.800,30.218L533,28.854L536.200,27.529L539.400,26.242L542.600,24.994L545.800,23.783L549,22.610L552.200,21.473L555.400,20.372L558.600,19.307L561.800,18.276L565,17.280L568.200,16.318L571.400,15.388L574.600,14.492L577.800,13.628L581,12.795L584.200,11.993L587.400,11.222L590.600,10.481L593.800,9.769L597,9.085L600.200,8.431L603.400,7.803L606.600,7.203L609.800,6.630L613,6.083L616.200,5.561L619.400,5.064L622.600,4.591L625.800,4.143L629,3.717L632.200,3.314L635.400,2.934L638.600,2.575L641.800,2.237L645,1.920L648.200,1.623L651.400,1.345L654.600,1.086L657.800,0.845L661,0.622L664.200,0.416L667.400,0.227L670.600,0.054L673.800,-0.103L677,-0.246L680.200,-0.374L683.400,-0.488L686.600,-0.589L689.800,-0.677L693,-0.753L696.200,-0.817L699.400,-0.870L702.600,-0.912L705.800,-0.945L709,-0.968L712.200,-0.982L715.400,-0.987L718.600,-0.985L721.800,-0.976L725,-0.960L728.200,-0.938L731.400,-0.910L734.600,-0.877L737.800,-0.840L741,-0.799L744.200,-0.754L747.400,-0.707L750.600,-0.657L753.800,-0.606L757,-0.553L760.200,-0.500L763.400,-0.446L766.600,-0.394L769.800,-0.342L773,-0.292L776.200,-0.244L779.400,-0.199L782.600,-0.157L785.800,-0.118L789,-0.084L792.200,-0.056L795.400,-0.032L798.600,-0.015L801.800,-0.004L805,0" stroke="rgb(48, 48, 48)" fill="none"/><path d="M5,240L8.200,240.008L11.400,240.030L14.600,240.066L17.800,240.115L21,240.177L24.200,240.250L27.400,240.334L30.600,240.429L33.800,240.533L37,240.645L40.200,240.766L43.400,240.894L46.600,241.028L49.800,241.168L53,241.313L56.200,241.463L59.400,241.616L62.600,241.772L65.800,241.930L69,242.089L72.200,242.249L75.400,242.409L78.600,242.568L81.800,242.725L85,242.880L88.200,243.032L91.400,243.180L94.600,243.324L97.800,243.462L101,243.594L104.200,243.720L107.400,243.838L110.600,243.948L113.800,244.048L117,244.140L120.200,244.220L123.400,244.290L126.600,244.347L129.800,244.392L133,244.424L136.200,244.441L139.400,244.444L142.600,244.430L145.800,244.401L149,244.355L152.200,244.290L155.400,244.207L158.600,244.105L161.800,243.983L165,243.840L168.200,243.676L171.400,243.489L174.600,243.279L177.800,243.046L181,242.788L184.200,242.505L187.400,242.196L190.600,241.860L193.800,241.497L197,241.106L200.200,240.686L203.400,240.236L206.600,239.756L209.800,239.245L213,238.702L216.200,238.127L219.400,237.518L222.600,236.875L225.800,236.197L229,235.484L232.200,234.735L235.400,233.948L238.600,233.124L241.800,232.262L245,231.360L248.200,230.418L251.400,229.436L254.600,228.412L257.800,227.346L261,226.237L264.200,225.085L267.400,223.888L270.600,222.646L273.800,221.359L277,220.024L280.200,218.643L283.400,217.213L286.600,215.735L289.800,214.207L293,212.628L296.200,210.999L299.400,209.318L302.600,207.585L305.800,205.798L309,203.958L312.200,202.063L315.400,200.112L318.600,198.105L321.800,196.041L325,193.920L328.200,191.740L331.400,189.501L334.600,187.203L337.800,184.844L341,182.423L344.200,179.940L347.400,177.395L350.600,174.786L353.800,172.113L357,169.375L360.200,166.571L363.400,163.700L366.600,160.763L369.800,157.757L373,154.683L376.200,151.539L379.400,148.325L382.600,145.041L385.800,141.684L389,138.255L392.200,134.753L395.400,131.178L398.600,127.527L401.800,123.802L405,120L408.200,116.198L411.400,112.473L414.600,108.822L417.800,105.247L421,101.745L424.200,98.316L427.400,94.959L430.600,91.675L433.800,88.461L437,85.317L440.200,82.243L443.400,79.237L446.600,76.300L449.800,73.429L453,70.625L456.200,67.887L459.400,65.214L462.600,62.605L465.800,60.060L469,57.577L472.200,55.156L475.400,52.797L478.600,50.499L481.800,48.260L485,46.080L488.200,43.959L491.400,41.895L494.600,39.888L497.800,37.937L501,36.042L504.200,34.202L507.400,32.415L510.600,30.682L513.800,29.001L517,27.372L520.200,25.793L523.400,24.265L526.600,22.787L529.800,21.357L533,19.976L536.200,18.641L539.400,17.354L542.600,16.112L545.800,14.915L549,13.763L552.200,12.654L555.400,11.588L558.600,10.564L561.800,9.582L565,8.640L568.200,7.738L571.400,6.876L574.600,6.052L577.800,5.265L581,4.516L584.200,3.803L587.400,3.125L590.600,2.482L593.800,1.873L597,1.298L600.200,0.755L603.400,0.244L606.600,-0.236L609.800,-0.686L613,-1.106L616.200,-1.497L619.400,-1.860L622.600,-2.196L625.800,-2.505L629,-2.788L632.200,-3.046L635.400,-3.279L638.600,-3.489L641.800,-3.676L645,-3.840L648.200,-3.983L651.400,-4.105L654.600,-4.207L657.800,-4.290L661,-4.355L664.200,-4.401L667.400,-4.430L670.600,-4.444L673.800,-4.441L677,-4.424L680.200,-4.392L683.400,-4.347L686.600,-4.290L689.800,-4.220L693,-4.140L696.200,-4.048L699.400,-3.948L702.600,-3.838L705.800,-3.720L709,-3.594L712.200,-3.462L715.400,-3.324L718.600,-3.180L721.800,-3.032L725,-2.880L728.200,-2.725L731.400,-2.568L734.600,-2.409L737.800,-2.249L741,-2.089L744.200,-1.930L747.400,-1.772L750.600,-1.616L753.800,-1.463L757,-1.313L760.200,-1.168L763.400,-1.028L766.600,-0.894L769.800,-0.766L773,-0.645L776.200,-0.533L779.400,-0.429L782.600,-0.334L785.800,-0.250L789,-0.177L792.200,-0.115L795.400,-0.066L798.600,-0.030L801.800,-0.008L805,0" stroke="rgb(51, 68, 89)" fill="none"/><path d="M5,240L8.200,240.011L11.400,240.045L14.600,240.100L17.800,240.174L21,240.269L24.200,240.382L27.400,240.512L30.600,240.659L33.800,240.821L37,240.998L40.200,241.189L43.400,241.393L46.600,241.609L49.800,241.836L53,242.074L56.200,242.320L59.400,242.575L62.600,242.837L65.800,243.105L69,243.379L72.200,243.658L75.400,243.940L78.600,244.225L81.800,244.512L85,244.800L88.200,245.088L91.400,245.375L94.600,245.660L97.800,245.942L101,246.221L104.200,246.495L107.400,246.763L110.600,247.025L113.800,247.280L117,247.526L120.200,247.764L123.400,247.991L126.600,248.207L129.800,248.411L133,248.602L136.200,248.779L139.400,248.941L142.600,249.088L145.800,249.218L149,249.331L152.200,249.426L155.400,249.500L158.600,249.555L161.800,249.589L165,249.600L168.200,249.588L171.400,249.553L174.600,249.492L177.800,249.406L181,249.293L184.200,249.152L187.400,248.983L190.600,248.784L193.800,248.555L197,248.294L200.200,248.002L203.400,247.676L206.600,247.316L209.800,246.921L213,246.490L216.200,246.022L219.400,245.516L222.600,244.972L225.800,244.388L229,243.763L232.200,243.097L235.400,242.389L238.600,241.637L241.800,240.841L245,240L248.200,239.113L251.400,238.179L254.600,237.196L257.800,236.166L261,235.085L264.200,233.953L267.400,232.770L270.600,231.535L273.800,230.246L277,228.902L280.200,227.504L283.400,226.049L286.600,224.537L289.800,222.967L293,221.338L296.200,219.649L299.400,217.899L302.600,216.087L305.800,214.213L309,212.275L312.200,210.273L315.400,208.205L318.600,206.071L321.800,203.870L325,201.600L328.200,199.261L331.400,196.853L334.600,194.373L337.800,191.821L341,189.197L344.200,186.499L347.400,183.726L350.600,180.878L353.800,177.953L357,174.950L360.200,171.870L363.400,168.710L366.600,165.470L369.800,162.149L373,158.746L376.200,155.259L379.400,151.690L382.600,148.035L385.800,144.294L389,140.467L392.200,136.553L395.400,132.549L398.600,128.457L401.800,124.274L405,120L408.200,115.726L411.400,111.543L414.600,107.451L417.800,103.447L421,99.533L424.200,95.706L427.400,91.965L430.600,88.310L433.800,84.741L437,81.254L440.200,77.851L443.400,74.530L446.600,71.290L449.800,68.130L453,65.050L456.200,62.047L459.400,59.122L462.600,56.274L465.800,53.501L469,50.803L472.200,48.179L475.400,45.627L478.600,43.147L481.800,40.739L485,38.400L488.200,36.130L491.400,33.929L494.600,31.795L497.800,29.727L501,27.725L504.200,25.787L507.400,23.913L510.600,22.101L513.800,20.351L517,18.662L520.200,17.033L523.400,15.463L526.600,13.951L529.800,12.496L533,11.098L536.200,9.754L539.400,8.465L542.600,7.230L545.800,6.047L549,4.915L552.200,3.834L555.400,2.804L558.600,1.821L561.800,0.887L565,0L568.200,-0.841L571.400,-1.637L574.600,-2.389L577.800,-3.097L581,-3.763L584.200,-4.388L587.400,-4.972L590.600,-5.516L593.800,-6.022L597,-6.490L600.200,-6.921L603.400,-7.316L606.600,-7.676L609.800,-8.002L613,-8.294L616.200,-8.555L619.400,-8.784L622.600,-8.983L625.800,-9.152L629,-9.293L632.200,-9.406L635.400,-9.492L638.600,-9.553L641.800,-9.588L645,-9.600L648.200,-9.589L651.400,-9.555L654.600,-9.500L657.800,-9.426L661,-9.331L664.200,-9.218L667.400,-9.088L670.600,-8.941L673.800,-8.779L677,-8.602L680.200,-8.411L683.400,-8.207L686.600,-7.991L689.800,-7.764L693,-7.526L696.200,-7.280L699.400,-7.025L702.600,-6.763L705.800,-6.495L709,-6.221L712.200,-5.942L715.400,-5.660L718.600,-5.375L721.800,-5.088L725,-4.800L728.200,-4.512L731.400,-4.225L734.600,-3.940L737.800,-3.658L741,-3.379L744.200,-3.105L747.400,-2.837L750.600,-2.575L753.800,-2.320L757,-2.074L760.200,-1.836L763.400,-1.609L766.600,-1.393L769.800,-1.189L773,-0.998L776.200,-0.821L779.400,-0.659L782.600,-0.512L785.800,-0.382L789,-0.269L792.200,-0.174L795.400,-0.100L798.600,-0.045L801.800,-0.011L805,0" stroke="rgb(53, 88, 131)" fill="none"/><path d="M5,240L8.200,240.015L11.400,240.060L14.600,240.133L17.800,240.234L21,240.361L24.200,240.513L27.400,240.689L30.600,240.889L33.800,241.110L37,241.352L40.200,241.613L43.400,241.893L46.600,242.191L49.800,242.505L53,242.834L56.200,243.177L59.400,243.533L62.600,243.902L65.800,244.281L69,244.669L72.200,245.067L75.400,245.472L78.600,245.883L81.800,246.299L85,246.720L88.200,247.144L91.400,247.569L94.600,247.996L97.800,248.422L101,248.847L104.200,249.270L107.400,249.689L110.600,250.103L113.800,250.512L117,250.913L120.200,251.307L123.400,251.691L126.600,252.066L129.800,252.429L133,252.780L136.200,253.117L139.400,253.439L142.600,253.746L145.800,254.036L149,254.308L152.200,254.561L155.400,254.794L158.600,255.005L161.800,255.194L165,255.360L168.200,255.501L171.400,255.617L174.600,255.705L177.800,255.766L181,255.798L184.200,255.799L187.400,255.770L190.600,255.708L193.800,255.613L197,255.483L200.200,255.317L203.400,255.115L206.600,254.875L209.800,254.596L213,254.277L216.200,253.917L219.400,253.514L222.600,253.069L225.800,252.578L229,252.042L232.200,251.460L235.400,250.829L238.600,250.150L241.800,249.420L245,248.640L248.200,247.807L251.400,246.921L254.600,245.981L257.800,244.985L261,243.932L264.200,242.822L267.400,241.652L270.600,240.423L273.800,239.133L277,237.780L280.200,236.365L283.400,234.885L286.600,233.339L289.800,231.727L293,230.047L296.200,228.298L299.400,226.479L302.600,224.590L305.800,222.628L309,220.593L312.200,218.483L315.400,216.298L318.600,214.037L321.800,211.698L325,209.280L328.200,206.782L331.400,204.204L334.600,201.543L337.800,198.799L341,195.971L344.200,193.057L347.400,190.057L350.600,186.969L353.800,183.792L357,180.526L360.200,177.169L363.400,173.720L366.600,170.177L369.800,166.540L373,162.808L376.200,158.980L379.400,155.054L382.600,151.029L385.800,146.904L389,142.679L392.200,138.352L395.400,133.921L398.600,129.386L401.800,124.746L405,120L408.200,115.254L411.400,110.614L414.600,106.079L417.800,101.648L421,97.321L424.200,93.096L427.400,88.971L430.600,84.946L433.800,81.020L437,77.192L440.200,73.460L443.400,69.823L446.600,66.280L449.800,62.831L453,59.474L456.200,56.208L459.400,53.031L462.600,49.943L465.800,46.943L469,44.029L472.200,41.201L475.400,38.457L478.600,35.796L481.800,33.218L485,30.720L488.200,28.302L491.400,25.963L494.600,23.702L497.800,21.517L501,19.407L504.200,17.372L507.400,15.410L510.600,13.521L513.800,11.702L517,9.953L520.200,8.273L523.400,6.661L526.600,5.115L529.800,3.635L533,2.220L536.200,0.867L539.400,-0.423L542.600,-1.652L545.800,-2.822L549,-3.932L552.200,-4.985L555.400,-5.981L558.600,-6.921L561.800,-7.807L565,-8.640L568.200,-9.420L571.400,-10.150L574.600,-10.829L577.800,-11.460L581,-12.042L584.200,-12.578L587.400,-13.069L590.600,-13.514L593.800,-13.917L597,-14.277L600.200,-14.596L603.400,-14.875L606.600,-15.115L609.800,-15.317L613,-15.483L616.200,-15.613L619.400,-15.708L622.600,-15.770L625.800,-15.799L629,-15.798L632.200,-15.766L635.400,-15.705L638.600,-15.617L641.800,-15.501L645,-15.360L648.200,-15.194L651.400,-15.005L654.600,-14.794L657.800,-14.561L661,-14.308L664.200,-14.036L667.400,-13.746L670.600,-13.439L673.800,-13.117L677,-12.780L680.200,-12.429L683.400,-12.066L686.600,-11.691L689.800,-11.307L693,-10.913L696.200,-10.512L699.400,-10.103L702.600,-9.689L705.800,-9.270L709,-8.847L712.200,-8.422L715.400,-7.996L718.600,-7.569L721.800,-7.144L725,-6.720L728.200,-6.299L731.400,-5.883L734.600,-5.472L737.800,-5.067L741,-4.669L744.200,-4.281L747.400,-3.902L750.600,-3.533L753.800,-3.177L757,-2.834L760.200,-2.505L763.400,-2.191L766.600,-1.893L769.800,-1.613L773,-1.352L776.200,-1.110L779.400,-0.889L782.600,-0.689L785.800,-0.513L789,-0.361L792.200,-0.234L795.400,-0.133L798.600,-0.060L801.800,-0.015L805,0" stroke="rgb(56, 108, 172)" fill="none"/><path d="M5,240L8.200,240.019L11.400,240.075L14.600,240.167L17.800,240.293L21,240.453L24.200,240.645L27.400,240.867L30.600,241.119L33.800,241.398L37,241.705L40.200,242.037L43.400,242.393L46.600,242.772L49.800,243.173L53,243.594L56.200,244.034L59.400,244.492L62.600,244.967L65.800,245.456L69,245.960L72.200,246.476L75.400,247.003L78.600,247.540L81.800,248.086L85,248.640L88.200,249.200L91.400,249.764L94.600,250.332L97.800,250.903L101,251.474L104.200,252.045L107.400,252.614L110.600,253.181L113.800,253.743L117,254.300L120.200,254.850L123.400,255.392L126.600,255.925L129.800,256.447L133,256.957L136.200,257.454L139.400,257.937L142.600,258.404L145.800,258.853L149,259.284L152.200,259.696L155.400,260.087L158.600,260.455L161.800,260.800L165,261.120L168.200,261.414L171.400,261.680L174.600,261.918L177.800,262.126L181,262.303L184.200,262.447L187.400,262.557L190.600,262.632L193.800,262.670L197,262.671L200.200,262.633L203.400,262.555L206.600,262.435L209.800,262.272L213,262.065L216.200,261.812L219.400,261.513L222.600,261.165L225.800,260.769L229,260.321L232.200,259.822L235.400,259.270L238.600,258.663L241.800,258L245,257.280L248.200,256.502L251.400,255.664L254.600,254.765L257.800,253.804L261,252.780L264.200,251.690L267.400,250.535L270.600,249.312L273.800,248.020L277,246.659L280.200,245.226L283.400,243.720L286.600,242.141L289.800,240.487L293,238.756L296.200,236.947L299.400,235.060L302.600,233.092L305.800,231.042L309,228.910L312.200,226.694L315.400,224.392L318.600,222.003L321.800,219.526L325,216.960L328.200,214.303L331.400,211.555L334.600,208.713L337.800,205.776L341,202.744L344.200,199.615L347.400,196.388L350.600,193.060L353.800,189.632L357,186.102L360.200,182.468L363.400,178.729L366.600,174.884L369.800,170.932L373,166.871L376.200,162.700L379.400,158.418L382.600,154.023L385.800,149.515L389,144.891L392.200,140.151L395.400,135.293L398.600,130.316L401.800,125.219L405,120L408.200,114.781L411.400,109.684L414.600,104.707L417.800,99.849L421,95.109L424.200,90.485L427.400,85.977L430.600,81.582L433.800,77.300L437,73.129L440.200,69.068L443.400,65.116L446.600,61.271L449.800,57.532L453,53.898L456.200,50.368L459.400,46.940L462.600,43.612L465.800,40.385L469,37.256L472.200,34.224L475.400,31.287L478.600,28.445L481.800,25.697L485,23.040L488.200,20.474L491.400,17.997L494.600,15.608L497.800,13.306L501,11.090L504.200,8.958L507.400,6.908L510.600,4.940L513.800,3.053L517,1.244L520.200,-0.487L523.400,-2.141L526.600,-3.720L529.800,-5.226L533,-6.659L536.200,-8.020L539.400,-9.312L542.600,-10.535L545.800,-11.690L549,-12.780L552.200,-13.804L555.400,-14.765L558.600,-15.664L561.800,-16.502L565,-17.280L568.200,-18L571.400,-18.663L574.600,-19.270L577.800,-19.822L581,-20.321L584.200,-20.769L587.400,-21.165L590.600,-21.513L593.800,-21.812L597,-22.065L600.200,-22.272L603.400,-22.435L606.600,-22.555L609.800,-22.633L613,-22.671L616.200,-22.670L619.400,-22.632L622.600,-22.557L625.800,-22.447L629,-22.303L632.200,-22.126L635.400,-21.918L638.600,-21.680L641.800,-21.414L645,-21.120L648.200,-20.800L651.400,-20.455L654.600,-20.087L657.800,-19.696L661,-19.284L664.200,-18.853L667.400,-18.404L670.600,-17.937L673.800,-17.454L677,-16.957L680.200,-16.447L683.400,-15.925L686.600,-15.392L689.800,-14.850L693,-14.300L696.200,-13.743L699.400,-13.181L702.600,-12.614L705.800,-12.045L709,-11.474L712.200,-10.903L715.400,-10.332L718.600,-9.764L721.800,-9.200L725,-8.640L728.200,-8.086L731.400,-7.540L734.600,-7.003L737.800,-6.476L741,-5.960L744.200,-5.456L747.400,-4.967L750.600,-4.492L753.800,-4.034L757,-3.594L760.200,-3.173L763.400,-2.772L766.600,-2.393L769.800,-2.037L773,-1.705L776.200,-1.398L779.400,-1.119L782.600,-0.867L785.800,-0.645L789,-0.453L792.200,-0.293L795.400,-0.167L798.600,-0.075L801.800,-0.019L805,0" stroke="rgb(58, 128, 214)" fill="none"/><path d="M5,240L8.200,240.023L11.400,240.090L14.600,240.201L17.800,240.353L21,240.545L24.200,240.776L27.400,241.045L30.600,241.349L33.800,241.687L37,242.058L40.200,242.461L43.400,242.893L46.600,243.354L49.800,243.841L53,244.355L56.200,244.892L59.400,245.451L62.600,246.032L65.800,246.632L69,247.250L72.200,247.885L75.400,248.535L78.600,249.198L81.800,249.874L85,250.560L88.200,251.256L91.400,251.959L94.600,252.668L97.800,253.383L101,254.100L104.200,254.820L107.400,255.540L110.600,256.259L113.800,256.975L117,257.687L120.200,258.394L123.400,259.093L126.600,259.784L129.800,260.466L133,261.135L136.200,261.792L139.400,262.435L142.600,263.061L145.800,263.671L149,264.261L152.200,264.831L155.400,265.380L158.600,265.905L161.800,266.406L165,266.880L168.200,267.327L171.400,267.744L174.600,268.131L177.800,268.486L181,268.808L184.200,269.094L187.400,269.344L190.600,269.556L193.800,269.728L197,269.860L200.200,269.949L203.400,269.994L206.600,269.994L209.800,269.947L213,269.852L216.200,269.707L219.400,269.511L222.600,269.262L225.800,268.959L229,268.600L232.200,268.184L235.400,267.710L238.600,267.175L241.800,266.579L245,265.920L248.200,265.196L251.400,264.407L254.600,263.549L257.800,262.623L261,261.627L264.200,260.558L267.400,259.417L270.600,258.200L273.800,256.907L277,255.537L280.200,254.087L283.400,252.556L286.600,250.943L289.800,249.247L293,247.465L296.200,245.597L299.400,243.640L302.600,241.594L305.800,239.457L309,237.228L312.200,234.904L315.400,232.485L318.600,229.969L321.800,227.354L325,224.640L328.200,221.824L331.400,218.906L334.600,215.883L337.800,212.754L341,209.518L344.200,206.173L347.400,202.718L350.600,199.152L353.800,195.472L357,191.677L360.200,187.767L363.400,183.739L366.600,179.591L369.800,175.324L373,170.934L376.200,166.420L379.400,161.782L382.600,157.017L385.800,152.125L389,147.103L392.200,141.950L395.400,136.665L398.600,131.245L401.800,125.691L405,120L408.200,114.309L411.400,108.755L414.600,103.335L417.800,98.050L421,92.897L424.200,87.875L427.400,82.983L430.600,78.218L433.800,73.580L437,69.066L440.200,64.676L443.400,60.409L446.600,56.261L449.800,52.233L453,48.323L456.200,44.528L459.400,40.848L462.600,37.282L465.800,33.827L469,30.482L472.200,27.246L475.400,24.117L478.600,21.094L481.800,18.176L485,15.360L488.200,12.646L491.400,10.031L494.600,7.515L497.800,5.096L501,2.772L504.200,0.543L507.400,-1.594L510.600,-3.640L513.800,-5.597L517,-7.465L520.200,-9.247L523.400,-10.943L526.600,-12.556L529.800,-14.087L533,-15.537L536.200,-16.907L539.400,-18.200L542.600,-19.417L545.800,-20.558L549,-21.627L552.200,-22.623L555.400,-23.549L558.600,-24.407L561.800,-25.196L565,-25.920L568.200,-26.579L571.400,-27.175L574.600,-27.710L577.800,-28.184L581,-28.600L584.200,-28.959L587.400,-29.262L590.600,-29.511L593.800,-29.707L597,-29.852L600.200,-29.947L603.400,-29.994L606.600,-29.994L609.800,-29.949L613,-29.860L616.200,-29.728L619.400,-29.556L622.600,-29.344L625.800,-29.094L629,-28.808L632.200,-28.486L635.400,-28.131L638.600,-27.744L641.800,-27.327L645,-26.880L648.200,-26.406L651.400,-25.905L654.600,-25.380L657.800,-24.831L661,-24.261L664.200,-23.671L667.400,-23.061L670.600,-22.435L673.800,-21.792L677,-21.135L680.200,-20.466L683.400,-19.784L686.600,-19.093L689.800,-18.394L693,-17.687L696.200,-16.975L699.400,-16.259L702.600,-15.540L705.800,-14.820L709,-14.100L712.200,-13.383L715.400,-12.668L718.600,-11.959L721.800,-11.256L725,-10.560L728.200,-9.874L731.400,-9.198L734.600,-8.535L737.800,-7.885L741,-7.250L744.200,-6.632L747.400,-6.032L750.600,-5.451L753.800,-4.892L757,-4.355L760.200,-3.841L763.400,-3.354L766.600,-2.893L769.800,-2.461L773,-2.058L776.200,-1.687L779.400,-1.349L782.600,-1.045L785.800,-0.776L789,-0.545L792.200,-0.353L795.400,-0.201L798.600,-0.090L801.800,-0.023L805,0" stroke="rgb(61, 148, 255)" fill="none"/></g></g></svg>