<svg xmlns="http://www.w3.org/2000/svg" width="628" height="200" view_box="0 0 628 200" style="max-width:100%;height:auto;"><g transform="translate(0, 180)" fill="none" font-size="10" font-family="sans-serif" text-anchor="middle"><g class="tick" opacity="1" transform="translate(65.17948336408547, 0)"><line stroke="currentColor" y2="6"/><text fill="currentColor" y="9" dy="0.71em">1975</text></g><g class="tick" opacity="1" transform="translate(126.9119992857568, 0)"><line stroke="currentColor" y2="6"/><text fill="currentColor" y="9" dy="0.71em">1980</text></g><g class="tick" opacity="1" transform="translate(188.6783227188858, 0)"><line stroke="currentColor" y2="6"/><text fill="currentColor" y="9" dy="0.71em">1985</text></g><g class="tick" opacity="1" transform="translate(250.41083864055713, 0)"><line stroke="currentColor" y2="6"/><text fill="currentColor" y="9" dy="0.71em">1990</text></g><g class="tick" opacity="1" transform="translate(312.1433545622284, 0)"><line stroke="currentColor" y2="6"/><text fill="currentColor" y="9" dy="0.71em">1995</text></g><g class="tick" opacity="1" transform="translate(373.87587048389975, 0)"><line stroke="currentColor" y2="6"/><text fill="currentColor" y="9" dy="0.71em">2000</text></g><g class="tick" opacity="1" transform="translate(435.6421939170287, 0)"><line stroke="currentColor" y2="6"/><text fill="currentColor" y="9" dy="0.71em">2005</text></g><g class="tick" opacity="1" transform="translate(497.3747098387001, 0)"><line stroke="currentColor" y2="6"/><text fill="currentColor" y="9" dy="0.71em">2010</text></g><g class="tick" opacity="1" transform="translate(559.1072257603714, 0)"><line stroke="currentColor" y2="6"/><text fill="currentColor" y="9" dy="0.71em">2015</text></g></g><g transform="translate(40,0)" fill="none" font-size="10" font-family="sans-serif" text-anchor="end"><g class="tick" opacity="1" transform="translate(0, 180.5)"><line stroke="currentColor" x2="568" stroke-opacity="0.2"/><line stroke="currentColor" x2="-6"/><text fill="currentColor" x="-9" dy="0.32em">0</text></g><g class="tick" opacity="1" transform="translate(0, 144.5)"><line stroke="currentColor" x2="568" stroke-opacity="0.2"/><line stroke="currentColor" x2="-6"/><text fill="currentColor" x="-9" dy="0.32em">5</text></g><g class="tick" opacity="1" transform="translate(0, 109.5)"><line stroke="currentColor" x2="568" stroke-opacity="0.2"/><line stroke="currentColor" x2="-6"/><text fill="currentColor" x="-9" dy="0.32em">10</text></g><g class="tick" opacity="1" transform="translate(0, 73.5)"><line stroke="currentColor" x2="568" stroke-opacity="0.2"/><line stroke="currentColor" x2="-6"/><text fill="currentColor" x="-9" dy="0.32em">15</text></g><g class="tick" opacity="1" transform="translate(0, 37.5)"><line stroke="currentColor" x2="568" stroke-opacity="0.2"/><line stroke="currentColor" x2="-6"/><text fill="currentColor" x="-9" dy="0.32em">20</text></g><text x="-40" y="10" fill="currentColor" text-anchor="start">&#8593; Annual revenue (billions)</text></g><g><path fill="#59a14f" d="M40,159L52.340,159L64.679,160L77.019,158L89.393,156L101.733,153L114.072,163L126.412,168L138.786,174L151.125,179L163.465,180L175.805,180L188.178,180L200.518,180L212.858,180L225.198,180L237.571,180L249.911,180L262.251,180L274.590,180L286.964,180L299.304,180L311.643,180L323.983,180L336.357,180L348.696,180L361.036,180L373.376,180L385.749,180L398.089,180L410.429,180L422.769,180L435.142,180L447.482,180L459.822,180L472.161,180L484.535,180L496.875,180L509.214,180L521.554,180L533.928,180L546.267,180L558.607,180L570.947,180L583.321,180L595.660,180L608,180L608,180L595.660,180L583.321,180L570.947,180L558.607,180L546.267,180L533.928,180L521.554,180L509.214,180L496.875,180L484.535,180L472.161,180L459.822,180L447.482,180L435.142,180L422.769,180L410.429,180L398.089,180L385.749,180L373.376,180L361.036,180L348.696,180L336.357,180L323.983,180L311.643,180L299.304,180L286.964,180L274.590,180L262.251,180L249.911,180L237.571,180L225.198,180L212.858,180L200.518,180L188.178,180L175.805,180L163.465,180L151.125,180L138.786,180L126.412,180L114.072,180L101.733,180L89.393,180L77.019,180L64.679,180L52.340,180L40,179Z"><title>8 - Track</title></path><path fill="#4e79a7" d="M40,97L52.340,98L64.679,99L77.019,92L89.393,74L101.733,64L114.072,87L126.412,98L138.786,100L151.125,111L163.465,111L175.805,104L188.178,106L200.518,103L212.858,90L225.198,83L237.571,85L249.911,77L262.251,76L274.590,64L286.964,56L299.304,34L311.643,35L323.983,37L336.357,44L348.696,32L361.036,24L373.376,31L385.749,42L398.089,55L410.429,67L422.769,68L435.142,81L447.482,95L459.822,114L472.161,133L484.535,143L496.875,151L509.214,154L521.554,159L533.928,162L546.267,164L558.607,166L570.947,169L583.321,169L595.660,172L608,172L608,176L595.660,177L583.321,177L570.947,177L558.607,177L546.267,178L533.928,178L521.554,179L509.214,179L496.875,179L484.535,179L472.161,179L459.822,180L447.482,180L435.142,180L422.769,179L410.429,178L398.089,177L385.749,175L373.376,171L361.036,165L348.696,160L336.357,157L323.983,152L311.643,147L299.304,138L286.964,138L274.590,134L262.251,135L249.911,125L237.571,123L225.198,116L212.858,116L200.518,118L188.178,113L175.805,106L163.465,111L151.125,111L138.786,100L126.412,98L114.072,87L101.733,64L89.393,74L77.019,92L64.679,99L52.340,98L40,97Z"><title>CD</title></path><path fill="#4e79a7" d="M40,97L52.340,98L64.679,99L77.019,92L89.393,74L101.733,64L114.072,87L126.412,98L138.786,100L151.125,111L163.465,111L175.805,106L188.178,113L200.518,118L212.858,116L225.198,116L237.571,123L249.911,125L262.251,135L274.590,134L286.964,138L299.304,138L311.643,147L323.983,152L336.357,157L348.696,160L361.036,165L373.376,171L385.749,175L398.089,177L410.429,178L422.769,179L435.142,180L447.482,180L459.822,180L472.161,179L484.535,179L496.875,179L509.214,179L521.554,179L533.928,178L546.267,178L558.607,177L570.947,177L583.321,177L595.660,177L608,176L608,176L595.660,177L583.321,177L570.947,177L558.607,177L546.267,178L533.928,178L521.554,179L509.214,179L496.875,179L484.535,179L472.161,179L459.822,180L447.482,180L435.142,180L422.769,179L410.429,178L398.089,177L385.749,176L373.376,173L361.036,167L348.696,162L336.357,160L323.983,155L311.643,149L299.304,139L286.964,139L274.590,134L262.251,135L249.911,125L237.571,123L225.198,116L212.858,116L200.518,118L188.178,113L175.805,106L163.465,111L151.125,111L138.786,100L126.412,98L114.072,87L101.733,64L89.393,74L77.019,92L64.679,99L52.340,98L40,97Z"><title>CD Single</title></path><path fill="#59a14f" d="M40,97L52.340,98L64.679,99L77.019,92L89.393,74L101.733,64L114.072,87L126.412,98L138.786,100L151.125,111L163.465,111L175.805,106L188.178,113L200.518,118L212.858,116L225.198,117L237.571,126L249.911,129L262.251,138L274.590,138L286.964,142L299.304,142L311.643,152L323.983,157L336.357,162L348.696,163L361.036,168L373.376,173L385.749,176L398.089,177L410.429,178L422.769,179L435.142,180L447.482,180L459.822,180L472.161,179L484.535,179L496.875,179L509.214,179L521.554,179L533.928,178L546.267,178L558.607,177L570.947,177L583.321,177L595.660,177L608,176L608,176L595.660,177L583.321,177L570.947,177L558.607,177L546.267,178L533.928,178L521.554,179L509.214,179L496.875,179L484.535,179L472.161,179L459.822,180L447.482,180L435.142,180L422.769,180L410.429,180L398.089,180L385.749,179L373.376,179L361.036,179L348.696,179L336.357,179L323.983,179L311.643,179L299.304,179L286.964,179L274.590,179L262.251,179L249.911,177L237.571,175L225.198,169L212.858,164L200.518,160L188.178,153L175.805,148L163.465,144L151.125,137L138.786,121L126.412,114L114.072,102L101.733,77L89.393,82L77.019,97L64.679,102L52.340,102L40,100Z"><title>Cassette</title></path><path fill="#59a14f" d="M40,97L52.340,98L64.679,99L77.019,92L89.393,74L101.733,64L114.072,87L126.412,98L138.786,100L151.125,111L163.465,111L175.805,106L188.178,113L200.518,118L212.858,116L225.198,116L237.571,123L249.911,125L262.251,135L274.590,134L286.964,139L299.304,139L311.643,149L323.983,155L336.357,160L348.696,162L361.036,167L373.376,173L385.749,176L398.089,177L410.429,178L422.769,179L435.142,180L447.482,180L459.822,180L472.161,179L484.535,179L496.875,179L509.214,179L521.554,179L533.928,178L546.267,178L558.607,177L570.947,177L583.321,177L595.660,177L608,176L608,176L595.660,177L583.321,177L570.947,177L558.607,177L546.267,178L533.928,178L521.554,179L509.214,179L496.875,179L484.535,179L472.161,179L459.822,180L447.482,180L435.142,180L422.769,179L410.429,178L398.089,177L385.749,176L373.376,173L361.036,168L348.696,163L336.357,162L323.983,157L311.643,152L299.304,142L286.964,142L274.590,138L262.251,138L249.911,129L237.571,126L225.198,117L212.858,116L200.518,118L188.178,113L175.805,106L163.465,111L151.125,111L138.786,100L126.412,98L114.072,87L101.733,64L89.393,74L77.019,92L64.679,99L52.340,98L40,97Z"><title>Cassette Single</title></path><path fill="#e15759" d="M40,97L52.340,98L64.679,99L77.019,92L89.393,74L101.733,64L114.072,87L126.412,98L138.786,100L151.125,111L163.465,111L175.805,104L188.178,106L200.518,103L212.858,90L225.198,83L237.571,83L249.911,75L262.251,75L274.590,62L286.964,53L299.304,31L311.643,32L323.983,34L336.357,41L348.696,26L361.036,20L373.376,28L385.749,38L398.089,52L410.429,62L422.769,62L435.142,75L447.482,91L459.822,110L472.161,131L484.535,141L496.875,149L509.214,153L521.554,158L533.928,161L546.267,164L558.607,166L570.947,168L583.321,169L595.660,172L608,172L608,172L595.660,172L583.321,169L570.947,168L558.607,166L546.267,164L533.928,161L521.554,158L509.214,153L496.875,149L484.535,141L472.161,131L459.822,110L447.482,91L435.142,75L422.769,62L410.429,62L398.089,52L385.749,38L373.376,28L361.036,20L348.696,26L336.357,41L323.983,34L311.643,32L299.304,31L286.964,53L274.590,62L262.251,75L249.911,75L237.571,83L225.198,83L212.858,90L200.518,103L188.178,106L175.805,104L163.465,111L151.125,111L138.786,100L126.412,98L114.072,87L101.733,64L89.393,74L77.019,92L64.679,99L52.340,98L40,97Z"><title>DVD Audio</title></path><path fill="#f28e2c" d="M40,97L52.340,98L64.679,99L77.019,92L89.393,74L101.733,64L114.072,87L126.412,98L138.786,100L151.125,111L163.465,111L175.805,104L188.178,106L200.518,103L212.858,90L225.198,83L237.571,83L249.911,75L262.251,75L274.590,62L286.964,53L299.304,31L311.643,32L323.983,34L336.357,41L348.696,26L361.036,20L373.376,28L385.749,38L398.089,52L410.429,62L422.769,61L435.142,67L447.482,76L459.822,88L472.161,108L484.535,118L496.875,127L509.214,129L521.554,134L533.928,138L546.267,144L558.607,148L570.947,154L583.321,159L595.660,164L608,166L608,169L595.660,168L583.321,163L570.947,161L558.607,156L546.267,153L533.928,147L521.554,143L509.214,138L496.875,134L484.535,124L472.161,114L459.822,93L447.482,78L435.142,68L422.769,61L410.429,62L398.089,52L385.749,38L373.376,28L361.036,20L348.696,26L336.357,41L323.983,34L311.643,32L299.304,31L286.964,53L274.590,62L262.251,75L249.911,75L237.571,83L225.198,83L212.858,90L200.518,103L188.178,106L175.805,104L163.465,111L151.125,111L138.786,100L126.412,98L114.072,87L101.733,64L89.393,74L77.019,92L64.679,99L52.340,98L40,97Z"><title>Download Album</title></path><path fill="#f28e2c" d="M40,97L52.340,98L64.679,99L77.019,92L89.393,74L101.733,64L114.072,87L126.412,98L138.786,100L151.125,111L163.465,111L175.805,104L188.178,106L200.518,103L212.858,90L225.198,83L237.571,83L249.911,75L262.251,75L274.590,62L286.964,53L299.304,31L311.643,32L323.983,34L336.357,41L348.696,26L361.036,20L373.376,28L385.749,38L398.089,52L410.429,62L422.769,62L435.142,71L447.482,83L459.822,100L472.161,122L484.535,134L496.875,145L509.214,150L521.554,157L533.928,160L546.267,163L558.607,165L570.947,168L583.321,169L595.660,171L608,172L608,172L595.660,171L583.321,169L570.947,168L558.607,165L546.267,163L533.928,160L521.554,157L509.214,150L496.875,146L484.535,135L472.161,123L459.822,100L447.482,84L435.142,71L422.769,62L410.429,62L398.089,52L385.749,38L373.376,28L361.036,20L348.696,26L336.357,41L323.983,34L311.643,32L299.304,31L286.964,53L274.590,62L262.251,75L249.911,75L237.571,83L225.198,83L212.858,90L200.518,103L188.178,106L175.805,104L163.465,111L151.125,111L138.786,100L126.412,98L114.072,87L101.733,64L89.393,74L77.019,92L64.679,99L52.340,98L40,97Z"><title>Download Music Video</title></path><path fill="#f28e2c" d="M40,97L52.340,98L64.679,99L77.019,92L89.393,74L101.733,64L114.072,87L126.412,98L138.786,100L151.125,111L163.465,111L175.805,104L188.178,106L200.518,103L212.858,90L225.198,83L237.571,83L249.911,75L262.251,75L274.590,62L286.964,53L299.304,31L311.643,32L323.983,34L336.357,41L348.696,26L361.036,20L373.376,28L385.749,38L398.089,52L410.429,62L422.769,61L435.142,68L447.482,78L459.822,93L472.161,114L484.535,124L496.875,134L509.214,138L521.554,143L533.928,147L546.267,153L558.607,156L570.947,161L583.321,163L595.660,168L608,169L608,172L595.660,171L583.321,169L570.947,168L558.607,165L546.267,163L533.928,160L521.554,157L509.214,150L496.875,145L484.535,134L472.161,122L459.822,100L447.482,83L435.142,71L422.769,62L410.429,62L398.089,52L385.749,38L373.376,28L361.036,20L348.696,26L336.357,41L323.983,34L311.643,32L299.304,31L286.964,53L274.590,62L262.251,75L249.911,75L237.571,83L225.198,83L212.858,90L200.518,103L188.178,106L175.805,104L163.465,111L151.125,111L138.786,100L126.412,98L114.072,87L101.733,64L89.393,74L77.019,92L64.679,99L52.340,98L40,97Z"><title>Download Single</title></path><path fill="#e15759" d="M40,97L52.340,98L64.679,99L77.019,92L89.393,74L101.733,64L114.072,87L126.412,98L138.786,100L151.125,111L163.465,111L175.805,104L188.178,106L200.518,103L212.858,90L225.198,83L237.571,83L249.911,75L262.251,75L274.590,62L286.964,53L299.304,31L311.643,32L323.983,34L336.357,41L348.696,26L361.036,20L373.376,28L385.749,38L398.089,52L410.429,62L422.769,62L435.142,71L447.482,83L459.822,100L472.161,122L484.535,134L496.875,145L509.214,150L521.554,157L533.928,160L546.267,163L558.607,165L570.947,168L583.321,169L595.660,171L608,172L608,172L595.660,171L583.321,169L570.947,168L558.607,165L546.267,163L533.928,160L521.554,157L509.214,150L496.875,145L484.535,134L472.161,122L459.822,100L447.482,83L435.142,71L422.769,62L410.429,62L398.089,52L385.749,38L373.376,28L361.036,20L348.696,26L336.357,41L323.983,34L311.643,32L299.304,31L286.964,53L274.590,62L262.251,75L249.911,75L237.571,83L225.198,83L212.858,90L200.518,103L188.178,106L175.805,104L163.465,111L151.125,111L138.786,100L126.412,98L114.072,87L101.733,64L89.393,74L77.019,92L64.679,99L52.340,98L40,97Z"><title>Kiosk</title></path><path fill="#edc949" d="M40,108L52.340,109L64.679,109L77.019,105L89.393,89L101.733,84L114.072,111L126.412,120L138.786,127L151.125,143L163.465,149L175.805,153L188.178,158L200.518,164L212.858,167L225.198,172L237.571,177L249.911,179L262.251,180L274.590,180L286.964,180L299.304,180L311.643,180L323.983,180L336.357,180L348.696,180L361.036,180L373.376,180L385.749,180L398.089,180L410.429,180L422.769,180L435.142,180L447.482,180L459.822,180L472.161,180L484.535,179L496.875,179L509.214,179L521.554,179L533.928,178L546.267,178L558.607,177L570.947,177L583.321,177L595.660,177L608,176L608,180L595.660,180L583.321,180L570.947,180L558.607,180L546.267,180L533.928,180L521.554,180L509.214,180L496.875,180L484.535,180L472.161,180L459.822,180L447.482,180L435.142,180L422.769,180L410.429,180L398.089,180L385.749,180L373.376,180L361.036,180L348.696,180L336.357,180L323.983,180L311.643,180L299.304,180L286.964,180L274.590,180L262.251,180L249.911,180L237.571,180L225.198,180L212.858,180L200.518,180L188.178,180L175.805,180L163.465,180L151.125,179L138.786,174L126.412,168L114.072,163L101.733,153L89.393,156L77.019,158L64.679,160L52.340,159L40,159Z"><title>LP/EP</title></path><path fill="#76b7b2" d="M40,97L52.340,98L64.679,99L77.019,92L89.393,74L101.733,64L114.072,87L126.412,98L138.786,100L151.125,111L163.465,111L175.805,104L188.178,106L200.518,103L212.858,90L225.198,83L237.571,83L249.911,75L262.251,75L274.590,62L286.964,53L299.304,31L311.643,32L323.983,34L336.357,41L348.696,26L361.036,20L373.376,28L385.749,38L398.089,52L410.429,62L422.769,61L435.142,66L447.482,75L459.822,88L472.161,107L484.535,115L496.875,123L509.214,125L521.554,129L533.928,132L546.267,136L558.607,140L570.947,143L583.321,146L595.660,148L608,150L608,156L595.660,153L583.321,150L570.947,145L558.607,140L546.267,136L533.928,132L521.554,129L509.214,125L496.875,123L484.535,115L472.161,107L459.822,88L447.482,75L435.142,66L422.769,61L410.429,62L398.089,52L385.749,38L373.376,28L361.036,20L348.696,26L336.357,41L323.983,34L311.643,32L299.304,31L286.964,53L274.590,62L262.251,75L249.911,75L237.571,83L225.198,83L212.858,90L200.518,103L188.178,106L175.805,104L163.465,111L151.125,111L138.786,100L126.412,98L114.072,87L101.733,64L89.393,74L77.019,92L64.679,99L52.340,98L40,97Z"><title>Limited Tier Paid Subscription</title></path><path fill="#e15759" d="M40,97L52.340,98L64.679,99L77.019,92L89.393,74L101.733,64L114.072,87L126.412,98L138.786,100L151.125,111L163.465,111L175.805,104L188.178,106L200.518,103L212.858,90L225.198,83L237.571,83L249.911,75L262.251,75L274.590,62L286.964,53L299.304,31L311.643,32L323.983,34L336.357,41L348.696,26L361.036,20L373.376,28L385.749,38L398.089,52L410.429,62L422.769,62L435.142,75L447.482,91L459.822,110L472.161,131L484.535,141L496.875,149L509.214,153L521.554,158L533.928,161L546.267,164L558.607,166L570.947,168L583.321,169L595.660,172L608,172L608,172L595.660,172L583.321,169L570.947,169L558.607,166L546.267,164L533.928,161L521.554,159L509.214,154L496.875,151L484.535,143L472.161,133L459.822,114L447.482,95L435.142,81L422.769,68L410.429,66L398.089,55L385.749,42L373.376,31L361.036,24L348.696,32L336.357,44L323.983,37L311.643,35L299.304,34L286.964,56L274.590,64L262.251,76L249.911,77L237.571,85L225.198,83L212.858,90L200.518,103L188.178,106L175.805,104L163.465,111L151.125,111L138.786,100L126.412,98L114.072,87L101.733,64L89.393,74L77.019,92L64.679,99L52.340,98L40,97Z"><title>Music Video (Physical)</title></path><path fill="#76b7b2" d="M40,97L52.340,98L64.679,99L77.019,92L89.393,74L101.733,64L114.072,87L126.412,98L138.786,100L151.125,111L163.465,111L175.805,104L188.178,106L200.518,103L212.858,90L225.198,83L237.571,83L249.911,75L262.251,75L274.590,62L286.964,53L299.304,31L311.643,32L323.983,34L336.357,41L348.696,26L361.036,20L373.376,28L385.749,38L398.089,52L410.429,62L422.769,61L435.142,66L447.482,75L459.822,88L472.161,107L484.535,115L496.875,123L509.214,124L521.554,127L533.928,130L546.267,134L558.607,137L570.947,140L583.321,141L595.660,142L608,143L608,150L595.660,148L583.321,146L570.947,143L558.607,140L546.267,136L533.928,132L521.554,129L509.214,125L496.875,123L484.535,115L472.161,107L459.822,88L447.482,75L435.142,66L422.769,61L410.429,62L398.089,52L385.749,38L373.376,28L361.036,20L348.696,26L336.357,41L323.983,34L311.643,32L299.304,31L286.964,53L274.590,62L262.251,75L249.911,75L237.571,83L225.198,83L212.858,90L200.518,103L188.178,106L175.805,104L163.465,111L151.125,111L138.786,100L126.412,98L114.072,87L101.733,64L89.393,74L77.019,92L64.679,99L52.340,98L40,97Z"><title>On-Demand Streaming (Ad-Supported)</title></path><path fill="#76b7b2" d="M40,97L52.340,98L64.679,99L77.019,92L89.393,74L101.733,64L114.072,87L126.412,98L138.786,100L151.125,111L163.465,111L175.805,104L188.178,106L200.518,103L212.858,90L225.198,83L237.571,83L249.911,75L262.251,75L274.590,62L286.964,53L299.304,31L311.643,32L323.983,34L336.357,41L348.696,26L361.036,20L373.376,28L385.749,38L398.089,52L410.429,62L422.769,61L435.142,67L447.482,76L459.822,88L472.161,108L484.535,118L496.875,127L509.214,129L521.554,134L533.928,138L546.267,144L558.607,148L570.947,154L583.321,157L595.660,162L608,164L608,166L595.660,164L583.321,159L570.947,154L558.607,148L546.267,144L533.928,138L521.554,134L509.214,129L496.875,127L484.535,118L472.161,108L459.822,88L447.482,76L435.142,67L422.769,61L410.429,62L398.089,52L385.749,38L373.376,28L361.036,20L348.696,26L336.357,41L323.983,34L311.643,32L299.304,31L286.964,53L274.590,62L262.251,75L249.911,75L237.571,83L225.198,83L212.858,90L200.518,103L188.178,106L175.805,104L163.465,111L151.125,111L138.786,100L126.412,98L114.072,87L101.733,64L89.393,74L77.019,92L64.679,99L52.340,98L40,97Z"><title>Other Ad-Supported Streaming</title></path><path fill="#f28e2c" d="M40,97L52.340,98L64.679,99L77.019,92L89.393,74L101.733,64L114.072,87L126.412,98L138.786,100L151.125,111L163.465,111L175.805,104L188.178,106L200.518,103L212.858,90L225.198,83L237.571,83L249.911,75L262.251,75L274.590,62L286.964,53L299.304,31L311.643,32L323.983,34L336.357,41L348.696,26L361.036,20L373.376,28L385.749,38L398.089,52L410.429,62L422.769,61L435.142,66L447.482,75L459.822,88L472.161,107L484.535,115L496.875,123L509.214,124L521.554,127L533.928,130L546.267,134L558.607,137L570.947,139L583.321,141L595.660,142L608,143L608,143L595.660,142L583.321,141L570.947,140L558.607,137L546.267,134L533.928,130L521.554,127L509.214,124L496.875,123L484.535,115L472.161,107L459.822,88L447.482,75L435.142,66L422.769,61L410.429,62L398.089,52L385.749,38L373.376,28L361.036,20L348.696,26L336.357,41L323.983,34L311.643,32L299.304,31L286.964,53L274.590,62L262.251,75L249.911,75L237.571,83L225.198,83L212.858,90L200.518,103L188.178,106L175.805,104L163.465,111L151.125,111L138.786,100L126.412,98L114.072,87L101.733,64L89.393,74L77.019,92L64.679,99L52.340,98L40,97Z"><title>Other Digital</title></path><path fill="#59a14f" d="M40,179L52.340,180L64.679,180L77.019,180L89.393,180L101.733,180L114.072,180L126.412,180L138.786,180L151.125,180L163.465,180L175.805,180L188.178,180L200.518,180L212.858,180L225.198,180L237.571,180L249.911,180L262.251,180L274.590,180L286.964,180L299.304,180L311.643,180L323.983,180L336.357,180L348.696,180L361.036,180L373.376,180L385.749,180L398.089,180L410.429,180L422.769,180L435.142,180L447.482,180L459.822,180L472.161,180L484.535,180L496.875,180L509.214,180L521.554,180L533.928,180L546.267,180L558.607,180L570.947,180L583.321,180L595.660,180L608,180L608,180L595.660,180L583.321,180L570.947,180L558.607,180L546.267,180L533.928,180L521.554,180L509.214,180L496.875,180L484.535,180L472.161,180L459.822,180L447.482,180L435.142,180L422.769,180L410.429,180L398.089,180L385.749,180L373.376,180L361.036,180L348.696,180L336.357,180L323.983,180L311.643,180L299.304,180L286.964,180L274.590,180L262.251,180L249.911,180L237.571,180L225.198,180L212.858,180L200.518,180L188.178,180L175.805,180L163.465,180L151.125,180L138.786,180L126.412,180L114.072,180L101.733,180L89.393,180L77.019,180L64.679,180L52.340,180L40,180Z"><title>Other Tapes</title></path><path fill="#76b7b2" d="M40,97L52.340,98L64.679,99L77.019,92L89.393,74L101.733,64L114.072,87L126.412,98L138.786,100L151.125,111L163.465,111L175.805,104L188.178,106L200.518,103L212.858,90L225.198,83L237.571,83L249.911,75L262.251,75L274.590,62L286.964,53L299.304,31L311.643,32L323.983,34L336.357,41L348.696,26L361.036,20L373.376,28L385.749,38L398.089,52L410.429,62L422.769,61L435.142,65L447.482,73L459.822,86L472.161,105L484.535,113L496.875,121L509.214,122L521.554,124L533.928,125L546.267,128L558.607,128L570.947,122L583.321,114L595.660,108L608,101L608,143L595.660,142L583.321,141L570.947,139L558.607,137L546.267,134L533.928,130L521.554,127L509.214,124L496.875,123L484.535,115L472.161,107L459.822,88L447.482,75L435.142,66L422.769,61L410.429,62L398.089,52L385.749,38L373.376,28L361.036,20L348.696,26L336.357,41L323.983,34L311.643,32L299.304,31L286.964,53L274.590,62L262.251,75L249.911,75L237.571,83L225.198,83L212.858,90L200.518,103L188.178,106L175.805,104L163.465,111L151.125,111L138.786,100L126.412,98L114.072,87L101.733,64L89.393,74L77.019,92L64.679,99L52.340,98L40,97Z"><title>Paid Subscription</title></path><path fill="#f28e2c" d="M40,97L52.340,98L64.679,99L77.019,92L89.393,74L101.733,64L114.072,87L126.412,98L138.786,100L151.125,111L163.465,111L175.805,104L188.178,106L200.518,103L212.858,90L225.198,83L237.571,83L249.911,75L262.251,75L274.590,62L286.964,53L299.304,31L311.643,32L323.983,34L336.357,41L348.696,26L361.036,20L373.376,28L385.749,38L398.089,52L410.429,62L422.769,62L435.142,71L447.482,84L459.822,100L472.161,123L484.535,135L496.875,146L509.214,150L521.554,157L533.928,160L546.267,163L558.607,165L570.947,168L583.321,169L595.660,171L608,172L608,172L595.660,172L583.321,169L570.947,168L558.607,166L546.267,164L533.928,161L521.554,158L509.214,153L496.875,149L484.535,141L472.161,131L459.822,110L447.482,91L435.142,75L422.769,62L410.429,62L398.089,52L385.749,38L373.376,28L361.036,20L348.696,26L336.357,41L323.983,34L311.643,32L299.304,31L286.964,53L274.590,62L262.251,75L249.911,75L237.571,83L225.198,83L212.858,90L200.518,103L188.178,106L175.805,104L163.465,111L151.125,111L138.786,100L126.412,98L114.072,87L101.733,64L89.393,74L77.019,92L64.679,99L52.340,98L40,97Z"><title>Ringtones &amp; Ringbacks</title></path><path fill="#4e79a7" d="M40,97L52.340,98L64.679,99L77.019,92L89.393,74L101.733,64L114.072,87L126.412,98L138.786,100L151.125,111L163.465,111L175.805,104L188.178,106L200.518,103L212.858,90L225.198,83L237.571,85L249.911,77L262.251,76L274.590,64L286.964,56L299.304,34L311.643,35L323.983,37L336.357,44L348.696,32L361.036,24L373.376,31L385.749,42L398.089,55L410.429,66L422.769,68L435.142,81L447.482,95L459.822,114L472.161,133L484.535,143L496.875,151L509.214,154L521.554,159L533.928,161L546.267,164L558.607,166L570.947,169L583.321,169L595.660,172L608,172L608,172L595.660,172L583.321,169L570.947,169L558.607,166L546.267,164L533.928,162L521.554,159L509.214,154L496.875,151L484.535,143L472.161,133L459.822,114L447.482,95L435.142,81L422.769,68L410.429,67L398.089,55L385.749,42L373.376,31L361.036,24L348.696,32L336.357,44L323.983,37L311.643,35L299.304,34L286.964,56L274.590,64L262.251,76L249.911,77L237.571,85L225.198,83L212.858,90L200.518,103L188.178,106L175.805,104L163.465,111L151.125,111L138.786,100L126.412,98L114.072,87L101.733,64L89.393,74L77.019,92L64.679,99L52.340,98L40,97Z"><title>SACD</title></path><path fill="#76b7b2" d="M40,97L52.340,98L64.679,99L77.019,92L89.393,74L101.733,64L114.072,87L126.412,98L138.786,100L151.125,111L163.465,111L175.805,104L188.178,106L200.518,103L212.858,90L225.198,83L237.571,83L249.911,75L262.251,75L274.590,62L286.964,53L299.304,31L311.643,32L323.983,34L336.357,41L348.696,26L361.036,20L373.376,28L385.749,38L398.089,52L410.429,62L422.769,61L435.142,66L447.482,75L459.822,88L472.161,107L484.535,117L496.875,125L509.214,127L521.554,130L533.928,133L546.267,138L558.607,142L570.947,147L583.321,152L595.660,155L608,158L608,164L595.660,162L583.321,157L570.947,154L558.607,148L546.267,144L533.928,138L521.554,134L509.214,129L496.875,127L484.535,118L472.161,108L459.822,88L447.482,76L435.142,67L422.769,61L410.429,62L398.089,52L385.749,38L373.376,28L361.036,20L348.696,26L336.357,41L323.983,34L311.643,32L299.304,31L286.964,53L274.590,62L262.251,75L249.911,75L237.571,83L225.198,83L212.858,90L200.518,103L188.178,106L175.805,104L163.465,111L151.125,111L138.786,100L126.412,98L114.072,87L101.733,64L89.393,74L77.019,92L64.679,99L52.340,98L40,97Z"><title>SoundExchange Distributions</title></path><path fill="#e15759" d="M40,97L52.340,98L64.679,99L77.019,92L89.393,74L101.733,64L114.072,87L126.412,98L138.786,100L151.125,111L163.465,111L175.805,104L188.178,106L200.518,103L212.858,90L225.198,83L237.571,83L249.911,75L262.251,75L274.590,62L286.964,53L299.304,31L311.643,32L323.983,34L336.357,41L348.696,26L361.036,20L373.376,28L385.749,38L398.089,52L410.429,62L422.769,61L435.142,66L447.482,75L459.822,88L472.161,107L484.535,115L496.875,123L509.214,125L521.554,129L533.928,132L546.267,136L558.607,140L570.947,145L583.321,150L595.660,153L608,156L608,158L595.660,155L583.321,152L570.947,147L558.607,142L546.267,138L533.928,133L521.554,130L509.214,127L496.875,125L484.535,117L472.161,107L459.822,88L447.482,75L435.142,66L422.769,61L410.429,62L398.089,52L385.749,38L373.376,28L361.036,20L348.696,26L336.357,41L323.983,34L311.643,32L299.304,31L286.964,53L274.590,62L262.251,75L249.911,75L237.571,83L225.198,83L212.858,90L200.518,103L188.178,106L175.805,104L163.465,111L151.125,111L138.786,100L126.412,98L114.072,87L101.733,64L89.393,74L77.019,92L64.679,99L52.340,98L40,97Z"><title>Synchronization</title></path><path fill="#edc949" d="M40,100L52.340,102L64.679,102L77.019,97L89.393,82L101.733,77L114.072,102L126.412,114L138.786,121L151.125,137L163.465,144L175.805,148L188.178,153L200.518,160L212.858,164L225.198,169L237.571,175L249.911,177L262.251,179L274.590,179L286.964,179L299.304,179L311.643,179L323.983,179L336.357,179L348.696,179L361.036,179L373.376,179L385.749,179L398.089,180L410.429,180L422.769,180L435.142,180L447.482,180L459.822,180L472.161,179L484.535,179L496.875,179L509.214,179L521.554,179L533.928,178L546.267,178L558.607,177L570.947,177L583.321,177L595.660,177L608,176L608,176L595.660,177L583.321,177L570.947,177L558.607,177L546.267,178L533.928,178L521.554,179L509.214,179L496.875,179L484.535,179L472.161,180L459.822,180L447.482,180L435.142,180L422.769,180L410.429,180L398.089,180L385.749,180L373.376,180L361.036,180L348.696,180L336.357,180L323.983,180L311.643,180L299.304,180L286.964,180L274.590,180L262.251,180L249.911,179L237.571,177L225.198,172L212.858,167L200.518,164L188.178,158L175.805,153L163.465,149L151.125,143L138.786,127L126.412,120L114.072,111L101.733,84L89.393,89L77.019,105L64.679,109L52.340,109L40,108Z"><title>Vinyl Single</title></path></g></svg>