<svg xmlns="http://www.w3.org/2000/svg" width="810" height="300.0" viewBox="0 0 810 300.0"><g class="legend"><text x="8.0" y="12.0" fill="black">exponent</text><g transform="translate(8.0, 15.0)"><rect x="0" y="0" width="3" height="16.0" fill="rgb(48, 48, 48)"/><rect x="2" y="0" width="3" height="16.0" fill="rgb(48, 49, 49)"/><rect x="4" y="0" width="3" height="16.0" fill="rgb(48, 49, 51)"/><rect x="6" y="0" width="3" height="16.0" fill="rgb(48, 50, 52)"/><rect x="8" y="0" width="3" height="16.0" fill="rgb(48, 51, 54)"/><rect x="10" y="0" width="3" height="16.0" fill="rgb(48, 51, 55)"/><rect x="12" y="0" width="3" height="16.0" fill="rgb(49, 52, 56)"/><rect x="14" y="0" width="3" height="16.0" fill="rgb(49, 53, 58)"/><rect x="16" y="0" width="3" height="16.0" fill="rgb(49, 53, 59)"/><rect x="18" y="0" width="3" height="16.0" fill="rgb(49, 54, 60)"/><rect x="20" y="0" width="3" height="16.0" fill="rgb(49, 55, 62)"/><rect x="22" y="0" width="3" height="16.0" fill="rgb(49, 55, 63)"/><rect x="24" y="0" width="3" height="16.0" fill="rgb(49, 56, 65)"/><rect x="26" y="0" width="3" height="16.0" fill="rgb(49, 57, 66)"/><rect x="28" y="0" width="3" height="16.0" fill="rgb(49, 57, 67)"/><rect x="30" y="0" width="3" height="16.0" fill="rgb(49, 58, 69)"/><rect x="32" y="0" width="3" height="16.0" fill="rgb(49, 59, 70)"/><rect x="34" y="0" width="3" height="16.0" fill="rgb(49, 59, 71)"/><rect x="36" y="0" width="3" height="16.0" fill="rgb(50, 60, 73)"/><rect x="38" y="0" width="3" height="16.0" fill="rgb(50, 61, 74)"/><rect x="40" y="0" width="3" height="16.0" fill="rgb(50, 61, 76)"/><rect x="42" y="0" width="3" height="16.0" fill="rgb(50, 62, 77)"/><rect x="44" y="0" width="3" height="16.0" fill="rgb(50, 63, 78)"/><rect x="46" y="0" width="3" height="16.0" fill="rgb(50, 63, 80)"/><rect x="48" y="0" width="3" height="16.0" fill="rgb(50, 64, 81)"/><rect x="50" y="0" width="3" height="16.0" fill="rgb(50, 65, 82)"/><rect x="52" y="0" width="3" height="16.0" fill="rgb(50, 65, 84)"/><rect x="54" y="0" width="3" height="16.0" fill="rgb(50, 66, 85)"/><rect x="56" y="0" width="3" height="16.0" fill="rgb(50, 67, 87)"/><rect x="58" y="0" width="3" height="16.0" fill="rgb(51, 67, 88)"/><rect x="60" y="0" width="3" height="16.0" fill="rgb(51, 68, 89)"/><rect x="62" y="0" width="3" height="16.0" fill="rgb(51, 69, 91)"/><rect x="64" y="0" width="3" height="16.0" fill="rgb(51, 69, 92)"/><rect x="66" y="0" width="3" height="16.0" fill="rgb(51, 70, 94)"/><rect x="68" y="0" width="3" height="16.0" fill="rgb(51, 71, 95)"/><rect x="70" y="0" width="3" height="16.0" fill="rgb(51, 71, 96)"/><rect x="72" y="0" width="3" height="16.0" fill="rgb(51, 72, 98)"/><rect x="74" y="0" width="3" height="16.0" fill="rgb(51, 73, 99)"/><rect x="76" y="0" width="3" height="16.0" fill="rgb(51, 73, 100)"/><rect x="78" y="0" width="3" height="16.0" fill="rgb(51, 74, 102)"/><rect x="80" y="0" width="3" height="16.0" fill="rgb(51, 75, 103)"/><rect x="82" y="0" width="3" height="16.0" fill="rgb(52, 75, 105)"/><rect x="84" y="0" width="3" height="16.0" fill="rgb(52, 76, 106)"/><rect x="86" y="0" width="3" height="16.0" fill="rgb(52, 77, 107)"/><rect x="88" y="0" width="3" height="16.0" fill="rgb(52, 77, 109)"/><rect x="90" y="0" width="3" height="16.0" fill="rgb(52, 78, 110)"/><rect x="92" y="0" width="3" height="16.0" fill="rgb(52, 79, 111)"/><rect x="94" y="0" width="3" height="16.0" fill="rgb(52, 79, 113)"/><rect x="96" y="0" width="3" height="16.0" fill="rgb(52, 80, 114)"/><rect x="98" y="0" width="3" height="16.0" fill="rgb(52, 81, 116)"/><rect x="100" y="0" width="3" height="16.0" fill="rgb(52, 81, 117)"/><rect x="102" y="0" width="3" height="16.0" fill="rgb(52, 82, 118)"/><rect x="104" y="0" width="3" height="16.0" fill="rgb(53, 83, 120)"/><rect x="106" y="0" width="3" height="16.0" fill="rgb(53, 83, 121)"/><rect x="108" y="0" width="3" height="16.0" fill="rgb(53, 84, 123)"/><rect x="110" y="0" width="3" height="16.0" fill="rgb(53, 85, 124)"/><rect x="112" y="0" width="3" height="16.0" fill="rgb(53, 85, 125)"/><rect x="114" y="0" width="3" height="16.0" fill="rgb(53, 86, 127)"/><rect x="116" y="0" width="3" height="16.0" fill="rgb(53, 87, 128)"/><rect x="118" y="0" width="3" height="16.0" fill="rgb(53, 87, 129)"/><rect x="120" y="0" width="3" height="16.0" fill="rgb(53, 88, 131)"/><rect x="122" y="0" width="3" height="16.0" fill="rgb(53, 89, 132)"/><rect x="124" y="0" width="3" height="16.0" fill="rgb(53, 89, 134)"/><rect x="126" y="0" width="3" height="16.0" fill="rgb(53, 90, 135)"/><rect x="128" y="0" width="3" height="16.0" fill="rgb(54, 91, 136)"/><rect x="130" y="0" width="3" height="16.0" fill="rgb(54, 91, 138)"/><rect x="132" y="0" width="3" height="16.0" fill="rgb(54, 92, 139)"/><rect x="134" y="0" width="3" height="16.0" fill="rgb(54, 93, 140)"/><rect x="136" y="0" width="3" height="16.0" fill="rgb(54, 93, 142)"/><rect x="138" y="0" width="3" height="16.0" fill="rgb(54, 94, 143)"/><rect x="140" y="0" width="3" height="16.0" fill="rgb(54, 95, 145)"/><rect x="142" y="0" width="3" height="16.0" fill="rgb(54, 95, 146)"/><rect x="144" y="0" width="3" height="16.0" fill="rgb(54, 96, 147)"/><rect x="146" y="0" width="3" height="16.0" fill="rgb(54, 97, 149)"/><rect x="148" y="0" width="3" height="16.0" fill="rgb(54, 97, 150)"/><rect x="150" y="0" width="3" height="16.0" fill="rgb(54, 98, 152)"/><rect x="152" y="0" width="3" height="16.0" fill="rgb(55, 99, 153)"/><rect x="154" y="0" width="3" height="16.0" fill="rgb(55, 99, 154)"/><rect x="156" y="0" width="3" height="16.0" fill="rgb(55, 100, 156)"/><rect x="158" y="0" width="3" height="16.0" fill="rgb(55, 101, 157)"/><rect x="160" y="0" width="3" height="16.0" fill="rgb(55, 101, 158)"/><rect x="162" y="0" width="3" height="16.0" fill="rgb(55, 102, 160)"/><rect x="164" y="0" width="3" height="16.0" fill="rgb(55, 103, 161)"/><rect x="166" y="0" width="3" height="16.0" fill="rgb(55, 103, 163)"/><rect x="168" y="0" width="3" height="16.0" fill="rgb(55, 104, 164)"/><rect x="170" y="0" width="3" height="16.0" fill="rgb(55, 105, 165)"/><rect x="172" y="0" width="3" height="16.0" fill="rgb(55, 105, 167)"/><rect x="174" y="0" width="3" height="16.0" fill="rgb(56, 106, 168)"/><rect x="176" y="0" width="3" height="16.0" fill="rgb(56, 107, 169)"/><rect x="178" y="0" width="3" height="16.0" fill="rgb(56, 107, 171)"/><rect x="180" y="0" width="3" height="16.0" fill="rgb(56, 108, 172)"/><rect x="182" y="0" width="3" height="16.0" fill="rgb(56, 109, 174)"/><rect x="184" y="0" width="3" height="16.0" fill="rgb(56, 109, 175)"/><rect x="186" y="0" width="3" height="16.0" fill="rgb(56, 110, 176)"/><rect x="188" y="0" width="3" height="16.0" fill="rgb(56, 111, 178)"/><rect x="190" y="0" width="3" height="16.0" fill="rgb(56, 111, 179)"/><rect x="192" y="0" width="3" height="16.0" fill="rgb(56, 112, 180)"/><rect x="194" y="0" width="3" height="16.0" fill="rgb(56, 113, 182)"/><rect x="196" y="0" width="3" height="16.0" fill="rgb(56, 113, 183)"/><rect x="198" y="0" width="3" height="16.0" fill="rgb(57, 114, 185)"/><rect x="200" y="0" width="3" height="16.0" fill="rgb(57, 115, 186)"/><rect x="202" y="0" width="3" height="16.0" fill="rgb(57, 115, 187)"/><rect x="204" y="0" width="3" height="16.0" fill="rgb(57, 116, 189)"/><rect x="206" y="0" width="3" height="16.0" fill="rgb(57, 117, 190)"/><rect x="208" y="0" width="3" height="16.0" fill="rgb(57, 117, 192)"/><rect x="210" y="0" width="3" height="16.0" fill="rgb(57, 118, 193)"/><rect x="212" y="0" width="3" height="16.0" fill="rgb(57, 119, 194)"/><rect x="214" y="0" width="3" height="16.0" fill="rgb(57, 119, 196)"/><rect x="216" y="0" width="3" height="16.0" fill="rgb(57, 120, 197)"/><rect x="218" y="0" width="3" height="16.0" fill="rgb(57, 121, 198)"/><rect x="220" y="0" width="3" height="16.0" fill="rgb(58, 121, 200)"/><rect x="222" y="0" width="3" height="16.0" fill="rgb(58, 122, 201)"/><rect x="224" y="0" width="3" height="16.0" fill="rgb(58, 123, 203)"/><rect x="226" y="0" width="3" height="16.0" fill="rgb(58, 123, 204)"/><rect x="228" y="0" width="3" height="16.0" fill="rgb(58, 124, 205)"/><rect x="230" y="0" width="3" height="16.0" fill="rgb(58, 125, 207)"/><rect x="232" y="0" width="3" height="16.0" fill="rgb(58, 125, 208)"/><rect x="234" y="0" width="3" height="16.0" fill="rgb(58, 126, 209)"/><rect x="236" y="0" width="3" height="16.0" fill="rgb(58, 127, 211)"/><rect x="238" y="0" width="3" height="16.0" fill="rgb(58, 127, 212)"/><rect x="240" y="0" width="3" height="16.0" fill="rgb(58, 128, 214)"/><rect x="242" y="0" width="3" height="16.0" fill="rgb(58, 129, 215)"/><rect x="244" y="0" width="3" height="16.0" fill="rgb(59, 129, 216)"/><rect x="246" y="0" width="3" height="16.0" fill="rgb(59, 130, 218)"/><rect x="248" y="0" width="3" height="16.0" fill="rgb(59, 131, 219)"/><rect x="250" y="0" width="3" height="16.0" fill="rgb(59, 131, 221)"/><rect x="252" y="0" width="3" height="16.0" fill="rgb(59, 132, 222)"/><rect x="254" y="0" width="3" height="16.0" fill="rgb(59, 133, 223)"/><rect x="256" y="0" width="3" height="16.0" fill="rgb(59, 133, 225)"/><rect x="258" y="0" width="3" height="16.0" fill="rgb(59, 134, 226)"/><rect x="260" y="0" width="3" height="16.0" fill="rgb(59, 135, 227)"/><rect x="262" y="0" width="3" height="16.0" fill="rgb(59, 135, 229)"/><rect x="264" y="0" width="3" height="16.0" fill="rgb(59, 136, 230)"/><rect x="266" y="0" width="3" height="16.0" fill="rgb(60, 137, 232)"/><rect x="268" y="0" width="3" height="16.0" fill="rgb(60, 137, 233)"/><rect x="270" y="0" width="3" height="16.0" fill="rgb(60, 138, 234)"/><rect x="272" y="0" width="3" height="16.0" fill="rgb(60, 139, 236)"/><rect x="274" y="0" width="3" height="16.0" fill="rgb(60, 139, 237)"/><rect x="276" y="0" width="3" height="16.0" fill="rgb(60, 140, 238)"/><rect x="278" y="0" width="3" height="16.0" fill="rgb(60, 141, 240)"/><rect x="280" y="0" width="3" height="16.0" fill="rgb(60, 141, 241)"/><rect x="282" y="0" width="3" height="16.0" fill="rgb(60, 142, 243)"/><rect x="284" y="0" width="3" height="16.0" fill="rgb(60, 143, 244)"/><rect x="286" y="0" width="3" height="16.0" fill="rgb(60, 143, 245)"/><rect x="288" y="0" width="3" height="16.0" fill="rgb(60, 144, 247)"/><rect x="290" y="0" width="3" height="16.0" fill="rgb(61, 145, 248)"/><rect x="292" y="0" width="3" height="16.0" fill="rgb(61, 145, 249)"/><rect x="294" y="0" width="3" height="16.0" fill="rgb(61, 146, 251)"/><rect x="296" y="0" width="3" height="16.0" fill="rgb(61, 147, 252)"/><rect x="298" y="0" width="3" height="16.0" fill="rgb(61, 147, 254)"/></g><g transform="translate(8.0, 15.0)" fill="none" font-size="10" font-family="sans-serif" text-anchor="middle"><g class="tick" opacity="1" transform="translate(50.5, 0)"><line stroke="black" y2="19.2"/><text fill="black" y="22.2" dy="0.71em">1</text></g><g class="tick" opacity="1" transform="translate(133.83333333333334, 0)"><line stroke="black" y2="19.2"/><text fill="black" y="22.2" dy="0.71em">2</text></g><g class="tick" opacity="1" transform="translate(217.16666666666666, 0)"><line stroke="black" y2="19.2"/><text fill="black" y="22.2" dy="0.71em">3</text></g><g class="tick" opacity="1" transform="translate(300.5, 0)"><line stroke="black" y2="19.2"/><text fill="black" y="22.2" dy="0.71em">4</text></g></g></g><g class="main" transform="translate(0, 60)"><rect x="5" y="0" width="800" height="240.0" fill="#d4d4d1"/><g class="xlines"><line x1="25.0" y1="240.0" x2="25.0" y2="0.0" stroke="#f8f8f8"/><line x1="45.0" y1="240.0" x2="45.0" y2="0.0" stroke="#f8f8f8"/><line x1="65.0" y1="240.0" x2="65.0" y2="0.0" stroke="#f8f8f8"/><line x1="85.0" y1="240.0" x2="85.0" y2="0.0" stroke="#f8f8f8"/><line x1="105.0" y1="240.0" x2="105.0" y2="0.0" stroke="#f8f8f8"/><line x1="125.0" y1="240.0" x2="125.0" y2="0.0" stroke="#f8f8f8"/><line x1="145.0" y1="240.0" x2="145.0" y2="0.0" stroke="#f8f8f8"/><line x1="165.0" y1="240.0" x2="165.0" y2="0.0" stroke="#f8f8f8"/><line x1="185.0" y1="240.0" x2="185.0" y2="0.0" stroke="#f8f8f8"/><line x1="205.0" y1="240.0" x2="205.0" y2="0.0" stroke="#f8f8f8"/><line x1="225.00000000000003" y1="240.0" x2="225.00000000000003" y2="0.0" stroke="#f8f8f8"/><line x1="245.0" y1="240.0" x2="245.0" y2="0.0" stroke="#f8f8f8"/><line x1="265.0" y1="240.0" x2="265.0" y2="0.0" stroke="#f8f8f8"/><line x1="285.0" y1="240.0" x2="285.0" y2="0.0" stroke="#f8f8f8"/><line x1="305.0" y1="240.0" x2="305.0" y2="0.0" stroke="#f8f8f8"/><line x1="325.0" y1="240.0" x2="325.0" y2="0.0" stroke="#f8f8f8"/><line x1="345.0" y1="240.0" x2="345.0" y2="0.0" stroke="#f8f8f8"/><line x1="365.0" y1="240.0" x2="365.0" y2="0.0" stroke="#f8f8f8"/><line x1="385.0" y1="240.0" x2="385.0" y2="0.0" stroke="#f8f8f8"/><line x1="405.0" y1="240.0" x2="405.0" y2="0.0" stroke="#f8f8f8"/><line x1="425.0" y1="240.0" x2="425.0" y2="0.0" stroke="#f8f8f8"/><line x1="445.00000000000006" y1="240.0" x2="445.00000000000006" y2="0.0" stroke="#f8f8f8"/><line x1="464.99999999999994" y1="240.0" x2="464.99999999999994" y2="0.0" stroke="#f8f8f8"/><line x1="485.0" y1="240.0" x2="485.0" y2="0.0" stroke="#f8f8f8"/><line x1="505.0" y1="240.0" x2="505.0" y2="0.0" stroke="#f8f8f8"/><line x1="525.0" y1="240.0" x2="525.0" y2="0.0" stroke="#f8f8f8"/><line x1="545.0" y1="240.0" x2="545.0" y2="0.0" stroke="#f8f8f8"/><line x1="565.0" y1="240.0" x2="565.0" y2="0.0" stroke="#f8f8f8"/><line x1="585.0" y1="240.0" x2="585.0" y2="0.0" stroke="#f8f8f8"/><line x1="605.0" y1="240.0" x2="605.0" y2="0.0" stroke="#f8f8f8"/><line x1="625.0" y1="240.0" x2="625.0" y2="0.0" stroke="#f8f8f8"/><line x1="645.0" y1="240.0" x2="645.0" y2="0.0" stroke="#f8f8f8"/><line x1="665.0" y1="240.0" x2="665.0" y2="0.0" stroke="#f8f8f8"/><line x1="685.0" y1="240.0" x2="685.0" y2="0.0" stroke="#f8f8f8"/><line x1="705.0" y1="240.0" x2="705.0" y2="0.0" stroke="#f8f8f8"/><line x1="725.0" y1="240.0" x2="725.0" y2="0.0" stroke="#f8f8f8"/><line x1="745.0" y1="240.0" x2="745.0" y2="0.0" stroke="#f8f8f8"/><line x1="765.0" y1="240.0" x2="765.0" y2="0.0" stroke="#f8f8f8"/><line x1="785.0" y1="240.0" x2="785.0" y2="0.0" stroke="#f8f8f8"/></g><g class="ylines"><line x1="5.0" y1="220.0" x2="805.0" y2="220.0" stroke="#f8f8f8"/><line x1="5.0" y1="200.0" x2="805.0" y2="200.0" stroke="#f8f8f8"/><line x1="5.0" y1="180.0" x2="805.0" y2="180.0" stroke="#f8f8f8"/><line x1="5.0" y1="160.00000000000003" x2="805.0" y2="160.00000000000003" stroke="#f8f8f8"/><line x1="5.0" y1="139.99999999999997" x2="805.0" y2="139.99999999999997" stroke="#f8f8f8"/><line x1="5.0" y1="120.0" x2="805.0" y2="120.0" stroke="#f8f8f8"/><line x1="5.0" y1="99.99999999999999" x2="805.0" y2="99.99999999999999" stroke="#f8f8f8"/><line x1="5.0" y1="80.00000000000001" x2="805.0" y2="80.00000000000001" stroke="#f8f8f8"/><line x1="5.0" y1="60.0" x2="805.0" y2="60.0" stroke="#f8f8f8"/><line x1="5.0" y1="39.99999999999999" x2="805.0" y2="39.99999999999999" stroke="#f8f8f8"/><line x1="5.0" y1="20.000000000000007" x2="805.0" y2="20.000000000000007" stroke="#f8f8f8"/></g><g class="ease"><path d="M5,240L8.200,239.616L11.400,239.230L14.600,238.844L17.800,238.457L21,238.068L24.200,237.679L27.400,237.289L30.600,236.898L33.800,236.506L37,236.113L40.200,235.719L43.400,235.324L46.600,234.928L49.800,234.531L53,234.133L56.200,233.734L59.400,233.334L62.600,232.933L65.800,232.531L69,232.127L72.200,231.723L75.400,231.318L78.600,230.912L81.800,230.504L85,230.096L88.200,229.686L91.400,229.275L94.600,228.863L97.800,228.451L101,228.036L104.200,227.621L107.400,227.205L110.600,226.788L113.800,226.369L117,225.949L120.200,225.528L123.400,225.106L126.600,224.683L129.800,224.258L133,223.832L136.200,223.405L139.400,222.977L142.600,222.548L145.800,222.117L149,221.685L152.200,221.252L155.400,220.818L158.600,220.382L161.800,219.945L165,219.506L168.200,219.067L171.400,218.626L174.600,218.183L177.800,217.740L181,217.295L184.200,216.848L187.400,216.400L190.600,215.951L193.800,215.501L197,215.049L200.200,214.595L203.400,214.140L206.600,213.684L209.800,213.226L213,212.767L216.200,212.306L219.400,211.844L222.600,211.380L225.800,210.915L229,210.448L232.200,209.979L235.400,209.509L238.600,209.038L241.800,208.564L245,208.090L248.200,207.613L251.400,207.135L254.600,206.655L257.800,206.174L261,205.691L264.200,205.206L267.400,204.719L270.600,204.231L273.800,203.741L277,203.249L280.200,202.756L283.400,202.260L286.600,201.763L289.800,201.264L293,200.763L296.200,200.260L299.400,199.755L302.600,199.249L305.800,198.740L309,198.229L312.200,197.717L315.400,197.202L318.600,196.686L321.800,196.167L325,195.646L328.200,195.124L331.400,194.599L334.600,194.072L337.800,193.543L341,193.011L344.200,192.478L347.400,191.942L350.600,191.404L353.800,190.863L357,190.321L360.200,189.776L363.400,189.229L366.600,188.679L369.800,188.127L373,187.572L376.200,187.015L379.400,186.456L382.600,185.894L385.800,185.329L389,184.762L392.200,184.192L395.400,183.620L398.600,183.045L401.800,182.467L405,181.886L408.200,181.303L411.400,180.716L414.600,180.127L417.800,179.535L421,178.940L424.200,178.342L427.400,177.741L430.600,177.137L433.800,176.530L437,175.920L440.200,175.306L443.400,174.689L446.600,174.069L449.800,173.446L453,172.819L456.200,172.189L459.400,171.556L462.600,170.918L465.800,170.278L469,169.633L472.200,168.985L475.400,168.333L478.600,167.678L481.800,167.018L485,166.355L488.200,165.687L491.400,165.016L494.600,164.340L497.800,163.660L501,162.976L504.200,162.288L507.400,161.595L510.600,160.898L513.800,160.196L517,159.490L520.200,158.778L523.400,158.062L526.600,157.341L529.800,156.615L533,155.884L536.200,155.148L539.400,154.407L542.600,153.660L545.800,152.908L549,152.150L552.200,151.386L555.400,150.617L558.600,149.841L561.800,149.060L565,148.272L568.200,147.478L571.400,146.678L574.600,145.871L577.800,145.057L581,144.236L584.200,143.408L587.400,142.573L590.600,141.731L593.800,140.881L597,140.023L600.200,139.158L603.400,138.284L606.600,137.402L609.800,136.511L613,135.611L616.200,134.703L619.400,133.785L622.600,132.857L625.800,131.920L629,130.973L632.200,130.015L635.400,129.046L638.600,128.067L641.800,127.076L645,126.073L648.200,125.059L651.400,124.031L654.600,122.991L657.800,121.938L661,120.870L664.200,119.789L667.400,118.692L670.600,117.580L673.800,116.452L677,115.308L680.200,114.146L683.400,112.966L686.600,111.768L689.800,110.549L693,109.311L696.200,108.051L699.400,106.768L702.600,105.462L705.800,104.131L709,102.774L712.200,101.390L715.400,99.977L718.600,98.533L721.800,97.056L725,95.546L728.200,93.998L731.400,92.412L734.600,90.783L737.800,89.109L741,87.387L744.200,85.612L747.400,83.781L750.600,81.887L753.800,79.925L757,77.888L760.200,75.768L763.400,73.555L766.600,71.237L769.800,68.801L773,66.227L776.200,63.494L779.400,60.572L782.600,57.421L785.800,53.988L789,50.191L792.200,45.905L795.400,40.915L798.600,34.789L801.800,26.365L805,0" stroke="rgb(48, 48, 48)" fill="none"/><path d="M5,240L8.200,238.925L11.400,237.851L14.600,236.777L17.800,235.703L21,234.630L24.200,233.558L27.400,232.486L30.600,231.415L33.800,230.344L37,229.274L40.200,228.204L43.400,227.135L46.600,226.067L49.800,224.999L53,223.931L56.200,222.864L59.400,221.798L62.600,220.732L65.800,219.667L69,218.602L72.200,217.538L75.400,216.474L78.600,215.411L81.800,214.348L85,213.286L88.200,212.225L91.400,211.164L94.600,210.104L97.800,209.044L101,207.985L104.200,206.926L107.400,205.868L110.600,204.811L113.800,203.754L117,202.698L120.200,201.642L123.400,200.587L126.600,199.533L129.800,198.479L133,197.426L136.200,196.373L139.400,195.321L142.600,194.270L145.800,193.219L149,192.169L152.200,191.119L155.400,190.070L158.600,189.022L161.800,187.974L165,186.927L168.200,185.881L171.400,184.835L174.600,183.789L177.800,182.745L181,181.701L184.200,180.658L187.400,179.615L190.600,178.573L193.800,177.532L197,176.491L200.200,175.451L203.400,174.412L206.600,173.373L209.800,172.335L213,171.297L216.200,170.261L219.400,169.225L222.600,168.189L225.800,167.155L229,166.121L232.200,165.087L235.400,164.055L238.600,163.023L241.800,161.992L245,160.961L248.200,159.931L251.400,158.902L254.600,157.874L257.800,156.846L261,155.819L264.200,154.793L267.400,153.768L270.600,152.743L273.800,151.719L277,150.696L280.200,149.673L283.400,148.651L286.600,147.630L289.800,146.610L293,145.590L296.200,144.572L299.400,143.554L302.600,142.536L305.800,141.520L309,140.504L312.200,139.490L315.400,138.475L318.600,137.462L321.800,136.450L325,135.438L328.200,134.427L331.400,133.417L334.600,132.408L337.800,131.399L341,130.392L344.200,129.385L347.400,128.379L350.600,127.374L353.800,126.370L357,125.367L360.200,124.364L363.400,123.362L366.600,122.362L369.800,121.362L373,120.363L376.200,119.365L379.400,118.367L382.600,117.371L385.800,116.376L389,115.381L392.200,114.388L395.400,113.395L398.600,112.403L401.800,111.412L405,110.423L408.200,109.434L411.400,108.446L414.600,107.459L417.800,106.473L421,105.488L424.200,104.504L427.400,103.520L430.600,102.538L433.800,101.557L437,100.577L440.200,99.598L443.400,98.620L446.600,97.643L449.800,96.667L453,95.693L456.200,94.719L459.400,93.746L462.600,92.774L465.800,91.804L469,90.834L472.200,89.866L475.400,88.899L478.600,87.933L481.800,86.968L485,86.004L488.200,85.041L491.400,84.080L494.600,83.119L497.800,82.160L501,81.202L504.200,80.246L507.400,79.290L510.600,78.336L513.800,77.383L517,76.431L520.200,75.481L523.400,74.531L526.600,73.583L529.800,72.637L533,71.691L536.200,70.748L539.400,69.805L542.600,68.864L545.800,67.924L549,66.985L552.200,66.048L555.400,65.113L558.600,64.178L561.800,63.246L565,62.314L568.200,61.384L571.400,60.456L574.600,59.529L577.800,58.604L581,57.680L584.200,56.758L587.400,55.838L590.600,54.919L593.800,54.002L597,53.086L600.200,52.172L603.400,51.260L606.600,50.350L609.800,49.441L613,48.534L616.200,47.629L619.400,46.726L622.600,45.825L625.800,44.925L629,44.028L632.200,43.132L635.400,42.238L638.600,41.347L641.800,40.457L645,39.570L648.200,38.685L651.400,37.801L654.600,36.921L657.800,36.042L661,35.165L664.200,34.291L667.400,33.420L670.600,32.550L673.800,31.684L677,30.820L680.200,29.958L683.400,29.099L686.600,28.243L689.800,27.389L693,26.538L696.200,25.691L699.400,24.846L702.600,24.004L705.800,23.166L709,22.330L712.200,21.498L715.400,20.670L718.600,19.845L721.800,19.023L725,18.206L728.200,17.392L731.400,16.583L734.600,15.777L737.800,14.976L741,14.180L744.200,13.388L747.400,12.602L750.600,11.820L753.800,11.044L757,10.274L760.200,9.510L763.400,8.753L766.600,8.002L769.800,7.259L773,6.524L776.200,5.798L779.400,5.081L782.600,4.376L785.800,3.682L789,3.002L792.200,2.338L795.400,1.694L798.600,1.076L801.800,0.495L805,0" stroke="rgb(51, 68, 89)" fill="none"/><path d="M5,240L8.200,238.237L11.400,236.479L14.600,234.728L17.800,232.982L21,231.242L24.200,229.509L27.400,227.781L30.600,226.059L33.800,224.343L37,222.633L40.200,220.930L43.400,219.232L46.600,217.540L49.800,215.854L53,214.174L56.200,212.500L59.400,210.832L62.600,209.170L65.800,207.514L69,205.864L72.200,204.220L75.400,202.582L78.600,200.951L81.800,199.325L85,197.705L88.200,196.091L91.400,194.483L94.600,192.882L97.800,191.286L101,189.697L104.200,188.113L107.400,186.536L110.600,184.964L113.800,183.399L117,181.840L120.200,180.286L123.400,178.739L126.600,177.198L129.800,175.663L133,174.135L136.200,172.612L139.400,171.095L142.600,169.585L145.800,168.080L149,166.582L152.200,165.090L155.400,163.604L158.600,162.124L161.800,160.651L165,159.183L168.200,157.722L171.400,156.266L174.600,154.817L177.800,153.374L181,151.938L184.200,150.507L187.400,149.083L190.600,147.664L193.800,146.252L197,144.847L200.200,143.447L203.400,142.054L206.600,140.666L209.800,139.285L213,137.911L216.200,136.542L219.400,135.180L222.600,133.824L225.800,132.474L229,131.130L232.200,129.793L235.400,128.462L238.600,127.137L241.800,125.819L245,124.506L248.200,123.200L251.400,121.901L254.600,120.607L257.800,119.320L261,118.040L264.200,116.765L267.400,115.497L270.600,114.235L273.800,112.980L277,111.731L280.200,110.488L283.400,109.251L286.600,108.021L289.800,106.798L293,105.580L296.200,104.369L299.400,103.165L302.600,101.966L305.800,100.775L309,99.589L312.200,98.410L315.400,97.238L318.600,96.071L321.800,94.912L325,93.758L328.200,92.611L331.400,91.471L334.600,90.337L337.800,89.209L341,88.088L344.200,86.974L347.400,85.866L350.600,84.764L353.800,83.669L357,82.580L360.200,81.498L363.400,80.423L366.600,79.354L369.800,78.291L373,77.235L376.200,76.186L379.400,75.143L382.600,74.107L385.800,73.077L389,72.054L392.200,71.037L395.400,70.027L398.600,69.024L401.800,68.027L405,67.037L408.200,66.054L411.400,65.077L414.600,64.107L417.800,63.143L421,62.186L424.200,61.236L427.400,60.293L430.600,59.356L433.800,58.426L437,57.502L440.200,56.586L443.400,55.676L446.600,54.773L449.800,53.876L453,52.986L456.200,52.103L459.400,51.227L462.600,50.358L465.800,49.495L469,48.640L472.200,47.791L475.400,46.949L478.600,46.113L481.800,45.285L485,44.463L488.200,43.649L491.400,42.841L494.600,42.040L497.800,41.246L501,40.459L504.200,39.679L507.400,38.905L510.600,38.139L513.800,37.380L517,36.628L520.200,35.882L523.400,35.144L526.600,34.413L529.800,33.688L533,32.971L536.200,32.261L539.400,31.558L542.600,30.862L545.800,30.173L549,29.491L552.200,28.816L555.400,28.149L558.600,27.488L561.800,26.835L565,26.189L568.200,25.550L571.400,24.918L574.600,24.294L577.800,23.676L581,23.067L584.200,22.464L587.400,21.868L590.600,21.280L593.800,20.700L597,20.126L600.200,19.560L603.400,19.002L606.600,18.450L609.800,17.906L613,17.370L616.200,16.841L619.400,16.320L622.600,15.806L625.800,15.299L629,14.800L632.200,14.309L635.400,13.825L638.600,13.349L641.800,12.880L645,12.420L648.200,11.966L651.400,11.521L654.600,11.083L657.800,10.653L661,10.231L664.200,9.816L667.400,9.410L670.600,9.011L673.800,8.620L677,8.237L680.200,7.862L683.400,7.496L686.600,7.137L689.800,6.786L693,6.443L696.200,6.108L699.400,5.782L702.600,5.464L705.800,5.154L709,4.852L712.200,4.558L715.400,4.273L718.600,3.997L721.800,3.729L725,3.469L728.200,3.218L731.400,2.976L734.600,2.742L737.800,2.517L741,2.301L744.200,2.094L747.400,1.895L750.600,1.706L753.800,1.526L757,1.355L760.200,1.194L763.400,1.041L766.600,0.899L769.800,0.766L773,0.643L776.200,0.529L779.400,0.426L782.600,0.333L785.800,0.251L789,0.180L792.200,0.119L795.400,0.070L798.600,0.033L801.800,0.009L805,0" stroke="rgb(53, 88, 131)" fill="none"/><path d="M5,240L8.200,237.550L11.400,235.115L14.600,232.696L17.800,230.292L21,227.903L24.200,225.529L27.400,223.171L30.600,220.827L33.800,218.498L37,216.185L40.200,213.887L43.400,211.603L46.600,209.334L49.800,207.081L53,204.842L56.200,202.618L59.400,200.408L62.600,198.214L65.800,196.034L69,193.869L72.200,191.718L75.400,189.582L78.600,187.461L81.800,185.354L85,183.262L88.200,181.184L91.400,179.120L94.600,177.071L97.800,175.037L101,173.016L104.200,171.010L107.400,169.018L110.600,167.040L113.800,165.077L117,163.128L120.200,161.192L123.400,159.271L126.600,157.364L129.800,155.470L133,153.591L136.200,151.726L139.400,149.874L142.600,148.037L145.800,146.213L149,144.402L152.200,142.606L155.400,140.823L158.600,139.054L161.800,137.299L165,135.557L168.200,133.829L171.400,132.114L174.600,130.412L177.800,128.724L181,127.050L184.200,125.388L187.400,123.740L190.600,122.106L193.800,120.484L197,118.876L200.200,117.281L203.400,115.699L206.600,114.130L209.800,112.574L213,111.031L216.200,109.501L219.400,107.984L222.600,106.480L225.800,104.989L229,103.510L232.200,102.044L235.400,100.591L238.600,99.151L241.800,97.723L245,96.308L248.200,94.905L251.400,93.515L254.600,92.138L257.800,90.773L261,89.420L264.200,88.079L267.400,86.751L270.600,85.436L273.800,84.132L277,82.841L280.200,81.561L283.400,80.294L286.600,79.039L289.800,77.796L293,76.565L296.200,75.346L299.400,74.139L302.600,72.944L305.800,71.760L309,70.589L312.200,69.429L315.400,68.280L318.600,67.144L321.800,66.019L325,64.905L328.200,63.803L331.400,62.713L334.600,61.634L337.800,60.566L341,59.510L344.200,58.465L347.400,57.431L350.600,56.408L353.800,55.397L357,54.397L360.200,53.408L363.400,52.429L366.600,51.462L369.800,50.506L373,49.561L376.200,48.627L379.400,47.703L382.600,46.790L385.800,45.888L389,44.997L392.200,44.116L395.400,43.246L398.600,42.386L401.800,41.537L405,40.698L408.200,39.870L411.400,39.052L414.600,38.244L417.800,37.447L421,36.660L424.200,35.883L427.400,35.116L430.600,34.359L433.800,33.612L437,32.875L440.200,32.149L443.400,31.432L446.600,30.724L449.800,30.027L453,29.339L456.200,28.661L459.400,27.993L462.600,27.334L465.800,26.685L469,26.045L472.200,25.415L475.400,24.794L478.600,24.183L481.800,23.580L485,22.987L488.200,22.403L491.400,21.828L494.600,21.263L497.800,20.706L501,20.158L504.200,19.620L507.400,19.090L510.600,18.569L513.800,18.056L517,17.553L520.200,17.058L523.400,16.571L526.600,16.094L529.800,15.624L533,15.163L536.200,14.711L539.400,14.267L542.600,13.831L545.800,13.403L549,12.984L552.200,12.572L555.400,12.169L558.600,11.773L561.800,11.386L565,11.006L568.200,10.635L571.400,10.270L574.600,9.914L577.800,9.565L581,9.224L584.200,8.891L587.400,8.565L590.600,8.246L593.800,7.934L597,7.630L600.200,7.333L603.400,7.044L606.600,6.761L609.800,6.485L613,6.217L616.200,5.955L619.400,5.700L622.600,5.452L625.800,5.210L629,4.975L632.200,4.747L635.400,4.525L638.600,4.310L641.800,4.101L645,3.898L648.200,3.702L651.400,3.511L654.600,3.327L657.800,3.149L661,2.977L664.200,2.810L667.400,2.650L670.600,2.495L673.800,2.345L677,2.202L680.200,2.064L683.400,1.931L686.600,1.803L689.800,1.681L693,1.564L696.200,1.452L699.400,1.345L702.600,1.244L705.800,1.146L709,1.054L712.200,0.967L715.400,0.884L718.600,0.805L721.800,0.731L725,0.661L728.200,0.595L731.400,0.534L734.600,0.477L737.800,0.423L741,0.373L744.200,0.327L747.400,0.285L750.600,0.246L753.800,0.211L757,0.179L760.200,0.150L763.400,0.124L766.600,0.101L769.800,0.081L773,0.063L776.200,0.048L779.400,0.036L782.600,0.025L785.800,0.017L789,0.011L792.200,0.006L795.400,0.003L798.600,0.001L801.800,0L805,0" stroke="rgb(56, 108, 172)" fill="none"/><path d="M5,240L8.200,236.866L11.400,233.760L14.600,230.682L17.800,227.633L21,224.612L24.200,221.619L27.400,218.654L30.600,215.716L33.800,212.806L37,209.923L40.200,207.068L43.400,204.240L46.600,201.439L49.800,198.664L53,195.916L56.200,193.195L59.400,190.500L62.600,187.832L65.800,185.189L69,182.572L72.200,179.982L75.400,177.417L78.600,174.877L81.800,172.363L85,169.874L88.200,167.410L91.400,164.971L94.600,162.557L97.800,160.168L101,157.803L104.200,155.462L107.400,153.146L110.600,150.854L113.800,148.585L117,146.341L120.200,144.120L123.400,141.923L126.600,139.749L129.800,137.599L133,135.471L136.200,133.367L139.400,131.285L142.600,129.226L145.800,127.190L149,125.176L152.200,123.184L155.400,121.215L158.600,119.267L161.800,117.341L165,115.437L168.200,113.555L171.400,111.694L174.600,109.854L177.800,108.036L181,106.238L184.200,104.462L187.400,102.706L190.600,100.971L193.800,99.256L197,97.562L200.200,95.888L203.400,94.234L206.600,92.599L209.800,90.985L213,89.390L216.200,87.815L219.400,86.260L222.600,84.723L225.800,83.206L229,81.707L232.200,80.228L235.400,78.767L238.600,77.325L241.800,75.901L245,74.496L248.200,73.109L251.400,71.740L254.600,70.388L257.800,69.055L261,67.739L264.200,66.441L267.400,65.160L270.600,63.897L273.800,62.650L277,61.421L280.200,60.208L283.400,59.012L286.600,57.833L289.800,56.670L293,55.524L296.200,54.394L299.400,53.280L302.600,52.182L305.800,51.100L309,50.033L312.200,48.982L315.400,47.946L318.600,46.926L321.800,45.921L325,44.931L328.200,43.956L331.400,42.996L334.600,42.050L337.800,41.119L341,40.203L344.200,39.300L347.400,38.412L350.600,37.538L353.800,36.678L357,35.832L360.200,34.999L363.400,34.180L366.600,33.374L369.800,32.582L373,31.803L376.200,31.036L379.400,30.283L382.600,29.543L385.800,28.815L389,28.100L392.200,27.397L395.400,26.706L398.600,26.028L401.800,25.362L405,24.708L408.200,24.065L411.400,23.435L414.600,22.815L417.800,22.208L421,21.611L424.200,21.026L427.400,20.452L430.600,19.889L433.800,19.337L437,18.796L440.200,18.265L443.400,17.745L446.600,17.235L449.800,16.735L453,16.246L456.200,15.766L459.400,15.297L462.600,14.837L465.800,14.387L469,13.947L472.200,13.516L475.400,13.094L478.600,12.682L481.800,12.278L485,11.884L488.200,11.499L491.400,11.122L494.600,10.754L497.800,10.395L501,10.044L504.200,9.701L507.400,9.367L510.600,9.040L513.800,8.722L517,8.412L520.200,8.109L523.400,7.814L526.600,7.526L529.800,7.246L533,6.974L536.200,6.708L539.400,6.450L542.600,6.198L545.800,5.954L549,5.716L552.200,5.485L555.400,5.261L558.600,5.043L561.800,4.831L565,4.626L568.200,4.426L571.400,4.233L574.600,4.046L577.800,3.865L581,3.689L584.200,3.519L587.400,3.354L590.600,3.195L593.800,3.041L597,2.893L600.200,2.749L603.400,2.611L606.600,2.477L609.800,2.349L613,2.225L616.200,2.106L619.400,1.991L622.600,1.880L625.800,1.774L629,1.672L632.200,1.575L635.400,1.481L638.600,1.391L641.800,1.306L645,1.223L648.200,1.145L651.400,1.070L654.600,0.999L657.800,0.931L661,0.866L664.200,0.804L667.400,0.746L670.600,0.691L673.800,0.638L677,0.588L680.200,0.542L683.400,0.497L686.600,0.456L689.800,0.417L693,0.380L696.200,0.345L699.400,0.313L702.600,0.283L705.800,0.255L709,0.229L712.200,0.205L715.400,0.183L718.600,0.162L721.800,0.143L725,0.126L728.200,0.110L731.400,0.096L734.600,0.083L737.800,0.071L741,0.061L744.200,0.051L747.400,0.043L750.600,0.036L753.800,0.029L757,0.024L760.200,0.019L763.400,0.015L766.600,0.011L769.800,0.009L773,0.006L776.200,0.004L779.400,0.003L782.600,0.002L785.800,0.001L789,0.001L792.200,0L795.400,0L798.600,0L801.800,0L805,0" stroke="rgb(58, 128, 214)" fill="none"/><path d="M5,240L8.200,236.183L11.400,232.412L14.600,228.686L17.800,225.005L21,221.368L24.200,217.776L27.400,214.228L30.600,210.723L33.800,207.262L37,203.843L40.200,200.467L43.400,197.133L46.600,193.841L49.800,190.590L53,187.380L56.200,184.211L59.400,181.082L62.600,177.993L65.800,174.944L69,171.934L72.200,168.964L75.400,166.032L78.600,163.138L81.800,160.282L85,157.464L88.200,154.683L91.400,151.939L94.600,149.232L97.800,146.562L101,143.927L104.200,141.328L107.400,138.764L110.600,136.235L113.800,133.742L117,131.282L120.200,128.856L123.400,126.465L126.600,124.107L129.800,121.781L133,119.489L136.200,117.229L139.400,115.002L142.600,112.806L145.800,110.642L149,108.509L152.200,106.407L155.400,104.336L158.600,102.296L161.800,100.285L165,98.304L168.200,96.353L171.400,94.430L174.600,92.537L177.800,90.672L181,88.836L184.200,87.028L187.400,85.247L190.600,83.494L193.800,81.768L197,80.069L200.200,78.397L203.400,76.751L206.600,75.131L209.800,73.537L213,71.968L216.200,70.424L219.400,68.906L222.600,67.412L225.800,65.943L229,64.497L232.200,63.076L235.400,61.678L238.600,60.304L241.800,58.952L245,57.624L248.200,56.318L251.400,55.035L254.600,53.773L257.800,52.533L261,51.315L264.200,50.118L267.400,48.943L270.600,47.788L273.800,46.653L277,45.539L280.200,44.445L283.400,43.371L286.600,42.317L289.800,41.281L293,40.265L296.200,39.268L299.400,38.289L302.600,37.329L305.800,36.387L309,35.463L312.200,34.557L315.400,33.668L318.600,32.796L321.800,31.942L325,31.104L328.200,30.283L331.400,29.478L334.600,28.689L337.800,27.917L341,27.160L344.200,26.418L347.400,25.692L350.600,24.981L353.800,24.284L357,23.603L360.200,22.936L363.400,22.283L366.600,21.644L369.800,21.019L373,20.407L376.200,19.809L379.400,19.225L382.600,18.653L385.800,18.094L389,17.548L392.200,17.014L395.400,16.493L398.600,15.983L401.800,15.486L405,15L408.200,14.526L411.400,14.063L414.600,13.611L417.800,13.170L421,12.740L424.200,12.321L427.400,11.912L430.600,11.513L433.800,11.125L437,10.746L440.200,10.377L443.400,10.018L446.600,9.668L449.800,9.327L453,8.995L456.200,8.673L459.400,8.359L462.600,8.054L465.800,7.757L469,7.468L472.200,7.188L475.400,6.915L478.600,6.650L481.800,6.393L485,6.144L488.200,5.902L491.400,5.667L494.600,5.439L497.800,5.218L501,5.004L504.200,4.797L507.400,4.596L510.600,4.402L513.800,4.213L517,4.031L520.200,3.855L523.400,3.685L526.600,3.520L529.800,3.361L533,3.207L536.200,3.059L539.400,2.916L542.600,2.778L545.800,2.645L549,2.517L552.200,2.393L555.400,2.274L558.600,2.160L561.800,2.050L565,1.944L568.200,1.842L571.400,1.745L574.600,1.651L577.800,1.561L581,1.475L584.200,1.393L587.400,1.314L590.600,1.238L593.800,1.166L597,1.097L600.200,1.031L603.400,0.968L606.600,0.908L609.800,0.851L613,0.796L616.200,0.744L619.400,0.695L622.600,0.649L625.800,0.604L629,0.562L632.200,0.522L635.400,0.485L638.600,0.449L641.800,0.416L645,0.384L648.200,0.354L651.400,0.326L654.600,0.300L657.800,0.275L661,0.252L664.200,0.230L667.400,0.210L670.600,0.191L673.800,0.174L677,0.157L680.200,0.142L683.400,0.128L686.600,0.115L689.800,0.103L693,0.092L696.200,0.082L699.400,0.073L702.600,0.064L705.800,0.057L709,0.050L712.200,0.043L715.400,0.038L718.600,0.033L721.800,0.028L725,0.024L728.200,0.020L731.400,0.017L734.600,0.014L737.800,0.012L741,0.010L744.200,0.008L747.400,0.006L750.600,0.005L753.800,0.004L757,0.003L760.200,0.002L763.400,0.002L766.600,0.001L769.800,0.001L773,0.001L776.200,0L779.400,0L782.600,0L785.800,0L789,0L792.200,0L795.400,0L798.600,0L801.800,0L805,0" stroke="rgb(61, 148, 255)" fill="none"/></g></g></svg>