<svg xmlns="http://www.w3.org/2000/svg" width="628" height="200" view_box="0 0 628 200" style="max-width:100%;height:auto;"><g transform="translate(0, 180)" fill="none" font-size="10" font-family="sans-serif" text-anchor="middle"><g class="tick" opacity="1" transform="translate(65.17948336408547, 0)"><line stroke="currentColor" y2="6"/><text fill="currentColor" y="9" dy="0.71em">1975</text></g><g class="tick" opacity="1" transform="translate(126.9119992857568, 0)"><line stroke="currentColor" y2="6"/><text fill="currentColor" y="9" dy="0.71em">1980</text></g><g class="tick" opacity="1" transform="translate(188.6783227188858, 0)"><line stroke="currentColor" y2="6"/><text fill="currentColor" y="9" dy="0.71em">1985</text></g><g class="tick" opacity="1" transform="translate(250.41083864055713, 0)"><line stroke="currentColor" y2="6"/><text fill="currentColor" y="9" dy="0.71em">1990</text></g><g class="tick" opacity="1" transform="translate(312.1433545622284, 0)"><line stroke="currentColor" y2="6"/><text fill="currentColor" y="9" dy="0.71em">1995</text></g><g class="tick" opacity="1" transform="translate(373.87587048389975, 0)"><line stroke="currentColor" y2="6"/><text fill="currentColor" y="9" dy="0.71em">2000</text></g><g class="tick" opacity="1" transform="translate(435.6421939170287, 0)"><line stroke="currentColor" y2="6"/><text fill="currentColor" y="9" dy="0.71em">2005</text></g><g class="tick" opacity="1" transform="translate(497.3747098387001, 0)"><line stroke="currentColor" y2="6"/><text fill="currentColor" y="9" dy="0.71em">2010</text></g><g class="tick" opacity="1" transform="translate(559.1072257603714, 0)"><line stroke="currentColor" y2="6"/><text fill="currentColor" y="9" dy="0.71em">2015</text></g></g><g transform="translate(40,0)" fill="none" font-size="10" font-family="sans-serif" text-anchor="end"><g class="tick" opacity="1" transform="translate(0, 180.5)"><line stroke="currentColor" x2="568" stroke-opacity="0.2"/><line stroke="currentColor" x2="-6"/><text fill="currentColor" x="-9" dy="0.32em">0%</text></g><g class="tick" opacity="1" transform="translate(0, 148.5)"><line stroke="currentColor" x2="568" stroke-opacity="0.2"/><line stroke="currentColor" x2="-6"/><text fill="currentColor" x="-9" dy="0.32em">20%</text></g><g class="tick" opacity="1" transform="translate(0, 116.5)"><line stroke="currentColor" x2="568" stroke-opacity="0.2"/><line stroke="currentColor" x2="-6"/><text fill="currentColor" x="-9" dy="0.32em">40%</text></g><g class="tick" opacity="1" transform="translate(0, 84.5)"><line stroke="currentColor" x2="568" stroke-opacity="0.2"/><line stroke="currentColor" x2="-6"/><text fill="currentColor" x="-9" dy="0.32em">60%</text></g><g class="tick" opacity="1" transform="translate(0, 52.5)"><line stroke="currentColor" x2="568" stroke-opacity="0.2"/><line stroke="currentColor" x2="-6"/><text fill="currentColor" x="-9" dy="0.32em">80%</text></g><g class="tick" opacity="1" transform="translate(0, 20.5)"><line stroke="currentColor" x2="568" stroke-opacity="0.2"/><line stroke="currentColor" x2="-6"/><text fill="currentColor" x="-9" dy="0.32em">100%</text></g><text x="-40" y="10" fill="currentColor" text-anchor="start">&#8593; Annual revenue (billions)</text></g><g><path fill="#59a14f" d="M40,21L52.340,21L64.679,21L77.019,20L89.393,20L101.733,20L114.072,20L126.412,20L138.786,20L151.125,20L163.465,20L175.805,20L188.178,20L200.518,20L212.858,20L225.198,20L237.571,20L249.911,20L262.251,20L274.590,20L286.964,20L299.304,20L311.643,20L323.983,20L336.357,20L348.696,20L361.036,20L373.376,20L385.749,20L398.089,20L410.429,20L422.769,20L435.142,20L447.482,20L459.822,20L472.161,20L484.535,20L496.875,20L509.214,20L521.554,20L533.928,20L546.267,20L558.607,20L570.947,20L583.321,20L595.660,20L608,20L608,20L595.660,20L583.321,20L570.947,20L558.607,20L546.267,20L533.928,20L521.554,20L509.214,20L496.875,20L484.535,20L472.161,20L459.822,20L447.482,20L435.142,20L422.769,20L410.429,20L398.089,20L385.749,20L373.376,20L361.036,20L348.696,20L336.357,20L323.983,20L311.643,20L299.304,20L286.964,20L274.590,20L262.251,20L249.911,20L237.571,20L225.198,20L212.858,20L200.518,20L188.178,20L175.805,20L163.465,20L151.125,22L138.786,33L126.412,43L114.072,50L101.733,57L89.393,57L77.019,60L64.679,60L52.340,61L40,60Z"><title>8 - Track</title></path><path fill="#4e79a7" d="M40,180L52.340,180L64.679,180L77.019,180L89.393,180L101.733,180L114.072,180L126.412,180L138.786,180L151.125,180L163.465,179L175.805,176L188.178,166L200.518,148L212.858,134L225.198,127L237.571,114L249.911,103L262.251,89L274.590,83L286.964,73L299.304,65L311.643,55L323.983,50L336.357,46L348.696,41L361.036,35L373.376,29L385.749,26L398.089,24L410.429,23L422.769,21L435.142,21L447.482,21L459.822,21L472.161,21L484.535,21L496.875,22L509.214,23L521.554,24L533.928,25L546.267,26L558.607,28L570.947,28L583.321,27L595.660,27L608,27L608,36L595.660,38L583.321,46L570.947,51L558.607,63L546.267,68L533.928,74L521.554,81L509.214,92L496.875,99L484.535,110L472.161,121L459.822,133L447.482,148L435.142,158L422.769,169L410.429,174L398.089,176L385.749,176L373.376,177L361.036,176L348.696,174L336.357,176L323.983,177L311.643,177L299.304,177L286.964,177L274.590,177L262.251,178L249.911,176L237.571,177L225.198,180L212.858,180L200.518,180L188.178,180L175.805,180L163.465,180L151.125,180L138.786,180L126.412,180L114.072,180L101.733,180L89.393,180L77.019,180L64.679,180L52.340,180L40,180Z"><title>CD</title></path><path fill="#4e79a7" d="M40,180L52.340,180L64.679,180L77.019,180L89.393,180L101.733,180L114.072,180L126.412,180L138.786,180L151.125,180L163.465,179L175.805,176L188.178,166L200.518,148L212.858,134L225.198,126L237.571,114L249.911,103L262.251,88L274.590,82L286.964,72L299.304,64L311.643,54L323.983,48L336.357,43L348.696,38L361.036,33L373.376,28L385.749,25L398.089,23L410.429,22L422.769,21L435.142,21L447.482,20L459.822,20L472.161,21L484.535,21L496.875,22L509.214,23L521.554,24L533.928,25L546.267,26L558.607,28L570.947,28L583.321,27L595.660,27L608,27L608,27L595.660,27L583.321,27L570.947,28L558.607,28L546.267,26L533.928,25L521.554,24L509.214,23L496.875,22L484.535,21L472.161,21L459.822,21L447.482,21L435.142,21L422.769,21L410.429,23L398.089,24L385.749,26L373.376,29L361.036,35L348.696,41L336.357,46L323.983,50L311.643,55L299.304,65L286.964,73L274.590,83L262.251,89L249.911,103L237.571,114L225.198,127L212.858,134L200.518,148L188.178,166L175.805,176L163.465,179L151.125,180L138.786,180L126.412,180L114.072,180L101.733,180L89.393,180L77.019,180L64.679,180L52.340,180L40,180Z"><title>CD Single</title></path><path fill="#59a14f" d="M40,174L52.340,174L64.679,173L77.019,171L89.393,169L101.733,163L114.072,155L126.412,149L138.786,137L151.125,119L163.465,103L175.805,88L188.178,77L200.518,62L212.858,49L225.198,38L237.571,28L249.911,24L262.251,22L274.590,21L286.964,21L299.304,21L311.643,21L323.983,21L336.357,21L348.696,21L361.036,21L373.376,21L385.749,21L398.089,21L410.429,21L422.769,21L435.142,20L447.482,20L459.822,20L472.161,21L484.535,21L496.875,22L509.214,23L521.554,24L533.928,25L546.267,26L558.607,28L570.947,28L583.321,27L595.660,27L608,27L608,27L595.660,27L583.321,27L570.947,28L558.607,28L546.267,26L533.928,25L521.554,24L509.214,23L496.875,22L484.535,21L472.161,21L459.822,20L447.482,20L435.142,21L422.769,21L410.429,22L398.089,23L385.749,25L373.376,28L361.036,32L348.696,37L336.357,41L323.983,45L311.643,51L299.304,60L286.964,67L274.590,77L262.251,84L249.911,98L237.571,110L225.198,125L212.858,134L200.518,148L188.178,166L175.805,176L163.465,179L151.125,180L138.786,180L126.412,180L114.072,180L101.733,180L89.393,180L77.019,180L64.679,180L52.340,180L40,180Z"><title>Cassette</title></path><path fill="#59a14f" d="M40,180L52.340,180L64.679,180L77.019,180L89.393,180L101.733,180L114.072,180L126.412,180L138.786,180L151.125,180L163.465,179L175.805,176L188.178,166L200.518,148L212.858,134L225.198,125L237.571,110L249.911,98L262.251,84L274.590,77L286.964,67L299.304,60L311.643,51L323.983,45L336.357,41L348.696,37L361.036,32L373.376,28L385.749,25L398.089,23L410.429,22L422.769,21L435.142,21L447.482,20L459.822,20L472.161,21L484.535,21L496.875,22L509.214,23L521.554,24L533.928,25L546.267,26L558.607,28L570.947,28L583.321,27L595.660,27L608,27L608,27L595.660,27L583.321,27L570.947,28L558.607,28L546.267,26L533.928,25L521.554,24L509.214,23L496.875,22L484.535,21L472.161,21L459.822,20L447.482,20L435.142,21L422.769,21L410.429,22L398.089,23L385.749,25L373.376,28L361.036,33L348.696,38L336.357,43L323.983,48L311.643,54L299.304,64L286.964,72L274.590,82L262.251,88L249.911,103L237.571,114L225.198,126L212.858,134L200.518,148L188.178,166L175.805,176L163.465,179L151.125,180L138.786,180L126.412,180L114.072,180L101.733,180L89.393,180L77.019,180L64.679,180L52.340,180L40,180Z"><title>Cassette Single</title></path><path fill="#e15759" d="M40,180L52.340,180L64.679,180L77.019,180L89.393,180L101.733,180L114.072,180L126.412,180L138.786,180L151.125,180L163.465,180L175.805,180L188.178,180L200.518,180L212.858,180L225.198,180L237.571,180L249.911,180L262.251,180L274.590,180L286.964,180L299.304,180L311.643,180L323.983,180L336.357,180L348.696,180L361.036,180L373.376,180L385.749,180L398.089,180L410.429,180L422.769,177L435.142,166L447.482,154L459.822,140L472.161,125L484.535,114L496.875,104L509.214,96L521.554,83L533.928,76L546.267,71L558.607,64L570.947,53L583.321,47L595.660,39L608,37L608,37L595.660,39L583.321,47L570.947,53L558.607,64L546.267,71L533.928,76L521.554,83L509.214,96L496.875,104L484.535,114L472.161,125L459.822,140L447.482,154L435.142,166L422.769,178L410.429,180L398.089,180L385.749,180L373.376,180L361.036,180L348.696,180L336.357,180L323.983,180L311.643,180L299.304,180L286.964,180L274.590,180L262.251,180L249.911,180L237.571,180L225.198,180L212.858,180L200.518,180L188.178,180L175.805,180L163.465,180L151.125,180L138.786,180L126.412,180L114.072,180L101.733,180L89.393,180L77.019,180L64.679,180L52.340,180L40,180Z"><title>DVD Audio</title></path><path fill="#f28e2c" d="M40,180L52.340,180L64.679,180L77.019,180L89.393,180L101.733,180L114.072,180L126.412,180L138.786,180L151.125,180L163.465,180L175.805,180L188.178,180L200.518,180L212.858,180L225.198,180L237.571,180L249.911,180L262.251,180L274.590,180L286.964,180L299.304,180L311.643,180L323.983,180L336.357,180L348.696,180L361.036,180L373.376,180L385.749,180L398.089,180L410.429,180L422.769,179L435.142,176L447.482,173L459.822,168L472.161,163L484.535,153L496.875,145L509.214,137L521.554,125L533.928,115L546.267,105L558.607,94L570.947,73L583.321,60L595.660,47L608,43L608,49L595.660,55L583.321,72L570.947,91L558.607,120L546.267,132L533.928,143L521.554,152L509.214,161L496.875,165L484.535,168L472.161,174L459.822,176L447.482,177L435.142,178L422.769,180L410.429,180L398.089,180L385.749,180L373.376,180L361.036,180L348.696,180L336.357,180L323.983,180L311.643,180L299.304,180L286.964,180L274.590,180L262.251,180L249.911,180L237.571,180L225.198,180L212.858,180L200.518,180L188.178,180L175.805,180L163.465,180L151.125,180L138.786,180L126.412,180L114.072,180L101.733,180L89.393,180L77.019,180L64.679,180L52.340,180L40,180Z"><title>Download Album</title></path><path fill="#f28e2c" d="M40,180L52.340,180L64.679,180L77.019,180L89.393,180L101.733,180L114.072,180L126.412,180L138.786,180L151.125,180L163.465,180L175.805,180L188.178,180L200.518,180L212.858,180L225.198,180L237.571,180L249.911,180L262.251,180L274.590,180L286.964,180L299.304,180L311.643,180L323.983,180L336.357,180L348.696,180L361.036,180L373.376,180L385.749,180L398.089,180L410.429,180L422.769,178L435.142,171L447.482,165L459.822,156L472.161,143L484.535,128L496.875,114L509.214,102L521.554,87L533.928,78L546.267,72L558.607,66L570.947,54L583.321,48L595.660,39L608,37L608,37L595.660,39L583.321,48L570.947,54L558.607,66L546.267,73L533.928,79L521.554,87L509.214,103L496.875,115L484.535,129L472.161,144L459.822,156L447.482,165L435.142,171L422.769,178L410.429,180L398.089,180L385.749,180L373.376,180L361.036,180L348.696,180L336.357,180L323.983,180L311.643,180L299.304,180L286.964,180L274.590,180L262.251,180L249.911,180L237.571,180L225.198,180L212.858,180L200.518,180L188.178,180L175.805,180L163.465,180L151.125,180L138.786,180L126.412,180L114.072,180L101.733,180L89.393,180L77.019,180L64.679,180L52.340,180L40,180Z"><title>Download Music Video</title></path><path fill="#f28e2c" d="M40,180L52.340,180L64.679,180L77.019,180L89.393,180L101.733,180L114.072,180L126.412,180L138.786,180L151.125,180L163.465,180L175.805,180L188.178,180L200.518,180L212.858,180L225.198,180L237.571,180L249.911,180L262.251,180L274.590,180L286.964,180L299.304,180L311.643,180L323.983,180L336.357,180L348.696,180L361.036,180L373.376,180L385.749,180L398.089,180L410.429,180L422.769,178L435.142,171L447.482,165L459.822,156L472.161,144L484.535,129L496.875,115L509.214,103L521.554,87L533.928,79L546.267,73L558.607,66L570.947,54L583.321,48L595.660,39L608,37L608,43L595.660,47L583.321,60L570.947,73L558.607,94L546.267,105L533.928,115L521.554,125L509.214,137L496.875,145L484.535,153L472.161,163L459.822,168L447.482,173L435.142,176L422.769,179L410.429,180L398.089,180L385.749,180L373.376,180L361.036,180L348.696,180L336.357,180L323.983,180L311.643,180L299.304,180L286.964,180L274.590,180L262.251,180L249.911,180L237.571,180L225.198,180L212.858,180L200.518,180L188.178,180L175.805,180L163.465,180L151.125,180L138.786,180L126.412,180L114.072,180L101.733,180L89.393,180L77.019,180L64.679,180L52.340,180L40,180Z"><title>Download Single</title></path><path fill="#e15759" d="M40,180L52.340,180L64.679,180L77.019,180L89.393,180L101.733,180L114.072,180L126.412,180L138.786,180L151.125,180L163.465,180L175.805,180L188.178,180L200.518,180L212.858,180L225.198,180L237.571,180L249.911,180L262.251,180L274.590,180L286.964,180L299.304,180L311.643,180L323.983,180L336.357,180L348.696,180L361.036,180L373.376,180L385.749,180L398.089,180L410.429,180L422.769,178L435.142,171L447.482,165L459.822,156L472.161,144L484.535,129L496.875,115L509.214,103L521.554,87L533.928,79L546.267,73L558.607,66L570.947,54L583.321,48L595.660,39L608,37L608,37L595.660,39L583.321,48L570.947,54L558.607,66L546.267,73L533.928,79L521.554,87L509.214,103L496.875,115L484.535,129L472.161,144L459.822,156L447.482,165L435.142,171L422.769,178L410.429,180L398.089,180L385.749,180L373.376,180L361.036,180L348.696,180L336.357,180L323.983,180L311.643,180L299.304,180L286.964,180L274.590,180L262.251,180L249.911,180L237.571,180L225.198,180L212.858,180L200.518,180L188.178,180L175.805,180L163.465,180L151.125,180L138.786,180L126.412,180L114.072,180L101.733,180L89.393,180L77.019,180L64.679,180L52.340,180L40,180Z"><title>Kiosk</title></path><path fill="#edc949" d="M40,60L52.340,61L64.679,60L77.019,60L89.393,57L101.733,57L114.072,50L126.412,43L138.786,33L151.125,22L163.465,20L175.805,20L188.178,20L200.518,20L212.858,20L225.198,20L237.571,20L249.911,20L262.251,20L274.590,20L286.964,20L299.304,20L311.643,20L323.983,20L336.357,20L348.696,20L361.036,20L373.376,20L385.749,20L398.089,20L410.429,20L422.769,20L435.142,20L447.482,20L459.822,20L472.161,20L484.535,20L496.875,20L509.214,20L521.554,20L533.928,20L546.267,20L558.607,20L570.947,20L583.321,20L595.660,20L608,20L608,27L595.660,27L583.321,27L570.947,28L558.607,28L546.267,26L533.928,25L521.554,24L509.214,23L496.875,22L484.535,21L472.161,21L459.822,20L447.482,20L435.142,20L422.769,20L410.429,20L398.089,20L385.749,20L373.376,20L361.036,20L348.696,20L336.357,20L323.983,20L311.643,20L299.304,20L286.964,20L274.590,20L262.251,21L249.911,22L237.571,25L225.198,34L212.858,43L200.518,54L188.178,67L175.805,77L163.465,91L151.125,106L138.786,127L126.412,139L114.072,139L101.733,152L89.393,157L77.019,157L64.679,159L52.340,160L40,159Z"><title>LP/EP</title></path><path fill="#76b7b2" d="M40,180L52.340,180L64.679,180L77.019,180L89.393,180L101.733,180L114.072,180L126.412,180L138.786,180L151.125,180L163.465,180L175.805,180L188.178,180L200.518,180L212.858,180L225.198,180L237.571,180L249.911,180L262.251,180L274.590,180L286.964,180L299.304,180L311.643,180L323.983,180L336.357,180L348.696,180L361.036,180L373.376,180L385.749,180L398.089,180L410.429,180L422.769,180L435.142,178L447.482,177L459.822,176L472.161,176L484.535,176L496.875,175L509.214,172L521.554,167L533.928,160L546.267,155L558.607,144L570.947,116L583.321,93L595.660,80L608,69L608,81L595.660,92L583.321,104L570.947,122L558.607,144L546.267,155L533.928,160L521.554,167L509.214,172L496.875,175L484.535,176L472.161,176L459.822,176L447.482,177L435.142,178L422.769,180L410.429,180L398.089,180L385.749,180L373.376,180L361.036,180L348.696,180L336.357,180L323.983,180L311.643,180L299.304,180L286.964,180L274.590,180L262.251,180L249.911,180L237.571,180L225.198,180L212.858,180L200.518,180L188.178,180L175.805,180L163.465,180L151.125,180L138.786,180L126.412,180L114.072,180L101.733,180L89.393,180L77.019,180L64.679,180L52.340,180L40,180Z"><title>Limited Tier Paid Subscription</title></path><path fill="#e15759" d="M40,180L52.340,180L64.679,180L77.019,180L89.393,180L101.733,180L114.072,180L126.412,180L138.786,180L151.125,180L163.465,180L175.805,180L188.178,180L200.518,180L212.858,180L225.198,180L237.571,177L249.911,176L262.251,178L274.590,177L286.964,177L299.304,177L311.643,177L323.983,177L336.357,176L348.696,174L361.036,176L373.376,177L385.749,176L398.089,176L410.429,174L422.769,170L435.142,158L447.482,148L459.822,133L472.161,121L484.535,110L496.875,100L509.214,92L521.554,81L533.928,74L546.267,69L558.607,63L570.947,52L583.321,46L595.660,38L608,36L608,37L595.660,39L583.321,47L570.947,53L558.607,64L546.267,71L533.928,76L521.554,83L509.214,96L496.875,104L484.535,114L472.161,125L459.822,140L447.482,154L435.142,166L422.769,177L410.429,180L398.089,180L385.749,180L373.376,180L361.036,180L348.696,180L336.357,180L323.983,180L311.643,180L299.304,180L286.964,180L274.590,180L262.251,180L249.911,180L237.571,180L225.198,180L212.858,180L200.518,180L188.178,180L175.805,180L163.465,180L151.125,180L138.786,180L126.412,180L114.072,180L101.733,180L89.393,180L77.019,180L64.679,180L52.340,180L40,180Z"><title>Music Video (Physical)</title></path><path fill="#76b7b2" d="M40,180L52.340,180L64.679,180L77.019,180L89.393,180L101.733,180L114.072,180L126.412,180L138.786,180L151.125,180L163.465,180L175.805,180L188.178,180L200.518,180L212.858,180L225.198,180L237.571,180L249.911,180L262.251,180L274.590,180L286.964,180L299.304,180L311.643,180L323.983,180L336.357,180L348.696,180L361.036,180L373.376,180L385.749,180L398.089,180L410.429,180L422.769,180L435.142,178L447.482,177L459.822,176L472.161,176L484.535,176L496.875,175L509.214,172L521.554,167L533.928,160L546.267,155L558.607,144L570.947,122L583.321,104L595.660,92L608,81L608,94L595.660,104L583.321,116L570.947,132L558.607,152L546.267,162L533.928,165L521.554,171L509.214,174L496.875,175L484.535,176L472.161,176L459.822,176L447.482,177L435.142,178L422.769,180L410.429,180L398.089,180L385.749,180L373.376,180L361.036,180L348.696,180L336.357,180L323.983,180L311.643,180L299.304,180L286.964,180L274.590,180L262.251,180L249.911,180L237.571,180L225.198,180L212.858,180L200.518,180L188.178,180L175.805,180L163.465,180L151.125,180L138.786,180L126.412,180L114.072,180L101.733,180L89.393,180L77.019,180L64.679,180L52.340,180L40,180Z"><title>On-Demand Streaming (Ad-Supported)</title></path><path fill="#76b7b2" d="M40,180L52.340,180L64.679,180L77.019,180L89.393,180L101.733,180L114.072,180L126.412,180L138.786,180L151.125,180L163.465,180L175.805,180L188.178,180L200.518,180L212.858,180L225.198,180L237.571,180L249.911,180L262.251,180L274.590,180L286.964,180L299.304,180L311.643,180L323.983,180L336.357,180L348.696,180L361.036,180L373.376,180L385.749,180L398.089,180L410.429,180L422.769,180L435.142,178L447.482,177L459.822,176L472.161,174L484.535,168L496.875,165L509.214,161L521.554,152L533.928,143L546.267,132L558.607,120L570.947,91L583.321,72L595.660,55L608,49L608,52L595.660,59L583.321,77L570.947,93L558.607,120L546.267,132L533.928,143L521.554,152L509.214,161L496.875,165L484.535,168L472.161,174L459.822,176L447.482,177L435.142,178L422.769,180L410.429,180L398.089,180L385.749,180L373.376,180L361.036,180L348.696,180L336.357,180L323.983,180L311.643,180L299.304,180L286.964,180L274.590,180L262.251,180L249.911,180L237.571,180L225.198,180L212.858,180L200.518,180L188.178,180L175.805,180L163.465,180L151.125,180L138.786,180L126.412,180L114.072,180L101.733,180L89.393,180L77.019,180L64.679,180L52.340,180L40,180Z"><title>Other Ad-Supported Streaming</title></path><path fill="#f28e2c" d="M40,180L52.340,180L64.679,180L77.019,180L89.393,180L101.733,180L114.072,180L126.412,180L138.786,180L151.125,180L163.465,180L175.805,180L188.178,180L200.518,180L212.858,180L225.198,180L237.571,180L249.911,180L262.251,180L274.590,180L286.964,180L299.304,180L311.643,180L323.983,180L336.357,180L348.696,180L361.036,180L373.376,180L385.749,180L398.089,180L410.429,180L422.769,180L435.142,178L447.482,177L459.822,176L472.161,176L484.535,176L496.875,175L509.214,174L521.554,171L533.928,165L546.267,162L558.607,152L570.947,132L583.321,116L595.660,104L608,94L608,95L595.660,104L583.321,116L570.947,133L558.607,152L546.267,162L533.928,165L521.554,171L509.214,174L496.875,175L484.535,176L472.161,176L459.822,176L447.482,177L435.142,178L422.769,180L410.429,180L398.089,180L385.749,180L373.376,180L361.036,180L348.696,180L336.357,180L323.983,180L311.643,180L299.304,180L286.964,180L274.590,180L262.251,180L249.911,180L237.571,180L225.198,180L212.858,180L200.518,180L188.178,180L175.805,180L163.465,180L151.125,180L138.786,180L126.412,180L114.072,180L101.733,180L89.393,180L77.019,180L64.679,180L52.340,180L40,180Z"><title>Other Digital</title></path><path fill="#59a14f" d="M40,20L52.340,20L64.679,20L77.019,20L89.393,20L101.733,20L114.072,20L126.412,20L138.786,20L151.125,20L163.465,20L175.805,20L188.178,20L200.518,20L212.858,20L225.198,20L237.571,20L249.911,20L262.251,20L274.590,20L286.964,20L299.304,20L311.643,20L323.983,20L336.357,20L348.696,20L361.036,20L373.376,20L385.749,20L398.089,20L410.429,20L422.769,20L435.142,20L447.482,20L459.822,20L472.161,20L484.535,20L496.875,20L509.214,20L521.554,20L533.928,20L546.267,20L558.607,20L570.947,20L583.321,20L595.660,20L608,20L608,20L595.660,20L583.321,20L570.947,20L558.607,20L546.267,20L533.928,20L521.554,20L509.214,20L496.875,20L484.535,20L472.161,20L459.822,20L447.482,20L435.142,20L422.769,20L410.429,20L398.089,20L385.749,20L373.376,20L361.036,20L348.696,20L336.357,20L323.983,20L311.643,20L299.304,20L286.964,20L274.590,20L262.251,20L249.911,20L237.571,20L225.198,20L212.858,20L200.518,20L188.178,20L175.805,20L163.465,20L151.125,20L138.786,20L126.412,20L114.072,20L101.733,20L89.393,20L77.019,20L64.679,21L52.340,21L40,21Z"><title>Other Tapes</title></path><path fill="#76b7b2" d="M40,180L52.340,180L64.679,180L77.019,180L89.393,180L101.733,180L114.072,180L126.412,180L138.786,180L151.125,180L163.465,180L175.805,180L188.178,180L200.518,180L212.858,180L225.198,180L237.571,180L249.911,180L262.251,180L274.590,180L286.964,180L299.304,180L311.643,180L323.983,180L336.357,180L348.696,180L361.036,180L373.376,180L385.749,180L398.089,180L410.429,180L422.769,180L435.142,178L447.482,177L459.822,176L472.161,176L484.535,176L496.875,175L509.214,174L521.554,171L533.928,165L546.267,162L558.607,152L570.947,133L583.321,116L595.660,104L608,95L608,180L595.660,180L583.321,180L570.947,180L558.607,180L546.267,180L533.928,180L521.554,180L509.214,180L496.875,180L484.535,180L472.161,180L459.822,180L447.482,180L435.142,180L422.769,180L410.429,180L398.089,180L385.749,180L373.376,180L361.036,180L348.696,180L336.357,180L323.983,180L311.643,180L299.304,180L286.964,180L274.590,180L262.251,180L249.911,180L237.571,180L225.198,180L212.858,180L200.518,180L188.178,180L175.805,180L163.465,180L151.125,180L138.786,180L126.412,180L114.072,180L101.733,180L89.393,180L77.019,180L64.679,180L52.340,180L40,180Z"><title>Paid Subscription</title></path><path fill="#f28e2c" d="M40,180L52.340,180L64.679,180L77.019,180L89.393,180L101.733,180L114.072,180L126.412,180L138.786,180L151.125,180L163.465,180L175.805,180L188.178,180L200.518,180L212.858,180L225.198,180L237.571,180L249.911,180L262.251,180L274.590,180L286.964,180L299.304,180L311.643,180L323.983,180L336.357,180L348.696,180L361.036,180L373.376,180L385.749,180L398.089,180L410.429,180L422.769,178L435.142,166L447.482,154L459.822,140L472.161,125L484.535,114L496.875,104L509.214,96L521.554,83L533.928,76L546.267,71L558.607,64L570.947,53L583.321,47L595.660,39L608,37L608,37L595.660,39L583.321,48L570.947,54L558.607,66L546.267,72L533.928,78L521.554,87L509.214,102L496.875,114L484.535,128L472.161,143L459.822,156L447.482,165L435.142,171L422.769,178L410.429,180L398.089,180L385.749,180L373.376,180L361.036,180L348.696,180L336.357,180L323.983,180L311.643,180L299.304,180L286.964,180L274.590,180L262.251,180L249.911,180L237.571,180L225.198,180L212.858,180L200.518,180L188.178,180L175.805,180L163.465,180L151.125,180L138.786,180L126.412,180L114.072,180L101.733,180L89.393,180L77.019,180L64.679,180L52.340,180L40,180Z"><title>Ringtones &amp; Ringbacks</title></path><path fill="#4e79a7" d="M40,180L52.340,180L64.679,180L77.019,180L89.393,180L101.733,180L114.072,180L126.412,180L138.786,180L151.125,180L163.465,180L175.805,180L188.178,180L200.518,180L212.858,180L225.198,180L237.571,177L249.911,176L262.251,178L274.590,177L286.964,177L299.304,177L311.643,177L323.983,177L336.357,176L348.696,174L361.036,176L373.376,177L385.749,176L398.089,176L410.429,174L422.769,169L435.142,158L447.482,148L459.822,133L472.161,121L484.535,110L496.875,99L509.214,92L521.554,81L533.928,74L546.267,68L558.607,63L570.947,51L583.321,46L595.660,38L608,36L608,36L595.660,38L583.321,46L570.947,52L558.607,63L546.267,69L533.928,74L521.554,81L509.214,92L496.875,100L484.535,110L472.161,121L459.822,133L447.482,148L435.142,158L422.769,170L410.429,174L398.089,176L385.749,176L373.376,177L361.036,176L348.696,174L336.357,176L323.983,177L311.643,177L299.304,177L286.964,177L274.590,177L262.251,178L249.911,176L237.571,177L225.198,180L212.858,180L200.518,180L188.178,180L175.805,180L163.465,180L151.125,180L138.786,180L126.412,180L114.072,180L101.733,180L89.393,180L77.019,180L64.679,180L52.340,180L40,180Z"><title>SACD</title></path><path fill="#76b7b2" d="M40,180L52.340,180L64.679,180L77.019,180L89.393,180L101.733,180L114.072,180L126.412,180L138.786,180L151.125,180L163.465,180L175.805,180L188.178,180L200.518,180L212.858,180L225.198,180L237.571,180L249.911,180L262.251,180L274.590,180L286.964,180L299.304,180L311.643,180L323.983,180L336.357,180L348.696,180L361.036,180L373.376,180L385.749,180L398.089,180L410.429,180L422.769,180L435.142,178L447.482,177L459.822,176L472.161,174L484.535,168L496.875,165L509.214,161L521.554,152L533.928,143L546.267,132L558.607,120L570.947,93L583.321,77L595.660,59L608,52L608,65L595.660,75L583.321,89L570.947,112L558.607,139L546.267,150L533.928,156L521.554,163L509.214,167L496.875,171L484.535,172L472.161,176L459.822,176L447.482,177L435.142,178L422.769,180L410.429,180L398.089,180L385.749,180L373.376,180L361.036,180L348.696,180L336.357,180L323.983,180L311.643,180L299.304,180L286.964,180L274.590,180L262.251,180L249.911,180L237.571,180L225.198,180L212.858,180L200.518,180L188.178,180L175.805,180L163.465,180L151.125,180L138.786,180L126.412,180L114.072,180L101.733,180L89.393,180L77.019,180L64.679,180L52.340,180L40,180Z"><title>SoundExchange Distributions</title></path><path fill="#e15759" d="M40,180L52.340,180L64.679,180L77.019,180L89.393,180L101.733,180L114.072,180L126.412,180L138.786,180L151.125,180L163.465,180L175.805,180L188.178,180L200.518,180L212.858,180L225.198,180L237.571,180L249.911,180L262.251,180L274.590,180L286.964,180L299.304,180L311.643,180L323.983,180L336.357,180L348.696,180L361.036,180L373.376,180L385.749,180L398.089,180L410.429,180L422.769,180L435.142,178L447.482,177L459.822,176L472.161,176L484.535,172L496.875,171L509.214,167L521.554,163L533.928,156L546.267,150L558.607,139L570.947,112L583.321,89L595.660,75L608,65L608,69L595.660,80L583.321,93L570.947,116L558.607,144L546.267,155L533.928,160L521.554,167L509.214,172L496.875,175L484.535,176L472.161,176L459.822,176L447.482,177L435.142,178L422.769,180L410.429,180L398.089,180L385.749,180L373.376,180L361.036,180L348.696,180L336.357,180L323.983,180L311.643,180L299.304,180L286.964,180L274.590,180L262.251,180L249.911,180L237.571,180L225.198,180L212.858,180L200.518,180L188.178,180L175.805,180L163.465,180L151.125,180L138.786,180L126.412,180L114.072,180L101.733,180L89.393,180L77.019,180L64.679,180L52.340,180L40,180Z"><title>Synchronization</title></path><path fill="#edc949" d="M40,159L52.340,160L64.679,159L77.019,157L89.393,157L101.733,152L114.072,139L126.412,139L138.786,127L151.125,106L163.465,91L175.805,77L188.178,67L200.518,54L212.858,43L225.198,34L237.571,25L249.911,22L262.251,21L274.590,20L286.964,20L299.304,20L311.643,20L323.983,20L336.357,20L348.696,20L361.036,20L373.376,20L385.749,20L398.089,20L410.429,20L422.769,20L435.142,20L447.482,20L459.822,20L472.161,21L484.535,21L496.875,22L509.214,23L521.554,24L533.928,25L546.267,26L558.607,28L570.947,28L583.321,27L595.660,27L608,27L608,27L595.660,27L583.321,27L570.947,28L558.607,28L546.267,26L533.928,25L521.554,24L509.214,23L496.875,22L484.535,21L472.161,21L459.822,20L447.482,20L435.142,20L422.769,21L410.429,21L398.089,21L385.749,21L373.376,21L361.036,21L348.696,21L336.357,21L323.983,21L311.643,21L299.304,21L286.964,21L274.590,21L262.251,22L249.911,24L237.571,28L225.198,38L212.858,49L200.518,62L188.178,77L175.805,88L163.465,103L151.125,119L138.786,137L126.412,149L114.072,155L101.733,163L89.393,169L77.019,171L64.679,173L52.340,174L40,174Z"><title>Vinyl Single</title></path></g></svg>