<svg xmlns="http://www.w3.org/2000/svg" width="810" height="240.0" viewBox="0 0 810 240.0"><rect x="5" y="0" width="800" height="240.0" fill="#d4d4d1"/><g class="xlines"><line x1="25.0" y1="240.0" x2="25.0" y2="0.0" stroke="#f8f8f8"/><line x1="45.0" y1="240.0" x2="45.0" y2="0.0" stroke="#f8f8f8"/><line x1="65.0" y1="240.0" x2="65.0" y2="0.0" stroke="#f8f8f8"/><line x1="85.0" y1="240.0" x2="85.0" y2="0.0" stroke="#f8f8f8"/><line x1="105.0" y1="240.0" x2="105.0" y2="0.0" stroke="#f8f8f8"/><line x1="125.0" y1="240.0" x2="125.0" y2="0.0" stroke="#f8f8f8"/><line x1="145.0" y1="240.0" x2="145.0" y2="0.0" stroke="#f8f8f8"/><line x1="165.0" y1="240.0" x2="165.0" y2="0.0" stroke="#f8f8f8"/><line x1="185.0" y1="240.0" x2="185.0" y2="0.0" stroke="#f8f8f8"/><line x1="205.0" y1="240.0" x2="205.0" y2="0.0" stroke="#f8f8f8"/><line x1="225.00000000000003" y1="240.0" x2="225.00000000000003" y2="0.0" stroke="#f8f8f8"/><line x1="245.0" y1="240.0" x2="245.0" y2="0.0" stroke="#f8f8f8"/><line x1="265.0" y1="240.0" x2="265.0" y2="0.0" stroke="#f8f8f8"/><line x1="285.0" y1="240.0" x2="285.0" y2="0.0" stroke="#f8f8f8"/><line x1="305.0" y1="240.0" x2="305.0" y2="0.0" stroke="#f8f8f8"/><line x1="325.0" y1="240.0" x2="325.0" y2="0.0" stroke="#f8f8f8"/><line x1="345.0" y1="240.0" x2="345.0" y2="0.0" stroke="#f8f8f8"/><line x1="365.0" y1="240.0" x2="365.0" y2="0.0" stroke="#f8f8f8"/><line x1="385.0" y1="240.0" x2="385.0" y2="0.0" stroke="#f8f8f8"/><line x1="405.0" y1="240.0" x2="405.0" y2="0.0" stroke="#f8f8f8"/><line x1="425.0" y1="240.0" x2="425.0" y2="0.0" stroke="#f8f8f8"/><line x1="445.00000000000006" y1="240.0" x2="445.00000000000006" y2="0.0" stroke="#f8f8f8"/><line x1="464.99999999999994" y1="240.0" x2="464.99999999999994" y2="0.0" stroke="#f8f8f8"/><line x1="485.0" y1="240.0" x2="485.0" y2="0.0" stroke="#f8f8f8"/><line x1="505.0" y1="240.0" x2="505.0" y2="0.0" stroke="#f8f8f8"/><line x1="525.0" y1="240.0" x2="525.0" y2="0.0" stroke="#f8f8f8"/><line x1="545.0" y1="240.0" x2="545.0" y2="0.0" stroke="#f8f8f8"/><line x1="565.0" y1="240.0" x2="565.0" y2="0.0" stroke="#f8f8f8"/><line x1="585.0" y1="240.0" x2="585.0" y2="0.0" stroke="#f8f8f8"/><line x1="605.0" y1="240.0" x2="605.0" y2="0.0" stroke="#f8f8f8"/><line x1="625.0" y1="240.0" x2="625.0" y2="0.0" stroke="#f8f8f8"/><line x1="645.0" y1="240.0" x2="645.0" y2="0.0" stroke="#f8f8f8"/><line x1="665.0" y1="240.0" x2="665.0" y2="0.0" stroke="#f8f8f8"/><line x1="685.0" y1="240.0" x2="685.0" y2="0.0" stroke="#f8f8f8"/><line x1="705.0" y1="240.0" x2="705.0" y2="0.0" stroke="#f8f8f8"/><line x1="725.0" y1="240.0" x2="725.0" y2="0.0" stroke="#f8f8f8"/><line x1="745.0" y1="240.0" x2="745.0" y2="0.0" stroke="#f8f8f8"/><line x1="765.0" y1="240.0" x2="765.0" y2="0.0" stroke="#f8f8f8"/><line x1="785.0" y1="240.0" x2="785.0" y2="0.0" stroke="#f8f8f8"/></g><g class="ylines"><line x1="5.0" y1="220.0" x2="805.0" y2="220.0" stroke="#f8f8f8"/><line x1="5.0" y1="200.0" x2="805.0" y2="200.0" stroke="#f8f8f8"/><line x1="5.0" y1="180.0" x2="805.0" y2="180.0" stroke="#f8f8f8"/><line x1="5.0" y1="160.00000000000003" x2="805.0" y2="160.00000000000003" stroke="#f8f8f8"/><line x1="5.0" y1="139.99999999999997" x2="805.0" y2="139.99999999999997" stroke="#f8f8f8"/><line x1="5.0" y1="120.0" x2="805.0" y2="120.0" stroke="#f8f8f8"/><line x1="5.0" y1="99.99999999999999" x2="805.0" y2="99.99999999999999" stroke="#f8f8f8"/><line x1="5.0" y1="80.00000000000001" x2="805.0" y2="80.00000000000001" stroke="#f8f8f8"/><line x1="5.0" y1="60.0" x2="805.0" y2="60.0" stroke="#f8f8f8"/><line x1="5.0" y1="39.99999999999999" x2="805.0" y2="39.99999999999999" stroke="#f8f8f8"/><line x1="5.0" y1="20.000000000000007" x2="805.0" y2="20.000000000000007" stroke="#f8f8f8"/></g><g class="ease"><path d="M5,240L8.200,218.555L11.400,209.703L14.600,202.931L17.800,197.240L21,192.241L24.200,187.735L27.400,183.605L30.600,179.772L33.800,176.183L37,172.800L40.200,169.592L43.400,166.536L46.600,163.615L49.800,160.813L53,158.118L56.200,155.520L59.400,153.010L62.600,150.581L65.800,148.226L69,145.940L72.200,143.717L75.400,141.554L78.600,139.447L81.800,137.392L85,135.386L88.200,133.427L91.400,131.512L94.600,129.638L97.800,127.803L101,126.006L104.200,124.245L107.400,122.519L110.600,120.825L113.800,119.162L117,117.529L120.200,115.926L123.400,114.350L126.600,112.801L129.800,111.278L133,109.779L136.200,108.305L139.400,106.854L142.600,105.425L145.800,104.018L149,102.633L152.200,101.268L155.400,99.922L158.600,98.596L161.800,97.289L165,96L168.200,94.729L171.400,93.475L174.600,92.238L177.800,91.017L181,89.813L184.200,88.624L187.400,87.451L190.600,86.292L193.800,85.148L197,84.018L200.200,82.903L203.400,81.801L206.600,80.712L209.800,79.637L213,78.574L216.200,77.524L219.400,76.487L222.600,75.461L225.800,74.448L229,73.446L232.200,72.456L235.400,71.477L238.600,70.509L241.800,69.552L245,68.606L248.200,67.670L251.400,66.745L254.600,65.829L257.800,64.924L261,64.029L264.200,63.144L267.400,62.268L270.600,61.401L273.800,60.544L277,59.696L280.200,58.857L283.400,58.027L286.600,57.206L289.800,56.394L293,55.590L296.200,54.795L299.400,54.008L302.600,53.229L305.800,52.458L309,51.696L312.200,50.941L315.400,50.194L318.600,49.455L321.800,48.724L325,48L328.200,47.284L331.400,46.575L334.600,45.873L337.800,45.179L341,44.492L344.200,43.812L347.400,43.139L350.600,42.473L353.800,41.814L357,41.162L360.200,40.516L363.400,39.877L366.600,39.245L369.800,38.620L373,38L376.200,37.388L379.400,36.781L382.600,36.181L385.800,35.588L389,35L392.200,34.419L395.400,33.843L398.600,33.274L401.800,32.711L405,32.154L408.200,31.603L411.400,31.057L414.600,30.518L417.800,29.984L421,29.456L424.200,28.933L427.400,28.416L430.600,27.905L433.800,27.400L437,26.899L440.200,26.405L443.400,25.916L446.600,25.432L449.800,24.954L453,24.481L456.200,24.013L459.400,23.550L462.600,23.093L465.800,22.641L469,22.194L472.200,21.752L475.400,21.316L478.600,20.884L481.800,20.458L485,20.036L488.200,19.620L491.400,19.208L494.600,18.802L497.800,18.400L501,18.003L504.200,17.611L507.400,17.224L510.600,16.842L513.800,16.464L517,16.091L520.200,15.723L523.400,15.360L526.600,15.001L529.800,14.647L533,14.298L536.200,13.953L539.400,13.613L542.600,13.277L545.800,12.946L549,12.620L552.200,12.298L555.400,11.980L558.600,11.667L561.800,11.359L565,11.055L568.200,10.755L571.400,10.460L574.600,10.169L577.800,9.882L581,9.600L584.200,9.322L587.400,9.049L590.600,8.779L593.800,8.515L597,8.254L600.200,7.998L603.400,7.745L606.600,7.498L609.800,7.254L613,7.015L616.200,6.779L619.400,6.548L622.600,6.321L625.800,6.099L629,5.880L632.200,5.666L635.400,5.455L638.600,5.249L641.800,5.047L645,4.849L648.200,4.655L651.400,4.465L654.600,4.279L657.800,4.098L661,3.920L664.200,3.746L667.400,3.577L670.600,3.411L673.800,3.250L677,3.092L680.200,2.938L683.400,2.789L686.600,2.643L689.800,2.501L693,2.364L696.200,2.230L699.400,2.100L702.600,1.974L705.800,1.852L709,1.734L712.200,1.620L715.400,1.510L718.600,1.404L721.800,1.301L725,1.203L728.200,1.108L731.400,1.018L734.600,0.931L737.800,0.848L741,0.769L744.200,0.694L747.400,0.623L750.600,0.556L753.800,0.492L757,0.432L760.200,0.377L763.400,0.325L766.600,0.277L769.800,0.232L773,0.192L776.200,0.156L779.400,0.123L782.600,0.094L785.800,0.069L789,0.048L792.200,0.031L795.400,0.017L798.600,0.008L801.800,0.002L805,0" stroke="black" fill="none"/></g></svg>