<svg xmlns="http://www.w3.org/2000/svg" width="928" height="600" viewBox="0 0 928 600"><g transform="translate(0, 570)" fill="none" font-size="10" font-family="sans-serif" text-anchor="middle"><g class="tick" opacity="1" transform="translate(40.5, 0)"><line stroke="currentColor" y2="6"/><text fill="currentColor" y="9" dy="0.71em">0</text></g><g class="tick" opacity="1" transform="translate(126.30000000000001, 0)"><line stroke="currentColor" y2="6"/><text fill="currentColor" y="9" dy="0.71em">5</text></g><g class="tick" opacity="1" transform="translate(212.10000000000002, 0)"><line stroke="currentColor" y2="6"/><text fill="currentColor" y="9" dy="0.71em">10</text></g><g class="tick" opacity="1" transform="translate(297.9, 0)"><line stroke="currentColor" y2="6"/><text fill="currentColor" y="9" dy="0.71em">15</text></g><g class="tick" opacity="1" transform="translate(383.70000000000005, 0)"><line stroke="currentColor" y2="6"/><text fill="currentColor" y="9" dy="0.71em">20</text></g><g class="tick" opacity="1" transform="translate(469.5, 0)"><line stroke="currentColor" y2="6"/><text fill="currentColor" y="9" dy="0.71em">25</text></g><g class="tick" opacity="1" transform="translate(555.3, 0)"><line stroke="currentColor" y2="6"/><text fill="currentColor" y="9" dy="0.71em">30</text></g><g class="tick" opacity="1" transform="translate(641.0999999999999, 0)"><line stroke="currentColor" y2="6"/><text fill="currentColor" y="9" dy="0.71em">35</text></g><g class="tick" opacity="1" transform="translate(726.9000000000001, 0)"><line stroke="currentColor" y2="6"/><text fill="currentColor" y="9" dy="0.71em">40</text></g><g class="tick" opacity="1" transform="translate(812.7, 0)"><line stroke="currentColor" y2="6"/><text fill="currentColor" y="9" dy="0.71em">45</text></g><g class="tick" opacity="1" transform="translate(898.5, 0)"><line stroke="currentColor" y2="6"/><text fill="currentColor" y="9" dy="0.71em">50</text></g><text x="898" y="-4" fill="#000" font-weight="bold" text-anchor="end">Miles per Gallon</text></g><g transform="translate(40, 0)" fill="none" font-size="10" font-family="sans-serif" text-anchor="end"><g class="tick" opacity="1" transform="translate(0, 570.5)"><line stroke="currentColor" x2="-6"/><text fill="currentColor" x="-9" dy="0.32em">0</text></g><g class="tick" opacity="1" transform="translate(0, 524.6666666666666)"><line stroke="currentColor" x2="-6"/><text fill="currentColor" x="-9" dy="0.32em">20</text></g><g class="tick" opacity="1" transform="translate(0, 478.8333333333333)"><line stroke="currentColor" x2="-6"/><text fill="currentColor" x="-9" dy="0.32em">40</text></g><g class="tick" opacity="1" transform="translate(0, 433.0)"><line stroke="currentColor" x2="-6"/><text fill="currentColor" x="-9" dy="0.32em">60</text></g><g class="tick" opacity="1" transform="translate(0, 387.16666666666674)"><line stroke="currentColor" x2="-6"/><text fill="currentColor" x="-9" dy="0.32em">80</text></g><g class="tick" opacity="1" transform="translate(0, 341.33333333333326)"><line stroke="currentColor" x2="-6"/><text fill="currentColor" x="-9" dy="0.32em">100</text></g><g class="tick" opacity="1" transform="translate(0, 295.5)"><line stroke="currentColor" x2="-6"/><text fill="currentColor" x="-9" dy="0.32em">120</text></g><g class="tick" opacity="1" transform="translate(0, 249.66666666666663)"><line stroke="currentColor" x2="-6"/><text fill="currentColor" x="-9" dy="0.32em">140</text></g><g class="tick" opacity="1" transform="translate(0, 203.83333333333337)"><line stroke="currentColor" x2="-6"/><text fill="currentColor" x="-9" dy="0.32em">160</text></g><g class="tick" opacity="1" transform="translate(0, 158.0)"><line stroke="currentColor" x2="-6"/><text fill="currentColor" x="-9" dy="0.32em">180</text></g><g class="tick" opacity="1" transform="translate(0, 112.16666666666666)"><line stroke="currentColor" x2="-6"/><text fill="currentColor" x="-9" dy="0.32em">200</text></g><g class="tick" opacity="1" transform="translate(0, 66.33333333333336)"><line stroke="currentColor" x2="-6"/><text fill="currentColor" x="-9" dy="0.32em">220</text></g><g class="tick" opacity="1" transform="translate(0, 20.5)"><text fill="currentColor" x="4" dy="0.32em" text-anchor="start" font-weight="bold">Horsepower</text><line stroke="currentColor" x2="-6"/><text fill="currentColor" x="-9" dy="0.32em">240</text></g></g><g fill="none" stroke="steelblue" stroke-width="1.5"><circle transform="translate(348.88, 272.0833333333333)" r="3"/><circle transform="translate(297.4, 191.875)" r="3"/><circle transform="translate(348.88, 226.25)" r="3"/><circle transform="translate(314.56, 226.25)" r="3"/><circle transform="translate(331.72, 249.16666666666663)" r="3"/><circle transform="translate(297.4, 116.25000000000003)" r="3"/><circle transform="translate(280.24, 65.83333333333336)" r="3"/><circle transform="translate(280.24, 77.29166666666664)" r="3"/><circle transform="translate(280.24, 54.375)" r="3"/><circle transform="translate(297.4, 134.58333333333334)" r="3"/><circle transform="translate(40, 306.45833333333326)" r="3"/><circle transform="translate(40, 191.875)" r="3"/><circle transform="translate(40, 219.37500000000003)" r="3"/><circle transform="translate(40, 168.95833333333337)" r="3"/><circle transform="translate(40, 168.95833333333337)" r="3"/><circle transform="translate(297.4, 180.41666666666663)" r="3"/><circle transform="translate(280.24, 203.33333333333337)" r="3"/><circle transform="translate(40, 249.16666666666663)" r="3"/><circle transform="translate(297.4, 226.25)" r="3"/><circle transform="translate(280.24, 54.375)" r="3"/><circle transform="translate(451.84, 352.29166666666674)" r="3"/><circle transform="translate(417.52, 352.29166666666674)" r="3"/><circle transform="translate(348.88, 347.7083333333333)" r="3"/><circle transform="translate(400.35999999999996, 375.20833333333326)" r="3"/><circle transform="translate(503.32, 368.3333333333333)" r="3"/><circle transform="translate(486.16, 464.5833333333333)" r="3"/><circle transform="translate(469.0, 370.625)" r="3"/><circle transform="translate(451.84, 363.75)" r="3"/><circle transform="translate(469.0, 352.29166666666674)" r="3"/><circle transform="translate(486.16, 311.0416666666667)" r="3"/><circle transform="translate(400.35999999999996, 363.75)" r="3"/><circle transform="translate(211.60000000000002, 77.29166666666664)" r="3"/><circle transform="translate(211.60000000000002, 111.66666666666666)" r="3"/><circle transform="translate(228.76, 88.75)" r="3"/><circle transform="translate(194.44, 127.70833333333331)" r="3"/><circle transform="translate(503.32, 368.3333333333333)" r="3"/><circle transform="translate(520.48, 363.75)" r="3"/><circle transform="translate(469.0, 352.29166666666674)" r="3"/><circle transform="translate(469.0, 570)" r="3"/><circle transform="translate(40, 460.0)" r="3"/><circle transform="translate(366.04, 340.83333333333326)" r="3"/><circle transform="translate(314.56, 329.375)" r="3"/><circle transform="translate(331.72, 340.83333333333326)" r="3"/><circle transform="translate(366.04, 368.3333333333333)" r="3"/><circle transform="translate(348.88, 340.83333333333326)" r="3"/><circle transform="translate(280.24, 191.875)" r="3"/><circle transform="translate(280.24, 168.95833333333337)" r="3"/><circle transform="translate(280.24, 219.37500000000003)" r="3"/><circle transform="translate(280.24, 226.25)" r="3"/><circle transform="translate(245.92, 157.5)" r="3"/><circle transform="translate(263.08000000000004, 180.41666666666663)" r="3"/><circle transform="translate(263.08000000000004, 168.95833333333337)" r="3"/><circle transform="translate(348.88, 317.91666666666674)" r="3"/><circle transform="translate(417.52, 405.0)" r="3"/><circle transform="translate(366.04, 340.83333333333326)" r="3"/><circle transform="translate(348.88, 368.3333333333333)" r="3"/><circle transform="translate(434.68000000000006, 372.91666666666663)" r="3"/><circle transform="translate(520.48, 363.75)" r="3"/><circle transform="translate(554.8, 409.58333333333326)" r="3"/><circle transform="translate(554.8, 395.8333333333333)" r="3"/><circle transform="translate(571.96, 421.04166666666674)" r="3"/><circle transform="translate(640.5999999999999, 411.875)" r="3"/><circle transform="translate(503.32, 432.5)" r="3"/><circle transform="translate(486.16, 409.58333333333326)" r="3"/><circle transform="translate(451.84, 352.29166666666674)" r="3"/><circle transform="translate(469.0, 386.66666666666674)" r="3"/><circle transform="translate(434.68000000000006, 446.25)" r="3"/><circle transform="translate(383.20000000000005, 363.75)" r="3"/><circle transform="translate(400.35999999999996, 372.91666666666663)" r="3"/><circle transform="translate(263.08000000000004, 191.875)" r="3"/><circle transform="translate(280.24, 168.95833333333337)" r="3"/><circle transform="translate(297.4, 226.25)" r="3"/><circle transform="translate(280.24, 219.37500000000003)" r="3"/><circle transform="translate(331.72, 226.25)" r="3"/><circle transform="translate(228.76, 93.33333333333331)" r="3"/><circle transform="translate(263.08000000000004, 214.79166666666663)" r="3"/><circle transform="translate(245.92, 203.33333333333337)" r="3"/><circle transform="translate(263.08000000000004, 134.58333333333334)" r="3"/><circle transform="translate(366.04, 347.7083333333333)" r="3"/><circle transform="translate(297.4, 226.25)" r="3"/><circle transform="translate(263.08000000000004, 272.0833333333333)" r="3"/><circle transform="translate(263.08000000000004, 249.16666666666663)" r="3"/><circle transform="translate(280.24, 226.25)" r="3"/><circle transform="translate(348.88, 313.3333333333333)" r="3"/><circle transform="translate(417.52, 395.8333333333333)" r="3"/><circle transform="translate(400.35999999999996, 370.625)" r="3"/><circle transform="translate(486.16, 411.875)" r="3"/><circle transform="translate(417.52, 372.91666666666663)" r="3"/><circle transform="translate(520.48, 359.1666666666667)" r="3"/><circle transform="translate(434.68000000000006, 347.7083333333333)" r="3"/><circle transform="translate(520.48, 386.66666666666674)" r="3"/><circle transform="translate(503.32, 368.3333333333333)" r="3"/><circle transform="translate(263.08000000000004, 168.95833333333337)" r="3"/><circle transform="translate(280.24, 226.25)" r="3"/><circle transform="translate(263.08000000000004, 237.70833333333337)" r="3"/><circle transform="translate(280.24, 256.0416666666667)" r="3"/><circle transform="translate(297.4, 226.25)" r="3"/><circle transform="translate(245.92, 116.25000000000003)" r="3"/><circle transform="translate(263.08000000000004, 226.25)" r="3"/><circle transform="translate(263.08000000000004, 207.91666666666666)" r="3"/><circle transform="translate(280.24, 226.25)" r="3"/><circle transform="translate(263.08000000000004, 77.29166666666664)" r="3"/><circle transform="translate(245.92, 54.375)" r="3"/><circle transform="translate(263.08000000000004, 168.95833333333337)" r="3"/><circle transform="translate(348.88, 329.375)" r="3"/><circle transform="translate(314.56, 340.83333333333326)" r="3"/><circle transform="translate(348.88, 340.83333333333326)" r="3"/><circle transform="translate(348.88, 368.3333333333333)" r="3"/><circle transform="translate(434.68000000000006, 352.29166666666674)" r="3"/><circle transform="translate(486.16, 464.5833333333333)" r="3"/><circle transform="translate(228.76, 226.25)" r="3"/><circle transform="translate(245.92, 187.29166666666669)" r="3"/><circle transform="translate(263.08000000000004, 180.41666666666663)" r="3"/><circle transform="translate(245.92, 157.5)" r="3"/><circle transform="translate(348.88, 340.83333333333326)" r="3"/><circle transform="translate(383.20000000000005, 368.3333333333333)" r="3"/><circle transform="translate(400.35999999999996, 405.0)" r="3"/><circle transform="translate(417.52, 354.58333333333337)" r="3"/><circle transform="translate(348.88, 363.75)" r="3"/><circle transform="translate(366.04, 375.20833333333326)" r="3"/><circle transform="translate(400.35999999999996, 324.7916666666667)" r="3"/><circle transform="translate(486.16, 363.75)" r="3"/><circle transform="translate(297.4, 237.70833333333337)" r="3"/><circle transform="translate(314.56, 42.91666666666664)" r="3"/><circle transform="translate(537.6399999999999, 457.70833333333337)" r="3"/><circle transform="translate(451.84, 398.125)" r="3"/><circle transform="translate(383.20000000000005, 361.4583333333333)" r="3"/><circle transform="translate(366.04, 313.3333333333333)" r="3"/><circle transform="translate(297.4, 226.25)" r="3"/><circle transform="translate(451.84, 317.91666666666674)" r="3"/><circle transform="translate(383.20000000000005, 290.4166666666667)" r="3"/><circle transform="translate(228.76, 157.5)" r="3"/><circle transform="translate(383.20000000000005, 352.29166666666674)" r="3"/><circle transform="translate(400.35999999999996, 570)" r="3"/><circle transform="translate(366.04, 340.83333333333326)" r="3"/><circle transform="translate(297.4, 340.83333333333326)" r="3"/><circle transform="translate(571.96, 416.4583333333333)" r="3"/><circle transform="translate(486.16, 386.66666666666674)" r="3"/><circle transform="translate(589.12, 421.04166666666674)" r="3"/><circle transform="translate(469.0, 398.125)" r="3"/><circle transform="translate(314.56, 340.83333333333326)" r="3"/><circle transform="translate(314.56, 317.91666666666674)" r="3"/><circle transform="translate(348.88, 329.375)" r="3"/><circle transform="translate(314.56, 249.16666666666663)" r="3"/><circle transform="translate(263.08000000000004, 226.25)" r="3"/><circle transform="translate(280.24, 226.25)" r="3"/><circle transform="translate(280.24, 249.16666666666663)" r="3"/><circle transform="translate(280.24, 226.25)" r="3"/><circle transform="translate(537.6399999999999, 379.7916666666667)" r="3"/><circle transform="translate(486.16, 416.4583333333333)" r="3"/><circle transform="translate(486.16, 391.25)" r="3"/><circle transform="translate(571.96, 450.8333333333333)" r="3"/><circle transform="translate(589.12, 430.2083333333333)" r="3"/><circle transform="translate(520.48, 398.125)" r="3"/><circle transform="translate(451.84, 398.125)" r="3"/><circle transform="translate(486.16, 398.125)" r="3"/><circle transform="translate(451.84, 347.7083333333333)" r="3"/><circle transform="translate(486.16, 356.875)" r="3"/><circle transform="translate(571.96, 416.4583333333333)" r="3"/><circle transform="translate(366.04, 352.29166666666674)" r="3"/><circle transform="translate(348.88, 329.375)" r="3"/><circle transform="translate(297.4, 405.0)" r="3"/><circle transform="translate(297.4, 405.0)" r="3"/><circle transform="translate(314.56, 180.41666666666663)" r="3"/><circle transform="translate(297.4, 237.70833333333337)" r="3"/><circle transform="translate(314.56, 226.25)" r="3"/><circle transform="translate(280.24, 230.83333333333331)" r="3"/><circle transform="translate(331.72, 317.91666666666674)" r="3"/><circle transform="translate(314.56, 329.375)" r="3"/><circle transform="translate(297.4, 317.91666666666674)" r="3"/><circle transform="translate(348.88, 352.29166666666674)" r="3"/><circle transform="translate(400.35999999999996, 317.91666666666674)" r="3"/><circle transform="translate(383.20000000000005, 317.91666666666674)" r="3"/><circle transform="translate(263.08000000000004, 274.375)" r="3"/><circle transform="translate(537.6399999999999, 398.125)" r="3"/><circle transform="translate(434.68000000000006, 379.7916666666667)" r="3"/><circle transform="translate(383.20000000000005, 340.83333333333326)" r="3"/><circle transform="translate(434.68000000000006, 391.25)" r="3"/><circle transform="translate(451.84, 350.0)" r="3"/><circle transform="translate(469.0, 407.29166666666663)" r="3"/><circle transform="translate(451.84, 347.7083333333333)" r="3"/><circle transform="translate(348.88, 347.7083333333333)" r="3"/><circle transform="translate(537.6399999999999, 409.58333333333326)" r="3"/><circle transform="translate(366.04, 363.75)" r="3"/><circle transform="translate(434.68000000000006, 352.29166666666674)" r="3"/><circle transform="translate(434.68000000000006, 368.3333333333333)" r="3"/><circle transform="translate(417.52, 345.4166666666667)" r="3"/><circle transform="translate(469.0, 306.45833333333326)" r="3"/><circle transform="translate(606.2800000000001, 448.5416666666667)" r="3"/><circle transform="translate(520.48, 372.91666666666663)" r="3"/><circle transform="translate(469.0, 384.375)" r="3"/><circle transform="translate(469.0, 359.1666666666667)" r="3"/><circle transform="translate(486.16, 388.95833333333337)" r="3"/><circle transform="translate(503.32, 379.7916666666667)" r="3"/><circle transform="translate(340.29999999999995, 249.16666666666663)" r="3"/><circle transform="translate(314.56, 226.25)" r="3"/><circle transform="translate(305.98, 295.0)" r="3"/><circle transform="translate(288.81999999999994, 221.66666666666669)" r="3"/><circle transform="translate(417.52, 340.83333333333326)" r="3"/><circle transform="translate(417.52, 329.375)" r="3"/><circle transform="translate(451.84, 384.375)" r="3"/><circle transform="translate(426.1, 363.75)" r="3"/><circle transform="translate(537.6399999999999, 450.8333333333333)" r="3"/><circle transform="translate(460.41999999999996, 432.5)" r="3"/><circle transform="translate(537.6399999999999, 409.58333333333326)" r="3"/><circle transform="translate(606.2800000000001, 448.5416666666667)" r="3"/><circle transform="translate(383.20000000000005, 340.83333333333326)" r="3"/><circle transform="translate(348.88, 391.25)" r="3"/><circle transform="translate(357.46, 317.91666666666674)" r="3"/><circle transform="translate(340.29999999999995, 352.29166666666674)" r="3"/><circle transform="translate(546.2199999999999, 407.29166666666663)" r="3"/><circle transform="translate(589.12, 409.58333333333326)" r="3"/><circle transform="translate(520.48, 398.125)" r="3"/><circle transform="translate(494.74, 405.0)" r="3"/><circle transform="translate(383.20000000000005, 336.25)" r="3"/><circle transform="translate(263.08000000000004, 226.25)" r="3"/><circle transform="translate(366.04, 368.3333333333333)" r="3"/><circle transform="translate(366.04, 322.5)" r="3"/><circle transform="translate(323.14000000000004, 295.0)" r="3"/><circle transform="translate(323.14000000000004, 157.5)" r="3"/><circle transform="translate(263.08000000000004, 237.70833333333337)" r="3"/><circle transform="translate(263.08000000000004, 272.0833333333333)" r="3"/><circle transform="translate(263.08000000000004, 226.25)" r="3"/><circle transform="translate(580.54, 414.1666666666667)" r="3"/><circle transform="translate(554.8, 386.66666666666674)" r="3"/><circle transform="translate(657.76, 437.0833333333333)" r="3"/><circle transform="translate(477.58000000000004, 350.0)" r="3"/><circle transform="translate(614.8600000000001, 409.58333333333326)" r="3"/><circle transform="translate(340.29999999999995, 237.70833333333337)" r="3"/><circle transform="translate(331.72, 317.91666666666674)" r="3"/><circle transform="translate(305.98, 237.70833333333337)" r="3"/><circle transform="translate(297.4, 272.0833333333333)" r="3"/><circle transform="translate(340.29999999999995, 317.91666666666674)" r="3"/><circle transform="translate(391.78, 329.375)" r="3"/><circle transform="translate(366.04, 340.83333333333326)" r="3"/><circle transform="translate(357.46, 345.4166666666667)" r="3"/><circle transform="translate(314.56, 157.5)" r="3"/><circle transform="translate(305.98, 180.41666666666663)" r="3"/><circle transform="translate(305.98, 134.58333333333334)" r="3"/><circle transform="translate(314.56, 228.54166666666666)" r="3"/><circle transform="translate(537.6399999999999, 391.25)" r="3"/><circle transform="translate(460.41999999999996, 368.3333333333333)" r="3"/><circle transform="translate(486.16, 398.125)" r="3"/><circle transform="translate(477.58000000000004, 366.0416666666667)" r="3"/><circle transform="translate(563.38, 425.625)" r="3"/><circle transform="translate(614.8600000000001, 379.7916666666667)" r="3"/><circle transform="translate(554.8, 416.4583333333333)" r="3"/><circle transform="translate(563.38, 391.25)" r="3"/><circle transform="translate(417.52, 347.7083333333333)" r="3"/><circle transform="translate(408.94, 317.91666666666674)" r="3"/><circle transform="translate(408.94, 317.91666666666674)" r="3"/><circle transform="translate(779.5959738159179, 460.0)" r="3"/><circle transform="translate(659.4759738159179, 418.75)" r="3"/><circle transform="translate(602.8479869079589, 450.8333333333333)" r="3"/><circle transform="translate(716.1040261840822, 409.58333333333326)" r="3"/><circle transform="translate(659.4759738159179, 432.5)" r="3"/><circle transform="translate(381.48399345397945, 317.91666666666674)" r="3"/><circle transform="translate(372.90399345397947, 249.16666666666663)" r="3"/><circle transform="translate(386.632013092041, 251.45833333333331)" r="3"/><circle transform="translate(369.47201309204104, 329.375)" r="3"/><circle transform="translate(391.78, 352.29166666666674)" r="3"/><circle transform="translate(386.632013092041, 375.20833333333326)" r="3"/><circle transform="translate(470.71600654602054, 368.3333333333333)" r="3"/><circle transform="translate(391.78, 340.83333333333326)" r="3"/><circle transform="translate(372.90399345397947, 363.75)" r="3"/><circle transform="translate(393.4960065460205, 329.375)" r="3"/><circle transform="translate(396.92798690795894, 375.20833333333326)" r="3"/><circle transform="translate(359.1760065460205, 317.91666666666674)" r="3"/><circle transform="translate(350.59600654602053, 295.0)" r="3"/><circle transform="translate(369.47201309204104, 237.70833333333337)" r="3"/><circle transform="translate(343.732013092041, 191.875)" r="3"/><circle transform="translate(350.59600654602053, 251.45833333333331)" r="3"/><circle transform="translate(340.29999999999995, 249.16666666666663)" r="3"/><circle transform="translate(554.8, 414.1666666666667)" r="3"/><circle transform="translate(511.90000000000003, 352.29166666666674)" r="3"/><circle transform="translate(506.752013092041, 347.7083333333333)" r="3"/><circle transform="translate(570.2439934539794, 398.125)" r="3"/><circle transform="translate(402.07600654602055, 352.29166666666674)" r="3"/><circle transform="translate(438.112013092041, 329.375)" r="3"/><circle transform="translate(448.40798690795896, 375.20833333333326)" r="3"/><circle transform="translate(450.1239934539795, 347.7083333333333)" r="3"/><circle transform="translate(388.347986907959, 333.9583333333333)" r="3"/><circle transform="translate(331.72, 283.5416666666667)" r="3"/><circle transform="translate(410.65600654602054, 306.45833333333326)" r="3"/><circle transform="translate(317.992013092041, 265.2083333333333)" r="3"/><circle transform="translate(580.54, 407.29166666666663)" r="3"/><circle transform="translate(546.2199999999999, 414.1666666666667)" r="3"/><circle transform="translate(408.94, 306.45833333333326)" r="3"/><circle transform="translate(379.767986907959, 375.20833333333326)" r="3"/><circle transform="translate(422.667986907959, 368.3333333333333)" r="3"/><circle transform="translate(386.632013092041, 363.75)" r="3"/><circle transform="translate(393.4960065460205, 317.91666666666674)" r="3"/><circle transform="translate(331.72, 272.0833333333333)" r="3"/><circle transform="translate(342.01600654602055, 274.375)" r="3"/><circle transform="translate(323.14000000000004, 253.75000000000003)" r="3"/><circle transform="translate(352.312013092041, 260.625)" r="3"/><circle transform="translate(330.0039934539795, 214.79166666666663)" r="3"/><circle transform="translate(305.98, 244.58333333333334)" r="3"/><circle transform="translate(369.47201309204104, 283.5416666666667)" r="3"/><circle transform="translate(357.46, 226.25)" r="3"/><circle transform="translate(587.4039934539794, 407.29166666666663)" r="3"/><circle transform="translate(625.1559738159181, 421.04166666666674)" r="3"/><circle transform="translate(652.612013092041, 386.66666666666674)" r="3"/><circle transform="translate(510.1839934539795, 386.66666666666674)" r="3"/><circle transform="translate(475.86399345397945, 393.5416666666667)" r="3"/><circle transform="translate(434.68000000000006, 283.5416666666667)" r="3"/><circle transform="translate(506.752013092041, 407.29166666666663)" r="3"/><circle transform="translate(450.1239934539795, 363.75)" r="3"/><circle transform="translate(626.872013092041, 409.58333333333326)" r="3"/><circle transform="translate(632.02, 409.58333333333326)" r="3"/><circle transform="translate(585.6879869079589, 421.04166666666674)" r="3"/><circle transform="translate(680.067986907959, 411.875)" r="3"/><circle transform="translate(527.3439934539795, 363.75)" r="3"/><circle transform="translate(534.207986907959, 306.45833333333326)" r="3"/><circle transform="translate(499.887986907959, 306.45833333333326)" r="3"/><circle transform="translate(614.8600000000001, 363.75)" r="3"/><circle transform="translate(752.1399999999999, 395.8333333333333)" r="3"/><circle transform="translate(693.7959738159179, 432.5)" r="3"/><circle transform="translate(590.835973815918, 409.58333333333326)" r="3"/><circle transform="translate(678.352013092041, 421.04166666666674)" r="3"/><circle transform="translate(520.48, 363.75)" r="3"/><circle transform="translate(493.0239934539795, 368.3333333333333)" r="3"/><circle transform="translate(456.98798690795894, 363.75)" r="3"/><circle transform="translate(367.75600654602044, 363.75)" r="3"/><circle transform="translate(628.587986907959, 391.25)" r="3"/><circle transform="translate(551.367986907959, 363.75)" r="3"/><circle transform="translate(577.107986907959, 398.125)" r="3"/><circle transform="translate(674.92, 359.1666666666667)" r="3"/><circle transform="translate(592.552013092041, 398.125)" r="3"/><circle transform="translate(839.6559738159181, 421.04166666666674)" r="3"/><circle transform="translate(518.7639934539795, 329.375)" r="3"/><circle transform="translate(740.127986907959, 421.04166666666674)" r="3"/><circle transform="translate(800.1879869079589, 460.0)" r="3"/><circle transform="translate(784.744026184082, 460.0)" r="3"/><circle transform="translate(664.624026184082, 416.4583333333333)" r="3"/><circle transform="translate(554.8, 416.4583333333333)" r="3"/><circle transform="translate(805.335973815918, 416.4583333333333)" r="3"/><circle transform="translate(741.8440261840819, 570)" r="3"/><circle transform="translate(620.007986907959, 416.4583333333333)" r="3"/><circle transform="translate(551.367986907959, 427.9166666666667)" r="3"/><circle transform="translate(601.132013092041, 267.5)" r="3"/><circle transform="translate(446.69201309204095, 340.83333333333326)" r="3"/><circle transform="translate(640.5999999999999, 368.3333333333333)" r="3"/><circle transform="translate(444.9760065460205, 570)" r="3"/><circle transform="translate(595.984026184082, 405.0)" r="3"/><circle transform="translate(506.752013092041, 377.5)" r="3"/><circle transform="translate(496.45600654602043, 377.5)" r="3"/><circle transform="translate(482.72798690795895, 359.1666666666667)" r="3"/><circle transform="translate(443.26, 317.91666666666674)" r="3"/><circle transform="translate(554.8, 377.5)" r="3"/><circle transform="translate(710.955973815918, 437.0833333333333)" r="3"/><circle transform="translate(709.24, 423.33333333333337)" r="3"/><circle transform="translate(642.3159738159179, 432.5)" r="3"/><circle transform="translate(594.2679869079589, 416.4583333333333)" r="3"/><circle transform="translate(674.92, 421.04166666666674)" r="3"/><circle transform="translate(686.932013092041, 427.9166666666667)" r="3"/><circle transform="translate(625.1559738159181, 414.1666666666667)" r="3"/><circle transform="translate(635.452013092041, 425.625)" r="3"/><circle transform="translate(630.304026184082, 421.04166666666674)" r="3"/><circle transform="translate(553.0839934539795, 421.04166666666674)" r="3"/><circle transform="translate(606.2800000000001, 400.4166666666667)" r="3"/><circle transform="translate(632.02, 570)" r="3"/><circle transform="translate(618.292013092041, 398.125)" r="3"/><circle transform="translate(595.984026184082, 398.125)" r="3"/><circle transform="translate(604.5640261840821, 340.83333333333326)" r="3"/><circle transform="translate(582.2560065460206, 400.4166666666667)" r="3"/><circle transform="translate(522.1960065460205, 386.66666666666674)" r="3"/><circle transform="translate(40, 317.91666666666674)" r="3"/><circle transform="translate(566.8120130920411, 395.8333333333333)" r="3"/><circle transform="translate(475.86399345397945, 304.16666666666663)" r="3"/><circle transform="translate(455.272013092041, 295.0)" r="3"/><circle transform="translate(424.38399345397943, 317.91666666666674)" r="3"/><circle transform="translate(496.45600654602043, 329.375)" r="3"/><circle transform="translate(386.632013092041, 368.3333333333333)" r="3"/><circle transform="translate(342.01600654602055, 375.20833333333326)" r="3"/><circle transform="translate(520.48, 368.3333333333333)" r="3"/><circle transform="translate(503.32, 368.3333333333333)" r="3"/><circle transform="translate(623.44, 368.3333333333333)" r="3"/><circle transform="translate(571.96, 375.20833333333326)" r="3"/><circle transform="translate(537.6399999999999, 377.5)" r="3"/><circle transform="translate(503.32, 363.75)" r="3"/><circle transform="translate(451.84, 359.1666666666667)" r="3"/><circle transform="translate(434.68000000000006, 570)" r="3"/><circle transform="translate(657.76, 400.4166666666667)" r="3"/><circle transform="translate(674.92, 414.1666666666667)" r="3"/><circle transform="translate(571.96, 414.1666666666667)" r="3"/><circle transform="translate(692.08, 425.625)" r="3"/><circle transform="translate(657.76, 409.58333333333326)" r="3"/><circle transform="translate(657.76, 368.3333333333333)" r="3"/><circle transform="translate(657.76, 398.125)" r="3"/><circle transform="translate(623.44, 409.58333333333326)" r="3"/><circle transform="translate(692.08, 416.4583333333333)" r="3"/><circle transform="translate(589.12, 416.4583333333333)" r="3"/><circle transform="translate(692.08, 416.4583333333333)" r="3"/><circle transform="translate(469.0, 317.91666666666674)" r="3"/><circle transform="translate(692.08, 375.20833333333326)" r="3"/><circle transform="translate(486.16, 359.1666666666667)" r="3"/><circle transform="translate(417.52, 313.3333333333333)" r="3"/><circle transform="translate(589.12, 350.0)" r="3"/><circle transform="translate(657.76, 377.5)" r="3"/><circle transform="translate(503.32, 363.75)" r="3"/><circle transform="translate(503.32, 372.91666666666663)" r="3"/><circle transform="translate(795.04, 450.8333333333333)" r="3"/><circle transform="translate(589.12, 377.5)" r="3"/><circle transform="translate(520.48, 388.95833333333337)" r="3"/><circle transform="translate(571.96, 382.0833333333333)" r="3"/></g></svg>