<svg xmlns="http://www.w3.org/2000/svg" width="810" height="240.0" viewBox="0 0 810 240.0"><rect x="5" y="0" width="800" height="240.0" fill="#d4d4d1"/><g class="xlines"><line x1="25.0" y1="240.0" x2="25.0" y2="0.0" stroke="#f8f8f8"/><line x1="45.0" y1="240.0" x2="45.0" y2="0.0" stroke="#f8f8f8"/><line x1="65.0" y1="240.0" x2="65.0" y2="0.0" stroke="#f8f8f8"/><line x1="85.0" y1="240.0" x2="85.0" y2="0.0" stroke="#f8f8f8"/><line x1="105.0" y1="240.0" x2="105.0" y2="0.0" stroke="#f8f8f8"/><line x1="125.0" y1="240.0" x2="125.0" y2="0.0" stroke="#f8f8f8"/><line x1="145.0" y1="240.0" x2="145.0" y2="0.0" stroke="#f8f8f8"/><line x1="165.0" y1="240.0" x2="165.0" y2="0.0" stroke="#f8f8f8"/><line x1="185.0" y1="240.0" x2="185.0" y2="0.0" stroke="#f8f8f8"/><line x1="205.0" y1="240.0" x2="205.0" y2="0.0" stroke="#f8f8f8"/><line x1="225.00000000000003" y1="240.0" x2="225.00000000000003" y2="0.0" stroke="#f8f8f8"/><line x1="245.0" y1="240.0" x2="245.0" y2="0.0" stroke="#f8f8f8"/><line x1="265.0" y1="240.0" x2="265.0" y2="0.0" stroke="#f8f8f8"/><line x1="285.0" y1="240.0" x2="285.0" y2="0.0" stroke="#f8f8f8"/><line x1="305.0" y1="240.0" x2="305.0" y2="0.0" stroke="#f8f8f8"/><line x1="325.0" y1="240.0" x2="325.0" y2="0.0" stroke="#f8f8f8"/><line x1="345.0" y1="240.0" x2="345.0" y2="0.0" stroke="#f8f8f8"/><line x1="365.0" y1="240.0" x2="365.0" y2="0.0" stroke="#f8f8f8"/><line x1="385.0" y1="240.0" x2="385.0" y2="0.0" stroke="#f8f8f8"/><line x1="405.0" y1="240.0" x2="405.0" y2="0.0" stroke="#f8f8f8"/><line x1="425.0" y1="240.0" x2="425.0" y2="0.0" stroke="#f8f8f8"/><line x1="445.00000000000006" y1="240.0" x2="445.00000000000006" y2="0.0" stroke="#f8f8f8"/><line x1="464.99999999999994" y1="240.0" x2="464.99999999999994" y2="0.0" stroke="#f8f8f8"/><line x1="485.0" y1="240.0" x2="485.0" y2="0.0" stroke="#f8f8f8"/><line x1="505.0" y1="240.0" x2="505.0" y2="0.0" stroke="#f8f8f8"/><line x1="525.0" y1="240.0" x2="525.0" y2="0.0" stroke="#f8f8f8"/><line x1="545.0" y1="240.0" x2="545.0" y2="0.0" stroke="#f8f8f8"/><line x1="565.0" y1="240.0" x2="565.0" y2="0.0" stroke="#f8f8f8"/><line x1="585.0" y1="240.0" x2="585.0" y2="0.0" stroke="#f8f8f8"/><line x1="605.0" y1="240.0" x2="605.0" y2="0.0" stroke="#f8f8f8"/><line x1="625.0" y1="240.0" x2="625.0" y2="0.0" stroke="#f8f8f8"/><line x1="645.0" y1="240.0" x2="645.0" y2="0.0" stroke="#f8f8f8"/><line x1="665.0" y1="240.0" x2="665.0" y2="0.0" stroke="#f8f8f8"/><line x1="685.0" y1="240.0" x2="685.0" y2="0.0" stroke="#f8f8f8"/><line x1="705.0" y1="240.0" x2="705.0" y2="0.0" stroke="#f8f8f8"/><line x1="725.0" y1="240.0" x2="725.0" y2="0.0" stroke="#f8f8f8"/><line x1="745.0" y1="240.0" x2="745.0" y2="0.0" stroke="#f8f8f8"/><line x1="765.0" y1="240.0" x2="765.0" y2="0.0" stroke="#f8f8f8"/><line x1="785.0" y1="240.0" x2="785.0" y2="0.0" stroke="#f8f8f8"/></g><g class="ylines"><line x1="5.0" y1="220.0" x2="805.0" y2="220.0" stroke="#f8f8f8"/><line x1="5.0" y1="200.0" x2="805.0" y2="200.0" stroke="#f8f8f8"/><line x1="5.0" y1="180.0" x2="805.0" y2="180.0" stroke="#f8f8f8"/><line x1="5.0" y1="160.00000000000003" x2="805.0" y2="160.00000000000003" stroke="#f8f8f8"/><line x1="5.0" y1="139.99999999999997" x2="805.0" y2="139.99999999999997" stroke="#f8f8f8"/><line x1="5.0" y1="120.0" x2="805.0" y2="120.0" stroke="#f8f8f8"/><line x1="5.0" y1="99.99999999999999" x2="805.0" y2="99.99999999999999" stroke="#f8f8f8"/><line x1="5.0" y1="80.00000000000001" x2="805.0" y2="80.00000000000001" stroke="#f8f8f8"/><line x1="5.0" y1="60.0" x2="805.0" y2="60.0" stroke="#f8f8f8"/><line x1="5.0" y1="39.99999999999999" x2="805.0" y2="39.99999999999999" stroke="#f8f8f8"/><line x1="5.0" y1="20.000000000000007" x2="805.0" y2="20.000000000000007" stroke="#f8f8f8"/></g><g class="ease"><path d="M5,240L8.200,240L11.400,240L14.600,240L17.800,239.999L21,239.998L24.200,239.997L27.400,239.995L30.600,239.992L33.800,239.989L37,239.985L40.200,239.980L43.400,239.973L46.600,239.966L49.800,239.958L53,239.948L56.200,239.937L59.400,239.925L62.600,239.910L65.800,239.895L69,239.877L72.200,239.858L75.400,239.836L78.600,239.813L81.800,239.788L85,239.760L88.200,239.730L91.400,239.698L94.600,239.663L97.800,239.625L101,239.585L104.200,239.542L107.400,239.497L110.600,239.448L113.800,239.396L117,239.341L120.200,239.283L123.400,239.222L126.600,239.157L129.800,239.089L133,239.017L136.200,238.941L139.400,238.862L142.600,238.779L145.800,238.692L149,238.600L152.200,238.505L155.400,238.405L158.600,238.301L161.800,238.193L165,238.080L168.200,237.962L171.400,237.840L174.600,237.713L177.800,237.581L181,237.444L184.200,237.303L187.400,237.155L190.600,237.003L193.800,236.845L197,236.682L200.200,236.514L203.400,236.339L206.600,236.159L209.800,235.973L213,235.782L216.200,235.584L219.400,235.380L222.600,235.170L225.800,234.954L229,234.732L232.200,234.502L235.400,234.267L238.600,234.025L241.800,233.776L245,233.520L248.200,233.257L251.400,232.988L254.600,232.711L257.800,232.427L261,232.136L264.200,231.837L267.400,231.531L270.600,231.217L273.800,230.896L277,230.567L280.200,230.230L283.400,229.885L286.600,229.533L289.800,229.172L293,228.803L296.200,228.425L299.400,228.039L302.600,227.645L305.800,227.242L309,226.831L312.200,226.410L315.400,225.981L318.600,225.543L321.800,225.096L325,224.640L328.200,224.175L331.400,223.700L334.600,223.216L337.800,222.722L341,222.219L344.200,221.706L347.400,221.183L350.600,220.651L353.800,220.108L357,219.556L360.200,218.993L363.400,218.420L366.600,217.837L369.800,217.243L373,216.639L376.200,216.025L379.400,215.399L382.600,214.763L385.800,214.116L389,213.458L392.200,212.789L395.400,212.109L398.600,211.417L401.800,210.714L405,210L408.200,209.274L411.400,208.537L414.600,207.788L417.800,207.027L421,206.254L424.200,205.469L427.400,204.672L430.600,203.863L433.800,203.042L437,202.209L440.200,201.363L443.400,200.504L446.600,199.633L449.800,198.749L453,197.852L456.200,196.943L459.400,196.020L462.600,195.084L465.800,194.135L469,193.173L472.200,192.198L475.400,191.209L478.600,190.206L481.800,189.190L485,188.160L488.200,187.116L491.400,186.059L494.600,184.987L497.800,183.901L501,182.801L504.200,181.687L507.400,180.558L510.600,179.415L513.800,178.258L517,177.085L520.200,175.898L523.400,174.697L526.600,173.480L529.800,172.248L533,171.001L536.200,169.739L539.400,168.461L542.600,167.169L545.800,165.860L549,164.536L552.200,163.197L555.400,161.841L558.600,160.470L561.800,159.083L565,157.680L568.200,156.261L571.400,154.825L574.600,153.373L577.800,151.905L581,150.420L584.200,148.919L587.400,147.401L590.600,145.866L593.800,144.315L597,142.746L600.200,141.161L603.400,139.558L606.600,137.938L609.800,136.301L613,134.646L616.200,132.974L619.400,131.284L622.600,129.576L625.800,127.851L629,126.108L632.200,124.346L635.400,122.567L638.600,120.770L641.800,118.954L645,117.120L648.200,115.268L651.400,113.397L654.600,111.507L657.800,109.599L661,107.672L664.200,105.726L667.400,103.761L670.600,101.777L673.800,99.774L677,97.751L680.200,95.709L683.400,93.648L686.600,91.567L689.800,89.467L693,87.347L696.200,85.207L699.400,83.047L702.600,80.867L705.800,78.667L709,76.447L712.200,74.206L715.400,71.946L718.600,69.664L721.800,67.362L725,65.040L728.200,62.697L731.400,60.333L734.600,57.948L737.800,55.542L741,53.115L744.200,50.667L747.400,48.197L750.600,45.706L753.800,43.194L757,40.660L760.200,38.104L763.400,35.527L766.600,32.928L769.800,30.307L773,27.663L776.200,24.998L779.400,22.311L782.600,19.601L785.800,16.869L789,14.114L792.200,11.337L795.400,8.537L798.600,5.714L801.800,2.868L805,0" stroke="black" fill="none"/></g></svg>