<svg xmlns="http://www.w3.org/2000/svg" width="928" height="500" viewBox="0, 0, 928, 500" style="max-width: 100%; height: auto;"><g><rect x="43.40229885057471" y="30.0" height="440.0" width="30.620689655172416" fill="steelblue"/><rect x="77.42528735632183" y="156.29822075263735" height="313.70177924736265" width="30.620689655172416" fill="steelblue"/><rect x="111.44827586206897" y="187.0933711226578" height="282.9066288773422" width="30.620689655172416" fill="steelblue"/><rect x="145.4712643678161" y="209.9559124547315" height="260.0440875452685" width="30.620689655172416" fill="steelblue"/><rect x="179.49425287356323" y="228.69626830420404" height="241.30373169579596" width="30.620689655172416" fill="steelblue"/><rect x="213.51724137931035" y="236.2131947724768" height="233.7868052275232" width="30.620689655172416" fill="steelblue"/><rect x="247.5402298850575" y="250.83136513934807" height="219.16863486065193" width="30.620689655172416" fill="steelblue"/><rect x="281.56321839080465" y="258.9025350338529" height="211.09746496614707" width="30.620689655172416" fill="steelblue"/><rect x="315.58620689655174" y="262.60903794678" height="207.39096205322" width="30.620689655172416" fill="steelblue"/><rect x="349.6091954022989" y="322.6751692646827" height="147.32483073531728" width="30.620689655172416" fill="steelblue"/><rect x="383.632183908046" y="330.57313808849" height="139.42686191151" width="30.620689655172416" fill="steelblue"/><rect x="417.65517241379314" y="373.63092426389545" height="96.36907573610455" width="30.620689655172416" fill="steelblue"/><rect x="451.6781609195403" y="374.4622894032436" height="95.53771059675643" width="30.620689655172416" fill="steelblue"/><rect x="485.7011494252874" y="386.6556447803495" height="83.34435521965048" width="30.620689655172416" fill="steelblue"/><rect x="519.7241379310345" y="388.2490946307668" height="81.75090536923318" width="30.620689655172416" fill="steelblue"/><rect x="553.7471264367816" y="390.7431900488112" height="79.25680995118881" width="30.620689655172416" fill="steelblue"/><rect x="587.7701149425288" y="400.1999685088962" height="69.80003149110382" width="30.620689655172416" fill="steelblue"/><rect x="621.7931034482758" y="401.62021728861595" height="68.37978271138405" width="30.620689655172416" fill="steelblue"/><rect x="655.816091954023" y="403.1790269248937" height="66.82097307510628" width="30.620689655172416" fill="steelblue"/><rect x="689.8390804597702" y="418.3168005038577" height="51.68319949614232" width="30.620689655172416" fill="steelblue"/><rect x="723.8620689655172" y="436.12187057156353" height="33.878129428436466" width="30.620689655172416" fill="steelblue"/><rect x="757.8850574712644" y="443.2577546843017" height="26.742245315698312" width="30.620689655172416" fill="steelblue"/><rect x="791.9080459770116" y="464.7000472366556" height="5.299952763344379" width="30.620689655172416" fill="steelblue"/><rect x="825.9310344827586" y="464.8039678790741" height="5.196032120925906" width="30.620689655172416" fill="steelblue"/><rect x="859.9540229885058" y="466.7091796567469" height="3.290820343253074" width="30.620689655172416" fill="steelblue"/><rect x="893.977011494253" y="467.4366241536766" height="2.5633758463234244" width="30.620689655172416" fill="steelblue"/></g><g transform="translate(0, 470)" fill="none" font-size="10" font-family="sans-serif" text-anchor="middle"><path class="domain" stroke="currentColor" d="M40.5,0.5H928.5"/><g class="tick" opacity="1" transform="translate(58.712643678160916, 0)"><line stroke="currentColor" y2="6"/><text fill="currentColor" y="9" dy="0.71em">E</text></g><g class="tick" opacity="1" transform="translate(92.73563218390804, 0)"><line stroke="currentColor" y2="6"/><text fill="currentColor" y="9" dy="0.71em">T</text></g><g class="tick" opacity="1" transform="translate(126.75862068965517, 0)"><line stroke="currentColor" y2="6"/><text fill="currentColor" y="9" dy="0.71em">A</text></g><g class="tick" opacity="1" transform="translate(160.78160919540232, 0)"><line stroke="currentColor" y2="6"/><text fill="currentColor" y="9" dy="0.71em">O</text></g><g class="tick" opacity="1" transform="translate(194.80459770114945, 0)"><line stroke="currentColor" y2="6"/><text fill="currentColor" y="9" dy="0.71em">I</text></g><g class="tick" opacity="1" transform="translate(228.82758620689657, 0)"><line stroke="currentColor" y2="6"/><text fill="currentColor" y="9" dy="0.71em">N</text></g><g class="tick" opacity="1" transform="translate(262.8505747126437, 0)"><line stroke="currentColor" y2="6"/><text fill="currentColor" y="9" dy="0.71em">S</text></g><g class="tick" opacity="1" transform="translate(296.87356321839087, 0)"><line stroke="currentColor" y2="6"/><text fill="currentColor" y="9" dy="0.71em">H</text></g><g class="tick" opacity="1" transform="translate(330.89655172413796, 0)"><line stroke="currentColor" y2="6"/><text fill="currentColor" y="9" dy="0.71em">R</text></g><g class="tick" opacity="1" transform="translate(364.9195402298851, 0)"><line stroke="currentColor" y2="6"/><text fill="currentColor" y="9" dy="0.71em">D</text></g><g class="tick" opacity="1" transform="translate(398.9425287356322, 0)"><line stroke="currentColor" y2="6"/><text fill="currentColor" y="9" dy="0.71em">L</text></g><g class="tick" opacity="1" transform="translate(432.96551724137936, 0)"><line stroke="currentColor" y2="6"/><text fill="currentColor" y="9" dy="0.71em">C</text></g><g class="tick" opacity="1" transform="translate(466.9885057471265, 0)"><line stroke="currentColor" y2="6"/><text fill="currentColor" y="9" dy="0.71em">U</text></g><g class="tick" opacity="1" transform="translate(501.0114942528736, 0)"><line stroke="currentColor" y2="6"/><text fill="currentColor" y="9" dy="0.71em">M</text></g><g class="tick" opacity="1" transform="translate(535.0344827586207, 0)"><line stroke="currentColor" y2="6"/><text fill="currentColor" y="9" dy="0.71em">W</text></g><g class="tick" opacity="1" transform="translate(569.0574712643678, 0)"><line stroke="currentColor" y2="6"/><text fill="currentColor" y="9" dy="0.71em">F</text></g><g class="tick" opacity="1" transform="translate(603.080459770115, 0)"><line stroke="currentColor" y2="6"/><text fill="currentColor" y="9" dy="0.71em">G</text></g><g class="tick" opacity="1" transform="translate(637.103448275862, 0)"><line stroke="currentColor" y2="6"/><text fill="currentColor" y="9" dy="0.71em">Y</text></g><g class="tick" opacity="1" transform="translate(671.1264367816092, 0)"><line stroke="currentColor" y2="6"/><text fill="currentColor" y="9" dy="0.71em">P</text></g><g class="tick" opacity="1" transform="translate(705.1494252873564, 0)"><line stroke="currentColor" y2="6"/><text fill="currentColor" y="9" dy="0.71em">B</text></g><g class="tick" opacity="1" transform="translate(739.1724137931034, 0)"><line stroke="currentColor" y2="6"/><text fill="currentColor" y="9" dy="0.71em">V</text></g><g class="tick" opacity="1" transform="translate(773.1954022988506, 0)"><line stroke="currentColor" y2="6"/><text fill="currentColor" y="9" dy="0.71em">K</text></g><g class="tick" opacity="1" transform="translate(807.2183908045978, 0)"><line stroke="currentColor" y2="6"/><text fill="currentColor" y="9" dy="0.71em">J</text></g><g class="tick" opacity="1" transform="translate(841.2413793103448, 0)"><line stroke="currentColor" y2="6"/><text fill="currentColor" y="9" dy="0.71em">X</text></g><g class="tick" opacity="1" transform="translate(875.264367816092, 0)"><line stroke="currentColor" y2="6"/><text fill="currentColor" y="9" dy="0.71em">Q</text></g><g class="tick" opacity="1" transform="translate(909.2873563218392, 0)"><line stroke="currentColor" y2="6"/><text fill="currentColor" y="9" dy="0.71em">Z</text></g></g><g transform="translate(40, 0)" fill="none" font-size="10" font-family="sans-serif" text-anchor="end"><g class="tick" opacity="1" transform="translate(0, 470.5)"><line stroke="currentColor" x2="-6"/><text fill="currentColor" x="-9" dy="0.32em">0</text></g><g class="tick" opacity="1" transform="translate(0, 435.85978586049436)"><line stroke="currentColor" x2="-6"/><text fill="currentColor" x="-9" dy="0.32em">1</text></g><g class="tick" opacity="1" transform="translate(0, 401.2195717209888)"><line stroke="currentColor" x2="-6"/><text fill="currentColor" x="-9" dy="0.32em">2</text></g><g class="tick" opacity="1" transform="translate(0, 366.57935758148324)"><line stroke="currentColor" x2="-6"/><text fill="currentColor" x="-9" dy="0.32em">3</text></g><g class="tick" opacity="1" transform="translate(0, 331.93914344197765)"><line stroke="currentColor" x2="-6"/><text fill="currentColor" x="-9" dy="0.32em">4</text></g><g class="tick" opacity="1" transform="translate(0, 297.298929302472)"><line stroke="currentColor" x2="-6"/><text fill="currentColor" x="-9" dy="0.32em">5</text></g><g class="tick" opacity="1" transform="translate(0, 262.6587151629665)"><line stroke="currentColor" x2="-6"/><text fill="currentColor" x="-9" dy="0.32em">6</text></g><g class="tick" opacity="1" transform="translate(0, 228.01850102346083)"><line stroke="currentColor" x2="-6"/><text fill="currentColor" x="-9" dy="0.32em">7</text></g><g class="tick" opacity="1" transform="translate(0, 193.37828688395527)"><line stroke="currentColor" x2="-6"/><text fill="currentColor" x="-9" dy="0.32em">8</text></g><g class="tick" opacity="1" transform="translate(0, 158.73807274444965)"><line stroke="currentColor" x2="-6"/><text fill="currentColor" x="-9" dy="0.32em">9</text></g><g class="tick" opacity="1" transform="translate(0, 124.09785860494407)"><line stroke="currentColor" x2="-6"/><text fill="currentColor" x="-9" dy="0.32em">10</text></g><g class="tick" opacity="1" transform="translate(0, 89.4576444654385)"><line stroke="currentColor" x2="-6"/><text fill="currentColor" x="-9" dy="0.32em">11</text></g><g class="tick" opacity="1" transform="translate(0, 54.81743032593291)"><line stroke="currentColor" x2="-6"/><text fill="currentColor" x="-9" dy="0.32em">12</text></g><text x="-40" y="10" fill="currentColor" text-anchor="start">&#8593; Frequency (%)</text></g></svg>