<svg xmlns="http://www.w3.org/2000/svg" width="928" height="500" viewBox="0 0 928 500" style="max-width: 100%; height: auto;"><path fill="steelblue" d="M40,404.052L40.468,402.56L40.935,400.091L41.403,399.327L42.805,399.412L43.741,399.646L44.208,398.995L44.676,398.988L45.143,398.698L46.546,396.498L47.014,395.692L47.481,394.405L47.481,394.079L47.949,393.089L49.351,392.651L49.819,393.952L50.287,394.079L50.754,392.594L51.222,392.184L52.625,390.798L53.092,389.694L53.56,390.154L54.027,391.71L54.495,389.638L56.365,389.121L56.833,385.995L57.3,384.283L58.235,386.257L59.638,384.184L60.106,383.237L60.573,382.55L61.041,382.246L61.508,381.949L62.444,384.991L62.911,384.856L63.379,386.893L63.846,386.009L64.314,384.771L65.717,381.525L66.184,382.536L66.652,384.029L67.119,382.367L67.587,383.003L68.99,383.47L69.457,385.373L69.925,383.788L70.392,384.729L70.86,383.682L72.73,384.234L73.198,380.054L74.133,376.107L74.601,376.425L76.003,377.819L76.003,376.39L76.471,376.362L76.938,375.173L77.406,372.585L78.809,372.323L79.276,371.75L79.744,372.309L80.211,370.979L80.679,368.327L82.082,368.362L82.549,374.593L83.017,372.917L83.484,366.735L83.952,368.256L85.355,369.968L85.822,376.807L86.757,374.516L87.225,373.462L87.693,376.744L89.095,374.339L89.563,374.494L90.031,375.216L90.498,380.605L90.498,381.589L91.901,379.615L92.368,382.275L92.836,385.196L93.304,387.212L93.771,383.668L95.174,383.555L95.641,379.771L96.109,376.277L96.577,377.295L97.044,374.303L98.447,376.461L98.914,380.301L99.382,375.166L99.85,373.632L100.317,372.054L102.655,368.037L103.123,373.271L103.59,374.509L104.058,376.8L104.993,373.306L105.46,374.169L105.928,373.207L106.396,372.96L106.863,371.821L108.266,372.104L108.734,370.328L109.201,370.435L109.669,370.76L110.136,368.044L111.539,365.123L112.007,361.657L112.474,361.947L112.942,360.723L113.409,361.452L115.28,359.422L115.747,357.93L116.215,358.305L116.682,359.493L117.15,355.808L118.553,351.239L119.02,351.274L119.02,352.031L119.488,355.256L119.955,351.706L121.358,351.896L121.826,350.058L122.293,347.815L122.761,347.285L123.228,349.463L124.631,346.677L125.099,338.331L125.566,338.493L126.034,340.721L126.501,339.363L127.904,339.087L128.391,337.737L128.859,335.65L129.794,337.425L130.261,337.121L131.664,338.316L132.132,334.349L132.599,338.232L133.067,345.892L133.534,353.035L134.47,361.247L134.937,349.789L135.405,352.512L135.872,353.792L136.34,352.314L137.743,354.04L138.21,350.574L138.678,350.85L139.613,348.671L141.016,347.964L141.483,346.358L141.951,342.532L142.418,339.653L142.886,341.117L144.756,343.494L145.224,342.822L145.691,338.797L146.159,335.65L146.627,332.573L147.562,332.637L148.029,336.647L148.497,335.006L148.964,334.32L149.432,335.339L150.835,339.575L151.302,340.58L151.77,340.481L152.237,337.588L152.705,332.849L154.108,329.39L155.043,329.284L155.51,329.553L155.978,328.662L157.381,329.9L158.784,332.191L159.251,332.128L159.719,342.652L161.121,344.357L161.589,348.876L162.057,343.112L162.057,344.088L162.524,347.858L163.927,343.55L164.394,350.439L164.862,357.088L165.33,356.204L165.797,355.871L167.667,359.917L168.135,371.637L168.603,374.091L169.07,378.045L170.473,378.045L170.94,376.963L171.408,376.51L171.876,374.261L172.811,375.4L174.213,376.885L174.681,378.505L175.149,383.71L175.616,384.248L176.084,381.249L177.019,378.441L177.487,381.688L177.954,378.476L178.422,379.849L178.889,381.85L180.76,383.583L181.227,382.423L181.695,384.036L182.162,385.507L183.565,385.309L184.033,385.726L184.5,383.031L184.968,378.116L185.435,381.574L187.306,383.901L187.773,381.857L188.241,381.949L188.708,384.467L189.176,383.534L190.111,385.344L190.579,379.926L191.046,380.86L191.514,379.509L191.981,380.45L193.384,380.365L193.852,376.058L194.319,378.286L194.787,375.739L196.657,371.312L197.125,370.286L197.592,367.4L198.06,370.802L198.527,368.85L199.93,368.504L200.846,364.239L201.313,365.682L201.781,362.768L202.249,361.728L203.651,359.74L204.119,361.898L204.586,362.888L204.586,360.688L205.054,365.929L206.457,365.476L206.924,365.052L207.392,361.289L207.859,360.731L208.327,356.098L209.73,351.062L210.197,356.692L210.665,354.789L211.132,350.51L211.6,349.951L213.003,348.176L213.47,346.189L213.938,346.967L214.873,342.688L215.341,342.023L216.743,339.342L217.211,337.977L217.678,340.856L218.146,339.109L218.614,340.247L219.549,336.916L220.016,335.643L220.484,338.26L220.951,335.806L221.419,337.298L222.822,340.141L223.289,338.515L223.757,343.968L224.225,344.774L224.692,341.86L226.562,338.14L227.03,337.729L227.498,337.956L227.965,336.499L229.835,338.373L230.303,338.889L230.771,339.017L231.238,336.018L231.706,338.698L233.108,341.549L233.108,338.698L233.576,342.115L234.044,347.455L234.511,348.084L235.914,344.923L236.381,341.676L236.849,343.572L237.317,342.051L237.784,346.033L239.187,347.525L239.654,347.462L240.122,344.534L240.59,350.991L241.057,349.697L242.46,351.571L243.395,346.45L243.863,351.048L244.33,349.676L246.201,346.111L246.668,343.006L247.136,346.754L247.136,345.071L247.603,347.936L249.006,347.016L249.474,350.015L249.941,347.773L250.409,348.48L250.876,353.191L252.279,352.385L252.747,355.405L253.214,352.406L253.682,357.519L254.149,355.334L255.552,360.794L256.02,358.899L256.487,356.918L256.955,357.576L257.89,359.196L259.293,361.622L259.76,356.381L260.228,353.87L260.695,354.308L261.163,350.079L262.098,347.243L262.566,345L263.033,343.183L263.501,343.169L263.968,345.701L265.371,345.948L265.839,347.264L266.306,345.63L266.774,346.726L267.241,344.958L268.644,347.957L269.112,347.186L269.579,346.457L270.047,347.115L270.514,350.093L272.852,352.455L273.32,351.911L273.787,355.97L274.255,356.706L275.658,358.305L276.125,362.718L276.125,362.768L276.593,362.032L277.06,364.656L278.463,370.725L278.931,371.064L279.398,379.587L279.866,375.159L280.334,370.336L281.736,377.309L282.204,380.287L282.671,378.965L283.139,376.687L283.607,379.297L285.009,395.551L285.477,389.609L286.412,392.82L286.88,399.2L287.347,401.343L288.75,400.586L289.217,406.938L289.685,406.492L290.153,407.235L290.153,401.534L291.555,392.014L292.023,396.385L292.49,400.721L292.958,397.934L293.426,401.11L294.828,400.374L295.296,405.29L295.763,401.485L296.231,400.523L296.699,401.831L298.101,404.866L298.588,399.335L299.056,396.053L299.524,391.462L299.991,393.903L301.861,394.348L302.329,391.498L302.797,396.937L303.264,399.907L303.732,400.516L304.667,402.185L305.134,402.97L305.602,406.259L306.07,401.789L306.537,406.174L307.94,407.659L308.407,406.407L308.875,408.968L309.343,413.07L309.81,411.592L311.213,404.257L311.681,405.778L312.148,402.807L312.616,402.807L313.083,404.455L314.954,407.101L315.421,404.597L315.889,402.171L316.356,405.346L316.824,403.515L318.227,399.469L318.694,399.228L318.694,400.537L319.162,402.807L319.629,400.494L321.032,402.984L321.5,402.503L321.967,406.938L322.435,406.747L322.902,406.344L324.305,409.357L324.773,408.904L325.24,409.852L325.708,409.852L326.175,409.307L327.578,408.741L328.046,408.968L328.513,409.633L329.448,409.633L329.916,405.813L331.319,403.104L331.786,404.208L332.254,405.629L332.721,404.434L333.189,405.934L334.124,407.292L334.592,407.963L335.059,409.647L335.527,411.026L335.994,411.769L337.865,414.69L338.332,411.415L338.8,407.504L339.267,407.504L340.67,406.598L341.138,405.827L341.605,403.373L342.073,404.222L342.54,406.252L344.411,405.276L344.878,404.236L345.346,403.833L345.813,401.775L346.281,399.469L347.684,397.496L347.684,400.806L348.151,401.52L348.619,399.787L349.087,399.865L350.957,403.14L351.424,403.253L351.892,405.891L352.36,405.495L353.762,408.501L354.23,406.167L354.697,405.523L355.165,406.917L355.633,406.832L357.503,407.801L357.97,407.497L358.438,405.516L358.906,407.164L359.373,409.668L360.776,411.217L360.776,407.313L361.243,404.448L361.711,401.852L362.179,402.15L363.581,402.51L364.049,399.511L364.516,398.196L364.984,398.125L365.452,398.146L366.854,393.853L367.322,394.673L367.79,394.681L368.257,392.29L368.725,394.426L370.127,396.095L370.575,395.65L371.511,393.124L371.978,390.281L372.446,387.961L373.849,386.221L374.316,388.661L374.784,387.728L375.251,385.429L375.251,385.429L376.654,384.969L377.122,386.32L377.589,386.794L378.057,384.099L378.524,382.706L379.927,384.771L380.395,383.88L380.862,384.057L381.33,381.306L381.797,382.367L383.2,381.78L383.668,382.367L384.135,381.49L384.603,381.002L385.538,380.004L386.941,376.588L387.408,376.135L387.876,376.284L388.343,378.717L388.811,378.625L389.746,378.356L390.214,381.999L390.681,385.486L391.149,383.039L391.616,383.413L393.019,380.422L393.487,379.856L393.954,380.973L394.422,382.169L394.889,383.357L396.76,377.5L397.227,375.895L397.695,374.466L398.162,373.943L400.033,371.439L400.5,371.34L400.968,370.307L401.435,368.334L401.903,367.676L403.306,368.256L403.773,369.055L403.773,370.802L404.241,371.015L404.708,373.122L406.111,373.745L406.579,373.561L407.046,374.105L407.514,373.893L407.981,371.347L409.384,372.839L409.852,375.216L410.319,373.653L410.787,371.078L411.254,369.253L412.657,369.586L413.125,369.26L414.06,368.978L414.528,370.965L414.995,370.965L416.398,371.962L416.865,374.233L417.333,372.945L417.801,373.554L417.801,372.026L419.203,369.324L419.671,369.374L420.138,366.113L420.606,365.66L421.074,362.669L422.476,361.848L422.944,362.838L423.411,359.139L423.879,358.375L424.347,356.84L425.749,356.763L426.217,356.833L426.684,356.812L427.152,354.86L427.62,354.436L429.49,352.285L429.957,352.908L430.425,353.219L430.893,354.068L431.36,352.936L432.295,353.495L433.231,353.078L433.698,350.878L434.166,352.038L435.568,357.123L436.036,354.004L436.504,353.58L436.971,352.356L437.439,350.312L438.841,350.425L439.309,350.185L439.777,351.592L440.244,350.149L440.712,349.725L442.114,351.027L443.05,353.085L443.517,353.17L443.985,352.201L444.452,349.541L446.323,347.688L446.79,348.954L446.79,347.95L447.258,348.233L448.66,347.129L449.128,346.111L449.596,341.365L450.063,339.469L450.531,339.137L451.934,339.844L452.401,339.519L452.869,338.797L453.336,339.986L453.804,341.011L455.207,338.338L455.674,338.882L456.142,338.904L457.077,342.079L457.544,339.222L458.947,338.43L459.415,335.608L459.882,335.438L460.35,336.131L460.817,335.282L461.753,335.042L462.22,335.6L462.688,334.702L463.155,335.219L463.623,336.994L465.026,335.714L465.493,329.419L465.961,325.062L466.428,324.864L466.896,325.755L468.299,326.788L468.786,330.402L469.253,333.917L469.721,331.123L470.188,336.676L472.059,336.103L472.526,336.499L472.994,335.042L473.461,332.764L473.929,332.545L475.332,327.509L475.332,326.434L475.799,326.243L476.267,327.134L476.734,325.394L478.137,323.852L478.605,323.591L479.072,324.326L479.54,328.181L480.007,328.598L481.41,324.383L481.878,325.401L482.345,325.578L482.813,325.578L483.281,328.124L484.683,328.605L485.618,330.685L486.086,331.208L486.554,331.031L487.021,333.266L488.424,336.357L488.891,335.707L489.359,330.098L489.359,331.067L489.827,332.312L491.229,330.678L491.697,332.665L492.164,332.057L492.632,334.299L493.1,331.774L494.502,329.794L494.97,328.287L495.437,327.056L495.905,322.148L496.373,322.148L497.775,320.33L498.243,322.105L498.71,320.309L499.178,320.952L500.113,320.952L501.516,318.633L501.984,318.371L502.451,320.783L502.919,321.059L503.386,320.068L504.321,321.391L504.789,323.081L505.257,321.009L505.724,321.872L506.192,324.347L507.594,324.347L508.062,317.904L508.53,320.252L508.997,322.834L509.465,330.133L510.867,326.363L511.335,324.34L511.803,322.968L512.27,329.044L512.738,334.158L514.608,332.269L515.076,331.47L515.543,329.086L516.011,334.165L516.478,331.753L517.881,332.701L518.349,331.237L518.349,331.993L518.816,329.482L519.284,328.273L520.687,328.273L521.154,326.137L521.622,326.738L522.089,326.469L522.557,327.361L523.96,328.245L524.427,330.621L524.895,328.075L525.362,327.127L525.83,325.274L527.7,322.183L528.168,322.282L528.635,321.943L529.103,320.967L529.57,315.139L530.973,315.047L531.441,312.26L531.441,310.973L531.908,310.506L532.376,309.728L533.779,311.68L534.246,311.248L534.714,311.482L535.181,311.107L535.649,312.804L537.052,311.036L537.519,308.483L537.987,307.769L538.454,309.692L538.922,306.686L540.325,305.633L540.773,303.192L541.24,303.787L542.175,303.1L542.643,303.1L544.046,301.318L544.513,300.575L544.981,299.826L545.449,300.285L545.916,298.984L546.851,298.63L547.319,298.531L547.786,296.226L548.254,293.941L548.722,295.016L550.124,295.25L550.592,297.004L551.059,286.656L551.527,281.528L551.995,278.444L553.397,279.385L553.865,284.661L554.332,284.973L554.8,279.993L555.268,285.333L557.138,281.613L557.605,287.038L558.073,288.948L558.541,295.829L559.008,303.178L559.943,290.355L560.411,288.566L560.878,284.626L561.346,287.264L561.814,290.475L563.216,290.192L563.684,291.508L564.151,294.351L564.619,301.834L565.087,298.609L566.489,295.469L566.957,296.558L567.425,297.343L567.892,290.808L568.36,288.311L569.762,288.311L570.698,285.517L571.165,283.31L571.633,283.897L572.1,288.962L573.503,292.512L573.971,293.651L574.438,297.987L574.438,292.816L574.906,290.695L576.308,290.15L576.776,286.323L577.244,280.976L577.711,277.709L578.179,276.153L579.581,278.911L580.049,276.308L580.517,278.345L580.984,279.739L581.452,281.365L582.854,280.234L583.322,288.813L583.79,292.095L584.725,294.252L585.192,295.341L586.595,295.341L587.063,294.146L587.53,287.052L587.998,287.455L588.465,286.373L589.401,288.028L589.868,291.904L590.336,291.246L590.803,292.152L591.271,293.248L592.674,296.303L593.141,291.84L593.609,290.178L594.076,286.797L594.544,286.147L595.947,286.613L596.414,283.218L596.882,285.425L597.349,287.441L597.817,288.049L599.687,284.796L600.155,284.739L600.622,283.997L601.09,284.902L601.557,286.041L602.96,284.866L602.96,286.522L603.428,293.043L603.895,291.911L604.363,293.814L605.766,294.846L606.233,291.784L606.701,291.006L607.168,293.262L607.636,293.432L609.039,296.148L609.506,300.3L609.974,298.206L610.441,300.052L610.909,299.104L612.312,298.482L612.779,298.057L613.714,292.944L614.182,291.642L614.65,286.974L616.052,286.974L616.52,287.653L616.987,284.039L617.455,283.933L617.455,283.692L618.858,281.125L619.325,280.403L619.793,278.876L620.26,274.384L620.728,275.233L622.131,269.674L622.598,269.292L623.066,266.477L623.534,265.649L624.001,263.245L625.404,264.065L625.871,267.106L626.339,266.746L626.807,269.306L627.742,270.176L629.144,272.92L629.612,265.635L630.08,265.458L630.547,265.437L631.015,262.007L631.95,261.094L632.417,258.845L632.885,257.714L633.353,256.179L633.82,247.387L635.223,245.081L635.69,251.1L636.158,250.365L636.626,251.079L637.093,252.529L638.496,251.56L638.963,252.119L639.431,252.274L639.899,254.106L640.366,257.119L642.256,254.856L642.724,251.192L643.191,248.759L643.659,244.89L644.126,245.697L645.529,244.643L645.997,246.439L645.997,245.06L646.464,246.029L646.932,252.133L648.334,252.833L648.802,256.688L649.27,257.459L649.737,251.85L650.205,253.053L651.607,248.363L652.075,251.638L652.543,247.345L653.478,247.203L654.881,245.881L655.348,249.926L656.283,246.213L656.751,244.975L657.218,245.477L658.621,243.561L659.089,244.933L659.556,242.952L660.024,243.837L660.024,243.271L661.427,242.486L661.894,243.462L662.362,243.412L662.829,242.783L663.297,243.235L664.7,242.104L665.167,240.696L665.635,240.017L666.102,241.121L667.973,240.357L668.44,239.798L668.908,239.925L669.375,241.078L669.843,241.856L671.713,236.898L672.181,235.681L672.648,233.765L673.116,233.956L673.584,232.265L674.519,227.781L674.986,228.361L675.454,226.395L675.921,225.504L676.389,223.523L678.259,229.061L678.727,230.341L679.194,234.698L679.662,238.914L681.065,231.325L681.532,228.531L682,226.798L682.467,227.251L682.935,232.279L684.338,230.002L685.273,225.963L685.74,226.465L686.208,227.088L686.676,224.924L688.078,221.118L688.546,218.77L689.013,216.677L689.013,219.237L689.481,217.603L690.884,215.955L691.351,215.446L691.819,213.161L692.287,216.577L692.754,222.052L694.624,230.504L695.092,227.668L695.56,227.484L696.027,223.749L697.43,220.178L698.365,222.936L698.833,220.949L699.3,215.686L699.768,215.375L701.17,218.657L701.638,218.374L702.106,220.701L702.106,224.803L702.573,221.041L703.976,219.93L704.443,225.68L704.911,236.587L705.379,233.312L705.846,236.12L707.249,230.016L707.716,228.672L708.184,230.094L708.652,226.006L709.119,221.359L710.522,222.137L710.97,221.769L711.438,223.417L711.905,223.502L712.84,226.296L714.243,228.679L714.711,230.306L715.178,230.907L715.646,230.879L716.113,233.015L717.049,236.028L717.516,234.896L717.984,232.258L718.451,234.882L718.919,238.39L720.322,235.285L720.789,231.035L721.257,227.816L721.724,221.953L723.595,220.319L724.062,222.151L724.53,222.342L724.997,224.747L725.465,222.356L727.335,225.079L727.803,223.721L728.27,222.752L728.738,224.747L729.205,224.81L730.608,224.146L730.608,222.837L731.076,224.407L731.543,224.874L732.011,229.167L733.414,234.26L733.881,232.251L734.349,229.613L734.816,229.146L735.284,232.902L736.687,233.482L737.154,235.045L737.622,231.798L738.089,233.057L738.557,231.353L740.427,223.983L741.362,225.624L741.83,225.206L742.298,227.088L743.7,230.907L744.168,235.151L744.635,235.01L745.103,235.54L745.103,239.494L746.506,238.999L746.973,234.868L747.441,238.893L747.908,240.017L748.376,243.483L749.779,246.977L750.246,239.918L750.714,241.821L751.181,235.724L751.649,239.175L753.052,235.151L753.519,232.873L753.987,233.736L754.454,232.583L755.39,227.215L757.26,222.851L757.728,221.203L758.195,217.356L758.663,215.58L759.598,219.619L760.065,219.796L760.533,216.776L761.001,216.952L761.468,211.895L762.871,205.614L763.338,203.457L763.806,196.349L764.274,196.073L764.741,191.822L766.144,188.144L766.611,184.672L767.079,192.324L767.547,192.869L768.014,193.817L769.884,189.382L770.352,194.927L770.82,192.339L771.287,203.089L771.755,205.742L773.157,220.178L773.625,205.466L773.625,212.765L774.093,205.685L774.56,203.358L775.963,198.817L776.431,200.89L776.898,200.918L777.366,211.096L777.833,218.183L779.236,217.893L779.704,205.756L780.171,203.931L780.639,205.671L781.106,198.697L782.509,194.178L782.977,194.163L783.444,197.813L784.379,200.501L784.847,205.438L786.717,201.413L787.185,198.45L787.652,198.301L788.12,203.012L789.055,201.272L789.523,197.962L789.99,194.651L790.458,192.063L790.925,186.73L792.328,178.858L792.796,177.57L793.263,178.497L793.731,185.796L794.198,184.042L795.601,184.841L796.069,187.607L796.536,189.198L797.004,193.753L797.471,200.296L799.342,205.049L799.809,206.534L800.277,202.467L800.744,203.089L801.212,208.444L802.147,194.998L802.615,186.878L803.082,185.534L803.55,181.121L804.017,171.523L805.42,172.945L805.888,171.353L806.355,188.06L806.823,190.401L807.29,192.126L808.693,183.002L809.161,188.661L809.628,186.659L810.096,183.766L810.563,183.582L811.966,183.703L812.921,189.552L813.388,188.915L813.856,184.912L814.324,186.914L815.726,187.274L816.194,182.677L816.661,190.422L816.661,197.537L817.129,197.962L818.532,201.753L818.999,194.984L819.467,197.855L819.934,203.061L820.402,204.808L821.805,209.002L822.272,203.698L822.74,210.431L823.675,212.85L825.078,203.974L825.545,206.039L826.013,199.673L826.948,195.62L827.416,194.369L828.818,192.027L829.286,193.484L829.754,194.8L830.221,193.69L830.689,191.596L831.624,192.855L832.091,194.998L832.559,201.095L833.027,201.979L833.494,200.508L834.897,199.666L835.364,189.948L835.832,189.601L836.3,188.109L836.767,184.657L838.637,182.465L839.105,185.216L839.573,183.462L840.04,183.547L842.378,179.141L842.846,177.577L843.313,174.331L843.781,171.24L845.184,171.714L845.184,170.646L845.651,171.134L846.119,171.954L846.586,173.072L848.457,169.613L848.924,166.494L849.392,167.456L849.859,172.725L851.262,167.697L851.73,172.648L852.197,154.081L852.665,155.517L853.132,153.643L854.535,149.59L855.003,147.136L855.938,147.341L856.405,148.098L856.873,144.872L858.276,141.838L858.743,138.401L859.211,132.848L859.678,121.185L859.678,121.008L861.081,114.515L861.549,109.663L862.016,118.002L862.484,114.791L862.951,114.855L864.822,105.851L865.289,107.131L865.757,104.762L866.224,100.504L867.627,98.134L868.095,91.309L868.562,86.337L869.497,84.901L869.965,84.399L871.368,92.901L871.835,94.952L872.303,94.648L872.77,86.655L873.238,84.406L874.173,79.575L874.641,68.188L875.108,52.995L875.576,55.838L876.043,55.831L877.446,44.847L877.914,41.41L878.381,43.857L878.849,46.092L879.316,48.419L880.719,40.688L881.167,35.384L881.635,33.163L882.102,38.651L882.57,45.943L884.44,32.448L884.908,24.887L885.375,28.431L885.843,21.804L887.713,20L887.713,25.51L888.181,27.094L888.649,29.52L889.116,41.926L890.519,59.679L890.986,38.764L891.454,39.726L891.922,54.509L892.389,64.736L893.792,65.642L894.259,73.719L894.727,38.552L895.195,40.179L895.662,43.503L897.065,56.956L898,58.264L898,470L897.065,470L895.662,470L895.195,470L894.727,470L894.259,470L893.792,470L892.389,470L891.922,470L891.454,470L890.986,470L890.519,470L889.116,470L888.649,470L888.181,470L887.713,470L887.713,470L885.843,470L885.375,470L884.908,470L884.44,470L882.57,470L882.102,470L881.635,470L881.167,470L880.719,470L879.316,470L878.849,470L878.381,470L877.914,470L877.446,470L876.043,470L875.576,470L875.108,470L874.641,470L874.173,470L873.238,470L872.77,470L872.303,470L871.835,470L871.368,470L869.965,470L869.497,470L868.562,470L868.095,470L867.627,470L866.224,470L865.757,470L865.289,470L864.822,470L862.951,470L862.484,470L862.016,470L861.549,470L861.081,470L859.678,470L859.678,470L859.211,470L858.743,470L858.276,470L856.873,470L856.405,470L855.938,470L855.003,470L854.535,470L853.132,470L852.665,470L852.197,470L851.73,470L851.262,470L849.859,470L849.392,470L848.924,470L848.457,470L846.586,470L846.119,470L845.651,470L845.184,470L845.184,470L843.781,470L843.313,470L842.846,470L842.378,470L840.04,470L839.573,470L839.105,470L838.637,470L836.767,470L836.3,470L835.832,470L835.364,470L834.897,470L833.494,470L833.027,470L832.559,470L832.091,470L831.624,470L830.689,470L830.221,470L829.754,470L829.286,470L828.818,470L827.416,470L826.948,470L826.013,470L825.545,470L825.078,470L823.675,470L822.74,470L822.272,470L821.805,470L820.402,470L819.934,470L819.467,470L818.999,470L818.532,470L817.129,470L816.661,470L816.661,470L816.194,470L815.726,470L814.324,470L813.856,470L813.388,470L812.921,470L811.966,470L810.563,470L810.096,470L809.628,470L809.161,470L808.693,470L807.29,470L806.823,470L806.355,470L805.888,470L805.42,470L804.017,470L803.55,470L803.082,470L802.615,470L802.147,470L801.212,470L800.744,470L800.277,470L799.809,470L799.342,470L797.471,470L797.004,470L796.536,470L796.069,470L795.601,470L794.198,470L793.731,470L793.263,470L792.796,470L792.328,470L790.925,470L790.458,470L789.99,470L789.523,470L789.055,470L788.12,470L787.652,470L787.185,470L786.717,470L784.847,470L784.379,470L783.444,470L782.977,470L782.509,470L781.106,470L780.639,470L780.171,470L779.704,470L779.236,470L777.833,470L777.366,470L776.898,470L776.431,470L775.963,470L774.56,470L774.093,470L773.625,470L773.625,470L773.157,470L771.755,470L771.287,470L770.82,470L770.352,470L769.884,470L768.014,470L767.547,470L767.079,470L766.611,470L766.144,470L764.741,470L764.274,470L763.806,470L763.338,470L762.871,470L761.468,470L761.001,470L760.533,470L760.065,470L759.598,470L758.663,470L758.195,470L757.728,470L757.26,470L755.39,470L754.454,470L753.987,470L753.519,470L753.052,470L751.649,470L751.181,470L750.714,470L750.246,470L749.779,470L748.376,470L747.908,470L747.441,470L746.973,470L746.506,470L745.103,470L745.103,470L744.635,470L744.168,470L743.7,470L742.298,470L741.83,470L741.362,470L740.427,470L738.557,470L738.089,470L737.622,470L737.154,470L736.687,470L735.284,470L734.816,470L734.349,470L733.881,470L733.414,470L732.011,470L731.543,470L731.076,470L730.608,470L730.608,470L729.205,470L728.738,470L728.27,470L727.803,470L727.335,470L725.465,470L724.997,470L724.53,470L724.062,470L723.595,470L721.724,470L721.257,470L720.789,470L720.322,470L718.919,470L718.451,470L717.984,470L717.516,470L717.049,470L716.113,470L715.646,470L715.178,470L714.711,470L714.243,470L712.84,470L711.905,470L711.438,470L710.97,470L710.522,470L709.119,470L708.652,470L708.184,470L707.716,470L707.249,470L705.846,470L705.379,470L704.911,470L704.443,470L703.976,470L702.573,470L702.106,470L702.106,470L701.638,470L701.17,470L699.768,470L699.3,470L698.833,470L698.365,470L697.43,470L696.027,470L695.56,470L695.092,470L694.624,470L692.754,470L692.287,470L691.819,470L691.351,470L690.884,470L689.481,470L689.013,470L689.013,470L688.546,470L688.078,470L686.676,470L686.208,470L685.74,470L685.273,470L684.338,470L682.935,470L682.467,470L682,470L681.532,470L681.065,470L679.662,470L679.194,470L678.727,470L678.259,470L676.389,470L675.921,470L675.454,470L674.986,470L674.519,470L673.584,470L673.116,470L672.648,470L672.181,470L671.713,470L669.843,470L669.375,470L668.908,470L668.44,470L667.973,470L666.102,470L665.635,470L665.167,470L664.7,470L663.297,470L662.829,470L662.362,470L661.894,470L661.427,470L660.024,470L660.024,470L659.556,470L659.089,470L658.621,470L657.218,470L656.751,470L656.283,470L655.348,470L654.881,470L653.478,470L652.543,470L652.075,470L651.607,470L650.205,470L649.737,470L649.27,470L648.802,470L648.334,470L646.932,470L646.464,470L645.997,470L645.997,470L645.529,470L644.126,470L643.659,470L643.191,470L642.724,470L642.256,470L640.366,470L639.899,470L639.431,470L638.963,470L638.496,470L637.093,470L636.626,470L636.158,470L635.69,470L635.223,470L633.82,470L633.353,470L632.885,470L632.417,470L631.95,470L631.015,470L630.547,470L630.08,470L629.612,470L629.144,470L627.742,470L626.807,470L626.339,470L625.871,470L625.404,470L624.001,470L623.534,470L623.066,470L622.598,470L622.131,470L620.728,470L620.26,470L619.793,470L619.325,470L618.858,470L617.455,470L617.455,470L616.987,470L616.52,470L616.052,470L614.65,470L614.182,470L613.714,470L612.779,470L612.312,470L610.909,470L610.441,470L609.974,470L609.506,470L609.039,470L607.636,470L607.168,470L606.701,470L606.233,470L605.766,470L604.363,470L603.895,470L603.428,470L602.96,470L602.96,470L601.557,470L601.09,470L600.622,470L600.155,470L599.687,470L597.817,470L597.349,470L596.882,470L596.414,470L595.947,470L594.544,470L594.076,470L593.609,470L593.141,470L592.674,470L591.271,470L590.803,470L590.336,470L589.868,470L589.401,470L588.465,470L587.998,470L587.53,470L587.063,470L586.595,470L585.192,470L584.725,470L583.79,470L583.322,470L582.854,470L581.452,470L580.984,470L580.517,470L580.049,470L579.581,470L578.179,470L577.711,470L577.244,470L576.776,470L576.308,470L574.906,470L574.438,470L574.438,470L573.971,470L573.503,470L572.1,470L571.633,470L571.165,470L570.698,470L569.762,470L568.36,470L567.892,470L567.425,470L566.957,470L566.489,470L565.087,470L564.619,470L564.151,470L563.684,470L563.216,470L561.814,470L561.346,470L560.878,470L560.411,470L559.943,470L559.008,470L558.541,470L558.073,470L557.605,470L557.138,470L555.268,470L554.8,470L554.332,470L553.865,470L553.397,470L551.995,470L551.527,470L551.059,470L550.592,470L550.124,470L548.722,470L548.254,470L547.786,470L547.319,470L546.851,470L545.916,470L545.449,470L544.981,470L544.513,470L544.046,470L542.643,470L542.175,470L541.24,470L540.773,470L540.325,470L538.922,470L538.454,470L537.987,470L537.519,470L537.052,470L535.649,470L535.181,470L534.714,470L534.246,470L533.779,470L532.376,470L531.908,470L531.441,470L531.441,470L530.973,470L529.57,470L529.103,470L528.635,470L528.168,470L527.7,470L525.83,470L525.362,470L524.895,470L524.427,470L523.96,470L522.557,470L522.089,470L521.622,470L521.154,470L520.687,470L519.284,470L518.816,470L518.349,470L518.349,470L517.881,470L516.478,470L516.011,470L515.543,470L515.076,470L514.608,470L512.738,470L512.27,470L511.803,470L511.335,470L510.867,470L509.465,470L508.997,470L508.53,470L508.062,470L507.594,470L506.192,470L505.724,470L505.257,470L504.789,470L504.321,470L503.386,470L502.919,470L502.451,470L501.984,470L501.516,470L500.113,470L499.178,470L498.71,470L498.243,470L497.775,470L496.373,470L495.905,470L495.437,470L494.97,470L494.502,470L493.1,470L492.632,470L492.164,470L491.697,470L491.229,470L489.827,470L489.359,470L489.359,470L488.891,470L488.424,470L487.021,470L486.554,470L486.086,470L485.618,470L484.683,470L483.281,470L482.813,470L482.345,470L481.878,470L481.41,470L480.007,470L479.54,470L479.072,470L478.605,470L478.137,470L476.734,470L476.267,470L475.799,470L475.332,470L475.332,470L473.929,470L473.461,470L472.994,470L472.526,470L472.059,470L470.188,470L469.721,470L469.253,470L468.786,470L468.299,470L466.896,470L466.428,470L465.961,470L465.493,470L465.026,470L463.623,470L463.155,470L462.688,470L462.22,470L461.753,470L460.817,470L460.35,470L459.882,470L459.415,470L458.947,470L457.544,470L457.077,470L456.142,470L455.674,470L455.207,470L453.804,470L453.336,470L452.869,470L452.401,470L451.934,470L450.531,470L450.063,470L449.596,470L449.128,470L448.66,470L447.258,470L446.79,470L446.79,470L446.323,470L444.452,470L443.985,470L443.517,470L443.05,470L442.114,470L440.712,470L440.244,470L439.777,470L439.309,470L438.841,470L437.439,470L436.971,470L436.504,470L436.036,470L435.568,470L434.166,470L433.698,470L433.231,470L432.295,470L431.36,470L430.893,470L430.425,470L429.957,470L429.49,470L427.62,470L427.152,470L426.684,470L426.217,470L425.749,470L424.347,470L423.879,470L423.411,470L422.944,470L422.476,470L421.074,470L420.606,470L420.138,470L419.671,470L419.203,470L417.801,470L417.801,470L417.333,470L416.865,470L416.398,470L414.995,470L414.528,470L414.06,470L413.125,470L412.657,470L411.254,470L410.787,470L410.319,470L409.852,470L409.384,470L407.981,470L407.514,470L407.046,470L406.579,470L406.111,470L404.708,470L404.241,470L403.773,470L403.773,470L403.306,470L401.903,470L401.435,470L400.968,470L400.5,470L400.033,470L398.162,470L397.695,470L397.227,470L396.76,470L394.889,470L394.422,470L393.954,470L393.487,470L393.019,470L391.616,470L391.149,470L390.681,470L390.214,470L389.746,470L388.811,470L388.343,470L387.876,470L387.408,470L386.941,470L385.538,470L384.603,470L384.135,470L383.668,470L383.2,470L381.797,470L381.33,470L380.862,470L380.395,470L379.927,470L378.524,470L378.057,470L377.589,470L377.122,470L376.654,470L375.251,470L375.251,470L374.784,470L374.316,470L373.849,470L372.446,470L371.978,470L371.511,470L370.575,470L370.127,470L368.725,470L368.257,470L367.79,470L367.322,470L366.854,470L365.452,470L364.984,470L364.516,470L364.049,470L363.581,470L362.179,470L361.711,470L361.243,470L360.776,470L360.776,470L359.373,470L358.906,470L358.438,470L357.97,470L357.503,470L355.633,470L355.165,470L354.697,470L354.23,470L353.762,470L352.36,470L351.892,470L351.424,470L350.957,470L349.087,470L348.619,470L348.151,470L347.684,470L347.684,470L346.281,470L345.813,470L345.346,470L344.878,470L344.411,470L342.54,470L342.073,470L341.605,470L341.138,470L340.67,470L339.267,470L338.8,470L338.332,470L337.865,470L335.994,470L335.527,470L335.059,470L334.592,470L334.124,470L333.189,470L332.721,470L332.254,470L331.786,470L331.319,470L329.916,470L329.448,470L328.513,470L328.046,470L327.578,470L326.175,470L325.708,470L325.24,470L324.773,470L324.305,470L322.902,470L322.435,470L321.967,470L321.5,470L321.032,470L319.629,470L319.162,470L318.694,470L318.694,470L318.227,470L316.824,470L316.356,470L315.889,470L315.421,470L314.954,470L313.083,470L312.616,470L312.148,470L311.681,470L311.213,470L309.81,470L309.343,470L308.875,470L308.407,470L307.94,470L306.537,470L306.07,470L305.602,470L305.134,470L304.667,470L303.732,470L303.264,470L302.797,470L302.329,470L301.861,470L299.991,470L299.524,470L299.056,470L298.588,470L298.101,470L296.699,470L296.231,470L295.763,470L295.296,470L294.828,470L293.426,470L292.958,470L292.49,470L292.023,470L291.555,470L290.153,470L290.153,470L289.685,470L289.217,470L288.75,470L287.347,470L286.88,470L286.412,470L285.477,470L285.009,470L283.607,470L283.139,470L282.671,470L282.204,470L281.736,470L280.334,470L279.866,470L279.398,470L278.931,470L278.463,470L277.06,470L276.593,470L276.125,470L276.125,470L275.658,470L274.255,470L273.787,470L273.32,470L272.852,470L270.514,470L270.047,470L269.579,470L269.112,470L268.644,470L267.241,470L266.774,470L266.306,470L265.839,470L265.371,470L263.968,470L263.501,470L263.033,470L262.566,470L262.098,470L261.163,470L260.695,470L260.228,470L259.76,470L259.293,470L257.89,470L256.955,470L256.487,470L256.02,470L255.552,470L254.149,470L253.682,470L253.214,470L252.747,470L252.279,470L250.876,470L250.409,470L249.941,470L249.474,470L249.006,470L247.603,470L247.136,470L247.136,470L246.668,470L246.201,470L244.33,470L243.863,470L243.395,470L242.46,470L241.057,470L240.59,470L240.122,470L239.654,470L239.187,470L237.784,470L237.317,470L236.849,470L236.381,470L235.914,470L234.511,470L234.044,470L233.576,470L233.108,470L233.108,470L231.706,470L231.238,470L230.771,470L230.303,470L229.835,470L227.965,470L227.498,470L227.03,470L226.562,470L224.692,470L224.225,470L223.757,470L223.289,470L222.822,470L221.419,470L220.951,470L220.484,470L220.016,470L219.549,470L218.614,470L218.146,470L217.678,470L217.211,470L216.743,470L215.341,470L214.873,470L213.938,470L213.47,470L213.003,470L211.6,470L211.132,470L210.665,470L210.197,470L209.73,470L208.327,470L207.859,470L207.392,470L206.924,470L206.457,470L205.054,470L204.586,470L204.586,470L204.119,470L203.651,470L202.249,470L201.781,470L201.313,470L200.846,470L199.93,470L198.527,470L198.06,470L197.592,470L197.125,470L196.657,470L194.787,470L194.319,470L193.852,470L193.384,470L191.981,470L191.514,470L191.046,470L190.579,470L190.111,470L189.176,470L188.708,470L188.241,470L187.773,470L187.306,470L185.435,470L184.968,470L184.5,470L184.033,470L183.565,470L182.162,470L181.695,470L181.227,470L180.76,470L178.889,470L178.422,470L177.954,470L177.487,470L177.019,470L176.084,470L175.616,470L175.149,470L174.681,470L174.213,470L172.811,470L171.876,470L171.408,470L170.94,470L170.473,470L169.07,470L168.603,470L168.135,470L167.667,470L165.797,470L165.33,470L164.862,470L164.394,470L163.927,470L162.524,470L162.057,470L162.057,470L161.589,470L161.121,470L159.719,470L159.251,470L158.784,470L157.381,470L155.978,470L155.51,470L155.043,470L154.108,470L152.705,470L152.237,470L151.77,470L151.302,470L150.835,470L149.432,470L148.964,470L148.497,470L148.029,470L147.562,470L146.627,470L146.159,470L145.691,470L145.224,470L144.756,470L142.886,470L142.418,470L141.951,470L141.483,470L141.016,470L139.613,470L138.678,470L138.21,470L137.743,470L136.34,470L135.872,470L135.405,470L134.937,470L134.47,470L133.534,470L133.067,470L132.599,470L132.132,470L131.664,470L130.261,470L129.794,470L128.859,470L128.391,470L127.904,470L126.501,470L126.034,470L125.566,470L125.099,470L124.631,470L123.228,470L122.761,470L122.293,470L121.826,470L121.358,470L119.955,470L119.488,470L119.02,470L119.02,470L118.553,470L117.15,470L116.682,470L116.215,470L115.747,470L115.28,470L113.409,470L112.942,470L112.474,470L112.007,470L111.539,470L110.136,470L109.669,470L109.201,470L108.734,470L108.266,470L106.863,470L106.396,470L105.928,470L105.46,470L104.993,470L104.058,470L103.59,470L103.123,470L102.655,470L100.317,470L99.85,470L99.382,470L98.914,470L98.447,470L97.044,470L96.577,470L96.109,470L95.641,470L95.174,470L93.771,470L93.304,470L92.836,470L92.368,470L91.901,470L90.498,470L90.498,470L90.031,470L89.563,470L89.095,470L87.693,470L87.225,470L86.757,470L85.822,470L85.355,470L83.952,470L83.484,470L83.017,470L82.549,470L82.082,470L80.679,470L80.211,470L79.744,470L79.276,470L78.809,470L77.406,470L76.938,470L76.471,470L76.003,470L76.003,470L74.601,470L74.133,470L73.198,470L72.73,470L70.86,470L70.392,470L69.925,470L69.457,470L68.99,470L67.587,470L67.119,470L66.652,470L66.184,470L65.717,470L64.314,470L63.846,470L63.379,470L62.911,470L62.444,470L61.508,470L61.041,470L60.573,470L60.106,470L59.638,470L58.235,470L57.3,470L56.833,470L56.365,470L54.495,470L54.027,470L53.56,470L53.092,470L52.625,470L51.222,470L50.754,470L50.287,470L49.819,470L49.351,470L47.949,470L47.481,470L47.481,470L47.014,470L46.546,470L45.143,470L44.676,470L44.208,470L43.741,470L42.805,470L41.403,470L40.935,470L40.468,470L40,470Z"/><g transform="translate(0, 470)" fill="none" font-size="10" font-family="sans-serif" text-anchor="middle"><path class="domain" stroke="currentColor" d="M40.5,0.5H898.5"/><g class="tick" opacity="1" transform="translate(72.76267029972752, 0)"><line stroke="currentColor" y2="6"/><text fill="currentColor" y="9" dy="0.71em">July</text></g><g class="tick" opacity="1" transform="translate(115.77956403269755, 0)"><line stroke="currentColor" y2="6"/><text fill="currentColor" y="9" dy="0.71em">October</text></g><g class="tick" opacity="1" transform="translate(158.8159400544959, 0)"><line stroke="currentColor" y2="6"/><text fill="currentColor" y="9" dy="0.71em">2008</text></g><g class="tick" opacity="1" transform="translate(201.3457765667575, 0)"><line stroke="currentColor" y2="6"/><text fill="currentColor" y="9" dy="0.71em">April</text></g><g class="tick" opacity="1" transform="translate(243.8950953678474, 0)"><line stroke="currentColor" y2="6"/><text fill="currentColor" y="9" dy="0.71em">July</text></g><g class="tick" opacity="1" transform="translate(286.91198910081744, 0)"><line stroke="currentColor" y2="6"/><text fill="currentColor" y="9" dy="0.71em">October</text></g><g class="tick" opacity="1" transform="translate(329.9483651226158, 0)"><line stroke="currentColor" y2="6"/><text fill="currentColor" y="9" dy="0.71em">2009</text></g><g class="tick" opacity="1" transform="translate(372.01062670299723, 0)"><line stroke="currentColor" y2="6"/><text fill="currentColor" y="9" dy="0.71em">April</text></g><g class="tick" opacity="1" transform="translate(414.5599455040872, 0)"><line stroke="currentColor" y2="6"/><text fill="currentColor" y="9" dy="0.71em">July</text></g><g class="tick" opacity="1" transform="translate(457.57683923705724, 0)"><line stroke="currentColor" y2="6"/><text fill="currentColor" y="9" dy="0.71em">October</text></g><g class="tick" opacity="1" transform="translate(500.6132152588556, 0)"><line stroke="currentColor" y2="6"/><text fill="currentColor" y="9" dy="0.71em">2010</text></g><g class="tick" opacity="1" transform="translate(542.675476839237, 0)"><line stroke="currentColor" y2="6"/><text fill="currentColor" y="9" dy="0.71em">April</text></g><g class="tick" opacity="1" transform="translate(585.2247956403271, 0)"><line stroke="currentColor" y2="6"/><text fill="currentColor" y="9" dy="0.71em">July</text></g><g class="tick" opacity="1" transform="translate(628.241689373297, 0)"><line stroke="currentColor" y2="6"/><text fill="currentColor" y="9" dy="0.71em">October</text></g><g class="tick" opacity="1" transform="translate(671.2780653950954, 0)"><line stroke="currentColor" y2="6"/><text fill="currentColor" y="9" dy="0.71em">2011</text></g><g class="tick" opacity="1" transform="translate(713.3403269754768, 0)"><line stroke="currentColor" y2="6"/><text fill="currentColor" y="9" dy="0.71em">April</text></g><g class="tick" opacity="1" transform="translate(755.8896457765668, 0)"><line stroke="currentColor" y2="6"/><text fill="currentColor" y="9" dy="0.71em">July</text></g><g class="tick" opacity="1" transform="translate(798.9065395095367, 0)"><line stroke="currentColor" y2="6"/><text fill="currentColor" y="9" dy="0.71em">October</text></g><g class="tick" opacity="1" transform="translate(841.9429155313351, 0)"><line stroke="currentColor" y2="6"/><text fill="currentColor" y="9" dy="0.71em">2012</text></g><g class="tick" opacity="1" transform="translate(884.4727520435968, 0)"><line stroke="currentColor" y2="6"/><text fill="currentColor" y="9" dy="0.71em">April</text></g></g><g transform="translate(40, 0)" fill="none" font-size="10" font-family="sans-serif" text-anchor="end"><g class="tick" opacity="1" transform="translate(0, 470.5)"><line stroke="currentColor" x2="858" stroke-opacity="0.1"/><line stroke="currentColor" x2="-6"/><text fill="currentColor" x="-9" dy="0.32em">0</text></g><g class="tick" opacity="1" transform="translate(0, 435.13543058327963)"><line stroke="currentColor" x2="858" stroke-opacity="0.1"/><line stroke="currentColor" x2="-6"/><text fill="currentColor" x="-9" dy="0.32em">50</text></g><g class="tick" opacity="1" transform="translate(0, 399.77086116655926)"><line stroke="currentColor" x2="858" stroke-opacity="0.1"/><line stroke="currentColor" x2="-6"/><text fill="currentColor" x="-9" dy="0.32em">100</text></g><g class="tick" opacity="1" transform="translate(0, 364.40629174983894)"><line stroke="currentColor" x2="858" stroke-opacity="0.1"/><line stroke="currentColor" x2="-6"/><text fill="currentColor" x="-9" dy="0.32em">150</text></g><g class="tick" opacity="1" transform="translate(0, 329.04172233311857)"><line stroke="currentColor" x2="858" stroke-opacity="0.1"/><line stroke="currentColor" x2="-6"/><text fill="currentColor" x="-9" dy="0.32em">200</text></g><g class="tick" opacity="1" transform="translate(0, 293.6771529163982)"><line stroke="currentColor" x2="858" stroke-opacity="0.1"/><line stroke="currentColor" x2="-6"/><text fill="currentColor" x="-9" dy="0.32em">250</text></g><g class="tick" opacity="1" transform="translate(0, 258.31258349967777)"><line stroke="currentColor" x2="858" stroke-opacity="0.1"/><line stroke="currentColor" x2="-6"/><text fill="currentColor" x="-9" dy="0.32em">300</text></g><g class="tick" opacity="1" transform="translate(0, 222.94801408295743)"><line stroke="currentColor" x2="858" stroke-opacity="0.1"/><line stroke="currentColor" x2="-6"/><text fill="currentColor" x="-9" dy="0.32em">350</text></g><g class="tick" opacity="1" transform="translate(0, 187.58344466623706)"><line stroke="currentColor" x2="858" stroke-opacity="0.1"/><line stroke="currentColor" x2="-6"/><text fill="currentColor" x="-9" dy="0.32em">400</text></g><g class="tick" opacity="1" transform="translate(0, 152.2188752495167)"><line stroke="currentColor" x2="858" stroke-opacity="0.1"/><line stroke="currentColor" x2="-6"/><text fill="currentColor" x="-9" dy="0.32em">450</text></g><g class="tick" opacity="1" transform="translate(0, 116.85430583279633)"><line stroke="currentColor" x2="858" stroke-opacity="0.1"/><line stroke="currentColor" x2="-6"/><text fill="currentColor" x="-9" dy="0.32em">500</text></g><g class="tick" opacity="1" transform="translate(0, 81.48973641607594)"><line stroke="currentColor" x2="858" stroke-opacity="0.1"/><line stroke="currentColor" x2="-6"/><text fill="currentColor" x="-9" dy="0.32em">550</text></g><g class="tick" opacity="1" transform="translate(0, 46.1251669993556)"><line stroke="currentColor" x2="858" stroke-opacity="0.1"/><line stroke="currentColor" x2="-6"/><text fill="currentColor" x="-9" dy="0.32em">600</text></g><text x="-40" y="10" fill="currentColor" text-anchor="start">&#8593; Daily close ($)</text></g></svg>