<svg xmlns="http://www.w3.org/2000/svg" width="810" height="240.0" viewBox="0 0 810 240.0"><rect x="5" y="0" width="800" height="240.0" fill="#d4d4d1"/><g class="xlines"><line x1="25.0" y1="240.0" x2="25.0" y2="0.0" stroke="#f8f8f8"/><line x1="45.0" y1="240.0" x2="45.0" y2="0.0" stroke="#f8f8f8"/><line x1="65.0" y1="240.0" x2="65.0" y2="0.0" stroke="#f8f8f8"/><line x1="85.0" y1="240.0" x2="85.0" y2="0.0" stroke="#f8f8f8"/><line x1="105.0" y1="240.0" x2="105.0" y2="0.0" stroke="#f8f8f8"/><line x1="125.0" y1="240.0" x2="125.0" y2="0.0" stroke="#f8f8f8"/><line x1="145.0" y1="240.0" x2="145.0" y2="0.0" stroke="#f8f8f8"/><line x1="165.0" y1="240.0" x2="165.0" y2="0.0" stroke="#f8f8f8"/><line x1="185.0" y1="240.0" x2="185.0" y2="0.0" stroke="#f8f8f8"/><line x1="205.0" y1="240.0" x2="205.0" y2="0.0" stroke="#f8f8f8"/><line x1="225.00000000000003" y1="240.0" x2="225.00000000000003" y2="0.0" stroke="#f8f8f8"/><line x1="245.0" y1="240.0" x2="245.0" y2="0.0" stroke="#f8f8f8"/><line x1="265.0" y1="240.0" x2="265.0" y2="0.0" stroke="#f8f8f8"/><line x1="285.0" y1="240.0" x2="285.0" y2="0.0" stroke="#f8f8f8"/><line x1="305.0" y1="240.0" x2="305.0" y2="0.0" stroke="#f8f8f8"/><line x1="325.0" y1="240.0" x2="325.0" y2="0.0" stroke="#f8f8f8"/><line x1="345.0" y1="240.0" x2="345.0" y2="0.0" stroke="#f8f8f8"/><line x1="365.0" y1="240.0" x2="365.0" y2="0.0" stroke="#f8f8f8"/><line x1="385.0" y1="240.0" x2="385.0" y2="0.0" stroke="#f8f8f8"/><line x1="405.0" y1="240.0" x2="405.0" y2="0.0" stroke="#f8f8f8"/><line x1="425.0" y1="240.0" x2="425.0" y2="0.0" stroke="#f8f8f8"/><line x1="445.00000000000006" y1="240.0" x2="445.00000000000006" y2="0.0" stroke="#f8f8f8"/><line x1="464.99999999999994" y1="240.0" x2="464.99999999999994" y2="0.0" stroke="#f8f8f8"/><line x1="485.0" y1="240.0" x2="485.0" y2="0.0" stroke="#f8f8f8"/><line x1="505.0" y1="240.0" x2="505.0" y2="0.0" stroke="#f8f8f8"/><line x1="525.0" y1="240.0" x2="525.0" y2="0.0" stroke="#f8f8f8"/><line x1="545.0" y1="240.0" x2="545.0" y2="0.0" stroke="#f8f8f8"/><line x1="565.0" y1="240.0" x2="565.0" y2="0.0" stroke="#f8f8f8"/><line x1="585.0" y1="240.0" x2="585.0" y2="0.0" stroke="#f8f8f8"/><line x1="605.0" y1="240.0" x2="605.0" y2="0.0" stroke="#f8f8f8"/><line x1="625.0" y1="240.0" x2="625.0" y2="0.0" stroke="#f8f8f8"/><line x1="645.0" y1="240.0" x2="645.0" y2="0.0" stroke="#f8f8f8"/><line x1="665.0" y1="240.0" x2="665.0" y2="0.0" stroke="#f8f8f8"/><line x1="685.0" y1="240.0" x2="685.0" y2="0.0" stroke="#f8f8f8"/><line x1="705.0" y1="240.0" x2="705.0" y2="0.0" stroke="#f8f8f8"/><line x1="725.0" y1="240.0" x2="725.0" y2="0.0" stroke="#f8f8f8"/><line x1="745.0" y1="240.0" x2="745.0" y2="0.0" stroke="#f8f8f8"/><line x1="765.0" y1="240.0" x2="765.0" y2="0.0" stroke="#f8f8f8"/><line x1="785.0" y1="240.0" x2="785.0" y2="0.0" stroke="#f8f8f8"/></g><g class="ylines"><line x1="5.0" y1="220.0" x2="805.0" y2="220.0" stroke="#f8f8f8"/><line x1="5.0" y1="200.0" x2="805.0" y2="200.0" stroke="#f8f8f8"/><line x1="5.0" y1="180.0" x2="805.0" y2="180.0" stroke="#f8f8f8"/><line x1="5.0" y1="160.00000000000003" x2="805.0" y2="160.00000000000003" stroke="#f8f8f8"/><line x1="5.0" y1="139.99999999999997" x2="805.0" y2="139.99999999999997" stroke="#f8f8f8"/><line x1="5.0" y1="120.0" x2="805.0" y2="120.0" stroke="#f8f8f8"/><line x1="5.0" y1="99.99999999999999" x2="805.0" y2="99.99999999999999" stroke="#f8f8f8"/><line x1="5.0" y1="80.00000000000001" x2="805.0" y2="80.00000000000001" stroke="#f8f8f8"/><line x1="5.0" y1="60.0" x2="805.0" y2="60.0" stroke="#f8f8f8"/><line x1="5.0" y1="39.99999999999999" x2="805.0" y2="39.99999999999999" stroke="#f8f8f8"/><line x1="5.0" y1="20.000000000000007" x2="805.0" y2="20.000000000000007" stroke="#f8f8f8"/></g><g class="ease"><path d="M5,240L8.200,239.996L11.400,239.985L14.600,239.965L17.800,239.939L21,239.904L24.200,239.862L27.400,239.812L30.600,239.754L33.800,239.689L37,239.615L40.200,239.534L43.400,239.446L46.600,239.349L49.800,239.245L53,239.133L56.200,239.013L59.400,238.885L62.600,238.749L65.800,238.606L69,238.454L72.200,238.294L75.400,238.127L78.600,237.951L81.800,237.767L85,237.576L88.200,237.375L91.400,237.167L94.600,236.951L97.800,236.726L101,236.493L104.200,236.251L107.400,236.001L110.600,235.743L113.800,235.476L117,235.200L120.200,234.916L123.400,234.623L126.600,234.321L129.800,234.010L133,233.690L136.200,233.361L139.400,233.023L142.600,232.676L145.800,232.320L149,231.954L152.200,231.579L155.400,231.194L158.600,230.800L161.800,230.396L165,229.982L168.200,229.558L171.400,229.124L174.600,228.679L177.800,228.225L181,227.760L184.200,227.284L187.400,226.798L190.600,226.300L193.800,225.792L197,225.272L200.200,224.741L203.400,224.199L206.600,223.644L209.800,223.078L213,222.500L216.200,221.909L219.400,221.306L222.600,220.690L225.800,220.061L229,219.419L232.200,218.763L235.400,218.094L238.600,217.410L241.800,216.713L245,216L248.200,215.272L251.400,214.530L254.600,213.771L257.800,212.996L261,212.205L264.200,211.397L267.400,210.571L270.600,209.728L273.800,208.866L277,207.985L280.200,207.085L283.400,206.165L286.600,205.224L289.800,204.262L293,203.277L296.200,202.269L299.400,201.238L302.600,200.182L305.800,199.100L309,197.991L312.200,196.854L315.400,195.688L318.600,194.491L321.800,193.263L325,192L328.200,190.702L331.400,189.366L334.600,187.991L337.800,186.573L341,185.110L344.200,183.600L347.400,182.037L350.600,180.419L353.800,178.741L357,176.997L360.200,175.181L363.400,173.286L366.600,171.304L369.800,169.223L373,167.030L376.200,164.710L379.400,162.240L382.600,159.593L385.800,156.732L389,153.600L392.200,150.114L395.400,146.132L398.600,141.380L401.800,135.149L405,120L408.200,104.851L411.400,98.620L414.600,93.868L417.800,89.886L421,86.400L424.200,83.268L427.400,80.407L430.600,77.760L433.800,75.290L437,72.970L440.200,70.777L443.400,68.696L446.600,66.714L449.800,64.819L453,63.003L456.200,61.259L459.400,59.581L462.600,57.963L465.800,56.400L469,54.890L472.200,53.427L475.400,52.009L478.600,50.634L481.800,49.298L485,48L488.200,46.737L491.400,45.509L494.600,44.312L497.800,43.146L501,42.009L504.200,40.900L507.400,39.818L510.600,38.762L513.800,37.731L517,36.723L520.200,35.738L523.400,34.776L526.600,33.835L529.800,32.915L533,32.015L536.200,31.134L539.400,30.272L542.600,29.429L545.800,28.603L549,27.795L552.200,27.004L555.400,26.229L558.600,25.470L561.800,24.728L565,24L568.200,23.287L571.400,22.590L574.600,21.906L577.800,21.237L581,20.581L584.200,19.939L587.400,19.310L590.600,18.694L593.800,18.091L597,17.500L600.200,16.922L603.400,16.356L606.600,15.801L609.800,15.259L613,14.728L616.200,14.208L619.400,13.700L622.600,13.202L625.800,12.716L629,12.240L632.200,11.775L635.400,11.321L638.600,10.876L641.800,10.442L645,10.018L648.200,9.604L651.400,9.200L654.600,8.806L657.800,8.421L661,8.046L664.200,7.680L667.400,7.324L670.600,6.977L673.800,6.639L677,6.310L680.200,5.990L683.400,5.679L686.600,5.377L689.800,5.084L693,4.800L696.200,4.524L699.400,4.257L702.600,3.999L705.800,3.749L709,3.507L712.200,3.274L715.400,3.049L718.600,2.833L721.800,2.625L725,2.424L728.200,2.233L731.400,2.049L734.600,1.873L737.800,1.706L741,1.546L744.200,1.394L747.400,1.251L750.600,1.115L753.800,0.987L757,0.867L760.200,0.755L763.400,0.651L766.600,0.554L769.800,0.466L773,0.385L776.200,0.311L779.400,0.246L782.600,0.188L785.800,0.138L789,0.096L792.200,0.061L795.400,0.035L798.600,0.015L801.800,0.004L805,0" stroke="black" fill="none"/></g></svg>