<svg xmlns="http://www.w3.org/2000/svg" width="810" height="240.0" viewBox="0 0 810 240.0"><rect x="5" y="0" width="800" height="240.0" fill="#d4d4d1"/><g class="xlines"><line x1="25.0" y1="240.0" x2="25.0" y2="0.0" stroke="#f8f8f8"/><line x1="45.0" y1="240.0" x2="45.0" y2="0.0" stroke="#f8f8f8"/><line x1="65.0" y1="240.0" x2="65.0" y2="0.0" stroke="#f8f8f8"/><line x1="85.0" y1="240.0" x2="85.0" y2="0.0" stroke="#f8f8f8"/><line x1="105.0" y1="240.0" x2="105.0" y2="0.0" stroke="#f8f8f8"/><line x1="125.0" y1="240.0" x2="125.0" y2="0.0" stroke="#f8f8f8"/><line x1="145.0" y1="240.0" x2="145.0" y2="0.0" stroke="#f8f8f8"/><line x1="165.0" y1="240.0" x2="165.0" y2="0.0" stroke="#f8f8f8"/><line x1="185.0" y1="240.0" x2="185.0" y2="0.0" stroke="#f8f8f8"/><line x1="205.0" y1="240.0" x2="205.0" y2="0.0" stroke="#f8f8f8"/><line x1="225.00000000000003" y1="240.0" x2="225.00000000000003" y2="0.0" stroke="#f8f8f8"/><line x1="245.0" y1="240.0" x2="245.0" y2="0.0" stroke="#f8f8f8"/><line x1="265.0" y1="240.0" x2="265.0" y2="0.0" stroke="#f8f8f8"/><line x1="285.0" y1="240.0" x2="285.0" y2="0.0" stroke="#f8f8f8"/><line x1="305.0" y1="240.0" x2="305.0" y2="0.0" stroke="#f8f8f8"/><line x1="325.0" y1="240.0" x2="325.0" y2="0.0" stroke="#f8f8f8"/><line x1="345.0" y1="240.0" x2="345.0" y2="0.0" stroke="#f8f8f8"/><line x1="365.0" y1="240.0" x2="365.0" y2="0.0" stroke="#f8f8f8"/><line x1="385.0" y1="240.0" x2="385.0" y2="0.0" stroke="#f8f8f8"/><line x1="405.0" y1="240.0" x2="405.0" y2="0.0" stroke="#f8f8f8"/><line x1="425.0" y1="240.0" x2="425.0" y2="0.0" stroke="#f8f8f8"/><line x1="445.00000000000006" y1="240.0" x2="445.00000000000006" y2="0.0" stroke="#f8f8f8"/><line x1="464.99999999999994" y1="240.0" x2="464.99999999999994" y2="0.0" stroke="#f8f8f8"/><line x1="485.0" y1="240.0" x2="485.0" y2="0.0" stroke="#f8f8f8"/><line x1="505.0" y1="240.0" x2="505.0" y2="0.0" stroke="#f8f8f8"/><line x1="525.0" y1="240.0" x2="525.0" y2="0.0" stroke="#f8f8f8"/><line x1="545.0" y1="240.0" x2="545.0" y2="0.0" stroke="#f8f8f8"/><line x1="565.0" y1="240.0" x2="565.0" y2="0.0" stroke="#f8f8f8"/><line x1="585.0" y1="240.0" x2="585.0" y2="0.0" stroke="#f8f8f8"/><line x1="605.0" y1="240.0" x2="605.0" y2="0.0" stroke="#f8f8f8"/><line x1="625.0" y1="240.0" x2="625.0" y2="0.0" stroke="#f8f8f8"/><line x1="645.0" y1="240.0" x2="645.0" y2="0.0" stroke="#f8f8f8"/><line x1="665.0" y1="240.0" x2="665.0" y2="0.0" stroke="#f8f8f8"/><line x1="685.0" y1="240.0" x2="685.0" y2="0.0" stroke="#f8f8f8"/><line x1="705.0" y1="240.0" x2="705.0" y2="0.0" stroke="#f8f8f8"/><line x1="725.0" y1="240.0" x2="725.0" y2="0.0" stroke="#f8f8f8"/><line x1="745.0" y1="240.0" x2="745.0" y2="0.0" stroke="#f8f8f8"/><line x1="765.0" y1="240.0" x2="765.0" y2="0.0" stroke="#f8f8f8"/><line x1="785.0" y1="240.0" x2="785.0" y2="0.0" stroke="#f8f8f8"/></g><g class="ylines"><line x1="5.0" y1="220.0" x2="805.0" y2="220.0" stroke="#f8f8f8"/><line x1="5.0" y1="200.0" x2="805.0" y2="200.0" stroke="#f8f8f8"/><line x1="5.0" y1="180.0" x2="805.0" y2="180.0" stroke="#f8f8f8"/><line x1="5.0" y1="160.00000000000003" x2="805.0" y2="160.00000000000003" stroke="#f8f8f8"/><line x1="5.0" y1="139.99999999999997" x2="805.0" y2="139.99999999999997" stroke="#f8f8f8"/><line x1="5.0" y1="120.0" x2="805.0" y2="120.0" stroke="#f8f8f8"/><line x1="5.0" y1="99.99999999999999" x2="805.0" y2="99.99999999999999" stroke="#f8f8f8"/><line x1="5.0" y1="80.00000000000001" x2="805.0" y2="80.00000000000001" stroke="#f8f8f8"/><line x1="5.0" y1="60.0" x2="805.0" y2="60.0" stroke="#f8f8f8"/><line x1="5.0" y1="39.99999999999999" x2="805.0" y2="39.99999999999999" stroke="#f8f8f8"/><line x1="5.0" y1="20.000000000000007" x2="805.0" y2="20.000000000000007" stroke="#f8f8f8"/></g><g class="ease"><path d="M5,240L8.200,239.992L11.400,239.969L14.600,239.931L17.800,239.877L21,239.808L24.200,239.724L27.400,239.624L30.600,239.508L33.800,239.378L37,239.232L40.200,239.071L43.400,238.894L46.600,238.702L49.800,238.495L53,238.272L56.200,238.034L59.400,237.780L62.600,237.512L65.800,237.228L69,236.928L72.200,236.613L75.400,236.283L78.600,235.937L81.800,235.576L85,235.200L88.200,234.808L91.400,234.401L94.600,233.979L97.800,233.541L101,233.088L104.200,232.620L107.400,232.136L110.600,231.636L113.800,231.122L117,230.592L120.200,230.047L123.400,229.486L126.600,228.910L129.800,228.319L133,227.712L136.200,227.090L139.400,226.452L142.600,225.800L145.800,225.132L149,224.448L152.200,223.749L155.400,223.035L158.600,222.305L161.800,221.560L165,220.800L168.200,220.024L171.400,219.233L174.600,218.427L177.800,217.605L181,216.768L184.200,215.916L187.400,215.048L190.600,214.164L193.800,213.266L197,212.352L200.200,211.423L203.400,210.478L206.600,209.518L209.800,208.543L213,207.552L216.200,206.546L219.400,205.524L222.600,204.488L225.800,203.436L229,202.368L232.200,201.285L235.400,200.187L238.600,199.073L241.800,197.944L245,196.800L248.200,195.640L251.400,194.465L254.600,193.275L257.800,192.069L261,190.848L264.200,189.612L267.400,188.360L270.600,187.092L273.800,185.810L277,184.512L280.200,183.199L283.400,181.870L286.600,180.526L289.800,179.167L293,177.792L296.200,176.402L299.400,174.996L302.600,173.576L305.800,172.140L309,170.688L312.200,169.221L315.400,167.739L318.600,166.241L321.800,164.728L325,163.200L328.200,161.656L331.400,160.097L334.600,158.523L337.800,156.933L341,155.328L344.200,153.708L347.400,152.072L350.600,150.420L353.800,148.754L357,147.072L360.200,145.375L363.400,143.662L366.600,141.934L369.800,140.191L373,138.432L376.200,136.658L379.400,134.868L382.600,133.064L385.800,131.244L389,129.408L392.200,127.557L395.400,125.691L398.600,123.809L401.800,121.912L405,120L408.200,118.088L411.400,116.191L414.600,114.309L417.800,112.443L421,110.592L424.200,108.756L427.400,106.936L430.600,105.132L433.800,103.342L437,101.568L440.200,99.809L443.400,98.066L446.600,96.338L449.800,94.625L453,92.928L456.200,91.246L459.400,89.580L462.600,87.928L465.800,86.292L469,84.672L472.200,83.067L475.400,81.477L478.600,79.903L481.800,78.344L485,76.800L488.200,75.272L491.400,73.759L494.600,72.261L497.800,70.779L501,69.312L504.200,67.860L507.400,66.424L510.600,65.004L513.800,63.598L517,62.208L520.200,60.833L523.400,59.474L526.600,58.130L529.800,56.801L533,55.488L536.200,54.190L539.400,52.908L542.600,51.640L545.800,50.388L549,49.152L552.200,47.931L555.400,46.725L558.600,45.535L561.800,44.360L565,43.200L568.200,42.056L571.400,40.927L574.600,39.813L577.800,38.715L581,37.632L584.200,36.564L587.400,35.512L590.600,34.476L593.800,33.454L597,32.448L600.200,31.457L603.400,30.482L606.600,29.522L609.800,28.577L613,27.648L616.200,26.734L619.400,25.836L622.600,24.952L625.800,24.084L629,23.232L632.200,22.395L635.400,21.573L638.600,20.767L641.800,19.976L645,19.200L648.200,18.440L651.400,17.695L654.600,16.965L657.800,16.251L661,15.552L664.200,14.868L667.400,14.200L670.600,13.548L673.800,12.910L677,12.288L680.200,11.681L683.400,11.090L686.600,10.514L689.800,9.953L693,9.408L696.200,8.878L699.400,8.364L702.600,7.864L705.800,7.380L709,6.912L712.200,6.459L715.400,6.021L718.600,5.599L721.800,5.192L725,4.800L728.200,4.424L731.400,4.063L734.600,3.717L737.800,3.387L741,3.072L744.200,2.772L747.400,2.488L750.600,2.220L753.800,1.966L757,1.728L760.200,1.505L763.400,1.298L766.600,1.106L769.800,0.929L773,0.768L776.200,0.622L779.400,0.492L782.600,0.376L785.800,0.276L789,0.192L792.200,0.123L795.400,0.069L798.600,0.031L801.800,0.008L805,0" stroke="black" fill="none"/></g></svg>