<svg xmlns="http://www.w3.org/2000/svg" width="810" height="240.0" viewBox="0 0 810 240.0"><rect x="5" y="0" width="800" height="240.0" fill="#d4d4d1"/><g class="xlines"><line x1="25.0" y1="240.0" x2="25.0" y2="0.0" stroke="#f8f8f8"/><line x1="45.0" y1="240.0" x2="45.0" y2="0.0" stroke="#f8f8f8"/><line x1="65.0" y1="240.0" x2="65.0" y2="0.0" stroke="#f8f8f8"/><line x1="85.0" y1="240.0" x2="85.0" y2="0.0" stroke="#f8f8f8"/><line x1="105.0" y1="240.0" x2="105.0" y2="0.0" stroke="#f8f8f8"/><line x1="125.0" y1="240.0" x2="125.0" y2="0.0" stroke="#f8f8f8"/><line x1="145.0" y1="240.0" x2="145.0" y2="0.0" stroke="#f8f8f8"/><line x1="165.0" y1="240.0" x2="165.0" y2="0.0" stroke="#f8f8f8"/><line x1="185.0" y1="240.0" x2="185.0" y2="0.0" stroke="#f8f8f8"/><line x1="205.0" y1="240.0" x2="205.0" y2="0.0" stroke="#f8f8f8"/><line x1="225.00000000000003" y1="240.0" x2="225.00000000000003" y2="0.0" stroke="#f8f8f8"/><line x1="245.0" y1="240.0" x2="245.0" y2="0.0" stroke="#f8f8f8"/><line x1="265.0" y1="240.0" x2="265.0" y2="0.0" stroke="#f8f8f8"/><line x1="285.0" y1="240.0" x2="285.0" y2="0.0" stroke="#f8f8f8"/><line x1="305.0" y1="240.0" x2="305.0" y2="0.0" stroke="#f8f8f8"/><line x1="325.0" y1="240.0" x2="325.0" y2="0.0" stroke="#f8f8f8"/><line x1="345.0" y1="240.0" x2="345.0" y2="0.0" stroke="#f8f8f8"/><line x1="365.0" y1="240.0" x2="365.0" y2="0.0" stroke="#f8f8f8"/><line x1="385.0" y1="240.0" x2="385.0" y2="0.0" stroke="#f8f8f8"/><line x1="405.0" y1="240.0" x2="405.0" y2="0.0" stroke="#f8f8f8"/><line x1="425.0" y1="240.0" x2="425.0" y2="0.0" stroke="#f8f8f8"/><line x1="445.00000000000006" y1="240.0" x2="445.00000000000006" y2="0.0" stroke="#f8f8f8"/><line x1="464.99999999999994" y1="240.0" x2="464.99999999999994" y2="0.0" stroke="#f8f8f8"/><line x1="485.0" y1="240.0" x2="485.0" y2="0.0" stroke="#f8f8f8"/><line x1="505.0" y1="240.0" x2="505.0" y2="0.0" stroke="#f8f8f8"/><line x1="525.0" y1="240.0" x2="525.0" y2="0.0" stroke="#f8f8f8"/><line x1="545.0" y1="240.0" x2="545.0" y2="0.0" stroke="#f8f8f8"/><line x1="565.0" y1="240.0" x2="565.0" y2="0.0" stroke="#f8f8f8"/><line x1="585.0" y1="240.0" x2="585.0" y2="0.0" stroke="#f8f8f8"/><line x1="605.0" y1="240.0" x2="605.0" y2="0.0" stroke="#f8f8f8"/><line x1="625.0" y1="240.0" x2="625.0" y2="0.0" stroke="#f8f8f8"/><line x1="645.0" y1="240.0" x2="645.0" y2="0.0" stroke="#f8f8f8"/><line x1="665.0" y1="240.0" x2="665.0" y2="0.0" stroke="#f8f8f8"/><line x1="685.0" y1="240.0" x2="685.0" y2="0.0" stroke="#f8f8f8"/><line x1="705.0" y1="240.0" x2="705.0" y2="0.0" stroke="#f8f8f8"/><line x1="725.0" y1="240.0" x2="725.0" y2="0.0" stroke="#f8f8f8"/><line x1="745.0" y1="240.0" x2="745.0" y2="0.0" stroke="#f8f8f8"/><line x1="765.0" y1="240.0" x2="765.0" y2="0.0" stroke="#f8f8f8"/><line x1="785.0" y1="240.0" x2="785.0" y2="0.0" stroke="#f8f8f8"/></g><g class="ylines"><line x1="5.0" y1="220.0" x2="805.0" y2="220.0" stroke="#f8f8f8"/><line x1="5.0" y1="200.0" x2="805.0" y2="200.0" stroke="#f8f8f8"/><line x1="5.0" y1="180.0" x2="805.0" y2="180.0" stroke="#f8f8f8"/><line x1="5.0" y1="160.00000000000003" x2="805.0" y2="160.00000000000003" stroke="#f8f8f8"/><line x1="5.0" y1="139.99999999999997" x2="805.0" y2="139.99999999999997" stroke="#f8f8f8"/><line x1="5.0" y1="120.0" x2="805.0" y2="120.0" stroke="#f8f8f8"/><line x1="5.0" y1="99.99999999999999" x2="805.0" y2="99.99999999999999" stroke="#f8f8f8"/><line x1="5.0" y1="80.00000000000001" x2="805.0" y2="80.00000000000001" stroke="#f8f8f8"/><line x1="5.0" y1="60.0" x2="805.0" y2="60.0" stroke="#f8f8f8"/><line x1="5.0" y1="39.99999999999999" x2="805.0" y2="39.99999999999999" stroke="#f8f8f8"/><line x1="5.0" y1="20.000000000000007" x2="805.0" y2="20.000000000000007" stroke="#f8f8f8"/></g><g class="ease"><path d="M5,240L8.200,237.132L11.400,234.286L14.600,231.463L17.800,228.663L21,225.886L24.200,223.131L27.400,220.399L30.600,217.689L33.800,215.002L37,212.337L40.200,209.693L43.400,207.072L46.600,204.473L49.800,201.896L53,199.340L56.200,196.806L59.400,194.294L62.600,191.803L65.800,189.333L69,186.885L72.200,184.458L75.400,182.052L78.600,179.667L81.800,177.303L85,174.960L88.200,172.638L91.400,170.336L94.600,168.054L97.800,165.794L101,163.553L104.200,161.333L107.400,159.133L110.600,156.953L113.800,154.793L117,152.653L120.200,150.533L123.400,148.433L126.600,146.352L129.800,144.291L133,142.249L136.200,140.226L139.400,138.223L142.600,136.239L145.800,134.274L149,132.328L152.200,130.401L155.400,128.493L158.600,126.603L161.800,124.732L165,122.880L168.200,121.046L171.400,119.230L174.600,117.433L177.800,115.654L181,113.892L184.200,112.149L187.400,110.424L190.600,108.716L193.800,107.026L197,105.354L200.200,103.699L203.400,102.062L206.600,100.442L209.800,98.839L213,97.254L216.200,95.685L219.400,94.134L222.600,92.599L225.800,91.081L229,89.580L232.200,88.095L235.400,86.627L238.600,85.175L241.800,83.739L245,82.320L248.200,80.917L251.400,79.530L254.600,78.159L257.800,76.803L261,75.464L264.200,74.140L267.400,72.831L270.600,71.539L273.800,70.261L277,68.999L280.200,67.752L283.400,66.520L286.600,65.303L289.800,64.102L293,62.915L296.200,61.742L299.400,60.585L302.600,59.442L305.800,58.313L309,57.199L312.200,56.099L315.400,55.013L318.600,53.941L321.800,52.884L325,51.840L328.200,50.810L331.400,49.794L334.600,48.791L337.800,47.802L341,46.827L344.200,45.865L347.400,44.916L350.600,43.980L353.800,43.057L357,42.148L360.200,41.251L363.400,40.367L366.600,39.496L369.800,38.637L373,37.791L376.200,36.958L379.400,36.137L382.600,35.328L385.800,34.531L389,33.746L392.200,32.973L395.400,32.212L398.600,31.463L401.800,30.726L405,30L408.200,29.286L411.400,28.583L414.600,27.891L417.800,27.211L421,26.542L424.200,25.884L427.400,25.237L430.600,24.601L433.800,23.975L437,23.361L440.200,22.757L443.400,22.163L446.600,21.580L449.800,21.007L453,20.444L456.200,19.892L459.400,19.349L462.600,18.817L465.800,18.294L469,17.781L472.200,17.278L475.400,16.784L478.600,16.300L481.800,15.825L485,15.360L488.200,14.904L491.400,14.457L494.600,14.019L497.800,13.590L501,13.169L504.200,12.758L507.400,12.355L510.600,11.961L513.800,11.575L517,11.197L520.200,10.828L523.400,10.467L526.600,10.115L529.800,9.770L533,9.433L536.200,9.104L539.400,8.783L542.600,8.469L545.800,8.163L549,7.864L552.200,7.573L555.400,7.289L558.600,7.012L561.800,6.743L565,6.480L568.200,6.224L571.400,5.975L574.600,5.733L577.800,5.498L581,5.268L584.200,5.046L587.400,4.830L590.600,4.620L593.800,4.416L597,4.218L600.200,4.027L603.400,3.841L606.600,3.661L609.800,3.486L613,3.318L616.200,3.155L619.400,2.997L622.600,2.845L625.800,2.697L629,2.556L632.200,2.419L635.400,2.287L638.600,2.160L641.800,2.038L645,1.920L648.200,1.807L651.400,1.699L654.600,1.595L657.800,1.495L661,1.400L664.200,1.308L667.400,1.221L670.600,1.138L673.800,1.059L677,0.983L680.200,0.911L683.400,0.843L686.600,0.778L689.800,0.717L693,0.659L696.200,0.604L699.400,0.552L702.600,0.503L705.800,0.458L709,0.415L712.200,0.375L715.400,0.337L718.600,0.302L721.800,0.270L725,0.240L728.200,0.212L731.400,0.187L734.600,0.164L737.800,0.142L741,0.123L744.200,0.105L747.400,0.090L750.600,0.075L753.800,0.063L757,0.052L760.200,0.042L763.400,0.034L766.600,0.027L769.800,0.020L773,0.015L776.200,0.011L779.400,0.008L782.600,0.005L785.800,0.003L789,0.002L792.200,0.001L795.400,0L798.600,0L801.800,0L805,0" stroke="black" fill="none"/></g></svg>