<svg xmlns="http://www.w3.org/2000/svg" width="810" height="240.0" viewBox="0 0 810 240.0"><rect x="5" y="0" width="800" height="240.0" fill="#d4d4d1"/><g class="xlines"><line x1="25.0" y1="240.0" x2="25.0" y2="0.0" stroke="#f8f8f8"/><line x1="45.0" y1="240.0" x2="45.0" y2="0.0" stroke="#f8f8f8"/><line x1="65.0" y1="240.0" x2="65.0" y2="0.0" stroke="#f8f8f8"/><line x1="85.0" y1="240.0" x2="85.0" y2="0.0" stroke="#f8f8f8"/><line x1="105.0" y1="240.0" x2="105.0" y2="0.0" stroke="#f8f8f8"/><line x1="125.0" y1="240.0" x2="125.0" y2="0.0" stroke="#f8f8f8"/><line x1="145.0" y1="240.0" x2="145.0" y2="0.0" stroke="#f8f8f8"/><line x1="165.0" y1="240.0" x2="165.0" y2="0.0" stroke="#f8f8f8"/><line x1="185.0" y1="240.0" x2="185.0" y2="0.0" stroke="#f8f8f8"/><line x1="205.0" y1="240.0" x2="205.0" y2="0.0" stroke="#f8f8f8"/><line x1="225.00000000000003" y1="240.0" x2="225.00000000000003" y2="0.0" stroke="#f8f8f8"/><line x1="245.0" y1="240.0" x2="245.0" y2="0.0" stroke="#f8f8f8"/><line x1="265.0" y1="240.0" x2="265.0" y2="0.0" stroke="#f8f8f8"/><line x1="285.0" y1="240.0" x2="285.0" y2="0.0" stroke="#f8f8f8"/><line x1="305.0" y1="240.0" x2="305.0" y2="0.0" stroke="#f8f8f8"/><line x1="325.0" y1="240.0" x2="325.0" y2="0.0" stroke="#f8f8f8"/><line x1="345.0" y1="240.0" x2="345.0" y2="0.0" stroke="#f8f8f8"/><line x1="365.0" y1="240.0" x2="365.0" y2="0.0" stroke="#f8f8f8"/><line x1="385.0" y1="240.0" x2="385.0" y2="0.0" stroke="#f8f8f8"/><line x1="405.0" y1="240.0" x2="405.0" y2="0.0" stroke="#f8f8f8"/><line x1="425.0" y1="240.0" x2="425.0" y2="0.0" stroke="#f8f8f8"/><line x1="445.00000000000006" y1="240.0" x2="445.00000000000006" y2="0.0" stroke="#f8f8f8"/><line x1="464.99999999999994" y1="240.0" x2="464.99999999999994" y2="0.0" stroke="#f8f8f8"/><line x1="485.0" y1="240.0" x2="485.0" y2="0.0" stroke="#f8f8f8"/><line x1="505.0" y1="240.0" x2="505.0" y2="0.0" stroke="#f8f8f8"/><line x1="525.0" y1="240.0" x2="525.0" y2="0.0" stroke="#f8f8f8"/><line x1="545.0" y1="240.0" x2="545.0" y2="0.0" stroke="#f8f8f8"/><line x1="565.0" y1="240.0" x2="565.0" y2="0.0" stroke="#f8f8f8"/><line x1="585.0" y1="240.0" x2="585.0" y2="0.0" stroke="#f8f8f8"/><line x1="605.0" y1="240.0" x2="605.0" y2="0.0" stroke="#f8f8f8"/><line x1="625.0" y1="240.0" x2="625.0" y2="0.0" stroke="#f8f8f8"/><line x1="645.0" y1="240.0" x2="645.0" y2="0.0" stroke="#f8f8f8"/><line x1="665.0" y1="240.0" x2="665.0" y2="0.0" stroke="#f8f8f8"/><line x1="685.0" y1="240.0" x2="685.0" y2="0.0" stroke="#f8f8f8"/><line x1="705.0" y1="240.0" x2="705.0" y2="0.0" stroke="#f8f8f8"/><line x1="725.0" y1="240.0" x2="725.0" y2="0.0" stroke="#f8f8f8"/><line x1="745.0" y1="240.0" x2="745.0" y2="0.0" stroke="#f8f8f8"/><line x1="765.0" y1="240.0" x2="765.0" y2="0.0" stroke="#f8f8f8"/><line x1="785.0" y1="240.0" x2="785.0" y2="0.0" stroke="#f8f8f8"/></g><g class="ylines"><line x1="5.0" y1="220.0" x2="805.0" y2="220.0" stroke="#f8f8f8"/><line x1="5.0" y1="200.0" x2="805.0" y2="200.0" stroke="#f8f8f8"/><line x1="5.0" y1="180.0" x2="805.0" y2="180.0" stroke="#f8f8f8"/><line x1="5.0" y1="160.00000000000003" x2="805.0" y2="160.00000000000003" stroke="#f8f8f8"/><line x1="5.0" y1="139.99999999999997" x2="805.0" y2="139.99999999999997" stroke="#f8f8f8"/><line x1="5.0" y1="120.0" x2="805.0" y2="120.0" stroke="#f8f8f8"/><line x1="5.0" y1="99.99999999999999" x2="805.0" y2="99.99999999999999" stroke="#f8f8f8"/><line x1="5.0" y1="80.00000000000001" x2="805.0" y2="80.00000000000001" stroke="#f8f8f8"/><line x1="5.0" y1="60.0" x2="805.0" y2="60.0" stroke="#f8f8f8"/><line x1="5.0" y1="39.99999999999999" x2="805.0" y2="39.99999999999999" stroke="#f8f8f8"/><line x1="5.0" y1="20.000000000000007" x2="805.0" y2="20.000000000000007" stroke="#f8f8f8"/></g><g class="points"><circle cx="45.0" cy="200.0" r="2" stroke="black" fill="none"/><circle cx="125.0" cy="80.00000000000001" r="2" stroke="black" fill="none"/><circle cx="205.0" cy="39.99999999999999" r="2" stroke="black" fill="none"/><circle cx="245.0" cy="39.99999999999999" r="2" stroke="black" fill="none"/><circle cx="285.0" cy="160.00000000000003" r="2" stroke="black" fill="none"/><circle cx="405.0" cy="160.00000000000003" r="2" stroke="black" fill="none"/><circle cx="485.0" cy="80.00000000000001" r="2" stroke="black" fill="none"/><circle cx="585.0" cy="120.0" r="2" stroke="black" fill="none"/><circle cx="645.0" cy="160.00000000000003" r="2" stroke="black" fill="none"/><circle cx="705.0" cy="139.99999999999997" r="2" stroke="black" fill="none"/><circle cx="765.0" cy="200.0" r="2" stroke="black" fill="none"/></g><g class="curve"><path d="M45,200L45,80L125,80L125,40L205,40L205,40L245,40L245,160L285,160L285,160L405,160L405,80L485,80L485,120L585,120L585,160L645,160L645,140L705,140L705,200L765,200" stroke="black" fill="none"/></g></svg>