<svg xmlns="http://www.w3.org/2000/svg" width="810" height="40" viewBox="0 0 810 40"><g transform="translate(0, 20)" fill="none" font-size="10" font-family="sans-serif" text-anchor="middle"><g class="tick" opacity="1" transform="translate(101.25, 0)"><line stroke="currentColor" y2="6"/><text fill="currentColor" y="9" dy="0.71em">asterisk</text></g><g class="tick" opacity="1" transform="translate(202.5, 0)"><line stroke="currentColor" y2="6"/><text fill="currentColor" y="9" dy="0.71em">circle</text></g><g class="tick" opacity="1" transform="translate(303.75, 0)"><line stroke="currentColor" y2="6"/><text fill="currentColor" y="9" dy="0.71em">diamond2</text></g><g class="tick" opacity="1" transform="translate(405.0, 0)"><line stroke="currentColor" y2="6"/><text fill="currentColor" y="9" dy="0.71em">plus</text></g><g class="tick" opacity="1" transform="translate(506.25, 0)"><line stroke="currentColor" y2="6"/><text fill="currentColor" y="9" dy="0.71em">square2</text></g><g class="tick" opacity="1" transform="translate(607.5, 0)"><line stroke="currentColor" y2="6"/><text fill="currentColor" y="9" dy="0.71em">times</text></g><g class="tick" opacity="1" transform="translate(708.75, 0)"><line stroke="currentColor" y2="6"/><text fill="currentColor" y="9" dy="0.71em">triangle2</text></g><g transform="translate(101.25, -10)"><path d="M0,4.783L0,-4.783M-4.142,-2.391L4.142,2.391M-4.142,2.391L4.142,-2.391" stroke="black"/></g><g transform="translate(202.5, -10)"><path d="M4.514,0A4.514,4.514,0,1,1,-4.514,0A4.514,4.514,0,1,1,4.514,0" stroke="black"/></g><g transform="translate(303.75, -10)"><path d="M0,-5.01L5.01,0L0,5.01L-5.01,0Z" stroke="black"/></g><g transform="translate(405.0, -10)"><path d="M-6.894,0L6.894,0M0,6.894L0,-6.894" stroke="black"/></g><g transform="translate(506.25, -10)"><path d="M3.545,3.545L3.545,-3.545L-3.545,-3.545L-3.545,3.545Z" stroke="black"/></g><g transform="translate(607.5, -10)"><path d="M-4.885,-4.885L4.885,4.885M-4.885,4.885L4.885,-4.885" stroke="black"/></g><g transform="translate(708.75, -10)"><path d="M0,-5.459L4.728,2.73L-4.728,2.73Z" stroke="black"/></g></g></svg>