<svg xmlns="http://www.w3.org/2000/svg" width="928" height="600" viewBox="0 0 928 600" font-family="sans-serif" font-size="10" stroke-miterlimit="1"><g transform="translate(0, 570)" fill="none" font-size="10" font-family="sans-serif" text-anchor="middle"><g class="tick" opacity="1" transform="translate(65.5, 0)"><line stroke="currentColor" y2="6"/><text fill="currentColor" y="9" dy="0.71em">March</text></g><g class="tick" opacity="1" transform="translate(107.5, 0)"><line stroke="currentColor" y2="6"/><text fill="currentColor" y="9" dy="0.71em">Mar 08</text></g><g class="tick" opacity="1" transform="translate(150.5, 0)"><line stroke="currentColor" y2="6"/><text fill="currentColor" y="9" dy="0.71em">Mar 15</text></g><g class="tick" opacity="1" transform="translate(193.5, 0)"><line stroke="currentColor" y2="6"/><text fill="currentColor" y="9" dy="0.71em">Mar 22</text></g><g class="tick" opacity="1" transform="translate(236.5, 0)"><line stroke="currentColor" y2="6"/><text fill="currentColor" y="9" dy="0.71em">Mar 29</text></g><g class="tick" opacity="1" transform="translate(279.5, 0)"><line stroke="currentColor" y2="6"/><text fill="currentColor" y="9" dy="0.71em">Apr 05</text></g><g class="tick" opacity="1" transform="translate(322.5, 0)"><line stroke="currentColor" y2="6"/><text fill="currentColor" y="9" dy="0.71em">Apr 12</text></g><g class="tick" opacity="1" transform="translate(365.5, 0)"><line stroke="currentColor" y2="6"/><text fill="currentColor" y="9" dy="0.71em">Apr 19</text></g><g class="tick" opacity="1" transform="translate(408.5, 0)"><line stroke="currentColor" y2="6"/><text fill="currentColor" y="9" dy="0.71em">Apr 26</text></g><g class="tick" opacity="1" transform="translate(450.5, 0)"><line stroke="currentColor" y2="6"/><text fill="currentColor" y="9" dy="0.71em">May 03</text></g><g class="tick" opacity="1" transform="translate(493.5, 0)"><line stroke="currentColor" y2="6"/><text fill="currentColor" y="9" dy="0.71em">May 10</text></g><g class="tick" opacity="1" transform="translate(536.5, 0)"><line stroke="currentColor" y2="6"/><text fill="currentColor" y="9" dy="0.71em">May 17</text></g><g class="tick" opacity="1" transform="translate(579.5, 0)"><line stroke="currentColor" y2="6"/><text fill="currentColor" y="9" dy="0.71em">May 24</text></g><g class="tick" opacity="1" transform="translate(622.5, 0)"><line stroke="currentColor" y2="6"/><text fill="currentColor" y="9" dy="0.71em">May 31</text></g><g class="tick" opacity="1" transform="translate(665.5, 0)"><line stroke="currentColor" y2="6"/><text fill="currentColor" y="9" dy="0.71em">Jun 07</text></g><g class="tick" opacity="1" transform="translate(708.5, 0)"><line stroke="currentColor" y2="6"/><text fill="currentColor" y="9" dy="0.71em">Jun 14</text></g><g class="tick" opacity="1" transform="translate(751.5, 0)"><line stroke="currentColor" y2="6"/><text fill="currentColor" y="9" dy="0.71em">Jun 21</text></g><g class="tick" opacity="1" transform="translate(794.5, 0)"><line stroke="currentColor" y2="6"/><text fill="currentColor" y="9" dy="0.71em">Jun 28</text></g><g class="tick" opacity="1" transform="translate(837.5, 0)"><line stroke="currentColor" y2="6"/><text fill="currentColor" y="9" dy="0.71em">Jul 05</text></g><g class="tick" opacity="1" transform="translate(880.5, 0)"><line stroke="currentColor" y2="6"/><text fill="currentColor" y="9" dy="0.71em">Jul 12</text></g></g><g transform="translate(40, 0)" fill="none" font-size="10" font-family="sans-serif" text-anchor="end"><g class="tick" opacity="1" transform="translate(0, 570.5)"><line stroke="currentColor" x2="-6"/><text fill="currentColor" x="-9" dy="0.32em">1</text></g><g class="tick" opacity="1" transform="translate(0, 525.5)"><line stroke="currentColor" x2="-6"/><text fill="currentColor" x="-9" dy="0.32em">2</text></g><g class="tick" opacity="1" transform="translate(0, 498.5)"><line stroke="currentColor" x2="-6"/><text fill="currentColor" x="-9" dy="0.32em">3</text></g><g class="tick" opacity="1" transform="translate(0, 479.5)"><line stroke="currentColor" x2="-6"/><text fill="currentColor" x="-9" dy="0.32em"></text></g><g class="tick" opacity="1" transform="translate(0, 464.5)"><line stroke="currentColor" x2="-6"/><text fill="currentColor" x="-9" dy="0.32em"></text></g><g class="tick" opacity="1" transform="translate(0, 453.5)"><line stroke="currentColor" x2="-6"/><text fill="currentColor" x="-9" dy="0.32em"></text></g><g class="tick" opacity="1" transform="translate(0, 442.5)"><line stroke="currentColor" x2="-6"/><text fill="currentColor" x="-9" dy="0.32em"></text></g><g class="tick" opacity="1" transform="translate(0, 434.5)"><line stroke="currentColor" x2="-6"/><text fill="currentColor" x="-9" dy="0.32em"></text></g><g class="tick" opacity="1" transform="translate(0, 426.5)"><line stroke="currentColor" x2="-6"/><text fill="currentColor" x="-9" dy="0.32em"></text></g><g class="tick" opacity="1" transform="translate(0, 419.5)"><line stroke="currentColor" x2="-6"/><text fill="currentColor" x="-9" dy="0.32em">10</text></g><g class="tick" opacity="1" transform="translate(0, 374.5)"><line stroke="currentColor" x2="-6"/><text fill="currentColor" x="-9" dy="0.32em">20</text></g><g class="tick" opacity="1" transform="translate(0, 347.5)"><line stroke="currentColor" x2="-6"/><text fill="currentColor" x="-9" dy="0.32em">30</text></g><g class="tick" opacity="1" transform="translate(0, 328.5)"><line stroke="currentColor" x2="-6"/><text fill="currentColor" x="-9" dy="0.32em"></text></g><g class="tick" opacity="1" transform="translate(0, 314.5)"><line stroke="currentColor" x2="-6"/><text fill="currentColor" x="-9" dy="0.32em"></text></g><g class="tick" opacity="1" transform="translate(0, 302.5)"><line stroke="currentColor" x2="-6"/><text fill="currentColor" x="-9" dy="0.32em"></text></g><g class="tick" opacity="1" transform="translate(0, 292.5)"><line stroke="currentColor" x2="-6"/><text fill="currentColor" x="-9" dy="0.32em"></text></g><g class="tick" opacity="1" transform="translate(0, 283.5)"><line stroke="currentColor" x2="-6"/><text fill="currentColor" x="-9" dy="0.32em"></text></g><g class="tick" opacity="1" transform="translate(0, 275.5)"><line stroke="currentColor" x2="-6"/><text fill="currentColor" x="-9" dy="0.32em"></text></g><g class="tick" opacity="1" transform="translate(0, 268.5)"><line stroke="currentColor" x2="-6"/><text fill="currentColor" x="-9" dy="0.32em">100</text></g><g class="tick" opacity="1" transform="translate(0, 223.5)"><line stroke="currentColor" x2="-6"/><text fill="currentColor" x="-9" dy="0.32em">200</text></g><g class="tick" opacity="1" transform="translate(0, 196.5)"><line stroke="currentColor" x2="-6"/><text fill="currentColor" x="-9" dy="0.32em">300</text></g><g class="tick" opacity="1" transform="translate(0, 177.5)"><line stroke="currentColor" x2="-6"/><text fill="currentColor" x="-9" dy="0.32em"></text></g><g class="tick" opacity="1" transform="translate(0, 163.5)"><line stroke="currentColor" x2="-6"/><text fill="currentColor" x="-9" dy="0.32em"></text></g><g class="tick" opacity="1" transform="translate(0, 151.5)"><line stroke="currentColor" x2="-6"/><text fill="currentColor" x="-9" dy="0.32em"></text></g><g class="tick" opacity="1" transform="translate(0, 141.5)"><line stroke="currentColor" x2="-6"/><text fill="currentColor" x="-9" dy="0.32em"></text></g><g class="tick" opacity="1" transform="translate(0, 132.5)"><line stroke="currentColor" x2="-6"/><text fill="currentColor" x="-9" dy="0.32em"></text></g><g class="tick" opacity="1" transform="translate(0, 124.5)"><line stroke="currentColor" x2="-6"/><text fill="currentColor" x="-9" dy="0.32em"></text></g><g class="tick" opacity="1" transform="translate(0, 117.5)"><line stroke="currentColor" x2="-6"/><text fill="currentColor" x="-9" dy="0.32em">1,000</text></g><g class="tick" opacity="1" transform="translate(0, 72.5)"><line stroke="currentColor" x2="-6"/><text fill="currentColor" x="-9" dy="0.32em">2,000</text></g><g class="tick" opacity="1" transform="translate(0, 45.5)"><line stroke="currentColor" x2="-6"/><text fill="currentColor" x="-9" dy="0.32em">3,000</text></g><g class="tick" opacity="1" transform="translate(0, 26.5)"><line stroke="currentColor" x2="-6"/><text fill="currentColor" x="-9" dy="0.32em"></text></g><text x="-40" y="10" fill="black" text-anchor="start">&#8593; Deaths per day</text></g><g stroke="black" stroke-opacity="0.1"><g><line x1="65.5" x2="65.5" y1="20" y2="570"/><line x1="107.5" x2="107.5" y1="20" y2="570"/><line x1="150.5" x2="150.5" y1="20" y2="570"/><line x1="193.5" x2="193.5" y1="20" y2="570"/><line x1="236.5" x2="236.5" y1="20" y2="570"/><line x1="279.5" x2="279.5" y1="20" y2="570"/><line x1="322.5" x2="322.5" y1="20" y2="570"/><line x1="365.5" x2="365.5" y1="20" y2="570"/><line x1="408.5" x2="408.5" y1="20" y2="570"/><line x1="450.5" x2="450.5" y1="20" y2="570"/><line x1="493.5" x2="493.5" y1="20" y2="570"/><line x1="536.5" x2="536.5" y1="20" y2="570"/><line x1="579.5" x2="579.5" y1="20" y2="570"/><line x1="622.5" x2="622.5" y1="20" y2="570"/><line x1="665.5" x2="665.5" y1="20" y2="570"/><line x1="708.5" x2="708.5" y1="20" y2="570"/><line x1="751.5" x2="751.5" y1="20" y2="570"/><line x1="794.5" x2="794.5" y1="20" y2="570"/><line x1="837.5" x2="837.5" y1="20" y2="570"/><line x1="880.5" x2="880.5" y1="20" y2="570"/></g><g><line y1="570.5" y2="570.5" x1="40" x2="898"/><line y1="525.5" y2="525.5" x1="40" x2="898"/><line y1="498.5" y2="498.5" x1="40" x2="898"/><line y1="479.5" y2="479.5" x1="40" x2="898"/><line y1="464.5" y2="464.5" x1="40" x2="898"/><line y1="453.5" y2="453.5" x1="40" x2="898"/><line y1="442.5" y2="442.5" x1="40" x2="898"/><line y1="434.5" y2="434.5" x1="40" x2="898"/><line y1="426.5" y2="426.5" x1="40" x2="898"/><line y1="419.5" y2="419.5" x1="40" x2="898"/><line y1="374.5" y2="374.5" x1="40" x2="898"/><line y1="347.5" y2="347.5" x1="40" x2="898"/><line y1="328.5" y2="328.5" x1="40" x2="898"/><line y1="314.5" y2="314.5" x1="40" x2="898"/><line y1="302.5" y2="302.5" x1="40" x2="898"/><line y1="292.5" y2="292.5" x1="40" x2="898"/><line y1="283.5" y2="283.5" x1="40" x2="898"/><line y1="275.5" y2="275.5" x1="40" x2="898"/><line y1="268.5" y2="268.5" x1="40" x2="898"/><line y1="223.5" y2="223.5" x1="40" x2="898"/><line y1="196.5" y2="196.5" x1="40" x2="898"/><line y1="177.5" y2="177.5" x1="40" x2="898"/><line y1="163.5" y2="163.5" x1="40" x2="898"/><line y1="151.5" y2="151.5" x1="40" x2="898"/><line y1="141.5" y2="141.5" x1="40" x2="898"/><line y1="132.5" y2="132.5" x1="40" x2="898"/><line y1="124.5" y2="124.5" x1="40" x2="898"/><line y1="117.5" y2="117.5" x1="40" x2="898"/><line y1="72.5" y2="72.5" x1="40" x2="898"/><line y1="45.5" y2="45.5" x1="40" x2="898"/><line y1="26.5" y2="26.5" x1="40" x2="898"/></g></g><path fill="steelblue" fill-opacity="0.2" d="M40,525L46,570L52,525L58,570L65,498L71,525L77,479L83,498L89,479L95,453L107,434L114,479L120,479L126,453L132,453L138,498L144,419L150,419L156,362L163,362L169,392L175,290L181,318L187,305L193,253L199,258L206,238L212,214L218,204L224,180L230,173L236,170L242,160L248,126L254,120L260,109L267,98L273,88L279,79L285,71L291,63L297,56L303,50L309,44L316,39L322,35L328,32L334,29L340,26L346,24L352,23L359,21L365,21L371,20L377,20L383,20L389,21L395,21L401,22L408,23L414,24L420,26L426,27L432,29L438,30L444,32L450,34L457,37L463,39L469,41L475,44L481,46L487,49L493,52L500,55L506,58L512,61L518,65L524,68L530,72L536,76L542,80L549,84L555,88L561,92L567,97L573,102L579,106L585,111L591,116L598,121L604,125L610,130L616,135L622,140L628,145L634,150L641,155L647,160L653,164L659,169L665,174L671,179L677,183L683,188L690,193L696,198L702,203L708,207L714,212L720,217L726,222L732,226L739,231L745,236L751,241L757,245L763,250L769,255L775,259L782,264L788,269L794,275L800,280L806,285L812,292L818,298L824,305L831,311L837,316L843,323L849,330L855,335L861,343L867,349L873,356L880,362L886,367L892,377L898,384L898,570L892,570L886,570L880,570L873,570L867,570L861,570L855,570L849,570L843,570L837,570L831,570L824,570L818,570L812,570L806,570L800,570L794,570L788,570L782,570L775,570L769,570L763,570L757,570L751,570L745,570L739,570L732,570L726,570L720,570L714,570L708,570L702,570L696,570L690,570L683,570L677,570L671,570L665,570L659,570L653,525L647,498L641,479L634,479L628,453L622,434L616,413L610,407L604,397L598,381L591,367L585,359L579,347L573,335L567,322L561,314L555,305L549,297L542,289L536,279L530,268L524,261L518,251L512,245L506,238L500,231L493,224L487,216L481,209L475,203L469,197L463,190L457,185L450,179L444,173L438,168L432,163L426,157L420,153L414,148L408,143L401,139L395,135L389,131L383,127L377,123L371,119L365,115L359,111L352,108L346,104L340,101L334,99L328,96L322,94L316,93L309,92L303,93L297,94L291,97L285,100L279,104L273,109L267,115L260,122L254,129L248,126L242,160L236,170L230,173L224,180L218,204L212,214L206,238L199,258L193,253L187,305L181,318L175,290L169,392L163,362L156,362L150,419L144,419L138,498L132,453L126,453L120,479L114,479L107,434L95,453L89,479L83,498L77,479L71,525L65,498L58,570L52,525L46,570L40,525Z"/><path fill="none" stroke="steelblue" stroke-width="1.5" d="M40,525L46,570L52,525L58,570L65,498L71,525L77,479L83,498L89,479L95,453L107,434L114,479L120,479L126,453L132,453L138,498L144,419L150,419L156,362L163,362L169,392L175,290L181,318L187,305L193,253L199,258L206,238L212,214L218,204L224,180L230,173L236,170L242,160L248,126L254,124"/><path fill="none" stroke="steelblue" stroke-width="1.5" stroke-dasharray="3,3" d="M254,124L260,115L267,106L273,97L279,89L285,82L291,76L297,71L303,66L309,63L316,60L322,57L328,55L334,54L340,54L346,53L352,54L359,54L365,55L371,57L377,58L383,60L389,63L395,65L401,68L408,70L414,73L420,76L426,79L432,83L438,86L444,89L450,92L457,96L463,99L469,102L475,106L481,109L487,113L493,116L500,120L506,124L512,127L518,131L524,135L530,139L536,143L542,148L549,152L555,157L561,161L567,166L573,170L579,175L585,180L591,185L598,190L604,195L610,200L616,205L622,211L628,216L634,221L641,226L647,232L653,237L659,243L665,248L671,253L677,259L683,264L690,270L696,276L702,281L708,287L714,292L720,297L726,304L732,309L739,315L745,320L751,325L757,332L763,337L769,343L775,349L782,354L788,359L794,367L800,374L806,381L812,384L818,392L824,402L831,407L837,413L843,419L849,426L855,434L861,442L867,453L873,453L880,464L886,464L892,479L898,479"/><circle cx="254" cy="124" r="2.5" fill="black"/><text x="254" y="124" dx="6" dy="0.35em">900</text><text x="254" y="124" dx="6" dy="1.35em">April 1</text></svg>