<svg xmlns="http://www.w3.org/2000/svg" width="810" height="240.0" viewBox="0 0 810 240.0"><rect x="5" y="0" width="800" height="240.0" fill="#d4d4d1"/><g class="xlines"><line x1="25.0" y1="240.0" x2="25.0" y2="0.0" stroke="#f8f8f8"/><line x1="45.0" y1="240.0" x2="45.0" y2="0.0" stroke="#f8f8f8"/><line x1="65.0" y1="240.0" x2="65.0" y2="0.0" stroke="#f8f8f8"/><line x1="85.0" y1="240.0" x2="85.0" y2="0.0" stroke="#f8f8f8"/><line x1="105.0" y1="240.0" x2="105.0" y2="0.0" stroke="#f8f8f8"/><line x1="125.0" y1="240.0" x2="125.0" y2="0.0" stroke="#f8f8f8"/><line x1="145.0" y1="240.0" x2="145.0" y2="0.0" stroke="#f8f8f8"/><line x1="165.0" y1="240.0" x2="165.0" y2="0.0" stroke="#f8f8f8"/><line x1="185.0" y1="240.0" x2="185.0" y2="0.0" stroke="#f8f8f8"/><line x1="205.0" y1="240.0" x2="205.0" y2="0.0" stroke="#f8f8f8"/><line x1="225.00000000000003" y1="240.0" x2="225.00000000000003" y2="0.0" stroke="#f8f8f8"/><line x1="245.0" y1="240.0" x2="245.0" y2="0.0" stroke="#f8f8f8"/><line x1="265.0" y1="240.0" x2="265.0" y2="0.0" stroke="#f8f8f8"/><line x1="285.0" y1="240.0" x2="285.0" y2="0.0" stroke="#f8f8f8"/><line x1="305.0" y1="240.0" x2="305.0" y2="0.0" stroke="#f8f8f8"/><line x1="325.0" y1="240.0" x2="325.0" y2="0.0" stroke="#f8f8f8"/><line x1="345.0" y1="240.0" x2="345.0" y2="0.0" stroke="#f8f8f8"/><line x1="365.0" y1="240.0" x2="365.0" y2="0.0" stroke="#f8f8f8"/><line x1="385.0" y1="240.0" x2="385.0" y2="0.0" stroke="#f8f8f8"/><line x1="405.0" y1="240.0" x2="405.0" y2="0.0" stroke="#f8f8f8"/><line x1="425.0" y1="240.0" x2="425.0" y2="0.0" stroke="#f8f8f8"/><line x1="445.00000000000006" y1="240.0" x2="445.00000000000006" y2="0.0" stroke="#f8f8f8"/><line x1="464.99999999999994" y1="240.0" x2="464.99999999999994" y2="0.0" stroke="#f8f8f8"/><line x1="485.0" y1="240.0" x2="485.0" y2="0.0" stroke="#f8f8f8"/><line x1="505.0" y1="240.0" x2="505.0" y2="0.0" stroke="#f8f8f8"/><line x1="525.0" y1="240.0" x2="525.0" y2="0.0" stroke="#f8f8f8"/><line x1="545.0" y1="240.0" x2="545.0" y2="0.0" stroke="#f8f8f8"/><line x1="565.0" y1="240.0" x2="565.0" y2="0.0" stroke="#f8f8f8"/><line x1="585.0" y1="240.0" x2="585.0" y2="0.0" stroke="#f8f8f8"/><line x1="605.0" y1="240.0" x2="605.0" y2="0.0" stroke="#f8f8f8"/><line x1="625.0" y1="240.0" x2="625.0" y2="0.0" stroke="#f8f8f8"/><line x1="645.0" y1="240.0" x2="645.0" y2="0.0" stroke="#f8f8f8"/><line x1="665.0" y1="240.0" x2="665.0" y2="0.0" stroke="#f8f8f8"/><line x1="685.0" y1="240.0" x2="685.0" y2="0.0" stroke="#f8f8f8"/><line x1="705.0" y1="240.0" x2="705.0" y2="0.0" stroke="#f8f8f8"/><line x1="725.0" y1="240.0" x2="725.0" y2="0.0" stroke="#f8f8f8"/><line x1="745.0" y1="240.0" x2="745.0" y2="0.0" stroke="#f8f8f8"/><line x1="765.0" y1="240.0" x2="765.0" y2="0.0" stroke="#f8f8f8"/><line x1="785.0" y1="240.0" x2="785.0" y2="0.0" stroke="#f8f8f8"/></g><g class="ylines"><line x1="5.0" y1="220.0" x2="805.0" y2="220.0" stroke="#f8f8f8"/><line x1="5.0" y1="200.0" x2="805.0" y2="200.0" stroke="#f8f8f8"/><line x1="5.0" y1="180.0" x2="805.0" y2="180.0" stroke="#f8f8f8"/><line x1="5.0" y1="160.00000000000003" x2="805.0" y2="160.00000000000003" stroke="#f8f8f8"/><line x1="5.0" y1="139.99999999999997" x2="805.0" y2="139.99999999999997" stroke="#f8f8f8"/><line x1="5.0" y1="120.0" x2="805.0" y2="120.0" stroke="#f8f8f8"/><line x1="5.0" y1="99.99999999999999" x2="805.0" y2="99.99999999999999" stroke="#f8f8f8"/><line x1="5.0" y1="80.00000000000001" x2="805.0" y2="80.00000000000001" stroke="#f8f8f8"/><line x1="5.0" y1="60.0" x2="805.0" y2="60.0" stroke="#f8f8f8"/><line x1="5.0" y1="39.99999999999999" x2="805.0" y2="39.99999999999999" stroke="#f8f8f8"/><line x1="5.0" y1="20.000000000000007" x2="805.0" y2="20.000000000000007" stroke="#f8f8f8"/></g><g class="ease"><path d="M5,240L8.200,239.993L11.400,239.986L14.600,239.979L17.800,239.971L21,239.963L24.200,239.954L27.400,239.944L30.600,239.935L33.800,239.924L37,239.913L40.200,239.901L43.400,239.889L46.600,239.876L49.800,239.862L53,239.848L56.200,239.832L59.400,239.816L62.600,239.799L65.800,239.781L69,239.762L72.200,239.741L75.400,239.720L78.600,239.697L81.800,239.673L85,239.648L88.200,239.621L91.400,239.593L94.600,239.563L97.800,239.532L101,239.498L104.200,239.463L107.400,239.426L110.600,239.386L113.800,239.344L117,239.300L120.200,239.254L123.400,239.205L126.600,239.153L129.800,239.097L133,239.039L136.200,238.978L139.400,238.913L142.600,238.844L145.800,238.772L149,238.695L152.200,238.614L155.400,238.528L158.600,238.437L161.800,238.342L165,238.240L168.200,238.133L171.400,238.020L174.600,237.901L177.800,237.774L181,237.641L184.200,237.500L187.400,237.350L190.600,237.193L193.800,237.026L197,236.850L200.200,236.663L203.400,236.466L206.600,236.258L209.800,236.038L213,235.805L216.200,235.560L219.400,235.300L222.600,235.025L225.800,234.735L229,234.428L232.200,234.103L235.400,233.761L238.600,233.398L241.800,233.015L245,232.610L248.200,232.182L251.400,231.729L254.600,231.251L257.800,230.746L261,230.211L264.200,229.646L267.400,229.049L270.600,228.418L273.800,227.751L277,227.046L280.200,226.301L283.400,225.513L286.600,224.681L289.800,223.800L293,222.870L296.200,221.887L299.400,220.847L302.600,219.748L305.800,218.587L309,217.359L312.200,216.062L315.400,214.690L318.600,213.240L321.800,211.708L325,210.088L328.200,208.376L331.400,206.566L334.600,204.653L337.800,202.631L341,200.493L344.200,198.234L347.400,195.846L350.600,193.322L353.800,190.654L357,187.833L360.200,184.852L363.400,181.701L366.600,178.370L369.800,174.849L373,171.128L376.200,167.194L379.400,163.036L382.600,158.641L385.800,153.996L389,149.085L392.200,143.895L395.400,138.409L398.600,132.609L401.800,126.479L405,120L408.200,113.521L411.400,107.391L414.600,101.591L417.800,96.105L421,90.915L424.200,86.004L427.400,81.359L430.600,76.964L433.800,72.806L437,68.872L440.200,65.151L443.400,61.630L446.600,58.299L449.800,55.148L453,52.167L456.200,49.346L459.400,46.678L462.600,44.154L465.800,41.766L469,39.507L472.200,37.369L475.400,35.347L478.600,33.434L481.800,31.624L485,29.912L488.200,28.292L491.400,26.760L494.600,25.310L497.800,23.938L501,22.641L504.200,21.413L507.400,20.252L510.600,19.153L513.800,18.113L517,17.130L520.200,16.200L523.400,15.319L526.600,14.487L529.800,13.699L533,12.954L536.200,12.249L539.400,11.582L542.600,10.951L545.800,10.354L549,9.789L552.200,9.254L555.400,8.749L558.600,8.271L561.800,7.818L565,7.390L568.200,6.985L571.400,6.602L574.600,6.239L577.800,5.897L581,5.572L584.200,5.265L587.400,4.975L590.600,4.700L593.800,4.440L597,4.195L600.200,3.962L603.400,3.742L606.600,3.534L609.800,3.337L613,3.150L616.200,2.974L619.400,2.807L622.600,2.650L625.800,2.500L629,2.359L632.200,2.226L635.400,2.099L638.600,1.980L641.800,1.867L645,1.760L648.200,1.658L651.400,1.563L654.600,1.472L657.800,1.386L661,1.305L664.200,1.228L667.400,1.156L670.600,1.087L673.800,1.022L677,0.961L680.200,0.903L683.400,0.847L686.600,0.795L689.800,0.746L693,0.700L696.200,0.656L699.400,0.614L702.600,0.574L705.800,0.537L709,0.502L712.200,0.468L715.400,0.437L718.600,0.407L721.800,0.379L725,0.352L728.200,0.327L731.400,0.303L734.600,0.280L737.800,0.259L741,0.238L744.200,0.219L747.400,0.201L750.600,0.184L753.800,0.168L757,0.152L760.200,0.138L763.400,0.124L766.600,0.111L769.800,0.099L773,0.087L776.200,0.076L779.400,0.065L782.600,0.056L785.800,0.046L789,0.037L792.200,0.029L795.400,0.021L798.600,0.014L801.800,0.007L805,0" stroke="black" fill="none"/></g></svg>