<?xml version="1.0" encoding="UTF-8" standalone="no"?>
<!-- Created with Inkscape (http://www.inkscape.org/) -->

<svg
   width="58.434196mm"
   height="27.903196mm"
   viewBox="0 0 58.434196 27.903196"
   version="1.1"
   id="svg5"
   inkscape:version="1.2.1 (9c6d41e, 2022-07-14)"
   sodipodi:docname="light-logo.svg"
   xmlns:inkscape="http://www.inkscape.org/namespaces/inkscape"
   xmlns:sodipodi="http://sodipodi.sourceforge.net/DTD/sodipodi-0.dtd"
   xmlns="http://www.w3.org/2000/svg"
   xmlns:svg="http://www.w3.org/2000/svg">
  <sodipodi:namedview
     id="namedview7"
     pagecolor="#ffffff"
     bordercolor="#999999"
     borderopacity="1"
     inkscape:showpageshadow="0"
     inkscape:pageopacity="0"
     inkscape:pagecheckerboard="0"
     inkscape:deskcolor="#d1d1d1"
     inkscape:document-units="mm"
     showgrid="false"
     inkscape:zoom="4"
     inkscape:cx="88"
     inkscape:cy="106"
     inkscape:window-width="2560"
     inkscape:window-height="1409"
     inkscape:window-x="0"
     inkscape:window-y="0"
     inkscape:window-maximized="1"
     inkscape:current-layer="layer1" />
  <defs
     id="defs2">
    <rect
       x="117.67665"
       y="51.269192"
       width="262.49811"
       height="90.897911"
       id="rect2445" />
  </defs>
  <g
     inkscape:label="Calque 1"
     inkscape:groupmode="layer"
     id="layer1"
     transform="translate(-49.08773,-20.260549)">
    <g
       aria-label="etroit"
       transform="matrix(0.26458333,0,0,0.26458333,34.104487,10.74153)"
       id="text2443"
       style="font-size:64px;line-height:1.25;font-family:C059;-inkscape-font-specification:C059;letter-spacing:0px;word-spacing:0px;white-space:pre;shape-inside:url(#rect2445);display:inline;fill:#282828;stroke-width:1.37953">
      <path
         d="m 147.43578,92.037531 c 0.064,-9.6 -5.376,-16.384 -13.184,-16.384 -8.192,0 -14.336,7.104 -14.336,16.704 0,9.023999 5.824,15.039999 14.464,15.039999 6.144,0 10.432,-3.008 13.056,-9.087999 l -2.24,-1.216 c -2.624,4.927999 -5.312,6.847999 -9.6,6.847999 -3.264,0 -5.632,-1.344 -7.296,-4.223999 -1.152,-1.92 -1.664,-4.16 -1.6,-7.68 z m -20.672,-2.752 c 0,-1.984 0.256,-3.392 0.896,-5.184 1.344,-3.84 3.392,-5.696 6.528,-5.696 3.84,0 6.4,3.392 6.4,8.576 0,1.792 -0.576,2.304 -2.624,2.304 z"
         id="path295" />
      <path
         d="m 160.81163,76.613531 v -12.672 h -2.624 c -0.64,8.32 -3.456,12.544 -8.64,12.928 v 2.496 h 5.248 v 16.32 c 0,4.479999 0.128,6.079999 0.768,7.551999 1.024,2.688 3.584,4.16 7.296,4.16 5.76,0 9.472,-4.352 9.472,-11.135999 0,-0.384 0,-0.832 -0.064,-1.472 h -2.688 c -0.192,5.759999 -1.856,8.703999 -4.992,8.703999 -1.472,0 -2.752,-0.768 -3.2,-1.856 -0.384,-0.896 -0.576,-2.495999 -0.576,-4.799999 v -17.472 h 9.408 v -2.752 z"
         id="path297" />
      <path
         d="m 185.96363,76.613531 -11.328,0.704 v 2.752 h 2.624 c 2.432,0.064 2.752,0.448 2.752,3.2 v 15.296 3.007999 c -0.064,0.96 -0.128,1.344 -0.384,1.664 -0.448,0.576 -1.728,0.832 -4.48,0.896 h -0.256 v 2.304 h 17.088 v -2.304 h -1.152 c -4.288,-0.128 -4.864,-0.448 -4.864,-2.752 v -2.815999 -0.64 c 0.064,-10.752 3.904,-18.944 8.896,-19.2 -0.896,1.024 -1.152,1.664 -1.152,2.88 0,2.048 1.472,3.52 3.52,3.52 2.368,0 3.904,-1.728 3.904,-4.288 0,-3.136 -2.176,-5.184 -5.568,-5.184 -4.032,0 -7.488,3.2 -9.6,8.896 z"
         id="path299" />
      <path
         d="m 217.51545,75.653531 c -7.872,0 -13.952,6.976 -13.952,15.936 0,8.767999 6.144,15.807999 13.824,15.807999 7.68,0 13.824,-7.04 13.824,-15.871999 0,-8.768 -6.144,-15.872 -13.696,-15.872 z m 0,2.752 c 4.48,0 6.976,4.672 6.976,13.12 0,8.511999 -2.496,13.119999 -7.104,13.119999 -4.608,0 -7.104,-4.608 -7.104,-13.055999 0,-8.704 2.432,-13.184 7.232,-13.184 z"
         id="path301" />
      <path
         d="m 246.57133,76.613531 -12.032,0.704 v 2.752 h 3.264 c 2.432,0.064 2.752,0.448 2.752,3.2 v 15.296 3.007999 c -0.064,0.96 -0.128,1.344 -0.384,1.664 -0.448,0.576 -1.664,0.832 -4.416,0.896 h -0.448 v 2.304 h 16.576 v -2.304 h -0.448 c -4.288,-0.128 -4.864,-0.448 -4.864,-2.752 v -2.815999 z m -3.008,-15.936 c -2.048,0 -3.712,1.664 -3.712,3.712 0,2.048 1.664,3.712 3.648,3.712 2.112,0 3.776,-1.664 3.776,-3.712 0,-2.048 -1.664,-3.712 -3.712,-3.712 z"
         id="path303" />
      <path
         d="m 265.96324,76.613531 v -12.672 h -2.624 c -0.64,8.32 -3.456,12.544 -8.64,12.928 v 2.496 h 5.248 v 16.32 c 0,4.479999 0.128,6.079999 0.768,7.551999 1.024,2.688 3.584,4.16 7.296,4.16 5.76,0 9.472,-4.352 9.472,-11.135999 0,-0.384 0,-0.832 -0.064,-1.472 h -2.688 c -0.192,5.759999 -1.856,8.703999 -4.992,8.703999 -1.472,0 -2.752,-0.768 -3.2,-1.856 -0.384,-0.896 -0.576,-2.495999 -0.576,-4.799999 v -17.472 h 9.408 v -2.752 z"
         id="path305" />
    </g>
    <path
       style="fill:#595959;fill-opacity:0.000215239;stroke:#282828;stroke-width:2.26396;stroke-linecap:round;stroke-dasharray:none;stroke-opacity:1;paint-order:fill markers stroke"
       id="path2605"
       sodipodi:type="arc"
       sodipodi:cx="50.219711"
       sodipodi:cy="34.212147"
       sodipodi:rx="13.591642"
       sodipodi:ry="12.819618"
       sodipodi:start="4.712389"
       sodipodi:end="1.5707963"
       sodipodi:arc-type="arc"
       d="M 50.219711,21.392529 A 13.591642,12.819618 0 0 1 63.811354,34.212147 13.591642,12.819618 0 0 1 50.219711,47.031765"
       sodipodi:open="true" />
    <g
       id="g6365"
       transform="translate(0,0.41031576)">
      <path
         style="fill:none;stroke:#ff191a;stroke-width:2;stroke-linecap:round;stroke-linejoin:miter;stroke-dasharray:none;stroke-opacity:1"
         d="m 50.136283,30.056458 h 6.026266"
         id="path4013"
         sodipodi:nodetypes="cc" />
      <path
         style="fill:none;stroke:#1919ff;stroke-width:2;stroke-linecap:round;stroke-linejoin:miter;stroke-dasharray:none;stroke-opacity:1"
         d="m 50.08773,33.801831 h 3.509043"
         id="path4013-6"
         sodipodi:nodetypes="cc" />
      <path
         style="fill:none;stroke:#48b8ff;stroke-width:2;stroke-linecap:round;stroke-linejoin:miter;stroke-dasharray:none;stroke-opacity:1"
         d="m 50.087731,37.547204 h 8.604897"
         id="path4013-6-9"
         sodipodi:nodetypes="cc" />
    </g>
  </g>
</svg>
